<?xml version="1.0" standalone="no"?>
 <!DOCTYPE svg PUBLIC "-//W3C//DTD SVG 1.1//EN" 
 "http://www.w3.org/Graphics/SVG/1.1/DTD/svg11.dtd"> 
<svg xmlns="http://www.w3.org/2000/svg" version="1.1" 
    width="41.9989cm" height="29.7002cm" viewBox="0 0 165350 116930 ">
<title>SVG Picture created as comms_surge-protector.sch.svg date 2017/08/11 20:29:14 </title>
  <desc>Picture generated by Eeschema-SVG </desc>
<g style="fill:#000000; fill-opacity:1;stroke:#000000; stroke-opacity:1;
stroke-linecap:round; stroke-linejoin:round; "
 transform="translate(0 0) scale(1 1)">
</g>
<g style="fill:#000000; fill-opacity:0.0; 
stroke:#000000; stroke-width:0; stroke-opacity:1; 
stroke-linecap:round; stroke-linejoin:round;">
</g>
<g style="fill:#840000; fill-opacity:0.0; 
stroke:#840000; stroke-width:0; stroke-opacity:1; 
stroke-linecap:round; stroke-linejoin:round;">
</g>
<g style="fill:#840000; fill-opacity:0.0; 
stroke:#840000; stroke-width:60; stroke-opacity:1; 
stroke-linecap:round; stroke-linejoin:round;">
<polyline fill="none;"
points="60500,51500
60500,50500
" /> 
</g>
<g style="fill:#840000; fill-opacity:0.0; 
stroke:#840000; stroke-width:80; stroke-opacity:1; 
stroke-linecap:round; stroke-linejoin:round;">
<polyline fill="none;"
points="61000,50000
60500,51000
60000,50000
61000,50000
" /> 
<polyline fill="none;"
points="60000,51200
60000,51000
61000,51000
61000,50800
" /> 
<polyline fill="none;"
points="60000,52000
61000,52000
60500,51000
60000,52000
" /> 
</g>
<g style="fill:#840000; fill-opacity:0.0; 
stroke:#840000; stroke-width:60; stroke-opacity:1; 
stroke-linecap:round; stroke-linejoin:round;">
<path d="M60500 50500
L60500 49500
" />
<path d="M60500 51500
L60500 52500
" />
</g>
<g style="fill:#008484; fill-opacity:0.0; 
stroke:#008484; stroke-width:60; stroke-opacity:1; 
stroke-linecap:round; stroke-linejoin:round;">
<path d="M59760 51370
L59260 51370
L59260 51250
L59280 51180
L59330 51130
L59380 51110
L59470 51090
L59540 51090
L59640 51110
L59680 51130
L59730 51180
L59760 51250
L59760 51370
" />
<path d="M59760 50610
L59760 50890
" />
<path d="M59760 50750
L59260 50750
L59330 50800
L59380 50850
L59400 50890
" />
<path d="M61470 51500
L61450 51550
L61420 51570
L61380 51590
L61350 51590
L61300 51570
L61280 51550
L61260 51500
L61260 51400
L61280 51360
L61300 51330
L61350 51310
L61380 51310
L61420 51330
L61450 51360
L61470 51400
L61470 51500
L61490 51550
L61520 51570
L61570 51590
L61660 51590
L61710 51570
L61730 51550
L61760 51500
L61760 51400
L61730 51360
L61710 51330
L61660 51310
L61570 51310
L61520 51330
L61490 51360
L61470 51400
" />
<path d="M61300 51110
L61280 51090
L61260 51040
L61260 50920
L61280 50880
L61300 50850
L61350 50830
L61400 50830
L61470 50850
L61760 51140
L61760 50830
" />
<path d="M61260 50680
L61760 50520
L61260 50350
" />
</g>
<g style="fill:#008484; fill-opacity:0.0; 
stroke:#008484; stroke-width:0; stroke-opacity:1; 
stroke-linecap:round; stroke-linejoin:round;">
</g>
<g style="fill:#840000; fill-opacity:0.0; 
stroke:#840000; stroke-width:0; stroke-opacity:1; 
stroke-linecap:round; stroke-linejoin:round;">
</g>
<g style="fill:#840000; fill-opacity:0.0; 
stroke:#840000; stroke-width:60; stroke-opacity:1; 
stroke-linecap:round; stroke-linejoin:round;">
<polyline fill="none;"
points="60500,60500
60500,59500
" /> 
</g>
<g style="fill:#840000; fill-opacity:0.0; 
stroke:#840000; stroke-width:80; stroke-opacity:1; 
stroke-linecap:round; stroke-linejoin:round;">
<polyline fill="none;"
points="61000,59000
60500,60000
60000,59000
61000,59000
" /> 
<polyline fill="none;"
points="60000,60200
60000,60000
61000,60000
61000,59800
" /> 
<polyline fill="none;"
points="60000,61000
61000,61000
60500,60000
60000,61000
" /> 
</g>
<g style="fill:#840000; fill-opacity:0.0; 
stroke:#840000; stroke-width:60; stroke-opacity:1; 
stroke-linecap:round; stroke-linejoin:round;">
<path d="M60500 59500
L60500 58500
" />
<path d="M60500 60500
L60500 61500
" />
</g>
<g style="fill:#008484; fill-opacity:0.0; 
stroke:#008484; stroke-width:60; stroke-opacity:1; 
stroke-linecap:round; stroke-linejoin:round;">
<path d="M59760 60370
L59260 60370
L59260 60250
L59280 60180
L59330 60130
L59380 60110
L59470 60090
L59540 60090
L59640 60110
L59680 60130
L59730 60180
L59760 60250
L59760 60370
" />
<path d="M59260 59630
L59260 59870
L59490 59890
L59470 59870
L59450 59820
L59450 59700
L59470 59660
L59490 59630
L59540 59610
L59660 59610
L59710 59630
L59730 59660
L59760 59700
L59760 59820
L59730 59870
L59710 59890
" />
<path d="M61470 60500
L61450 60550
L61420 60570
L61380 60590
L61350 60590
L61300 60570
L61280 60550
L61260 60500
L61260 60400
L61280 60360
L61300 60330
L61350 60310
L61380 60310
L61420 60330
L61450 60360
L61470 60400
L61470 60500
L61490 60550
L61520 60570
L61570 60590
L61660 60590
L61710 60570
L61730 60550
L61760 60500
L61760 60400
L61730 60360
L61710 60330
L61660 60310
L61570 60310
L61520 60330
L61490 60360
L61470 60400
" />
<path d="M61300 60110
L61280 60090
L61260 60040
L61260 59920
L61280 59880
L61300 59850
L61350 59830
L61400 59830
L61470 59850
L61760 60140
L61760 59830
" />
<path d="M61260 59680
L61760 59520
L61260 59350
" />
</g>
<g style="fill:#008484; fill-opacity:0.0; 
stroke:#008484; stroke-width:0; stroke-opacity:1; 
stroke-linecap:round; stroke-linejoin:round;">
</g>
<g style="fill:#840000; fill-opacity:0.0; 
stroke:#840000; stroke-width:0; stroke-opacity:1; 
stroke-linecap:round; stroke-linejoin:round;">
</g>
<g style="fill:#840000; fill-opacity:0.0; 
stroke:#840000; stroke-width:60; stroke-opacity:1; 
stroke-linecap:round; stroke-linejoin:round;">
<polyline fill="none;"
points="55500,56000
55500,55000
" /> 
</g>
<g style="fill:#840000; fill-opacity:0.0; 
stroke:#840000; stroke-width:80; stroke-opacity:1; 
stroke-linecap:round; stroke-linejoin:round;">
<polyline fill="none;"
points="56000,54500
55500,55500
55000,54500
56000,54500
" /> 
<polyline fill="none;"
points="55000,55700
55000,55500
56000,55500
56000,55300
" /> 
<polyline fill="none;"
points="55000,56500
56000,56500
55500,55500
55000,56500
" /> 
</g>
<g style="fill:#840000; fill-opacity:0.0; 
stroke:#840000; stroke-width:60; stroke-opacity:1; 
stroke-linecap:round; stroke-linejoin:round;">
<path d="M55500 55000
L55500 54000
" />
<path d="M55500 56000
L55500 57000
" />
</g>
<g style="fill:#008484; fill-opacity:0.0; 
stroke:#008484; stroke-width:60; stroke-opacity:1; 
stroke-linecap:round; stroke-linejoin:round;">
<path d="M54760 55870
L54260 55870
L54260 55750
L54280 55680
L54330 55630
L54380 55610
L54470 55590
L54540 55590
L54640 55610
L54680 55630
L54730 55680
L54760 55750
L54760 55870
" />
<path d="M54260 55420
L54260 55110
L54450 55280
L54450 55200
L54470 55160
L54490 55130
L54540 55110
L54660 55110
L54710 55130
L54730 55160
L54760 55200
L54760 55350
L54730 55390
L54710 55420
" />
<path d="M56470 56000
L56450 56050
L56420 56070
L56380 56090
L56350 56090
L56300 56070
L56280 56050
L56260 56000
L56260 55900
L56280 55860
L56300 55830
L56350 55810
L56380 55810
L56420 55830
L56450 55860
L56470 55900
L56470 56000
L56490 56050
L56520 56070
L56570 56090
L56660 56090
L56710 56070
L56730 56050
L56760 56000
L56760 55900
L56730 55860
L56710 55830
L56660 55810
L56570 55810
L56520 55830
L56490 55860
L56470 55900
" />
<path d="M56300 55610
L56280 55590
L56260 55540
L56260 55420
L56280 55380
L56300 55350
L56350 55330
L56400 55330
L56470 55350
L56760 55640
L56760 55330
" />
<path d="M56260 55180
L56760 55020
L56260 54850
" />
</g>
<g style="fill:#008484; fill-opacity:0.0; 
stroke:#008484; stroke-width:0; stroke-opacity:1; 
stroke-linecap:round; stroke-linejoin:round;">
</g>
<g style="fill:#840000; fill-opacity:0.0; 
stroke:#840000; stroke-width:0; stroke-opacity:1; 
stroke-linecap:round; stroke-linejoin:round;">
</g>
<g style="fill:#840000; fill-opacity:0.0; 
stroke:#840000; stroke-width:100; stroke-opacity:1; 
stroke-linecap:round; stroke-linejoin:round;">
<rect x="66000" y="47100" width="2000" height="800" rx="0" />
</g>
<g style="fill:#840000; fill-opacity:0.0; 
stroke:#840000; stroke-width:60; stroke-opacity:1; 
stroke-linecap:round; stroke-linejoin:round;">
<path d="M68000 47500
L68500 47500
" />
<path d="M66000 47500
L65500 47500
" />
</g>
<g style="fill:#008484; fill-opacity:0.0; 
stroke:#008484; stroke-width:60; stroke-opacity:1; 
stroke-linecap:round; stroke-linejoin:round;">
<path d="M66910 46890
L66750 46650
" />
<path d="M66630 46890
L66630 46390
L66820 46390
L66870 46410
L66890 46430
L66910 46480
L66910 46550
L66890 46600
L66870 46620
L66820 46650
L66630 46650
" />
<path d="M67390 46890
L67110 46890
" />
<path d="M67250 46890
L67250 46390
L67200 46460
L67150 46510
L67110 46530
" />
<path d="M66730 48350
L66730 48690
" />
<path d="M66610 48160
L66500 48520
L66800 48520
" />
<path d="M67000 48640
L67020 48660
L67000 48690
L66980 48660
L67000 48640
L67000 48690
" />
<path d="M67190 48190
L67520 48190
L67310 48690
" />
</g>
<g style="fill:#008484; fill-opacity:0.0; 
stroke:#008484; stroke-width:0; stroke-opacity:1; 
stroke-linecap:round; stroke-linejoin:round;">
</g>
<g style="fill:#840000; fill-opacity:0.0; 
stroke:#840000; stroke-width:0; stroke-opacity:1; 
stroke-linecap:round; stroke-linejoin:round;">
</g>
<g style="fill:#840000; fill-opacity:0.0; 
stroke:#840000; stroke-width:100; stroke-opacity:1; 
stroke-linecap:round; stroke-linejoin:round;">
<rect x="66000" y="63100" width="2000" height="800" rx="0" />
</g>
<g style="fill:#840000; fill-opacity:0.0; 
stroke:#840000; stroke-width:60; stroke-opacity:1; 
stroke-linecap:round; stroke-linejoin:round;">
<path d="M68000 63500
L68500 63500
" />
<path d="M66000 63500
L65500 63500
" />
</g>
<g style="fill:#008484; fill-opacity:0.0; 
stroke:#008484; stroke-width:60; stroke-opacity:1; 
stroke-linecap:round; stroke-linejoin:round;">
<path d="M66910 62890
L66750 62650
" />
<path d="M66630 62890
L66630 62390
L66820 62390
L66870 62410
L66890 62430
L66910 62480
L66910 62550
L66890 62600
L66870 62620
L66820 62650
L66630 62650
" />
<path d="M67110 62430
L67130 62410
L67180 62390
L67300 62390
L67340 62410
L67370 62430
L67390 62480
L67390 62530
L67370 62600
L67080 62890
L67390 62890
" />
<path d="M66730 64350
L66730 64690
" />
<path d="M66610 64160
L66500 64520
L66800 64520
" />
<path d="M67000 64640
L67020 64660
L67000 64690
L66980 64660
L67000 64640
L67000 64690
" />
<path d="M67190 64190
L67520 64190
L67310 64690
" />
</g>
<g style="fill:#008484; fill-opacity:0.0; 
stroke:#008484; stroke-width:0; stroke-opacity:1; 
stroke-linecap:round; stroke-linejoin:round;">
</g>
<g style="fill:#840000; fill-opacity:0.0; 
stroke:#840000; stroke-width:0; stroke-opacity:1; 
stroke-linecap:round; stroke-linejoin:round;">
</g>
<g style="fill:#840000; fill-opacity:1.0; 
stroke:#840000; stroke-width:60; stroke-opacity:1; 
stroke-linecap:round; stroke-linejoin:round;">
<circle cx="79100" cy="55500" r="100" /> 
</g>
<g style="fill:#840000; fill-opacity:0.0; 
stroke:#840000; stroke-width:60; stroke-opacity:1; 
stroke-linecap:round; stroke-linejoin:round;">
<circle cx="78500" cy="55500" r="1410" /> 
</g>
<g style="fill:#840000; fill-opacity:1.0; 
stroke:#840000; stroke-width:60; stroke-opacity:1; 
stroke-linecap:round; stroke-linejoin:round;">
<polyline style="fill-rule:evenodd;"
points="79000,54500
78000,54500
78500,55000
79000,54500
" /> 
<polyline style="fill-rule:evenodd;"
points="78000,56500
78500,56000
79000,56500
78000,56500
" /> 
<polyline style="fill-rule:evenodd;"
points="77500,55000
77500,56000
78000,55500
77500,55000
" /> 
</g>
<g style="fill:#840000; fill-opacity:0.0; 
stroke:#840000; stroke-width:60; stroke-opacity:1; 
stroke-linecap:round; stroke-linejoin:round;">
<path d="M78500 54500
L78500 52500
" />
<path d="M78380 53360
L78380 53640
" />
<path d="M78380 53500
L77880 53500
L77950 53550
L78000 53600
L78020 53640
" />
<path d="M77500 55500
L75500 55500
" />
<path d="M76360 54920
L76380 54900
L76430 54880
L76550 54880
L76590 54900
L76620 54920
L76640 54970
L76640 55020
L76620 55090
L76330 55380
L76640 55380
" />
<path d="M78500 56500
L78500 58500
" />
<path d="M77880 57670
L77880 57360
L78070 57530
L78070 57450
L78090 57410
L78110 57380
L78160 57360
L78280 57360
L78330 57380
L78350 57410
L78380 57450
L78380 57600
L78350 57640
L78330 57670
" />
</g>
<g style="fill:#008484; fill-opacity:0.0; 
stroke:#008484; stroke-width:60; stroke-opacity:1; 
stroke-linecap:round; stroke-linejoin:round;">
<path d="M80870 55240
L80810 55210
L80720 55210
L80640 55240
L80580 55300
L80550 55350
L80520 55470
L80520 55550
L80550 55670
L80580 55730
L80640 55780
L80720 55810
L80780 55810
L80870 55780
L80900 55750
L80900 55550
L80780 55550
" />
<path d="M81470 55810
L81120 55810
" />
<path d="M81300 55810
L81300 55210
L81240 55300
L81180 55350
L81120 55380
" />
<path d="M80670 54410
L80670 54900
L80640 54950
L80610 54980
L80560 55010
L80470 55010
L80410 54980
" />
<path d="M80670 54780
L80610 54810
L80500 54810
L80440 54780
L80410 54750
L80380 54700
L80380 54530
L80410 54470
L80440 54440
L80500 54410
L80610 54410
L80670 54440
" />
<path d="M81210 54810
L81210 54210
" />
<path d="M81210 54780
L81150 54810
L81040 54810
L80980 54780
L80950 54750
L80920 54700
L80920 54530
L80950 54470
L80980 54440
L81040 54410
L81150 54410
L81210 54440
" />
<path d="M81410 54410
L81640 54410
" />
<path d="M81490 54210
L81490 54730
L81520 54780
L81580 54810
L81640 54810
" />
<path d="M81690 54870
L82150 54870
" />
<path d="M82240 54210
L82610 54210
L82410 54440
L82490 54440
L82550 54470
L82580 54500
L82610 54550
L82610 54700
L82580 54750
L82550 54780
L82490 54810
L82320 54810
L82260 54780
L82240 54750
" />
</g>
<g style="fill:#008484; fill-opacity:0.0; 
stroke:#008484; stroke-width:0; stroke-opacity:1; 
stroke-linecap:round; stroke-linejoin:round;">
</g>
<g style="fill:#840000; fill-opacity:0.0; 
stroke:#840000; stroke-width:0; stroke-opacity:1; 
stroke-linecap:round; stroke-linejoin:round;">
</g>
<g style="fill:#840000; fill-opacity:0.0; 
stroke:#840000; stroke-width:100; stroke-opacity:1; 
stroke-linecap:round; stroke-linejoin:round;">
<rect x="84000" y="47200" width="2000" height="600" rx="0" />
</g>
<g style="fill:#840000; fill-opacity:0.0; 
stroke:#840000; stroke-width:60; stroke-opacity:1; 
stroke-linecap:round; stroke-linejoin:round;">
<polyline fill="none;"
points="86000,47500
84000,47500
" /> 
<path d="M86000 47500
L86500 47500
" />
<path d="M84000 47500
L83500 47500
" />
</g>
<g style="fill:#008484; fill-opacity:0.0; 
stroke:#008484; stroke-width:60; stroke-opacity:1; 
stroke-linecap:round; stroke-linejoin:round;">
<path d="M84840 46620
L84670 46620
" />
<path d="M84670 46890
L84670 46390
L84910 46390
" />
<path d="M85360 46890
L85080 46890
" />
<path d="M85220 46890
L85220 46390
L85170 46460
L85120 46510
L85080 46530
" />
<path d="M83900 48440
L83620 48440
" />
<path d="M83760 48440
L83760 47940
L83710 48010
L83660 48060
L83620 48080
" />
<path d="M84360 47940
L84120 47940
L84100 48170
L84120 48150
L84170 48130
L84290 48130
L84330 48150
L84360 48170
L84380 48220
L84380 48340
L84360 48390
L84330 48410
L84290 48440
L84170 48440
L84120 48410
L84100 48390
" />
<path d="M84690 47940
L84740 47940
L84790 47960
L84810 47980
L84840 48030
L84860 48130
L84860 48250
L84840 48340
L84810 48390
L84790 48410
L84740 48440
L84690 48440
L84650 48410
L84620 48390
L84600 48340
L84580 48250
L84580 48130
L84600 48030
L84620 47980
L84650 47960
L84690 47940
" />
<path d="M85080 48440
L85080 48100
" />
<path d="M85080 48150
L85100 48130
L85150 48100
L85220 48100
L85270 48130
L85290 48170
L85290 48440
" />
<path d="M85290 48170
L85320 48130
L85360 48100
L85440 48100
L85480 48130
L85510 48170
L85510 48440
" />
<path d="M85730 48290
L85960 48290
" />
<path d="M85680 48440
L85840 47940
L86010 48440
" />
<path d="M86350 48170
L86180 48170
" />
<path d="M86180 48440
L86180 47940
L86420 47940
" />
</g>
<g style="fill:#008484; fill-opacity:0.0; 
stroke:#008484; stroke-width:0; stroke-opacity:1; 
stroke-linecap:round; stroke-linejoin:round;">
</g>
<g style="fill:#840000; fill-opacity:0.0; 
stroke:#840000; stroke-width:0; stroke-opacity:1; 
stroke-linecap:round; stroke-linejoin:round;">
</g>
<g style="fill:#840000; fill-opacity:0.0; 
stroke:#840000; stroke-width:100; stroke-opacity:1; 
stroke-linecap:round; stroke-linejoin:round;">
<rect x="84000" y="63200" width="2000" height="600" rx="0" />
</g>
<g style="fill:#840000; fill-opacity:0.0; 
stroke:#840000; stroke-width:60; stroke-opacity:1; 
stroke-linecap:round; stroke-linejoin:round;">
<polyline fill="none;"
points="86000,63500
84000,63500
" /> 
<path d="M86000 63500
L86500 63500
" />
<path d="M84000 63500
L83500 63500
" />
</g>
<g style="fill:#008484; fill-opacity:0.0; 
stroke:#008484; stroke-width:60; stroke-opacity:1; 
stroke-linecap:round; stroke-linejoin:round;">
<path d="M84840 62620
L84670 62620
" />
<path d="M84670 62890
L84670 62390
L84910 62390
" />
<path d="M85080 62430
L85100 62410
L85150 62390
L85270 62390
L85310 62410
L85340 62430
L85360 62480
L85360 62530
L85340 62600
L85050 62890
L85360 62890
" />
<path d="M83900 64440
L83620 64440
" />
<path d="M83760 64440
L83760 63940
L83710 64010
L83660 64060
L83620 64080
" />
<path d="M84360 63940
L84120 63940
L84100 64170
L84120 64150
L84170 64130
L84290 64130
L84330 64150
L84360 64170
L84380 64220
L84380 64340
L84360 64390
L84330 64410
L84290 64440
L84170 64440
L84120 64410
L84100 64390
" />
<path d="M84690 63940
L84740 63940
L84790 63960
L84810 63980
L84840 64030
L84860 64130
L84860 64250
L84840 64340
L84810 64390
L84790 64410
L84740 64440
L84690 64440
L84650 64410
L84620 64390
L84600 64340
L84580 64250
L84580 64130
L84600 64030
L84620 63980
L84650 63960
L84690 63940
" />
<path d="M85080 64440
L85080 64100
" />
<path d="M85080 64150
L85100 64130
L85150 64100
L85220 64100
L85270 64130
L85290 64170
L85290 64440
" />
<path d="M85290 64170
L85320 64130
L85360 64100
L85440 64100
L85480 64130
L85510 64170
L85510 64440
" />
<path d="M85730 64290
L85960 64290
" />
<path d="M85680 64440
L85840 63940
L86010 64440
" />
<path d="M86350 64170
L86180 64170
" />
<path d="M86180 64440
L86180 63940
L86420 63940
" />
</g>
<g style="fill:#0000C2; fill-opacity:0.0; 
stroke:#0000C2; stroke-width:60; stroke-opacity:1; 
stroke-linecap:round; stroke-linejoin:round;">
</g>
<g style="fill:#0000C2; fill-opacity:0.0; 
stroke:#0000C2; stroke-width:60; stroke-opacity:1; 
stroke-linecap:round; stroke-linejoin:round;stroke-dasharray:136.85,158.425;">
<path d="M42500 41000
L42500 69500
" />
</g>
<g style="fill:#0000C2; fill-opacity:0.0; 
stroke:#0000C2; stroke-width:60; stroke-opacity:1; 
stroke-linecap:round; stroke-linejoin:round;">
</g>
<g style="fill:#0000C2; fill-opacity:0.0; 
stroke:#0000C2; stroke-width:60; stroke-opacity:1; 
stroke-linecap:round; stroke-linejoin:round;stroke-dasharray:136.85,158.425;">
<path d="M97000 69500
L97000 41000
" />
</g>
<g style="fill:#0000C2; fill-opacity:0.0; 
stroke:#0000C2; stroke-width:60; stroke-opacity:1; 
stroke-linecap:round; stroke-linejoin:round;">
</g>
<g style="fill:#008400; fill-opacity:0.0; 
stroke:#008400; stroke-width:60; stroke-opacity:1; 
stroke-linecap:round; stroke-linejoin:round;">
<path d="M43000 41500
L96500 41500
" />
<path d="M96500 41500
L96500 69000
" />
<path d="M96500 69000
L72000 69000
" />
<path d="M72000 69000
L43000 69000
" />
<path d="M43000 69000
L43000 41500
" />
</g>
<g style="fill:#008400; fill-opacity:0.0; 
stroke:#008400; stroke-width:0; stroke-opacity:1; 
stroke-linecap:round; stroke-linejoin:round;">
</g>
<g style="fill:#840000; fill-opacity:0.0; 
stroke:#840000; stroke-width:0; stroke-opacity:1; 
stroke-linecap:round; stroke-linejoin:round;">
</g>
<g style="fill:#840000; fill-opacity:0.0; 
stroke:#840000; stroke-width:60; stroke-opacity:1; 
stroke-linecap:round; stroke-linejoin:round;">
<polyline fill="none;"
points="71750,74250
72250,74250
" /> 
<polyline fill="none;"
points="71950,74500
72050,74500
" /> 
<polyline fill="none;"
points="72000,74000
72000,73500
" /> 
<polyline fill="none;"
points="72500,74000
71500,74000
" /> 
</g>
<g style="fill:#840000; fill-opacity:0.0; 
stroke:#840000; stroke-width:0; stroke-opacity:1; 
stroke-linecap:round; stroke-linejoin:round;">
</g>
<g style="fill:#840000; fill-opacity:1.0; 
stroke:#840000; stroke-width:60; stroke-opacity:1; 
stroke-linecap:round; stroke-linejoin:round;">
<rect x="17500" y="56250" width="2000" height="500" rx="0" />
</g>
<g style="fill:#840000; fill-opacity:0.0; 
stroke:#840000; stroke-width:60; stroke-opacity:1; 
stroke-linecap:round; stroke-linejoin:round;">
<line x1="17500" y1="54250" x2="17500" y2="54250" />
</g>
<g style="fill:#840000; fill-opacity:1.0; 
stroke:#840000; stroke-width:60; stroke-opacity:1; 
stroke-linecap:round; stroke-linejoin:round;">
<rect x="17500" y="54250" width="2000" height="500" rx="0" />
</g>
<g style="fill:#840000; fill-opacity:0.0; 
stroke:#840000; stroke-width:60; stroke-opacity:1; 
stroke-linecap:round; stroke-linejoin:round;">
<path d="M19500 54500
L21500 54500
" />
<path d="M20640 54380
L20360 54380
" />
<path d="M20500 54380
L20500 53880
L20450 53950
L20400 54000
L20360 54020
" />
<path d="M19500 56500
L21500 56500
" />
<path d="M20360 55920
L20380 55900
L20430 55880
L20550 55880
L20590 55900
L20620 55920
L20640 55970
L20640 56020
L20620 56090
L20330 56380
L20640 56380
" />
</g>
<g style="fill:#008484; fill-opacity:0.0; 
stroke:#008484; stroke-width:60; stroke-opacity:1; 
stroke-linecap:round; stroke-linejoin:round;">
<path d="M18330 53510
L18330 53860
L18310 53930
L18260 53980
L18190 54010
L18140 54010
" />
<path d="M18830 54010
L18550 54010
" />
<path d="M18690 54010
L18690 53510
L18640 53580
L18590 53630
L18550 53650
" />
</g>
<g style="fill:#008484; fill-opacity:0.0; 
stroke:#008484; stroke-width:0; stroke-opacity:1; 
stroke-linecap:round; stroke-linejoin:round;">
</g>
<g style="fill:#840000; fill-opacity:0.0; 
stroke:#840000; stroke-width:0; stroke-opacity:1; 
stroke-linecap:round; stroke-linejoin:round;">
</g>
<g style="fill:#840000; fill-opacity:1.0; 
stroke:#840000; stroke-width:60; stroke-opacity:1; 
stroke-linecap:round; stroke-linejoin:round;">
<rect x="145500" y="56250" width="2000" height="500" rx="0" />
</g>
<g style="fill:#840000; fill-opacity:0.0; 
stroke:#840000; stroke-width:60; stroke-opacity:1; 
stroke-linecap:round; stroke-linejoin:round;">
<line x1="147500" y1="54250" x2="147500" y2="54250" />
</g>
<g style="fill:#840000; fill-opacity:1.0; 
stroke:#840000; stroke-width:60; stroke-opacity:1; 
stroke-linecap:round; stroke-linejoin:round;">
<rect x="145500" y="54250" width="2000" height="500" rx="0" />
</g>
<g style="fill:#840000; fill-opacity:0.0; 
stroke:#840000; stroke-width:60; stroke-opacity:1; 
stroke-linecap:round; stroke-linejoin:round;">
<path d="M145500 54500
L143500 54500
" />
<path d="M144640 54380
L144360 54380
" />
<path d="M144500 54380
L144500 53880
L144450 53950
L144400 54000
L144360 54020
" />
<path d="M145500 56500
L143500 56500
" />
<path d="M144360 55920
L144380 55900
L144430 55880
L144550 55880
L144590 55900
L144620 55920
L144640 55970
L144640 56020
L144620 56090
L144330 56380
L144640 56380
" />
</g>
<g style="fill:#008484; fill-opacity:0.0; 
stroke:#008484; stroke-width:60; stroke-opacity:1; 
stroke-linecap:round; stroke-linejoin:round;">
<path d="M146330 53510
L146330 53860
L146310 53930
L146260 53980
L146190 54010
L146140 54010
" />
<path d="M146520 53510
L146830 53510
L146660 53700
L146740 53700
L146780 53720
L146810 53740
L146830 53790
L146830 53910
L146810 53960
L146780 53980
L146740 54010
L146590 54010
L146550 53980
L146520 53960
" />
</g>
<g style="fill:#008400; fill-opacity:0.0; 
stroke:#008400; stroke-width:60; stroke-opacity:1; 
stroke-linecap:round; stroke-linejoin:round;">
<path d="M68500 47500
L78500 47500
" />
<path d="M78500 47500
L83500 47500
" />
<path d="M68500 63500
L78500 63500
" />
<path d="M78500 63500
L83500 63500
" />
<path d="M78500 52500
L78500 47500
" />
</g>
<g style="fill:#008400; fill-opacity:0.0; 
stroke:#008400; stroke-width:0; stroke-opacity:1; 
stroke-linecap:round; stroke-linejoin:round;">
</g>
<g style="fill:#008400; fill-opacity:1.0; 
stroke:#008400; stroke-width:100; stroke-opacity:1; 
stroke-linecap:round; stroke-linejoin:round;">
<circle cx="78500" cy="47500" r="200" /> 
</g>
<g style="fill:#008400; fill-opacity:1.0; 
stroke:#008400; stroke-width:60; stroke-opacity:1; 
stroke-linecap:round; stroke-linejoin:round;">
</g>
<g style="fill:#008400; fill-opacity:0.0; 
stroke:#008400; stroke-width:60; stroke-opacity:1; 
stroke-linecap:round; stroke-linejoin:round;">
<path d="M78500 58500
L78500 63500
" />
</g>
<g style="fill:#008400; fill-opacity:0.0; 
stroke:#008400; stroke-width:0; stroke-opacity:1; 
stroke-linecap:round; stroke-linejoin:round;">
</g>
<g style="fill:#008400; fill-opacity:1.0; 
stroke:#008400; stroke-width:100; stroke-opacity:1; 
stroke-linecap:round; stroke-linejoin:round;">
<circle cx="78500" cy="63500" r="200" /> 
</g>
<g style="fill:#008400; fill-opacity:1.0; 
stroke:#008400; stroke-width:60; stroke-opacity:1; 
stroke-linecap:round; stroke-linejoin:round;">
</g>
<g style="fill:#008400; fill-opacity:0.0; 
stroke:#008400; stroke-width:60; stroke-opacity:1; 
stroke-linecap:round; stroke-linejoin:round;">
<path d="M60500 52500
L60500 55500
" />
<path d="M60500 55500
L60500 58500
" />
<path d="M60500 55500
L72000 55500
" />
<path d="M72000 55500
L75500 55500
" />
</g>
<g style="fill:#008400; fill-opacity:0.0; 
stroke:#008400; stroke-width:0; stroke-opacity:1; 
stroke-linecap:round; stroke-linejoin:round;">
</g>
<g style="fill:#008400; fill-opacity:1.0; 
stroke:#008400; stroke-width:100; stroke-opacity:1; 
stroke-linecap:round; stroke-linejoin:round;">
<circle cx="60500" cy="55500" r="200" /> 
</g>
<g style="fill:#008400; fill-opacity:1.0; 
stroke:#008400; stroke-width:60; stroke-opacity:1; 
stroke-linecap:round; stroke-linejoin:round;">
</g>
<g style="fill:#008400; fill-opacity:0.0; 
stroke:#008400; stroke-width:60; stroke-opacity:1; 
stroke-linecap:round; stroke-linejoin:round;">
<path d="M60500 47500
L60500 49500
" />
<path d="M49500 47500
L55500 47500
" />
<path d="M55500 47500
L60500 47500
" />
<path d="M60500 47500
L65500 47500
" />
<path d="M60500 63500
L60500 61500
" />
<path d="M49500 63500
L55500 63500
" />
<path d="M55500 63500
L60500 63500
" />
<path d="M60500 63500
L65500 63500
" />
<path d="M55500 54000
L55500 47500
" />
</g>
<g style="fill:#008400; fill-opacity:0.0; 
stroke:#008400; stroke-width:0; stroke-opacity:1; 
stroke-linecap:round; stroke-linejoin:round;">
</g>
<g style="fill:#008400; fill-opacity:1.0; 
stroke:#008400; stroke-width:100; stroke-opacity:1; 
stroke-linecap:round; stroke-linejoin:round;">
<circle cx="60500" cy="47500" r="200" /> 
</g>
<g style="fill:#008400; fill-opacity:1.0; 
stroke:#008400; stroke-width:60; stroke-opacity:1; 
stroke-linecap:round; stroke-linejoin:round;">
</g>
<g style="fill:#008400; fill-opacity:0.0; 
stroke:#008400; stroke-width:60; stroke-opacity:1; 
stroke-linecap:round; stroke-linejoin:round;">
<path d="M55500 57000
L55500 63500
" />
</g>
<g style="fill:#008400; fill-opacity:0.0; 
stroke:#008400; stroke-width:0; stroke-opacity:1; 
stroke-linecap:round; stroke-linejoin:round;">
</g>
<g style="fill:#008400; fill-opacity:1.0; 
stroke:#008400; stroke-width:100; stroke-opacity:1; 
stroke-linecap:round; stroke-linejoin:round;">
<circle cx="60500" cy="63500" r="200" /> 
</g>
<g style="fill:#008400; fill-opacity:1.0; 
stroke:#008400; stroke-width:60; stroke-opacity:1; 
stroke-linecap:round; stroke-linejoin:round;">
</g>
<g style="fill:#008400; fill-opacity:0.0; 
stroke:#008400; stroke-width:60; stroke-opacity:1; 
stroke-linecap:round; stroke-linejoin:round;">
<path d="M72000 55500
L72000 69000
" />
<path d="M72000 69000
L72000 71500
" />
<path d="M72000 71500
L72000 73500
" />
</g>
<g style="fill:#008400; fill-opacity:0.0; 
stroke:#008400; stroke-width:0; stroke-opacity:1; 
stroke-linecap:round; stroke-linejoin:round;">
</g>
<g style="fill:#008400; fill-opacity:1.0; 
stroke:#008400; stroke-width:100; stroke-opacity:1; 
stroke-linecap:round; stroke-linejoin:round;">
<circle cx="72000" cy="69000" r="200" /> 
</g>
<g style="fill:#008400; fill-opacity:1.0; 
stroke:#008400; stroke-width:0; stroke-opacity:1; 
stroke-linecap:round; stroke-linejoin:round;">
</g>
<g style="fill:#008400; fill-opacity:1.0; 
stroke:#008400; stroke-width:100; stroke-opacity:1; 
stroke-linecap:round; stroke-linejoin:round;">
<circle cx="72000" cy="55500" r="200" /> 
</g>
<g style="fill:#008400; fill-opacity:1.0; 
stroke:#008400; stroke-width:60; stroke-opacity:1; 
stroke-linecap:round; stroke-linejoin:round;">
</g>
<g style="fill:#008400; fill-opacity:0.0; 
stroke:#008400; stroke-width:60; stroke-opacity:1; 
stroke-linecap:round; stroke-linejoin:round;">
<path d="M49500 53500
L49500 47500
" />
</g>
<g style="fill:#008400; fill-opacity:0.0; 
stroke:#008400; stroke-width:0; stroke-opacity:1; 
stroke-linecap:round; stroke-linejoin:round;">
</g>
<g style="fill:#008400; fill-opacity:1.0; 
stroke:#008400; stroke-width:100; stroke-opacity:1; 
stroke-linecap:round; stroke-linejoin:round;">
<circle cx="55500" cy="47500" r="200" /> 
</g>
<g style="fill:#008400; fill-opacity:1.0; 
stroke:#008400; stroke-width:60; stroke-opacity:1; 
stroke-linecap:round; stroke-linejoin:round;">
</g>
<g style="fill:#008400; fill-opacity:0.0; 
stroke:#008400; stroke-width:60; stroke-opacity:1; 
stroke-linecap:round; stroke-linejoin:round;">
<path d="M49500 57500
L49500 63500
" />
</g>
<g style="fill:#008400; fill-opacity:0.0; 
stroke:#008400; stroke-width:0; stroke-opacity:1; 
stroke-linecap:round; stroke-linejoin:round;">
</g>
<g style="fill:#008400; fill-opacity:1.0; 
stroke:#008400; stroke-width:100; stroke-opacity:1; 
stroke-linecap:round; stroke-linejoin:round;">
<circle cx="55500" cy="63500" r="200" /> 
</g>
<g style="fill:#008400; fill-opacity:1.0; 
stroke:#008400; stroke-width:60; stroke-opacity:1; 
stroke-linecap:round; stroke-linejoin:round;">
</g>
<g style="fill:#008400; fill-opacity:0.0; 
stroke:#008400; stroke-width:60; stroke-opacity:1; 
stroke-linecap:round; stroke-linejoin:round;">
<path d="M86500 47500
L92000 47500
" />
<path d="M92000 47500
L92000 53500
" />
<path d="M92000 53500
L121000 53500
" />
<path d="M86500 63500
L92000 63500
" />
<path d="M92000 63500
L92000 57500
" />
<path d="M92000 57500
L121000 57500
" />
</g>
<g style="fill:#008400; fill-opacity:0.0; 
stroke:#008400; stroke-width:0; stroke-opacity:1; 
stroke-linecap:round; stroke-linejoin:round;">
</g>
<g style="fill:#840000; fill-opacity:0.0; 
stroke:#840000; stroke-width:0; stroke-opacity:1; 
stroke-linecap:round; stroke-linejoin:round;">
</g>
<g style="fill:#840000; fill-opacity:0.0; 
stroke:#840000; stroke-width:60; stroke-opacity:1; 
stroke-linecap:round; stroke-linejoin:round;">
<path d="M124500 56999.1 A500 500 0.0 0 0 124001 56500 " />
<path d="M124001 57500 A500 500 0.0 0 0 124500 57000.9 " />
<path d="M124500 55999.1 A500 500 0.0 0 0 124001 55500 " />
<path d="M124001 56500 A500 500 0.0 0 0 124500 56000.9 " />
<path d="M124500 54999.1 A500 500 0.0 0 0 124001 54500 " />
<path d="M124001 55500 A500 500 0.0 0 0 124500 55000.9 " />
<path d="M124500 53999.1 A500 500 0.0 0 0 124001 53500 " />
<path d="M124001 54500 A500 500 0.0 0 0 124500 54000.9 " />
<path d="M126001 55500 A500 500 0.0 0 0 125500 56000.9 " />
<path d="M125500 55999.1 A500 500 0.0 0 0 126001 56500 " />
<path d="M126001 54500 A500 500 0.0 0 0 125500 55000.9 " />
<path d="M125500 54999.1 A500 500 0.0 0 0 126001 55500 " />
<path d="M126001 53500 A500 500 0.0 0 0 125500 54000.9 " />
<path d="M125500 53999.1 A500 500 0.0 0 0 126001 54500 " />
<path d="M126001 56500.1 A500 500 0.0 0 0 125510 57000.9 " />
<path d="M125510 57000.9 A500 500 0.0 0 0 126000 57499.9 " />
<polyline fill="none;"
points="124750,53500
124750,57500
" /> 
<polyline fill="none;"
points="125250,57500
125250,53500
" /> 
<path d="M124000 53500
L121000 53500
" />
<path d="M122640 53380
L122360 53380
" />
<path d="M122500 53380
L122500 52880
L122450 52950
L122400 53000
L122360 53020
" />
<path d="M124000 57500
L121000 57500
" />
<path d="M122360 56920
L122380 56900
L122430 56880
L122550 56880
L122590 56900
L122620 56920
L122640 56970
L122640 57020
L122620 57090
L122330 57380
L122640 57380
" />
<path d="M126000 57500
L129000 57500
" />
<path d="M127330 56880
L127640 56880
L127470 57070
L127550 57070
L127590 57090
L127620 57110
L127640 57160
L127640 57280
L127620 57330
L127590 57350
L127550 57380
L127400 57380
L127360 57350
L127330 57330
" />
<path d="M126000 53500
L129000 53500
" />
<path d="M127590 53040
L127590 53380
" />
<path d="M127470 52850
L127360 53210
L127660 53210
" />
</g>
<g style="fill:#008484; fill-opacity:0.0; 
stroke:#008484; stroke-width:60; stroke-opacity:1; 
stroke-linecap:round; stroke-linejoin:round;">
<path d="M124620 52760
L124900 52760
" />
<path d="M124760 53260
L124760 52760
" />
<path d="M125050 52800
L125070 52780
L125120 52760
L125240 52760
L125280 52780
L125310 52800
L125330 52850
L125330 52900
L125310 52970
L125020 53260
L125330 53260
" />
<path d="M124500 58300
L124520 58280
L124570 58260
L124690 58260
L124730 58280
L124760 58300
L124780 58350
L124780 58400
L124760 58470
L124470 58760
L124780 58760
" />
<path d="M125000 58710
L125020 58730
L125000 58760
L124980 58730
L125000 58710
L125000 58760
" />
<path d="M125000 58450
L125020 58470
L125000 58490
L124980 58470
L125000 58450
L125000 58490
" />
<path d="M125500 58760
L125220 58760
" />
<path d="M125360 58760
L125360 58260
L125310 58330
L125260 58380
L125220 58400
" />
</g>
<g style="fill:#008484; fill-opacity:0.0; 
stroke:#008484; stroke-width:0; stroke-opacity:1; 
stroke-linecap:round; stroke-linejoin:round;">
</g>
<g style="fill:#840000; fill-opacity:0.0; 
stroke:#840000; stroke-width:0; stroke-opacity:1; 
stroke-linecap:round; stroke-linejoin:round;">
</g>
<g style="fill:#840000; fill-opacity:0.0; 
stroke:#840000; stroke-width:60; stroke-opacity:1; 
stroke-linecap:round; stroke-linejoin:round;">
<path d="M35000 56999.1 A500 500 0.0 0 0 34500.9 56500 " />
<path d="M34500.9 57500 A500 500 0.0 0 0 35000 57000.9 " />
<path d="M35000 55999.1 A500 500 0.0 0 0 34500.9 55500 " />
<path d="M34500.9 56500 A500 500 0.0 0 0 35000 56000.9 " />
<path d="M35000 54999.1 A500 500 0.0 0 0 34500.9 54500 " />
<path d="M34500.9 55500 A500 500 0.0 0 0 35000 55000.9 " />
<path d="M35000 53999.1 A500 500 0.0 0 0 34500.9 53500 " />
<path d="M34500.9 54500 A500 500 0.0 0 0 35000 54000.9 " />
<path d="M36500.9 55500 A500 500 0.0 0 0 36000 56000.9 " />
<path d="M36000 55999.1 A500 500 0.0 0 0 36500.9 56500 " />
<path d="M36500.9 54500 A500 500 0.0 0 0 36000 55000.9 " />
<path d="M36000 54999.1 A500 500 0.0 0 0 36500.9 55500 " />
<path d="M36500.9 53500 A500 500 0.0 0 0 36000 54000.9 " />
<path d="M36000 53999.1 A500 500 0.0 0 0 36500.9 54500 " />
<path d="M36501.3 56500.1 A500 500 0.0 0 0 36010 57000.9 " />
<path d="M36010 57000.9 A500 500 0.0 0 0 36499.5 57499.9 " />
<polyline fill="none;"
points="35250,53500
35250,57500
" /> 
<polyline fill="none;"
points="35750,57500
35750,53500
" /> 
<path d="M34500 53500
L31500 53500
" />
<path d="M33140 53380
L32860 53380
" />
<path d="M33000 53380
L33000 52880
L32950 52950
L32900 53000
L32860 53020
" />
<path d="M34500 57500
L31500 57500
" />
<path d="M32860 56920
L32880 56900
L32930 56880
L33050 56880
L33090 56900
L33120 56920
L33140 56970
L33140 57020
L33120 57090
L32830 57380
L33140 57380
" />
<path d="M36500 57500
L39500 57500
" />
<path d="M37830 56880
L38140 56880
L37970 57070
L38050 57070
L38090 57090
L38120 57110
L38140 57160
L38140 57280
L38120 57330
L38090 57350
L38050 57380
L37900 57380
L37860 57350
L37830 57330
" />
<path d="M36500 53500
L39500 53500
" />
<path d="M38090 53040
L38090 53380
" />
<path d="M37970 52850
L37860 53210
L38160 53210
" />
</g>
<g style="fill:#008484; fill-opacity:0.0; 
stroke:#008484; stroke-width:60; stroke-opacity:1; 
stroke-linecap:round; stroke-linejoin:round;">
<path d="M35120 52760
L35400 52760
" />
<path d="M35260 53260
L35260 52760
" />
<path d="M35830 53260
L35550 53260
" />
<path d="M35690 53260
L35690 52760
L35640 52830
L35590 52880
L35550 52900
" />
<path d="M35280 58760
L35000 58760
" />
<path d="M35140 58760
L35140 58260
L35090 58330
L35040 58380
L35000 58400
" />
<path d="M35500 58710
L35520 58730
L35500 58760
L35480 58730
L35500 58710
L35500 58760
" />
<path d="M35500 58450
L35520 58470
L35500 58490
L35480 58470
L35500 58450
L35500 58490
" />
<path d="M35720 58300
L35740 58280
L35790 58260
L35910 58260
L35950 58280
L35980 58300
L36000 58350
L36000 58400
L35980 58470
L35690 58760
L36000 58760
" />
</g>
<g style="fill:#008400; fill-opacity:0.0; 
stroke:#008400; stroke-width:60; stroke-opacity:1; 
stroke-linecap:round; stroke-linejoin:round;">
<path d="M39500 53500
L49500 53500
" />
<path d="M39500 57500
L49500 57500
" />
<path d="M21500 54500
L23500 54500
" />
<path d="M23500 54500
L23500 53500
" />
<path d="M23500 53500
L30000 53500
" />
<path d="M30000 53500
L31500 53500
" />
<path d="M21500 56500
L23500 56500
" />
<path d="M23500 56500
L23500 57500
" />
<path d="M23500 57500
L30000 57500
" />
<path d="M30000 57500
L31500 57500
" />
<path d="M129000 53500
L130500 53500
" />
<path d="M130500 53500
L141500 53500
" />
<path d="M141500 53500
L141500 54500
" />
<path d="M141500 54500
L143500 54500
" />
<path d="M129000 57500
L130500 57500
" />
<path d="M130500 57500
L141500 57500
" />
<path d="M141500 57500
L141500 56500
" />
<path d="M141500 56500
L143500 56500
" />
</g>
<g style="fill:#008400; fill-opacity:0.0; 
stroke:#008400; stroke-width:0; stroke-opacity:1; 
stroke-linecap:round; stroke-linejoin:round;">
</g>
<g style="fill:#840000; fill-opacity:0.0; 
stroke:#840000; stroke-width:0; stroke-opacity:1; 
stroke-linecap:round; stroke-linejoin:round;">
</g>
<g style="fill:#840000; fill-opacity:0.0; 
stroke:#840000; stroke-width:60; stroke-opacity:1; 
stroke-linecap:round; stroke-linejoin:round;">
<polyline fill="none;"
points="130500,56000
130500,55000
" /> 
</g>
<g style="fill:#840000; fill-opacity:0.0; 
stroke:#840000; stroke-width:80; stroke-opacity:1; 
stroke-linecap:round; stroke-linejoin:round;">
<polyline fill="none;"
points="131000,54500
130500,55500
130000,54500
131000,54500
" /> 
<polyline fill="none;"
points="130000,55700
130000,55500
131000,55500
131000,55300
" /> 
<polyline fill="none;"
points="130000,56500
131000,56500
130500,55500
130000,56500
" /> 
</g>
<g style="fill:#840000; fill-opacity:0.0; 
stroke:#840000; stroke-width:60; stroke-opacity:1; 
stroke-linecap:round; stroke-linejoin:round;">
<path d="M130500 55000
L130500 54000
" />
<path d="M130500 56000
L130500 57000
" />
</g>
<g style="fill:#008484; fill-opacity:0.0; 
stroke:#008484; stroke-width:60; stroke-opacity:1; 
stroke-linecap:round; stroke-linejoin:round;">
<path d="M129760 55870
L129260 55870
L129260 55750
L129280 55680
L129330 55630
L129380 55610
L129470 55590
L129540 55590
L129640 55610
L129680 55630
L129730 55680
L129760 55750
L129760 55870
" />
<path d="M129420 55160
L129760 55160
" />
<path d="M129230 55280
L129590 55390
L129590 55090
" />
<path d="M131300 56090
L131280 56070
L131260 56020
L131260 55900
L131280 55860
L131300 55830
L131350 55810
L131400 55810
L131470 55830
L131760 56120
L131760 55810
" />
<path d="M131260 55500
L131260 55450
L131280 55400
L131300 55380
L131350 55350
L131450 55330
L131570 55330
L131660 55350
L131710 55380
L131730 55400
L131760 55450
L131760 55500
L131730 55540
L131710 55570
L131660 55590
L131570 55610
L131450 55610
L131350 55590
L131300 55570
L131280 55540
L131260 55500
" />
<path d="M131260 55180
L131760 55020
L131260 54850
" />
</g>
<g style="fill:#008400; fill-opacity:0.0; 
stroke:#008400; stroke-width:60; stroke-opacity:1; 
stroke-linecap:round; stroke-linejoin:round;">
<path d="M130500 54000
L130500 53500
" />
</g>
<g style="fill:#008400; fill-opacity:0.0; 
stroke:#008400; stroke-width:0; stroke-opacity:1; 
stroke-linecap:round; stroke-linejoin:round;">
</g>
<g style="fill:#008400; fill-opacity:1.0; 
stroke:#008400; stroke-width:100; stroke-opacity:1; 
stroke-linecap:round; stroke-linejoin:round;">
<circle cx="130500" cy="53500" r="200" /> 
</g>
<g style="fill:#008400; fill-opacity:1.0; 
stroke:#008400; stroke-width:60; stroke-opacity:1; 
stroke-linecap:round; stroke-linejoin:round;">
</g>
<g style="fill:#008400; fill-opacity:0.0; 
stroke:#008400; stroke-width:60; stroke-opacity:1; 
stroke-linecap:round; stroke-linejoin:round;">
<path d="M130500 57000
L130500 57500
" />
</g>
<g style="fill:#008400; fill-opacity:0.0; 
stroke:#008400; stroke-width:0; stroke-opacity:1; 
stroke-linecap:round; stroke-linejoin:round;">
</g>
<g style="fill:#008400; fill-opacity:1.0; 
stroke:#008400; stroke-width:100; stroke-opacity:1; 
stroke-linecap:round; stroke-linejoin:round;">
<circle cx="130500" cy="57500" r="200" /> 
</g>
<g style="fill:#008400; fill-opacity:1.0; 
stroke:#008400; stroke-width:0; stroke-opacity:1; 
stroke-linecap:round; stroke-linejoin:round;">
</g>
<g style="fill:#840000; fill-opacity:1.0; 
stroke:#840000; stroke-width:0; stroke-opacity:1; 
stroke-linecap:round; stroke-linejoin:round;">
</g>
<g style="fill:#840000; fill-opacity:0.0; 
stroke:#840000; stroke-width:100; stroke-opacity:1; 
stroke-linecap:round; stroke-linejoin:round;">
<polyline fill="none;"
points="103000,57500
103000,56500
" /> 
<polyline fill="none;"
points="103000,56000
103000,55000
" /> 
<polyline fill="none;"
points="103000,54500
103000,53500
" /> 
<polyline fill="none;"
points="104000,52500
105000,52500
" /> 
<polyline fill="none;"
points="105000,58500
104000,58500
" /> 
<polyline fill="none;"
points="106500,58500
105500,58500
" /> 
<polyline fill="none;"
points="106500,52500
105500,52500
" /> 
<polyline fill="none;"
points="108000,58500
107000,58500
" /> 
<polyline fill="none;"
points="108000,52500
107000,52500
" /> 
<polyline fill="none;"
points="108500,58500
109500,58500
" /> 
<polyline fill="none;"
points="109500,52500
108500,52500
" /> 
<polyline fill="none;"
points="110000,58500
111000,58500
" /> 
<polyline fill="none;"
points="111000,52500
110000,52500
" /> 
<polyline fill="none;"
points="111500,58500
112500,58500
" /> 
<polyline fill="none;"
points="112500,52500
111500,52500
" /> 
<polyline fill="none;"
points="113000,58500
114000,58500
" /> 
<polyline fill="none;"
points="114000,52500
113000,52500
" /> 
<polyline fill="none;"
points="115000,57500
115000,56500
" /> 
<polyline fill="none;"
points="115000,56000
115000,55000
" /> 
<polyline fill="none;"
points="115000,54500
115000,53500
" /> 
<polyline fill="none;"
points="103000,53000
103000,52500
103500,52500
" /> 
<polyline fill="none;"
points="103500,58500
103000,58500
103000,58000
" /> 
<polyline fill="none;"
points="114500,58500
115000,58500
115000,58000
" /> 
<polyline fill="none;"
points="115000,53000
115000,52500
114500,52500
" /> 
</g>
<g style="fill:#840000; fill-opacity:0.0; 
stroke:#840000; stroke-width:60; stroke-opacity:1; 
stroke-linecap:round; stroke-linejoin:round;">
<path d="M109000 58500
L109000 59500
" />
</g>
<g style="fill:#008484; fill-opacity:0.0; 
stroke:#008484; stroke-width:60; stroke-opacity:1; 
stroke-linecap:round; stroke-linejoin:round;">
<path d="M109200 58000
L109230 57930
L109230 57810
L109200 57770
L109180 57740
L109130 57720
L109080 57720
L109040 57740
L109010 57770
L108990 57810
L108960 57910
L108940 57960
L108920 57980
L108870 58000
L108820 58000
L108770 57980
L108750 57960
L108730 57910
L108730 57790
L108750 57720
" />
<path d="M109230 57500
L108730 57500
" />
<path d="M109230 57290
L108960 57290
L108920 57310
L108890 57360
L108890 57430
L108920 57480
L108940 57500
" />
<path d="M109230 57050
L108890 57050
" />
<path d="M108730 57050
L108750 57070
L108770 57050
L108750 57030
L108730 57050
L108770 57050
" />
<path d="M109200 56620
L109230 56670
L109230 56760
L109200 56810
L109150 56830
L108960 56830
L108920 56810
L108890 56760
L108890 56670
L108920 56620
L108960 56600
L109010 56600
L109060 56830
" />
<path d="M109230 56310
L109200 56360
L109150 56380
L108730 56380
" />
<path d="M109230 55910
L108730 55910
" />
<path d="M109200 55910
L109230 55950
L109230 56050
L109200 56100
L109180 56120
L109130 56140
L108990 56140
L108940 56120
L108920 56100
L108890 56050
L108890 55950
L108920 55910
" />
</g>
<g style="fill:#840000; fill-opacity:0.0; 
stroke:#840000; stroke-width:60; stroke-opacity:1; 
stroke-linecap:round; stroke-linejoin:round;">
<path d="M108880 58860
L108880 59140
" />
<path d="M108880 59000
L108380 59000
L108450 59050
L108500 59100
L108520 59140
" />
</g>
<g style="fill:#008484; fill-opacity:0.0; 
stroke:#008484; stroke-width:60; stroke-opacity:1; 
stroke-linecap:round; stroke-linejoin:round;">
<path d="M108830 51260
L108830 51610
L108810 51680
L108760 51730
L108690 51760
L108640 51760
" />
<path d="M109050 51300
L109070 51280
L109120 51260
L109240 51260
L109280 51280
L109310 51300
L109330 51350
L109330 51400
L109310 51470
L109020 51760
L109330 51760
" />
</g>
<g style="fill:#008400; fill-opacity:0.0; 
stroke:#008400; stroke-width:60; stroke-opacity:1; 
stroke-linecap:round; stroke-linejoin:round;">
<path d="M72000 71500
L109000 71500
" />
<path d="M109000 71500
L109000 59500
" />
</g>
<g style="fill:#008400; fill-opacity:0.0; 
stroke:#008400; stroke-width:0; stroke-opacity:1; 
stroke-linecap:round; stroke-linejoin:round;">
</g>
<g style="fill:#008400; fill-opacity:1.0; 
stroke:#008400; stroke-width:100; stroke-opacity:1; 
stroke-linecap:round; stroke-linejoin:round;">
<circle cx="72000" cy="71500" r="200" /> 
</g>
<g style="fill:#008400; fill-opacity:1.0; 
stroke:#008400; stroke-width:60; stroke-opacity:1; 
stroke-linecap:round; stroke-linejoin:round;">
</g>
<g style="fill:#0000C2; fill-opacity:0.0; 
stroke:#0000C2; stroke-width:60; stroke-opacity:1; 
stroke-linecap:round; stroke-linejoin:round;">
<path d="M149670 59220
L148490 59220
L148490 58770
L148550 58660
L148610 58600
L148720 58540
L148890 58540
L149000 58600
L149060 58660
L149110 58770
L149110 59220
" />
<path d="M149620 57590
L149670 57700
L149670 57930
L149620 58040
L149510 58100
L149060 58100
L148940 58040
L148890 57930
L148890 57700
L148940 57590
L149060 57530
L149170 57530
L149280 58100
" />
<path d="M149670 57030
L148890 57030
" />
<path d="M149110 57030
L149000 56970
L148940 56920
L148890 56800
L148890 56690
" />
<path d="M149670 56300
L148890 56300
" />
<path d="M148490 56300
L148550 56360
L148610 56300
L148550 56240
L148490 56300
L148610 56300
" />
<path d="M148890 55740
L150070 55740
" />
<path d="M148940 55740
L148890 55630
L148890 55400
L148940 55290
L149000 55230
L149110 55180
L149450 55180
L149560 55230
L149620 55290
L149670 55400
L149670 55630
L149620 55740
" />
<path d="M149670 54670
L148490 54670
" />
<path d="M149670 54160
L149060 54160
L148940 54220
L148890 54330
L148890 54500
L148940 54610
L149000 54670
" />
<path d="M149620 53150
L149670 53260
L149670 53490
L149620 53600
L149510 53660
L149060 53660
L148940 53600
L148890 53490
L148890 53260
L148940 53150
L149060 53090
L149170 53090
L149280 53660
" />
<path d="M149670 52590
L148890 52590
" />
<path d="M149110 52590
L149000 52530
L148940 52480
L148890 52360
L148890 52250
" />
<path d="M149670 51350
L149060 51350
L148940 51410
L148890 51520
L148890 51750
L148940 51860
" />
<path d="M149620 51350
L149670 51470
L149670 51750
L149620 51860
L149510 51920
L149390 51920
L149280 51860
L149220 51750
L149220 51470
L149170 51350
" />
<path d="M149670 50620
L149620 50730
L149510 50790
L148490 50790
" />
<path d="M151440 58710
L150260 58710
" />
<path d="M151390 58710
L151440 58830
L151440 59050
L151390 59160
L151330 59220
L151220 59280
L150880 59280
L150770 59220
L150710 59160
L150660 59050
L150660 58830
L150710 58710
" />
<path d="M151390 57700
L151440 57810
L151440 58040
L151390 58150
L151280 58210
L150830 58210
L150710 58150
L150660 58040
L150660 57810
L150710 57700
L150830 57640
L150940 57640
L151050 58210
" />
<path d="M150660 57250
L151440 56970
L150660 56690
" />
<path d="M151440 56240
L150660 56240
" />
<path d="M150260 56240
L150320 56300
L150380 56240
L150320 56180
L150260 56240
L150380 56240
" />
<path d="M151390 55170
L151440 55290
L151440 55510
L151390 55620
L151330 55680
L151220 55740
L150880 55740
L150770 55680
L150710 55620
L150660 55510
L150660 55290
L150710 55170
" />
<path d="M151390 54220
L151440 54330
L151440 54560
L151390 54670
L151280 54730
L150830 54730
L150710 54670
L150660 54560
L150660 54330
L150710 54220
L150830 54160
L150940 54160
L151050 54730
" />
<path d="M15830 58540
L15890 58600
L15940 58770
L15940 58880
L15890 59050
L15780 59160
L15660 59220
L15440 59280
L15270 59280
L15040 59220
L14930 59160
L14820 59050
L14760 58880
L14760 58770
L14820 58600
L14880 58540
" />
<path d="M15940 57870
L15890 57980
L15830 58040
L15720 58100
L15380 58100
L15270 58040
L15210 57980
L15160 57870
L15160 57700
L15210 57590
L15270 57530
L15380 57480
L15720 57480
L15830 57530
L15890 57590
L15940 57700
L15940 57870
" />
<path d="M15160 56970
L15940 56970
" />
<path d="M15270 56970
L15210 56910
L15160 56800
L15160 56630
L15210 56520
L15330 56460
L15940 56460
" />
<path d="M15160 56070
L15160 55620
" />
<path d="M14760 55900
L15780 55900
L15890 55840
L15940 55730
L15940 55620
" />
<path d="M15940 55230
L15160 55230
" />
<path d="M15380 55230
L15270 55170
L15210 55120
L15160 55000
L15160 54890
" />
<path d="M15940 54330
L15890 54440
L15830 54500
L15720 54560
L15380 54560
L15270 54500
L15210 54440
L15160 54330
L15160 54160
L15210 54050
L15270 53990
L15380 53940
L15720 53940
L15830 53990
L15890 54050
L15940 54160
L15940 54330
" />
<path d="M15940 53260
L15890 53370
L15780 53430
L14760 53430
" />
<path d="M15940 52640
L15890 52750
L15780 52810
L14760 52810
" />
<path d="M15890 51740
L15940 51850
L15940 52080
L15890 52190
L15780 52250
L15330 52250
L15210 52190
L15160 52080
L15160 51850
L15210 51740
L15330 51680
L15440 51680
L15550 52250
" />
<path d="M15940 51180
L15160 51180
" />
<path d="M15380 51180
L15270 51120
L15210 51070
L15160 50950
L15160 50840
" />
</g>
<g style="fill:#0000C2; fill-opacity:0.0; 
stroke:#0000C2; stroke-width:0; stroke-opacity:1; 
stroke-linecap:round; stroke-linejoin:round;">
</g>
<g style="fill:#840000; fill-opacity:0.0; 
stroke:#840000; stroke-width:0; stroke-opacity:1; 
stroke-linecap:round; stroke-linejoin:round;">
</g>
<g style="fill:#840000; fill-opacity:0.0; 
stroke:#840000; stroke-width:60; stroke-opacity:1; 
stroke-linecap:round; stroke-linejoin:round;">
<polyline fill="none;"
points="30000,56000
30000,55000
" /> 
</g>
<g style="fill:#840000; fill-opacity:0.0; 
stroke:#840000; stroke-width:80; stroke-opacity:1; 
stroke-linecap:round; stroke-linejoin:round;">
<polyline fill="none;"
points="30500,54500
30000,55500
29500,54500
30500,54500
" /> 
<polyline fill="none;"
points="29500,55700
29500,55500
30500,55500
30500,55300
" /> 
<polyline fill="none;"
points="29500,56500
30500,56500
30000,55500
29500,56500
" /> 
</g>
<g style="fill:#840000; fill-opacity:0.0; 
stroke:#840000; stroke-width:60; stroke-opacity:1; 
stroke-linecap:round; stroke-linejoin:round;">
<path d="M30000 55000
L30000 54000
" />
<path d="M30000 56000
L30000 57000
" />
</g>
<g style="fill:#008484; fill-opacity:0.0; 
stroke:#008484; stroke-width:60; stroke-opacity:1; 
stroke-linecap:round; stroke-linejoin:round;">
<path d="M29260 55870
L28760 55870
L28760 55750
L28780 55680
L28830 55630
L28880 55610
L28970 55590
L29040 55590
L29140 55610
L29180 55630
L29230 55680
L29260 55750
L29260 55870
" />
<path d="M28800 55390
L28780 55370
L28760 55320
L28760 55200
L28780 55160
L28800 55130
L28850 55110
L28900 55110
L28970 55130
L29260 55420
L29260 55110
" />
<path d="M30800 56090
L30780 56070
L30760 56020
L30760 55900
L30780 55860
L30800 55830
L30850 55810
L30900 55810
L30970 55830
L31260 56120
L31260 55810
" />
<path d="M30760 55500
L30760 55450
L30780 55400
L30800 55380
L30850 55350
L30950 55330
L31070 55330
L31160 55350
L31210 55380
L31230 55400
L31260 55450
L31260 55500
L31230 55540
L31210 55570
L31160 55590
L31070 55610
L30950 55610
L30850 55590
L30800 55570
L30780 55540
L30760 55500
" />
<path d="M30760 55180
L31260 55020
L30760 54850
" />
</g>
<g style="fill:#008400; fill-opacity:0.0; 
stroke:#008400; stroke-width:60; stroke-opacity:1; 
stroke-linecap:round; stroke-linejoin:round;">
<path d="M30000 54000
L30000 53500
" />
</g>
<g style="fill:#008400; fill-opacity:0.0; 
stroke:#008400; stroke-width:0; stroke-opacity:1; 
stroke-linecap:round; stroke-linejoin:round;">
</g>
<g style="fill:#008400; fill-opacity:1.0; 
stroke:#008400; stroke-width:100; stroke-opacity:1; 
stroke-linecap:round; stroke-linejoin:round;">
<circle cx="30000" cy="53500" r="200" /> 
</g>
<g style="fill:#008400; fill-opacity:1.0; 
stroke:#008400; stroke-width:60; stroke-opacity:1; 
stroke-linecap:round; stroke-linejoin:round;">
</g>
<g style="fill:#008400; fill-opacity:0.0; 
stroke:#008400; stroke-width:60; stroke-opacity:1; 
stroke-linecap:round; stroke-linejoin:round;">
<path d="M30000 57000
L30000 57500
" />
</g>
<g style="fill:#008400; fill-opacity:0.0; 
stroke:#008400; stroke-width:0; stroke-opacity:1; 
stroke-linecap:round; stroke-linejoin:round;">
</g>
<g style="fill:#008400; fill-opacity:1.0; 
stroke:#008400; stroke-width:100; stroke-opacity:1; 
stroke-linecap:round; stroke-linejoin:round;">
<circle cx="30000" cy="57500" r="200" /> 
</g>
<g style="fill:#008400; fill-opacity:1.0; 
stroke:#008400; stroke-width:60; stroke-opacity:1; 
stroke-linecap:round; stroke-linejoin:round;">
</g>
<g style="fill:#0000C2; fill-opacity:1.0; 
stroke:#0000C2; stroke-width:60; stroke-opacity:1; 
stroke-linecap:round; stroke-linejoin:round;">
</g>
<g style="fill:#0000C2; fill-opacity:1.0; 
stroke:#0000C2; stroke-width:60; stroke-opacity:1; 
stroke-linecap:round; stroke-linejoin:round;stroke-dasharray:136.85,158.425;">
</g>
<g style="fill:#0000C2; fill-opacity:0.0; 
stroke:#0000C2; stroke-width:60; stroke-opacity:1; 
stroke-linecap:round; stroke-linejoin:round;stroke-dasharray:136.85,158.425;">
<path d="M97000 41000
L42500 41000
" />
</g>
<g style="fill:#0000C2; fill-opacity:0.0; 
stroke:#0000C2; stroke-width:60; stroke-opacity:1; 
stroke-linecap:round; stroke-linejoin:round;">
</g>
<g style="fill:#0000C2; fill-opacity:0.0; 
stroke:#0000C2; stroke-width:60; stroke-opacity:1; 
stroke-linecap:round; stroke-linejoin:round;stroke-dasharray:136.85,158.425;">
<path d="M42500 69500
L97000 69500
" />
</g>
<g style="fill:#0000C2; fill-opacity:0.0; 
stroke:#0000C2; stroke-width:60; stroke-opacity:1; 
stroke-linecap:round; stroke-linejoin:round;">
</g> 
</svg>
