M48
;DRILL file {KiCad 4.0.6-e0-6349~53~ubuntu14.04.1} date Mon Jul  3 07:26:58 2017
;FORMAT={-:-/ absolute / metric / decimal}
FMAT,2
METRIC,TZ
T1C0.400
T2C0.800
T3C1.000
T4C3.500
%
G90
G05
M71
T1
X141.097Y-103.886
X153.797Y-103.886
X166.497Y-105.664
X166.751Y-101.6
X176.911Y-104.521
X176.911Y-107.061
X181.356Y-103.886
X185.42Y-103.886
T2
X120.777Y-103.886
X129.921Y-118.618
X135.255Y-91.186
X137.287Y-108.204
X138.303Y-96.774
X138.303Y-99.822
X144.653Y-105.156
X145.161Y-96.901
X157.607Y-103.886
X168.021Y-94.234
X168.275Y-118.872
X173.863Y-91.186
X173.863Y-97.79
X173.863Y-110.49
X185.42Y-105.918
T3
X108.077Y-103.886
X108.077Y-106.426
X151.511Y-84.328
X154.051Y-84.328
X156.591Y-84.328
X196.469Y-103.886
X196.469Y-106.426
T4
X108.077Y-84.582
X108.077Y-115.824
X196.469Y-84.582
X196.469Y-115.824
T0
M30
