G04 #@! TF.FileFunction,Legend,Top*
%FSLAX46Y46*%
G04 Gerber Fmt 4.6, Leading zero omitted, Abs format (unit mm)*
G04 Created by KiCad (PCBNEW 4.0.6-e0-6349~53~ubuntu14.04.1) date Mon Jul  3 07:26:06 2017*
%MOMM*%
%LPD*%
G01*
G04 APERTURE LIST*
%ADD10C,0.100000*%
%ADD11C,0.200000*%
%ADD12C,0.300000*%
%ADD13C,0.120000*%
%ADD14C,0.150000*%
G04 APERTURE END LIST*
D10*
X115125429Y-80345571D02*
X115268286Y-80393190D01*
X115315905Y-80440810D01*
X115363524Y-80536048D01*
X115363524Y-80678905D01*
X115315905Y-80774143D01*
X115268286Y-80821762D01*
X115173048Y-80869381D01*
X114792095Y-80869381D01*
X114792095Y-79869381D01*
X115125429Y-79869381D01*
X115220667Y-79917000D01*
X115268286Y-79964619D01*
X115315905Y-80059857D01*
X115315905Y-80155095D01*
X115268286Y-80250333D01*
X115220667Y-80297952D01*
X115125429Y-80345571D01*
X114792095Y-80345571D01*
X116220667Y-80869381D02*
X116220667Y-80345571D01*
X116173048Y-80250333D01*
X116077810Y-80202714D01*
X115887333Y-80202714D01*
X115792095Y-80250333D01*
X116220667Y-80821762D02*
X116125429Y-80869381D01*
X115887333Y-80869381D01*
X115792095Y-80821762D01*
X115744476Y-80726524D01*
X115744476Y-80631286D01*
X115792095Y-80536048D01*
X115887333Y-80488429D01*
X116125429Y-80488429D01*
X116220667Y-80440810D01*
X116696857Y-80202714D02*
X116696857Y-80869381D01*
X116696857Y-80297952D02*
X116744476Y-80250333D01*
X116839714Y-80202714D01*
X116982572Y-80202714D01*
X117077810Y-80250333D01*
X117125429Y-80345571D01*
X117125429Y-80869381D01*
X118030191Y-80869381D02*
X118030191Y-79869381D01*
X118030191Y-80821762D02*
X117934953Y-80869381D01*
X117744476Y-80869381D01*
X117649238Y-80821762D01*
X117601619Y-80774143D01*
X117554000Y-80678905D01*
X117554000Y-80393190D01*
X117601619Y-80297952D01*
X117649238Y-80250333D01*
X117744476Y-80202714D01*
X117934953Y-80202714D01*
X118030191Y-80250333D01*
X119268286Y-80202714D02*
X119268286Y-81202714D01*
X119268286Y-80250333D02*
X119363524Y-80202714D01*
X119554001Y-80202714D01*
X119649239Y-80250333D01*
X119696858Y-80297952D01*
X119744477Y-80393190D01*
X119744477Y-80678905D01*
X119696858Y-80774143D01*
X119649239Y-80821762D01*
X119554001Y-80869381D01*
X119363524Y-80869381D01*
X119268286Y-80821762D01*
X120601620Y-80869381D02*
X120601620Y-80345571D01*
X120554001Y-80250333D01*
X120458763Y-80202714D01*
X120268286Y-80202714D01*
X120173048Y-80250333D01*
X120601620Y-80821762D02*
X120506382Y-80869381D01*
X120268286Y-80869381D01*
X120173048Y-80821762D01*
X120125429Y-80726524D01*
X120125429Y-80631286D01*
X120173048Y-80536048D01*
X120268286Y-80488429D01*
X120506382Y-80488429D01*
X120601620Y-80440810D01*
X121030191Y-80821762D02*
X121125429Y-80869381D01*
X121315905Y-80869381D01*
X121411144Y-80821762D01*
X121458763Y-80726524D01*
X121458763Y-80678905D01*
X121411144Y-80583667D01*
X121315905Y-80536048D01*
X121173048Y-80536048D01*
X121077810Y-80488429D01*
X121030191Y-80393190D01*
X121030191Y-80345571D01*
X121077810Y-80250333D01*
X121173048Y-80202714D01*
X121315905Y-80202714D01*
X121411144Y-80250333D01*
X121839715Y-80821762D02*
X121934953Y-80869381D01*
X122125429Y-80869381D01*
X122220668Y-80821762D01*
X122268287Y-80726524D01*
X122268287Y-80678905D01*
X122220668Y-80583667D01*
X122125429Y-80536048D01*
X121982572Y-80536048D01*
X121887334Y-80488429D01*
X121839715Y-80393190D01*
X121839715Y-80345571D01*
X121887334Y-80250333D01*
X121982572Y-80202714D01*
X122125429Y-80202714D01*
X122220668Y-80250333D01*
X115363524Y-82374143D02*
X115315905Y-82421762D01*
X115173048Y-82469381D01*
X115077810Y-82469381D01*
X114934952Y-82421762D01*
X114839714Y-82326524D01*
X114792095Y-82231286D01*
X114744476Y-82040810D01*
X114744476Y-81897952D01*
X114792095Y-81707476D01*
X114839714Y-81612238D01*
X114934952Y-81517000D01*
X115077810Y-81469381D01*
X115173048Y-81469381D01*
X115315905Y-81517000D01*
X115363524Y-81564619D01*
X116173048Y-82421762D02*
X116077810Y-82469381D01*
X115887333Y-82469381D01*
X115792095Y-82421762D01*
X115744476Y-82326524D01*
X115744476Y-81945571D01*
X115792095Y-81850333D01*
X115887333Y-81802714D01*
X116077810Y-81802714D01*
X116173048Y-81850333D01*
X116220667Y-81945571D01*
X116220667Y-82040810D01*
X115744476Y-82136048D01*
X116649238Y-81802714D02*
X116649238Y-82469381D01*
X116649238Y-81897952D02*
X116696857Y-81850333D01*
X116792095Y-81802714D01*
X116934953Y-81802714D01*
X117030191Y-81850333D01*
X117077810Y-81945571D01*
X117077810Y-82469381D01*
X117411143Y-81802714D02*
X117792095Y-81802714D01*
X117554000Y-81469381D02*
X117554000Y-82326524D01*
X117601619Y-82421762D01*
X117696857Y-82469381D01*
X117792095Y-82469381D01*
X118506382Y-82421762D02*
X118411144Y-82469381D01*
X118220667Y-82469381D01*
X118125429Y-82421762D01*
X118077810Y-82326524D01*
X118077810Y-81945571D01*
X118125429Y-81850333D01*
X118220667Y-81802714D01*
X118411144Y-81802714D01*
X118506382Y-81850333D01*
X118554001Y-81945571D01*
X118554001Y-82040810D01*
X118077810Y-82136048D01*
X118982572Y-82469381D02*
X118982572Y-81802714D01*
X118982572Y-81993190D02*
X119030191Y-81897952D01*
X119077810Y-81850333D01*
X119173048Y-81802714D01*
X119268287Y-81802714D01*
X119601620Y-82374143D02*
X119649239Y-82421762D01*
X119601620Y-82469381D01*
X119554001Y-82421762D01*
X119601620Y-82374143D01*
X119601620Y-82469381D01*
X119601620Y-81850333D02*
X119649239Y-81897952D01*
X119601620Y-81945571D01*
X119554001Y-81897952D01*
X119601620Y-81850333D01*
X119601620Y-81945571D01*
X124601621Y-81564619D02*
X124649240Y-81517000D01*
X124744478Y-81469381D01*
X124982574Y-81469381D01*
X125077812Y-81517000D01*
X125125431Y-81564619D01*
X125173050Y-81659857D01*
X125173050Y-81755095D01*
X125125431Y-81897952D01*
X124554002Y-82469381D01*
X125173050Y-82469381D01*
X126077812Y-81469381D02*
X125601621Y-81469381D01*
X125554002Y-81945571D01*
X125601621Y-81897952D01*
X125696859Y-81850333D01*
X125934955Y-81850333D01*
X126030193Y-81897952D01*
X126077812Y-81945571D01*
X126125431Y-82040810D01*
X126125431Y-82278905D01*
X126077812Y-82374143D01*
X126030193Y-82421762D01*
X125934955Y-82469381D01*
X125696859Y-82469381D01*
X125601621Y-82421762D01*
X125554002Y-82374143D01*
X127315907Y-82469381D02*
X127315907Y-81469381D01*
X127411145Y-82088429D02*
X127696860Y-82469381D01*
X127696860Y-81802714D02*
X127315907Y-82183667D01*
X128125431Y-82469381D02*
X128125431Y-81469381D01*
X128125431Y-81945571D02*
X128696860Y-81945571D01*
X128696860Y-82469381D02*
X128696860Y-81469381D01*
X129077812Y-81802714D02*
X129601622Y-81802714D01*
X129077812Y-82469381D01*
X129601622Y-82469381D01*
X114792095Y-84069381D02*
X114792095Y-83069381D01*
X115173048Y-83069381D01*
X115268286Y-83117000D01*
X115315905Y-83164619D01*
X115363524Y-83259857D01*
X115363524Y-83402714D01*
X115315905Y-83497952D01*
X115268286Y-83545571D01*
X115173048Y-83593190D01*
X114792095Y-83593190D01*
X116220667Y-84069381D02*
X116220667Y-83545571D01*
X116173048Y-83450333D01*
X116077810Y-83402714D01*
X115887333Y-83402714D01*
X115792095Y-83450333D01*
X116220667Y-84021762D02*
X116125429Y-84069381D01*
X115887333Y-84069381D01*
X115792095Y-84021762D01*
X115744476Y-83926524D01*
X115744476Y-83831286D01*
X115792095Y-83736048D01*
X115887333Y-83688429D01*
X116125429Y-83688429D01*
X116220667Y-83640810D01*
X116649238Y-84021762D02*
X116744476Y-84069381D01*
X116934952Y-84069381D01*
X117030191Y-84021762D01*
X117077810Y-83926524D01*
X117077810Y-83878905D01*
X117030191Y-83783667D01*
X116934952Y-83736048D01*
X116792095Y-83736048D01*
X116696857Y-83688429D01*
X116649238Y-83593190D01*
X116649238Y-83545571D01*
X116696857Y-83450333D01*
X116792095Y-83402714D01*
X116934952Y-83402714D01*
X117030191Y-83450333D01*
X117458762Y-84021762D02*
X117554000Y-84069381D01*
X117744476Y-84069381D01*
X117839715Y-84021762D01*
X117887334Y-83926524D01*
X117887334Y-83878905D01*
X117839715Y-83783667D01*
X117744476Y-83736048D01*
X117601619Y-83736048D01*
X117506381Y-83688429D01*
X117458762Y-83593190D01*
X117458762Y-83545571D01*
X117506381Y-83450333D01*
X117601619Y-83402714D01*
X117744476Y-83402714D01*
X117839715Y-83450333D01*
X118315905Y-84069381D02*
X118315905Y-83069381D01*
X118315905Y-83450333D02*
X118411143Y-83402714D01*
X118601620Y-83402714D01*
X118696858Y-83450333D01*
X118744477Y-83497952D01*
X118792096Y-83593190D01*
X118792096Y-83878905D01*
X118744477Y-83974143D01*
X118696858Y-84021762D01*
X118601620Y-84069381D01*
X118411143Y-84069381D01*
X118315905Y-84021762D01*
X119649239Y-84069381D02*
X119649239Y-83545571D01*
X119601620Y-83450333D01*
X119506382Y-83402714D01*
X119315905Y-83402714D01*
X119220667Y-83450333D01*
X119649239Y-84021762D02*
X119554001Y-84069381D01*
X119315905Y-84069381D01*
X119220667Y-84021762D01*
X119173048Y-83926524D01*
X119173048Y-83831286D01*
X119220667Y-83736048D01*
X119315905Y-83688429D01*
X119554001Y-83688429D01*
X119649239Y-83640810D01*
X120125429Y-83402714D02*
X120125429Y-84069381D01*
X120125429Y-83497952D02*
X120173048Y-83450333D01*
X120268286Y-83402714D01*
X120411144Y-83402714D01*
X120506382Y-83450333D01*
X120554001Y-83545571D01*
X120554001Y-84069381D01*
X121458763Y-84069381D02*
X121458763Y-83069381D01*
X121458763Y-84021762D02*
X121363525Y-84069381D01*
X121173048Y-84069381D01*
X121077810Y-84021762D01*
X121030191Y-83974143D01*
X120982572Y-83878905D01*
X120982572Y-83593190D01*
X121030191Y-83497952D01*
X121077810Y-83450333D01*
X121173048Y-83402714D01*
X121363525Y-83402714D01*
X121458763Y-83450333D01*
X121934953Y-83974143D02*
X121982572Y-84021762D01*
X121934953Y-84069381D01*
X121887334Y-84021762D01*
X121934953Y-83974143D01*
X121934953Y-84069381D01*
X121934953Y-83450333D02*
X121982572Y-83497952D01*
X121934953Y-83545571D01*
X121887334Y-83497952D01*
X121934953Y-83450333D01*
X121934953Y-83545571D01*
X123173048Y-83688429D02*
X123934953Y-83688429D01*
X124315905Y-83069381D02*
X124934953Y-83069381D01*
X124601619Y-83450333D01*
X124744477Y-83450333D01*
X124839715Y-83497952D01*
X124887334Y-83545571D01*
X124934953Y-83640810D01*
X124934953Y-83878905D01*
X124887334Y-83974143D01*
X124839715Y-84021762D01*
X124744477Y-84069381D01*
X124458762Y-84069381D01*
X124363524Y-84021762D01*
X124315905Y-83974143D01*
X125792096Y-84069381D02*
X125792096Y-83069381D01*
X125792096Y-84021762D02*
X125696858Y-84069381D01*
X125506381Y-84069381D01*
X125411143Y-84021762D01*
X125363524Y-83974143D01*
X125315905Y-83878905D01*
X125315905Y-83593190D01*
X125363524Y-83497952D01*
X125411143Y-83450333D01*
X125506381Y-83402714D01*
X125696858Y-83402714D01*
X125792096Y-83450333D01*
X126601620Y-83545571D02*
X126744477Y-83593190D01*
X126792096Y-83640810D01*
X126839715Y-83736048D01*
X126839715Y-83878905D01*
X126792096Y-83974143D01*
X126744477Y-84021762D01*
X126649239Y-84069381D01*
X126268286Y-84069381D01*
X126268286Y-83069381D01*
X126601620Y-83069381D01*
X126696858Y-83117000D01*
X126744477Y-83164619D01*
X126792096Y-83259857D01*
X126792096Y-83355095D01*
X126744477Y-83450333D01*
X126696858Y-83497952D01*
X126601620Y-83545571D01*
X126268286Y-83545571D01*
X128649239Y-83593190D02*
X128601620Y-83545571D01*
X128506382Y-83497952D01*
X128411144Y-83497952D01*
X128315906Y-83545571D01*
X128268286Y-83593190D01*
X128220667Y-83688429D01*
X128220667Y-83783667D01*
X128268286Y-83878905D01*
X128315906Y-83926524D01*
X128411144Y-83974143D01*
X128506382Y-83974143D01*
X128601620Y-83926524D01*
X128649239Y-83878905D01*
X128649239Y-83497952D02*
X128649239Y-83878905D01*
X128696858Y-83926524D01*
X128744477Y-83926524D01*
X128839715Y-83878905D01*
X128887334Y-83783667D01*
X128887334Y-83545571D01*
X128792096Y-83402714D01*
X128649239Y-83307476D01*
X128458763Y-83259857D01*
X128268286Y-83307476D01*
X128125429Y-83402714D01*
X128030191Y-83545571D01*
X127982572Y-83736048D01*
X128030191Y-83926524D01*
X128125429Y-84069381D01*
X128268286Y-84164619D01*
X128458763Y-84212238D01*
X128649239Y-84164619D01*
X128792096Y-84069381D01*
X130506382Y-83402714D02*
X130506382Y-84069381D01*
X130268286Y-83021762D02*
X130030191Y-83736048D01*
X130649239Y-83736048D01*
X131030191Y-84069381D02*
X131030191Y-83069381D01*
X131125429Y-83688429D02*
X131411144Y-84069381D01*
X131411144Y-83402714D02*
X131030191Y-83783667D01*
X131839715Y-84069381D02*
X131839715Y-83069381D01*
X131839715Y-83545571D02*
X132411144Y-83545571D01*
X132411144Y-84069381D02*
X132411144Y-83069381D01*
X132792096Y-83402714D02*
X133315906Y-83402714D01*
X132792096Y-84069381D01*
X133315906Y-84069381D01*
X114744476Y-85621762D02*
X114887333Y-85669381D01*
X115125429Y-85669381D01*
X115220667Y-85621762D01*
X115268286Y-85574143D01*
X115315905Y-85478905D01*
X115315905Y-85383667D01*
X115268286Y-85288429D01*
X115220667Y-85240810D01*
X115125429Y-85193190D01*
X114934952Y-85145571D01*
X114839714Y-85097952D01*
X114792095Y-85050333D01*
X114744476Y-84955095D01*
X114744476Y-84859857D01*
X114792095Y-84764619D01*
X114839714Y-84717000D01*
X114934952Y-84669381D01*
X115173048Y-84669381D01*
X115315905Y-84717000D01*
X115601619Y-85002714D02*
X115982571Y-85002714D01*
X115744476Y-84669381D02*
X115744476Y-85526524D01*
X115792095Y-85621762D01*
X115887333Y-85669381D01*
X115982571Y-85669381D01*
X116458762Y-85669381D02*
X116363524Y-85621762D01*
X116315905Y-85574143D01*
X116268286Y-85478905D01*
X116268286Y-85193190D01*
X116315905Y-85097952D01*
X116363524Y-85050333D01*
X116458762Y-85002714D01*
X116601620Y-85002714D01*
X116696858Y-85050333D01*
X116744477Y-85097952D01*
X116792096Y-85193190D01*
X116792096Y-85478905D01*
X116744477Y-85574143D01*
X116696858Y-85621762D01*
X116601620Y-85669381D01*
X116458762Y-85669381D01*
X117220667Y-85002714D02*
X117220667Y-86002714D01*
X117220667Y-85050333D02*
X117315905Y-85002714D01*
X117506382Y-85002714D01*
X117601620Y-85050333D01*
X117649239Y-85097952D01*
X117696858Y-85193190D01*
X117696858Y-85478905D01*
X117649239Y-85574143D01*
X117601620Y-85621762D01*
X117506382Y-85669381D01*
X117315905Y-85669381D01*
X117220667Y-85621762D01*
X118125429Y-85669381D02*
X118125429Y-84669381D01*
X118125429Y-85050333D02*
X118220667Y-85002714D01*
X118411144Y-85002714D01*
X118506382Y-85050333D01*
X118554001Y-85097952D01*
X118601620Y-85193190D01*
X118601620Y-85478905D01*
X118554001Y-85574143D01*
X118506382Y-85621762D01*
X118411144Y-85669381D01*
X118220667Y-85669381D01*
X118125429Y-85621762D01*
X119458763Y-85669381D02*
X119458763Y-85145571D01*
X119411144Y-85050333D01*
X119315906Y-85002714D01*
X119125429Y-85002714D01*
X119030191Y-85050333D01*
X119458763Y-85621762D02*
X119363525Y-85669381D01*
X119125429Y-85669381D01*
X119030191Y-85621762D01*
X118982572Y-85526524D01*
X118982572Y-85431286D01*
X119030191Y-85336048D01*
X119125429Y-85288429D01*
X119363525Y-85288429D01*
X119458763Y-85240810D01*
X119934953Y-85002714D02*
X119934953Y-85669381D01*
X119934953Y-85097952D02*
X119982572Y-85050333D01*
X120077810Y-85002714D01*
X120220668Y-85002714D01*
X120315906Y-85050333D01*
X120363525Y-85145571D01*
X120363525Y-85669381D01*
X121268287Y-85669381D02*
X121268287Y-84669381D01*
X121268287Y-85621762D02*
X121173049Y-85669381D01*
X120982572Y-85669381D01*
X120887334Y-85621762D01*
X120839715Y-85574143D01*
X120792096Y-85478905D01*
X120792096Y-85193190D01*
X120839715Y-85097952D01*
X120887334Y-85050333D01*
X120982572Y-85002714D01*
X121173049Y-85002714D01*
X121268287Y-85050333D01*
X121744477Y-85574143D02*
X121792096Y-85621762D01*
X121744477Y-85669381D01*
X121696858Y-85621762D01*
X121744477Y-85574143D01*
X121744477Y-85669381D01*
X121744477Y-85050333D02*
X121792096Y-85097952D01*
X121744477Y-85145571D01*
X121696858Y-85097952D01*
X121744477Y-85050333D01*
X121744477Y-85145571D01*
X122982572Y-85288429D02*
X123744477Y-85288429D01*
X124649239Y-85002714D02*
X124649239Y-85669381D01*
X124411143Y-84621762D02*
X124173048Y-85336048D01*
X124792096Y-85336048D01*
X125363524Y-84669381D02*
X125458763Y-84669381D01*
X125554001Y-84717000D01*
X125601620Y-84764619D01*
X125649239Y-84859857D01*
X125696858Y-85050333D01*
X125696858Y-85288429D01*
X125649239Y-85478905D01*
X125601620Y-85574143D01*
X125554001Y-85621762D01*
X125458763Y-85669381D01*
X125363524Y-85669381D01*
X125268286Y-85621762D01*
X125220667Y-85574143D01*
X125173048Y-85478905D01*
X125125429Y-85288429D01*
X125125429Y-85050333D01*
X125173048Y-84859857D01*
X125220667Y-84764619D01*
X125268286Y-84717000D01*
X125363524Y-84669381D01*
X126554001Y-85669381D02*
X126554001Y-84669381D01*
X126554001Y-85621762D02*
X126458763Y-85669381D01*
X126268286Y-85669381D01*
X126173048Y-85621762D01*
X126125429Y-85574143D01*
X126077810Y-85478905D01*
X126077810Y-85193190D01*
X126125429Y-85097952D01*
X126173048Y-85050333D01*
X126268286Y-85002714D01*
X126458763Y-85002714D01*
X126554001Y-85050333D01*
X127363525Y-85145571D02*
X127506382Y-85193190D01*
X127554001Y-85240810D01*
X127601620Y-85336048D01*
X127601620Y-85478905D01*
X127554001Y-85574143D01*
X127506382Y-85621762D01*
X127411144Y-85669381D01*
X127030191Y-85669381D01*
X127030191Y-84669381D01*
X127363525Y-84669381D01*
X127458763Y-84717000D01*
X127506382Y-84764619D01*
X127554001Y-84859857D01*
X127554001Y-84955095D01*
X127506382Y-85050333D01*
X127458763Y-85097952D01*
X127363525Y-85145571D01*
X127030191Y-85145571D01*
X129411144Y-85193190D02*
X129363525Y-85145571D01*
X129268287Y-85097952D01*
X129173049Y-85097952D01*
X129077811Y-85145571D01*
X129030191Y-85193190D01*
X128982572Y-85288429D01*
X128982572Y-85383667D01*
X129030191Y-85478905D01*
X129077811Y-85526524D01*
X129173049Y-85574143D01*
X129268287Y-85574143D01*
X129363525Y-85526524D01*
X129411144Y-85478905D01*
X129411144Y-85097952D02*
X129411144Y-85478905D01*
X129458763Y-85526524D01*
X129506382Y-85526524D01*
X129601620Y-85478905D01*
X129649239Y-85383667D01*
X129649239Y-85145571D01*
X129554001Y-85002714D01*
X129411144Y-84907476D01*
X129220668Y-84859857D01*
X129030191Y-84907476D01*
X128887334Y-85002714D01*
X128792096Y-85145571D01*
X128744477Y-85336048D01*
X128792096Y-85526524D01*
X128887334Y-85669381D01*
X129030191Y-85764619D01*
X129220668Y-85812238D01*
X129411144Y-85764619D01*
X129554001Y-85669381D01*
X131363525Y-85669381D02*
X130792096Y-85669381D01*
X131077810Y-85669381D02*
X131077810Y-84669381D01*
X130982572Y-84812238D01*
X130887334Y-84907476D01*
X130792096Y-84955095D01*
X132268287Y-84669381D02*
X131792096Y-84669381D01*
X131744477Y-85145571D01*
X131792096Y-85097952D01*
X131887334Y-85050333D01*
X132125430Y-85050333D01*
X132220668Y-85097952D01*
X132268287Y-85145571D01*
X132315906Y-85240810D01*
X132315906Y-85478905D01*
X132268287Y-85574143D01*
X132220668Y-85621762D01*
X132125430Y-85669381D01*
X131887334Y-85669381D01*
X131792096Y-85621762D01*
X131744477Y-85574143D01*
X132744477Y-85669381D02*
X132744477Y-84669381D01*
X132839715Y-85288429D02*
X133125430Y-85669381D01*
X133125430Y-85002714D02*
X132744477Y-85383667D01*
X133554001Y-85669381D02*
X133554001Y-84669381D01*
X133554001Y-85145571D02*
X134125430Y-85145571D01*
X134125430Y-85669381D02*
X134125430Y-84669381D01*
X134506382Y-85002714D02*
X135030192Y-85002714D01*
X134506382Y-85669381D01*
X135030192Y-85669381D01*
X114792095Y-88345571D02*
X115125429Y-88345571D01*
X115268286Y-88869381D02*
X114792095Y-88869381D01*
X114792095Y-87869381D01*
X115268286Y-87869381D01*
X115601619Y-88202714D02*
X115839714Y-88869381D01*
X116077810Y-88202714D01*
X116887334Y-88869381D02*
X116887334Y-88345571D01*
X116839715Y-88250333D01*
X116744477Y-88202714D01*
X116554000Y-88202714D01*
X116458762Y-88250333D01*
X116887334Y-88821762D02*
X116792096Y-88869381D01*
X116554000Y-88869381D01*
X116458762Y-88821762D01*
X116411143Y-88726524D01*
X116411143Y-88631286D01*
X116458762Y-88536048D01*
X116554000Y-88488429D01*
X116792096Y-88488429D01*
X116887334Y-88440810D01*
X117506381Y-88869381D02*
X117411143Y-88821762D01*
X117363524Y-88726524D01*
X117363524Y-87869381D01*
X118315906Y-88202714D02*
X118315906Y-88869381D01*
X117887334Y-88202714D02*
X117887334Y-88726524D01*
X117934953Y-88821762D01*
X118030191Y-88869381D01*
X118173049Y-88869381D01*
X118268287Y-88821762D01*
X118315906Y-88774143D01*
X119220668Y-88869381D02*
X119220668Y-88345571D01*
X119173049Y-88250333D01*
X119077811Y-88202714D01*
X118887334Y-88202714D01*
X118792096Y-88250333D01*
X119220668Y-88821762D02*
X119125430Y-88869381D01*
X118887334Y-88869381D01*
X118792096Y-88821762D01*
X118744477Y-88726524D01*
X118744477Y-88631286D01*
X118792096Y-88536048D01*
X118887334Y-88488429D01*
X119125430Y-88488429D01*
X119220668Y-88440810D01*
X119554001Y-88202714D02*
X119934953Y-88202714D01*
X119696858Y-87869381D02*
X119696858Y-88726524D01*
X119744477Y-88821762D01*
X119839715Y-88869381D01*
X119934953Y-88869381D01*
X120268287Y-88869381D02*
X120268287Y-88202714D01*
X120268287Y-87869381D02*
X120220668Y-87917000D01*
X120268287Y-87964619D01*
X120315906Y-87917000D01*
X120268287Y-87869381D01*
X120268287Y-87964619D01*
X120887334Y-88869381D02*
X120792096Y-88821762D01*
X120744477Y-88774143D01*
X120696858Y-88678905D01*
X120696858Y-88393190D01*
X120744477Y-88297952D01*
X120792096Y-88250333D01*
X120887334Y-88202714D01*
X121030192Y-88202714D01*
X121125430Y-88250333D01*
X121173049Y-88297952D01*
X121220668Y-88393190D01*
X121220668Y-88678905D01*
X121173049Y-88774143D01*
X121125430Y-88821762D01*
X121030192Y-88869381D01*
X120887334Y-88869381D01*
X121649239Y-88202714D02*
X121649239Y-88869381D01*
X121649239Y-88297952D02*
X121696858Y-88250333D01*
X121792096Y-88202714D01*
X121934954Y-88202714D01*
X122030192Y-88250333D01*
X122077811Y-88345571D01*
X122077811Y-88869381D01*
X123315906Y-88869381D02*
X123315906Y-87869381D01*
X123315906Y-88250333D02*
X123411144Y-88202714D01*
X123601621Y-88202714D01*
X123696859Y-88250333D01*
X123744478Y-88297952D01*
X123792097Y-88393190D01*
X123792097Y-88678905D01*
X123744478Y-88774143D01*
X123696859Y-88821762D01*
X123601621Y-88869381D01*
X123411144Y-88869381D01*
X123315906Y-88821762D01*
X124363525Y-88869381D02*
X124268287Y-88821762D01*
X124220668Y-88774143D01*
X124173049Y-88678905D01*
X124173049Y-88393190D01*
X124220668Y-88297952D01*
X124268287Y-88250333D01*
X124363525Y-88202714D01*
X124506383Y-88202714D01*
X124601621Y-88250333D01*
X124649240Y-88297952D01*
X124696859Y-88393190D01*
X124696859Y-88678905D01*
X124649240Y-88774143D01*
X124601621Y-88821762D01*
X124506383Y-88869381D01*
X124363525Y-88869381D01*
X125554002Y-88869381D02*
X125554002Y-88345571D01*
X125506383Y-88250333D01*
X125411145Y-88202714D01*
X125220668Y-88202714D01*
X125125430Y-88250333D01*
X125554002Y-88821762D02*
X125458764Y-88869381D01*
X125220668Y-88869381D01*
X125125430Y-88821762D01*
X125077811Y-88726524D01*
X125077811Y-88631286D01*
X125125430Y-88536048D01*
X125220668Y-88488429D01*
X125458764Y-88488429D01*
X125554002Y-88440810D01*
X126030192Y-88869381D02*
X126030192Y-88202714D01*
X126030192Y-88393190D02*
X126077811Y-88297952D01*
X126125430Y-88250333D01*
X126220668Y-88202714D01*
X126315907Y-88202714D01*
X127077812Y-88869381D02*
X127077812Y-87869381D01*
X127077812Y-88821762D02*
X126982574Y-88869381D01*
X126792097Y-88869381D01*
X126696859Y-88821762D01*
X126649240Y-88774143D01*
X126601621Y-88678905D01*
X126601621Y-88393190D01*
X126649240Y-88297952D01*
X126696859Y-88250333D01*
X126792097Y-88202714D01*
X126982574Y-88202714D01*
X127077812Y-88250333D01*
X114649238Y-89469381D02*
X114982571Y-90469381D01*
X115315905Y-89469381D01*
X116030191Y-90421762D02*
X115934953Y-90469381D01*
X115744476Y-90469381D01*
X115649238Y-90421762D01*
X115601619Y-90326524D01*
X115601619Y-89945571D01*
X115649238Y-89850333D01*
X115744476Y-89802714D01*
X115934953Y-89802714D01*
X116030191Y-89850333D01*
X116077810Y-89945571D01*
X116077810Y-90040810D01*
X115601619Y-90136048D01*
X116506381Y-90469381D02*
X116506381Y-89802714D01*
X116506381Y-89993190D02*
X116554000Y-89897952D01*
X116601619Y-89850333D01*
X116696857Y-89802714D01*
X116792096Y-89802714D01*
X118411144Y-90469381D02*
X117839715Y-90469381D01*
X118125429Y-90469381D02*
X118125429Y-89469381D01*
X118030191Y-89612238D01*
X117934953Y-89707476D01*
X117839715Y-89755095D01*
X118839715Y-90374143D02*
X118887334Y-90421762D01*
X118839715Y-90469381D01*
X118792096Y-90421762D01*
X118839715Y-90374143D01*
X118839715Y-90469381D01*
X119506381Y-89469381D02*
X119601620Y-89469381D01*
X119696858Y-89517000D01*
X119744477Y-89564619D01*
X119792096Y-89659857D01*
X119839715Y-89850333D01*
X119839715Y-90088429D01*
X119792096Y-90278905D01*
X119744477Y-90374143D01*
X119696858Y-90421762D01*
X119601620Y-90469381D01*
X119506381Y-90469381D01*
X119411143Y-90421762D01*
X119363524Y-90374143D01*
X119315905Y-90278905D01*
X119268286Y-90088429D01*
X119268286Y-89850333D01*
X119315905Y-89659857D01*
X119363524Y-89564619D01*
X119411143Y-89517000D01*
X119506381Y-89469381D01*
D11*
X194183000Y-100838000D02*
X194310000Y-100838000D01*
X200152000Y-100838000D02*
X198628000Y-100838000D01*
X104775000Y-105664000D02*
X104775000Y-104521000D01*
X104775000Y-110109000D02*
X104775000Y-107315000D01*
X110363000Y-110109000D02*
X104775000Y-110109000D01*
X110363000Y-101092000D02*
X110363000Y-110109000D01*
X109220000Y-101092000D02*
X110363000Y-101092000D01*
X104775000Y-101092000D02*
X106807000Y-101092000D01*
X104775000Y-102870000D02*
X104775000Y-101092000D01*
X194183000Y-110109000D02*
X194183000Y-100838000D01*
X200152000Y-110109000D02*
X194183000Y-110109000D01*
X200152000Y-107188000D02*
X200152000Y-110109000D01*
X200152000Y-104648000D02*
X200152000Y-105537000D01*
X200152000Y-100838000D02*
X200152000Y-102997000D01*
X140462000Y-86487000D02*
X140462000Y-85598000D01*
X165100000Y-86487000D02*
X140462000Y-86487000D01*
X165100000Y-79883000D02*
X165100000Y-86487000D01*
X140462000Y-79883000D02*
X165100000Y-79883000D01*
X140462000Y-81661000D02*
X140462000Y-79883000D01*
X140462000Y-82677000D02*
X140462000Y-81661000D01*
D12*
X138335000Y-84752571D02*
X138335000Y-83252571D01*
X138906428Y-83252571D01*
X139049286Y-83324000D01*
X139120714Y-83395429D01*
X139192143Y-83538286D01*
X139192143Y-83752571D01*
X139120714Y-83895429D01*
X139049286Y-83966857D01*
X138906428Y-84038286D01*
X138335000Y-84038286D01*
X139692143Y-83252571D02*
X140049286Y-84752571D01*
X140335000Y-83681143D01*
X140620714Y-84752571D01*
X140977857Y-83252571D01*
X142406429Y-84752571D02*
X141906429Y-84038286D01*
X141549286Y-84752571D02*
X141549286Y-83252571D01*
X142120714Y-83252571D01*
X142263572Y-83324000D01*
X142335000Y-83395429D01*
X142406429Y-83538286D01*
X142406429Y-83752571D01*
X142335000Y-83895429D01*
X142263572Y-83966857D01*
X142120714Y-84038286D01*
X141549286Y-84038286D01*
X194969000Y-100143571D02*
X195254714Y-100143571D01*
X195397572Y-100215000D01*
X195540429Y-100357857D01*
X195611857Y-100643571D01*
X195611857Y-101143571D01*
X195540429Y-101429286D01*
X195397572Y-101572143D01*
X195254714Y-101643571D01*
X194969000Y-101643571D01*
X194826143Y-101572143D01*
X194683286Y-101429286D01*
X194611857Y-101143571D01*
X194611857Y-100643571D01*
X194683286Y-100357857D01*
X194826143Y-100215000D01*
X194969000Y-100143571D01*
X196254715Y-100143571D02*
X196254715Y-101357857D01*
X196326143Y-101500714D01*
X196397572Y-101572143D01*
X196540429Y-101643571D01*
X196826143Y-101643571D01*
X196969001Y-101572143D01*
X197040429Y-101500714D01*
X197111858Y-101357857D01*
X197111858Y-100143571D01*
X197611858Y-100143571D02*
X198469001Y-100143571D01*
X198040430Y-101643571D02*
X198040430Y-100143571D01*
D11*
X199263096Y-105926000D02*
X199167858Y-105878381D01*
X199025001Y-105878381D01*
X198882143Y-105926000D01*
X198786905Y-106021238D01*
X198739286Y-106116476D01*
X198691667Y-106306952D01*
X198691667Y-106449810D01*
X198739286Y-106640286D01*
X198786905Y-106735524D01*
X198882143Y-106830762D01*
X199025001Y-106878381D01*
X199120239Y-106878381D01*
X199263096Y-106830762D01*
X199310715Y-106783143D01*
X199310715Y-106449810D01*
X199120239Y-106449810D01*
X199739286Y-106878381D02*
X199739286Y-105878381D01*
X200310715Y-106878381D01*
X200310715Y-105878381D01*
X200786905Y-106878381D02*
X200786905Y-105878381D01*
X201025000Y-105878381D01*
X201167858Y-105926000D01*
X201263096Y-106021238D01*
X201310715Y-106116476D01*
X201358334Y-106306952D01*
X201358334Y-106449810D01*
X201310715Y-106640286D01*
X201263096Y-106735524D01*
X201167858Y-106830762D01*
X201025000Y-106878381D01*
X200786905Y-106878381D01*
X198834524Y-104338381D02*
X198834524Y-103338381D01*
X198834524Y-103814571D02*
X199405953Y-103814571D01*
X199405953Y-104338381D02*
X199405953Y-103338381D01*
X200072619Y-103338381D02*
X200263096Y-103338381D01*
X200358334Y-103386000D01*
X200453572Y-103481238D01*
X200501191Y-103671714D01*
X200501191Y-104005048D01*
X200453572Y-104195524D01*
X200358334Y-104290762D01*
X200263096Y-104338381D01*
X200072619Y-104338381D01*
X199977381Y-104290762D01*
X199882143Y-104195524D01*
X199834524Y-104005048D01*
X199834524Y-103671714D01*
X199882143Y-103481238D01*
X199977381Y-103386000D01*
X200072619Y-103338381D01*
X200786905Y-103338381D02*
X201358334Y-103338381D01*
X201072619Y-104338381D02*
X201072619Y-103338381D01*
D12*
X107291286Y-101770571D02*
X107291286Y-100270571D01*
X108005572Y-101770571D02*
X108005572Y-100270571D01*
X108862715Y-101770571D01*
X108862715Y-100270571D01*
D11*
X103457524Y-104211381D02*
X103457524Y-103211381D01*
X103457524Y-103687571D02*
X104028953Y-103687571D01*
X104028953Y-104211381D02*
X104028953Y-103211381D01*
X104695619Y-103211381D02*
X104886096Y-103211381D01*
X104981334Y-103259000D01*
X105076572Y-103354238D01*
X105124191Y-103544714D01*
X105124191Y-103878048D01*
X105076572Y-104068524D01*
X104981334Y-104163762D01*
X104886096Y-104211381D01*
X104695619Y-104211381D01*
X104600381Y-104163762D01*
X104505143Y-104068524D01*
X104457524Y-103878048D01*
X104457524Y-103544714D01*
X104505143Y-103354238D01*
X104600381Y-103259000D01*
X104695619Y-103211381D01*
X105409905Y-103211381D02*
X105981334Y-103211381D01*
X105695619Y-104211381D02*
X105695619Y-103211381D01*
X103886096Y-105926000D02*
X103790858Y-105878381D01*
X103648001Y-105878381D01*
X103505143Y-105926000D01*
X103409905Y-106021238D01*
X103362286Y-106116476D01*
X103314667Y-106306952D01*
X103314667Y-106449810D01*
X103362286Y-106640286D01*
X103409905Y-106735524D01*
X103505143Y-106830762D01*
X103648001Y-106878381D01*
X103743239Y-106878381D01*
X103886096Y-106830762D01*
X103933715Y-106783143D01*
X103933715Y-106449810D01*
X103743239Y-106449810D01*
X104362286Y-106878381D02*
X104362286Y-105878381D01*
X104933715Y-106878381D01*
X104933715Y-105878381D01*
X105409905Y-106878381D02*
X105409905Y-105878381D01*
X105648000Y-105878381D01*
X105790858Y-105926000D01*
X105886096Y-106021238D01*
X105933715Y-106116476D01*
X105981334Y-106306952D01*
X105981334Y-106449810D01*
X105933715Y-106640286D01*
X105886096Y-106735524D01*
X105790858Y-106830762D01*
X105648000Y-106878381D01*
X105409905Y-106878381D01*
D12*
X153035143Y-80657000D02*
X152892286Y-80585571D01*
X152678000Y-80585571D01*
X152463715Y-80657000D01*
X152320857Y-80799857D01*
X152249429Y-80942714D01*
X152178000Y-81228429D01*
X152178000Y-81442714D01*
X152249429Y-81728429D01*
X152320857Y-81871286D01*
X152463715Y-82014143D01*
X152678000Y-82085571D01*
X152820857Y-82085571D01*
X153035143Y-82014143D01*
X153106572Y-81942714D01*
X153106572Y-81442714D01*
X152820857Y-81442714D01*
X153749429Y-82085571D02*
X153749429Y-80585571D01*
X154606572Y-82085571D01*
X154606572Y-80585571D01*
X155320858Y-82085571D02*
X155320858Y-80585571D01*
X155678001Y-80585571D01*
X155892286Y-80657000D01*
X156035144Y-80799857D01*
X156106572Y-80942714D01*
X156178001Y-81228429D01*
X156178001Y-81442714D01*
X156106572Y-81728429D01*
X156035144Y-81871286D01*
X155892286Y-82014143D01*
X155678001Y-82085571D01*
X155320858Y-82085571D01*
X157885144Y-81641143D02*
X159028001Y-81641143D01*
X160528001Y-82212571D02*
X159670858Y-82212571D01*
X160099430Y-82212571D02*
X160099430Y-80712571D01*
X159956573Y-80926857D01*
X159813715Y-81069714D01*
X159670858Y-81141143D01*
X161885144Y-80712571D02*
X161170858Y-80712571D01*
X161099429Y-81426857D01*
X161170858Y-81355429D01*
X161313715Y-81284000D01*
X161670858Y-81284000D01*
X161813715Y-81355429D01*
X161885144Y-81426857D01*
X161956572Y-81569714D01*
X161956572Y-81926857D01*
X161885144Y-82069714D01*
X161813715Y-82141143D01*
X161670858Y-82212571D01*
X161313715Y-82212571D01*
X161170858Y-82141143D01*
X161099429Y-82069714D01*
X162385143Y-80712571D02*
X162885143Y-82212571D01*
X163385143Y-80712571D01*
X144423144Y-81641143D02*
X145566001Y-81641143D01*
X144994572Y-82212571D02*
X144994572Y-81069714D01*
X147066001Y-82212571D02*
X146208858Y-82212571D01*
X146637430Y-82212571D02*
X146637430Y-80712571D01*
X146494573Y-80926857D01*
X146351715Y-81069714D01*
X146208858Y-81141143D01*
X148423144Y-80712571D02*
X147708858Y-80712571D01*
X147637429Y-81426857D01*
X147708858Y-81355429D01*
X147851715Y-81284000D01*
X148208858Y-81284000D01*
X148351715Y-81355429D01*
X148423144Y-81426857D01*
X148494572Y-81569714D01*
X148494572Y-81926857D01*
X148423144Y-82069714D01*
X148351715Y-82141143D01*
X148208858Y-82212571D01*
X147851715Y-82212571D01*
X147708858Y-82141143D01*
X147637429Y-82069714D01*
X148923143Y-80712571D02*
X149423143Y-82212571D01*
X149923143Y-80712571D01*
D13*
X123475000Y-100238000D02*
X124175000Y-100238000D01*
X124175000Y-101438000D02*
X123475000Y-101438000D01*
X141701000Y-102454000D02*
X141001000Y-102454000D01*
X141001000Y-101254000D02*
X141701000Y-101254000D01*
X161409000Y-99988000D02*
X160409000Y-99988000D01*
X160409000Y-101688000D02*
X161409000Y-101688000D01*
X181237000Y-102704000D02*
X182237000Y-102704000D01*
X182237000Y-101004000D02*
X181237000Y-101004000D01*
X133525000Y-95228000D02*
X133525000Y-98828000D01*
X136985000Y-98828000D02*
X136985000Y-95228000D01*
X172133000Y-95228000D02*
X172133000Y-98828000D01*
X175593000Y-98828000D02*
X175593000Y-95228000D01*
X123475000Y-106588000D02*
X124175000Y-106588000D01*
X124175000Y-107788000D02*
X123475000Y-107788000D01*
X141701000Y-109058000D02*
X141001000Y-109058000D01*
X141001000Y-107858000D02*
X141701000Y-107858000D01*
X161409000Y-106338000D02*
X160409000Y-106338000D01*
X160409000Y-108038000D02*
X161409000Y-108038000D01*
X181237000Y-109308000D02*
X182237000Y-109308000D01*
X182237000Y-107608000D02*
X181237000Y-107608000D01*
X131651000Y-115084000D02*
X131651000Y-111484000D01*
X128191000Y-111484000D02*
X128191000Y-115084000D01*
X170005000Y-115084000D02*
X170005000Y-111484000D01*
X166545000Y-111484000D02*
X166545000Y-115084000D01*
X152781000Y-85658000D02*
X157921000Y-85658000D01*
X157921000Y-85658000D02*
X157921000Y-82998000D01*
X157921000Y-82998000D02*
X152781000Y-82998000D01*
X152781000Y-82998000D02*
X152781000Y-85658000D01*
X151511000Y-85658000D02*
X150181000Y-85658000D01*
X150181000Y-85658000D02*
X150181000Y-84328000D01*
X106747000Y-105156000D02*
X106747000Y-107756000D01*
X106747000Y-107756000D02*
X109407000Y-107756000D01*
X109407000Y-107756000D02*
X109407000Y-105156000D01*
X109407000Y-105156000D02*
X106747000Y-105156000D01*
X106747000Y-103886000D02*
X106747000Y-102556000D01*
X106747000Y-102556000D02*
X108077000Y-102556000D01*
X195139000Y-105156000D02*
X195139000Y-107756000D01*
X195139000Y-107756000D02*
X197799000Y-107756000D01*
X197799000Y-107756000D02*
X197799000Y-105156000D01*
X197799000Y-105156000D02*
X195139000Y-105156000D01*
X195139000Y-103886000D02*
X195139000Y-102556000D01*
X195139000Y-102556000D02*
X196469000Y-102556000D01*
X126043000Y-104006000D02*
X126043000Y-103766000D01*
X125163000Y-103766000D02*
X125163000Y-104006000D01*
X139759000Y-105276000D02*
X139759000Y-105036000D01*
X138879000Y-105036000D02*
X138879000Y-105276000D01*
X163635000Y-104006000D02*
X163635000Y-103766000D01*
X162755000Y-103766000D02*
X162755000Y-104006000D01*
X179891000Y-105276000D02*
X179891000Y-105036000D01*
X179011000Y-105036000D02*
X179011000Y-105276000D01*
X119373000Y-103446000D02*
X119133000Y-103446000D01*
X119133000Y-104326000D02*
X119373000Y-104326000D01*
X142807000Y-98418000D02*
X142807000Y-98178000D01*
X141927000Y-98178000D02*
X141927000Y-98418000D01*
X156203000Y-103446000D02*
X155963000Y-103446000D01*
X155963000Y-104326000D02*
X156203000Y-104326000D01*
X183447000Y-98545000D02*
X183447000Y-98305000D01*
X182567000Y-98305000D02*
X182567000Y-98545000D01*
X121927000Y-104326000D02*
X122167000Y-104326000D01*
X122167000Y-103446000D02*
X121927000Y-103446000D01*
X143249000Y-104716000D02*
X143009000Y-104716000D01*
X143009000Y-105596000D02*
X143249000Y-105596000D01*
X158503000Y-104326000D02*
X158743000Y-104326000D01*
X158743000Y-103446000D02*
X158503000Y-103446000D01*
X184143000Y-104716000D02*
X183903000Y-104716000D01*
X183903000Y-105596000D02*
X184143000Y-105596000D01*
X165601000Y-100398000D02*
X165361000Y-100398000D01*
X165361000Y-101278000D02*
X165601000Y-101278000D01*
X176537000Y-109660000D02*
X176777000Y-109660000D01*
X176777000Y-108780000D02*
X176537000Y-108780000D01*
X167887000Y-100398000D02*
X167647000Y-100398000D01*
X167647000Y-101278000D02*
X167887000Y-101278000D01*
X173997000Y-109660000D02*
X174237000Y-109660000D01*
X174237000Y-108780000D02*
X173997000Y-108780000D01*
D14*
X130386000Y-102581000D02*
X130386000Y-102631000D01*
X134536000Y-102581000D02*
X134536000Y-102726000D01*
X134536000Y-107731000D02*
X134536000Y-107586000D01*
X130386000Y-107731000D02*
X130386000Y-107586000D01*
X130386000Y-102581000D02*
X134536000Y-102581000D01*
X130386000Y-107731000D02*
X134536000Y-107731000D01*
X130386000Y-102631000D02*
X128986000Y-102631000D01*
X168994000Y-102581000D02*
X168994000Y-102631000D01*
X173144000Y-102581000D02*
X173144000Y-102726000D01*
X173144000Y-107731000D02*
X173144000Y-107586000D01*
X168994000Y-107731000D02*
X168994000Y-107586000D01*
X168994000Y-102581000D02*
X173144000Y-102581000D01*
X168994000Y-107731000D02*
X173144000Y-107731000D01*
X168994000Y-102631000D02*
X167594000Y-102631000D01*
D13*
X144655000Y-93218000D02*
X144655000Y-91798000D01*
X151255000Y-93978000D02*
X151255000Y-91798000D01*
X151255000Y-87378000D02*
X151255000Y-89558000D01*
X144655000Y-88138000D02*
X144655000Y-89558000D01*
X151255000Y-93978000D02*
X145415000Y-93978000D01*
X145415000Y-93978000D02*
X144655000Y-93218000D01*
X144655000Y-88138000D02*
X145415000Y-87378000D01*
X145415000Y-87378000D02*
X151255000Y-87378000D01*
X156847000Y-93218000D02*
X156847000Y-91798000D01*
X163447000Y-93978000D02*
X163447000Y-91798000D01*
X163447000Y-87378000D02*
X163447000Y-89558000D01*
X156847000Y-88138000D02*
X156847000Y-89558000D01*
X163447000Y-93978000D02*
X157607000Y-93978000D01*
X157607000Y-93978000D02*
X156847000Y-93218000D01*
X156847000Y-88138000D02*
X157607000Y-87378000D01*
X157607000Y-87378000D02*
X163447000Y-87378000D01*
X115427000Y-102866000D02*
X113427000Y-102866000D01*
X113427000Y-104906000D02*
X115427000Y-104906000D01*
X190865000Y-102866000D02*
X188865000Y-102866000D01*
X188865000Y-104906000D02*
X190865000Y-104906000D01*
D14*
X122705953Y-99671143D02*
X122658334Y-99718762D01*
X122515477Y-99766381D01*
X122420239Y-99766381D01*
X122277381Y-99718762D01*
X122182143Y-99623524D01*
X122134524Y-99528286D01*
X122086905Y-99337810D01*
X122086905Y-99194952D01*
X122134524Y-99004476D01*
X122182143Y-98909238D01*
X122277381Y-98814000D01*
X122420239Y-98766381D01*
X122515477Y-98766381D01*
X122658334Y-98814000D01*
X122705953Y-98861619D01*
X123658334Y-99766381D02*
X123086905Y-99766381D01*
X123372619Y-99766381D02*
X123372619Y-98766381D01*
X123277381Y-98909238D01*
X123182143Y-99004476D01*
X123086905Y-99052095D01*
X124277381Y-98766381D02*
X124372620Y-98766381D01*
X124467858Y-98814000D01*
X124515477Y-98861619D01*
X124563096Y-98956857D01*
X124610715Y-99147333D01*
X124610715Y-99385429D01*
X124563096Y-99575905D01*
X124515477Y-99671143D01*
X124467858Y-99718762D01*
X124372620Y-99766381D01*
X124277381Y-99766381D01*
X124182143Y-99718762D01*
X124134524Y-99671143D01*
X124086905Y-99575905D01*
X124039286Y-99385429D01*
X124039286Y-99147333D01*
X124086905Y-98956857D01*
X124134524Y-98861619D01*
X124182143Y-98814000D01*
X124277381Y-98766381D01*
X124944048Y-98766381D02*
X125563096Y-98766381D01*
X125229762Y-99147333D01*
X125372620Y-99147333D01*
X125467858Y-99194952D01*
X125515477Y-99242571D01*
X125563096Y-99337810D01*
X125563096Y-99575905D01*
X125515477Y-99671143D01*
X125467858Y-99718762D01*
X125372620Y-99766381D01*
X125086905Y-99766381D01*
X124991667Y-99718762D01*
X124944048Y-99671143D01*
X140231953Y-100687143D02*
X140184334Y-100734762D01*
X140041477Y-100782381D01*
X139946239Y-100782381D01*
X139803381Y-100734762D01*
X139708143Y-100639524D01*
X139660524Y-100544286D01*
X139612905Y-100353810D01*
X139612905Y-100210952D01*
X139660524Y-100020476D01*
X139708143Y-99925238D01*
X139803381Y-99830000D01*
X139946239Y-99782381D01*
X140041477Y-99782381D01*
X140184334Y-99830000D01*
X140231953Y-99877619D01*
X141184334Y-100782381D02*
X140612905Y-100782381D01*
X140898619Y-100782381D02*
X140898619Y-99782381D01*
X140803381Y-99925238D01*
X140708143Y-100020476D01*
X140612905Y-100068095D01*
X141803381Y-99782381D02*
X141898620Y-99782381D01*
X141993858Y-99830000D01*
X142041477Y-99877619D01*
X142089096Y-99972857D01*
X142136715Y-100163333D01*
X142136715Y-100401429D01*
X142089096Y-100591905D01*
X142041477Y-100687143D01*
X141993858Y-100734762D01*
X141898620Y-100782381D01*
X141803381Y-100782381D01*
X141708143Y-100734762D01*
X141660524Y-100687143D01*
X141612905Y-100591905D01*
X141565286Y-100401429D01*
X141565286Y-100163333D01*
X141612905Y-99972857D01*
X141660524Y-99877619D01*
X141708143Y-99830000D01*
X141803381Y-99782381D01*
X142993858Y-100115714D02*
X142993858Y-100782381D01*
X142755762Y-99734762D02*
X142517667Y-100449048D01*
X143136715Y-100449048D01*
X159789953Y-99445143D02*
X159742334Y-99492762D01*
X159599477Y-99540381D01*
X159504239Y-99540381D01*
X159361381Y-99492762D01*
X159266143Y-99397524D01*
X159218524Y-99302286D01*
X159170905Y-99111810D01*
X159170905Y-98968952D01*
X159218524Y-98778476D01*
X159266143Y-98683238D01*
X159361381Y-98588000D01*
X159504239Y-98540381D01*
X159599477Y-98540381D01*
X159742334Y-98588000D01*
X159789953Y-98635619D01*
X160742334Y-99540381D02*
X160170905Y-99540381D01*
X160456619Y-99540381D02*
X160456619Y-98540381D01*
X160361381Y-98683238D01*
X160266143Y-98778476D01*
X160170905Y-98826095D01*
X161361381Y-98540381D02*
X161456620Y-98540381D01*
X161551858Y-98588000D01*
X161599477Y-98635619D01*
X161647096Y-98730857D01*
X161694715Y-98921333D01*
X161694715Y-99159429D01*
X161647096Y-99349905D01*
X161599477Y-99445143D01*
X161551858Y-99492762D01*
X161456620Y-99540381D01*
X161361381Y-99540381D01*
X161266143Y-99492762D01*
X161218524Y-99445143D01*
X161170905Y-99349905D01*
X161123286Y-99159429D01*
X161123286Y-98921333D01*
X161170905Y-98730857D01*
X161218524Y-98635619D01*
X161266143Y-98588000D01*
X161361381Y-98540381D01*
X162599477Y-98540381D02*
X162123286Y-98540381D01*
X162075667Y-99016571D01*
X162123286Y-98968952D01*
X162218524Y-98921333D01*
X162456620Y-98921333D01*
X162551858Y-98968952D01*
X162599477Y-99016571D01*
X162647096Y-99111810D01*
X162647096Y-99349905D01*
X162599477Y-99445143D01*
X162551858Y-99492762D01*
X162456620Y-99540381D01*
X162218524Y-99540381D01*
X162123286Y-99492762D01*
X162075667Y-99445143D01*
X180617953Y-100433143D02*
X180570334Y-100480762D01*
X180427477Y-100528381D01*
X180332239Y-100528381D01*
X180189381Y-100480762D01*
X180094143Y-100385524D01*
X180046524Y-100290286D01*
X179998905Y-100099810D01*
X179998905Y-99956952D01*
X180046524Y-99766476D01*
X180094143Y-99671238D01*
X180189381Y-99576000D01*
X180332239Y-99528381D01*
X180427477Y-99528381D01*
X180570334Y-99576000D01*
X180617953Y-99623619D01*
X181570334Y-100528381D02*
X180998905Y-100528381D01*
X181284619Y-100528381D02*
X181284619Y-99528381D01*
X181189381Y-99671238D01*
X181094143Y-99766476D01*
X180998905Y-99814095D01*
X182189381Y-99528381D02*
X182284620Y-99528381D01*
X182379858Y-99576000D01*
X182427477Y-99623619D01*
X182475096Y-99718857D01*
X182522715Y-99909333D01*
X182522715Y-100147429D01*
X182475096Y-100337905D01*
X182427477Y-100433143D01*
X182379858Y-100480762D01*
X182284620Y-100528381D01*
X182189381Y-100528381D01*
X182094143Y-100480762D01*
X182046524Y-100433143D01*
X181998905Y-100337905D01*
X181951286Y-100147429D01*
X181951286Y-99909333D01*
X181998905Y-99718857D01*
X182046524Y-99623619D01*
X182094143Y-99576000D01*
X182189381Y-99528381D01*
X183379858Y-99528381D02*
X183189381Y-99528381D01*
X183094143Y-99576000D01*
X183046524Y-99623619D01*
X182951286Y-99766476D01*
X182903667Y-99956952D01*
X182903667Y-100337905D01*
X182951286Y-100433143D01*
X182998905Y-100480762D01*
X183094143Y-100528381D01*
X183284620Y-100528381D01*
X183379858Y-100480762D01*
X183427477Y-100433143D01*
X183475096Y-100337905D01*
X183475096Y-100099810D01*
X183427477Y-100004571D01*
X183379858Y-99956952D01*
X183284620Y-99909333D01*
X183094143Y-99909333D01*
X182998905Y-99956952D01*
X182951286Y-100004571D01*
X182903667Y-100099810D01*
X138406143Y-98147047D02*
X138453762Y-98194666D01*
X138501381Y-98337523D01*
X138501381Y-98432761D01*
X138453762Y-98575619D01*
X138358524Y-98670857D01*
X138263286Y-98718476D01*
X138072810Y-98766095D01*
X137929952Y-98766095D01*
X137739476Y-98718476D01*
X137644238Y-98670857D01*
X137549000Y-98575619D01*
X137501381Y-98432761D01*
X137501381Y-98337523D01*
X137549000Y-98194666D01*
X137596619Y-98147047D01*
X138501381Y-97194666D02*
X138501381Y-97766095D01*
X138501381Y-97480381D02*
X137501381Y-97480381D01*
X137644238Y-97575619D01*
X137739476Y-97670857D01*
X137787095Y-97766095D01*
X137501381Y-96575619D02*
X137501381Y-96480380D01*
X137549000Y-96385142D01*
X137596619Y-96337523D01*
X137691857Y-96289904D01*
X137882333Y-96242285D01*
X138120429Y-96242285D01*
X138310905Y-96289904D01*
X138406143Y-96337523D01*
X138453762Y-96385142D01*
X138501381Y-96480380D01*
X138501381Y-96575619D01*
X138453762Y-96670857D01*
X138406143Y-96718476D01*
X138310905Y-96766095D01*
X138120429Y-96813714D01*
X137882333Y-96813714D01*
X137691857Y-96766095D01*
X137596619Y-96718476D01*
X137549000Y-96670857D01*
X137501381Y-96575619D01*
X137501381Y-95908952D02*
X137501381Y-95242285D01*
X138501381Y-95670857D01*
X171470143Y-98147047D02*
X171517762Y-98194666D01*
X171565381Y-98337523D01*
X171565381Y-98432761D01*
X171517762Y-98575619D01*
X171422524Y-98670857D01*
X171327286Y-98718476D01*
X171136810Y-98766095D01*
X170993952Y-98766095D01*
X170803476Y-98718476D01*
X170708238Y-98670857D01*
X170613000Y-98575619D01*
X170565381Y-98432761D01*
X170565381Y-98337523D01*
X170613000Y-98194666D01*
X170660619Y-98147047D01*
X171565381Y-97194666D02*
X171565381Y-97766095D01*
X171565381Y-97480381D02*
X170565381Y-97480381D01*
X170708238Y-97575619D01*
X170803476Y-97670857D01*
X170851095Y-97766095D01*
X170565381Y-96575619D02*
X170565381Y-96480380D01*
X170613000Y-96385142D01*
X170660619Y-96337523D01*
X170755857Y-96289904D01*
X170946333Y-96242285D01*
X171184429Y-96242285D01*
X171374905Y-96289904D01*
X171470143Y-96337523D01*
X171517762Y-96385142D01*
X171565381Y-96480380D01*
X171565381Y-96575619D01*
X171517762Y-96670857D01*
X171470143Y-96718476D01*
X171374905Y-96766095D01*
X171184429Y-96813714D01*
X170946333Y-96813714D01*
X170755857Y-96766095D01*
X170660619Y-96718476D01*
X170613000Y-96670857D01*
X170565381Y-96575619D01*
X170993952Y-95670857D02*
X170946333Y-95766095D01*
X170898714Y-95813714D01*
X170803476Y-95861333D01*
X170755857Y-95861333D01*
X170660619Y-95813714D01*
X170613000Y-95766095D01*
X170565381Y-95670857D01*
X170565381Y-95480380D01*
X170613000Y-95385142D01*
X170660619Y-95337523D01*
X170755857Y-95289904D01*
X170803476Y-95289904D01*
X170898714Y-95337523D01*
X170946333Y-95385142D01*
X170993952Y-95480380D01*
X170993952Y-95670857D01*
X171041571Y-95766095D01*
X171089190Y-95813714D01*
X171184429Y-95861333D01*
X171374905Y-95861333D01*
X171470143Y-95813714D01*
X171517762Y-95766095D01*
X171565381Y-95670857D01*
X171565381Y-95480380D01*
X171517762Y-95385142D01*
X171470143Y-95337523D01*
X171374905Y-95289904D01*
X171184429Y-95289904D01*
X171089190Y-95337523D01*
X171041571Y-95385142D01*
X170993952Y-95480380D01*
X122705953Y-108815143D02*
X122658334Y-108862762D01*
X122515477Y-108910381D01*
X122420239Y-108910381D01*
X122277381Y-108862762D01*
X122182143Y-108767524D01*
X122134524Y-108672286D01*
X122086905Y-108481810D01*
X122086905Y-108338952D01*
X122134524Y-108148476D01*
X122182143Y-108053238D01*
X122277381Y-107958000D01*
X122420239Y-107910381D01*
X122515477Y-107910381D01*
X122658334Y-107958000D01*
X122705953Y-108005619D01*
X123658334Y-108910381D02*
X123086905Y-108910381D01*
X123372619Y-108910381D02*
X123372619Y-107910381D01*
X123277381Y-108053238D01*
X123182143Y-108148476D01*
X123086905Y-108196095D01*
X124610715Y-108910381D02*
X124039286Y-108910381D01*
X124325000Y-108910381D02*
X124325000Y-107910381D01*
X124229762Y-108053238D01*
X124134524Y-108148476D01*
X124039286Y-108196095D01*
X125229762Y-107910381D02*
X125325001Y-107910381D01*
X125420239Y-107958000D01*
X125467858Y-108005619D01*
X125515477Y-108100857D01*
X125563096Y-108291333D01*
X125563096Y-108529429D01*
X125515477Y-108719905D01*
X125467858Y-108815143D01*
X125420239Y-108862762D01*
X125325001Y-108910381D01*
X125229762Y-108910381D01*
X125134524Y-108862762D01*
X125086905Y-108815143D01*
X125039286Y-108719905D01*
X124991667Y-108529429D01*
X124991667Y-108291333D01*
X125039286Y-108100857D01*
X125086905Y-108005619D01*
X125134524Y-107958000D01*
X125229762Y-107910381D01*
X140231953Y-110339143D02*
X140184334Y-110386762D01*
X140041477Y-110434381D01*
X139946239Y-110434381D01*
X139803381Y-110386762D01*
X139708143Y-110291524D01*
X139660524Y-110196286D01*
X139612905Y-110005810D01*
X139612905Y-109862952D01*
X139660524Y-109672476D01*
X139708143Y-109577238D01*
X139803381Y-109482000D01*
X139946239Y-109434381D01*
X140041477Y-109434381D01*
X140184334Y-109482000D01*
X140231953Y-109529619D01*
X141184334Y-110434381D02*
X140612905Y-110434381D01*
X140898619Y-110434381D02*
X140898619Y-109434381D01*
X140803381Y-109577238D01*
X140708143Y-109672476D01*
X140612905Y-109720095D01*
X142136715Y-110434381D02*
X141565286Y-110434381D01*
X141851000Y-110434381D02*
X141851000Y-109434381D01*
X141755762Y-109577238D01*
X141660524Y-109672476D01*
X141565286Y-109720095D01*
X143089096Y-110434381D02*
X142517667Y-110434381D01*
X142803381Y-110434381D02*
X142803381Y-109434381D01*
X142708143Y-109577238D01*
X142612905Y-109672476D01*
X142517667Y-109720095D01*
X159789953Y-109323143D02*
X159742334Y-109370762D01*
X159599477Y-109418381D01*
X159504239Y-109418381D01*
X159361381Y-109370762D01*
X159266143Y-109275524D01*
X159218524Y-109180286D01*
X159170905Y-108989810D01*
X159170905Y-108846952D01*
X159218524Y-108656476D01*
X159266143Y-108561238D01*
X159361381Y-108466000D01*
X159504239Y-108418381D01*
X159599477Y-108418381D01*
X159742334Y-108466000D01*
X159789953Y-108513619D01*
X160742334Y-109418381D02*
X160170905Y-109418381D01*
X160456619Y-109418381D02*
X160456619Y-108418381D01*
X160361381Y-108561238D01*
X160266143Y-108656476D01*
X160170905Y-108704095D01*
X161694715Y-109418381D02*
X161123286Y-109418381D01*
X161409000Y-109418381D02*
X161409000Y-108418381D01*
X161313762Y-108561238D01*
X161218524Y-108656476D01*
X161123286Y-108704095D01*
X162075667Y-108513619D02*
X162123286Y-108466000D01*
X162218524Y-108418381D01*
X162456620Y-108418381D01*
X162551858Y-108466000D01*
X162599477Y-108513619D01*
X162647096Y-108608857D01*
X162647096Y-108704095D01*
X162599477Y-108846952D01*
X162028048Y-109418381D01*
X162647096Y-109418381D01*
X180617953Y-110565143D02*
X180570334Y-110612762D01*
X180427477Y-110660381D01*
X180332239Y-110660381D01*
X180189381Y-110612762D01*
X180094143Y-110517524D01*
X180046524Y-110422286D01*
X179998905Y-110231810D01*
X179998905Y-110088952D01*
X180046524Y-109898476D01*
X180094143Y-109803238D01*
X180189381Y-109708000D01*
X180332239Y-109660381D01*
X180427477Y-109660381D01*
X180570334Y-109708000D01*
X180617953Y-109755619D01*
X181570334Y-110660381D02*
X180998905Y-110660381D01*
X181284619Y-110660381D02*
X181284619Y-109660381D01*
X181189381Y-109803238D01*
X181094143Y-109898476D01*
X180998905Y-109946095D01*
X182522715Y-110660381D02*
X181951286Y-110660381D01*
X182237000Y-110660381D02*
X182237000Y-109660381D01*
X182141762Y-109803238D01*
X182046524Y-109898476D01*
X181951286Y-109946095D01*
X182856048Y-109660381D02*
X183475096Y-109660381D01*
X183141762Y-110041333D01*
X183284620Y-110041333D01*
X183379858Y-110088952D01*
X183427477Y-110136571D01*
X183475096Y-110231810D01*
X183475096Y-110469905D01*
X183427477Y-110565143D01*
X183379858Y-110612762D01*
X183284620Y-110660381D01*
X182998905Y-110660381D01*
X182903667Y-110612762D01*
X182856048Y-110565143D01*
X133028143Y-114403047D02*
X133075762Y-114450666D01*
X133123381Y-114593523D01*
X133123381Y-114688761D01*
X133075762Y-114831619D01*
X132980524Y-114926857D01*
X132885286Y-114974476D01*
X132694810Y-115022095D01*
X132551952Y-115022095D01*
X132361476Y-114974476D01*
X132266238Y-114926857D01*
X132171000Y-114831619D01*
X132123381Y-114688761D01*
X132123381Y-114593523D01*
X132171000Y-114450666D01*
X132218619Y-114403047D01*
X133123381Y-113450666D02*
X133123381Y-114022095D01*
X133123381Y-113736381D02*
X132123381Y-113736381D01*
X132266238Y-113831619D01*
X132361476Y-113926857D01*
X132409095Y-114022095D01*
X133123381Y-112498285D02*
X133123381Y-113069714D01*
X133123381Y-112784000D02*
X132123381Y-112784000D01*
X132266238Y-112879238D01*
X132361476Y-112974476D01*
X132409095Y-113069714D01*
X132123381Y-111593523D02*
X132123381Y-112069714D01*
X132599571Y-112117333D01*
X132551952Y-112069714D01*
X132504333Y-111974476D01*
X132504333Y-111736380D01*
X132551952Y-111641142D01*
X132599571Y-111593523D01*
X132694810Y-111545904D01*
X132932905Y-111545904D01*
X133028143Y-111593523D01*
X133075762Y-111641142D01*
X133123381Y-111736380D01*
X133123381Y-111974476D01*
X133075762Y-112069714D01*
X133028143Y-112117333D01*
X171382143Y-114403047D02*
X171429762Y-114450666D01*
X171477381Y-114593523D01*
X171477381Y-114688761D01*
X171429762Y-114831619D01*
X171334524Y-114926857D01*
X171239286Y-114974476D01*
X171048810Y-115022095D01*
X170905952Y-115022095D01*
X170715476Y-114974476D01*
X170620238Y-114926857D01*
X170525000Y-114831619D01*
X170477381Y-114688761D01*
X170477381Y-114593523D01*
X170525000Y-114450666D01*
X170572619Y-114403047D01*
X171477381Y-113450666D02*
X171477381Y-114022095D01*
X171477381Y-113736381D02*
X170477381Y-113736381D01*
X170620238Y-113831619D01*
X170715476Y-113926857D01*
X170763095Y-114022095D01*
X171477381Y-112498285D02*
X171477381Y-113069714D01*
X171477381Y-112784000D02*
X170477381Y-112784000D01*
X170620238Y-112879238D01*
X170715476Y-112974476D01*
X170763095Y-113069714D01*
X170477381Y-111641142D02*
X170477381Y-111831619D01*
X170525000Y-111926857D01*
X170572619Y-111974476D01*
X170715476Y-112069714D01*
X170905952Y-112117333D01*
X171286905Y-112117333D01*
X171382143Y-112069714D01*
X171429762Y-112022095D01*
X171477381Y-111926857D01*
X171477381Y-111736380D01*
X171429762Y-111641142D01*
X171382143Y-111593523D01*
X171286905Y-111545904D01*
X171048810Y-111545904D01*
X170953571Y-111593523D01*
X170905952Y-111641142D01*
X170858333Y-111736380D01*
X170858333Y-111926857D01*
X170905952Y-112022095D01*
X170953571Y-112069714D01*
X171048810Y-112117333D01*
X148633381Y-85613714D02*
X149347667Y-85613714D01*
X149490524Y-85661334D01*
X149585762Y-85756572D01*
X149633381Y-85899429D01*
X149633381Y-85994667D01*
X149633381Y-84613714D02*
X149633381Y-85185143D01*
X149633381Y-84899429D02*
X148633381Y-84899429D01*
X148776238Y-84994667D01*
X148871476Y-85089905D01*
X148919095Y-85185143D01*
X148633381Y-83994667D02*
X148633381Y-83899428D01*
X148681000Y-83804190D01*
X148728619Y-83756571D01*
X148823857Y-83708952D01*
X149014333Y-83661333D01*
X149252429Y-83661333D01*
X149442905Y-83708952D01*
X149538143Y-83756571D01*
X149585762Y-83804190D01*
X149633381Y-83899428D01*
X149633381Y-83994667D01*
X149585762Y-84089905D01*
X149538143Y-84137524D01*
X149442905Y-84185143D01*
X149252429Y-84232762D01*
X149014333Y-84232762D01*
X148823857Y-84185143D01*
X148728619Y-84137524D01*
X148681000Y-84089905D01*
X148633381Y-83994667D01*
X149633381Y-82708952D02*
X149633381Y-83280381D01*
X149633381Y-82994667D02*
X148633381Y-82994667D01*
X148776238Y-83089905D01*
X148871476Y-83185143D01*
X148919095Y-83280381D01*
X106791286Y-108672381D02*
X106791286Y-109386667D01*
X106743666Y-109529524D01*
X106648428Y-109624762D01*
X106505571Y-109672381D01*
X106410333Y-109672381D01*
X107791286Y-109672381D02*
X107219857Y-109672381D01*
X107505571Y-109672381D02*
X107505571Y-108672381D01*
X107410333Y-108815238D01*
X107315095Y-108910476D01*
X107219857Y-108958095D01*
X108410333Y-108672381D02*
X108505572Y-108672381D01*
X108600810Y-108720000D01*
X108648429Y-108767619D01*
X108696048Y-108862857D01*
X108743667Y-109053333D01*
X108743667Y-109291429D01*
X108696048Y-109481905D01*
X108648429Y-109577143D01*
X108600810Y-109624762D01*
X108505572Y-109672381D01*
X108410333Y-109672381D01*
X108315095Y-109624762D01*
X108267476Y-109577143D01*
X108219857Y-109481905D01*
X108172238Y-109291429D01*
X108172238Y-109053333D01*
X108219857Y-108862857D01*
X108267476Y-108767619D01*
X108315095Y-108720000D01*
X108410333Y-108672381D01*
X109124619Y-108767619D02*
X109172238Y-108720000D01*
X109267476Y-108672381D01*
X109505572Y-108672381D01*
X109600810Y-108720000D01*
X109648429Y-108767619D01*
X109696048Y-108862857D01*
X109696048Y-108958095D01*
X109648429Y-109100952D01*
X109077000Y-109672381D01*
X109696048Y-109672381D01*
X195183286Y-108672381D02*
X195183286Y-109386667D01*
X195135666Y-109529524D01*
X195040428Y-109624762D01*
X194897571Y-109672381D01*
X194802333Y-109672381D01*
X196183286Y-109672381D02*
X195611857Y-109672381D01*
X195897571Y-109672381D02*
X195897571Y-108672381D01*
X195802333Y-108815238D01*
X195707095Y-108910476D01*
X195611857Y-108958095D01*
X196802333Y-108672381D02*
X196897572Y-108672381D01*
X196992810Y-108720000D01*
X197040429Y-108767619D01*
X197088048Y-108862857D01*
X197135667Y-109053333D01*
X197135667Y-109291429D01*
X197088048Y-109481905D01*
X197040429Y-109577143D01*
X196992810Y-109624762D01*
X196897572Y-109672381D01*
X196802333Y-109672381D01*
X196707095Y-109624762D01*
X196659476Y-109577143D01*
X196611857Y-109481905D01*
X196564238Y-109291429D01*
X196564238Y-109053333D01*
X196611857Y-108862857D01*
X196659476Y-108767619D01*
X196707095Y-108720000D01*
X196802333Y-108672381D01*
X197469000Y-108672381D02*
X198088048Y-108672381D01*
X197754714Y-109053333D01*
X197897572Y-109053333D01*
X197992810Y-109100952D01*
X198040429Y-109148571D01*
X198088048Y-109243810D01*
X198088048Y-109481905D01*
X198040429Y-109577143D01*
X197992810Y-109624762D01*
X197897572Y-109672381D01*
X197611857Y-109672381D01*
X197516619Y-109624762D01*
X197469000Y-109577143D01*
X124785381Y-105005047D02*
X124309190Y-105338381D01*
X124785381Y-105576476D02*
X123785381Y-105576476D01*
X123785381Y-105195523D01*
X123833000Y-105100285D01*
X123880619Y-105052666D01*
X123975857Y-105005047D01*
X124118714Y-105005047D01*
X124213952Y-105052666D01*
X124261571Y-105100285D01*
X124309190Y-105195523D01*
X124309190Y-105576476D01*
X124785381Y-104052666D02*
X124785381Y-104624095D01*
X124785381Y-104338381D02*
X123785381Y-104338381D01*
X123928238Y-104433619D01*
X124023476Y-104528857D01*
X124071095Y-104624095D01*
X123785381Y-103433619D02*
X123785381Y-103338380D01*
X123833000Y-103243142D01*
X123880619Y-103195523D01*
X123975857Y-103147904D01*
X124166333Y-103100285D01*
X124404429Y-103100285D01*
X124594905Y-103147904D01*
X124690143Y-103195523D01*
X124737762Y-103243142D01*
X124785381Y-103338380D01*
X124785381Y-103433619D01*
X124737762Y-103528857D01*
X124690143Y-103576476D01*
X124594905Y-103624095D01*
X124404429Y-103671714D01*
X124166333Y-103671714D01*
X123975857Y-103624095D01*
X123880619Y-103576476D01*
X123833000Y-103528857D01*
X123785381Y-103433619D01*
X124785381Y-102147904D02*
X124785381Y-102719333D01*
X124785381Y-102433619D02*
X123785381Y-102433619D01*
X123928238Y-102528857D01*
X124023476Y-102624095D01*
X124071095Y-102719333D01*
X141021381Y-106275047D02*
X140545190Y-106608381D01*
X141021381Y-106846476D02*
X140021381Y-106846476D01*
X140021381Y-106465523D01*
X140069000Y-106370285D01*
X140116619Y-106322666D01*
X140211857Y-106275047D01*
X140354714Y-106275047D01*
X140449952Y-106322666D01*
X140497571Y-106370285D01*
X140545190Y-106465523D01*
X140545190Y-106846476D01*
X141021381Y-105322666D02*
X141021381Y-105894095D01*
X141021381Y-105608381D02*
X140021381Y-105608381D01*
X140164238Y-105703619D01*
X140259476Y-105798857D01*
X140307095Y-105894095D01*
X140021381Y-104703619D02*
X140021381Y-104608380D01*
X140069000Y-104513142D01*
X140116619Y-104465523D01*
X140211857Y-104417904D01*
X140402333Y-104370285D01*
X140640429Y-104370285D01*
X140830905Y-104417904D01*
X140926143Y-104465523D01*
X140973762Y-104513142D01*
X141021381Y-104608380D01*
X141021381Y-104703619D01*
X140973762Y-104798857D01*
X140926143Y-104846476D01*
X140830905Y-104894095D01*
X140640429Y-104941714D01*
X140402333Y-104941714D01*
X140211857Y-104894095D01*
X140116619Y-104846476D01*
X140069000Y-104798857D01*
X140021381Y-104703619D01*
X140116619Y-103989333D02*
X140069000Y-103941714D01*
X140021381Y-103846476D01*
X140021381Y-103608380D01*
X140069000Y-103513142D01*
X140116619Y-103465523D01*
X140211857Y-103417904D01*
X140307095Y-103417904D01*
X140449952Y-103465523D01*
X141021381Y-104036952D01*
X141021381Y-103417904D01*
X164897381Y-105005047D02*
X164421190Y-105338381D01*
X164897381Y-105576476D02*
X163897381Y-105576476D01*
X163897381Y-105195523D01*
X163945000Y-105100285D01*
X163992619Y-105052666D01*
X164087857Y-105005047D01*
X164230714Y-105005047D01*
X164325952Y-105052666D01*
X164373571Y-105100285D01*
X164421190Y-105195523D01*
X164421190Y-105576476D01*
X164897381Y-104052666D02*
X164897381Y-104624095D01*
X164897381Y-104338381D02*
X163897381Y-104338381D01*
X164040238Y-104433619D01*
X164135476Y-104528857D01*
X164183095Y-104624095D01*
X163897381Y-103433619D02*
X163897381Y-103338380D01*
X163945000Y-103243142D01*
X163992619Y-103195523D01*
X164087857Y-103147904D01*
X164278333Y-103100285D01*
X164516429Y-103100285D01*
X164706905Y-103147904D01*
X164802143Y-103195523D01*
X164849762Y-103243142D01*
X164897381Y-103338380D01*
X164897381Y-103433619D01*
X164849762Y-103528857D01*
X164802143Y-103576476D01*
X164706905Y-103624095D01*
X164516429Y-103671714D01*
X164278333Y-103671714D01*
X164087857Y-103624095D01*
X163992619Y-103576476D01*
X163945000Y-103528857D01*
X163897381Y-103433619D01*
X163897381Y-102766952D02*
X163897381Y-102147904D01*
X164278333Y-102481238D01*
X164278333Y-102338380D01*
X164325952Y-102243142D01*
X164373571Y-102195523D01*
X164468810Y-102147904D01*
X164706905Y-102147904D01*
X164802143Y-102195523D01*
X164849762Y-102243142D01*
X164897381Y-102338380D01*
X164897381Y-102624095D01*
X164849762Y-102719333D01*
X164802143Y-102766952D01*
X178633381Y-106275047D02*
X178157190Y-106608381D01*
X178633381Y-106846476D02*
X177633381Y-106846476D01*
X177633381Y-106465523D01*
X177681000Y-106370285D01*
X177728619Y-106322666D01*
X177823857Y-106275047D01*
X177966714Y-106275047D01*
X178061952Y-106322666D01*
X178109571Y-106370285D01*
X178157190Y-106465523D01*
X178157190Y-106846476D01*
X178633381Y-105322666D02*
X178633381Y-105894095D01*
X178633381Y-105608381D02*
X177633381Y-105608381D01*
X177776238Y-105703619D01*
X177871476Y-105798857D01*
X177919095Y-105894095D01*
X177633381Y-104703619D02*
X177633381Y-104608380D01*
X177681000Y-104513142D01*
X177728619Y-104465523D01*
X177823857Y-104417904D01*
X178014333Y-104370285D01*
X178252429Y-104370285D01*
X178442905Y-104417904D01*
X178538143Y-104465523D01*
X178585762Y-104513142D01*
X178633381Y-104608380D01*
X178633381Y-104703619D01*
X178585762Y-104798857D01*
X178538143Y-104846476D01*
X178442905Y-104894095D01*
X178252429Y-104941714D01*
X178014333Y-104941714D01*
X177823857Y-104894095D01*
X177728619Y-104846476D01*
X177681000Y-104798857D01*
X177633381Y-104703619D01*
X177966714Y-103513142D02*
X178633381Y-103513142D01*
X177585762Y-103751238D02*
X178300048Y-103989333D01*
X178300048Y-103370285D01*
X118689381Y-102719047D02*
X118213190Y-103052381D01*
X118689381Y-103290476D02*
X117689381Y-103290476D01*
X117689381Y-102909523D01*
X117737000Y-102814285D01*
X117784619Y-102766666D01*
X117879857Y-102719047D01*
X118022714Y-102719047D01*
X118117952Y-102766666D01*
X118165571Y-102814285D01*
X118213190Y-102909523D01*
X118213190Y-103290476D01*
X118689381Y-101766666D02*
X118689381Y-102338095D01*
X118689381Y-102052381D02*
X117689381Y-102052381D01*
X117832238Y-102147619D01*
X117927476Y-102242857D01*
X117975095Y-102338095D01*
X117689381Y-101147619D02*
X117689381Y-101052380D01*
X117737000Y-100957142D01*
X117784619Y-100909523D01*
X117879857Y-100861904D01*
X118070333Y-100814285D01*
X118308429Y-100814285D01*
X118498905Y-100861904D01*
X118594143Y-100909523D01*
X118641762Y-100957142D01*
X118689381Y-101052380D01*
X118689381Y-101147619D01*
X118641762Y-101242857D01*
X118594143Y-101290476D01*
X118498905Y-101338095D01*
X118308429Y-101385714D01*
X118070333Y-101385714D01*
X117879857Y-101338095D01*
X117784619Y-101290476D01*
X117737000Y-101242857D01*
X117689381Y-101147619D01*
X117689381Y-99909523D02*
X117689381Y-100385714D01*
X118165571Y-100433333D01*
X118117952Y-100385714D01*
X118070333Y-100290476D01*
X118070333Y-100052380D01*
X118117952Y-99957142D01*
X118165571Y-99909523D01*
X118260810Y-99861904D01*
X118498905Y-99861904D01*
X118594143Y-99909523D01*
X118641762Y-99957142D01*
X118689381Y-100052380D01*
X118689381Y-100290476D01*
X118641762Y-100385714D01*
X118594143Y-100433333D01*
X142819381Y-96623047D02*
X142343190Y-96956381D01*
X142819381Y-97194476D02*
X141819381Y-97194476D01*
X141819381Y-96813523D01*
X141867000Y-96718285D01*
X141914619Y-96670666D01*
X142009857Y-96623047D01*
X142152714Y-96623047D01*
X142247952Y-96670666D01*
X142295571Y-96718285D01*
X142343190Y-96813523D01*
X142343190Y-97194476D01*
X142819381Y-95670666D02*
X142819381Y-96242095D01*
X142819381Y-95956381D02*
X141819381Y-95956381D01*
X141962238Y-96051619D01*
X142057476Y-96146857D01*
X142105095Y-96242095D01*
X141819381Y-95051619D02*
X141819381Y-94956380D01*
X141867000Y-94861142D01*
X141914619Y-94813523D01*
X142009857Y-94765904D01*
X142200333Y-94718285D01*
X142438429Y-94718285D01*
X142628905Y-94765904D01*
X142724143Y-94813523D01*
X142771762Y-94861142D01*
X142819381Y-94956380D01*
X142819381Y-95051619D01*
X142771762Y-95146857D01*
X142724143Y-95194476D01*
X142628905Y-95242095D01*
X142438429Y-95289714D01*
X142200333Y-95289714D01*
X142009857Y-95242095D01*
X141914619Y-95194476D01*
X141867000Y-95146857D01*
X141819381Y-95051619D01*
X141819381Y-93861142D02*
X141819381Y-94051619D01*
X141867000Y-94146857D01*
X141914619Y-94194476D01*
X142057476Y-94289714D01*
X142247952Y-94337333D01*
X142628905Y-94337333D01*
X142724143Y-94289714D01*
X142771762Y-94242095D01*
X142819381Y-94146857D01*
X142819381Y-93956380D01*
X142771762Y-93861142D01*
X142724143Y-93813523D01*
X142628905Y-93765904D01*
X142390810Y-93765904D01*
X142295571Y-93813523D01*
X142247952Y-93861142D01*
X142200333Y-93956380D01*
X142200333Y-94146857D01*
X142247952Y-94242095D01*
X142295571Y-94289714D01*
X142390810Y-94337333D01*
X155011381Y-104751047D02*
X154535190Y-105084381D01*
X155011381Y-105322476D02*
X154011381Y-105322476D01*
X154011381Y-104941523D01*
X154059000Y-104846285D01*
X154106619Y-104798666D01*
X154201857Y-104751047D01*
X154344714Y-104751047D01*
X154439952Y-104798666D01*
X154487571Y-104846285D01*
X154535190Y-104941523D01*
X154535190Y-105322476D01*
X155011381Y-103798666D02*
X155011381Y-104370095D01*
X155011381Y-104084381D02*
X154011381Y-104084381D01*
X154154238Y-104179619D01*
X154249476Y-104274857D01*
X154297095Y-104370095D01*
X154011381Y-103179619D02*
X154011381Y-103084380D01*
X154059000Y-102989142D01*
X154106619Y-102941523D01*
X154201857Y-102893904D01*
X154392333Y-102846285D01*
X154630429Y-102846285D01*
X154820905Y-102893904D01*
X154916143Y-102941523D01*
X154963762Y-102989142D01*
X155011381Y-103084380D01*
X155011381Y-103179619D01*
X154963762Y-103274857D01*
X154916143Y-103322476D01*
X154820905Y-103370095D01*
X154630429Y-103417714D01*
X154392333Y-103417714D01*
X154201857Y-103370095D01*
X154106619Y-103322476D01*
X154059000Y-103274857D01*
X154011381Y-103179619D01*
X154011381Y-102512952D02*
X154011381Y-101846285D01*
X155011381Y-102274857D01*
X183459381Y-96750047D02*
X182983190Y-97083381D01*
X183459381Y-97321476D02*
X182459381Y-97321476D01*
X182459381Y-96940523D01*
X182507000Y-96845285D01*
X182554619Y-96797666D01*
X182649857Y-96750047D01*
X182792714Y-96750047D01*
X182887952Y-96797666D01*
X182935571Y-96845285D01*
X182983190Y-96940523D01*
X182983190Y-97321476D01*
X183459381Y-95797666D02*
X183459381Y-96369095D01*
X183459381Y-96083381D02*
X182459381Y-96083381D01*
X182602238Y-96178619D01*
X182697476Y-96273857D01*
X182745095Y-96369095D01*
X182459381Y-95178619D02*
X182459381Y-95083380D01*
X182507000Y-94988142D01*
X182554619Y-94940523D01*
X182649857Y-94892904D01*
X182840333Y-94845285D01*
X183078429Y-94845285D01*
X183268905Y-94892904D01*
X183364143Y-94940523D01*
X183411762Y-94988142D01*
X183459381Y-95083380D01*
X183459381Y-95178619D01*
X183411762Y-95273857D01*
X183364143Y-95321476D01*
X183268905Y-95369095D01*
X183078429Y-95416714D01*
X182840333Y-95416714D01*
X182649857Y-95369095D01*
X182554619Y-95321476D01*
X182507000Y-95273857D01*
X182459381Y-95178619D01*
X182887952Y-94273857D02*
X182840333Y-94369095D01*
X182792714Y-94416714D01*
X182697476Y-94464333D01*
X182649857Y-94464333D01*
X182554619Y-94416714D01*
X182507000Y-94369095D01*
X182459381Y-94273857D01*
X182459381Y-94083380D01*
X182507000Y-93988142D01*
X182554619Y-93940523D01*
X182649857Y-93892904D01*
X182697476Y-93892904D01*
X182792714Y-93940523D01*
X182840333Y-93988142D01*
X182887952Y-94083380D01*
X182887952Y-94273857D01*
X182935571Y-94369095D01*
X182983190Y-94416714D01*
X183078429Y-94464333D01*
X183268905Y-94464333D01*
X183364143Y-94416714D01*
X183411762Y-94369095D01*
X183459381Y-94273857D01*
X183459381Y-94083380D01*
X183411762Y-93988142D01*
X183364143Y-93940523D01*
X183268905Y-93892904D01*
X183078429Y-93892904D01*
X182983190Y-93940523D01*
X182935571Y-93988142D01*
X182887952Y-94083380D01*
X121229381Y-105005047D02*
X120753190Y-105338381D01*
X121229381Y-105576476D02*
X120229381Y-105576476D01*
X120229381Y-105195523D01*
X120277000Y-105100285D01*
X120324619Y-105052666D01*
X120419857Y-105005047D01*
X120562714Y-105005047D01*
X120657952Y-105052666D01*
X120705571Y-105100285D01*
X120753190Y-105195523D01*
X120753190Y-105576476D01*
X121229381Y-104052666D02*
X121229381Y-104624095D01*
X121229381Y-104338381D02*
X120229381Y-104338381D01*
X120372238Y-104433619D01*
X120467476Y-104528857D01*
X120515095Y-104624095D01*
X120229381Y-103433619D02*
X120229381Y-103338380D01*
X120277000Y-103243142D01*
X120324619Y-103195523D01*
X120419857Y-103147904D01*
X120610333Y-103100285D01*
X120848429Y-103100285D01*
X121038905Y-103147904D01*
X121134143Y-103195523D01*
X121181762Y-103243142D01*
X121229381Y-103338380D01*
X121229381Y-103433619D01*
X121181762Y-103528857D01*
X121134143Y-103576476D01*
X121038905Y-103624095D01*
X120848429Y-103671714D01*
X120610333Y-103671714D01*
X120419857Y-103624095D01*
X120324619Y-103576476D01*
X120277000Y-103528857D01*
X120229381Y-103433619D01*
X121229381Y-102624095D02*
X121229381Y-102433619D01*
X121181762Y-102338380D01*
X121134143Y-102290761D01*
X120991286Y-102195523D01*
X120800810Y-102147904D01*
X120419857Y-102147904D01*
X120324619Y-102195523D01*
X120277000Y-102243142D01*
X120229381Y-102338380D01*
X120229381Y-102528857D01*
X120277000Y-102624095D01*
X120324619Y-102671714D01*
X120419857Y-102719333D01*
X120657952Y-102719333D01*
X120753190Y-102671714D01*
X120800810Y-102624095D01*
X120848429Y-102528857D01*
X120848429Y-102338380D01*
X120800810Y-102243142D01*
X120753190Y-102195523D01*
X120657952Y-102147904D01*
X145105381Y-106275047D02*
X144629190Y-106608381D01*
X145105381Y-106846476D02*
X144105381Y-106846476D01*
X144105381Y-106465523D01*
X144153000Y-106370285D01*
X144200619Y-106322666D01*
X144295857Y-106275047D01*
X144438714Y-106275047D01*
X144533952Y-106322666D01*
X144581571Y-106370285D01*
X144629190Y-106465523D01*
X144629190Y-106846476D01*
X145105381Y-105322666D02*
X145105381Y-105894095D01*
X145105381Y-105608381D02*
X144105381Y-105608381D01*
X144248238Y-105703619D01*
X144343476Y-105798857D01*
X144391095Y-105894095D01*
X145105381Y-104370285D02*
X145105381Y-104941714D01*
X145105381Y-104656000D02*
X144105381Y-104656000D01*
X144248238Y-104751238D01*
X144343476Y-104846476D01*
X144391095Y-104941714D01*
X144105381Y-103751238D02*
X144105381Y-103655999D01*
X144153000Y-103560761D01*
X144200619Y-103513142D01*
X144295857Y-103465523D01*
X144486333Y-103417904D01*
X144724429Y-103417904D01*
X144914905Y-103465523D01*
X145010143Y-103513142D01*
X145057762Y-103560761D01*
X145105381Y-103655999D01*
X145105381Y-103751238D01*
X145057762Y-103846476D01*
X145010143Y-103894095D01*
X144914905Y-103941714D01*
X144724429Y-103989333D01*
X144486333Y-103989333D01*
X144295857Y-103941714D01*
X144200619Y-103894095D01*
X144153000Y-103846476D01*
X144105381Y-103751238D01*
X157503953Y-105588381D02*
X157170619Y-105112190D01*
X156932524Y-105588381D02*
X156932524Y-104588381D01*
X157313477Y-104588381D01*
X157408715Y-104636000D01*
X157456334Y-104683619D01*
X157503953Y-104778857D01*
X157503953Y-104921714D01*
X157456334Y-105016952D01*
X157408715Y-105064571D01*
X157313477Y-105112190D01*
X156932524Y-105112190D01*
X158456334Y-105588381D02*
X157884905Y-105588381D01*
X158170619Y-105588381D02*
X158170619Y-104588381D01*
X158075381Y-104731238D01*
X157980143Y-104826476D01*
X157884905Y-104874095D01*
X159408715Y-105588381D02*
X158837286Y-105588381D01*
X159123000Y-105588381D02*
X159123000Y-104588381D01*
X159027762Y-104731238D01*
X158932524Y-104826476D01*
X158837286Y-104874095D01*
X160361096Y-105588381D02*
X159789667Y-105588381D01*
X160075381Y-105588381D02*
X160075381Y-104588381D01*
X159980143Y-104731238D01*
X159884905Y-104826476D01*
X159789667Y-104874095D01*
X182903953Y-104358381D02*
X182570619Y-103882190D01*
X182332524Y-104358381D02*
X182332524Y-103358381D01*
X182713477Y-103358381D01*
X182808715Y-103406000D01*
X182856334Y-103453619D01*
X182903953Y-103548857D01*
X182903953Y-103691714D01*
X182856334Y-103786952D01*
X182808715Y-103834571D01*
X182713477Y-103882190D01*
X182332524Y-103882190D01*
X183856334Y-104358381D02*
X183284905Y-104358381D01*
X183570619Y-104358381D02*
X183570619Y-103358381D01*
X183475381Y-103501238D01*
X183380143Y-103596476D01*
X183284905Y-103644095D01*
X184808715Y-104358381D02*
X184237286Y-104358381D01*
X184523000Y-104358381D02*
X184523000Y-103358381D01*
X184427762Y-103501238D01*
X184332524Y-103596476D01*
X184237286Y-103644095D01*
X185189667Y-103453619D02*
X185237286Y-103406000D01*
X185332524Y-103358381D01*
X185570620Y-103358381D01*
X185665858Y-103406000D01*
X185713477Y-103453619D01*
X185761096Y-103548857D01*
X185761096Y-103644095D01*
X185713477Y-103786952D01*
X185142048Y-104358381D01*
X185761096Y-104358381D01*
X165933381Y-99417047D02*
X165457190Y-99750381D01*
X165933381Y-99988476D02*
X164933381Y-99988476D01*
X164933381Y-99607523D01*
X164981000Y-99512285D01*
X165028619Y-99464666D01*
X165123857Y-99417047D01*
X165266714Y-99417047D01*
X165361952Y-99464666D01*
X165409571Y-99512285D01*
X165457190Y-99607523D01*
X165457190Y-99988476D01*
X165933381Y-98464666D02*
X165933381Y-99036095D01*
X165933381Y-98750381D02*
X164933381Y-98750381D01*
X165076238Y-98845619D01*
X165171476Y-98940857D01*
X165219095Y-99036095D01*
X165933381Y-97512285D02*
X165933381Y-98083714D01*
X165933381Y-97798000D02*
X164933381Y-97798000D01*
X165076238Y-97893238D01*
X165171476Y-97988476D01*
X165219095Y-98083714D01*
X164933381Y-97178952D02*
X164933381Y-96559904D01*
X165314333Y-96893238D01*
X165314333Y-96750380D01*
X165361952Y-96655142D01*
X165409571Y-96607523D01*
X165504810Y-96559904D01*
X165742905Y-96559904D01*
X165838143Y-96607523D01*
X165885762Y-96655142D01*
X165933381Y-96750380D01*
X165933381Y-97036095D01*
X165885762Y-97131333D01*
X165838143Y-97178952D01*
X177109381Y-112879047D02*
X176633190Y-113212381D01*
X177109381Y-113450476D02*
X176109381Y-113450476D01*
X176109381Y-113069523D01*
X176157000Y-112974285D01*
X176204619Y-112926666D01*
X176299857Y-112879047D01*
X176442714Y-112879047D01*
X176537952Y-112926666D01*
X176585571Y-112974285D01*
X176633190Y-113069523D01*
X176633190Y-113450476D01*
X177109381Y-111926666D02*
X177109381Y-112498095D01*
X177109381Y-112212381D02*
X176109381Y-112212381D01*
X176252238Y-112307619D01*
X176347476Y-112402857D01*
X176395095Y-112498095D01*
X177109381Y-110974285D02*
X177109381Y-111545714D01*
X177109381Y-111260000D02*
X176109381Y-111260000D01*
X176252238Y-111355238D01*
X176347476Y-111450476D01*
X176395095Y-111545714D01*
X176442714Y-110117142D02*
X177109381Y-110117142D01*
X176061762Y-110355238D02*
X176776048Y-110593333D01*
X176776048Y-109974285D01*
X168219381Y-99417047D02*
X167743190Y-99750381D01*
X168219381Y-99988476D02*
X167219381Y-99988476D01*
X167219381Y-99607523D01*
X167267000Y-99512285D01*
X167314619Y-99464666D01*
X167409857Y-99417047D01*
X167552714Y-99417047D01*
X167647952Y-99464666D01*
X167695571Y-99512285D01*
X167743190Y-99607523D01*
X167743190Y-99988476D01*
X168219381Y-98464666D02*
X168219381Y-99036095D01*
X168219381Y-98750381D02*
X167219381Y-98750381D01*
X167362238Y-98845619D01*
X167457476Y-98940857D01*
X167505095Y-99036095D01*
X168219381Y-97512285D02*
X168219381Y-98083714D01*
X168219381Y-97798000D02*
X167219381Y-97798000D01*
X167362238Y-97893238D01*
X167457476Y-97988476D01*
X167505095Y-98083714D01*
X167219381Y-96607523D02*
X167219381Y-97083714D01*
X167695571Y-97131333D01*
X167647952Y-97083714D01*
X167600333Y-96988476D01*
X167600333Y-96750380D01*
X167647952Y-96655142D01*
X167695571Y-96607523D01*
X167790810Y-96559904D01*
X168028905Y-96559904D01*
X168124143Y-96607523D01*
X168171762Y-96655142D01*
X168219381Y-96750380D01*
X168219381Y-96988476D01*
X168171762Y-97083714D01*
X168124143Y-97131333D01*
X174569381Y-112879047D02*
X174093190Y-113212381D01*
X174569381Y-113450476D02*
X173569381Y-113450476D01*
X173569381Y-113069523D01*
X173617000Y-112974285D01*
X173664619Y-112926666D01*
X173759857Y-112879047D01*
X173902714Y-112879047D01*
X173997952Y-112926666D01*
X174045571Y-112974285D01*
X174093190Y-113069523D01*
X174093190Y-113450476D01*
X174569381Y-111926666D02*
X174569381Y-112498095D01*
X174569381Y-112212381D02*
X173569381Y-112212381D01*
X173712238Y-112307619D01*
X173807476Y-112402857D01*
X173855095Y-112498095D01*
X174569381Y-110974285D02*
X174569381Y-111545714D01*
X174569381Y-111260000D02*
X173569381Y-111260000D01*
X173712238Y-111355238D01*
X173807476Y-111450476D01*
X173855095Y-111545714D01*
X173569381Y-110117142D02*
X173569381Y-110307619D01*
X173617000Y-110402857D01*
X173664619Y-110450476D01*
X173807476Y-110545714D01*
X173997952Y-110593333D01*
X174378905Y-110593333D01*
X174474143Y-110545714D01*
X174521762Y-110498095D01*
X174569381Y-110402857D01*
X174569381Y-110212380D01*
X174521762Y-110117142D01*
X174474143Y-110069523D01*
X174378905Y-110021904D01*
X174140810Y-110021904D01*
X174045571Y-110069523D01*
X173997952Y-110117142D01*
X173950333Y-110212380D01*
X173950333Y-110402857D01*
X173997952Y-110498095D01*
X174045571Y-110545714D01*
X174140810Y-110593333D01*
X130746714Y-101108381D02*
X130746714Y-101917905D01*
X130794333Y-102013143D01*
X130841952Y-102060762D01*
X130937190Y-102108381D01*
X131127667Y-102108381D01*
X131222905Y-102060762D01*
X131270524Y-102013143D01*
X131318143Y-101917905D01*
X131318143Y-101108381D01*
X132318143Y-102108381D02*
X131746714Y-102108381D01*
X132032428Y-102108381D02*
X132032428Y-101108381D01*
X131937190Y-101251238D01*
X131841952Y-101346476D01*
X131746714Y-101394095D01*
X132937190Y-101108381D02*
X133032429Y-101108381D01*
X133127667Y-101156000D01*
X133175286Y-101203619D01*
X133222905Y-101298857D01*
X133270524Y-101489333D01*
X133270524Y-101727429D01*
X133222905Y-101917905D01*
X133175286Y-102013143D01*
X133127667Y-102060762D01*
X133032429Y-102108381D01*
X132937190Y-102108381D01*
X132841952Y-102060762D01*
X132794333Y-102013143D01*
X132746714Y-101917905D01*
X132699095Y-101727429D01*
X132699095Y-101489333D01*
X132746714Y-101298857D01*
X132794333Y-101203619D01*
X132841952Y-101156000D01*
X132937190Y-101108381D01*
X134222905Y-102108381D02*
X133651476Y-102108381D01*
X133937190Y-102108381D02*
X133937190Y-101108381D01*
X133841952Y-101251238D01*
X133746714Y-101346476D01*
X133651476Y-101394095D01*
X169354714Y-101108381D02*
X169354714Y-101917905D01*
X169402333Y-102013143D01*
X169449952Y-102060762D01*
X169545190Y-102108381D01*
X169735667Y-102108381D01*
X169830905Y-102060762D01*
X169878524Y-102013143D01*
X169926143Y-101917905D01*
X169926143Y-101108381D01*
X170926143Y-102108381D02*
X170354714Y-102108381D01*
X170640428Y-102108381D02*
X170640428Y-101108381D01*
X170545190Y-101251238D01*
X170449952Y-101346476D01*
X170354714Y-101394095D01*
X171545190Y-101108381D02*
X171640429Y-101108381D01*
X171735667Y-101156000D01*
X171783286Y-101203619D01*
X171830905Y-101298857D01*
X171878524Y-101489333D01*
X171878524Y-101727429D01*
X171830905Y-101917905D01*
X171783286Y-102013143D01*
X171735667Y-102060762D01*
X171640429Y-102108381D01*
X171545190Y-102108381D01*
X171449952Y-102060762D01*
X171402333Y-102013143D01*
X171354714Y-101917905D01*
X171307095Y-101727429D01*
X171307095Y-101489333D01*
X171354714Y-101298857D01*
X171402333Y-101203619D01*
X171449952Y-101156000D01*
X171545190Y-101108381D01*
X172259476Y-101203619D02*
X172307095Y-101156000D01*
X172402333Y-101108381D01*
X172640429Y-101108381D01*
X172735667Y-101156000D01*
X172783286Y-101203619D01*
X172830905Y-101298857D01*
X172830905Y-101394095D01*
X172783286Y-101536952D01*
X172211857Y-102108381D01*
X172830905Y-102108381D01*
X146835953Y-95465143D02*
X146788334Y-95512762D01*
X146645477Y-95560381D01*
X146550239Y-95560381D01*
X146407381Y-95512762D01*
X146312143Y-95417524D01*
X146264524Y-95322286D01*
X146216905Y-95131810D01*
X146216905Y-94988952D01*
X146264524Y-94798476D01*
X146312143Y-94703238D01*
X146407381Y-94608000D01*
X146550239Y-94560381D01*
X146645477Y-94560381D01*
X146788334Y-94608000D01*
X146835953Y-94655619D01*
X147788334Y-95560381D02*
X147216905Y-95560381D01*
X147502619Y-95560381D02*
X147502619Y-94560381D01*
X147407381Y-94703238D01*
X147312143Y-94798476D01*
X147216905Y-94846095D01*
X148407381Y-94560381D02*
X148502620Y-94560381D01*
X148597858Y-94608000D01*
X148645477Y-94655619D01*
X148693096Y-94750857D01*
X148740715Y-94941333D01*
X148740715Y-95179429D01*
X148693096Y-95369905D01*
X148645477Y-95465143D01*
X148597858Y-95512762D01*
X148502620Y-95560381D01*
X148407381Y-95560381D01*
X148312143Y-95512762D01*
X148264524Y-95465143D01*
X148216905Y-95369905D01*
X148169286Y-95179429D01*
X148169286Y-94941333D01*
X148216905Y-94750857D01*
X148264524Y-94655619D01*
X148312143Y-94608000D01*
X148407381Y-94560381D01*
X149693096Y-95560381D02*
X149121667Y-95560381D01*
X149407381Y-95560381D02*
X149407381Y-94560381D01*
X149312143Y-94703238D01*
X149216905Y-94798476D01*
X149121667Y-94846095D01*
X143294048Y-93659429D02*
X144055953Y-93659429D01*
X143675001Y-94040381D02*
X143675001Y-93278476D01*
X159027953Y-95465143D02*
X158980334Y-95512762D01*
X158837477Y-95560381D01*
X158742239Y-95560381D01*
X158599381Y-95512762D01*
X158504143Y-95417524D01*
X158456524Y-95322286D01*
X158408905Y-95131810D01*
X158408905Y-94988952D01*
X158456524Y-94798476D01*
X158504143Y-94703238D01*
X158599381Y-94608000D01*
X158742239Y-94560381D01*
X158837477Y-94560381D01*
X158980334Y-94608000D01*
X159027953Y-94655619D01*
X159980334Y-95560381D02*
X159408905Y-95560381D01*
X159694619Y-95560381D02*
X159694619Y-94560381D01*
X159599381Y-94703238D01*
X159504143Y-94798476D01*
X159408905Y-94846095D01*
X160599381Y-94560381D02*
X160694620Y-94560381D01*
X160789858Y-94608000D01*
X160837477Y-94655619D01*
X160885096Y-94750857D01*
X160932715Y-94941333D01*
X160932715Y-95179429D01*
X160885096Y-95369905D01*
X160837477Y-95465143D01*
X160789858Y-95512762D01*
X160694620Y-95560381D01*
X160599381Y-95560381D01*
X160504143Y-95512762D01*
X160456524Y-95465143D01*
X160408905Y-95369905D01*
X160361286Y-95179429D01*
X160361286Y-94941333D01*
X160408905Y-94750857D01*
X160456524Y-94655619D01*
X160504143Y-94608000D01*
X160599381Y-94560381D01*
X161313667Y-94655619D02*
X161361286Y-94608000D01*
X161456524Y-94560381D01*
X161694620Y-94560381D01*
X161789858Y-94608000D01*
X161837477Y-94655619D01*
X161885096Y-94750857D01*
X161885096Y-94846095D01*
X161837477Y-94988952D01*
X161266048Y-95560381D01*
X161885096Y-95560381D01*
X155486048Y-93659429D02*
X156247953Y-93659429D01*
X155867001Y-94040381D02*
X155867001Y-93278476D01*
X113307953Y-102493143D02*
X113260334Y-102540762D01*
X113117477Y-102588381D01*
X113022239Y-102588381D01*
X112879381Y-102540762D01*
X112784143Y-102445524D01*
X112736524Y-102350286D01*
X112688905Y-102159810D01*
X112688905Y-102016952D01*
X112736524Y-101826476D01*
X112784143Y-101731238D01*
X112879381Y-101636000D01*
X113022239Y-101588381D01*
X113117477Y-101588381D01*
X113260334Y-101636000D01*
X113307953Y-101683619D01*
X114260334Y-102588381D02*
X113688905Y-102588381D01*
X113974619Y-102588381D02*
X113974619Y-101588381D01*
X113879381Y-101731238D01*
X113784143Y-101826476D01*
X113688905Y-101874095D01*
X114879381Y-101588381D02*
X114974620Y-101588381D01*
X115069858Y-101636000D01*
X115117477Y-101683619D01*
X115165096Y-101778857D01*
X115212715Y-101969333D01*
X115212715Y-102207429D01*
X115165096Y-102397905D01*
X115117477Y-102493143D01*
X115069858Y-102540762D01*
X114974620Y-102588381D01*
X114879381Y-102588381D01*
X114784143Y-102540762D01*
X114736524Y-102493143D01*
X114688905Y-102397905D01*
X114641286Y-102207429D01*
X114641286Y-101969333D01*
X114688905Y-101778857D01*
X114736524Y-101683619D01*
X114784143Y-101636000D01*
X114879381Y-101588381D01*
X115688905Y-102588381D02*
X115879381Y-102588381D01*
X115974620Y-102540762D01*
X116022239Y-102493143D01*
X116117477Y-102350286D01*
X116165096Y-102159810D01*
X116165096Y-101778857D01*
X116117477Y-101683619D01*
X116069858Y-101636000D01*
X115974620Y-101588381D01*
X115784143Y-101588381D01*
X115688905Y-101636000D01*
X115641286Y-101683619D01*
X115593667Y-101778857D01*
X115593667Y-102016952D01*
X115641286Y-102112190D01*
X115688905Y-102159810D01*
X115784143Y-102207429D01*
X115974620Y-102207429D01*
X116069858Y-102159810D01*
X116117477Y-102112190D01*
X116165096Y-102016952D01*
X188745953Y-102493143D02*
X188698334Y-102540762D01*
X188555477Y-102588381D01*
X188460239Y-102588381D01*
X188317381Y-102540762D01*
X188222143Y-102445524D01*
X188174524Y-102350286D01*
X188126905Y-102159810D01*
X188126905Y-102016952D01*
X188174524Y-101826476D01*
X188222143Y-101731238D01*
X188317381Y-101636000D01*
X188460239Y-101588381D01*
X188555477Y-101588381D01*
X188698334Y-101636000D01*
X188745953Y-101683619D01*
X189698334Y-102588381D02*
X189126905Y-102588381D01*
X189412619Y-102588381D02*
X189412619Y-101588381D01*
X189317381Y-101731238D01*
X189222143Y-101826476D01*
X189126905Y-101874095D01*
X190650715Y-102588381D02*
X190079286Y-102588381D01*
X190365000Y-102588381D02*
X190365000Y-101588381D01*
X190269762Y-101731238D01*
X190174524Y-101826476D01*
X190079286Y-101874095D01*
X191507858Y-101921714D02*
X191507858Y-102588381D01*
X191269762Y-101540762D02*
X191031667Y-102255048D01*
X191650715Y-102255048D01*
M02*
