G04 #@! TF.FileFunction,Copper,L1,Top,Signal*
%FSLAX46Y46*%
G04 Gerber Fmt 4.6, Leading zero omitted, Abs format (unit mm)*
G04 Created by KiCad (PCBNEW 4.0.6-e0-6349~53~ubuntu14.04.1) date Mon Jul  3 07:26:06 2017*
%MOMM*%
%LPD*%
G01*
G04 APERTURE LIST*
%ADD10C,0.100000*%
%ADD11C,7.000000*%
%ADD12R,1.200000X0.750000*%
%ADD13R,1.500000X1.250000*%
%ADD14R,3.000000X2.200000*%
%ADD15R,1.700000X1.700000*%
%ADD16O,1.700000X1.700000*%
%ADD17R,0.430000X0.280000*%
%ADD18R,0.280000X0.430000*%
%ADD19R,1.550000X0.600000*%
%ADD20R,3.500000X1.600000*%
%ADD21R,2.000000X1.600000*%
%ADD22C,0.900000*%
%ADD23C,0.600000*%
%ADD24C,0.600000*%
%ADD25C,0.800000*%
%ADD26C,0.200000*%
%ADD27C,0.250000*%
G04 APERTURE END LIST*
D10*
D11*
X196469000Y-115824000D03*
X196469000Y-84582000D03*
X108077000Y-115824000D03*
X108077000Y-84582000D03*
D12*
X122875000Y-100838000D03*
X124775000Y-100838000D03*
X142301000Y-101854000D03*
X140401000Y-101854000D03*
D13*
X159659000Y-100838000D03*
X162159000Y-100838000D03*
X182987000Y-101854000D03*
X180487000Y-101854000D03*
D14*
X135255000Y-99928000D03*
X135255000Y-94128000D03*
X173863000Y-99928000D03*
X173863000Y-94128000D03*
D12*
X122875000Y-107188000D03*
X124775000Y-107188000D03*
X142301000Y-108458000D03*
X140401000Y-108458000D03*
D13*
X159659000Y-107188000D03*
X162159000Y-107188000D03*
X182987000Y-108458000D03*
X180487000Y-108458000D03*
D14*
X129921000Y-110384000D03*
X129921000Y-116184000D03*
X168275000Y-110384000D03*
X168275000Y-116184000D03*
D15*
X151511000Y-84328000D03*
D16*
X154051000Y-84328000D03*
X156591000Y-84328000D03*
D15*
X108077000Y-103886000D03*
D16*
X108077000Y-106426000D03*
D15*
X196469000Y-103886000D03*
D16*
X196469000Y-106426000D03*
D17*
X125603000Y-103626000D03*
X125603000Y-104146000D03*
X139319000Y-104896000D03*
X139319000Y-105416000D03*
X163195000Y-103626000D03*
X163195000Y-104146000D03*
X179451000Y-104896000D03*
X179451000Y-105416000D03*
D18*
X118993000Y-103886000D03*
X119513000Y-103886000D03*
D17*
X142367000Y-98038000D03*
X142367000Y-98558000D03*
D18*
X155823000Y-103886000D03*
X156343000Y-103886000D03*
D17*
X183007000Y-98165000D03*
X183007000Y-98685000D03*
D18*
X122307000Y-103886000D03*
X121787000Y-103886000D03*
X142869000Y-105156000D03*
X143389000Y-105156000D03*
X158883000Y-103886000D03*
X158363000Y-103886000D03*
X183763000Y-105156000D03*
X184283000Y-105156000D03*
X165221000Y-100838000D03*
X165741000Y-100838000D03*
X176917000Y-109220000D03*
X176397000Y-109220000D03*
X167507000Y-100838000D03*
X168027000Y-100838000D03*
X174377000Y-109220000D03*
X173857000Y-109220000D03*
D19*
X129761000Y-103251000D03*
X129761000Y-104521000D03*
X129761000Y-105791000D03*
X129761000Y-107061000D03*
X135161000Y-107061000D03*
X135161000Y-105791000D03*
X135161000Y-104521000D03*
X135161000Y-103251000D03*
X168369000Y-103251000D03*
X168369000Y-104521000D03*
X168369000Y-105791000D03*
X168369000Y-107061000D03*
X173769000Y-107061000D03*
X173769000Y-105791000D03*
X173769000Y-104521000D03*
X173769000Y-103251000D03*
D20*
X145255000Y-90678000D03*
X150655000Y-90678000D03*
X157447000Y-90678000D03*
X162847000Y-90678000D03*
D21*
X112427000Y-103886000D03*
X116427000Y-103886000D03*
X187865000Y-103886000D03*
X191865000Y-103886000D03*
D22*
X145161000Y-96901000D03*
X173863000Y-97790000D03*
X138303000Y-96774000D03*
X138303000Y-99822000D03*
X185420000Y-105918000D03*
X173863000Y-110490000D03*
X168275000Y-118872000D03*
X173863000Y-91186000D03*
X168021000Y-94234000D03*
X157607000Y-103886000D03*
X144653000Y-105156000D03*
X120777000Y-103886000D03*
X137287000Y-108204000D03*
X135255000Y-91186000D03*
X129921000Y-118618000D03*
D23*
X153797000Y-103886000D03*
X141097000Y-103886000D03*
X185420000Y-103886000D03*
X181356000Y-103886000D03*
X176911000Y-104521000D03*
X176911000Y-107061000D03*
X166497000Y-105664000D03*
X166751000Y-101600000D03*
D24*
X145255000Y-90678000D02*
X145255000Y-96807000D01*
X145255000Y-96807000D02*
X145161000Y-96901000D01*
X145255000Y-90678000D02*
X145255000Y-86774000D01*
X147701000Y-84328000D02*
X145255000Y-86774000D01*
X147701000Y-84328000D02*
X151511000Y-84328000D01*
X173863000Y-97790000D02*
X173863000Y-99928000D01*
X135255000Y-99928000D02*
X138197000Y-99928000D01*
X138197000Y-99928000D02*
X138303000Y-99822000D01*
X144399000Y-90678000D02*
X145255000Y-90678000D01*
X173863000Y-99928000D02*
X173863000Y-103157000D01*
X173863000Y-103157000D02*
X173769000Y-103251000D01*
X135255000Y-99928000D02*
X135255000Y-103157000D01*
X135255000Y-103157000D02*
X135161000Y-103251000D01*
D25*
X135161000Y-100022000D02*
X135255000Y-99928000D01*
D24*
X154051000Y-84328000D02*
X154051000Y-90678000D01*
X150655000Y-90678000D02*
X154051000Y-90678000D01*
X154051000Y-90678000D02*
X157447000Y-90678000D01*
D26*
X184658000Y-105156000D02*
X185420000Y-105918000D01*
X184283000Y-105156000D02*
X184658000Y-105156000D01*
X173857000Y-109220000D02*
X173857000Y-110484000D01*
X173857000Y-110484000D02*
X173863000Y-110490000D01*
D24*
X168275000Y-116184000D02*
X168275000Y-118872000D01*
X173863000Y-94128000D02*
X173863000Y-91186000D01*
D26*
X168027000Y-100838000D02*
X168021000Y-99822000D01*
D24*
X168021000Y-99568000D02*
X168021000Y-94234000D01*
X168021000Y-99822000D02*
X168021000Y-99568000D01*
D26*
X158363000Y-103886000D02*
X157607000Y-103886000D01*
X143389000Y-105156000D02*
X144653000Y-105156000D01*
D24*
X129761000Y-105791000D02*
X131572000Y-105791000D01*
X132842000Y-107061000D02*
X135161000Y-107061000D01*
X131572000Y-105791000D02*
X132842000Y-107061000D01*
D26*
X121787000Y-103886000D02*
X120777000Y-103886000D01*
D24*
X136144000Y-107061000D02*
X137287000Y-108204000D01*
X136144000Y-107061000D02*
X135161000Y-107061000D01*
X135255000Y-94128000D02*
X135255000Y-91186000D01*
X129921000Y-116184000D02*
X129921000Y-118618000D01*
X162847000Y-90678000D02*
X162847000Y-93058000D01*
X162847000Y-93058000D02*
X160909000Y-94996000D01*
X160909000Y-94996000D02*
X155067000Y-94996000D01*
X155067000Y-94996000D02*
X151511000Y-98552000D01*
X151511000Y-98552000D02*
X151511000Y-110384000D01*
X162847000Y-90678000D02*
X162847000Y-86774000D01*
X160401000Y-84328000D02*
X162847000Y-86774000D01*
X160401000Y-84328000D02*
X156591000Y-84328000D01*
X129921000Y-110384000D02*
X150749000Y-110384000D01*
X150749000Y-110384000D02*
X151511000Y-110384000D01*
X151511000Y-110384000D02*
X168275000Y-110384000D01*
X168275000Y-110384000D02*
X168275000Y-107155000D01*
X168275000Y-107155000D02*
X168369000Y-107061000D01*
X129921000Y-110384000D02*
X129921000Y-107221000D01*
X129921000Y-107221000D02*
X129761000Y-107061000D01*
D25*
X129761000Y-110224000D02*
X129921000Y-110384000D01*
D27*
X119513000Y-103886000D02*
X119513000Y-104146000D01*
X122047000Y-104902000D02*
X122307000Y-104642000D01*
X120269000Y-104902000D02*
X122047000Y-104902000D01*
X119513000Y-104146000D02*
X120269000Y-104902000D01*
X122307000Y-103886000D02*
X122307000Y-101352000D01*
X122307000Y-101352000D02*
X122821000Y-100838000D01*
X122821000Y-100838000D02*
X122875000Y-100838000D01*
X122307000Y-104642000D02*
X122307000Y-104902000D01*
X122307000Y-104902000D02*
X122307000Y-106432000D01*
X122307000Y-106432000D02*
X122875000Y-107000000D01*
X122875000Y-107000000D02*
X122875000Y-107188000D01*
X122307000Y-104642000D02*
X122307000Y-103886000D01*
X129761000Y-103251000D02*
X125978000Y-103251000D01*
X125978000Y-103251000D02*
X125603000Y-103626000D01*
X129761000Y-103251000D02*
X129761000Y-99474000D01*
X131197000Y-98038000D02*
X142367000Y-98038000D01*
X129761000Y-99474000D02*
X131197000Y-98038000D01*
X125603000Y-103251000D02*
X125603000Y-103124000D01*
X125603000Y-103626000D02*
X125603000Y-103124000D01*
X125603000Y-103124000D02*
X125603000Y-101346000D01*
X125603000Y-101346000D02*
X125095000Y-100838000D01*
X125095000Y-100838000D02*
X124775000Y-100838000D01*
X142869000Y-105156000D02*
X142869000Y-107890000D01*
X142869000Y-107890000D02*
X142301000Y-108458000D01*
X142869000Y-105156000D02*
X142869000Y-102422000D01*
X142869000Y-102422000D02*
X142301000Y-101854000D01*
X142367000Y-98558000D02*
X142367000Y-101788000D01*
X142367000Y-101788000D02*
X142301000Y-101854000D01*
X140401000Y-101854000D02*
X140401000Y-103190000D01*
X153797000Y-103886000D02*
X155823000Y-103886000D01*
X140401000Y-103190000D02*
X141097000Y-103886000D01*
X135161000Y-104521000D02*
X138944000Y-104521000D01*
X138944000Y-104521000D02*
X139319000Y-104896000D01*
X139319000Y-104896000D02*
X139319000Y-104394000D01*
X139319000Y-104394000D02*
X139319000Y-102936000D01*
X139319000Y-102936000D02*
X140401000Y-101854000D01*
X156343000Y-103886000D02*
X156343000Y-104908000D01*
X157861000Y-105410000D02*
X158883000Y-104388000D01*
X156845000Y-105410000D02*
X157861000Y-105410000D01*
X156343000Y-104908000D02*
X156845000Y-105410000D01*
X158883000Y-103886000D02*
X158883000Y-101614000D01*
X158883000Y-101614000D02*
X159659000Y-100838000D01*
X158883000Y-103886000D02*
X158883000Y-104388000D01*
X158883000Y-104388000D02*
X158883000Y-104648000D01*
X158883000Y-104648000D02*
X158883000Y-106412000D01*
X158883000Y-106412000D02*
X159659000Y-107188000D01*
X168369000Y-103251000D02*
X168369000Y-102522000D01*
X183007000Y-97409000D02*
X183007000Y-98165000D01*
X181991000Y-96520000D02*
X183007000Y-97409000D01*
X181229000Y-96520000D02*
X181991000Y-96520000D01*
X180467000Y-96520000D02*
X181229000Y-96520000D01*
X170053000Y-96520000D02*
X180467000Y-96520000D01*
X170053000Y-100838000D02*
X170053000Y-96520000D01*
X168369000Y-102522000D02*
X170053000Y-100838000D01*
X162159000Y-100838000D02*
X165221000Y-100838000D01*
X163195000Y-103626000D02*
X163201000Y-103626000D01*
X163201000Y-103626000D02*
X163576000Y-103251000D01*
X163576000Y-103251000D02*
X168369000Y-103251000D01*
X163195000Y-103626000D02*
X163195000Y-101874000D01*
X163195000Y-101874000D02*
X162159000Y-100838000D01*
X183007000Y-98685000D02*
X183007000Y-101834000D01*
X183007000Y-101834000D02*
X182987000Y-101854000D01*
X183763000Y-105156000D02*
X183763000Y-102630000D01*
X183763000Y-102630000D02*
X182987000Y-101854000D01*
X183763000Y-105156000D02*
X183763000Y-107682000D01*
X183763000Y-107682000D02*
X182987000Y-108458000D01*
X185420000Y-103886000D02*
X187865000Y-103886000D01*
X180487000Y-103017000D02*
X181356000Y-103886000D01*
X180487000Y-101854000D02*
X180487000Y-103017000D01*
X176917000Y-109220000D02*
X176917000Y-107067000D01*
X176917000Y-107067000D02*
X176911000Y-107061000D01*
X179451000Y-104896000D02*
X179451000Y-102890000D01*
X179451000Y-102890000D02*
X180487000Y-101854000D01*
X173769000Y-104521000D02*
X176911000Y-104521000D01*
X176911000Y-104521000D02*
X179076000Y-104521000D01*
X179076000Y-104521000D02*
X179451000Y-104896000D01*
X108077000Y-103886000D02*
X112427000Y-103886000D01*
X118993000Y-103886000D02*
X118745000Y-103886000D01*
X118745000Y-103886000D02*
X116427000Y-103886000D01*
X129761000Y-104521000D02*
X125978000Y-104521000D01*
X125978000Y-104521000D02*
X125603000Y-104146000D01*
X125603000Y-104521000D02*
X125603000Y-104394000D01*
X124775000Y-107188000D02*
X124841000Y-107188000D01*
X124841000Y-107188000D02*
X125603000Y-106426000D01*
X125603000Y-106426000D02*
X125603000Y-104394000D01*
X125603000Y-104394000D02*
X125603000Y-104146000D01*
X135161000Y-105791000D02*
X138944000Y-105791000D01*
X138944000Y-105791000D02*
X139319000Y-105416000D01*
X139319000Y-105791000D02*
X139319000Y-105918000D01*
X139319000Y-105416000D02*
X139319000Y-105918000D01*
X139319000Y-105918000D02*
X139319000Y-107376000D01*
X139319000Y-107376000D02*
X140401000Y-108458000D01*
X163195000Y-104146000D02*
X163201000Y-104146000D01*
X163201000Y-104146000D02*
X163576000Y-104521000D01*
X163576000Y-104521000D02*
X168369000Y-104521000D01*
X163195000Y-104146000D02*
X163195000Y-106152000D01*
X163195000Y-106152000D02*
X162159000Y-107188000D01*
X179451000Y-105416000D02*
X179451000Y-107422000D01*
X179451000Y-107422000D02*
X180487000Y-108458000D01*
X173769000Y-105791000D02*
X179076000Y-105791000D01*
X179076000Y-105791000D02*
X179451000Y-105416000D01*
X191865000Y-103886000D02*
X196469000Y-103886000D01*
X167507000Y-100838000D02*
X167507000Y-100844000D01*
X167507000Y-100844000D02*
X166751000Y-101600000D01*
X166624000Y-105791000D02*
X168369000Y-105791000D01*
X166497000Y-105664000D02*
X166624000Y-105791000D01*
X165741000Y-100838000D02*
X167507000Y-100838000D01*
X174377000Y-109220000D02*
X176397000Y-109220000D01*
X173769000Y-107061000D02*
X173990000Y-107061000D01*
X173990000Y-107061000D02*
X174377000Y-107448000D01*
X174377000Y-107448000D02*
X174377000Y-109220000D01*
M02*
