%FSLAX45Y45*%
G04 Gerber Fmt 4.5, Leading zero omitted, Abs format (unit mm)*
G04 Created by KiCad (PCBNEW 4.0.6-e0-6349~53~ubuntu14.04.1) date Mon Jul  3 07:27:08 2017*
%MOMM*%
%LPD*%
G01*
G04 APERTURE LIST*
%ADD10C,0.127000*%
%ADD11C,0.150000*%
%ADD12C,0.200000*%
%ADD13C,0.300000*%
G04 APERTURE END LIST*
D10*
D11*
X10223500Y-12166600D02*
X10223500Y-7848600D01*
X20256500Y-12166600D02*
X10223500Y-12166600D01*
X20256500Y-7848600D02*
X20256500Y-12166600D01*
X10223500Y-7848600D02*
X20256500Y-7848600D01*
D12*
X14089700Y-10368600D02*
X14129700Y-10408600D01*
X14129700Y-10368600D02*
X14089700Y-10408600D01*
X15359700Y-10368600D02*
X15399700Y-10408600D01*
X15399700Y-10368600D02*
X15359700Y-10408600D01*
X16629700Y-10546400D02*
X16669700Y-10586400D01*
X16669700Y-10546400D02*
X16629700Y-10586400D01*
X16655100Y-10140000D02*
X16695100Y-10180000D01*
X16695100Y-10140000D02*
X16655100Y-10180000D01*
X17671100Y-10432100D02*
X17711100Y-10472100D01*
X17711100Y-10432100D02*
X17671100Y-10472100D01*
X17671100Y-10686100D02*
X17711100Y-10726100D01*
X17711100Y-10686100D02*
X17671100Y-10726100D01*
X18115600Y-10368600D02*
X18155600Y-10408600D01*
X18155600Y-10368600D02*
X18115600Y-10408600D01*
X18522000Y-10368600D02*
X18562000Y-10408600D01*
X18562000Y-10368600D02*
X18522000Y-10408600D01*
X12117700Y-10388600D02*
G75*
G03X12117700Y-10388600I-40000J0D01*
G01*
X13032100Y-11861800D02*
G75*
G03X13032100Y-11861800I-40000J0D01*
G01*
X13565500Y-9118600D02*
G75*
G03X13565500Y-9118600I-40000J0D01*
G01*
X13768700Y-10820400D02*
G75*
G03X13768700Y-10820400I-40000J0D01*
G01*
X13870300Y-9677400D02*
G75*
G03X13870300Y-9677400I-40000J0D01*
G01*
X13870300Y-9982200D02*
G75*
G03X13870300Y-9982200I-40000J0D01*
G01*
X14505300Y-10515600D02*
G75*
G03X14505300Y-10515600I-40000J0D01*
G01*
X14556100Y-9690100D02*
G75*
G03X14556100Y-9690100I-40000J0D01*
G01*
X15800700Y-10388600D02*
G75*
G03X15800700Y-10388600I-40000J0D01*
G01*
X16842100Y-9423400D02*
G75*
G03X16842100Y-9423400I-40000J0D01*
G01*
X16867500Y-11887200D02*
G75*
G03X16867500Y-11887200I-40000J0D01*
G01*
X17426300Y-9118600D02*
G75*
G03X17426300Y-9118600I-40000J0D01*
G01*
X17426300Y-9779000D02*
G75*
G03X17426300Y-9779000I-40000J0D01*
G01*
X17426300Y-11049000D02*
G75*
G03X17426300Y-11049000I-40000J0D01*
G01*
X18582000Y-10591800D02*
G75*
G03X18582000Y-10591800I-40000J0D01*
G01*
X10807700Y-10338600D02*
X10807700Y-10438600D01*
X10757700Y-10388600D02*
X10857700Y-10388600D01*
X10807700Y-10592600D02*
X10807700Y-10692600D01*
X10757700Y-10642600D02*
X10857700Y-10642600D01*
X15151100Y-8382800D02*
X15151100Y-8482800D01*
X15101100Y-8432800D02*
X15201100Y-8432800D01*
X15405100Y-8382800D02*
X15405100Y-8482800D01*
X15355100Y-8432800D02*
X15455100Y-8432800D01*
X15659100Y-8382800D02*
X15659100Y-8482800D01*
X15609100Y-8432800D02*
X15709100Y-8432800D01*
X19646900Y-10338600D02*
X19646900Y-10438600D01*
X19596900Y-10388600D02*
X19696900Y-10388600D01*
X19646900Y-10592600D02*
X19646900Y-10692600D01*
X19596900Y-10642600D02*
X19696900Y-10642600D01*
X10931445Y-8581945D02*
X10931445Y-8334455D01*
X10683955Y-8334455D01*
X10683955Y-8581945D01*
X10931445Y-8581945D01*
X10931445Y-11706145D02*
X10931445Y-11458655D01*
X10683955Y-11458655D01*
X10683955Y-11706145D01*
X10931445Y-11706145D01*
X19770645Y-8581945D02*
X19770645Y-8334455D01*
X19523155Y-8334455D01*
X19523155Y-8581945D01*
X19770645Y-8581945D01*
X19770645Y-11706145D02*
X19770645Y-11458655D01*
X19523155Y-11458655D01*
X19523155Y-11706145D01*
X19770645Y-11706145D01*
D13*
X10487429Y-12639814D02*
X10487429Y-12339814D01*
X10558857Y-12339814D01*
X10601714Y-12354100D01*
X10630286Y-12382671D01*
X10644571Y-12411243D01*
X10658857Y-12468386D01*
X10658857Y-12511243D01*
X10644571Y-12568386D01*
X10630286Y-12596957D01*
X10601714Y-12625529D01*
X10558857Y-12639814D01*
X10487429Y-12639814D01*
X10787429Y-12639814D02*
X10787429Y-12439814D01*
X10787429Y-12496957D02*
X10801714Y-12468386D01*
X10816000Y-12454100D01*
X10844571Y-12439814D01*
X10873143Y-12439814D01*
X10973143Y-12639814D02*
X10973143Y-12439814D01*
X10973143Y-12339814D02*
X10958857Y-12354100D01*
X10973143Y-12368386D01*
X10987429Y-12354100D01*
X10973143Y-12339814D01*
X10973143Y-12368386D01*
X11158857Y-12639814D02*
X11130286Y-12625529D01*
X11116000Y-12596957D01*
X11116000Y-12339814D01*
X11316000Y-12639814D02*
X11287428Y-12625529D01*
X11273143Y-12596957D01*
X11273143Y-12339814D01*
X11658857Y-12639814D02*
X11658857Y-12339814D01*
X11758857Y-12554100D01*
X11858857Y-12339814D01*
X11858857Y-12639814D01*
X12130286Y-12639814D02*
X12130286Y-12482671D01*
X12116000Y-12454100D01*
X12087428Y-12439814D01*
X12030286Y-12439814D01*
X12001714Y-12454100D01*
X12130286Y-12625529D02*
X12101714Y-12639814D01*
X12030286Y-12639814D01*
X12001714Y-12625529D01*
X11987428Y-12596957D01*
X11987428Y-12568386D01*
X12001714Y-12539814D01*
X12030286Y-12525529D01*
X12101714Y-12525529D01*
X12130286Y-12511243D01*
X12273143Y-12439814D02*
X12273143Y-12739814D01*
X12273143Y-12454100D02*
X12301714Y-12439814D01*
X12358857Y-12439814D01*
X12387428Y-12454100D01*
X12401714Y-12468386D01*
X12416000Y-12496957D01*
X12416000Y-12582671D01*
X12401714Y-12611243D01*
X12387428Y-12625529D01*
X12358857Y-12639814D01*
X12301714Y-12639814D01*
X12273143Y-12625529D01*
X12544571Y-12611243D02*
X12558857Y-12625529D01*
X12544571Y-12639814D01*
X12530286Y-12625529D01*
X12544571Y-12611243D01*
X12544571Y-12639814D01*
X12544571Y-12454100D02*
X12558857Y-12468386D01*
X12544571Y-12482671D01*
X12530286Y-12468386D01*
X12544571Y-12454100D01*
X12544571Y-12482671D01*
X10176000Y-13114100D02*
X10216000Y-13154100D01*
X10216000Y-13114100D02*
X10176000Y-13154100D01*
X10544571Y-12969814D02*
X10573143Y-12969814D01*
X10601714Y-12984100D01*
X10616000Y-12998386D01*
X10630286Y-13026957D01*
X10644571Y-13084100D01*
X10644571Y-13155529D01*
X10630286Y-13212671D01*
X10616000Y-13241243D01*
X10601714Y-13255529D01*
X10573143Y-13269814D01*
X10544571Y-13269814D01*
X10516000Y-13255529D01*
X10501714Y-13241243D01*
X10487429Y-13212671D01*
X10473143Y-13155529D01*
X10473143Y-13084100D01*
X10487429Y-13026957D01*
X10501714Y-12998386D01*
X10516000Y-12984100D01*
X10544571Y-12969814D01*
X10773143Y-13241243D02*
X10787429Y-13255529D01*
X10773143Y-13269814D01*
X10758857Y-13255529D01*
X10773143Y-13241243D01*
X10773143Y-13269814D01*
X11044571Y-13069814D02*
X11044571Y-13269814D01*
X10973143Y-12955529D02*
X10901714Y-13169814D01*
X11087428Y-13169814D01*
X11258857Y-12969814D02*
X11287428Y-12969814D01*
X11316000Y-12984100D01*
X11330286Y-12998386D01*
X11344571Y-13026957D01*
X11358857Y-13084100D01*
X11358857Y-13155529D01*
X11344571Y-13212671D01*
X11330286Y-13241243D01*
X11316000Y-13255529D01*
X11287428Y-13269814D01*
X11258857Y-13269814D01*
X11230286Y-13255529D01*
X11216000Y-13241243D01*
X11201714Y-13212671D01*
X11187428Y-13155529D01*
X11187428Y-13084100D01*
X11201714Y-13026957D01*
X11216000Y-12998386D01*
X11230286Y-12984100D01*
X11258857Y-12969814D01*
X11487428Y-13269814D02*
X11487428Y-13069814D01*
X11487428Y-13098386D02*
X11501714Y-13084100D01*
X11530286Y-13069814D01*
X11573143Y-13069814D01*
X11601714Y-13084100D01*
X11616000Y-13112671D01*
X11616000Y-13269814D01*
X11616000Y-13112671D02*
X11630286Y-13084100D01*
X11658857Y-13069814D01*
X11701714Y-13069814D01*
X11730286Y-13084100D01*
X11744571Y-13112671D01*
X11744571Y-13269814D01*
X11887428Y-13269814D02*
X11887428Y-13069814D01*
X11887428Y-13098386D02*
X11901714Y-13084100D01*
X11930286Y-13069814D01*
X11973143Y-13069814D01*
X12001714Y-13084100D01*
X12016000Y-13112671D01*
X12016000Y-13269814D01*
X12016000Y-13112671D02*
X12030286Y-13084100D01*
X12058857Y-13069814D01*
X12101714Y-13069814D01*
X12130286Y-13084100D01*
X12144571Y-13112671D01*
X12144571Y-13269814D01*
X12730286Y-12955529D02*
X12473143Y-13341243D01*
X13116000Y-12969814D02*
X13144571Y-12969814D01*
X13173143Y-12984100D01*
X13187428Y-12998386D01*
X13201714Y-13026957D01*
X13216000Y-13084100D01*
X13216000Y-13155529D01*
X13201714Y-13212671D01*
X13187428Y-13241243D01*
X13173143Y-13255529D01*
X13144571Y-13269814D01*
X13116000Y-13269814D01*
X13087428Y-13255529D01*
X13073143Y-13241243D01*
X13058857Y-13212671D01*
X13044571Y-13155529D01*
X13044571Y-13084100D01*
X13058857Y-13026957D01*
X13073143Y-12998386D01*
X13087428Y-12984100D01*
X13116000Y-12969814D01*
X13344571Y-13241243D02*
X13358857Y-13255529D01*
X13344571Y-13269814D01*
X13330286Y-13255529D01*
X13344571Y-13241243D01*
X13344571Y-13269814D01*
X13544571Y-12969814D02*
X13573143Y-12969814D01*
X13601714Y-12984100D01*
X13616000Y-12998386D01*
X13630285Y-13026957D01*
X13644571Y-13084100D01*
X13644571Y-13155529D01*
X13630285Y-13212671D01*
X13616000Y-13241243D01*
X13601714Y-13255529D01*
X13573143Y-13269814D01*
X13544571Y-13269814D01*
X13516000Y-13255529D01*
X13501714Y-13241243D01*
X13487428Y-13212671D01*
X13473143Y-13155529D01*
X13473143Y-13084100D01*
X13487428Y-13026957D01*
X13501714Y-12998386D01*
X13516000Y-12984100D01*
X13544571Y-12969814D01*
X13930285Y-13269814D02*
X13758857Y-13269814D01*
X13844571Y-13269814D02*
X13844571Y-12969814D01*
X13816000Y-13012671D01*
X13787428Y-13041243D01*
X13758857Y-13055529D01*
X14187428Y-12969814D02*
X14130285Y-12969814D01*
X14101714Y-12984100D01*
X14087428Y-12998386D01*
X14058857Y-13041243D01*
X14044571Y-13098386D01*
X14044571Y-13212671D01*
X14058857Y-13241243D01*
X14073143Y-13255529D01*
X14101714Y-13269814D01*
X14158857Y-13269814D01*
X14187428Y-13255529D01*
X14201714Y-13241243D01*
X14216000Y-13212671D01*
X14216000Y-13141243D01*
X14201714Y-13112671D01*
X14187428Y-13098386D01*
X14158857Y-13084100D01*
X14101714Y-13084100D01*
X14073143Y-13098386D01*
X14058857Y-13112671D01*
X14044571Y-13141243D01*
X14330286Y-12969814D02*
X14330286Y-13026957D01*
X14444571Y-12969814D02*
X14444571Y-13026957D01*
X14887428Y-13384100D02*
X14873143Y-13369814D01*
X14844571Y-13326957D01*
X14830285Y-13298386D01*
X14816000Y-13255529D01*
X14801714Y-13184100D01*
X14801714Y-13126957D01*
X14816000Y-13055529D01*
X14830285Y-13012671D01*
X14844571Y-12984100D01*
X14873143Y-12941243D01*
X14887428Y-12926957D01*
X15044571Y-13098386D02*
X15016000Y-13084100D01*
X15001714Y-13069814D01*
X14987428Y-13041243D01*
X14987428Y-13026957D01*
X15001714Y-12998386D01*
X15016000Y-12984100D01*
X15044571Y-12969814D01*
X15101714Y-12969814D01*
X15130285Y-12984100D01*
X15144571Y-12998386D01*
X15158857Y-13026957D01*
X15158857Y-13041243D01*
X15144571Y-13069814D01*
X15130285Y-13084100D01*
X15101714Y-13098386D01*
X15044571Y-13098386D01*
X15016000Y-13112671D01*
X15001714Y-13126957D01*
X14987428Y-13155529D01*
X14987428Y-13212671D01*
X15001714Y-13241243D01*
X15016000Y-13255529D01*
X15044571Y-13269814D01*
X15101714Y-13269814D01*
X15130285Y-13255529D01*
X15144571Y-13241243D01*
X15158857Y-13212671D01*
X15158857Y-13155529D01*
X15144571Y-13126957D01*
X15130285Y-13112671D01*
X15101714Y-13098386D01*
X15516000Y-13269814D02*
X15516000Y-12969814D01*
X15644571Y-13269814D02*
X15644571Y-13112671D01*
X15630285Y-13084100D01*
X15601714Y-13069814D01*
X15558857Y-13069814D01*
X15530285Y-13084100D01*
X15516000Y-13098386D01*
X15830285Y-13269814D02*
X15801714Y-13255529D01*
X15787428Y-13241243D01*
X15773143Y-13212671D01*
X15773143Y-13126957D01*
X15787428Y-13098386D01*
X15801714Y-13084100D01*
X15830285Y-13069814D01*
X15873143Y-13069814D01*
X15901714Y-13084100D01*
X15916000Y-13098386D01*
X15930285Y-13126957D01*
X15930285Y-13212671D01*
X15916000Y-13241243D01*
X15901714Y-13255529D01*
X15873143Y-13269814D01*
X15830285Y-13269814D01*
X16101714Y-13269814D02*
X16073143Y-13255529D01*
X16058857Y-13226957D01*
X16058857Y-12969814D01*
X16330286Y-13255529D02*
X16301714Y-13269814D01*
X16244571Y-13269814D01*
X16216000Y-13255529D01*
X16201714Y-13226957D01*
X16201714Y-13112671D01*
X16216000Y-13084100D01*
X16244571Y-13069814D01*
X16301714Y-13069814D01*
X16330286Y-13084100D01*
X16344571Y-13112671D01*
X16344571Y-13141243D01*
X16201714Y-13169814D01*
X16458857Y-13255529D02*
X16487428Y-13269814D01*
X16544571Y-13269814D01*
X16573143Y-13255529D01*
X16587428Y-13226957D01*
X16587428Y-13212671D01*
X16573143Y-13184100D01*
X16544571Y-13169814D01*
X16501714Y-13169814D01*
X16473143Y-13155529D01*
X16458857Y-13126957D01*
X16458857Y-13112671D01*
X16473143Y-13084100D01*
X16501714Y-13069814D01*
X16544571Y-13069814D01*
X16573143Y-13084100D01*
X16687428Y-13384100D02*
X16701714Y-13369814D01*
X16730286Y-13326957D01*
X16744571Y-13298386D01*
X16758857Y-13255529D01*
X16773143Y-13184100D01*
X16773143Y-13126957D01*
X16758857Y-13055529D01*
X16744571Y-13012671D01*
X16730286Y-12984100D01*
X16701714Y-12941243D01*
X16687428Y-12926957D01*
X10216000Y-13530100D02*
G75*
G03X10216000Y-13530100I-40000J0D01*
G01*
X10544571Y-13365814D02*
X10573143Y-13365814D01*
X10601714Y-13380100D01*
X10616000Y-13394386D01*
X10630286Y-13422957D01*
X10644571Y-13480100D01*
X10644571Y-13551529D01*
X10630286Y-13608671D01*
X10616000Y-13637243D01*
X10601714Y-13651529D01*
X10573143Y-13665814D01*
X10544571Y-13665814D01*
X10516000Y-13651529D01*
X10501714Y-13637243D01*
X10487429Y-13608671D01*
X10473143Y-13551529D01*
X10473143Y-13480100D01*
X10487429Y-13422957D01*
X10501714Y-13394386D01*
X10516000Y-13380100D01*
X10544571Y-13365814D01*
X10773143Y-13637243D02*
X10787429Y-13651529D01*
X10773143Y-13665814D01*
X10758857Y-13651529D01*
X10773143Y-13637243D01*
X10773143Y-13665814D01*
X10958857Y-13494386D02*
X10930286Y-13480100D01*
X10916000Y-13465814D01*
X10901714Y-13437243D01*
X10901714Y-13422957D01*
X10916000Y-13394386D01*
X10930286Y-13380100D01*
X10958857Y-13365814D01*
X11016000Y-13365814D01*
X11044571Y-13380100D01*
X11058857Y-13394386D01*
X11073143Y-13422957D01*
X11073143Y-13437243D01*
X11058857Y-13465814D01*
X11044571Y-13480100D01*
X11016000Y-13494386D01*
X10958857Y-13494386D01*
X10930286Y-13508671D01*
X10916000Y-13522957D01*
X10901714Y-13551529D01*
X10901714Y-13608671D01*
X10916000Y-13637243D01*
X10930286Y-13651529D01*
X10958857Y-13665814D01*
X11016000Y-13665814D01*
X11044571Y-13651529D01*
X11058857Y-13637243D01*
X11073143Y-13608671D01*
X11073143Y-13551529D01*
X11058857Y-13522957D01*
X11044571Y-13508671D01*
X11016000Y-13494386D01*
X11258857Y-13365814D02*
X11287428Y-13365814D01*
X11316000Y-13380100D01*
X11330286Y-13394386D01*
X11344571Y-13422957D01*
X11358857Y-13480100D01*
X11358857Y-13551529D01*
X11344571Y-13608671D01*
X11330286Y-13637243D01*
X11316000Y-13651529D01*
X11287428Y-13665814D01*
X11258857Y-13665814D01*
X11230286Y-13651529D01*
X11216000Y-13637243D01*
X11201714Y-13608671D01*
X11187428Y-13551529D01*
X11187428Y-13480100D01*
X11201714Y-13422957D01*
X11216000Y-13394386D01*
X11230286Y-13380100D01*
X11258857Y-13365814D01*
X11487428Y-13665814D02*
X11487428Y-13465814D01*
X11487428Y-13494386D02*
X11501714Y-13480100D01*
X11530286Y-13465814D01*
X11573143Y-13465814D01*
X11601714Y-13480100D01*
X11616000Y-13508671D01*
X11616000Y-13665814D01*
X11616000Y-13508671D02*
X11630286Y-13480100D01*
X11658857Y-13465814D01*
X11701714Y-13465814D01*
X11730286Y-13480100D01*
X11744571Y-13508671D01*
X11744571Y-13665814D01*
X11887428Y-13665814D02*
X11887428Y-13465814D01*
X11887428Y-13494386D02*
X11901714Y-13480100D01*
X11930286Y-13465814D01*
X11973143Y-13465814D01*
X12001714Y-13480100D01*
X12016000Y-13508671D01*
X12016000Y-13665814D01*
X12016000Y-13508671D02*
X12030286Y-13480100D01*
X12058857Y-13465814D01*
X12101714Y-13465814D01*
X12130286Y-13480100D01*
X12144571Y-13508671D01*
X12144571Y-13665814D01*
X12730286Y-13351529D02*
X12473143Y-13737243D01*
X13116000Y-13365814D02*
X13144571Y-13365814D01*
X13173143Y-13380100D01*
X13187428Y-13394386D01*
X13201714Y-13422957D01*
X13216000Y-13480100D01*
X13216000Y-13551529D01*
X13201714Y-13608671D01*
X13187428Y-13637243D01*
X13173143Y-13651529D01*
X13144571Y-13665814D01*
X13116000Y-13665814D01*
X13087428Y-13651529D01*
X13073143Y-13637243D01*
X13058857Y-13608671D01*
X13044571Y-13551529D01*
X13044571Y-13480100D01*
X13058857Y-13422957D01*
X13073143Y-13394386D01*
X13087428Y-13380100D01*
X13116000Y-13365814D01*
X13344571Y-13637243D02*
X13358857Y-13651529D01*
X13344571Y-13665814D01*
X13330286Y-13651529D01*
X13344571Y-13637243D01*
X13344571Y-13665814D01*
X13544571Y-13365814D02*
X13573143Y-13365814D01*
X13601714Y-13380100D01*
X13616000Y-13394386D01*
X13630285Y-13422957D01*
X13644571Y-13480100D01*
X13644571Y-13551529D01*
X13630285Y-13608671D01*
X13616000Y-13637243D01*
X13601714Y-13651529D01*
X13573143Y-13665814D01*
X13544571Y-13665814D01*
X13516000Y-13651529D01*
X13501714Y-13637243D01*
X13487428Y-13608671D01*
X13473143Y-13551529D01*
X13473143Y-13480100D01*
X13487428Y-13422957D01*
X13501714Y-13394386D01*
X13516000Y-13380100D01*
X13544571Y-13365814D01*
X13744571Y-13365814D02*
X13930285Y-13365814D01*
X13830285Y-13480100D01*
X13873143Y-13480100D01*
X13901714Y-13494386D01*
X13916000Y-13508671D01*
X13930285Y-13537243D01*
X13930285Y-13608671D01*
X13916000Y-13637243D01*
X13901714Y-13651529D01*
X13873143Y-13665814D01*
X13787428Y-13665814D01*
X13758857Y-13651529D01*
X13744571Y-13637243D01*
X14216000Y-13665814D02*
X14044571Y-13665814D01*
X14130285Y-13665814D02*
X14130285Y-13365814D01*
X14101714Y-13408671D01*
X14073143Y-13437243D01*
X14044571Y-13451529D01*
X14330286Y-13365814D02*
X14330286Y-13422957D01*
X14444571Y-13365814D02*
X14444571Y-13422957D01*
X14887428Y-13780100D02*
X14873143Y-13765814D01*
X14844571Y-13722957D01*
X14830285Y-13694386D01*
X14816000Y-13651529D01*
X14801714Y-13580100D01*
X14801714Y-13522957D01*
X14816000Y-13451529D01*
X14830285Y-13408671D01*
X14844571Y-13380100D01*
X14873143Y-13337243D01*
X14887428Y-13322957D01*
X15158857Y-13665814D02*
X14987428Y-13665814D01*
X15073143Y-13665814D02*
X15073143Y-13365814D01*
X15044571Y-13408671D01*
X15016000Y-13437243D01*
X14987428Y-13451529D01*
X15430285Y-13365814D02*
X15287428Y-13365814D01*
X15273143Y-13508671D01*
X15287428Y-13494386D01*
X15316000Y-13480100D01*
X15387428Y-13480100D01*
X15416000Y-13494386D01*
X15430285Y-13508671D01*
X15444571Y-13537243D01*
X15444571Y-13608671D01*
X15430285Y-13637243D01*
X15416000Y-13651529D01*
X15387428Y-13665814D01*
X15316000Y-13665814D01*
X15287428Y-13651529D01*
X15273143Y-13637243D01*
X15801714Y-13665814D02*
X15801714Y-13365814D01*
X15930285Y-13665814D02*
X15930285Y-13508671D01*
X15916000Y-13480100D01*
X15887428Y-13465814D01*
X15844571Y-13465814D01*
X15816000Y-13480100D01*
X15801714Y-13494386D01*
X16116000Y-13665814D02*
X16087428Y-13651529D01*
X16073143Y-13637243D01*
X16058857Y-13608671D01*
X16058857Y-13522957D01*
X16073143Y-13494386D01*
X16087428Y-13480100D01*
X16116000Y-13465814D01*
X16158857Y-13465814D01*
X16187428Y-13480100D01*
X16201714Y-13494386D01*
X16216000Y-13522957D01*
X16216000Y-13608671D01*
X16201714Y-13637243D01*
X16187428Y-13651529D01*
X16158857Y-13665814D01*
X16116000Y-13665814D01*
X16387428Y-13665814D02*
X16358857Y-13651529D01*
X16344571Y-13622957D01*
X16344571Y-13365814D01*
X16616000Y-13651529D02*
X16587428Y-13665814D01*
X16530286Y-13665814D01*
X16501714Y-13651529D01*
X16487428Y-13622957D01*
X16487428Y-13508671D01*
X16501714Y-13480100D01*
X16530286Y-13465814D01*
X16587428Y-13465814D01*
X16616000Y-13480100D01*
X16630286Y-13508671D01*
X16630286Y-13537243D01*
X16487428Y-13565814D01*
X16744571Y-13651529D02*
X16773143Y-13665814D01*
X16830286Y-13665814D01*
X16858857Y-13651529D01*
X16873143Y-13622957D01*
X16873143Y-13608671D01*
X16858857Y-13580100D01*
X16830286Y-13565814D01*
X16787429Y-13565814D01*
X16758857Y-13551529D01*
X16744571Y-13522957D01*
X16744571Y-13508671D01*
X16758857Y-13480100D01*
X16787429Y-13465814D01*
X16830286Y-13465814D01*
X16858857Y-13480100D01*
X16973143Y-13780100D02*
X16987429Y-13765814D01*
X17016000Y-13722957D01*
X17030286Y-13694386D01*
X17044571Y-13651529D01*
X17058857Y-13580100D01*
X17058857Y-13522957D01*
X17044571Y-13451529D01*
X17030286Y-13408671D01*
X17016000Y-13380100D01*
X16987429Y-13337243D01*
X16973143Y-13322957D01*
X10166000Y-13876100D02*
X10166000Y-13976100D01*
X10116000Y-13926100D02*
X10216000Y-13926100D01*
X10644571Y-14061814D02*
X10473143Y-14061814D01*
X10558857Y-14061814D02*
X10558857Y-13761814D01*
X10530286Y-13804671D01*
X10501714Y-13833243D01*
X10473143Y-13847529D01*
X10773143Y-14033243D02*
X10787429Y-14047529D01*
X10773143Y-14061814D01*
X10758857Y-14047529D01*
X10773143Y-14033243D01*
X10773143Y-14061814D01*
X10973143Y-13761814D02*
X11001714Y-13761814D01*
X11030286Y-13776100D01*
X11044571Y-13790386D01*
X11058857Y-13818957D01*
X11073143Y-13876100D01*
X11073143Y-13947529D01*
X11058857Y-14004671D01*
X11044571Y-14033243D01*
X11030286Y-14047529D01*
X11001714Y-14061814D01*
X10973143Y-14061814D01*
X10944571Y-14047529D01*
X10930286Y-14033243D01*
X10916000Y-14004671D01*
X10901714Y-13947529D01*
X10901714Y-13876100D01*
X10916000Y-13818957D01*
X10930286Y-13790386D01*
X10944571Y-13776100D01*
X10973143Y-13761814D01*
X11258857Y-13761814D02*
X11287428Y-13761814D01*
X11316000Y-13776100D01*
X11330286Y-13790386D01*
X11344571Y-13818957D01*
X11358857Y-13876100D01*
X11358857Y-13947529D01*
X11344571Y-14004671D01*
X11330286Y-14033243D01*
X11316000Y-14047529D01*
X11287428Y-14061814D01*
X11258857Y-14061814D01*
X11230286Y-14047529D01*
X11216000Y-14033243D01*
X11201714Y-14004671D01*
X11187428Y-13947529D01*
X11187428Y-13876100D01*
X11201714Y-13818957D01*
X11216000Y-13790386D01*
X11230286Y-13776100D01*
X11258857Y-13761814D01*
X11487428Y-14061814D02*
X11487428Y-13861814D01*
X11487428Y-13890386D02*
X11501714Y-13876100D01*
X11530286Y-13861814D01*
X11573143Y-13861814D01*
X11601714Y-13876100D01*
X11616000Y-13904671D01*
X11616000Y-14061814D01*
X11616000Y-13904671D02*
X11630286Y-13876100D01*
X11658857Y-13861814D01*
X11701714Y-13861814D01*
X11730286Y-13876100D01*
X11744571Y-13904671D01*
X11744571Y-14061814D01*
X11887428Y-14061814D02*
X11887428Y-13861814D01*
X11887428Y-13890386D02*
X11901714Y-13876100D01*
X11930286Y-13861814D01*
X11973143Y-13861814D01*
X12001714Y-13876100D01*
X12016000Y-13904671D01*
X12016000Y-14061814D01*
X12016000Y-13904671D02*
X12030286Y-13876100D01*
X12058857Y-13861814D01*
X12101714Y-13861814D01*
X12130286Y-13876100D01*
X12144571Y-13904671D01*
X12144571Y-14061814D01*
X12730286Y-13747529D02*
X12473143Y-14133243D01*
X13116000Y-13761814D02*
X13144571Y-13761814D01*
X13173143Y-13776100D01*
X13187428Y-13790386D01*
X13201714Y-13818957D01*
X13216000Y-13876100D01*
X13216000Y-13947529D01*
X13201714Y-14004671D01*
X13187428Y-14033243D01*
X13173143Y-14047529D01*
X13144571Y-14061814D01*
X13116000Y-14061814D01*
X13087428Y-14047529D01*
X13073143Y-14033243D01*
X13058857Y-14004671D01*
X13044571Y-13947529D01*
X13044571Y-13876100D01*
X13058857Y-13818957D01*
X13073143Y-13790386D01*
X13087428Y-13776100D01*
X13116000Y-13761814D01*
X13344571Y-14033243D02*
X13358857Y-14047529D01*
X13344571Y-14061814D01*
X13330286Y-14047529D01*
X13344571Y-14033243D01*
X13344571Y-14061814D01*
X13544571Y-13761814D02*
X13573143Y-13761814D01*
X13601714Y-13776100D01*
X13616000Y-13790386D01*
X13630285Y-13818957D01*
X13644571Y-13876100D01*
X13644571Y-13947529D01*
X13630285Y-14004671D01*
X13616000Y-14033243D01*
X13601714Y-14047529D01*
X13573143Y-14061814D01*
X13544571Y-14061814D01*
X13516000Y-14047529D01*
X13501714Y-14033243D01*
X13487428Y-14004671D01*
X13473143Y-13947529D01*
X13473143Y-13876100D01*
X13487428Y-13818957D01*
X13501714Y-13790386D01*
X13516000Y-13776100D01*
X13544571Y-13761814D01*
X13744571Y-13761814D02*
X13930285Y-13761814D01*
X13830285Y-13876100D01*
X13873143Y-13876100D01*
X13901714Y-13890386D01*
X13916000Y-13904671D01*
X13930285Y-13933243D01*
X13930285Y-14004671D01*
X13916000Y-14033243D01*
X13901714Y-14047529D01*
X13873143Y-14061814D01*
X13787428Y-14061814D01*
X13758857Y-14047529D01*
X13744571Y-14033243D01*
X14073143Y-14061814D02*
X14130285Y-14061814D01*
X14158857Y-14047529D01*
X14173143Y-14033243D01*
X14201714Y-13990386D01*
X14216000Y-13933243D01*
X14216000Y-13818957D01*
X14201714Y-13790386D01*
X14187428Y-13776100D01*
X14158857Y-13761814D01*
X14101714Y-13761814D01*
X14073143Y-13776100D01*
X14058857Y-13790386D01*
X14044571Y-13818957D01*
X14044571Y-13890386D01*
X14058857Y-13918957D01*
X14073143Y-13933243D01*
X14101714Y-13947529D01*
X14158857Y-13947529D01*
X14187428Y-13933243D01*
X14201714Y-13918957D01*
X14216000Y-13890386D01*
X14330286Y-13761814D02*
X14330286Y-13818957D01*
X14444571Y-13761814D02*
X14444571Y-13818957D01*
X14887428Y-14176100D02*
X14873143Y-14161814D01*
X14844571Y-14118957D01*
X14830285Y-14090386D01*
X14816000Y-14047529D01*
X14801714Y-13976100D01*
X14801714Y-13918957D01*
X14816000Y-13847529D01*
X14830285Y-13804671D01*
X14844571Y-13776100D01*
X14873143Y-13733243D01*
X14887428Y-13718957D01*
X14973143Y-13761814D02*
X15173143Y-13761814D01*
X15044571Y-14061814D01*
X15516000Y-14061814D02*
X15516000Y-13761814D01*
X15644571Y-14061814D02*
X15644571Y-13904671D01*
X15630285Y-13876100D01*
X15601714Y-13861814D01*
X15558857Y-13861814D01*
X15530285Y-13876100D01*
X15516000Y-13890386D01*
X15830285Y-14061814D02*
X15801714Y-14047529D01*
X15787428Y-14033243D01*
X15773143Y-14004671D01*
X15773143Y-13918957D01*
X15787428Y-13890386D01*
X15801714Y-13876100D01*
X15830285Y-13861814D01*
X15873143Y-13861814D01*
X15901714Y-13876100D01*
X15916000Y-13890386D01*
X15930285Y-13918957D01*
X15930285Y-14004671D01*
X15916000Y-14033243D01*
X15901714Y-14047529D01*
X15873143Y-14061814D01*
X15830285Y-14061814D01*
X16101714Y-14061814D02*
X16073143Y-14047529D01*
X16058857Y-14018957D01*
X16058857Y-13761814D01*
X16330286Y-14047529D02*
X16301714Y-14061814D01*
X16244571Y-14061814D01*
X16216000Y-14047529D01*
X16201714Y-14018957D01*
X16201714Y-13904671D01*
X16216000Y-13876100D01*
X16244571Y-13861814D01*
X16301714Y-13861814D01*
X16330286Y-13876100D01*
X16344571Y-13904671D01*
X16344571Y-13933243D01*
X16201714Y-13961814D01*
X16458857Y-14047529D02*
X16487428Y-14061814D01*
X16544571Y-14061814D01*
X16573143Y-14047529D01*
X16587428Y-14018957D01*
X16587428Y-14004671D01*
X16573143Y-13976100D01*
X16544571Y-13961814D01*
X16501714Y-13961814D01*
X16473143Y-13947529D01*
X16458857Y-13918957D01*
X16458857Y-13904671D01*
X16473143Y-13876100D01*
X16501714Y-13861814D01*
X16544571Y-13861814D01*
X16573143Y-13876100D01*
X16687428Y-14176100D02*
X16701714Y-14161814D01*
X16730286Y-14118957D01*
X16744571Y-14090386D01*
X16758857Y-14047529D01*
X16773143Y-13976100D01*
X16773143Y-13918957D01*
X16758857Y-13847529D01*
X16744571Y-13804671D01*
X16730286Y-13776100D01*
X16701714Y-13733243D01*
X16687428Y-13718957D01*
X10164745Y-14445845D02*
X10164745Y-14198355D01*
X9917255Y-14198355D01*
X9917255Y-14445845D01*
X10164745Y-14445845D01*
X10458857Y-14157814D02*
X10644571Y-14157814D01*
X10544571Y-14272100D01*
X10587429Y-14272100D01*
X10616000Y-14286386D01*
X10630286Y-14300671D01*
X10644571Y-14329243D01*
X10644571Y-14400671D01*
X10630286Y-14429243D01*
X10616000Y-14443529D01*
X10587429Y-14457814D01*
X10501714Y-14457814D01*
X10473143Y-14443529D01*
X10458857Y-14429243D01*
X10773143Y-14429243D02*
X10787429Y-14443529D01*
X10773143Y-14457814D01*
X10758857Y-14443529D01*
X10773143Y-14429243D01*
X10773143Y-14457814D01*
X11058857Y-14157814D02*
X10916000Y-14157814D01*
X10901714Y-14300671D01*
X10916000Y-14286386D01*
X10944571Y-14272100D01*
X11016000Y-14272100D01*
X11044571Y-14286386D01*
X11058857Y-14300671D01*
X11073143Y-14329243D01*
X11073143Y-14400671D01*
X11058857Y-14429243D01*
X11044571Y-14443529D01*
X11016000Y-14457814D01*
X10944571Y-14457814D01*
X10916000Y-14443529D01*
X10901714Y-14429243D01*
X11258857Y-14157814D02*
X11287428Y-14157814D01*
X11316000Y-14172100D01*
X11330286Y-14186386D01*
X11344571Y-14214957D01*
X11358857Y-14272100D01*
X11358857Y-14343529D01*
X11344571Y-14400671D01*
X11330286Y-14429243D01*
X11316000Y-14443529D01*
X11287428Y-14457814D01*
X11258857Y-14457814D01*
X11230286Y-14443529D01*
X11216000Y-14429243D01*
X11201714Y-14400671D01*
X11187428Y-14343529D01*
X11187428Y-14272100D01*
X11201714Y-14214957D01*
X11216000Y-14186386D01*
X11230286Y-14172100D01*
X11258857Y-14157814D01*
X11487428Y-14457814D02*
X11487428Y-14257814D01*
X11487428Y-14286386D02*
X11501714Y-14272100D01*
X11530286Y-14257814D01*
X11573143Y-14257814D01*
X11601714Y-14272100D01*
X11616000Y-14300671D01*
X11616000Y-14457814D01*
X11616000Y-14300671D02*
X11630286Y-14272100D01*
X11658857Y-14257814D01*
X11701714Y-14257814D01*
X11730286Y-14272100D01*
X11744571Y-14300671D01*
X11744571Y-14457814D01*
X11887428Y-14457814D02*
X11887428Y-14257814D01*
X11887428Y-14286386D02*
X11901714Y-14272100D01*
X11930286Y-14257814D01*
X11973143Y-14257814D01*
X12001714Y-14272100D01*
X12016000Y-14300671D01*
X12016000Y-14457814D01*
X12016000Y-14300671D02*
X12030286Y-14272100D01*
X12058857Y-14257814D01*
X12101714Y-14257814D01*
X12130286Y-14272100D01*
X12144571Y-14300671D01*
X12144571Y-14457814D01*
X12730286Y-14143529D02*
X12473143Y-14529243D01*
X13116000Y-14157814D02*
X13144571Y-14157814D01*
X13173143Y-14172100D01*
X13187428Y-14186386D01*
X13201714Y-14214957D01*
X13216000Y-14272100D01*
X13216000Y-14343529D01*
X13201714Y-14400671D01*
X13187428Y-14429243D01*
X13173143Y-14443529D01*
X13144571Y-14457814D01*
X13116000Y-14457814D01*
X13087428Y-14443529D01*
X13073143Y-14429243D01*
X13058857Y-14400671D01*
X13044571Y-14343529D01*
X13044571Y-14272100D01*
X13058857Y-14214957D01*
X13073143Y-14186386D01*
X13087428Y-14172100D01*
X13116000Y-14157814D01*
X13344571Y-14429243D02*
X13358857Y-14443529D01*
X13344571Y-14457814D01*
X13330286Y-14443529D01*
X13344571Y-14429243D01*
X13344571Y-14457814D01*
X13644571Y-14457814D02*
X13473143Y-14457814D01*
X13558857Y-14457814D02*
X13558857Y-14157814D01*
X13530285Y-14200671D01*
X13501714Y-14229243D01*
X13473143Y-14243529D01*
X13744571Y-14157814D02*
X13930285Y-14157814D01*
X13830285Y-14272100D01*
X13873143Y-14272100D01*
X13901714Y-14286386D01*
X13916000Y-14300671D01*
X13930285Y-14329243D01*
X13930285Y-14400671D01*
X13916000Y-14429243D01*
X13901714Y-14443529D01*
X13873143Y-14457814D01*
X13787428Y-14457814D01*
X13758857Y-14443529D01*
X13744571Y-14429243D01*
X14101714Y-14286386D02*
X14073143Y-14272100D01*
X14058857Y-14257814D01*
X14044571Y-14229243D01*
X14044571Y-14214957D01*
X14058857Y-14186386D01*
X14073143Y-14172100D01*
X14101714Y-14157814D01*
X14158857Y-14157814D01*
X14187428Y-14172100D01*
X14201714Y-14186386D01*
X14216000Y-14214957D01*
X14216000Y-14229243D01*
X14201714Y-14257814D01*
X14187428Y-14272100D01*
X14158857Y-14286386D01*
X14101714Y-14286386D01*
X14073143Y-14300671D01*
X14058857Y-14314957D01*
X14044571Y-14343529D01*
X14044571Y-14400671D01*
X14058857Y-14429243D01*
X14073143Y-14443529D01*
X14101714Y-14457814D01*
X14158857Y-14457814D01*
X14187428Y-14443529D01*
X14201714Y-14429243D01*
X14216000Y-14400671D01*
X14216000Y-14343529D01*
X14201714Y-14314957D01*
X14187428Y-14300671D01*
X14158857Y-14286386D01*
X14330286Y-14157814D02*
X14330286Y-14214957D01*
X14444571Y-14157814D02*
X14444571Y-14214957D01*
X14887428Y-14572100D02*
X14873143Y-14557814D01*
X14844571Y-14514957D01*
X14830285Y-14486386D01*
X14816000Y-14443529D01*
X14801714Y-14372100D01*
X14801714Y-14314957D01*
X14816000Y-14243529D01*
X14830285Y-14200671D01*
X14844571Y-14172100D01*
X14873143Y-14129243D01*
X14887428Y-14114957D01*
X15130285Y-14257814D02*
X15130285Y-14457814D01*
X15058857Y-14143529D02*
X14987428Y-14357814D01*
X15173143Y-14357814D01*
X15516000Y-14457814D02*
X15516000Y-14157814D01*
X15644571Y-14457814D02*
X15644571Y-14300671D01*
X15630285Y-14272100D01*
X15601714Y-14257814D01*
X15558857Y-14257814D01*
X15530285Y-14272100D01*
X15516000Y-14286386D01*
X15830285Y-14457814D02*
X15801714Y-14443529D01*
X15787428Y-14429243D01*
X15773143Y-14400671D01*
X15773143Y-14314957D01*
X15787428Y-14286386D01*
X15801714Y-14272100D01*
X15830285Y-14257814D01*
X15873143Y-14257814D01*
X15901714Y-14272100D01*
X15916000Y-14286386D01*
X15930285Y-14314957D01*
X15930285Y-14400671D01*
X15916000Y-14429243D01*
X15901714Y-14443529D01*
X15873143Y-14457814D01*
X15830285Y-14457814D01*
X16101714Y-14457814D02*
X16073143Y-14443529D01*
X16058857Y-14414957D01*
X16058857Y-14157814D01*
X16330286Y-14443529D02*
X16301714Y-14457814D01*
X16244571Y-14457814D01*
X16216000Y-14443529D01*
X16201714Y-14414957D01*
X16201714Y-14300671D01*
X16216000Y-14272100D01*
X16244571Y-14257814D01*
X16301714Y-14257814D01*
X16330286Y-14272100D01*
X16344571Y-14300671D01*
X16344571Y-14329243D01*
X16201714Y-14357814D01*
X16458857Y-14443529D02*
X16487428Y-14457814D01*
X16544571Y-14457814D01*
X16573143Y-14443529D01*
X16587428Y-14414957D01*
X16587428Y-14400671D01*
X16573143Y-14372100D01*
X16544571Y-14357814D01*
X16501714Y-14357814D01*
X16473143Y-14343529D01*
X16458857Y-14314957D01*
X16458857Y-14300671D01*
X16473143Y-14272100D01*
X16501714Y-14257814D01*
X16544571Y-14257814D01*
X16573143Y-14272100D01*
X16687428Y-14572100D02*
X16701714Y-14557814D01*
X16730286Y-14514957D01*
X16744571Y-14486386D01*
X16758857Y-14443529D01*
X16773143Y-14372100D01*
X16773143Y-14314957D01*
X16758857Y-14243529D01*
X16744571Y-14200671D01*
X16730286Y-14172100D01*
X16701714Y-14129243D01*
X16687428Y-14114957D01*
M02*
