G04 #@! TF.FileFunction,Soldermask,Top*
%FSLAX46Y46*%
G04 Gerber Fmt 4.6, Leading zero omitted, Abs format (unit mm)*
G04 Created by KiCad (PCBNEW 4.0.6-e0-6349~53~ubuntu14.04.1) date Mon Jul  3 07:26:06 2017*
%MOMM*%
%LPD*%
G01*
G04 APERTURE LIST*
%ADD10C,0.100000*%
%ADD11C,7.400000*%
%ADD12R,1.600000X1.150000*%
%ADD13R,1.900000X1.650000*%
%ADD14R,3.400000X2.600000*%
%ADD15R,2.100000X2.100000*%
%ADD16O,2.100000X2.100000*%
%ADD17R,0.830000X0.680000*%
%ADD18R,0.680000X0.830000*%
%ADD19R,1.950000X1.000000*%
%ADD20R,3.900000X2.000000*%
%ADD21R,2.400000X2.000000*%
G04 APERTURE END LIST*
D10*
D11*
X196469000Y-115824000D03*
X196469000Y-84582000D03*
X108077000Y-115824000D03*
X108077000Y-84582000D03*
D12*
X122875000Y-100838000D03*
X124775000Y-100838000D03*
X142301000Y-101854000D03*
X140401000Y-101854000D03*
D13*
X159659000Y-100838000D03*
X162159000Y-100838000D03*
X182987000Y-101854000D03*
X180487000Y-101854000D03*
D14*
X135255000Y-99928000D03*
X135255000Y-94128000D03*
X173863000Y-99928000D03*
X173863000Y-94128000D03*
D12*
X122875000Y-107188000D03*
X124775000Y-107188000D03*
X142301000Y-108458000D03*
X140401000Y-108458000D03*
D13*
X159659000Y-107188000D03*
X162159000Y-107188000D03*
X182987000Y-108458000D03*
X180487000Y-108458000D03*
D14*
X129921000Y-110384000D03*
X129921000Y-116184000D03*
X168275000Y-110384000D03*
X168275000Y-116184000D03*
D15*
X151511000Y-84328000D03*
D16*
X154051000Y-84328000D03*
X156591000Y-84328000D03*
D15*
X108077000Y-103886000D03*
D16*
X108077000Y-106426000D03*
D15*
X196469000Y-103886000D03*
D16*
X196469000Y-106426000D03*
D17*
X125603000Y-103626000D03*
X125603000Y-104146000D03*
X139319000Y-104896000D03*
X139319000Y-105416000D03*
X163195000Y-103626000D03*
X163195000Y-104146000D03*
X179451000Y-104896000D03*
X179451000Y-105416000D03*
D18*
X118993000Y-103886000D03*
X119513000Y-103886000D03*
D17*
X142367000Y-98038000D03*
X142367000Y-98558000D03*
D18*
X155823000Y-103886000D03*
X156343000Y-103886000D03*
D17*
X183007000Y-98165000D03*
X183007000Y-98685000D03*
D18*
X122307000Y-103886000D03*
X121787000Y-103886000D03*
X142869000Y-105156000D03*
X143389000Y-105156000D03*
X158883000Y-103886000D03*
X158363000Y-103886000D03*
X183763000Y-105156000D03*
X184283000Y-105156000D03*
X165221000Y-100838000D03*
X165741000Y-100838000D03*
X176917000Y-109220000D03*
X176397000Y-109220000D03*
X167507000Y-100838000D03*
X168027000Y-100838000D03*
X174377000Y-109220000D03*
X173857000Y-109220000D03*
D19*
X129761000Y-103251000D03*
X129761000Y-104521000D03*
X129761000Y-105791000D03*
X129761000Y-107061000D03*
X135161000Y-107061000D03*
X135161000Y-105791000D03*
X135161000Y-104521000D03*
X135161000Y-103251000D03*
X168369000Y-103251000D03*
X168369000Y-104521000D03*
X168369000Y-105791000D03*
X168369000Y-107061000D03*
X173769000Y-107061000D03*
X173769000Y-105791000D03*
X173769000Y-104521000D03*
X173769000Y-103251000D03*
D20*
X145255000Y-90678000D03*
X150655000Y-90678000D03*
X157447000Y-90678000D03*
X162847000Y-90678000D03*
D21*
X112427000Y-103886000D03*
X116427000Y-103886000D03*
X187865000Y-103886000D03*
X191865000Y-103886000D03*
M02*
