M48
;DRILL file {KiCad 4.0.6-e0-6349~53~ubuntu14.04.1} date Thu Jul  6 12:28:17 2017
;FORMAT={-:-/ absolute / metric / decimal}
FMAT,2
METRIC,TZ
T1C0.400
T2C0.600
T3C0.800
T4C1.000
T5C3.500
%
G90
G05
M71
T1
X165.354Y-109.093
X184.15Y-108.585
X184.15Y-110.617
X188.849Y-102.87
X190.119Y-103.632
X192.786Y-99.822
T2
X78.486Y-95.123
X81.661Y-85.852
X87.63Y-80.645
X88.9Y-80.645
X90.17Y-80.645
X93.853Y-84.582
X94.742Y-105.537
X94.869Y-100.33
X98.171Y-107.442
X98.171Y-112.522
X98.298Y-91.567
X104.013Y-88.011
X106.934Y-103.886
X116.332Y-99.822
X116.586Y-87.63
X118.11Y-101.6
X118.11Y-106.045
X120.777Y-85.471
X120.777Y-89.789
X129.159Y-99.695
X131.699Y-87.63
X145.415Y-69.723
X145.415Y-85.725
X145.415Y-97.536
X148.971Y-83.185
X148.971Y-95.123
X158.75Y-83.185
X158.75Y-95.123
X164.592Y-86.36
X164.592Y-87.63
X164.592Y-88.9
X164.592Y-98.425
X164.592Y-99.695
X164.592Y-100.965
X172.212Y-98.933
X172.212Y-105.283
X172.212Y-111.125
X179.578Y-101.092
X179.578Y-113.792
X185.039Y-94.488
X185.039Y-95.758
X185.039Y-97.028
X189.484Y-91.059
X194.437Y-94.488
X194.437Y-95.758
X194.437Y-97.028
X198.12Y-101.854
X198.564Y-114.554
X199.136Y-91.059
X201.422Y-110.744
X204.851Y-101.854
X204.851Y-113.221
X210.566Y-85.725
X210.566Y-90.17
X219.583Y-102.616
X219.583Y-113.919
T3
X73.787Y-91.059
X73.787Y-93.599
X73.787Y-96.139
X73.787Y-102.87
X73.787Y-105.41
X73.787Y-107.95
X81.153Y-99.441
X81.153Y-107.061
X84.709Y-103.124
X92.329Y-103.124
X180.721Y-84.899
X180.721Y-92.519
T4
X142.875Y-78.74
X145.415Y-78.74
X147.955Y-78.74
X186.563Y-78.867
X189.103Y-78.867
X211.963Y-78.74
X214.503Y-78.74
T5
X63.5Y-71.12
X63.5Y-125.73
X226.06Y-71.12
X226.06Y-125.73
T0
M30
