G04 ================== begin FILE IDENTIFICATION RECORD ==================*
G04 Layout Name:  20_034674a.brd*
G04 Film Name:    assy1*
G04 File Format:  Gerber RS274X*
G04 File Origin:  Cadence Allegro 16.5-S031*
G04 Origin Date:  Tue Oct 30 13:02:00 2012*
G04 *
G04 Layer:  REF DES/ASSEMBLY_TOP*
G04 Layer:  PACKAGE GEOMETRY/ASSEMBLY_TOP*
G04 Layer:  DRAWING FORMAT/DSIZE1_2*
G04 Layer:  BOARD GEOMETRY/OUTLINE*
G04 Layer:  BOARD GEOMETRY/ASSEMBLY_NOTES*
G04 Layer:  BOARD GEOMETRY/ASSEMBLY_DETAIL*
G04 *
G04 Offset:    (0.00 0.00)*
G04 Mirror:    No*
G04 Mode:      Positive*
G04 Rotation:  0*
G04 FullContactRelief:  No*
G04 UndefLineWidth:     8.00*
G04 ================== end FILE IDENTIFICATION RECORD ====================*
%FSLAX55Y55*MOIN*%
%IR0*IPPOS*OFA0.00000B0.00000*MIA0B0*SFA1.00000B1.00000*%
%ADD10C,.008*%
%ADD11C,.006*%
G75*
%LPD*%
G75*
G36*
G01X-52600Y67000D02*
Y53000D01*
X-50100Y55500D01*
Y64500D01*
X-52600Y67000D01*
G37*
G36*
G01X-2500Y60500D02*
G02I-1500J0D01*
G37*
G36*
G01X-19500Y69500D02*
G02I-1500J0D01*
G37*
G36*
G01X-2040Y79820D02*
G03I-1503J-1D01*
G37*
G36*
G01X22600Y57500D02*
Y71500D01*
X20100Y69000D01*
Y60000D01*
X22600Y57500D01*
G37*
G36*
G01X82600Y45500D02*
Y59500D01*
X80100Y57000D01*
Y48000D01*
X82600Y45500D01*
G37*
G36*
G01X102400Y82000D02*
Y68000D01*
X104900Y70500D01*
Y79500D01*
X102400Y82000D01*
G37*
G54D10*
G01X-604225Y-473750D02*
X-600350Y-461250D01*
X-596475Y-473750D01*
G01X-597870Y-469375D02*
X-602830D01*
G01X-590000Y-330000D02*
X-605000D01*
G01X-599110Y-192083D02*
X-598490Y-191458D01*
X-598025Y-190417D01*
X-597715Y-188958D01*
X-598025Y-187708D01*
X-598645Y-186875D01*
X-599730Y-186250D01*
X-603915D01*
Y-198750D01*
X-598800D01*
X-597715Y-197917D01*
X-597095Y-196667D01*
X-596785Y-195208D01*
X-597095Y-193750D01*
X-598025Y-192500D01*
X-599110Y-192083D01*
X-603915D01*
G01X-608500Y-55300D02*
Y-54800D01*
X-598500D01*
Y-51800D01*
X-592000Y-55000D01*
X-598500Y-58300D01*
Y-55300D01*
X-608500D01*
G01X-609000Y-55800D02*
Y-54300D01*
X-599000D01*
Y-51000D01*
X-591300Y-55000D01*
X-599000Y-59000D01*
Y-55800D01*
X-609000D01*
G01X-609500Y-56300D02*
Y-53800D01*
X-599500D01*
Y-50300D01*
X-590800Y-55000D01*
X-599500Y-59800D01*
Y-56300D01*
X-609500D01*
G01X-610000Y-56800D02*
Y-53300D01*
X-600000D01*
Y-49500D01*
X-590000Y-55000D01*
X-600000Y-60500D01*
Y-56800D01*
X-610000D01*
G01X-596940Y87708D02*
X-597870Y88333D01*
X-598955Y88750D01*
X-600195D01*
X-601590Y88125D01*
X-602675Y87083D01*
X-603450Y85833D01*
X-604070Y83750D01*
X-604225Y81875D01*
X-603915Y80000D01*
X-603450Y78750D01*
X-602520Y77500D01*
X-601435Y76667D01*
X-600350Y76250D01*
X-599265D01*
X-598180Y76667D01*
X-597250Y77291D01*
X-596475Y78125D01*
G01X-590000Y220000D02*
X-605000D01*
G01X-603760Y351250D02*
Y363750D01*
X-600660D01*
X-599420Y363125D01*
X-598490Y362292D01*
X-597715Y361042D01*
X-597095Y359583D01*
X-596940Y357500D01*
X-597095Y355417D01*
X-597715Y353958D01*
X-598490Y352708D01*
X-599420Y351875D01*
X-600660Y351250D01*
X-603760D01*
G01X-590000Y-580000D02*
X1060000D01*
Y470000D01*
X-590000D01*
Y-580000D01*
G01X-596300Y-55000D02*
X-595800D01*
G01X-596500Y-55500D02*
Y-54500D01*
X-595000Y-55000D01*
X-596500Y-55500D01*
G01X-597000Y-56000D02*
Y-54000D01*
X-594300Y-55000D01*
X-597000Y-56000D01*
G01X-597500Y-56800D02*
Y-53300D01*
X-593500Y-55000D01*
X-597500Y-56800D01*
G01X-598000Y-57500D02*
Y-52500D01*
X-592800Y-55000D01*
X-598000Y-57500D01*
G01X-509100Y-597500D02*
X-508015Y-597292D01*
X-506775Y-596667D01*
X-506000Y-595625D01*
X-505690Y-594167D01*
X-506000Y-592709D01*
X-506930Y-591458D01*
X-508325Y-590833D01*
X-509875D01*
X-510805Y-590417D01*
X-511580Y-589375D01*
X-511890Y-587917D01*
X-511425Y-586458D01*
X-510340Y-585417D01*
X-509100Y-585000D01*
X-507860Y-585417D01*
X-506775Y-586458D01*
X-506310Y-587917D01*
X-506620Y-589375D01*
X-507395Y-590417D01*
X-508325Y-590833D01*
X-509875D01*
X-511270Y-591458D01*
X-512200Y-592709D01*
X-512510Y-594167D01*
X-512200Y-595625D01*
X-511425Y-596667D01*
X-510185Y-597292D01*
X-509100Y-597500D01*
G01Y475000D02*
X-508015Y475208D01*
X-506775Y475833D01*
X-506000Y476875D01*
X-505690Y478333D01*
X-506000Y479791D01*
X-506930Y481042D01*
X-508325Y481667D01*
X-509875D01*
X-510805Y482083D01*
X-511580Y483125D01*
X-511890Y484583D01*
X-511425Y486042D01*
X-510340Y487083D01*
X-509100Y487500D01*
X-507860Y487083D01*
X-506775Y486042D01*
X-506310Y484583D01*
X-506620Y483125D01*
X-507395Y482083D01*
X-508325Y481667D01*
X-509875D01*
X-511270Y481042D01*
X-512200Y479791D01*
X-512510Y478333D01*
X-512200Y476875D01*
X-511425Y475833D01*
X-510185Y475208D01*
X-509100Y475000D01*
G01X-402500Y-580000D02*
Y-595000D01*
G01Y470000D02*
Y485000D01*
G01X-296910Y-597500D02*
X-296600Y-594792D01*
X-296135Y-592500D01*
X-295515Y-590417D01*
X-294740Y-588125D01*
X-293500Y-585000D01*
X-299700D01*
G01X-296910Y475000D02*
X-296600Y477708D01*
X-296135Y480000D01*
X-295515Y482083D01*
X-294740Y484375D01*
X-293500Y487500D01*
X-299700D01*
G01X-260000Y0D02*
Y-2500D01*
X-262500Y2500D01*
Y17500D01*
X-260000Y22500D01*
X-245000D01*
X-242500Y20000D01*
X-231500D01*
G01X-242500Y2500D02*
Y0D01*
X-245000Y-2500D01*
X-260000D01*
Y0D01*
G01X-250000Y-2500D02*
Y22500D01*
G01X-255000Y-2500D02*
Y20000D01*
Y22500D01*
G01X-260000Y-2500D02*
Y0D01*
Y22500D01*
G01X-245000Y-2500D02*
Y20500D01*
Y22500D01*
Y20000D01*
G01X-242500Y2500D02*
Y17500D01*
Y20000D01*
G01X-231500Y0D02*
X-242500D01*
Y2500D01*
G01X-255000Y22500D02*
Y20000D01*
G01X-260000Y22500D02*
Y20000D01*
G01X-225000Y-90000D02*
X225000D01*
Y90000D01*
X-225000D01*
Y-90000D01*
G01Y29000D02*
X-231500D01*
Y-9000D01*
X-225000D01*
Y29000D01*
G01X-218310Y17500D02*
X-216790D01*
G01X-217550D02*
Y12500D01*
G01X-218310D02*
X-216790D01*
G01X-213907D02*
Y17500D01*
X-210993Y12500D01*
Y17500D01*
G01X-190000Y-580000D02*
Y-595000D01*
G01X-198317Y-3000D02*
Y2000D01*
X-196733D01*
X-196227Y1750D01*
X-195910Y1417D01*
X-195783Y750D01*
X-195910Y83D01*
X-196290Y-333D01*
X-196733Y-583D01*
X-198317D01*
G01X-196733D02*
X-195783Y-3000D01*
G01X-193153Y-917D02*
X-192710Y-333D01*
X-192330Y0D01*
X-191823Y167D01*
X-191380Y0D01*
X-191063Y-333D01*
X-190810Y-833D01*
X-190747Y-1417D01*
X-190810Y-1917D01*
X-191063Y-2417D01*
X-191443Y-2833D01*
X-191887Y-3000D01*
X-192393Y-2833D01*
X-192837Y-2333D01*
X-193090Y-1583D01*
X-193153Y-750D01*
X-193027Y333D01*
X-192837Y917D01*
X-192520Y1500D01*
X-192077Y1917D01*
X-191633Y2000D01*
X-191190Y1833D01*
X-190873Y1417D01*
G01X-192500Y10000D02*
X-195500D01*
Y4000D01*
X-192500D01*
Y10000D01*
G01X-184817Y10500D02*
Y15500D01*
X-183233D01*
X-182727Y15250D01*
X-182410Y14917D01*
X-182283Y14250D01*
X-182410Y13583D01*
X-182790Y13167D01*
X-183233Y12917D01*
X-184817D01*
G01X-183233D02*
X-182283Y10500D01*
G01X-178577D02*
X-178450Y11583D01*
X-178260Y12500D01*
X-178007Y13333D01*
X-177690Y14250D01*
X-177183Y15500D01*
X-179717D01*
G01X-183180Y3440D02*
X-181060Y1320D01*
X-176820Y5560D01*
X-178940Y7680D01*
X-183180Y3440D01*
G01X-208540Y69300D02*
X-206660D01*
G01X-207600D02*
Y63000D01*
G01X-208540D02*
X-206660D01*
G01X-203102D02*
Y69300D01*
X-199498Y63000D01*
Y69300D01*
G01X-197350Y60900D02*
X-192650D01*
G01X-188700Y69300D02*
Y63000D01*
G01X-190502Y69300D02*
X-186898D01*
G01X-183967Y63000D02*
Y69300D01*
X-182087D01*
X-181460Y68985D01*
X-180990Y68250D01*
X-180833Y67410D01*
X-180990Y66570D01*
X-181382Y65940D01*
X-182087Y65625D01*
X-183967D01*
G01X-186930Y50000D02*
G03I-7070J0D01*
G01X-190000Y470000D02*
Y485000D01*
G01X-172217Y-18740D02*
X-171825Y-19370D01*
X-171355Y-19790D01*
X-170807Y-20000D01*
X-170180Y-19790D01*
X-169710Y-19370D01*
X-169240Y-18740D01*
X-169083Y-17900D01*
Y-13700D01*
G01X-164350Y-20000D02*
Y-13700D01*
X-165290Y-14960D01*
G01Y-20000D02*
X-163410D01*
G01X-172500Y-5000D02*
X-175000Y-7500D01*
Y-35000D01*
X-155000D01*
Y-7500D01*
X-157500Y-5000D01*
X-172500D01*
G01X-97500Y-480000D02*
Y-470000D01*
X-94500D01*
X-93500Y-470500D01*
X-92750Y-471667D01*
X-92500Y-473000D01*
X-92750Y-474333D01*
X-93375Y-475333D01*
X-94500Y-475834D01*
X-97500D01*
G01X-87500Y-480000D02*
Y-470000D01*
X-84375D01*
X-83375Y-470500D01*
X-82750Y-471167D01*
X-82500Y-472500D01*
X-82750Y-473833D01*
X-83500Y-474667D01*
X-84375Y-475167D01*
X-87500D01*
G01X-84375D02*
X-82500Y-480000D01*
G01X-76500Y-470000D02*
X-73500D01*
G01X-75000D02*
Y-480000D01*
G01X-76500D02*
X-73500D01*
G01X-68250D02*
Y-470000D01*
X-65000Y-478333D01*
X-61750Y-470000D01*
Y-480000D01*
G01X-58125D02*
X-55000Y-470000D01*
X-51875Y-480000D01*
G01X-53000Y-476500D02*
X-57000D01*
G01X-47500Y-480000D02*
Y-470000D01*
X-44375D01*
X-43375Y-470500D01*
X-42750Y-471167D01*
X-42500Y-472500D01*
X-42750Y-473833D01*
X-43500Y-474667D01*
X-44375Y-475167D01*
X-47500D01*
G01X-44375D02*
X-42500Y-480000D01*
G01X-35000D02*
Y-475500D01*
X-37500Y-470000D01*
G01X-32500D02*
X-35000Y-475500D01*
G01X-17625Y-478667D02*
X-16625Y-479500D01*
X-15500Y-480000D01*
X-14500D01*
X-13500Y-479500D01*
X-12750Y-478667D01*
X-12375Y-477500D01*
X-12625Y-476334D01*
X-13250Y-475333D01*
X-14375Y-474667D01*
X-15875Y-474333D01*
X-16750Y-473667D01*
X-17125Y-472500D01*
X-16875Y-471333D01*
X-16250Y-470500D01*
X-15375Y-470000D01*
X-14500D01*
X-13625Y-470333D01*
X-12875Y-471167D01*
G01X-6500Y-470000D02*
X-3500D01*
G01X-5000D02*
Y-480000D01*
G01X-6500D02*
X-3500D01*
G01X2250D02*
Y-470000D01*
X4750D01*
X5750Y-470500D01*
X6500Y-471167D01*
X7125Y-472167D01*
X7625Y-473334D01*
X7750Y-475000D01*
X7625Y-476667D01*
X7125Y-477833D01*
X6500Y-478834D01*
X5750Y-479500D01*
X4750Y-480000D01*
X2250D01*
G01X17500D02*
X12500D01*
Y-470000D01*
X17500D01*
G01X15500Y-474833D02*
X12500D01*
G01X-116330Y72150D02*
X-114763D01*
Y70260D01*
X-115233Y69630D01*
X-115782Y69210D01*
X-116565Y69000D01*
X-117348Y69210D01*
X-117897Y69630D01*
X-118367Y70260D01*
X-118680Y70995D01*
X-118837Y71835D01*
Y72570D01*
X-118680Y73200D01*
X-118367Y73935D01*
X-117897Y74565D01*
X-117427Y74985D01*
X-116800Y75300D01*
X-116252D01*
X-115625Y75090D01*
X-115155Y74670D01*
G01X-112302Y69000D02*
Y75300D01*
X-108698Y69000D01*
Y75300D01*
G01X-105923Y69000D02*
Y75300D01*
X-104357D01*
X-103730Y74985D01*
X-103260Y74565D01*
X-102868Y73935D01*
X-102555Y73200D01*
X-102477Y72150D01*
X-102555Y71100D01*
X-102868Y70365D01*
X-103260Y69735D01*
X-103730Y69315D01*
X-104357Y69000D01*
X-105923D01*
G01X-82930Y72500D02*
G03I-7070J0D01*
G01X-87045Y-592292D02*
X-85960Y-590833D01*
X-85030Y-590000D01*
X-83790Y-589583D01*
X-82705Y-590000D01*
X-81930Y-590833D01*
X-81310Y-592083D01*
X-81155Y-593542D01*
X-81310Y-594792D01*
X-81930Y-596042D01*
X-82860Y-597083D01*
X-83945Y-597500D01*
X-85185Y-597083D01*
X-86270Y-595834D01*
X-86890Y-593958D01*
X-87045Y-591875D01*
X-86735Y-589167D01*
X-86270Y-587708D01*
X-85495Y-586250D01*
X-84410Y-585208D01*
X-83325Y-585000D01*
X-82240Y-585417D01*
X-81465Y-586458D01*
G01X-62217Y-18740D02*
X-61825Y-19370D01*
X-61355Y-19790D01*
X-60807Y-20000D01*
X-60180Y-19790D01*
X-59710Y-19370D01*
X-59240Y-18740D01*
X-59083Y-17900D01*
Y-13700D01*
G01X-55838Y-14750D02*
X-55368Y-14120D01*
X-54820Y-13805D01*
X-54193Y-13700D01*
X-53410Y-13910D01*
X-52862Y-14435D01*
X-52705Y-15065D01*
X-52783Y-15695D01*
X-53097Y-16220D01*
X-54663Y-17270D01*
X-55368Y-18005D01*
X-55838Y-19055D01*
X-55995Y-20000D01*
X-52705D01*
G01X-62500Y-5000D02*
X-65000Y-7500D01*
Y-35000D01*
X-45000D01*
Y-7500D01*
X-47500Y-5000D01*
X-62500D01*
G01X-62817Y69000D02*
Y74000D01*
X-61233D01*
X-60727Y73750D01*
X-60410Y73417D01*
X-60283Y72750D01*
X-60410Y72083D01*
X-60790Y71667D01*
X-61233Y71417D01*
X-62817D01*
G01X-61233D02*
X-60283Y69000D01*
G01X-55690D02*
Y74000D01*
X-58033Y70417D01*
X-54867D01*
G01X-65657Y61083D02*
X-66037Y61333D01*
X-66480Y61500D01*
X-66987D01*
X-67557Y61250D01*
X-68000Y60833D01*
X-68317Y60333D01*
X-68570Y59500D01*
X-68633Y58750D01*
X-68507Y58000D01*
X-68317Y57500D01*
X-67937Y57000D01*
X-67493Y56667D01*
X-67050Y56500D01*
X-66607D01*
X-66163Y56667D01*
X-65783Y56917D01*
X-65467Y57250D01*
G01X-61950Y56500D02*
Y61500D01*
X-62710Y60500D01*
G01Y56500D02*
X-61190D01*
G01X-74900Y67000D02*
Y53000D01*
X-52600D01*
X-50100Y55500D01*
Y64500D01*
X-52600Y67000D01*
X-74900D01*
G01X-68657Y85083D02*
X-69037Y85333D01*
X-69480Y85500D01*
X-69987D01*
X-70557Y85250D01*
X-71000Y84833D01*
X-71317Y84333D01*
X-71570Y83500D01*
X-71633Y82750D01*
X-71507Y82000D01*
X-71317Y81500D01*
X-70937Y81000D01*
X-70493Y80667D01*
X-70050Y80500D01*
X-69607D01*
X-69163Y80667D01*
X-68783Y80917D01*
X-68467Y81250D01*
G01X-66343D02*
X-65963Y80833D01*
X-65520Y80583D01*
X-64950Y80500D01*
X-64380Y80667D01*
X-63937Y81000D01*
X-63620Y81583D01*
X-63557Y82250D01*
X-63683Y82917D01*
X-64000Y83333D01*
X-64443Y83667D01*
X-64887Y83750D01*
X-65330Y83667D01*
X-65900Y83333D01*
X-65710Y85500D01*
X-64000D01*
G01X-87045Y480208D02*
X-85960Y481667D01*
X-85030Y482500D01*
X-83790Y482917D01*
X-82705Y482500D01*
X-81930Y481667D01*
X-81310Y480417D01*
X-81155Y478958D01*
X-81310Y477708D01*
X-81930Y476458D01*
X-82860Y475417D01*
X-83945Y475000D01*
X-85185Y475417D01*
X-86270Y476666D01*
X-86890Y478542D01*
X-87045Y480625D01*
X-86735Y483333D01*
X-86270Y484792D01*
X-85495Y486250D01*
X-84410Y487292D01*
X-83325Y487500D01*
X-82240Y487083D01*
X-81465Y486042D01*
G01X-42083Y36343D02*
X-42333Y35963D01*
X-42500Y35520D01*
Y35013D01*
X-42250Y34443D01*
X-41833Y34000D01*
X-41333Y33683D01*
X-40500Y33430D01*
X-39750Y33367D01*
X-39000Y33493D01*
X-38500Y33683D01*
X-38000Y34063D01*
X-37667Y34507D01*
X-37500Y34950D01*
Y35393D01*
X-37667Y35837D01*
X-37917Y36217D01*
X-38250Y36533D01*
G01X-37500Y40810D02*
X-42500D01*
X-38917Y38467D01*
Y41633D01*
G01X-27000Y33683D02*
X-32000D01*
Y35267D01*
X-31750Y35773D01*
X-31417Y36090D01*
X-30750Y36217D01*
X-30083Y36090D01*
X-29667Y35710D01*
X-29417Y35267D01*
Y33683D01*
G01Y35267D02*
X-27000Y36217D01*
G01X-31167Y38847D02*
X-31667Y39227D01*
X-31917Y39670D01*
X-32000Y40177D01*
X-31833Y40810D01*
X-31417Y41253D01*
X-30917Y41380D01*
X-30417Y41317D01*
X-30000Y41063D01*
X-29167Y39797D01*
X-28583Y39227D01*
X-27750Y38847D01*
X-27000Y38720D01*
Y41380D01*
G01X-17000Y67500D02*
X-23000D01*
X-25000Y69500D01*
X-27000Y67500D01*
X-33000D01*
Y87500D01*
X-17000D01*
Y67500D01*
G01X-35157Y63083D02*
X-35537Y63333D01*
X-35980Y63500D01*
X-36487D01*
X-37057Y63250D01*
X-37500Y62833D01*
X-37817Y62333D01*
X-38070Y61500D01*
X-38133Y60750D01*
X-38007Y60000D01*
X-37817Y59500D01*
X-37437Y59000D01*
X-36993Y58667D01*
X-36550Y58500D01*
X-36107D01*
X-35663Y58667D01*
X-35283Y58917D01*
X-34967Y59250D01*
G01X-32653Y60583D02*
X-32210Y61167D01*
X-31830Y61500D01*
X-31323Y61667D01*
X-30880Y61500D01*
X-30563Y61167D01*
X-30310Y60667D01*
X-30247Y60083D01*
X-30310Y59583D01*
X-30563Y59083D01*
X-30943Y58667D01*
X-31387Y58500D01*
X-31893Y58667D01*
X-32337Y59167D01*
X-32590Y59917D01*
X-32653Y60750D01*
X-32527Y61833D01*
X-32337Y62417D01*
X-32020Y63000D01*
X-31577Y63417D01*
X-31133Y63500D01*
X-30690Y63333D01*
X-30373Y62917D01*
G01X-38500Y50500D02*
X-41500D01*
Y44500D01*
X-38500D01*
Y50500D01*
G01X-28500D02*
X-31500D01*
Y44500D01*
X-28500D01*
Y50500D01*
G01X-52600Y67000D02*
Y53000D01*
G01X-46000Y79000D02*
Y86000D01*
X-59000D01*
Y79000D01*
X-46000D01*
G01X-47000Y71000D02*
Y74000D01*
X-53000D01*
Y71000D01*
X-47000D01*
G01X-16500Y33683D02*
X-21500D01*
Y35267D01*
X-21250Y35773D01*
X-20917Y36090D01*
X-20250Y36217D01*
X-19583Y36090D01*
X-19167Y35710D01*
X-18917Y35267D01*
Y33683D01*
G01Y35267D02*
X-16500Y36217D01*
G01Y40050D02*
X-21500D01*
X-20500Y39290D01*
G01X-16500D02*
Y40810D01*
G01X-4373Y54800D02*
Y50285D01*
X-4060Y49340D01*
X-3433Y48710D01*
X-2650Y48500D01*
X-1867Y48710D01*
X-1240Y49340D01*
X-927Y50285D01*
Y54800D01*
G01X3650Y48500D02*
Y54800D01*
X2710Y53540D01*
G01Y48500D02*
X4590D01*
G01X-8000Y62500D02*
X-2000D01*
X0Y60500D01*
X2000Y62500D01*
X8000D01*
Y42500D01*
X-8000D01*
Y62500D01*
G01X-22000Y58500D02*
Y61500D01*
X-28000D01*
Y58500D01*
X-22000D01*
G01X-19000Y50500D02*
X-22000D01*
Y44500D01*
X-19000D01*
Y50500D01*
G01X-11317Y65000D02*
Y70000D01*
X-9733D01*
X-9227Y69750D01*
X-8910Y69417D01*
X-8783Y68750D01*
X-8910Y68083D01*
X-9290Y67667D01*
X-9733Y67417D01*
X-11317D01*
G01X-9733D02*
X-8783Y65000D01*
G01X-6343Y66000D02*
X-5963Y65417D01*
X-5457Y65083D01*
X-4887Y65000D01*
X-4380Y65083D01*
X-3873Y65500D01*
X-3557Y66000D01*
X-3493Y66500D01*
X-3620Y67083D01*
X-4063Y67500D01*
X-4507Y67667D01*
X-5077D01*
G01X-4507D02*
X-4127Y67917D01*
X-3810Y68333D01*
X-3683Y68833D01*
X-3810Y69333D01*
X-4127Y69750D01*
X-4697Y70000D01*
X-5267Y69917D01*
X-5837Y69583D01*
G01X-3000Y69500D02*
Y66500D01*
X3000D01*
Y69500D01*
X-3000D01*
G01X-5373Y76800D02*
Y72285D01*
X-5060Y71340D01*
X-4433Y70710D01*
X-3650Y70500D01*
X-2867Y70710D01*
X-2240Y71340D01*
X-1927Y72285D01*
Y76800D01*
G01X927Y71760D02*
X1397Y71025D01*
X2023Y70605D01*
X2728Y70500D01*
X3355Y70605D01*
X3982Y71130D01*
X4373Y71760D01*
X4452Y72390D01*
X4295Y73125D01*
X3747Y73650D01*
X3198Y73860D01*
X2493D01*
G01X3198D02*
X3668Y74175D01*
X4060Y74700D01*
X4217Y75330D01*
X4060Y75960D01*
X3668Y76485D01*
X2963Y76800D01*
X2258Y76695D01*
X1553Y76275D01*
G01X-27373Y83800D02*
Y79285D01*
X-27060Y78340D01*
X-26433Y77710D01*
X-25650Y77500D01*
X-24867Y77710D01*
X-24240Y78340D01*
X-23927Y79285D01*
Y83800D01*
G01X-20838Y82750D02*
X-20368Y83380D01*
X-19820Y83695D01*
X-19193Y83800D01*
X-18410Y83590D01*
X-17862Y83065D01*
X-17705Y82435D01*
X-17783Y81805D01*
X-18097Y81280D01*
X-19663Y80230D01*
X-20368Y79495D01*
X-20838Y78445D01*
X-20995Y77500D01*
X-17705D01*
G01X-5710Y84150D02*
X5710D01*
Y77850D01*
X-5710D01*
Y84150D01*
G01X22500Y-580000D02*
Y-595000D01*
G01X21500Y28633D02*
X22000Y28950D01*
X22333Y29330D01*
X22500Y29773D01*
X22333Y30280D01*
X22000Y30660D01*
X21500Y31040D01*
X20833Y31167D01*
X17500D01*
G01X22500Y33733D02*
X17500D01*
Y35253D01*
X17750Y35760D01*
X18333Y36140D01*
X19000Y36267D01*
X19667Y36140D01*
X20167Y35823D01*
X20417Y35253D01*
Y33733D01*
G01X22500Y40100D02*
X17500D01*
X18500Y39340D01*
G01X22500D02*
Y40860D01*
G01X29500Y53500D02*
Y50500D01*
X35500D01*
Y53500D01*
X29500D01*
G01X10417Y69343D02*
X10167Y68963D01*
X10000Y68520D01*
Y68013D01*
X10250Y67443D01*
X10667Y67000D01*
X11167Y66683D01*
X12000Y66430D01*
X12750Y66367D01*
X13500Y66493D01*
X14000Y66683D01*
X14500Y67063D01*
X14833Y67507D01*
X15000Y67950D01*
Y68393D01*
X14833Y68837D01*
X14583Y69217D01*
X14250Y69533D01*
G01X15000Y72923D02*
X13917Y73050D01*
X13000Y73240D01*
X12167Y73493D01*
X11250Y73810D01*
X10000Y74317D01*
Y71783D01*
G01X29500Y45500D02*
Y42500D01*
X35500D01*
Y45500D01*
X29500D01*
G01X21500Y50500D02*
X18500D01*
Y44500D01*
X21500D01*
Y50500D01*
G01X31343Y66583D02*
X30963Y66833D01*
X30520Y67000D01*
X30013D01*
X29443Y66750D01*
X29000Y66333D01*
X28683Y65833D01*
X28430Y65000D01*
X28367Y64250D01*
X28493Y63500D01*
X28683Y63000D01*
X29063Y62500D01*
X29507Y62167D01*
X29950Y62000D01*
X30393D01*
X30837Y62167D01*
X31217Y62417D01*
X31533Y62750D01*
G01X33847Y66167D02*
X34227Y66667D01*
X34670Y66917D01*
X35177Y67000D01*
X35810Y66833D01*
X36253Y66417D01*
X36380Y65917D01*
X36317Y65417D01*
X36063Y65000D01*
X34797Y64167D01*
X34227Y63583D01*
X33847Y62750D01*
X33720Y62000D01*
X36380D01*
G01X22600Y57500D02*
Y71500D01*
G01X44900Y57500D02*
Y71500D01*
X22600D01*
X20100Y69000D01*
Y60000D01*
X22600Y57500D01*
X44900D01*
G01X20343Y87583D02*
X19963Y87833D01*
X19520Y88000D01*
X19013D01*
X18443Y87750D01*
X18000Y87333D01*
X17683Y86833D01*
X17430Y86000D01*
X17367Y85250D01*
X17493Y84500D01*
X17683Y84000D01*
X18063Y83500D01*
X18507Y83167D01*
X18950Y83000D01*
X19393D01*
X19837Y83167D01*
X20217Y83417D01*
X20533Y83750D01*
G01X22973Y83583D02*
X23417Y83167D01*
X23923Y83000D01*
X24430Y83167D01*
X24873Y83667D01*
X25190Y84417D01*
X25317Y85167D01*
Y86083D01*
X25190Y86833D01*
X24873Y87500D01*
X24493Y87833D01*
X24050Y88000D01*
X23543Y87833D01*
X23163Y87500D01*
X22910Y87000D01*
X22783Y86333D01*
X22910Y85750D01*
X23227Y85167D01*
X23607Y84833D01*
X24050Y84750D01*
X24557Y84917D01*
X24937Y85333D01*
X25317Y86083D01*
G01X21000Y77000D02*
X24000D01*
Y83000D01*
X21000D01*
Y77000D01*
G01X11000D02*
X14000D01*
Y83000D01*
X11000D01*
Y77000D01*
G01X26192Y83000D02*
X28150Y89300D01*
X30108Y83000D01*
G01X29403Y85205D02*
X26897D01*
G01X32727Y83000D02*
Y89300D01*
X34293D01*
X34920Y88985D01*
X35390Y88565D01*
X35782Y87935D01*
X36095Y87200D01*
X36173Y86150D01*
X36095Y85100D01*
X35782Y84365D01*
X35390Y83735D01*
X34920Y83315D01*
X34293Y83000D01*
X32727D01*
G01X40750D02*
X41298Y83105D01*
X41925Y83420D01*
X42317Y83945D01*
X42473Y84680D01*
X42317Y85415D01*
X41847Y86045D01*
X41142Y86360D01*
X40358D01*
X39888Y86570D01*
X39497Y87095D01*
X39340Y87830D01*
X39575Y88565D01*
X40123Y89090D01*
X40750Y89300D01*
X41377Y89090D01*
X41925Y88565D01*
X42160Y87830D01*
X42003Y87095D01*
X41612Y86570D01*
X41142Y86360D01*
X40358D01*
X39653Y86045D01*
X39183Y85415D01*
X39027Y84680D01*
X39183Y83945D01*
X39575Y83420D01*
X40202Y83105D01*
X40750Y83000D01*
G01X47050Y89300D02*
X46423Y89090D01*
X45953Y88565D01*
X45640Y87935D01*
X45405Y87095D01*
X45327Y86150D01*
X45405Y85205D01*
X45640Y84365D01*
X45953Y83735D01*
X46423Y83210D01*
X47050Y83000D01*
X47677Y83210D01*
X48147Y83735D01*
X48460Y84365D01*
X48695Y85205D01*
X48773Y86150D01*
X48695Y87095D01*
X48460Y87935D01*
X48147Y88565D01*
X47677Y89090D01*
X47050Y89300D01*
G01X51627Y84260D02*
X52097Y83525D01*
X52723Y83105D01*
X53428Y83000D01*
X54055Y83105D01*
X54682Y83630D01*
X55073Y84260D01*
X55152Y84890D01*
X54995Y85625D01*
X54447Y86150D01*
X53898Y86360D01*
X53193D01*
G01X53898D02*
X54368Y86675D01*
X54760Y87200D01*
X54917Y87830D01*
X54760Y88460D01*
X54368Y88985D01*
X53663Y89300D01*
X52958Y89195D01*
X52253Y88775D01*
G01X59650Y83000D02*
Y89300D01*
X58710Y88040D01*
G01Y83000D02*
X60590D01*
G01X63600Y80900D02*
X68300D01*
G01X72250Y83000D02*
X71623Y83105D01*
X71075Y83525D01*
X70605Y84155D01*
X70292Y84890D01*
X70135Y85730D01*
Y86570D01*
X70292Y87410D01*
X70605Y88145D01*
X71075Y88775D01*
X71623Y89195D01*
X72250Y89300D01*
X72877Y89195D01*
X73425Y88775D01*
X73895Y88145D01*
X74208Y87410D01*
X74365Y86570D01*
Y85730D01*
X74208Y84890D01*
X73895Y84155D01*
X73425Y83525D01*
X72877Y83105D01*
X72250Y83000D01*
G01X76827Y89300D02*
Y84785D01*
X77140Y83840D01*
X77767Y83210D01*
X78550Y83000D01*
X79333Y83210D01*
X79960Y83840D01*
X80273Y84785D01*
Y89300D01*
G01X84850D02*
Y83000D01*
G01X83048Y89300D02*
X86652D01*
G01X22500Y470000D02*
Y485000D01*
G01X47783Y-18740D02*
X48175Y-19370D01*
X48645Y-19790D01*
X49193Y-20000D01*
X49820Y-19790D01*
X50290Y-19370D01*
X50760Y-18740D01*
X50917Y-17900D01*
Y-13700D01*
G01X53927Y-18740D02*
X54397Y-19475D01*
X55023Y-19895D01*
X55728Y-20000D01*
X56355Y-19895D01*
X56982Y-19370D01*
X57373Y-18740D01*
X57452Y-18110D01*
X57295Y-17375D01*
X56747Y-16850D01*
X56198Y-16640D01*
X55493D01*
G01X56198D02*
X56668Y-16325D01*
X57060Y-15800D01*
X57217Y-15170D01*
X57060Y-14540D01*
X56668Y-14015D01*
X55963Y-13700D01*
X55258Y-13805D01*
X54553Y-14225D01*
G01X47500Y-5000D02*
X45000Y-7500D01*
Y-35000D01*
X65000D01*
Y-7500D01*
X62500Y-5000D01*
X47500D01*
G01X54633Y35500D02*
Y41800D01*
X56592D01*
X57218Y41485D01*
X57610Y41065D01*
X57767Y40225D01*
X57610Y39385D01*
X57140Y38860D01*
X56592Y38545D01*
X54633D01*
G01X56592D02*
X57767Y35500D01*
G01X64067D02*
X60933D01*
Y41800D01*
X64067D01*
G01X62813Y38755D02*
X60933D01*
G01X67312Y35500D02*
Y41800D01*
X70288D01*
G01X69192Y38755D02*
X67312D01*
G01X43343Y55083D02*
X42963Y55333D01*
X42520Y55500D01*
X42013D01*
X41443Y55250D01*
X41000Y54833D01*
X40683Y54333D01*
X40430Y53500D01*
X40367Y52750D01*
X40493Y52000D01*
X40683Y51500D01*
X41063Y51000D01*
X41507Y50667D01*
X41950Y50500D01*
X42393D01*
X42837Y50667D01*
X43217Y50917D01*
X43533Y51250D01*
G01X45657Y51500D02*
X46037Y50917D01*
X46543Y50583D01*
X47113Y50500D01*
X47620Y50583D01*
X48127Y51000D01*
X48443Y51500D01*
X48507Y52000D01*
X48380Y52583D01*
X47937Y53000D01*
X47493Y53167D01*
X46923D01*
G01X47493D02*
X47873Y53417D01*
X48190Y53833D01*
X48317Y54333D01*
X48190Y54833D01*
X47873Y55250D01*
X47303Y55500D01*
X46733Y55417D01*
X46163Y55083D01*
G01X37133Y43000D02*
X37450Y42500D01*
X37830Y42167D01*
X38273Y42000D01*
X38780Y42167D01*
X39160Y42500D01*
X39540Y43000D01*
X39667Y43667D01*
Y47000D01*
G01X42233Y42000D02*
Y47000D01*
X43753D01*
X44260Y46750D01*
X44640Y46167D01*
X44767Y45500D01*
X44640Y44833D01*
X44323Y44333D01*
X43753Y44083D01*
X42233D01*
G01X47397Y46167D02*
X47777Y46667D01*
X48220Y46917D01*
X48727Y47000D01*
X49360Y46833D01*
X49803Y46417D01*
X49930Y45917D01*
X49867Y45417D01*
X49613Y45000D01*
X48347Y44167D01*
X47777Y43583D01*
X47397Y42750D01*
X47270Y42000D01*
X49930D01*
G01X69570Y52500D02*
G03I-7070J0D01*
G01Y72500D02*
G03I-7070J0D01*
G01X85743Y76083D02*
X85363Y76333D01*
X84920Y76500D01*
X84413D01*
X83843Y76250D01*
X83400Y75833D01*
X83083Y75333D01*
X82830Y74500D01*
X82767Y73750D01*
X82893Y73000D01*
X83083Y72500D01*
X83463Y72000D01*
X83907Y71667D01*
X84350Y71500D01*
X84793D01*
X85237Y71667D01*
X85617Y71917D01*
X85933Y72250D01*
G01X89450Y71500D02*
Y76500D01*
X88690Y75500D01*
G01Y71500D02*
X90210D01*
G01X94550Y76500D02*
X94043Y76333D01*
X93663Y75917D01*
X93410Y75417D01*
X93220Y74750D01*
X93157Y74000D01*
X93220Y73250D01*
X93410Y72583D01*
X93663Y72083D01*
X94043Y71667D01*
X94550Y71500D01*
X95057Y71667D01*
X95437Y72083D01*
X95690Y72583D01*
X95880Y73250D01*
X95943Y74000D01*
X95880Y74750D01*
X95690Y75417D01*
X95437Y75917D01*
X95057Y76333D01*
X94550Y76500D01*
G01X99650Y71500D02*
Y76500D01*
X98890Y75500D01*
G01Y71500D02*
X100410D01*
G01X80100Y82000D02*
Y68000D01*
X102400D01*
X104900Y70500D01*
Y79500D01*
X102400Y82000D01*
X80100D01*
G01X86743Y54083D02*
X86363Y54333D01*
X85920Y54500D01*
X85413D01*
X84843Y54250D01*
X84400Y53833D01*
X84083Y53333D01*
X83830Y52500D01*
X83767Y51750D01*
X83893Y51000D01*
X84083Y50500D01*
X84463Y50000D01*
X84907Y49667D01*
X85350Y49500D01*
X85793D01*
X86237Y49667D01*
X86617Y49917D01*
X86933Y50250D01*
G01X90450Y49500D02*
Y54500D01*
X89690Y53500D01*
G01Y49500D02*
X91210D01*
G01X95550Y54500D02*
X95043Y54333D01*
X94663Y53917D01*
X94410Y53417D01*
X94220Y52750D01*
X94157Y52000D01*
X94220Y51250D01*
X94410Y50583D01*
X94663Y50083D01*
X95043Y49667D01*
X95550Y49500D01*
X96057Y49667D01*
X96437Y50083D01*
X96690Y50583D01*
X96880Y51250D01*
X96943Y52000D01*
X96880Y52750D01*
X96690Y53417D01*
X96437Y53917D01*
X96057Y54333D01*
X95550Y54500D01*
G01X100650D02*
X100143Y54333D01*
X99763Y53917D01*
X99510Y53417D01*
X99320Y52750D01*
X99257Y52000D01*
X99320Y51250D01*
X99510Y50583D01*
X99763Y50083D01*
X100143Y49667D01*
X100650Y49500D01*
X101157Y49667D01*
X101537Y50083D01*
X101790Y50583D01*
X101980Y51250D01*
X102043Y52000D01*
X101980Y52750D01*
X101790Y53417D01*
X101537Y53917D01*
X101157Y54333D01*
X100650Y54500D01*
G01X82600Y45500D02*
Y59500D01*
G01X104900Y45500D02*
Y59500D01*
X82600D01*
X80100Y57000D01*
Y48000D01*
X82600Y45500D01*
X104900D01*
G01X102400Y82000D02*
Y68000D01*
G01X127070Y52500D02*
G03I-7070J0D01*
G01Y75000D02*
G03I-7070J0D01*
G01X124990Y-595625D02*
X125920Y-596667D01*
X127005Y-597292D01*
X128400Y-597500D01*
X129795Y-597083D01*
X130880Y-596250D01*
X131655Y-594792D01*
X131810Y-593125D01*
X131500Y-591458D01*
X130725Y-590417D01*
X129640Y-589583D01*
X128555Y-589375D01*
X127470Y-589583D01*
X126075Y-590417D01*
X126540Y-585000D01*
X130725D01*
G01X144750Y30500D02*
X144123Y30605D01*
X143575Y31025D01*
X143105Y31655D01*
X142792Y32390D01*
X142635Y33230D01*
Y34070D01*
X142792Y34910D01*
X143105Y35645D01*
X143575Y36275D01*
X144123Y36695D01*
X144750Y36800D01*
X145377Y36695D01*
X145925Y36275D01*
X146395Y35645D01*
X146708Y34910D01*
X146865Y34070D01*
Y33230D01*
X146708Y32390D01*
X146395Y31655D01*
X145925Y31025D01*
X145377Y30605D01*
X144750Y30500D01*
G01X149327Y36800D02*
Y32285D01*
X149640Y31340D01*
X150267Y30710D01*
X151050Y30500D01*
X151833Y30710D01*
X152460Y31340D01*
X152773Y32285D01*
Y36800D01*
G01X157350D02*
Y30500D01*
G01X155548Y36800D02*
X159152D01*
G01X161300Y28400D02*
X166000D01*
G01X169950Y36800D02*
Y30500D01*
G01X168148Y36800D02*
X171752D01*
G01X174683Y30500D02*
Y36800D01*
X176563D01*
X177190Y36485D01*
X177660Y35750D01*
X177817Y34910D01*
X177660Y34070D01*
X177268Y33440D01*
X176563Y33125D01*
X174683D01*
G01X128182Y53100D02*
X130218D01*
G01X133542Y57300D02*
X135500Y51000D01*
X137458Y57300D01*
G01X140155Y51840D02*
X140782Y51315D01*
X141487Y51000D01*
X142113D01*
X142740Y51315D01*
X143210Y51840D01*
X143445Y52575D01*
X143288Y53310D01*
X142897Y53940D01*
X142192Y54360D01*
X141252Y54570D01*
X140703Y54990D01*
X140468Y55725D01*
X140625Y56460D01*
X141017Y56985D01*
X141565Y57300D01*
X142113D01*
X142662Y57090D01*
X143132Y56565D01*
G01X128338Y75600D02*
X130218D01*
G01X129200Y76965D02*
Y74235D01*
G01X133542Y79800D02*
X135500Y73500D01*
X137458Y79800D01*
G01X140155Y74340D02*
X140782Y73815D01*
X141487Y73500D01*
X142113D01*
X142740Y73815D01*
X143210Y74340D01*
X143445Y75075D01*
X143288Y75810D01*
X142897Y76440D01*
X142192Y76860D01*
X141252Y77070D01*
X140703Y77490D01*
X140468Y78225D01*
X140625Y78960D01*
X141017Y79485D01*
X141565Y79800D01*
X142113D01*
X142662Y79590D01*
X143132Y79065D01*
G01X124990Y476875D02*
X125920Y475833D01*
X127005Y475208D01*
X128400Y475000D01*
X129795Y475417D01*
X130880Y476250D01*
X131655Y477708D01*
X131810Y479375D01*
X131500Y481042D01*
X130725Y482083D01*
X129640Y482917D01*
X128555Y483125D01*
X127470Y482917D01*
X126075Y482083D01*
X126540Y487500D01*
X130725D01*
G01X157783Y-18740D02*
X158175Y-19370D01*
X158645Y-19790D01*
X159193Y-20000D01*
X159820Y-19790D01*
X160290Y-19370D01*
X160760Y-18740D01*
X160917Y-17900D01*
Y-13700D01*
G01X166590Y-20000D02*
Y-13700D01*
X163692Y-18215D01*
X167608D01*
G01X157500Y-5000D02*
X155000Y-7500D01*
Y-35000D01*
X175000D01*
Y-7500D01*
X172500Y-5000D01*
X157500D01*
G01X163633Y67000D02*
X163950Y66500D01*
X164330Y66167D01*
X164773Y66000D01*
X165280Y66167D01*
X165660Y66500D01*
X166040Y67000D01*
X166167Y67667D01*
Y71000D01*
G01X168733Y66000D02*
Y71000D01*
X170253D01*
X170760Y70750D01*
X171140Y70167D01*
X171267Y69500D01*
X171140Y68833D01*
X170823Y68333D01*
X170253Y68083D01*
X168733D01*
G01X173707Y67000D02*
X174087Y66417D01*
X174593Y66083D01*
X175163Y66000D01*
X175670Y66083D01*
X176177Y66500D01*
X176493Y67000D01*
X176557Y67500D01*
X176430Y68083D01*
X175987Y68500D01*
X175543Y68667D01*
X174973D01*
G01X175543D02*
X175923Y68917D01*
X176240Y69333D01*
X176367Y69833D01*
X176240Y70333D01*
X175923Y70750D01*
X175353Y71000D01*
X174783Y70917D01*
X174213Y70583D01*
G01X167000Y64000D02*
Y61000D01*
X173000D01*
Y64000D01*
X167000D01*
G01X177070Y47500D02*
G03I-7070J0D01*
G01X188680Y6060D02*
X186560Y8180D01*
X182320Y3940D01*
X184440Y1820D01*
X188680Y6060D01*
G01X209900Y7500D02*
X209393Y7583D01*
X208950Y7917D01*
X208570Y8417D01*
X208317Y9000D01*
X208190Y9667D01*
Y10333D01*
X208317Y11000D01*
X208570Y11583D01*
X208950Y12083D01*
X209393Y12417D01*
X209900Y12500D01*
X210407Y12417D01*
X210850Y12083D01*
X211230Y11583D01*
X211483Y11000D01*
X211610Y10333D01*
Y9667D01*
X211483Y9000D01*
X211230Y8417D01*
X210850Y7917D01*
X210407Y7583D01*
X209900Y7500D01*
G01X213607Y12500D02*
Y8917D01*
X213860Y8167D01*
X214367Y7667D01*
X215000Y7500D01*
X215633Y7667D01*
X216140Y8167D01*
X216393Y8917D01*
Y12500D01*
G01X220100D02*
Y7500D01*
G01X218643Y12500D02*
X221557D01*
G01X182683Y12000D02*
Y17000D01*
X184267D01*
X184773Y16750D01*
X185090Y16417D01*
X185217Y15750D01*
X185090Y15083D01*
X184710Y14667D01*
X184267Y14417D01*
X182683D01*
G01X184267D02*
X185217Y12000D01*
G01X187657Y12750D02*
X188037Y12333D01*
X188480Y12083D01*
X189050Y12000D01*
X189620Y12167D01*
X190063Y12500D01*
X190380Y13083D01*
X190443Y13750D01*
X190317Y14417D01*
X190000Y14833D01*
X189557Y15167D01*
X189113Y15250D01*
X188670Y15167D01*
X188100Y14833D01*
X188290Y17000D01*
X190000D01*
G01X182242Y53500D02*
X184200Y59800D01*
X186158Y53500D01*
G01X185453Y55705D02*
X182947D01*
G01X188777Y53500D02*
Y59800D01*
X190343D01*
X190970Y59485D01*
X191440Y59065D01*
X191832Y58435D01*
X192145Y57700D01*
X192223Y56650D01*
X192145Y55600D01*
X191832Y54865D01*
X191440Y54235D01*
X190970Y53815D01*
X190343Y53500D01*
X188777D01*
G01X198523Y59275D02*
X198053Y59590D01*
X197505Y59800D01*
X196878D01*
X196173Y59485D01*
X195625Y58960D01*
X195233Y58330D01*
X194920Y57280D01*
X194842Y56335D01*
X194998Y55390D01*
X195233Y54760D01*
X195703Y54130D01*
X196252Y53710D01*
X196800Y53500D01*
X197348D01*
X197897Y53710D01*
X198367Y54025D01*
X198758Y54445D01*
G01X184800Y72200D02*
X182300Y69700D01*
Y42200D01*
X202300D01*
Y69700D01*
X199800Y72200D01*
X184800D01*
G01X236700Y-600000D02*
X233200D01*
Y-590000D01*
X229500D01*
X235000Y-580000D01*
X240500Y-590000D01*
X236700D01*
Y-600000D01*
G01X236200Y-599500D02*
X233700D01*
Y-589500D01*
X230200D01*
X235000Y-580800D01*
X239700Y-589500D01*
X236200D01*
Y-599500D01*
G01X235700Y-599000D02*
X234200D01*
Y-589000D01*
X231000D01*
X235000Y-581300D01*
X239000Y-589000D01*
X235700D01*
Y-599000D01*
G01X235200Y-598500D02*
X234700D01*
Y-588500D01*
X231700D01*
X235000Y-582000D01*
X238200Y-588500D01*
X235200D01*
Y-598500D01*
G01X237500Y-588000D02*
X232500D01*
X235000Y-582800D01*
X237500Y-588000D01*
G01X236700Y-587500D02*
X233200D01*
X235000Y-583500D01*
X236700Y-587500D01*
G01X236000Y-587000D02*
X234000D01*
X235000Y-584300D01*
X236000Y-587000D01*
G01X235500Y-586500D02*
X234500D01*
X235000Y-585000D01*
X235500Y-586500D01*
G01X235000Y-586300D02*
Y-585800D01*
G01X225000Y-9000D02*
X231500D01*
Y29000D01*
X225000D01*
Y-9000D01*
G01X260000Y20000D02*
Y22500D01*
X262500Y17500D01*
Y2500D01*
X260000Y-2500D01*
X245000D01*
X242500Y0D01*
X231500D01*
G01Y20000D02*
X242500D01*
Y17500D01*
G01X234700Y488500D02*
X235200D01*
Y478500D01*
X238200D01*
X235000Y472000D01*
X231700Y478500D01*
X234700D01*
Y488500D01*
G01X234200Y489000D02*
X235700D01*
Y479000D01*
X239000D01*
X235000Y471200D01*
X231000Y479000D01*
X234200D01*
Y489000D01*
G01X233700Y489500D02*
X236200D01*
Y479500D01*
X239700D01*
X235000Y470700D01*
X230200Y479500D01*
X233700D01*
Y489500D01*
G01X233200Y490000D02*
X236700D01*
Y480000D01*
X240500D01*
X235000Y470000D01*
X229500Y480000D01*
X233200D01*
Y490000D01*
G01X235000Y476200D02*
Y475700D01*
G01X234500Y476500D02*
X235500D01*
X235000Y475000D01*
X234500Y476500D01*
G01X234000Y477000D02*
X236000D01*
X235000Y474200D01*
X234000Y477000D01*
G01X233200Y477500D02*
X236700D01*
X235000Y473500D01*
X233200Y477500D01*
G01X232500Y478000D02*
X237500D01*
X235000Y472700D01*
X232500Y478000D01*
G01X255000Y-2500D02*
Y0D01*
G01X260000Y-2500D02*
Y0D01*
G01X250000Y22500D02*
Y-2500D01*
G01X255000Y22500D02*
Y0D01*
Y-2500D01*
G01X260000Y22500D02*
Y20000D01*
Y-2500D01*
G01X245000Y22500D02*
Y-500D01*
Y-2500D01*
Y0D01*
G01X242500Y17500D02*
Y2500D01*
Y0D01*
G01Y17500D02*
Y20000D01*
X245000Y22500D01*
X260000D01*
Y20000D01*
G01X342760Y-597500D02*
Y-585000D01*
X337025Y-593958D01*
X344775D01*
G01X342760Y475000D02*
Y487500D01*
X337025Y478542D01*
X344775D01*
G01X447500Y-580000D02*
Y-595000D01*
G01Y470000D02*
Y485000D01*
G01X549990Y-595000D02*
X550920Y-596459D01*
X552160Y-597292D01*
X553555Y-597500D01*
X554795Y-597292D01*
X556035Y-596250D01*
X556810Y-595000D01*
X556965Y-593750D01*
X556655Y-592292D01*
X555570Y-591250D01*
X554485Y-590833D01*
X553090D01*
G01X554485D02*
X555415Y-590208D01*
X556190Y-589167D01*
X556500Y-587917D01*
X556190Y-586667D01*
X555415Y-585625D01*
X554020Y-585000D01*
X552625Y-585208D01*
X551230Y-586042D01*
G01X549990Y477500D02*
X550920Y476041D01*
X552160Y475208D01*
X553555Y475000D01*
X554795Y475208D01*
X556035Y476250D01*
X556810Y477500D01*
X556965Y478750D01*
X556655Y480208D01*
X555570Y481250D01*
X554485Y481667D01*
X553090D01*
G01X554485D02*
X555415Y482292D01*
X556190Y483333D01*
X556500Y484583D01*
X556190Y485833D01*
X555415Y486875D01*
X554020Y487500D01*
X552625Y487292D01*
X551230Y486458D01*
G01X659100Y-576300D02*
Y-572300D01*
X660100D01*
X660500Y-572500D01*
X660800Y-572700D01*
X661100Y-573100D01*
X661300Y-573600D01*
Y-574900D01*
X661100Y-575400D01*
X660800Y-575800D01*
X660500Y-576100D01*
X660100Y-576300D01*
X659100D01*
G01X650000Y-580000D02*
Y-442500D01*
X1060000D01*
G01X650000Y-567500D02*
X1060000D01*
G01X658600Y-537500D02*
X659800D01*
G01X659200Y-533500D02*
Y-537500D01*
G01X658600Y-533500D02*
X659800D01*
G01X655500Y-535500D02*
X654300D01*
G01Y-537500D02*
Y-533500D01*
X656200D01*
G01X650000Y-530000D02*
X1060000D01*
G01X658600Y-471200D02*
X657800D01*
G01X659100Y-472500D02*
X657800D01*
Y-470000D01*
X659100D01*
G01X655200Y-472500D02*
Y-470000D01*
X655900D01*
X656100Y-470200D01*
X656300Y-470300D01*
X656500Y-470600D01*
X656600Y-470900D01*
Y-471700D01*
X656500Y-472000D01*
X656100Y-472400D01*
X655900Y-472500D01*
X655200D01*
G01X657800Y-476300D02*
X659100Y-478800D01*
G01X657800D02*
X659100Y-476300D01*
G01X655900Y-478900D02*
Y-478700D01*
X656000D01*
Y-478800D01*
X655900Y-478900D01*
G01X657800Y-481300D02*
X659100Y-483800D01*
G01X657800D02*
X659100Y-481300D01*
G01X655900Y-483900D02*
Y-483700D01*
X656000D01*
Y-483800D01*
X655900Y-483900D01*
G01X660000Y-498600D02*
X658400D01*
G01X658000Y-500000D02*
X659200Y-496000D01*
X660500Y-500000D01*
G01X653900D02*
Y-496000D01*
X655200Y-499400D01*
X656500Y-496000D01*
Y-500000D01*
G01X835000Y-492500D02*
X650000D01*
G01X659200Y-448100D02*
Y-451300D01*
X660700D01*
G01X655900D02*
Y-448100D01*
X657700Y-451300D01*
Y-448100D01*
G01X652800D02*
Y-450400D01*
X652900Y-450900D01*
X653300Y-451200D01*
X653600Y-451300D01*
X654000Y-451200D01*
X654400Y-450900D01*
X654500Y-450400D01*
Y-448100D01*
G01X656500Y-457500D02*
Y-454400D01*
X657300D01*
X657600Y-454500D01*
X657900Y-454700D01*
X658100Y-455100D01*
X658200Y-455400D01*
X658300Y-456000D01*
X658200Y-456500D01*
X658100Y-456800D01*
X657900Y-457200D01*
X657600Y-457400D01*
X657300Y-457500D01*
X656500D01*
G01X660000Y-580000D02*
Y-595000D01*
G01X687200Y-575700D02*
X687600Y-576100D01*
X688000Y-576300D01*
X688400D01*
X688800Y-576100D01*
X689100Y-575700D01*
X689300Y-575300D01*
X689200Y-574800D01*
X688900Y-574400D01*
X688500Y-574100D01*
X687900Y-574000D01*
X687500Y-573700D01*
X687400Y-573300D01*
X687500Y-572800D01*
X687700Y-572500D01*
X688100Y-572300D01*
X688400D01*
X688800Y-572400D01*
X689100Y-572700D01*
G01X679100Y-572300D02*
X681400D01*
G01X680200D02*
Y-576300D01*
G01X676200D02*
X675800Y-576200D01*
X675500Y-575900D01*
X675200Y-575500D01*
X675000Y-575100D01*
X674900Y-574500D01*
Y-574000D01*
X675000Y-573500D01*
X675200Y-573000D01*
X675500Y-572600D01*
X675800Y-572300D01*
X676600D01*
X677000Y-572600D01*
X677300Y-573000D01*
X677500Y-573500D01*
X677600Y-574000D01*
Y-574500D01*
X677500Y-575100D01*
X677300Y-575500D01*
X677000Y-575900D01*
X676600Y-576200D01*
X676200Y-576300D01*
G01X671100D02*
Y-572300D01*
X673400Y-576300D01*
Y-572300D01*
G01X664200Y-576300D02*
X663800Y-576200D01*
X663500Y-575900D01*
X663200Y-575500D01*
X663000Y-575100D01*
X662900Y-574500D01*
Y-574000D01*
X663000Y-573500D01*
X663200Y-573000D01*
X663500Y-572600D01*
X663800Y-572300D01*
X664600D01*
X665000Y-572600D01*
X665300Y-573000D01*
X665500Y-573500D01*
X665600Y-574000D01*
Y-574500D01*
X665500Y-575100D01*
X665300Y-575500D01*
X665000Y-575900D01*
X664600Y-576200D01*
X664200Y-576300D01*
G01X676300Y-535500D02*
X674200D01*
G01X676300Y-533500D02*
Y-537500D01*
G01X674200D02*
Y-533500D01*
G01X670200Y-537000D02*
X670600Y-537300D01*
X671000Y-537500D01*
X671400D01*
X671800Y-537300D01*
X672100Y-537000D01*
X672300Y-536500D01*
X672200Y-536100D01*
X671900Y-535700D01*
X671500Y-535400D01*
X670900Y-535300D01*
X670500Y-535000D01*
X670400Y-534500D01*
X670500Y-534100D01*
X670700Y-533700D01*
X671100Y-533500D01*
X671400D01*
X671800Y-533700D01*
X672100Y-534000D01*
G01X666600Y-537500D02*
X667800D01*
G01X667200Y-533500D02*
Y-537500D01*
G01X666600Y-533500D02*
X667800D01*
G01X662100Y-537500D02*
Y-533500D01*
X664400Y-537500D01*
Y-533500D01*
G01X674900Y-483853D02*
X674823Y-483802D01*
Y-483698D01*
X674900Y-483647D01*
X674977Y-483698D01*
Y-483802D01*
X674900Y-483853D01*
G01X678000Y-480650D02*
X677693Y-480753D01*
X677463Y-481012D01*
X677310Y-481322D01*
X677195Y-481735D01*
X677157Y-482200D01*
X677195Y-482665D01*
X677310Y-483078D01*
X677463Y-483388D01*
X677693Y-483647D01*
X678000Y-483750D01*
X678307Y-483647D01*
X678537Y-483388D01*
X678690Y-483078D01*
X678805Y-482665D01*
X678843Y-482200D01*
X678805Y-481735D01*
X678690Y-481322D01*
X678537Y-481012D01*
X678307Y-480753D01*
X678000Y-480650D01*
G01X681100D02*
X680793Y-480753D01*
X680563Y-481012D01*
X680410Y-481322D01*
X680295Y-481735D01*
X680257Y-482200D01*
X680295Y-482665D01*
X680410Y-483078D01*
X680563Y-483388D01*
X680793Y-483647D01*
X681100Y-483750D01*
X681407Y-483647D01*
X681637Y-483388D01*
X681790Y-483078D01*
X681905Y-482665D01*
X681943Y-482200D01*
X681905Y-481735D01*
X681790Y-481322D01*
X681637Y-481012D01*
X681407Y-480753D01*
X681100Y-480650D01*
G01X683357Y-483285D02*
X683587Y-483543D01*
X683855Y-483698D01*
X684200Y-483750D01*
X684545Y-483647D01*
X684813Y-483440D01*
X685005Y-483078D01*
X685043Y-482665D01*
X684967Y-482252D01*
X684775Y-481993D01*
X684507Y-481787D01*
X684238Y-481735D01*
X683970Y-481787D01*
X683625Y-481993D01*
X683740Y-480650D01*
X684775D01*
G01X672400Y-478853D02*
X672323Y-478802D01*
Y-478698D01*
X672400Y-478647D01*
X672477Y-478698D01*
Y-478802D01*
X672400Y-478853D01*
G01X675500Y-475650D02*
X675193Y-475753D01*
X674963Y-476012D01*
X674810Y-476322D01*
X674695Y-476735D01*
X674657Y-477200D01*
X674695Y-477665D01*
X674810Y-478078D01*
X674963Y-478388D01*
X675193Y-478647D01*
X675500Y-478750D01*
X675807Y-478647D01*
X676037Y-478388D01*
X676190Y-478078D01*
X676305Y-477665D01*
X676343Y-477200D01*
X676305Y-476735D01*
X676190Y-476322D01*
X676037Y-476012D01*
X675807Y-475753D01*
X675500Y-475650D01*
G01X678600Y-478750D02*
Y-475650D01*
X678140Y-476270D01*
G01Y-478750D02*
X679060D01*
G01X681700Y-475650D02*
X681393Y-475753D01*
X681163Y-476012D01*
X681010Y-476322D01*
X680895Y-476735D01*
X680857Y-477200D01*
X680895Y-477665D01*
X681010Y-478078D01*
X681163Y-478388D01*
X681393Y-478647D01*
X681700Y-478750D01*
X682007Y-478647D01*
X682237Y-478388D01*
X682390Y-478078D01*
X682505Y-477665D01*
X682543Y-477200D01*
X682505Y-476735D01*
X682390Y-476322D01*
X682237Y-476012D01*
X682007Y-475753D01*
X681700Y-475650D01*
G01X673100Y-472200D02*
X673400Y-472400D01*
X673600Y-472500D01*
X673900D01*
X674200Y-472400D01*
X674300Y-472200D01*
X674400Y-471900D01*
Y-471600D01*
X674200Y-471400D01*
X673900Y-471200D01*
X673600Y-471100D01*
X673300Y-470900D01*
X673200Y-470700D01*
X673300Y-470400D01*
X673700Y-470000D01*
X673900D01*
X674100Y-470100D01*
X674300Y-470300D01*
G01X670600Y-470000D02*
Y-472500D01*
X671900D01*
G01X669200Y-471700D02*
X668200D01*
G01X667900Y-472500D02*
X668700Y-470000D01*
X669500Y-472500D01*
G01X665300D02*
Y-470000D01*
X666100Y-472100D01*
X666900Y-470000D01*
Y-472500D01*
G01X663200D02*
X664000D01*
G01X663600Y-470000D02*
Y-472500D01*
G01X661700Y-470200D02*
X661300Y-470000D01*
X661100D01*
X660800Y-470200D01*
X660400Y-470600D01*
X660200Y-471400D01*
X660300Y-471800D01*
X660400Y-472000D01*
X660600Y-472300D01*
X661000Y-472500D01*
X661200D01*
X661500Y-472400D01*
X661700Y-472300D01*
X661800Y-472200D01*
G01X688600Y-471300D02*
X689100Y-472500D01*
G01X687800D02*
Y-470000D01*
X688600D01*
X688900Y-470200D01*
X689000Y-470300D01*
X689100Y-470700D01*
X689000Y-471000D01*
X688900Y-471200D01*
X688600Y-471300D01*
X687800D01*
G01X686100Y-471200D02*
X685300D01*
G01Y-472500D02*
Y-470000D01*
X686500D01*
G01X668300Y-477900D02*
X669100D01*
G01X666100Y-477400D02*
Y-478500D01*
G01X665800Y-477900D02*
X666500D01*
G01X660400Y-476300D02*
X661700Y-478800D01*
G01X660400D02*
X661700Y-476300D01*
G01X670800Y-482900D02*
X671600D01*
G01X668700Y-482400D02*
Y-483500D01*
G01X668300Y-482900D02*
X669100D01*
G01X662900Y-481300D02*
X664200Y-483800D01*
G01X662900D02*
X664200Y-481300D01*
G01X660400D02*
X661700Y-483800D01*
G01X660400D02*
X661700Y-481300D01*
G01X682200Y-496000D02*
Y-500000D01*
X684200D01*
G01X680000Y-498600D02*
X678400D01*
G01X678000Y-500000D02*
X679200Y-496000D01*
X680500Y-500000D01*
G01X674600D02*
X675800D01*
G01X675200Y-496000D02*
Y-500000D01*
G01X674600Y-496000D02*
X675800D01*
G01X671500Y-498100D02*
X672200Y-500000D01*
G01X670200D02*
Y-496000D01*
X671500D01*
X671900Y-496200D01*
X672100Y-496500D01*
X672200Y-497000D01*
X672100Y-497600D01*
X671800Y-497900D01*
X671500Y-498100D01*
X670200D01*
G01X667400Y-498000D02*
X666200D01*
G01X668200Y-500000D02*
X666200D01*
Y-496000D01*
X668200D01*
G01X662100D02*
X664400D01*
G01X663200D02*
Y-500000D01*
G01X688500Y-449800D02*
X689100Y-451300D01*
G01X687500D02*
Y-448100D01*
X688500D01*
X688800Y-448300D01*
X689000Y-448500D01*
X689100Y-448900D01*
X689000Y-449300D01*
X688800Y-449600D01*
X688500Y-449800D01*
X687500D01*
G01X685300Y-449600D02*
X684400D01*
G01X685900Y-451300D02*
X684400D01*
Y-448100D01*
X685900D01*
G01X682800Y-449700D02*
X681200D01*
G01X682800Y-448100D02*
Y-451300D01*
G01X681200D02*
Y-448100D01*
G01X677900D02*
X679800D01*
G01X678800D02*
Y-451300D01*
G01X675700D02*
X675400Y-451200D01*
X675100Y-451000D01*
X674900Y-450700D01*
X674700Y-450300D01*
X674600Y-449900D01*
Y-449500D01*
X674700Y-449100D01*
X674900Y-448700D01*
X675100Y-448400D01*
X675400Y-448200D01*
X675700Y-448100D01*
X676000Y-448200D01*
X676300Y-448400D01*
X676500Y-448700D01*
X676700Y-449100D01*
X676800Y-449500D01*
Y-449900D01*
X676700Y-450300D01*
X676500Y-450700D01*
X676300Y-451000D01*
X676000Y-451200D01*
X675700Y-451300D01*
G01X668600Y-450900D02*
X669200Y-451300D01*
X669600D01*
X669900Y-451100D01*
X670100Y-450900D01*
X670200Y-450500D01*
X670100Y-450100D01*
X669900Y-449800D01*
X669600Y-449600D01*
X669100Y-449500D01*
X668900Y-449300D01*
X668700Y-448900D01*
X668800Y-448500D01*
X669000Y-448300D01*
X669300Y-448100D01*
X669600D01*
X669800Y-448200D01*
X670100Y-448500D01*
G01X665400Y-450900D02*
X665700Y-451100D01*
X666100Y-451300D01*
X666400D01*
X667000Y-450900D01*
X667100Y-450500D01*
X667000Y-450100D01*
X666800Y-449800D01*
X666400Y-449600D01*
X666000Y-449500D01*
X665700Y-449300D01*
X665600Y-448900D01*
X665700Y-448500D01*
X666100Y-448100D01*
X666400D01*
X666700Y-448200D01*
X666900Y-448500D01*
G01X663300Y-449600D02*
X662300D01*
G01X663900Y-451300D02*
X662300D01*
Y-448100D01*
X663900D01*
G01X684900Y-457100D02*
X685200Y-457400D01*
X685600Y-457500D01*
X685900D01*
X686200Y-457400D01*
X686500Y-457100D01*
X686600Y-456700D01*
X686500Y-456400D01*
X686300Y-456100D01*
X685900Y-455800D01*
X685500Y-455700D01*
X685200Y-455500D01*
X685100Y-455200D01*
X685200Y-454800D01*
X685400Y-454500D01*
X685600Y-454400D01*
X685900D01*
X686200Y-454500D01*
X686400Y-454700D01*
G01X681700Y-457500D02*
Y-454400D01*
X683500Y-457500D01*
Y-454400D01*
G01X679400Y-457500D02*
X679100D01*
X678900Y-457300D01*
X678600Y-456900D01*
X678500Y-456600D01*
X678400Y-456200D01*
Y-455700D01*
X678500Y-455300D01*
X678600Y-455000D01*
X678900Y-454600D01*
X679100Y-454400D01*
X679800D01*
X680000Y-454600D01*
X680300Y-455000D01*
X680400Y-455300D01*
X680500Y-455700D01*
Y-456200D01*
X680400Y-456600D01*
X680300Y-456900D01*
X680000Y-457300D01*
X679800Y-457500D01*
X679400D01*
G01X675800D02*
X676800D01*
G01X676300Y-454400D02*
Y-457500D01*
G01X675800Y-454400D02*
X676800D01*
G01X672300Y-457100D02*
X672600Y-457400D01*
X673000Y-457500D01*
X673300D01*
X673600Y-457400D01*
X673900Y-457100D01*
X674000Y-456700D01*
X673900Y-456400D01*
X673700Y-456100D01*
X673300Y-455800D01*
X672900Y-455700D01*
X672600Y-455500D01*
X672500Y-455200D01*
X672600Y-454800D01*
X672800Y-454500D01*
X673000Y-454400D01*
X673300D01*
X673600Y-454500D01*
X673800Y-454700D01*
G01X669100Y-457500D02*
Y-454400D01*
X670900Y-457500D01*
Y-454400D01*
G01X667000Y-455900D02*
X666100D01*
G01X667600Y-457500D02*
X666100D01*
Y-454400D01*
X667600D01*
G01X662700Y-457500D02*
Y-454400D01*
X663700Y-457000D01*
X664700Y-454400D01*
Y-457500D01*
G01X660100D02*
X661000D01*
G01X660500Y-454400D02*
Y-457500D01*
G01X660100Y-454400D02*
X661000D01*
G01X688700Y-463700D02*
X687900D01*
G01X689200Y-465000D02*
X687900D01*
Y-462500D01*
X689200D01*
G01X685400D02*
Y-465000D01*
X686700D01*
G01X683500D02*
X683200D01*
X682800Y-464600D01*
X682700Y-464300D01*
X682600Y-463900D01*
Y-463600D01*
X682800Y-463000D01*
X683000Y-462700D01*
X683200Y-462600D01*
X683500Y-462500D01*
X683900Y-462700D01*
X684300Y-463300D01*
Y-464300D01*
X684100Y-464600D01*
X683700Y-465000D01*
X683500D01*
G01X680200Y-462500D02*
X681700D01*
G01X680900D02*
Y-465000D01*
G01X663200Y-470000D02*
X664000D01*
G01X660000Y470000D02*
Y485000D01*
G01X720500Y-574300D02*
X721500D01*
Y-575500D01*
X721200Y-575900D01*
X720900Y-576100D01*
X720400Y-576300D01*
X719900Y-576100D01*
X719500Y-575900D01*
X719200Y-575500D01*
X719000Y-575000D01*
X718900Y-574500D01*
Y-574000D01*
X719000Y-573600D01*
X719200Y-573100D01*
X719500Y-572700D01*
X719800Y-572500D01*
X720200Y-572300D01*
X720600D01*
X721000Y-572400D01*
X721300Y-572700D01*
G01X714700Y-572300D02*
X715400Y-576300D01*
X716200Y-572300D01*
X717000Y-576300D01*
X717700Y-572300D01*
G01X711100Y-576300D02*
Y-572300D01*
X712100D01*
X712500Y-572500D01*
X712800Y-572700D01*
X713100Y-573100D01*
X713300Y-573600D01*
Y-574900D01*
X713100Y-575400D01*
X712800Y-575800D01*
X712500Y-576100D01*
X712100Y-576300D01*
X711100D01*
G01X704400Y-574200D02*
X703200D01*
G01X705200Y-576300D02*
X703200D01*
Y-572300D01*
X705200D01*
G01X699200D02*
Y-576300D01*
X701200D01*
G01X697000Y-574900D02*
X695400D01*
G01X695000Y-576300D02*
X696200Y-572300D01*
X697500Y-576300D01*
G01X693300Y-572600D02*
X693000Y-572400D01*
X692700Y-572300D01*
X692300D01*
X691800Y-572500D01*
X691500Y-572800D01*
X691200Y-573200D01*
X691000Y-573900D01*
Y-574500D01*
X691100Y-575100D01*
X691200Y-575500D01*
X691500Y-575900D01*
X691900Y-576100D01*
X692200Y-576300D01*
X692600D01*
X693500Y-575700D01*
G01X696150Y-478750D02*
Y-475650D01*
X695690Y-476270D01*
G01Y-478750D02*
X696610D01*
G01X698560Y-478853D02*
X699940Y-475650D01*
G01X701507Y-478130D02*
X701737Y-478492D01*
X702043Y-478698D01*
X702388Y-478750D01*
X702695Y-478698D01*
X703002Y-478440D01*
X703193Y-478130D01*
X703232Y-477820D01*
X703155Y-477458D01*
X702887Y-477200D01*
X702618Y-477097D01*
X702273D01*
G01X702618D02*
X702848Y-476942D01*
X703040Y-476683D01*
X703117Y-476373D01*
X703040Y-476063D01*
X702848Y-475805D01*
X702503Y-475650D01*
X702158Y-475702D01*
X701813Y-475908D01*
G01X704722Y-476167D02*
X704952Y-475857D01*
X705220Y-475702D01*
X705527Y-475650D01*
X705910Y-475753D01*
X706178Y-476012D01*
X706255Y-476322D01*
X706217Y-476632D01*
X706063Y-476890D01*
X705297Y-477407D01*
X704952Y-477768D01*
X704722Y-478285D01*
X704645Y-478750D01*
X706255D01*
G01X705700Y-472200D02*
X705900Y-472400D01*
X706200Y-472500D01*
X706500D01*
X706700Y-472400D01*
X706900Y-472200D01*
X707000Y-471900D01*
X706900Y-471600D01*
X706800Y-471400D01*
X706500Y-471200D01*
X706100Y-471100D01*
X705900Y-470900D01*
X705800Y-470700D01*
X705900Y-470400D01*
X706000Y-470200D01*
X706200Y-470000D01*
X706500D01*
X706700Y-470100D01*
X706900Y-470300D01*
G01X703000Y-472500D02*
Y-470000D01*
X704500Y-472500D01*
Y-470000D01*
G01X701200Y-472500D02*
X701000D01*
X700600Y-472100D01*
X700400Y-471800D01*
Y-470800D01*
X700800Y-470200D01*
X701200Y-470000D01*
X701500Y-470100D01*
X701700Y-470200D01*
X701900Y-470500D01*
X702100Y-471100D01*
Y-471400D01*
X702000Y-471800D01*
X701900Y-472100D01*
X701500Y-472500D01*
X701200D01*
G01X698300D02*
X699100D01*
G01X698700Y-470000D02*
Y-472500D01*
G01X696100Y-470000D02*
Y-472500D01*
G01X694300Y-470200D02*
X693900Y-470000D01*
X693600D01*
X693300Y-470200D01*
X692900Y-470600D01*
X692800Y-471000D01*
Y-471800D01*
X692900Y-472000D01*
X693100Y-472300D01*
X693400Y-472400D01*
X693600Y-472500D01*
X693800D01*
X694400Y-472200D01*
G01X691500Y-471700D02*
X690500D01*
G01X690200Y-472500D02*
X691000Y-470000D01*
X691800Y-472500D01*
G01X719000D02*
Y-470000D01*
X720500Y-472500D01*
Y-470000D01*
G01X717700Y-471700D02*
X716700D01*
G01X716400Y-472500D02*
X717200Y-470000D01*
X718000Y-472500D01*
G01X693100Y-477900D02*
X693900D01*
G01X690900Y-477400D02*
Y-478500D01*
G01X690600Y-477900D02*
X691300D01*
G01X719300D02*
X720100D01*
G01X717200Y-477400D02*
Y-478500D01*
G01X716800Y-477900D02*
X717600D01*
G01X719300Y-451300D02*
X720300D01*
G01X719800Y-448100D02*
Y-451300D01*
G01X719300Y-448100D02*
X720300D01*
G01X717500Y-448400D02*
X717300Y-448200D01*
X717000Y-448100D01*
X716700D01*
X716300Y-448300D01*
X716100Y-448500D01*
X715900Y-448900D01*
X715700Y-449400D01*
Y-450300D01*
X715900Y-450600D01*
X716100Y-451000D01*
X716400Y-451200D01*
X716600Y-451300D01*
X716900D01*
X717200Y-451200D01*
X717600Y-450800D01*
G01X713700Y-449600D02*
X712700D01*
G01X714300Y-451300D02*
X712700D01*
Y-448100D01*
X714300D01*
G01X709600Y-451300D02*
Y-448100D01*
X710500D01*
X710800Y-448300D01*
X711100Y-448600D01*
Y-449500D01*
X710900Y-449800D01*
X710500Y-450000D01*
X709600D01*
G01X706400Y-450900D02*
X707000Y-451300D01*
X707400D01*
X707700Y-451100D01*
X707900Y-450900D01*
X708000Y-450500D01*
X707900Y-450100D01*
X707700Y-449800D01*
X707400Y-449600D01*
X706900Y-449500D01*
X706700Y-449300D01*
X706500Y-448900D01*
X706600Y-448500D01*
X706800Y-448300D01*
X707100Y-448100D01*
X707400D01*
X707600Y-448200D01*
X707900Y-448500D01*
G01X701100Y-449600D02*
X700100D01*
G01X701700Y-451300D02*
X700100D01*
Y-448100D01*
X701700D01*
G01X696900Y-450900D02*
X697200Y-451100D01*
X697600Y-451300D01*
X697900D01*
X698500Y-450900D01*
X698600Y-450500D01*
X698500Y-450100D01*
X698300Y-449800D01*
X697900Y-449600D01*
X697500Y-449500D01*
X697200Y-449300D01*
X697100Y-448900D01*
X697200Y-448500D01*
X697600Y-448100D01*
X697900D01*
X698200Y-448200D01*
X698400Y-448500D01*
G01X694100Y-451300D02*
X695100D01*
G01X694600Y-448100D02*
Y-451300D01*
G01X694100Y-448100D02*
X695100D01*
G01X690300D02*
X690800Y-451300D01*
X691400Y-448100D01*
X692100Y-451300D01*
X692600Y-448100D01*
G01X721300Y-454600D02*
X721000Y-454500D01*
X720800Y-454400D01*
X720400D01*
X720100Y-454500D01*
X719800Y-454800D01*
X719600Y-455100D01*
X719400Y-456100D01*
X719500Y-456600D01*
X719600Y-456900D01*
X720100Y-457400D01*
X720400Y-457500D01*
X720700D01*
X720900Y-457400D01*
X721200Y-457300D01*
X721400Y-457100D01*
G01X716300Y-457500D02*
Y-454400D01*
X718200Y-457500D01*
Y-454400D01*
G01X713600Y-457500D02*
X714600D01*
G01X714100Y-454400D02*
Y-457500D01*
G01X713600Y-454400D02*
X714600D01*
G01X706900Y-457500D02*
Y-454400D01*
X708700Y-457500D01*
Y-454400D01*
G01X704200Y-457500D02*
X705100D01*
G01X704600Y-454400D02*
Y-457500D01*
G01X704200Y-454400D02*
X705100D01*
G01X698500Y-455900D02*
X697600D01*
G01X699100Y-457500D02*
X697600D01*
Y-454400D01*
X699100D01*
G01X695400Y-456000D02*
X696000Y-457500D01*
G01X694400D02*
Y-454400D01*
X695400D01*
X695700Y-454500D01*
X695900Y-454700D01*
X696000Y-455200D01*
X695900Y-455600D01*
X695700Y-455800D01*
X695400Y-456000D01*
X694400D01*
G01X692700Y-456400D02*
X691400D01*
G01X691100Y-457500D02*
X692000Y-454400D01*
X693000Y-457500D01*
G01X703200Y-464700D02*
X703500Y-464900D01*
X703700Y-465000D01*
X704000D01*
X704300Y-464900D01*
X704400Y-464700D01*
X704500Y-464400D01*
Y-464100D01*
X704300Y-463900D01*
X704000Y-463700D01*
X703700Y-463600D01*
X703400Y-463400D01*
X703300Y-463200D01*
X703400Y-462900D01*
X703800Y-462500D01*
X704000D01*
X704200Y-462600D01*
X704400Y-462800D01*
G01X701500Y-463700D02*
X700700D01*
G01X702000Y-465000D02*
X700700D01*
Y-462500D01*
X702000D01*
G01X699500Y-462700D02*
X699100Y-462500D01*
X698800D01*
X698500Y-462700D01*
X698100Y-463100D01*
X698000Y-463500D01*
Y-464300D01*
X698100Y-464500D01*
X698300Y-464800D01*
X698600Y-464900D01*
X698800Y-465000D01*
X699000D01*
X699600Y-464700D01*
G01X695500Y-465000D02*
Y-462500D01*
X697000Y-465000D01*
Y-462500D01*
G01X694200Y-464200D02*
X693200D01*
G01X692900Y-465000D02*
X693700Y-462500D01*
X694500Y-465000D01*
G01X691300Y-463800D02*
X691800Y-465000D01*
G01X690500D02*
Y-462500D01*
X691300D01*
X691500Y-462700D01*
X691700Y-462800D01*
X691800Y-463200D01*
X691700Y-463500D01*
X691500Y-463700D01*
X691300Y-463800D01*
X690500D01*
G01X698300Y-470000D02*
X699100D01*
G01X695400D02*
X696900D01*
G01X714883Y448750D02*
Y453750D01*
X716467D01*
X716973Y453500D01*
X717290Y453167D01*
X717417Y452500D01*
X717290Y451833D01*
X716910Y451417D01*
X716467Y451167D01*
X714883D01*
G01X716467D02*
X717417Y448750D01*
G01X722517D02*
X719983D01*
Y453750D01*
X722517D01*
G01X721503Y451333D02*
X719983D01*
G01X724767Y453750D02*
X726350Y448750D01*
X727933Y453750D01*
G01X1060000Y457500D02*
X710000D01*
G01X1060000Y445000D02*
X710000D01*
G01Y470000D02*
Y432500D01*
G01X737500Y-580000D02*
Y-442500D01*
G01X748700Y-533800D02*
X749200Y-535000D01*
G01X747900D02*
Y-532500D01*
X748700D01*
X749000Y-532700D01*
X749100Y-532800D01*
X749200Y-533200D01*
X749100Y-533500D01*
X749000Y-533700D01*
X748700Y-533800D01*
X747900D01*
G01X745400Y-535000D02*
Y-532500D01*
X746200D01*
X746600Y-532900D01*
X746700Y-533300D01*
X746600Y-533600D01*
X746400Y-533900D01*
X746200Y-534000D01*
X745400D01*
G01X742800Y-535000D02*
Y-532500D01*
X743600D01*
X743900Y-532700D01*
X744000Y-532900D01*
X744100Y-533300D01*
X743900Y-533900D01*
X743600Y-534000D01*
X742800D01*
G01X741400Y-534200D02*
X740400D01*
G01X740100Y-535000D02*
X740900Y-532500D01*
X741700Y-535000D01*
G01X746200Y-546300D02*
X746800D01*
Y-547000D01*
X746700Y-547300D01*
X746100Y-547500D01*
X745800Y-547400D01*
X745600Y-547300D01*
X745400Y-547000D01*
X745200Y-546400D01*
Y-546100D01*
X745300Y-545900D01*
X745400Y-545600D01*
X745600Y-545300D01*
X745800Y-545200D01*
X746000Y-545000D01*
X746200D01*
X746500Y-545100D01*
X746700Y-545300D01*
G01X743600Y-546200D02*
X742900D01*
G01Y-547500D02*
Y-545000D01*
X744100D01*
G01X740100Y-547500D02*
Y-545000D01*
X740900Y-547100D01*
X741700Y-545000D01*
Y-547500D01*
G01X737500Y-555000D02*
X835000D01*
G01Y-542500D02*
X737500D01*
G01X748200Y-510000D02*
X749000D01*
G01X748600Y-507500D02*
Y-510000D01*
G01X748200Y-507500D02*
X749000D01*
G01X745400Y-509700D02*
X745600Y-509900D01*
X745900Y-510000D01*
X746200D01*
X746400Y-509900D01*
X746600Y-509700D01*
X746700Y-509400D01*
X746600Y-509100D01*
X746500Y-508900D01*
X746200Y-508700D01*
X745800Y-508600D01*
X745600Y-508400D01*
X745500Y-508200D01*
X745600Y-507900D01*
X745700Y-507700D01*
X745900Y-507500D01*
X746200D01*
X746400Y-507600D01*
X746600Y-507800D01*
G01X743600Y-508700D02*
X742800D01*
G01X744100Y-510000D02*
X742800D01*
Y-507500D01*
X744100D01*
G01X740200Y-510000D02*
Y-507500D01*
X740900D01*
X741100Y-507700D01*
X741300Y-507800D01*
X741500Y-508100D01*
X741600Y-508400D01*
Y-509200D01*
X741500Y-509500D01*
X741100Y-509900D01*
X740900Y-510000D01*
X740200D01*
G01X749300Y-520200D02*
X748900Y-520000D01*
X748600D01*
X748300Y-520200D01*
X747900Y-520600D01*
X747800Y-521000D01*
Y-521800D01*
X747900Y-522000D01*
X748100Y-522300D01*
X748400Y-522400D01*
X748600Y-522500D01*
X748800D01*
X749400Y-522200D01*
G01X746200Y-521200D02*
X745400D01*
G01X746700Y-522500D02*
X745400D01*
Y-520000D01*
X746700D01*
G01X744100Y-521300D02*
X742800D01*
G01X744100Y-520000D02*
Y-522500D01*
G01X742800D02*
Y-520000D01*
G01X741600Y-520200D02*
X741200Y-520000D01*
X741000D01*
X740700Y-520200D01*
X740300Y-520600D01*
X740100Y-521400D01*
X740200Y-521800D01*
X740300Y-522000D01*
X740500Y-522300D01*
X740900Y-522500D01*
X741100D01*
X741400Y-522400D01*
X741600Y-522300D01*
X741700Y-522200D01*
G01X737500Y-517500D02*
X835000D01*
G01X737500Y-505000D02*
X835000D01*
G01X724172Y-476167D02*
X724402Y-475857D01*
X724670Y-475702D01*
X724977Y-475650D01*
X725360Y-475753D01*
X725628Y-476012D01*
X725705Y-476322D01*
X725667Y-476632D01*
X725513Y-476890D01*
X724747Y-477407D01*
X724402Y-477768D01*
X724172Y-478285D01*
X724095Y-478750D01*
X725705D01*
G01X749375Y-467500D02*
X752500Y-457500D01*
X755625Y-467500D01*
G01X754500Y-464000D02*
X750500D01*
G01X759875Y-466167D02*
X760875Y-467000D01*
X762000Y-467500D01*
X763000D01*
X764000Y-467000D01*
X764750Y-466167D01*
X765125Y-465000D01*
X764875Y-463834D01*
X764250Y-462833D01*
X763125Y-462167D01*
X761625Y-461833D01*
X760750Y-461167D01*
X760375Y-460000D01*
X760625Y-458833D01*
X761250Y-458000D01*
X762125Y-457500D01*
X763000D01*
X763875Y-457833D01*
X764625Y-458667D01*
G01X769875Y-466167D02*
X770875Y-467000D01*
X772000Y-467500D01*
X773000D01*
X774000Y-467000D01*
X774750Y-466167D01*
X775125Y-465000D01*
X774875Y-463834D01*
X774250Y-462833D01*
X773125Y-462167D01*
X771625Y-461833D01*
X770750Y-461167D01*
X770375Y-460000D01*
X770625Y-458833D01*
X771250Y-458000D01*
X772125Y-457500D01*
X773000D01*
X773875Y-457833D01*
X774625Y-458667D01*
G01X785000Y-467500D02*
X780000D01*
Y-457500D01*
X785000D01*
G01X783000Y-462333D02*
X780000D01*
G01X789250Y-467500D02*
Y-457500D01*
X792500Y-465833D01*
X795750Y-457500D01*
Y-467500D01*
G01X803500Y-462167D02*
X804000Y-461667D01*
X804375Y-460834D01*
X804625Y-459667D01*
X804375Y-458667D01*
X803875Y-458000D01*
X803000Y-457500D01*
X799625D01*
Y-467500D01*
X803750D01*
X804625Y-466833D01*
X805125Y-465833D01*
X805375Y-464667D01*
X805125Y-463500D01*
X804375Y-462500D01*
X803500Y-462167D01*
X799625D01*
G01X810000Y-457500D02*
Y-467500D01*
X815000D01*
G01X822500D02*
Y-463000D01*
X820000Y-457500D01*
G01X825000D02*
X822500Y-463000D01*
G01X729300Y-472200D02*
X729500Y-472400D01*
X729800Y-472500D01*
X730100D01*
X730300Y-472400D01*
X730500Y-472200D01*
X730600Y-471900D01*
X730500Y-471600D01*
X730400Y-471400D01*
X730100Y-471200D01*
X729700Y-471100D01*
X729500Y-470900D01*
X729400Y-470700D01*
X729500Y-470400D01*
X729600Y-470200D01*
X729800Y-470000D01*
X730100D01*
X730300Y-470100D01*
X730500Y-470300D01*
G01X727500Y-471200D02*
X726700D01*
G01X728000Y-472500D02*
X726700D01*
Y-470000D01*
X728000D01*
G01X724200D02*
Y-472500D01*
X725500D01*
G01X722500Y-471300D02*
X723100D01*
Y-472000D01*
X722900Y-472300D01*
X722700Y-472400D01*
X722400Y-472500D01*
X721800Y-472300D01*
X721600Y-472000D01*
X721500Y-471700D01*
Y-470900D01*
X721600Y-470600D01*
X721800Y-470300D01*
X722000Y-470200D01*
X722300Y-470000D01*
X722500D01*
X722700Y-470100D01*
X722900Y-470300D01*
G01X747600Y-495000D02*
X748100Y-497500D01*
X748600Y-495000D01*
X749100Y-497500D01*
X749500Y-495000D01*
G01X746500Y-496700D02*
X745500D01*
G01X745200Y-497500D02*
X746000Y-495000D01*
X746800Y-497500D01*
G01X743600Y-496300D02*
X744100Y-497500D01*
G01X742800D02*
Y-495000D01*
X743600D01*
X743900Y-495200D01*
X744000Y-495300D01*
X744100Y-495700D01*
X744000Y-496000D01*
X743900Y-496200D01*
X743600Y-496300D01*
X742800D01*
G01X740200Y-497500D02*
Y-495000D01*
X740900D01*
X741100Y-495200D01*
X741300Y-495300D01*
X741500Y-495600D01*
X741600Y-495900D01*
Y-496700D01*
X741500Y-497000D01*
X741100Y-497400D01*
X740900Y-497500D01*
X740200D01*
G01X737500Y-480000D02*
X1060000D01*
G01X731500Y-451300D02*
Y-448100D01*
X732300D01*
X732900Y-448500D01*
X733100Y-448800D01*
X733200Y-449200D01*
X733300Y-449700D01*
X733200Y-450200D01*
X733100Y-450600D01*
X732900Y-450900D01*
X732300Y-451300D01*
X731500D01*
G01X729400Y-449600D02*
X728500D01*
G01X730000Y-451300D02*
X728500D01*
Y-448100D01*
X730000D01*
G01X725600Y-451300D02*
X726600D01*
G01X726100Y-448100D02*
Y-451300D01*
G01X725600Y-448100D02*
X726600D01*
G01X723100Y-449600D02*
X722200D01*
G01Y-451300D02*
Y-448100D01*
X723700D01*
G01X729000Y-457100D02*
X729300Y-457400D01*
X729700Y-457500D01*
X730000D01*
X730300Y-457400D01*
X730600Y-457100D01*
X730700Y-456700D01*
X730600Y-456400D01*
X730400Y-456100D01*
X730000Y-455800D01*
X729600Y-455700D01*
X729300Y-455500D01*
X729200Y-455200D01*
X729300Y-454800D01*
X729500Y-454500D01*
X729700Y-454400D01*
X730000D01*
X730300Y-454500D01*
X730500Y-454700D01*
G01X726900Y-455900D02*
X725900D01*
G01X727500Y-457500D02*
X725900D01*
Y-454400D01*
X727500D01*
G01X724400Y-456000D02*
X722700D01*
G01X724400Y-454400D02*
Y-457500D01*
G01X722700D02*
Y-454400D01*
G01X720917Y435000D02*
X722500Y440000D01*
X724083Y435000D01*
G01X723513Y436750D02*
X721487D01*
G01X735000Y457500D02*
Y432500D01*
G01X762955Y-587083D02*
X763885Y-585834D01*
X764970Y-585208D01*
X766210Y-585000D01*
X767760Y-585417D01*
X768845Y-586458D01*
X769155Y-587708D01*
X769000Y-588959D01*
X768380Y-590000D01*
X765280Y-592083D01*
X763885Y-593542D01*
X762955Y-595625D01*
X762645Y-597500D01*
X769155D01*
G01X758100Y-535000D02*
Y-532500D01*
X758700D01*
X759000Y-532700D01*
X759200Y-532800D01*
X759400Y-533400D01*
X759500Y-533800D01*
X759400Y-534200D01*
X759300Y-534500D01*
X759200Y-534700D01*
X759000Y-534900D01*
X758700Y-535000D01*
X758100D01*
G01X756400Y-533700D02*
X755600D01*
G01X756900Y-535000D02*
X755600D01*
Y-532500D01*
X756900D01*
G01X752900D02*
X753700Y-535000D01*
X754500Y-532500D01*
G01X751100Y-535000D02*
X750900D01*
X750500Y-534600D01*
X750300Y-534300D01*
Y-533300D01*
X750700Y-532700D01*
X751100Y-532500D01*
X751400Y-532600D01*
X751600Y-532700D01*
X751800Y-533000D01*
X752000Y-533600D01*
Y-533900D01*
X751900Y-534300D01*
X751800Y-534600D01*
X751400Y-535000D01*
X751100D01*
G01X769100Y-546300D02*
X769600Y-547500D01*
G01X768300D02*
Y-545000D01*
X769100D01*
X769400Y-545200D01*
X769500Y-545300D01*
X769600Y-545700D01*
X769500Y-546000D01*
X769400Y-546200D01*
X769100Y-546300D01*
X768300D01*
G01X766600Y-546200D02*
X765800D01*
G01X767100Y-547500D02*
X765800D01*
Y-545000D01*
X767100D01*
G01X764000Y-546200D02*
X763200D01*
G01X764500Y-547500D02*
X763200D01*
Y-545000D01*
X764500D01*
G01X760600Y-547500D02*
Y-545000D01*
X762100Y-547500D01*
Y-545000D01*
G01X758400Y-547500D02*
X759200D01*
G01X758800Y-545000D02*
Y-547500D01*
G01X758400Y-545000D02*
X759200D01*
G01X756400Y-546300D02*
X757000D01*
Y-547000D01*
X756900Y-547300D01*
X756300Y-547500D01*
X756000Y-547400D01*
X755800Y-547300D01*
X755600Y-547000D01*
X755400Y-546400D01*
Y-546100D01*
X755500Y-545900D01*
X755600Y-545600D01*
X755800Y-545300D01*
X756000Y-545200D01*
X756200Y-545000D01*
X756400D01*
X756700Y-545100D01*
X756900Y-545300D01*
G01X752900Y-547500D02*
Y-545000D01*
X754400Y-547500D01*
Y-545000D01*
G01X751300Y-546200D02*
X750500D01*
G01X751800Y-547500D02*
X750500D01*
Y-545000D01*
X751800D01*
G01X762883Y-498400D02*
Y-501500D01*
X764417D01*
G01X765792D02*
X766750Y-498400D01*
X767708Y-501500D01*
G01X767363Y-500415D02*
X766137D01*
G01X770157Y-499847D02*
X770310Y-499692D01*
X770425Y-499433D01*
X770502Y-499072D01*
X770425Y-498762D01*
X770272Y-498555D01*
X770003Y-498400D01*
X768968D01*
Y-501500D01*
X770233D01*
X770502Y-501293D01*
X770655Y-500983D01*
X770732Y-500622D01*
X770655Y-500260D01*
X770425Y-499950D01*
X770157Y-499847D01*
X768968D01*
G01X772183Y-501500D02*
Y-498400D01*
X773142D01*
X773448Y-498555D01*
X773640Y-498762D01*
X773717Y-499175D01*
X773640Y-499588D01*
X773410Y-499847D01*
X773142Y-500002D01*
X772183D01*
G01X773142D02*
X773717Y-501500D01*
G01X775092D02*
X776050Y-498400D01*
X777008Y-501500D01*
G01X776663Y-500415D02*
X775437D01*
G01X778268Y-501500D02*
Y-498400D01*
X780032Y-501500D01*
Y-498400D01*
G01X783093Y-498658D02*
X782863Y-498503D01*
X782595Y-498400D01*
X782288D01*
X781943Y-498555D01*
X781675Y-498813D01*
X781483Y-499123D01*
X781330Y-499640D01*
X781292Y-500105D01*
X781368Y-500570D01*
X781483Y-500880D01*
X781713Y-501190D01*
X781982Y-501397D01*
X782250Y-501500D01*
X782518D01*
X782787Y-501397D01*
X783017Y-501242D01*
X783208Y-501035D01*
G01X784545Y-501500D02*
Y-498400D01*
G01X786155D02*
Y-501500D01*
G01Y-499950D02*
X784545D01*
G01X789217Y-501500D02*
X787683D01*
Y-498400D01*
X789217D01*
G01X788603Y-499898D02*
X787683D01*
G01X758100Y-510000D02*
Y-507500D01*
X758700D01*
X759000Y-507700D01*
X759200Y-507800D01*
X759400Y-508400D01*
X759500Y-508800D01*
X759400Y-509200D01*
X759300Y-509500D01*
X759200Y-509700D01*
X759000Y-509900D01*
X758700Y-510000D01*
X758100D01*
G01X756400Y-508700D02*
X755600D01*
G01X756900Y-510000D02*
X755600D01*
Y-507500D01*
X756900D01*
G01X752900Y-510000D02*
Y-507500D01*
X754400Y-510000D01*
Y-507500D01*
G01X751300Y-508800D02*
X751900D01*
Y-509500D01*
X751800Y-509800D01*
X751200Y-510000D01*
X750900Y-509900D01*
X750700Y-509800D01*
X750500Y-509500D01*
X750300Y-508900D01*
Y-508600D01*
X750400Y-508400D01*
X750500Y-508100D01*
X750700Y-507800D01*
X750900Y-507700D01*
X751100Y-507500D01*
X751300D01*
X751600Y-507600D01*
X751800Y-507800D01*
G01X755500Y-522500D02*
Y-520000D01*
X756200D01*
X756400Y-520200D01*
X756600Y-520300D01*
X756800Y-520600D01*
X756900Y-520900D01*
Y-521700D01*
X756800Y-522000D01*
X756400Y-522400D01*
X756200Y-522500D01*
X755500D01*
G01X753800Y-521200D02*
X753000D01*
G01X754300Y-522500D02*
X753000D01*
Y-520000D01*
X754300D01*
G01X751800Y-522500D02*
X751000Y-520900D01*
G01X751600Y-520000D02*
X750400Y-521600D01*
G01Y-522500D02*
Y-520000D01*
G01X781250Y-487400D02*
X779650D01*
G01X779250Y-488800D02*
X780450Y-484800D01*
X781750Y-488800D01*
G01X775250Y-484800D02*
X776450Y-488800D01*
X777750Y-484800D01*
G01X772450Y-488800D02*
X772050Y-488700D01*
X771750Y-488400D01*
X771450Y-488000D01*
X771250Y-487600D01*
X771150Y-487000D01*
Y-486500D01*
X771250Y-486000D01*
X771450Y-485500D01*
X771750Y-485100D01*
X772050Y-484800D01*
X772850D01*
X773250Y-485100D01*
X773550Y-485500D01*
X773750Y-486000D01*
X773850Y-486500D01*
Y-487000D01*
X773750Y-487600D01*
X773550Y-488000D01*
X773250Y-488400D01*
X772850Y-488700D01*
X772450Y-488800D01*
G01X768750Y-486800D02*
X769450Y-488800D01*
G01X767450D02*
Y-484800D01*
X768750D01*
X769150Y-485000D01*
X769350Y-485200D01*
X769450Y-485800D01*
X769350Y-486300D01*
X769050Y-486600D01*
X768750Y-486800D01*
X767450D01*
G01X763450Y-488800D02*
Y-484800D01*
X764650D01*
X765050Y-485000D01*
X765350Y-485400D01*
X765450Y-486000D01*
X765350Y-486500D01*
X765150Y-486900D01*
X764650Y-487100D01*
X763450D01*
G01X759450Y-488800D02*
Y-484800D01*
X760650D01*
X761050Y-485000D01*
X761350Y-485400D01*
X761450Y-486000D01*
X761350Y-486500D01*
X761150Y-486900D01*
X760650Y-487100D01*
X759450D01*
G01X757250Y-487400D02*
X755650D01*
G01X755250Y-488800D02*
X756450Y-484800D01*
X757750Y-488800D01*
G01X759400Y-495000D02*
X758800Y-496400D01*
G01Y-497500D02*
Y-496400D01*
X758100Y-495000D01*
G01X756500Y-496200D02*
X756600Y-496100D01*
X756700Y-495900D01*
X756800Y-495600D01*
X756700Y-495300D01*
X756400Y-495000D01*
X755500D01*
Y-497500D01*
X756500D01*
X756800Y-497400D01*
X757000Y-496800D01*
X756900Y-496500D01*
X756700Y-496300D01*
X756500Y-496200D01*
X755500D01*
G01X750400Y-497500D02*
Y-495000D01*
X751900Y-497500D01*
Y-495000D01*
G01X762955Y485417D02*
X763885Y486666D01*
X764970Y487292D01*
X766210Y487500D01*
X767760Y487083D01*
X768845Y486042D01*
X769155Y484792D01*
X769000Y483541D01*
X768380Y482500D01*
X765280Y480417D01*
X763885Y478958D01*
X762955Y476875D01*
X762645Y475000D01*
X769155D01*
G01X798750Y-480000D02*
Y-580000D01*
G01X805307Y-500880D02*
X805537Y-501242D01*
X805843Y-501448D01*
X806188Y-501500D01*
X806495Y-501448D01*
X806802Y-501190D01*
X806993Y-500880D01*
X807032Y-500570D01*
X806955Y-500208D01*
X806687Y-499950D01*
X806418Y-499847D01*
X806073D01*
G01X806418D02*
X806648Y-499692D01*
X806840Y-499433D01*
X806917Y-499123D01*
X806840Y-498813D01*
X806648Y-498555D01*
X806303Y-498400D01*
X805958Y-498452D01*
X805613Y-498658D01*
G01X809250Y-498400D02*
X808943Y-498503D01*
X808713Y-498762D01*
X808560Y-499072D01*
X808445Y-499485D01*
X808407Y-499950D01*
X808445Y-500415D01*
X808560Y-500828D01*
X808713Y-501138D01*
X808943Y-501397D01*
X809250Y-501500D01*
X809557Y-501397D01*
X809787Y-501138D01*
X809940Y-500828D01*
X810055Y-500415D01*
X810093Y-499950D01*
X810055Y-499485D01*
X809940Y-499072D01*
X809787Y-498762D01*
X809557Y-498503D01*
X809250Y-498400D01*
G01X812350Y-501500D02*
X812043Y-501448D01*
X811775Y-501242D01*
X811545Y-500932D01*
X811392Y-500570D01*
X811315Y-500157D01*
Y-499743D01*
X811392Y-499330D01*
X811545Y-498968D01*
X811775Y-498658D01*
X812043Y-498452D01*
X812350Y-498400D01*
X812657Y-498452D01*
X812925Y-498658D01*
X813155Y-498968D01*
X813308Y-499330D01*
X813385Y-499743D01*
Y-500157D01*
X813308Y-500570D01*
X813155Y-500932D01*
X812925Y-501242D01*
X812657Y-501448D01*
X812350Y-501500D01*
G01X816293Y-498658D02*
X816063Y-498503D01*
X815795Y-498400D01*
X815488D01*
X815143Y-498555D01*
X814875Y-498813D01*
X814683Y-499123D01*
X814530Y-499640D01*
X814492Y-500105D01*
X814568Y-500570D01*
X814683Y-500880D01*
X814913Y-501190D01*
X815182Y-501397D01*
X815450Y-501500D01*
X815718D01*
X815987Y-501397D01*
X816217Y-501242D01*
X816408Y-501035D01*
G01X818550Y-498400D02*
Y-501500D01*
G01X817668Y-498400D02*
X819432D01*
G01X821650Y-501500D02*
Y-498400D01*
X821190Y-499020D01*
G01Y-501500D02*
X822110D01*
G01X824022Y-498917D02*
X824252Y-498607D01*
X824520Y-498452D01*
X824827Y-498400D01*
X825210Y-498503D01*
X825478Y-498762D01*
X825555Y-499072D01*
X825517Y-499382D01*
X825363Y-499640D01*
X824597Y-500157D01*
X824252Y-500518D01*
X824022Y-501035D01*
X823945Y-501500D01*
X825555D01*
G01X783450Y-484800D02*
Y-488800D01*
X785450D01*
G01X809357Y448750D02*
Y453750D01*
X810623D01*
X811130Y453500D01*
X811510Y453167D01*
X811827Y452667D01*
X812080Y452083D01*
X812143Y451250D01*
X812080Y450417D01*
X811827Y449833D01*
X811510Y449333D01*
X811130Y449000D01*
X810623Y448750D01*
X809357D01*
G01X817117D02*
X814583D01*
Y453750D01*
X817117D01*
G01X816103Y451333D02*
X814583D01*
G01X819620Y449417D02*
X820127Y449000D01*
X820697Y448750D01*
X821203D01*
X821710Y449000D01*
X822090Y449417D01*
X822280Y450000D01*
X822153Y450583D01*
X821837Y451083D01*
X821267Y451417D01*
X820507Y451583D01*
X820063Y451917D01*
X819873Y452500D01*
X820000Y453083D01*
X820317Y453500D01*
X820760Y453750D01*
X821203D01*
X821647Y453583D01*
X822027Y453167D01*
G01X827443Y453333D02*
X827063Y453583D01*
X826620Y453750D01*
X826113D01*
X825543Y453500D01*
X825100Y453083D01*
X824783Y452583D01*
X824530Y451750D01*
X824467Y451000D01*
X824593Y450250D01*
X824783Y449750D01*
X825163Y449250D01*
X825607Y448917D01*
X826050Y448750D01*
X826493D01*
X826937Y448917D01*
X827317Y449167D01*
X827633Y449500D01*
G01X829883Y448750D02*
Y453750D01*
X831467D01*
X831973Y453500D01*
X832290Y453167D01*
X832417Y452500D01*
X832290Y451833D01*
X831910Y451417D01*
X831467Y451167D01*
X829883D01*
G01X831467D02*
X832417Y448750D01*
G01X835490Y453750D02*
X837010D01*
G01X836250D02*
Y448750D01*
G01X835490D02*
X837010D01*
G01X840083D02*
Y453750D01*
X841603D01*
X842110Y453500D01*
X842490Y452917D01*
X842617Y452250D01*
X842490Y451583D01*
X842173Y451083D01*
X841603Y450833D01*
X840083D01*
G01X846450Y453750D02*
Y448750D01*
G01X844993Y453750D02*
X847907D01*
G01X850790D02*
X852310D01*
G01X851550D02*
Y448750D01*
G01X850790D02*
X852310D01*
G01X856650D02*
X856143Y448833D01*
X855700Y449167D01*
X855320Y449667D01*
X855067Y450250D01*
X854940Y450917D01*
Y451583D01*
X855067Y452250D01*
X855320Y452833D01*
X855700Y453333D01*
X856143Y453667D01*
X856650Y453750D01*
X857157Y453667D01*
X857600Y453333D01*
X857980Y452833D01*
X858233Y452250D01*
X858360Y451583D01*
Y450917D01*
X858233Y450250D01*
X857980Y449667D01*
X857600Y449167D01*
X857157Y448833D01*
X856650Y448750D01*
G01X860293D02*
Y453750D01*
X863207Y448750D01*
Y453750D01*
G01X803640Y440000D02*
X805160D01*
G01X804400D02*
Y435000D01*
G01X803640D02*
X805160D01*
G01X808043D02*
Y440000D01*
X810957Y435000D01*
Y440000D01*
G01X813840D02*
X815360D01*
G01X814600D02*
Y435000D01*
G01X813840D02*
X815360D01*
G01X819700Y440000D02*
Y435000D01*
G01X818243Y440000D02*
X821157D01*
G01X824040D02*
X825560D01*
G01X824800D02*
Y435000D01*
G01X824040D02*
X825560D01*
G01X828317D02*
X829900Y440000D01*
X831483Y435000D01*
G01X830913Y436750D02*
X828887D01*
G01X833733Y440000D02*
Y435000D01*
X836267D01*
G01X843933D02*
Y440000D01*
X845517D01*
X846023Y439750D01*
X846340Y439417D01*
X846467Y438750D01*
X846340Y438083D01*
X845960Y437667D01*
X845517Y437417D01*
X843933D01*
G01X845517D02*
X846467Y435000D01*
G01X851567D02*
X849033D01*
Y440000D01*
X851567D01*
G01X850553Y437583D02*
X849033D01*
G01X854133Y440000D02*
Y435000D01*
X856667D01*
G01X861767D02*
X859233D01*
Y440000D01*
X861767D01*
G01X860753Y437583D02*
X859233D01*
G01X864017Y435000D02*
X865600Y440000D01*
X867183Y435000D01*
G01X866613Y436750D02*
X864587D01*
G01X869370Y435667D02*
X869877Y435250D01*
X870447Y435000D01*
X870953D01*
X871460Y435250D01*
X871840Y435667D01*
X872030Y436250D01*
X871903Y436833D01*
X871587Y437333D01*
X871017Y437667D01*
X870257Y437833D01*
X869813Y438167D01*
X869623Y438750D01*
X869750Y439333D01*
X870067Y439750D01*
X870510Y440000D01*
X870953D01*
X871397Y439833D01*
X871777Y439417D01*
G01X877067Y435000D02*
X874533D01*
Y440000D01*
X877067D01*
G01X876053Y437583D02*
X874533D01*
G01X835000Y-580000D02*
Y-442500D01*
G01X823700Y-486700D02*
X822500D01*
G01X824500Y-488800D02*
X822500D01*
Y-484800D01*
X824500D01*
G01X818300D02*
X820600D01*
G01X819500D02*
Y-488800D01*
G01X816300Y-487400D02*
X814700D01*
G01X814200Y-488800D02*
X815500Y-484800D01*
X816700Y-488800D01*
G01X810400D02*
Y-484800D01*
X811400D01*
X811800Y-485000D01*
X812100Y-485200D01*
X812300Y-485600D01*
X812500Y-486100D01*
X812600Y-486800D01*
X812500Y-487400D01*
X812300Y-487900D01*
X812100Y-488300D01*
X811800Y-488600D01*
X811400Y-488800D01*
X810400D01*
G01X844750Y-560000D02*
Y-550000D01*
X847250D01*
X848250Y-550500D01*
X849000Y-551167D01*
X849625Y-552167D01*
X850125Y-553334D01*
X850250Y-555000D01*
X850125Y-556667D01*
X849625Y-557833D01*
X849000Y-558834D01*
X848250Y-559500D01*
X847250Y-560000D01*
X844750D01*
G01X857700Y-574200D02*
X856500D01*
G01X858500Y-576300D02*
X856500D01*
Y-572300D01*
X858500D01*
G01X852500D02*
Y-576300D01*
X854500D01*
G01X850300Y-574900D02*
X848700D01*
G01X848200Y-576300D02*
X849500Y-572300D01*
X850700Y-576300D01*
G01X846600Y-572600D02*
X846300Y-572400D01*
X845900Y-572300D01*
X845500D01*
X845100Y-572500D01*
X844700Y-572800D01*
X844500Y-573200D01*
X844300Y-573900D01*
X844200Y-574500D01*
X844300Y-575100D01*
X844500Y-575500D01*
X844800Y-575900D01*
X845100Y-576100D01*
X845500Y-576300D01*
X845800D01*
X846200Y-576100D01*
X846500Y-575900D01*
X846700Y-575700D01*
G01X840400D02*
X840800Y-576100D01*
X841300Y-576300D01*
X841700D01*
X842100Y-576100D01*
X842400Y-575700D01*
X842500Y-575300D01*
X842400Y-574800D01*
X842200Y-574400D01*
X841700Y-574100D01*
X841100Y-574000D01*
X840800Y-573700D01*
X840600Y-573300D01*
X840700Y-572800D01*
X841000Y-572500D01*
X841300Y-572300D01*
X841700D01*
X842000Y-572400D01*
X842300Y-572700D01*
G01X860000Y-567500D02*
Y-530000D01*
G01X853700Y-538000D02*
X852500D01*
G01X854500Y-540000D02*
X852500D01*
Y-536000D01*
X854500D01*
G01X848500D02*
X850400D01*
X848500Y-540000D01*
X850400D01*
G01X844900D02*
X846100D01*
G01X845500Y-536000D02*
Y-540000D01*
G01X844900Y-536000D02*
X846100D01*
G01X840400Y-539500D02*
X840800Y-539800D01*
X841300Y-540000D01*
X841700D01*
X842100Y-539800D01*
X842400Y-539500D01*
X842500Y-539000D01*
X842400Y-538600D01*
X842200Y-538200D01*
X841700Y-537900D01*
X841100Y-537800D01*
X840800Y-537500D01*
X840600Y-537000D01*
X840700Y-536600D01*
X841000Y-536200D01*
X841300Y-536000D01*
X841700D01*
X842000Y-536200D01*
X842300Y-536500D01*
G01X869200Y-538000D02*
X868000D01*
G01Y-540000D02*
Y-536000D01*
X869900D01*
G01X857700Y-485500D02*
X856500D01*
G01X858500Y-487500D02*
X856500D01*
Y-483500D01*
X858500D01*
G01X852500D02*
Y-487500D01*
X854500D01*
G01X848300Y-483500D02*
X850600D01*
G01X849500D02*
Y-487500D01*
G01X844900D02*
X846100D01*
G01X845500Y-483500D02*
Y-487500D01*
G01X844900Y-483500D02*
X846100D01*
G01X840300D02*
X842600D01*
G01X841500D02*
Y-487500D01*
G01X840000Y-447500D02*
X867500D01*
Y-475000D01*
X840000D01*
Y-447500D01*
G01X842500Y-450000D02*
Y-472500D01*
X865000Y-461300D01*
X842500Y-450000D01*
G01X840000Y-472500D02*
X867500D01*
G01X840000Y-473000D02*
X867500D01*
G01X840000Y-473500D02*
X867500D01*
G01X840000Y-474000D02*
X867500D01*
G01X840000Y-474500D02*
X867500D01*
G01X840000Y-471000D02*
X842500D01*
G01X840000Y-471500D02*
X842500D01*
G01X840000Y-472000D02*
X842500D01*
G01X840000Y-470500D02*
X842500D01*
G01X867500Y-472000D02*
X843500D01*
G01X867500Y-471500D02*
X844500D01*
G01X867500Y-471000D02*
X845500D01*
G01X867500Y-470500D02*
X846500D01*
G01X840000Y-448000D02*
X867500D01*
G01X840000Y-448500D02*
X867500D01*
G01X840000Y-449000D02*
X867500D01*
G01X840000Y-449500D02*
X867500D01*
G01X840000Y-450000D02*
X867500D01*
G01X840000Y-450500D02*
X842500D01*
G01X840000Y-451000D02*
X842500D01*
G01X840000Y-451500D02*
X842500D01*
G01X840000Y-452000D02*
X842500D01*
G01X840000Y-452500D02*
X842500D01*
G01X840000Y-453000D02*
X842500D01*
G01X840000Y-453500D02*
X842500D01*
G01X840000Y-454000D02*
X842500D01*
G01X840000Y-454500D02*
X842500D01*
G01X840000Y-455000D02*
X842500D01*
G01X840000Y-455500D02*
X842500D01*
G01X840000Y-456000D02*
X842500D01*
G01X840000Y-456500D02*
X842500D01*
G01X840000Y-457000D02*
X842500D01*
G01X840000Y-457500D02*
X842500D01*
G01X840000Y-458000D02*
X842500D01*
G01X840000Y-458500D02*
X842500D01*
G01X840000Y-459000D02*
X842500D01*
G01X840000Y-459500D02*
X842500D01*
G01X840000Y-460000D02*
X842500D01*
G01X840000Y-460500D02*
X842500D01*
G01X840000Y-461000D02*
X842500D01*
G01X840000Y-461500D02*
X842500D01*
G01X840000Y-462000D02*
X842500D01*
G01X840000Y-462500D02*
X842500D01*
G01X840000Y-463000D02*
X842500D01*
G01X840000Y-463500D02*
X842500D01*
G01X840000Y-469500D02*
X842500D01*
G01X840000Y-470000D02*
X842500D01*
G01X840000Y-468000D02*
X842500D01*
G01X840000Y-468500D02*
X842500D01*
G01X840000Y-469000D02*
X842500D01*
G01X840000Y-466500D02*
X842500D01*
G01X840000Y-467000D02*
X842500D01*
G01X840000Y-467500D02*
X842500D01*
G01X840000Y-465000D02*
X842500D01*
G01X840000Y-465500D02*
X842500D01*
G01X840000Y-466000D02*
X842500D01*
G01X840000Y-464000D02*
X842500D01*
G01X840000Y-464500D02*
X842500D01*
G01X867500Y-470000D02*
X847500D01*
G01X867500Y-469500D02*
X848500D01*
G01X867500Y-469000D02*
X849500D01*
G01X867500Y-468500D02*
X850500D01*
G01X867500Y-468000D02*
X851500D01*
G01X867500Y-467500D02*
X852500D01*
G01X867500Y-467000D02*
X853500D01*
G01X867500Y-466500D02*
X854500D01*
G01X867500Y-466000D02*
X855500D01*
G01X867500Y-465500D02*
X856500D01*
G01X857500Y-465000D02*
X867500D01*
G01X858500Y-464500D02*
X867500D01*
G01X859500Y-464000D02*
X867500D01*
G01X860500Y-463500D02*
X867500D01*
G01X861500Y-463000D02*
X867500D01*
G01X862500Y-462500D02*
X867500D01*
G01X863500Y-462000D02*
X867500D01*
G01X864500Y-461500D02*
X867500D01*
G01Y-461300D02*
X865000D01*
G01X864500Y-461000D02*
X867500D01*
G01X863500Y-460500D02*
X867500D01*
G01X862500Y-460000D02*
X867500D01*
G01X861500Y-459500D02*
X867500D01*
G01X860500Y-459000D02*
X867500D01*
G01X859500Y-458500D02*
X867500D01*
G01X858500Y-458000D02*
X867500D01*
G01X857500Y-457500D02*
X867500D01*
G01X856500Y-457000D02*
X867500D01*
G01X855500Y-456500D02*
X867500D01*
G01X854500Y-456000D02*
X867500D01*
G01X853500Y-455500D02*
X867500D01*
G01X852500Y-455000D02*
X867500D01*
G01X851500Y-454500D02*
X867500D01*
G01X850500Y-454000D02*
X867500D01*
G01X849500Y-453500D02*
X867500D01*
G01X848500Y-453000D02*
X867500D01*
G01X847500Y-452500D02*
X867500D01*
G01X846500Y-452000D02*
X867500D01*
G01X845500Y-451500D02*
X867500D01*
G01X844500Y-451000D02*
X867500D01*
G01X843500Y-450500D02*
X867500D01*
G01X844583Y461250D02*
Y466250D01*
X846167D01*
X846673Y466000D01*
X846990Y465667D01*
X847117Y465000D01*
X846990Y464333D01*
X846610Y463917D01*
X846167Y463667D01*
X844583D01*
G01X846167D02*
X847117Y461250D01*
G01X852217D02*
X849683D01*
Y466250D01*
X852217D01*
G01X851203Y463833D02*
X849683D01*
G01X854467Y466250D02*
X856050Y461250D01*
X857633Y466250D01*
G01X860390D02*
X861910D01*
G01X861150D02*
Y461250D01*
G01X860390D02*
X861910D01*
G01X864920Y461917D02*
X865427Y461500D01*
X865997Y461250D01*
X866503D01*
X867010Y461500D01*
X867390Y461917D01*
X867580Y462500D01*
X867453Y463083D01*
X867137Y463583D01*
X866567Y463917D01*
X865807Y464083D01*
X865363Y464417D01*
X865173Y465000D01*
X865300Y465583D01*
X865617Y466000D01*
X866060Y466250D01*
X866503D01*
X866947Y466083D01*
X867327Y465667D01*
G01X870590Y466250D02*
X872110D01*
G01X871350D02*
Y461250D01*
G01X870590D02*
X872110D01*
G01X876450D02*
X875943Y461333D01*
X875500Y461667D01*
X875120Y462167D01*
X874867Y462750D01*
X874740Y463417D01*
Y464083D01*
X874867Y464750D01*
X875120Y465333D01*
X875500Y465833D01*
X875943Y466167D01*
X876450Y466250D01*
X876957Y466167D01*
X877400Y465833D01*
X877780Y465333D01*
X878033Y464750D01*
X878160Y464083D01*
Y463417D01*
X878033Y462750D01*
X877780Y462167D01*
X877400Y461667D01*
X876957Y461333D01*
X876450Y461250D01*
G01X880093D02*
Y466250D01*
X883007Y461250D01*
Y466250D01*
G01X885320Y461917D02*
X885827Y461500D01*
X886397Y461250D01*
X886903D01*
X887410Y461500D01*
X887790Y461917D01*
X887980Y462500D01*
X887853Y463083D01*
X887537Y463583D01*
X886967Y463917D01*
X886207Y464083D01*
X885763Y464417D01*
X885573Y465000D01*
X885700Y465583D01*
X886017Y466000D01*
X886460Y466250D01*
X886903D01*
X887347Y466083D01*
X887727Y465667D01*
G01X872500Y-580000D02*
Y-595000D01*
G01X878697Y-572083D02*
X879077Y-571583D01*
X879520Y-571333D01*
X880027Y-571250D01*
X880660Y-571417D01*
X881103Y-571833D01*
X881230Y-572333D01*
X881167Y-572833D01*
X880913Y-573250D01*
X879647Y-574083D01*
X879077Y-574667D01*
X878697Y-575500D01*
X878570Y-576250D01*
X881230D01*
G01X883860Y-576417D02*
X886140Y-571250D01*
G01X890100Y-576250D02*
Y-571250D01*
X889340Y-572250D01*
G01Y-576250D02*
X890860D01*
G01X893000Y-540000D02*
X892600D01*
X892200Y-539700D01*
X891900Y-539300D01*
X891700Y-538800D01*
X891600Y-538300D01*
Y-537800D01*
X891700Y-537200D01*
X891900Y-536800D01*
X892200Y-536400D01*
X892600Y-536100D01*
X893000Y-536000D01*
X893400Y-536100D01*
X893700Y-536400D01*
X894000Y-536800D01*
X894200Y-537200D01*
X894300Y-537800D01*
Y-538300D01*
X894200Y-538800D01*
X894000Y-539300D01*
X893700Y-539700D01*
X893400Y-540000D01*
X893000D01*
G01X887800D02*
Y-536000D01*
X890100Y-540000D01*
Y-536000D01*
G01X879700Y-540000D02*
Y-536000D01*
X881000Y-539400D01*
X882300Y-536000D01*
Y-540000D01*
G01X878100Y-536400D02*
X877800Y-536200D01*
X877400Y-536000D01*
X877000D01*
X876600Y-536200D01*
X876200Y-536600D01*
X876000Y-537000D01*
X875800Y-537600D01*
X875700Y-538200D01*
X875800Y-538800D01*
X876000Y-539200D01*
X876300Y-539600D01*
X876600Y-539900D01*
X877000Y-540000D01*
X877300D01*
X877700Y-539900D01*
X878000Y-539700D01*
X878200Y-539400D01*
G01X871900Y-539500D02*
X872300Y-539800D01*
X872800Y-540000D01*
X873200D01*
X873600Y-539800D01*
X873900Y-539500D01*
X874000Y-539000D01*
X873900Y-538600D01*
X873700Y-538200D01*
X873200Y-537900D01*
X872600Y-537800D01*
X872300Y-537500D01*
X872100Y-537000D01*
X872200Y-536600D01*
X872500Y-536200D01*
X872800Y-536000D01*
X873200D01*
X873500Y-536200D01*
X873800Y-536500D01*
G01X874375Y-510000D02*
X877500Y-500000D01*
X880625Y-510000D01*
G01X879500Y-506500D02*
X875500D01*
G01X884875Y-508667D02*
X885875Y-509500D01*
X887000Y-510000D01*
X888000D01*
X889000Y-509500D01*
X889750Y-508667D01*
X890125Y-507500D01*
X889875Y-506334D01*
X889250Y-505333D01*
X888125Y-504667D01*
X886625Y-504333D01*
X885750Y-503667D01*
X885375Y-502500D01*
X885625Y-501333D01*
X886250Y-500500D01*
X887125Y-500000D01*
X888000D01*
X888875Y-500333D01*
X889625Y-501167D01*
G01X894875Y-508667D02*
X895875Y-509500D01*
X897000Y-510000D01*
X898000D01*
X899000Y-509500D01*
X899750Y-508667D01*
X900125Y-507500D01*
X899875Y-506334D01*
X899250Y-505333D01*
X898125Y-504667D01*
X896625Y-504333D01*
X895750Y-503667D01*
X895375Y-502500D01*
X895625Y-501333D01*
X896250Y-500500D01*
X897125Y-500000D01*
X898000D01*
X898875Y-500333D01*
X899625Y-501167D01*
G01X907500Y-510000D02*
Y-505500D01*
X905000Y-500000D01*
G01X910000D02*
X907500Y-505500D01*
G01X928500Y-504667D02*
X929000Y-504167D01*
X929375Y-503334D01*
X929625Y-502167D01*
X929375Y-501167D01*
X928875Y-500500D01*
X928000Y-500000D01*
X924625D01*
Y-510000D01*
X928750D01*
X929625Y-509333D01*
X930125Y-508333D01*
X930375Y-507167D01*
X930125Y-506000D01*
X929375Y-505000D01*
X928500Y-504667D01*
X924625D01*
G01X934375Y-510000D02*
X937500Y-500000D01*
X940625Y-510000D01*
G01X939500Y-506500D02*
X935500D01*
G01X944875Y-508667D02*
X945875Y-509500D01*
X947000Y-510000D01*
X948000D01*
X949000Y-509500D01*
X949750Y-508667D01*
X950125Y-507500D01*
X949875Y-506334D01*
X949250Y-505333D01*
X948125Y-504667D01*
X946625Y-504333D01*
X945750Y-503667D01*
X945375Y-502500D01*
X945625Y-501333D01*
X946250Y-500500D01*
X947125Y-500000D01*
X948000D01*
X948875Y-500333D01*
X949625Y-501167D01*
G01X960000Y-510000D02*
X955000D01*
Y-500000D01*
X960000D01*
G01X958000Y-504833D02*
X955000D01*
G01X978500Y-504667D02*
X979000Y-504167D01*
X979375Y-503334D01*
X979625Y-502167D01*
X979375Y-501167D01*
X978875Y-500500D01*
X978000Y-500000D01*
X974625D01*
Y-510000D01*
X978750D01*
X979625Y-509333D01*
X980125Y-508333D01*
X980375Y-507167D01*
X980125Y-506000D01*
X979375Y-505000D01*
X978500Y-504667D01*
X974625D01*
G01X987500Y-510000D02*
X986500Y-509833D01*
X985625Y-509167D01*
X984875Y-508167D01*
X984375Y-507000D01*
X984125Y-505667D01*
Y-504333D01*
X984375Y-503000D01*
X984875Y-501833D01*
X985625Y-500833D01*
X986500Y-500167D01*
X987500Y-500000D01*
X988500Y-500167D01*
X989375Y-500833D01*
X990125Y-501833D01*
X990625Y-503000D01*
X990875Y-504333D01*
Y-505667D01*
X990625Y-507000D01*
X990125Y-508167D01*
X989375Y-509167D01*
X988500Y-509833D01*
X987500Y-510000D01*
G01X994375D02*
X997500Y-500000D01*
X1000625Y-510000D01*
G01X999500Y-506500D02*
X995500D01*
G01X1005000Y-510000D02*
Y-500000D01*
X1008125D01*
X1009125Y-500500D01*
X1009750Y-501167D01*
X1010000Y-502500D01*
X1009750Y-503833D01*
X1009000Y-504667D01*
X1008125Y-505167D01*
X1005000D01*
G01X1008125D02*
X1010000Y-510000D01*
G01X1014750D02*
Y-500000D01*
X1017250D01*
X1018250Y-500500D01*
X1019000Y-501167D01*
X1019625Y-502167D01*
X1020125Y-503334D01*
X1020250Y-505000D01*
X1020125Y-506667D01*
X1019625Y-507833D01*
X1019000Y-508834D01*
X1018250Y-509500D01*
X1017250Y-510000D01*
X1014750D01*
G01X872500Y470000D02*
Y485000D01*
G01X932500Y-550000D02*
X931500Y-550333D01*
X930750Y-551167D01*
X930250Y-552167D01*
X929875Y-553500D01*
X929750Y-555000D01*
X929875Y-556500D01*
X930250Y-557833D01*
X930750Y-558834D01*
X931500Y-559667D01*
X932500Y-560000D01*
X933500Y-559667D01*
X934250Y-558834D01*
X934750Y-557833D01*
X935125Y-556500D01*
X935250Y-555000D01*
X935125Y-553500D01*
X934750Y-552167D01*
X934250Y-551167D01*
X933500Y-550333D01*
X932500Y-550000D01*
G01X942500Y-560000D02*
Y-550000D01*
X941000Y-552000D01*
G01Y-560000D02*
X944000D01*
G01X950875Y-556667D02*
X954125D01*
G01X962500Y-550000D02*
X961500Y-550333D01*
X960750Y-551167D01*
X960250Y-552167D01*
X959875Y-553500D01*
X959750Y-555000D01*
X959875Y-556500D01*
X960250Y-557833D01*
X960750Y-558834D01*
X961500Y-559667D01*
X962500Y-560000D01*
X963500Y-559667D01*
X964250Y-558834D01*
X964750Y-557833D01*
X965125Y-556500D01*
X965250Y-555000D01*
X965125Y-553500D01*
X964750Y-552167D01*
X964250Y-551167D01*
X963500Y-550333D01*
X962500Y-550000D01*
G01X969750Y-558000D02*
X970500Y-559167D01*
X971500Y-559833D01*
X972625Y-560000D01*
X973625Y-559833D01*
X974625Y-559000D01*
X975250Y-558000D01*
X975375Y-557000D01*
X975125Y-555834D01*
X974250Y-555000D01*
X973375Y-554667D01*
X972250D01*
G01X973375D02*
X974125Y-554167D01*
X974750Y-553334D01*
X975000Y-552333D01*
X974750Y-551333D01*
X974125Y-550500D01*
X973000Y-550000D01*
X971875Y-550167D01*
X970750Y-550833D01*
G01X984000Y-560000D02*
Y-550000D01*
X979375Y-557167D01*
X985625D01*
G01X990125Y-555834D02*
X991000Y-554667D01*
X991750Y-554000D01*
X992750Y-553667D01*
X993625Y-554000D01*
X994250Y-554667D01*
X994750Y-555667D01*
X994875Y-556833D01*
X994750Y-557833D01*
X994250Y-558834D01*
X993500Y-559667D01*
X992625Y-560000D01*
X991625Y-559667D01*
X990750Y-558667D01*
X990250Y-557167D01*
X990125Y-555500D01*
X990375Y-553334D01*
X990750Y-552167D01*
X991375Y-551000D01*
X992250Y-550167D01*
X993125Y-550000D01*
X994000Y-550333D01*
X994625Y-551167D01*
G01X1002250Y-560000D02*
X1002500Y-557833D01*
X1002875Y-556000D01*
X1003375Y-554333D01*
X1004000Y-552500D01*
X1005000Y-550000D01*
X1000000D01*
G01X1014000Y-560000D02*
Y-550000D01*
X1009375Y-557167D01*
X1015625D01*
G01X910000Y-580000D02*
Y-530000D01*
G01X929400Y-540000D02*
X930600D01*
G01X929400Y-536000D02*
X930600D01*
G01X924500D02*
X925200Y-540000D01*
X926000Y-536000D01*
X926800Y-540000D01*
X927500Y-536000D01*
G01X922800Y-538600D02*
X921200D01*
G01X920700Y-540000D02*
X922000Y-536000D01*
X923200Y-540000D01*
G01X918200Y-538100D02*
X919000Y-540000D01*
G01X917000D02*
Y-536000D01*
X918200D01*
X918600Y-536200D01*
X918900Y-536500D01*
X919000Y-537000D01*
X918900Y-537600D01*
X918600Y-537900D01*
X918200Y-538100D01*
X917000D01*
G01X912900Y-540000D02*
Y-536000D01*
X913900D01*
X914300Y-536200D01*
X914600Y-536500D01*
X914800Y-536900D01*
X915000Y-537400D01*
X915100Y-538000D01*
X915000Y-538700D01*
X914800Y-539200D01*
X914600Y-539600D01*
X914300Y-539800D01*
X913900Y-540000D01*
X912900D01*
G01X958400Y-537900D02*
X958600Y-537700D01*
X958700Y-537400D01*
X958800Y-536900D01*
X958700Y-536500D01*
X958500Y-536200D01*
X958200Y-536000D01*
X956800D01*
Y-540000D01*
X958500D01*
X958800Y-539800D01*
X959000Y-539400D01*
X959100Y-538900D01*
X959000Y-538400D01*
X958700Y-538000D01*
X958400Y-537900D01*
X956800D01*
G01X952700Y-540000D02*
Y-536000D01*
X954000Y-539400D01*
X955300Y-536000D01*
Y-540000D01*
G01X948900Y-536000D02*
Y-538900D01*
X949100Y-539500D01*
X949500Y-539900D01*
X950000Y-540000D01*
X950500Y-539900D01*
X950900Y-539500D01*
X951100Y-538900D01*
Y-536000D01*
G01X944800Y-540000D02*
Y-536000D01*
X947100Y-540000D01*
Y-536000D01*
G01X938300Y-538000D02*
X939300D01*
Y-539200D01*
X939000Y-539600D01*
X938600Y-539900D01*
X938100Y-540000D01*
X937600Y-539900D01*
X937300Y-539600D01*
X937000Y-539200D01*
X936800Y-538800D01*
X936700Y-538200D01*
Y-537800D01*
X936800Y-537400D01*
X937000Y-536900D01*
X937300Y-536500D01*
X937600Y-536200D01*
X938000Y-536000D01*
X938300D01*
X938700Y-536200D01*
X939000Y-536400D01*
G01X932800Y-540000D02*
Y-536000D01*
X935100Y-540000D01*
Y-536000D01*
G01X930000D02*
Y-540000D01*
G01X978400Y-597500D02*
Y-585000D01*
X976540Y-587500D01*
G01Y-597500D02*
X980260D01*
G01X987900Y-575700D02*
X988300Y-576100D01*
X988800Y-576300D01*
X989200D01*
X989600Y-576100D01*
X989900Y-575700D01*
X990000Y-575300D01*
X989900Y-574800D01*
X989700Y-574400D01*
X989200Y-574100D01*
X988600Y-574000D01*
X988300Y-573700D01*
X988100Y-573300D01*
X988200Y-572800D01*
X988500Y-572500D01*
X988800Y-572300D01*
X989200D01*
X989500Y-572400D01*
X989800Y-572700D01*
G01X985000Y-567500D02*
Y-580000D01*
G01X966200Y-538100D02*
X967000Y-540000D01*
G01X965000D02*
Y-536000D01*
X966200D01*
X966600Y-536200D01*
X966900Y-536500D01*
X967000Y-537000D01*
X966900Y-537600D01*
X966600Y-537900D01*
X966200Y-538100D01*
X965000D01*
G01X962200Y-538000D02*
X961000D01*
G01X963000Y-540000D02*
X961000D01*
Y-536000D01*
X963000D01*
G01X978200Y-470900D02*
X978737Y-474000D01*
X979350Y-470900D01*
X979963Y-474000D01*
X980500Y-470900D01*
G01X981990D02*
X982910D01*
G01X982450D02*
Y-474000D01*
G01X981990D02*
X982910D01*
G01X984783Y-470900D02*
Y-474000D01*
X986317D01*
G01X987653D02*
Y-470900D01*
X988650Y-473483D01*
X989647Y-470900D01*
Y-474000D01*
G01X991290Y-470900D02*
X992210D01*
G01X991750D02*
Y-474000D01*
G01X991290D02*
X992210D01*
G01X993968D02*
Y-470900D01*
X995732Y-474000D01*
Y-470900D01*
G01X998180Y-472450D02*
X998947D01*
Y-473380D01*
X998717Y-473690D01*
X998448Y-473897D01*
X998065Y-474000D01*
X997682Y-473897D01*
X997413Y-473690D01*
X997183Y-473380D01*
X997030Y-473018D01*
X996953Y-472605D01*
Y-472243D01*
X997030Y-471933D01*
X997183Y-471572D01*
X997413Y-471262D01*
X997643Y-471055D01*
X997950Y-470900D01*
X998218D01*
X998525Y-471003D01*
X998755Y-471210D01*
G01X1001050Y-470900D02*
Y-474000D01*
G01X1000168Y-470900D02*
X1001932D01*
G01X1004150Y-474000D02*
X1003843Y-473948D01*
X1003575Y-473742D01*
X1003345Y-473432D01*
X1003192Y-473070D01*
X1003115Y-472657D01*
Y-472243D01*
X1003192Y-471830D01*
X1003345Y-471468D01*
X1003575Y-471158D01*
X1003843Y-470952D01*
X1004150Y-470900D01*
X1004457Y-470952D01*
X1004725Y-471158D01*
X1004955Y-471468D01*
X1005108Y-471830D01*
X1005185Y-472243D01*
Y-472657D01*
X1005108Y-473070D01*
X1004955Y-473432D01*
X1004725Y-473742D01*
X1004457Y-473948D01*
X1004150Y-474000D01*
G01X1006368D02*
Y-470900D01*
X1008132Y-474000D01*
Y-470900D01*
G01X1010273Y-474568D02*
X1010427Y-473897D01*
G01X1015553Y-474000D02*
Y-470900D01*
X1016550Y-473483D01*
X1017547Y-470900D01*
Y-474000D01*
G01X1018692D02*
X1019650Y-470900D01*
X1020608Y-474000D01*
G01X1020263Y-472915D02*
X1019037D01*
G01X1025850Y-470900D02*
X1025543Y-471003D01*
X1025313Y-471262D01*
X1025160Y-471572D01*
X1025045Y-471985D01*
X1025007Y-472450D01*
X1025045Y-472915D01*
X1025160Y-473328D01*
X1025313Y-473638D01*
X1025543Y-473897D01*
X1025850Y-474000D01*
X1026157Y-473897D01*
X1026387Y-473638D01*
X1026540Y-473328D01*
X1026655Y-472915D01*
X1026693Y-472450D01*
X1026655Y-471985D01*
X1026540Y-471572D01*
X1026387Y-471262D01*
X1026157Y-471003D01*
X1025850Y-470900D01*
G01X1028950Y-474000D02*
Y-470900D01*
X1028490Y-471520D01*
G01Y-474000D02*
X1029410D01*
G01X1032050D02*
X1032318Y-473948D01*
X1032625Y-473793D01*
X1032817Y-473535D01*
X1032893Y-473173D01*
X1032817Y-472812D01*
X1032587Y-472502D01*
X1032242Y-472347D01*
X1031858D01*
X1031628Y-472243D01*
X1031437Y-471985D01*
X1031360Y-471623D01*
X1031475Y-471262D01*
X1031743Y-471003D01*
X1032050Y-470900D01*
X1032357Y-471003D01*
X1032625Y-471262D01*
X1032740Y-471623D01*
X1032663Y-471985D01*
X1032472Y-472243D01*
X1032242Y-472347D01*
X1031858D01*
X1031513Y-472502D01*
X1031283Y-472812D01*
X1031207Y-473173D01*
X1031283Y-473535D01*
X1031475Y-473793D01*
X1031782Y-473948D01*
X1032050Y-474000D01*
G01X1035150D02*
X1035418Y-473948D01*
X1035725Y-473793D01*
X1035917Y-473535D01*
X1035993Y-473173D01*
X1035917Y-472812D01*
X1035687Y-472502D01*
X1035342Y-472347D01*
X1034958D01*
X1034728Y-472243D01*
X1034537Y-471985D01*
X1034460Y-471623D01*
X1034575Y-471262D01*
X1034843Y-471003D01*
X1035150Y-470900D01*
X1035457Y-471003D01*
X1035725Y-471262D01*
X1035840Y-471623D01*
X1035763Y-471985D01*
X1035572Y-472243D01*
X1035342Y-472347D01*
X1034958D01*
X1034613Y-472502D01*
X1034383Y-472812D01*
X1034307Y-473173D01*
X1034383Y-473535D01*
X1034575Y-473793D01*
X1034882Y-473948D01*
X1035150Y-474000D01*
G01X1038173D02*
X1038250Y-473328D01*
X1038365Y-472760D01*
X1038518Y-472243D01*
X1038710Y-471675D01*
X1039017Y-470900D01*
X1037483D01*
G01X989557Y-460000D02*
Y-455000D01*
X990823D01*
X991330Y-455250D01*
X991710Y-455583D01*
X992027Y-456083D01*
X992280Y-456667D01*
X992343Y-457500D01*
X992280Y-458333D01*
X992027Y-458917D01*
X991710Y-459417D01*
X991330Y-459750D01*
X990823Y-460000D01*
X989557D01*
G01X995290Y-455000D02*
X996810D01*
G01X996050D02*
Y-460000D01*
G01X995290D02*
X996810D01*
G01X999567Y-455000D02*
X1001150Y-460000D01*
X1002733Y-455000D01*
G01X1005490D02*
X1007010D01*
G01X1006250D02*
Y-460000D01*
G01X1005490D02*
X1007010D01*
G01X1010020Y-459333D02*
X1010527Y-459750D01*
X1011097Y-460000D01*
X1011603D01*
X1012110Y-459750D01*
X1012490Y-459333D01*
X1012680Y-458750D01*
X1012553Y-458167D01*
X1012237Y-457667D01*
X1011667Y-457333D01*
X1010907Y-457167D01*
X1010463Y-456833D01*
X1010273Y-456250D01*
X1010400Y-455667D01*
X1010717Y-455250D01*
X1011160Y-455000D01*
X1011603D01*
X1012047Y-455167D01*
X1012427Y-455583D01*
G01X1015690Y-455000D02*
X1017210D01*
G01X1016450D02*
Y-460000D01*
G01X1015690D02*
X1017210D01*
G01X1021550D02*
X1021043Y-459917D01*
X1020600Y-459583D01*
X1020220Y-459083D01*
X1019967Y-458500D01*
X1019840Y-457833D01*
Y-457167D01*
X1019967Y-456500D01*
X1020220Y-455917D01*
X1020600Y-455417D01*
X1021043Y-455083D01*
X1021550Y-455000D01*
X1022057Y-455083D01*
X1022500Y-455417D01*
X1022880Y-455917D01*
X1023133Y-456500D01*
X1023260Y-457167D01*
Y-457833D01*
X1023133Y-458500D01*
X1022880Y-459083D01*
X1022500Y-459583D01*
X1022057Y-459917D01*
X1021550Y-460000D01*
G01X1025193D02*
Y-455000D01*
X1028107Y-460000D01*
Y-455000D01*
G01X968000Y-467500D02*
X968443Y-467417D01*
X968950Y-467167D01*
X969267Y-466750D01*
X969393Y-466167D01*
X969267Y-465583D01*
X968887Y-465083D01*
X968317Y-464833D01*
X967683D01*
X967303Y-464667D01*
X966987Y-464250D01*
X966860Y-463667D01*
X967050Y-463083D01*
X967493Y-462667D01*
X968000Y-462500D01*
X968507Y-462667D01*
X968950Y-463083D01*
X969140Y-463667D01*
X969013Y-464250D01*
X968697Y-464667D01*
X968317Y-464833D01*
X967683D01*
X967113Y-465083D01*
X966733Y-465583D01*
X966607Y-466167D01*
X966733Y-466750D01*
X967050Y-467167D01*
X967557Y-467417D01*
X968000Y-467500D01*
G01X971707Y-466500D02*
X972087Y-467083D01*
X972593Y-467417D01*
X973163Y-467500D01*
X973670Y-467417D01*
X974177Y-467000D01*
X974493Y-466500D01*
X974557Y-466000D01*
X974430Y-465417D01*
X973987Y-465000D01*
X973543Y-464833D01*
X972973D01*
G01X973543D02*
X973923Y-464583D01*
X974240Y-464167D01*
X974367Y-463667D01*
X974240Y-463167D01*
X973923Y-462750D01*
X973353Y-462500D01*
X972783Y-462583D01*
X972213Y-462917D01*
G01X978200Y-467500D02*
Y-462500D01*
X977440Y-463500D01*
G01Y-467500D02*
X978960D01*
G01X986500Y-462500D02*
X987387Y-467500D01*
X988400Y-462500D01*
X989413Y-467500D01*
X990300Y-462500D01*
G01X993500Y-467500D02*
X992993Y-467417D01*
X992550Y-467083D01*
X992170Y-466583D01*
X991917Y-466000D01*
X991790Y-465333D01*
Y-464667D01*
X991917Y-464000D01*
X992170Y-463417D01*
X992550Y-462917D01*
X992993Y-462583D01*
X993500Y-462500D01*
X994007Y-462583D01*
X994450Y-462917D01*
X994830Y-463417D01*
X995083Y-464000D01*
X995210Y-464667D01*
Y-465333D01*
X995083Y-466000D01*
X994830Y-466583D01*
X994450Y-467083D01*
X994007Y-467417D01*
X993500Y-467500D01*
G01X999107Y-464833D02*
X999360Y-464583D01*
X999550Y-464167D01*
X999677Y-463583D01*
X999550Y-463083D01*
X999297Y-462750D01*
X998853Y-462500D01*
X997143D01*
Y-467500D01*
X999233D01*
X999677Y-467167D01*
X999930Y-466667D01*
X1000057Y-466083D01*
X999930Y-465500D01*
X999550Y-465000D01*
X999107Y-464833D01*
X997143D01*
G01X1002307Y-462500D02*
Y-466083D01*
X1002560Y-466833D01*
X1003067Y-467333D01*
X1003700Y-467500D01*
X1004333Y-467333D01*
X1004840Y-466833D01*
X1005093Y-466083D01*
Y-462500D01*
G01X1007533Y-467500D02*
Y-462500D01*
X1009117D01*
X1009623Y-462750D01*
X1009940Y-463083D01*
X1010067Y-463750D01*
X1009940Y-464417D01*
X1009560Y-464833D01*
X1009117Y-465083D01*
X1007533D01*
G01X1009117D02*
X1010067Y-467500D01*
G01X1012443D02*
Y-462500D01*
X1015357Y-467500D01*
Y-462500D01*
G01X1022770Y-466833D02*
X1023277Y-467250D01*
X1023847Y-467500D01*
X1024353D01*
X1024860Y-467250D01*
X1025240Y-466833D01*
X1025430Y-466250D01*
X1025303Y-465667D01*
X1024987Y-465167D01*
X1024417Y-464833D01*
X1023657Y-464667D01*
X1023213Y-464333D01*
X1023023Y-463750D01*
X1023150Y-463167D01*
X1023467Y-462750D01*
X1023910Y-462500D01*
X1024353D01*
X1024797Y-462667D01*
X1025177Y-463083D01*
G01X1029200Y-462500D02*
Y-467500D01*
G01X1027743Y-462500D02*
X1030657D01*
G01X1033033Y-467500D02*
Y-462500D01*
X1034617D01*
X1035123Y-462750D01*
X1035440Y-463083D01*
X1035567Y-463750D01*
X1035440Y-464417D01*
X1035060Y-464833D01*
X1034617Y-465083D01*
X1033033D01*
G01X1034617D02*
X1035567Y-467500D01*
G01X1040667D02*
X1038133D01*
Y-462500D01*
X1040667D01*
G01X1039653Y-464917D02*
X1038133D01*
G01X1045767Y-467500D02*
X1043233D01*
Y-462500D01*
X1045767D01*
G01X1044753Y-464917D02*
X1043233D01*
G01X1049600Y-462500D02*
Y-467500D01*
G01X1048143Y-462500D02*
X1051057D01*
G01X968307Y436000D02*
X968687Y435417D01*
X969193Y435083D01*
X969763Y435000D01*
X970270Y435083D01*
X970777Y435500D01*
X971093Y436000D01*
X971157Y436500D01*
X971030Y437083D01*
X970587Y437500D01*
X970143Y437667D01*
X969573D01*
G01X970143D02*
X970523Y437917D01*
X970840Y438333D01*
X970967Y438833D01*
X970840Y439333D01*
X970523Y439750D01*
X969953Y440000D01*
X969383Y439917D01*
X968813Y439583D01*
G01X974800Y440000D02*
X974293Y439833D01*
X973913Y439417D01*
X973660Y438917D01*
X973470Y438250D01*
X973407Y437500D01*
X973470Y436750D01*
X973660Y436083D01*
X973913Y435583D01*
X974293Y435167D01*
X974800Y435000D01*
X975307Y435167D01*
X975687Y435583D01*
X975940Y436083D01*
X976130Y436750D01*
X976193Y437500D01*
X976130Y438250D01*
X975940Y438917D01*
X975687Y439417D01*
X975307Y439833D01*
X974800Y440000D01*
G01X979900Y435000D02*
X979393Y435083D01*
X978950Y435417D01*
X978570Y435917D01*
X978317Y436500D01*
X978190Y437167D01*
Y437833D01*
X978317Y438500D01*
X978570Y439083D01*
X978950Y439583D01*
X979393Y439917D01*
X979900Y440000D01*
X980407Y439917D01*
X980850Y439583D01*
X981230Y439083D01*
X981483Y438500D01*
X981610Y437833D01*
Y437167D01*
X981483Y436500D01*
X981230Y435917D01*
X980850Y435417D01*
X980407Y435083D01*
X979900Y435000D01*
G01X986393Y439583D02*
X986013Y439833D01*
X985570Y440000D01*
X985063D01*
X984493Y439750D01*
X984050Y439333D01*
X983733Y438833D01*
X983480Y438000D01*
X983417Y437250D01*
X983543Y436500D01*
X983733Y436000D01*
X984113Y435500D01*
X984557Y435167D01*
X985000Y435000D01*
X985443D01*
X985887Y435167D01*
X986267Y435417D01*
X986583Y435750D01*
G01X990100Y440000D02*
Y435000D01*
G01X988643Y440000D02*
X991557D01*
G01X995200Y435000D02*
Y440000D01*
X994440Y439000D01*
G01Y435000D02*
X995960D01*
G01X999097Y439167D02*
X999477Y439667D01*
X999920Y439917D01*
X1000427Y440000D01*
X1001060Y439833D01*
X1001503Y439417D01*
X1001630Y438917D01*
X1001567Y438417D01*
X1001313Y438000D01*
X1000047Y437167D01*
X999477Y436583D01*
X999097Y435750D01*
X998970Y435000D01*
X1001630D01*
G01X974707Y448750D02*
Y453750D01*
X975973D01*
X976480Y453500D01*
X976860Y453167D01*
X977177Y452667D01*
X977430Y452083D01*
X977493Y451250D01*
X977430Y450417D01*
X977177Y449833D01*
X976860Y449333D01*
X976480Y449000D01*
X975973Y448750D01*
X974707D01*
G01X979617D02*
X981200Y453750D01*
X982783Y448750D01*
G01X982213Y450500D02*
X980187D01*
G01X986300Y453750D02*
Y448750D01*
G01X984843Y453750D02*
X987757D01*
G01X992667Y448750D02*
X990133D01*
Y453750D01*
X992667D01*
G01X991653Y451333D02*
X990133D01*
G01X984600Y452700D02*
X986900D01*
G01X960000Y457500D02*
Y432500D01*
G01X978400Y475000D02*
Y487500D01*
X976540Y485000D01*
G01Y475000D02*
X980260D01*
G01X1016250Y-576300D02*
Y-571300D01*
X1015490Y-572300D01*
G01Y-576300D02*
X1017010D01*
G01X1003800Y-572300D02*
X1006100D01*
G01X1005000D02*
Y-576300D01*
G01X1001200Y-574200D02*
X1000000D01*
G01X1002000Y-576300D02*
X1000000D01*
Y-572300D01*
X1002000D01*
G01X997200Y-574200D02*
X996000D01*
G01X998000Y-576300D02*
X996000D01*
Y-572300D01*
X998000D01*
G01X994000Y-574300D02*
X991900D01*
G01X994000Y-572300D02*
Y-576300D01*
G01X991900D02*
Y-572300D01*
G01X1002117Y-452500D02*
X1003700Y-447500D01*
X1005283Y-452500D01*
G01X1004713Y-450750D02*
X1002687D01*
G01X1007470Y-451833D02*
X1007977Y-452250D01*
X1008547Y-452500D01*
X1009053D01*
X1009560Y-452250D01*
X1009940Y-451833D01*
X1010130Y-451250D01*
X1010003Y-450667D01*
X1009687Y-450167D01*
X1009117Y-449833D01*
X1008357Y-449667D01*
X1007913Y-449333D01*
X1007723Y-448750D01*
X1007850Y-448167D01*
X1008167Y-447750D01*
X1008610Y-447500D01*
X1009053D01*
X1009497Y-447667D01*
X1009877Y-448083D01*
G01X1015293Y-447917D02*
X1014913Y-447667D01*
X1014470Y-447500D01*
X1013963D01*
X1013393Y-447750D01*
X1012950Y-448167D01*
X1012633Y-448667D01*
X1012380Y-449500D01*
X1012317Y-450250D01*
X1012443Y-451000D01*
X1012633Y-451500D01*
X1013013Y-452000D01*
X1013457Y-452333D01*
X1013900Y-452500D01*
X1014343D01*
X1014787Y-452333D01*
X1015167Y-452083D01*
X1015483Y-451750D01*
G01X1013067Y448750D02*
X1014650Y453750D01*
X1016233Y448750D01*
G01X1015663Y450500D02*
X1013637D01*
G01X1018483Y448750D02*
Y453750D01*
X1020003D01*
X1020510Y453500D01*
X1020890Y452917D01*
X1021017Y452250D01*
X1020890Y451583D01*
X1020573Y451083D01*
X1020003Y450833D01*
X1018483D01*
G01X1023583Y448750D02*
Y453750D01*
X1025103D01*
X1025610Y453500D01*
X1025990Y452917D01*
X1026117Y452250D01*
X1025990Y451583D01*
X1025673Y451083D01*
X1025103Y450833D01*
X1023583D01*
G01X1028683Y448750D02*
Y453750D01*
X1030267D01*
X1030773Y453500D01*
X1031090Y453167D01*
X1031217Y452500D01*
X1031090Y451833D01*
X1030710Y451417D01*
X1030267Y451167D01*
X1028683D01*
G01X1030267D02*
X1031217Y448750D01*
G01X1035050D02*
X1034543Y448833D01*
X1034100Y449167D01*
X1033720Y449667D01*
X1033467Y450250D01*
X1033340Y450917D01*
Y451583D01*
X1033467Y452250D01*
X1033720Y452833D01*
X1034100Y453333D01*
X1034543Y453667D01*
X1035050Y453750D01*
X1035557Y453667D01*
X1036000Y453333D01*
X1036380Y452833D01*
X1036633Y452250D01*
X1036760Y451583D01*
Y450917D01*
X1036633Y450250D01*
X1036380Y449667D01*
X1036000Y449167D01*
X1035557Y448833D01*
X1035050Y448750D01*
G01X1038567Y453750D02*
X1040150Y448750D01*
X1041733Y453750D01*
G01X1046517Y448750D02*
X1043983D01*
Y453750D01*
X1046517D01*
G01X1045503Y451333D02*
X1043983D01*
G01X1048957Y448750D02*
Y453750D01*
X1050223D01*
X1050730Y453500D01*
X1051110Y453167D01*
X1051427Y452667D01*
X1051680Y452083D01*
X1051743Y451250D01*
X1051680Y450417D01*
X1051427Y449833D01*
X1051110Y449333D01*
X1050730Y449000D01*
X1050223Y448750D01*
X1048957D01*
G01X1010000Y457500D02*
Y432500D01*
G01X1040000Y-576300D02*
Y-571300D01*
X1039240Y-572300D01*
G01Y-576300D02*
X1040760D01*
G01X1044375Y-560000D02*
X1047500Y-550000D01*
X1050625Y-560000D01*
G01X1049500Y-556500D02*
X1045500D01*
G01X1030700Y-574200D02*
X1029500D01*
G01Y-576300D02*
Y-572300D01*
X1031400D01*
G01X1026500Y-576300D02*
X1026100Y-576200D01*
X1025700Y-575900D01*
X1025400Y-575500D01*
X1025200Y-575100D01*
X1025100Y-574500D01*
Y-574000D01*
X1025200Y-573500D01*
X1025400Y-573000D01*
X1025700Y-572600D01*
X1026100Y-572300D01*
X1026900D01*
X1027200Y-572600D01*
X1027500Y-573000D01*
X1027700Y-573500D01*
X1027800Y-574000D01*
Y-574500D01*
X1027700Y-575100D01*
X1027500Y-575500D01*
X1027200Y-575900D01*
X1026900Y-576200D01*
X1026500Y-576300D01*
G01X1035000Y-567500D02*
Y-530000D01*
G01X1049500Y-536000D02*
X1050700Y-540000D01*
X1052000Y-536000D01*
G01X1046900Y-538000D02*
X1045700D01*
G01X1047700Y-540000D02*
X1045700D01*
Y-536000D01*
X1047700D01*
G01X1043000Y-538100D02*
X1043700Y-540000D01*
G01X1041700D02*
Y-536000D01*
X1043000D01*
X1043400Y-536200D01*
X1043600Y-536500D01*
X1043700Y-537000D01*
X1043600Y-537600D01*
X1043300Y-537900D01*
X1043000Y-538100D01*
X1041700D01*
G01X1020603Y435000D02*
Y440000D01*
X1022250Y435833D01*
X1023897Y440000D01*
Y435000D01*
G01X1031057D02*
Y440000D01*
X1032323D01*
X1032830Y439750D01*
X1033210Y439417D01*
X1033527Y438917D01*
X1033780Y438333D01*
X1033843Y437500D01*
X1033780Y436667D01*
X1033527Y436083D01*
X1033210Y435583D01*
X1032830Y435250D01*
X1032323Y435000D01*
X1031057D01*
G01X1036157Y440000D02*
Y436417D01*
X1036410Y435667D01*
X1036917Y435167D01*
X1037550Y435000D01*
X1038183Y435167D01*
X1038690Y435667D01*
X1038943Y436417D01*
Y440000D01*
G01X1041447Y435000D02*
Y440000D01*
X1043853D01*
G01X1042967Y437583D02*
X1041447D01*
G01X1046547Y435000D02*
Y440000D01*
X1048953D01*
G01X1048067Y437583D02*
X1046547D01*
G01X1065775Y-473750D02*
X1069650Y-461250D01*
X1073525Y-473750D01*
G01X1072130Y-469375D02*
X1067170D01*
G01X1060000Y-330000D02*
X1075000D01*
G01X1070890Y-192083D02*
X1071510Y-191458D01*
X1071975Y-190417D01*
X1072285Y-188958D01*
X1071975Y-187708D01*
X1071355Y-186875D01*
X1070270Y-186250D01*
X1066085D01*
Y-198750D01*
X1071200D01*
X1072285Y-197917D01*
X1072905Y-196667D01*
X1073215Y-195208D01*
X1072905Y-193750D01*
X1071975Y-192500D01*
X1070890Y-192083D01*
X1066085D01*
G01X1078500Y-54800D02*
Y-55300D01*
X1068500D01*
Y-58300D01*
X1062000Y-55000D01*
X1068500Y-51800D01*
Y-54800D01*
X1078500D01*
G01X1079000Y-54300D02*
Y-55800D01*
X1069000D01*
Y-59000D01*
X1061200Y-55000D01*
X1069000Y-51000D01*
Y-54300D01*
X1079000D01*
G01X1079500Y-53800D02*
Y-56300D01*
X1069500D01*
Y-59800D01*
X1060700Y-55000D01*
X1069500Y-50300D01*
Y-53800D01*
X1079500D01*
G01X1080000Y-53300D02*
Y-56800D01*
X1070000D01*
Y-60500D01*
X1060000Y-55000D01*
X1070000Y-49500D01*
Y-53300D01*
X1080000D01*
G01X1066200Y-55000D02*
X1065700D01*
G01X1066500Y-54500D02*
Y-55500D01*
X1065000Y-55000D01*
X1066500Y-54500D01*
G01X1067000Y-54000D02*
Y-56000D01*
X1064200Y-55000D01*
X1067000Y-54000D01*
G01X1067500Y-53300D02*
Y-56800D01*
X1063500Y-55000D01*
X1067500Y-53300D01*
G01X1068000Y-52500D02*
Y-57500D01*
X1062700Y-55000D01*
X1068000Y-52500D01*
G01X1073060Y87708D02*
X1072130Y88333D01*
X1071045Y88750D01*
X1069805D01*
X1068410Y88125D01*
X1067325Y87083D01*
X1066550Y85833D01*
X1065930Y83750D01*
X1065775Y81875D01*
X1066085Y80000D01*
X1066550Y78750D01*
X1067480Y77500D01*
X1068565Y76667D01*
X1069650Y76250D01*
X1070735D01*
X1071820Y76667D01*
X1072750Y77291D01*
X1073525Y78125D01*
G01X1060000Y220000D02*
X1075000D01*
G01X1066240Y351250D02*
Y363750D01*
X1069340D01*
X1070580Y363125D01*
X1071510Y362292D01*
X1072285Y361042D01*
X1072905Y359583D01*
X1073060Y357500D01*
X1072905Y355417D01*
X1072285Y353958D01*
X1071510Y352708D01*
X1070580Y351875D01*
X1069340Y351250D01*
X1066240D01*
G54D11*
G01X897120Y-462620D02*
X901120Y-475120D01*
X905120Y-462620D01*
G01X892380D02*
X886000D01*
Y-475120D01*
X892380D01*
G01X873620Y-462620D02*
Y-475120D01*
X876880D01*
X878120Y-474500D01*
X879000Y-473620D01*
X879880Y-472380D01*
X880500Y-470880D01*
X880620Y-468880D01*
X880500Y-466750D01*
X879880Y-465380D01*
X879000Y-464000D01*
X878120Y-463250D01*
X876880Y-462620D01*
X873620D01*
G01X887880Y-459620D02*
Y-447120D01*
X895880Y-459620D01*
Y-447120D01*
G01X886000Y-468620D02*
X889880D01*
G01X873500Y-459620D02*
X877880Y-447120D01*
X882250Y-459620D01*
G01X875250Y-455250D02*
X880620D01*
G01X913120Y-462620D02*
Y-475120D01*
G01X911250D02*
X915000D01*
G01X928620Y-463620D02*
X927620Y-463000D01*
X926500Y-462620D01*
X925250D01*
X923880Y-463250D01*
X922750Y-464250D01*
X922000Y-465500D01*
X921380Y-467500D01*
X921120Y-469500D01*
X921500Y-471380D01*
X922000Y-472620D01*
X922880Y-473880D01*
X924000Y-474750D01*
X925120Y-475120D01*
X926250D01*
X927250Y-474750D01*
X928250Y-474120D01*
X929120Y-473250D01*
G01X903250Y-455250D02*
X908620D01*
G01X929120Y-454250D02*
Y-452500D01*
X929500Y-450880D01*
X930250Y-449380D01*
X931250Y-448120D01*
X932380Y-447380D01*
X933880Y-447120D01*
X935380Y-447380D01*
X936500Y-448120D01*
X937500Y-449380D01*
X938250Y-450880D01*
X938620Y-452500D01*
Y-454250D01*
X938250Y-455880D01*
X937500Y-457380D01*
X936500Y-458620D01*
X935380Y-459380D01*
X933880Y-459620D01*
X932380Y-459380D01*
X931250Y-458620D01*
X930120Y-457250D01*
X929500Y-455880D01*
X929120Y-454250D01*
G01X916380Y-447120D02*
Y-459620D01*
X923380D01*
G01X911250Y-462620D02*
X915000D01*
G01X901500Y-459620D02*
X905880Y-447120D01*
X910250Y-459620D01*
G01X951880Y-464120D02*
X950880Y-463000D01*
X949750Y-462620D01*
X948620D01*
X947500Y-463250D01*
X946750Y-464250D01*
X946500Y-465750D01*
X946880Y-467250D01*
X948000Y-468000D01*
X950000Y-468500D01*
X951380Y-469250D01*
X952120Y-470500D01*
X952500Y-472000D01*
X952000Y-473500D01*
X951000Y-474500D01*
X949750Y-475120D01*
X948500D01*
X947120Y-474500D01*
X945880Y-473500D01*
G01X940380Y-462620D02*
X934000D01*
Y-475120D01*
X940380D01*
G01X951500Y-448380D02*
X950500Y-447500D01*
X949120Y-447120D01*
X947880D01*
X946500Y-447750D01*
X945380Y-448620D01*
X944380Y-449880D01*
X943750Y-451120D01*
X943380Y-452500D01*
Y-454000D01*
X943620Y-455620D01*
X944380Y-457120D01*
X945380Y-458380D01*
X946500Y-459120D01*
X948380Y-459620D01*
X950120Y-459250D01*
X951380Y-458380D01*
X952380Y-457120D01*
Y-453380D01*
X948880D01*
G01X934000Y-468620D02*
X937880D01*
M02*
