G04 ================== begin FILE IDENTIFICATION RECORD ==================*
G04 Layout Name:  20_034674a.brd*
G04 Film Name:    l1_primary*
G04 File Format:  Gerber RS274X*
G04 File Origin:  Cadence Allegro 16.5-S031*
G04 Origin Date:  Tue Oct 30 13:02:00 2012*
G04 *
G04 Layer:  VIA CLASS/TOP*
G04 Layer:  PIN/TOP*
G04 Layer:  ETCH/TOP*
G04 Layer:  BOARD GEOMETRY/TOOLING_CORNERS*
G04 Layer:  BOARD GEOMETRY/LYR_TOP*
G04 Layer:  BOARD GEOMETRY/ROOT_NUMBER*
G04 *
G04 Offset:    (0.00 0.00)*
G04 Mirror:    No*
G04 Mode:      Positive*
G04 Rotation:  0*
G04 FullContactRelief:  No*
G04 UndefLineWidth:     8.00*
G04 ================== end FILE IDENTIFICATION RECORD ====================*
%FSLAX55Y55*MOIN*%
%IR0*IPPOS*OFA0.00000B0.00000*MIA0B0*SFA1.00000B1.00000*%
%ADD12R,.2X.025*%
%ADD11R,.2X.095*%
%ADD14C,.04*%
%ADD20R,.102X.087*%
%ADD13C,.025*%
%ADD18C,.065*%
%ADD19R,.065X.065*%
%ADD17R,.2X.3*%
%AMMACRO10*
4,1,36,0.0,-.02,
.003473,-.019696,
.00684,-.018794,
.01,-.017321,
.012856,-.015321,
.015321,-.012856,
.017321,-.01,
.018794,-.00684,
.019696,-.003473,
.02,0.0,
.019696,.003473,
.018794,.00684,
.017321,.01,
.015321,.012856,
.012856,.015321,
.01,.017321,
.00684,.018794,
.003473,.019696,
0.0,.02,
-.003473,.019696,
-.00684,.018794,
-.01,.017321,
-.012856,.015321,
-.015321,.012856,
-.017321,.01,
-.018794,.00684,
-.019696,.003473,
-.02,0.0,
-.019696,-.003473,
-.018794,-.00684,
-.017321,-.01,
-.015321,-.012856,
-.012856,-.015321,
-.01,-.017321,
-.00684,-.018794,
-.003473,-.019696,
0.0,-.02,
0.0*
%
%ADD10MACRO10*%
%AMMACRO16*
21,1,.043,.047,0.0,0.0,45.*%
%ADD16MACRO16*%
%ADD15R,.047X.043*%
%ADD23R,.043X.047*%
%ADD22R,.086X.024*%
%ADD24R,.028X.039*%
%ADD21R,.063X.079*%
%ADD25C,.02*%
%ADD26C,.012*%
%ADD27C,.05*%
%ADD28C,.008*%
G75*
%LPD*%
G75*
G54D10*
X-215000Y-80000D03*
Y80000D03*
X215000Y-80000D03*
Y80000D03*
G54D20*
X-72300Y60000D03*
X-52700D03*
X22700Y64500D03*
X42300D03*
X82700Y75000D03*
Y52500D03*
X102300Y75000D03*
Y52500D03*
G54D11*
X-215000Y-7250D03*
Y27250D03*
X215000Y-7250D03*
Y27250D03*
G54D21*
X-58000Y82500D03*
X-47000D03*
G54D12*
X-215000Y10000D03*
X215000D03*
G54D22*
X-35000Y70000D03*
Y85000D03*
Y80000D03*
Y75000D03*
X-10000Y45000D03*
Y50000D03*
Y55000D03*
Y60000D03*
X-15000Y70000D03*
Y85000D03*
Y80000D03*
Y75000D03*
X10000Y45000D03*
Y50000D03*
Y55000D03*
Y60000D03*
G54D13*
X-222500Y-7500D03*
X-215000D03*
X-222500Y27500D03*
X-215000D03*
X-207500Y-7500D03*
X-194000Y-1500D03*
X-207500Y27500D03*
X-175000Y-82500D03*
X-165000D03*
X-175000Y-67500D03*
Y-75000D03*
X-165000D03*
Y-67500D03*
X-174000Y10500D03*
X-167500Y67500D03*
X-177500D03*
X-167500Y82500D03*
Y75000D03*
X-177500D03*
Y82500D03*
X-130000Y-82500D03*
X-120000D03*
X-130000Y-67500D03*
X-120000D03*
Y-75000D03*
X-130000D03*
X-120000Y67500D03*
X-130000D03*
Y75000D03*
X-120000D03*
Y82500D03*
X-130000D03*
X-77500Y-82500D03*
X-67500D03*
X-77500Y-67500D03*
Y-75000D03*
X-67500D03*
Y-67500D03*
X-81500Y60000D03*
X-64000Y82500D03*
X-32500Y-82500D03*
Y-67500D03*
Y-75000D03*
X-30000Y38500D03*
X-40000D03*
X-33000Y60000D03*
X-22500Y-82500D03*
Y-67500D03*
Y-75000D03*
X-3000Y45000D03*
X-22000Y85000D03*
X-3740Y80240D03*
X0Y80500D03*
X20000Y-82500D03*
X30000D03*
X20000Y-67500D03*
Y-75000D03*
X30000D03*
Y-67500D03*
X3000Y55000D03*
X7220Y76280D03*
X27000Y85250D03*
X17500Y86000D03*
X41000Y44000D03*
Y52000D03*
X50500Y64500D03*
X70000Y-82500D03*
X80000D03*
X70000Y-67500D03*
X80000D03*
Y-75000D03*
X70000D03*
X72500Y52500D03*
Y75000D03*
X120000Y-82500D03*
Y-67500D03*
Y-75000D03*
X130000Y-82500D03*
Y-75000D03*
Y-67500D03*
X167500Y-82500D03*
X177500D03*
X167500Y-67500D03*
X177500D03*
Y-75000D03*
X167500D03*
X160000Y62500D03*
X207500Y-7500D03*
Y27500D03*
X222500Y-7500D03*
X215000D03*
X222500Y27500D03*
X215000D03*
G54D23*
X-28350Y60000D03*
X-53350Y72500D03*
X-46650D03*
X-21650Y60000D03*
X-3350Y68000D03*
X29150Y52000D03*
X3350Y68000D03*
X29150Y44000D03*
X35850Y52000D03*
Y44000D03*
X173350Y62500D03*
X166650D03*
G54D14*
X-205000Y-67500D03*
Y67500D03*
X205000Y-67500D03*
G54D24*
X0Y85720D03*
X-3740D03*
X0Y76280D03*
X-3740D03*
X3740Y85720D03*
Y76280D03*
G54D15*
X-194000Y3650D03*
Y10350D03*
X-40000Y44150D03*
Y50850D03*
X-30000Y44150D03*
Y50850D03*
X-20500Y44150D03*
Y50850D03*
X20000Y44150D03*
Y50850D03*
X22500Y83350D03*
Y76650D03*
X12500Y83350D03*
Y76650D03*
G54D25*
G01X-194000Y3650D02*
Y-1500D01*
G01X-160000Y-30000D02*
X-152500Y-37500D01*
X-57500D01*
X-50000Y-30000D01*
G01X-177631Y6869D02*
X-174000Y10500D01*
G01X-72300Y60000D02*
X-81500D01*
G01X-58000Y82500D02*
X-64000D01*
G01X-50000Y-30000D02*
X-42500Y-37500D01*
X52500D01*
X60000Y-30000D01*
G01X-30000Y44150D02*
Y38500D01*
G01X-40000Y44150D02*
Y38500D01*
G01X-28350Y60000D02*
X-33000D01*
G01X-20500Y50850D02*
Y58850D01*
X-21650Y60000D01*
G01X-15000Y75000D02*
X-20500D01*
X-21650Y73850D01*
Y60000D01*
G01X-10000Y45000D02*
X-3000D01*
G01X3740Y76280D02*
X3500Y76040D01*
Y73500D01*
X2430Y72430D01*
X-5930D01*
X-8500Y75000D01*
X-15000D01*
G01Y85000D02*
X-22000D01*
G01X-3740Y76280D02*
Y80240D01*
G01X0Y76280D02*
Y80500D01*
G01X10000Y55000D02*
X3000D01*
G01X20000Y44150D02*
X29000D01*
X29150Y44000D01*
G01X62500Y52500D02*
X47500Y37500D01*
X35000D01*
X29150Y43350D01*
Y44000D01*
G01X102300Y75000D02*
X101500D01*
X94000Y82500D01*
X28980D01*
X24480Y78000D01*
X23850D01*
X22500Y76650D01*
G01X3740Y76280D02*
X7220D01*
G01X3740D02*
Y85720D01*
G01X12500Y76650D02*
X22500D01*
G01X7220Y76280D02*
X12000D01*
X12370Y76650D01*
X12500D01*
G01X27000Y85250D02*
X24250D01*
X22500Y83500D01*
Y83350D01*
G01X17500Y86000D02*
X15500D01*
X12850Y83350D01*
X12500D01*
G01X60000Y-30000D02*
X67500Y-37500D01*
X162500D01*
X170000Y-30000D01*
G01X35850Y44000D02*
X41000D01*
G01X35850Y52000D02*
X41000D01*
G01X42300Y64500D02*
X50500D01*
G01X82700Y52500D02*
X72500D01*
G01X82700Y75000D02*
X72500D01*
G01X102300Y52500D02*
X120000D01*
G01D02*
X134700Y67200D01*
X187300D01*
G01X102300Y75000D02*
X120000D01*
G01D02*
X190000D01*
X197300Y67700D01*
Y67200D01*
G01X166650Y62500D02*
X160000D01*
G54D16*
X-177631Y6869D03*
X-182369Y2131D03*
X183131Y2631D03*
X187869Y7369D03*
G54D26*
G01X-215000Y10000D02*
X-194350D01*
X-194000Y10350D01*
G01D02*
X-190590D01*
X-182370Y2130D01*
X-182369Y2131D01*
G01X-170000Y-10000D02*
X-170240D01*
X-182370Y2130D01*
X-182369Y2131D01*
G01X-194000Y50000D02*
Y10350D01*
G01X-160000Y-10000D02*
X-60000D01*
G01X-50000D02*
X50000D01*
G01X-40000Y50850D02*
X-30000D01*
G01X-53350Y72500D02*
Y60650D01*
X-52700Y60000D01*
G01X-40000Y50850D02*
X-43550D01*
X-52700Y60000D01*
G01X-30000Y50850D02*
X-26650Y47500D01*
X-24000D01*
X-20650Y44150D01*
X-20500D01*
G01X-46650Y72500D02*
Y82150D01*
G01D02*
X-47000Y82500D01*
G01X-35000Y80000D02*
X-44500D01*
X-46650Y82150D01*
G01X-3740Y85720D02*
X-6870D01*
X-9000Y87850D01*
X-25150D01*
X-27000Y86000D01*
Y81500D01*
X-28500Y80000D01*
X-35000D01*
G01X-3350Y68000D02*
X-3500Y67850D01*
Y56500D01*
X-5000Y55000D01*
X-10000D01*
G01Y50000D02*
X-13500D01*
X-16400Y47100D01*
X-17550D01*
X-20500Y44150D01*
G01X0Y85720D02*
X-3740D01*
G01X62500Y72500D02*
X31000D01*
X23000Y64500D01*
X22700D01*
G01X20000Y50850D02*
Y61800D01*
X22700Y64500D01*
G01X29150Y52000D02*
X21150D01*
X20000Y50850D01*
G01X10000Y50000D02*
X19150D01*
X20000Y50850D01*
G01X3350Y68000D02*
X19200D01*
X22700Y64500D01*
G01X60000Y-10000D02*
X160000D01*
G01X170000D02*
X170500D01*
X183131Y2631D01*
G01X187870Y7630D02*
X170000Y25500D01*
Y47500D01*
G01X173350Y62500D02*
X183500Y52350D01*
X192150D01*
X197300Y47200D01*
G01X215000Y10000D02*
X190240D01*
X187870Y7630D01*
G01X187869Y7369D02*
X187870Y7370D01*
Y7630D01*
G54D17*
X-172500Y75000D03*
X-170000Y-75000D03*
X-125000D03*
Y75000D03*
X-72500Y-75000D03*
X-27500D03*
X25000D03*
X75000D03*
X125000D03*
X172500D03*
G54D27*
G01X-237500Y-92500D02*
X-202500D01*
G01X-227500Y-102500D02*
Y-67500D01*
G01Y102500D02*
Y67500D01*
G01X-237500Y92500D02*
X-202500D01*
G01X237500Y-92500D02*
X202500D01*
G01X237500Y92500D02*
X202500D01*
G01X227500Y-102500D02*
Y-67500D01*
G01Y102500D02*
Y67500D01*
G54D18*
X-194000Y50000D03*
X-160000Y-30000D03*
Y-20000D03*
X-170000Y-30000D03*
Y-20000D03*
X-160000Y-10000D03*
X-90000Y72500D03*
X-60000Y-30000D03*
Y-20000D03*
X-50000Y-30000D03*
Y-20000D03*
Y-10000D03*
X60000Y-30000D03*
Y-20000D03*
X50000Y-30000D03*
Y-20000D03*
X60000Y-10000D03*
X62500Y52500D03*
Y72500D03*
X120000Y52500D03*
Y75000D03*
X170000Y-30000D03*
Y-20000D03*
X160000Y-30000D03*
Y-20000D03*
X170000Y-10000D03*
Y47500D03*
X197300Y67200D03*
Y47200D03*
Y57200D03*
X187300Y47200D03*
Y57200D03*
G54D28*
G01X-55000Y142500D02*
X-56000Y142167D01*
X-56750Y141333D01*
X-57250Y140333D01*
X-57625Y139000D01*
X-57750Y137500D01*
X-57625Y136000D01*
X-57250Y134667D01*
X-56750Y133666D01*
X-56000Y132833D01*
X-55000Y132500D01*
X-54000Y132833D01*
X-53250Y133666D01*
X-52750Y134667D01*
X-52375Y136000D01*
X-52250Y137500D01*
X-52375Y139000D01*
X-52750Y140333D01*
X-53250Y141333D01*
X-54000Y142167D01*
X-55000Y142500D01*
G01X-45000Y132500D02*
X-44125Y132667D01*
X-43125Y133167D01*
X-42500Y134000D01*
X-42250Y135167D01*
X-42500Y136333D01*
X-43250Y137333D01*
X-44375Y137833D01*
X-45625D01*
X-46375Y138167D01*
X-47000Y139000D01*
X-47250Y140167D01*
X-46875Y141333D01*
X-46000Y142167D01*
X-45000Y142500D01*
X-44000Y142167D01*
X-43125Y141333D01*
X-42750Y140167D01*
X-43000Y139000D01*
X-43625Y138167D01*
X-44375Y137833D01*
X-45625D01*
X-46750Y137333D01*
X-47500Y136333D01*
X-47750Y135167D01*
X-47500Y134000D01*
X-46875Y133167D01*
X-45875Y132667D01*
X-45000Y132500D01*
G01X-36625Y135833D02*
X-33375D01*
G01X33375D02*
X36625D01*
G01X45000Y142500D02*
X44000Y142167D01*
X43250Y141333D01*
X42750Y140333D01*
X42375Y139000D01*
X42250Y137500D01*
X42375Y136000D01*
X42750Y134667D01*
X43250Y133666D01*
X44000Y132833D01*
X45000Y132500D01*
X46000Y132833D01*
X46750Y133666D01*
X47250Y134667D01*
X47625Y136000D01*
X47750Y137500D01*
X47625Y139000D01*
X47250Y140333D01*
X46750Y141333D01*
X46000Y142167D01*
X45000Y142500D01*
G01X55000Y132500D02*
Y142500D01*
X53500Y140500D01*
G01Y132500D02*
X56500D01*
G01X-47500Y162500D02*
Y152500D01*
X-42500D01*
G01X-35000D02*
Y162500D01*
X-36500Y160500D01*
G01Y152500D02*
X-33500D01*
G01X-17500D02*
Y162500D01*
X-14500D01*
X-13500Y162000D01*
X-12750Y160833D01*
X-12500Y159500D01*
X-12750Y158167D01*
X-13375Y157167D01*
X-14500Y156666D01*
X-17500D01*
G01X-7500Y152500D02*
Y162500D01*
X-4375D01*
X-3375Y162000D01*
X-2750Y161333D01*
X-2500Y160000D01*
X-2750Y158667D01*
X-3500Y157833D01*
X-4375Y157333D01*
X-7500D01*
G01X-4375D02*
X-2500Y152500D01*
G01X3500Y162500D02*
X6500D01*
G01X5000D02*
Y152500D01*
G01X3500D02*
X6500D01*
G01X11750D02*
Y162500D01*
X15000Y154167D01*
X18250Y162500D01*
Y152500D01*
G01X21875D02*
X25000Y162500D01*
X28125Y152500D01*
G01X27000Y156000D02*
X23000D01*
G01X32500Y152500D02*
Y162500D01*
X35625D01*
X36625Y162000D01*
X37250Y161333D01*
X37500Y160000D01*
X37250Y158667D01*
X36500Y157833D01*
X35625Y157333D01*
X32500D01*
G01X35625D02*
X37500Y152500D01*
G01X45000D02*
Y157000D01*
X42500Y162500D01*
G01X47500D02*
X45000Y157000D01*
G01X-22500Y112500D02*
Y122500D01*
X-19375D01*
X-18375Y122000D01*
X-17750Y121333D01*
X-17500Y120000D01*
X-17750Y118667D01*
X-18500Y117833D01*
X-19375Y117333D01*
X-22500D01*
G01X-19375D02*
X-17500Y112500D01*
G01X-7500D02*
X-12500D01*
Y122500D01*
X-7500D01*
G01X-9500Y117667D02*
X-12500D01*
G01X-3125Y122500D02*
X0Y112500D01*
X3125Y122500D01*
G01X16875Y112500D02*
X20000Y122500D01*
X23125Y112500D01*
G01X22000Y116000D02*
X18000D01*
G01X-25000Y142500D02*
X-26000Y142167D01*
X-26750Y141333D01*
X-27250Y140333D01*
X-27625Y139000D01*
X-27750Y137500D01*
X-27625Y136000D01*
X-27250Y134667D01*
X-26750Y133666D01*
X-26000Y132833D01*
X-25000Y132500D01*
X-24000Y132833D01*
X-23250Y133666D01*
X-22750Y134667D01*
X-22375Y136000D01*
X-22250Y137500D01*
X-22375Y139000D01*
X-22750Y140333D01*
X-23250Y141333D01*
X-24000Y142167D01*
X-25000Y142500D01*
G01X-17750Y134500D02*
X-17000Y133333D01*
X-16000Y132667D01*
X-14875Y132500D01*
X-13875Y132667D01*
X-12875Y133500D01*
X-12250Y134500D01*
X-12125Y135500D01*
X-12375Y136666D01*
X-13250Y137500D01*
X-14125Y137833D01*
X-15250D01*
G01X-14125D02*
X-13375Y138333D01*
X-12750Y139166D01*
X-12500Y140167D01*
X-12750Y141167D01*
X-13375Y142000D01*
X-14500Y142500D01*
X-15625Y142333D01*
X-16750Y141667D01*
G01X-3500Y132500D02*
Y142500D01*
X-8125Y135333D01*
X-1875D01*
G01X2625Y136666D02*
X3500Y137833D01*
X4250Y138500D01*
X5250Y138833D01*
X6125Y138500D01*
X6750Y137833D01*
X7250Y136833D01*
X7375Y135667D01*
X7250Y134667D01*
X6750Y133666D01*
X6000Y132833D01*
X5125Y132500D01*
X4125Y132833D01*
X3250Y133833D01*
X2750Y135333D01*
X2625Y137000D01*
X2875Y139166D01*
X3250Y140333D01*
X3875Y141500D01*
X4750Y142333D01*
X5625Y142500D01*
X6500Y142167D01*
X7125Y141333D01*
G01X14750Y132500D02*
X15000Y134667D01*
X15375Y136500D01*
X15875Y138167D01*
X16500Y140000D01*
X17500Y142500D01*
X12500D01*
G01X26500Y132500D02*
Y142500D01*
X21875Y135333D01*
X28125D01*
G54D19*
X-170000Y-10000D03*
X-60000D03*
X50000D03*
X160000D03*
X187300Y67200D03*
M02*
