G04 ================== begin FILE IDENTIFICATION RECORD ==================*
G04 Layout Name:  20_034674a.brd*
G04 Film Name:    l3_ref*
G04 File Format:  Gerber RS274X*
G04 File Origin:  Cadence Allegro 16.5-S031*
G04 Origin Date:  Tue Oct 30 13:02:00 2012*
G04 *
G04 Layer:  VIA CLASS/L3_REF*
G04 Layer:  PIN/L3_REF*
G04 Layer:  ETCH/L3_REF*
G04 Layer:  BOARD GEOMETRY/TOOLING_CORNERS*
G04 Layer:  BOARD GEOMETRY/LYR_3*
G04 Layer:  BOARD GEOMETRY/ROOT_NUMBER*
G04 *
G04 Offset:    (0.00 0.00)*
G04 Mirror:    No*
G04 Mode:      Positive*
G04 Rotation:  0*
G04 FullContactRelief:  No*
G04 UndefLineWidth:     8.00*
G04 ================== end FILE IDENTIFICATION RECORD ====================*
%FSLAX55Y55*MOIN*%
%IR0*IPPOS*OFA0.00000B0.00000*MIA0B0*SFA1.00000B1.00000*%
%ADD11C,.025*%
%ADD10C,.065*%
%ADD12C,.02*%
%ADD13C,.05*%
%ADD14C,.008*%
%ADD15C,.0454*%
%ADD17C,.0754*%
%ADD16C,.0854*%
G75*
%LPD*%
G75*
G36*
G01X-207720Y-87500D02*
G02X-208010Y-86820I-2J401D01*
G03X-221820Y-73010I-6990J6820D01*
G02X-222500Y-72720I-279J288D01*
G01Y-9770D01*
G03Y-5230I0J2270D01*
G01Y25230D01*
G03Y29770I0J2270D01*
G01Y72720D01*
G02X-221820Y73010I401J2D01*
G03X-208010Y86820I6820J6990D01*
G02X-207720Y87500I288J279D01*
G01X-23650D01*
G02X-23400Y86790I0J-399D01*
G03X-20600I1400J-1790D01*
G02X-20350Y87500I250J311D01*
G01X15070D01*
G02X15430Y86940I-4J-399D01*
G03X19570I2070J-940D01*
G02X19930Y87500I364J161D01*
G01X25080D01*
G02X25360Y86820I-5J-400D01*
G03X28640I1640J-1570D01*
G02X28920Y87500I285J280D01*
G01X207720D01*
G02X208010Y86820I2J-401D01*
G03X221820Y73010I6990J-6820D01*
G02X222500Y72720I279J-288D01*
G01Y29770D01*
G03Y25230I0J-2270D01*
G01Y-5230D01*
G03Y-9770I0J-2270D01*
G01Y-72720D01*
G02X221820Y-73010I-401J-2D01*
G03X208010Y-86820I-6820J-6990D01*
G02X207720Y-87500I-288J-279D01*
G01X-207720D01*
G37*
%LPC*%
G75*
G36*
G01X-1480Y78780D02*
G03X-2040Y78740I-260J-306D01*
G02X-2260Y81960I-1701J1501D01*
G03X-1700Y82000I260J306D01*
G02X-1480Y78780I1701J-1501D01*
G37*
G54D15*
X-215000Y-7500D03*
Y27500D03*
X-194000Y-1500D03*
X-207500Y-7500D03*
Y27500D03*
X-175000Y-82500D03*
X-165000D03*
X-175000Y-67500D03*
Y-75000D03*
X-165000D03*
Y-67500D03*
X-167500Y67500D03*
X-177500D03*
X-167500Y82500D03*
Y75000D03*
X-177500D03*
Y82500D03*
X-77500Y-82500D03*
X-67500D03*
X-77500Y-67500D03*
Y-75000D03*
X-67500D03*
Y-67500D03*
X-81500Y60000D03*
X-64000Y82500D03*
X-40000Y38500D03*
X-30000D03*
X-33000Y60000D03*
X-3000Y45000D03*
X20000Y-82500D03*
X30000D03*
X20000Y-67500D03*
Y-75000D03*
X30000D03*
Y-67500D03*
X3000Y55000D03*
X7220Y76280D03*
X50500Y64500D03*
X41000Y52000D03*
Y44000D03*
X72500Y52500D03*
Y75000D03*
X120000Y-82500D03*
Y-67500D03*
Y-75000D03*
X130000Y-82500D03*
Y-75000D03*
Y-67500D03*
X207500Y-7500D03*
Y27500D03*
X215000Y-7500D03*
Y27500D03*
G54D17*
X-170000Y-20000D03*
X-160000D03*
X-60000D03*
X-50000D03*
X60000D03*
X50000D03*
X62500Y52500D03*
X170000Y-20000D03*
X160000D03*
G54D16*
X-194000Y50000D03*
X-170000Y-30000D03*
X-160000D03*
X-170000Y-10000D03*
X-160000D03*
X-90000Y72500D03*
X-60000Y-30000D03*
Y-10000D03*
X-50000Y-30000D03*
Y-10000D03*
X60000Y-30000D03*
X50000D03*
X60000Y-10000D03*
X50000D03*
X62500Y72500D03*
X120000Y52500D03*
Y75000D03*
X170000Y-30000D03*
X160000D03*
X170000Y-10000D03*
X160000D03*
X170000Y47500D03*
X187300Y67200D03*
Y57200D03*
Y47200D03*
X197300Y57200D03*
Y47200D03*
Y67200D03*
%LPD*%
G75*
G54D10*
X-160000Y-20000D03*
X-170000D03*
X-60000D03*
X-50000D03*
X60000D03*
X50000D03*
X62500Y52500D03*
X170000Y-20000D03*
X160000D03*
G54D11*
X-174000Y10500D03*
X-130000Y-82500D03*
X-120000D03*
X-130000Y-67500D03*
X-120000D03*
Y-75000D03*
X-130000D03*
X-120000Y67500D03*
X-130000D03*
Y75000D03*
X-120000D03*
Y82500D03*
X-130000D03*
X-32500Y-82500D03*
Y-67500D03*
Y-75000D03*
X-22500Y-82500D03*
Y-67500D03*
Y-75000D03*
X70000Y-82500D03*
X80000D03*
X70000Y-67500D03*
X80000D03*
Y-75000D03*
X70000D03*
X167500Y-82500D03*
X177500D03*
X167500Y-67500D03*
X177500D03*
Y-75000D03*
X167500D03*
X160000Y62500D03*
G54D12*
G01X-160000Y-23960D02*
Y-20000D01*
G01D02*
Y-16040D01*
G01X-163960Y-20000D02*
X-160000D01*
G01D02*
X-156040D01*
G01X-170000Y-23960D02*
Y-20000D01*
G01D02*
Y-16040D01*
G01X-173960Y-20000D02*
X-170000D01*
G01D02*
X-166040D01*
G01X-60000Y-23960D02*
Y-20000D01*
G01D02*
Y-16040D01*
G01X-63960Y-20000D02*
X-60000D01*
G01D02*
X-56040D01*
G01X-50000Y-23960D02*
Y-20000D01*
G01D02*
Y-16040D01*
G01X-53960Y-20000D02*
X-50000D01*
G01D02*
X-46040D01*
G01X50000Y-23960D02*
Y-20000D01*
G01D02*
Y-16040D01*
G01X46040Y-20000D02*
X50000D01*
G01D02*
X53960D01*
G01X60000Y-23960D02*
Y-20000D01*
G01D02*
Y-16040D01*
G01X56040Y-20000D02*
X60000D01*
G01D02*
X63960D01*
G01X58540Y52500D02*
X62500D01*
G01Y48540D02*
Y52500D01*
G01D02*
Y56460D01*
G01Y52500D02*
X66460D01*
G01X160000Y-23960D02*
Y-20000D01*
G01D02*
Y-16040D01*
G01X156040Y-20000D02*
X160000D01*
G01D02*
X163960D01*
G01X170000Y-23960D02*
Y-20000D01*
G01D02*
Y-16040D01*
G01X166040Y-20000D02*
X170000D01*
G01D02*
X173960D01*
G54D13*
G01X-237500Y-92500D02*
X-202500D01*
G01X-227500Y-102500D02*
Y-67500D01*
G01Y102500D02*
Y67500D01*
G01X-237500Y92500D02*
X-202500D01*
G01X237500Y-92500D02*
X202500D01*
G01X237500Y92500D02*
X202500D01*
G01X227500Y-102500D02*
Y-67500D01*
G01Y102500D02*
Y67500D01*
G54D14*
G01X-55000Y142500D02*
X-56000Y142167D01*
X-56750Y141333D01*
X-57250Y140333D01*
X-57625Y139000D01*
X-57750Y137500D01*
X-57625Y136000D01*
X-57250Y134667D01*
X-56750Y133666D01*
X-56000Y132833D01*
X-55000Y132500D01*
X-54000Y132833D01*
X-53250Y133666D01*
X-52750Y134667D01*
X-52375Y136000D01*
X-52250Y137500D01*
X-52375Y139000D01*
X-52750Y140333D01*
X-53250Y141333D01*
X-54000Y142167D01*
X-55000Y142500D01*
G01X-45000Y132500D02*
X-44125Y132667D01*
X-43125Y133167D01*
X-42500Y134000D01*
X-42250Y135167D01*
X-42500Y136333D01*
X-43250Y137333D01*
X-44375Y137833D01*
X-45625D01*
X-46375Y138167D01*
X-47000Y139000D01*
X-47250Y140167D01*
X-46875Y141333D01*
X-46000Y142167D01*
X-45000Y142500D01*
X-44000Y142167D01*
X-43125Y141333D01*
X-42750Y140167D01*
X-43000Y139000D01*
X-43625Y138167D01*
X-44375Y137833D01*
X-45625D01*
X-46750Y137333D01*
X-47500Y136333D01*
X-47750Y135167D01*
X-47500Y134000D01*
X-46875Y133167D01*
X-45875Y132667D01*
X-45000Y132500D01*
G01X-36625Y135833D02*
X-33375D01*
G01X33375D02*
X36625D01*
G01X45000Y142500D02*
X44000Y142167D01*
X43250Y141333D01*
X42750Y140333D01*
X42375Y139000D01*
X42250Y137500D01*
X42375Y136000D01*
X42750Y134667D01*
X43250Y133666D01*
X44000Y132833D01*
X45000Y132500D01*
X46000Y132833D01*
X46750Y133666D01*
X47250Y134667D01*
X47625Y136000D01*
X47750Y137500D01*
X47625Y139000D01*
X47250Y140333D01*
X46750Y141333D01*
X46000Y142167D01*
X45000Y142500D01*
G01X55000Y132500D02*
X55875Y132667D01*
X56875Y133167D01*
X57500Y134000D01*
X57750Y135167D01*
X57500Y136333D01*
X56750Y137333D01*
X55625Y137833D01*
X54375D01*
X53625Y138167D01*
X53000Y139000D01*
X52750Y140167D01*
X53125Y141333D01*
X54000Y142167D01*
X55000Y142500D01*
X56000Y142167D01*
X56875Y141333D01*
X57250Y140167D01*
X57000Y139000D01*
X56375Y138167D01*
X55625Y137833D01*
X54375D01*
X53250Y137333D01*
X52500Y136333D01*
X52250Y135167D01*
X52500Y134000D01*
X53125Y133167D01*
X54125Y132667D01*
X55000Y132500D01*
G01X-37500Y162500D02*
Y152500D01*
X-32500D01*
G01X-25000D02*
Y157000D01*
X-27500Y162500D01*
G01X-22500D02*
X-25000Y157000D01*
G01X-17500Y152500D02*
Y162500D01*
X-14375D01*
X-13375Y162000D01*
X-12750Y161333D01*
X-12500Y160000D01*
X-12750Y158667D01*
X-13500Y157833D01*
X-14375Y157333D01*
X-17500D01*
G01X-14375D02*
X-12500Y152500D01*
G01X-7750Y154500D02*
X-7000Y153333D01*
X-6000Y152667D01*
X-4875Y152500D01*
X-3875Y152667D01*
X-2875Y153500D01*
X-2250Y154500D01*
X-2125Y155500D01*
X-2375Y156666D01*
X-3250Y157500D01*
X-4125Y157833D01*
X-5250D01*
G01X-4125D02*
X-3375Y158333D01*
X-2750Y159166D01*
X-2500Y160167D01*
X-2750Y161167D01*
X-3375Y162000D01*
X-4500Y162500D01*
X-5625Y162333D01*
X-6750Y161667D01*
G01X12500Y152500D02*
Y162500D01*
X15625D01*
X16625Y162000D01*
X17250Y161333D01*
X17500Y160000D01*
X17250Y158667D01*
X16500Y157833D01*
X15625Y157333D01*
X12500D01*
G01X15625D02*
X17500Y152500D01*
G01X27500D02*
X22500D01*
Y162500D01*
X27500D01*
G01X25500Y157667D02*
X22500D01*
G01X32625Y152500D02*
Y162500D01*
X37375D01*
G01X35625Y157667D02*
X32625D01*
G01X-22500Y112500D02*
Y122500D01*
X-19375D01*
X-18375Y122000D01*
X-17750Y121333D01*
X-17500Y120000D01*
X-17750Y118667D01*
X-18500Y117833D01*
X-19375Y117333D01*
X-22500D01*
G01X-19375D02*
X-17500Y112500D01*
G01X-7500D02*
X-12500D01*
Y122500D01*
X-7500D01*
G01X-9500Y117667D02*
X-12500D01*
G01X-3125Y122500D02*
X0Y112500D01*
X3125Y122500D01*
G01X16875Y112500D02*
X20000Y122500D01*
X23125Y112500D01*
G01X22000Y116000D02*
X18000D01*
G01X-25000Y142500D02*
X-26000Y142167D01*
X-26750Y141333D01*
X-27250Y140333D01*
X-27625Y139000D01*
X-27750Y137500D01*
X-27625Y136000D01*
X-27250Y134667D01*
X-26750Y133666D01*
X-26000Y132833D01*
X-25000Y132500D01*
X-24000Y132833D01*
X-23250Y133666D01*
X-22750Y134667D01*
X-22375Y136000D01*
X-22250Y137500D01*
X-22375Y139000D01*
X-22750Y140333D01*
X-23250Y141333D01*
X-24000Y142167D01*
X-25000Y142500D01*
G01X-17750Y134500D02*
X-17000Y133333D01*
X-16000Y132667D01*
X-14875Y132500D01*
X-13875Y132667D01*
X-12875Y133500D01*
X-12250Y134500D01*
X-12125Y135500D01*
X-12375Y136666D01*
X-13250Y137500D01*
X-14125Y137833D01*
X-15250D01*
G01X-14125D02*
X-13375Y138333D01*
X-12750Y139166D01*
X-12500Y140167D01*
X-12750Y141167D01*
X-13375Y142000D01*
X-14500Y142500D01*
X-15625Y142333D01*
X-16750Y141667D01*
G01X-3500Y132500D02*
Y142500D01*
X-8125Y135333D01*
X-1875D01*
G01X2625Y136666D02*
X3500Y137833D01*
X4250Y138500D01*
X5250Y138833D01*
X6125Y138500D01*
X6750Y137833D01*
X7250Y136833D01*
X7375Y135667D01*
X7250Y134667D01*
X6750Y133666D01*
X6000Y132833D01*
X5125Y132500D01*
X4125Y132833D01*
X3250Y133833D01*
X2750Y135333D01*
X2625Y137000D01*
X2875Y139166D01*
X3250Y140333D01*
X3875Y141500D01*
X4750Y142333D01*
X5625Y142500D01*
X6500Y142167D01*
X7125Y141333D01*
G01X14750Y132500D02*
X15000Y134667D01*
X15375Y136500D01*
X15875Y138167D01*
X16500Y140000D01*
X17500Y142500D01*
X12500D01*
G01X26500Y132500D02*
Y142500D01*
X21875Y135333D01*
X28125D01*
M02*
