G04 ================== begin FILE IDENTIFICATION RECORD ==================*
G04 Layout Name:  20_034674a.brd*
G04 Film Name:    l4_secondary*
G04 File Format:  Gerber RS274X*
G04 File Origin:  Cadence Allegro 16.5-S031*
G04 Origin Date:  Tue Oct 30 13:02:00 2012*
G04 *
G04 Layer:  VIA CLASS/BOTTOM*
G04 Layer:  PIN/BOTTOM*
G04 Layer:  ETCH/BOTTOM*
G04 Layer:  BOARD GEOMETRY/TOOLING_CORNERS*
G04 Layer:  BOARD GEOMETRY/LYR_BOTTOM*
G04 Layer:  BOARD GEOMETRY/ROOT_NUMBER*
G04 *
G04 Offset:    (0.00 0.00)*
G04 Mirror:    No*
G04 Mode:      Positive*
G04 Rotation:  0*
G04 FullContactRelief:  No*
G04 UndefLineWidth:     8.00*
G04 ================== end FILE IDENTIFICATION RECORD ====================*
%FSLAX55Y55*MOIN*%
%IR0*IPPOS*OFA0.00000B0.00000*MIA0B0*SFA1.00000B1.00000*%
%ADD11R,.2X.095*%
%ADD12C,.025*%
%ADD14C,.065*%
%ADD15R,.065X.065*%
%ADD13R,.2X.3*%
%AMMACRO10*
4,1,36,0.0,-.02,
.003473,-.019696,
.00684,-.018794,
.01,-.017321,
.012856,-.015321,
.015321,-.012856,
.017321,-.01,
.018794,-.00684,
.019696,-.003473,
.02,0.0,
.019696,.003473,
.018794,.00684,
.017321,.01,
.015321,.012856,
.012856,.015321,
.01,.017321,
.00684,.018794,
.003473,.019696,
0.0,.02,
-.003473,.019696,
-.00684,.018794,
-.01,.017321,
-.012856,.015321,
-.015321,.012856,
-.017321,.01,
-.018794,.00684,
-.019696,.003473,
-.02,0.0,
-.019696,-.003473,
-.018794,-.00684,
-.017321,-.01,
-.015321,-.012856,
-.012856,-.015321,
-.01,-.017321,
-.00684,-.018794,
-.003473,-.019696,
0.0,-.02,
0.0*
%
%ADD10MACRO10*%
%ADD16C,.02*%
%ADD17C,.05*%
%ADD18C,.008*%
G75*
%LPD*%
G75*
G54D10*
X-215000Y-80000D03*
Y80000D03*
X215000Y-80000D03*
Y80000D03*
G54D11*
X-215000Y-7250D03*
Y27250D03*
X215000Y-7250D03*
Y27250D03*
G54D12*
X-222500Y-7500D03*
X-215000D03*
X-222500Y27500D03*
X-215000D03*
X-207500Y-7500D03*
X-194000Y-1500D03*
X-207500Y27500D03*
X-175000Y-82500D03*
X-165000D03*
X-175000Y-67500D03*
Y-75000D03*
X-165000D03*
Y-67500D03*
X-174000Y10500D03*
X-167500Y67500D03*
X-177500D03*
X-167500Y82500D03*
Y75000D03*
X-177500D03*
Y82500D03*
X-130000Y-82500D03*
X-120000D03*
X-130000Y-67500D03*
X-120000D03*
Y-75000D03*
X-130000D03*
X-120000Y67500D03*
X-130000D03*
Y75000D03*
X-120000D03*
Y82500D03*
X-130000D03*
X-77500Y-82500D03*
X-67500D03*
X-77500Y-67500D03*
Y-75000D03*
X-67500D03*
Y-67500D03*
X-81500Y60000D03*
X-64000Y82500D03*
X-32500Y-82500D03*
Y-67500D03*
Y-75000D03*
X-30000Y38500D03*
X-40000D03*
X-33000Y60000D03*
X-22500Y-82500D03*
Y-67500D03*
Y-75000D03*
X-3000Y45000D03*
X-22000Y85000D03*
X-3740Y80240D03*
X0Y80500D03*
X20000Y-82500D03*
X30000D03*
X20000Y-67500D03*
Y-75000D03*
X30000D03*
Y-67500D03*
X3000Y55000D03*
X7220Y76280D03*
X27000Y85250D03*
X17500Y86000D03*
X41000Y44000D03*
Y52000D03*
X50500Y64500D03*
X70000Y-82500D03*
X80000D03*
X70000Y-67500D03*
X80000D03*
Y-75000D03*
X70000D03*
X72500Y52500D03*
Y75000D03*
X120000Y-82500D03*
Y-67500D03*
Y-75000D03*
X130000Y-82500D03*
Y-75000D03*
Y-67500D03*
X167500Y-82500D03*
X177500D03*
X167500Y-67500D03*
X177500D03*
Y-75000D03*
X167500D03*
X160000Y62500D03*
X207500Y-7500D03*
Y27500D03*
X222500Y-7500D03*
X215000D03*
X222500Y27500D03*
X215000D03*
G54D13*
X-172500Y75000D03*
X-170000Y-75000D03*
X-125000D03*
Y75000D03*
X-72500Y-75000D03*
X-27500D03*
X25000D03*
X75000D03*
X125000D03*
X172500D03*
G54D14*
X-194000Y50000D03*
X-160000Y-30000D03*
Y-20000D03*
X-170000Y-30000D03*
Y-20000D03*
X-160000Y-10000D03*
X-90000Y72500D03*
X-60000Y-30000D03*
Y-20000D03*
X-50000Y-30000D03*
Y-20000D03*
Y-10000D03*
X60000Y-30000D03*
Y-20000D03*
X50000Y-30000D03*
Y-20000D03*
X60000Y-10000D03*
X62500Y52500D03*
Y72500D03*
X120000Y52500D03*
Y75000D03*
X170000Y-30000D03*
Y-20000D03*
X160000Y-30000D03*
Y-20000D03*
X170000Y-10000D03*
Y47500D03*
X197300Y67200D03*
Y47200D03*
Y57200D03*
X187300Y47200D03*
Y57200D03*
G54D15*
X-170000Y-10000D03*
X-60000D03*
X50000D03*
X160000D03*
X187300Y67200D03*
G54D16*
G01X-60000Y-30000D02*
X-67500Y-37500D01*
X-162500D01*
X-170000Y-30000D01*
G01X50000D02*
X42500Y-37500D01*
X-52500D01*
X-60000Y-30000D01*
G01X7220Y76280D02*
X3000Y72060D01*
Y55000D01*
G01X160000Y-30000D02*
X152500Y-37500D01*
X57500D01*
X50000Y-30000D01*
G01X197300Y67200D02*
X197800D01*
X205000Y60000D01*
Y40000D01*
X189500Y24500D01*
Y-23000D01*
X175000Y-37500D01*
X167500D01*
X160000Y-30000D01*
G01X187300Y67200D02*
X180000Y59900D01*
Y-20000D01*
X170000Y-30000D01*
G54D17*
G01X-237500Y-92500D02*
X-202500D01*
G01X-227500Y-102500D02*
Y-67500D01*
G01Y102500D02*
Y67500D01*
G01X-237500Y92500D02*
X-202500D01*
G01X237500Y-92500D02*
X202500D01*
G01X237500Y92500D02*
X202500D01*
G01X227500Y-102500D02*
Y-67500D01*
G01Y102500D02*
Y67500D01*
G54D18*
G01X-55000Y142500D02*
X-56000Y142167D01*
X-56750Y141333D01*
X-57250Y140333D01*
X-57625Y139000D01*
X-57750Y137500D01*
X-57625Y136000D01*
X-57250Y134667D01*
X-56750Y133666D01*
X-56000Y132833D01*
X-55000Y132500D01*
X-54000Y132833D01*
X-53250Y133666D01*
X-52750Y134667D01*
X-52375Y136000D01*
X-52250Y137500D01*
X-52375Y139000D01*
X-52750Y140333D01*
X-53250Y141333D01*
X-54000Y142167D01*
X-55000Y142500D01*
G01X-45000Y132500D02*
X-44125Y132667D01*
X-43125Y133167D01*
X-42500Y134000D01*
X-42250Y135167D01*
X-42500Y136333D01*
X-43250Y137333D01*
X-44375Y137833D01*
X-45625D01*
X-46375Y138167D01*
X-47000Y139000D01*
X-47250Y140167D01*
X-46875Y141333D01*
X-46000Y142167D01*
X-45000Y142500D01*
X-44000Y142167D01*
X-43125Y141333D01*
X-42750Y140167D01*
X-43000Y139000D01*
X-43625Y138167D01*
X-44375Y137833D01*
X-45625D01*
X-46750Y137333D01*
X-47500Y136333D01*
X-47750Y135167D01*
X-47500Y134000D01*
X-46875Y133167D01*
X-45875Y132667D01*
X-45000Y132500D01*
G01X-36625Y135833D02*
X-33375D01*
G01X33375D02*
X36625D01*
G01X45000Y142500D02*
X44000Y142167D01*
X43250Y141333D01*
X42750Y140333D01*
X42375Y139000D01*
X42250Y137500D01*
X42375Y136000D01*
X42750Y134667D01*
X43250Y133666D01*
X44000Y132833D01*
X45000Y132500D01*
X46000Y132833D01*
X46750Y133666D01*
X47250Y134667D01*
X47625Y136000D01*
X47750Y137500D01*
X47625Y139000D01*
X47250Y140333D01*
X46750Y141333D01*
X46000Y142167D01*
X45000Y142500D01*
G01X52625Y140833D02*
X53375Y141833D01*
X54250Y142333D01*
X55250Y142500D01*
X56500Y142167D01*
X57375Y141333D01*
X57625Y140333D01*
X57500Y139333D01*
X57000Y138500D01*
X54500Y136833D01*
X53375Y135667D01*
X52625Y134000D01*
X52375Y132500D01*
X57625D01*
G01X-57500Y162500D02*
Y152500D01*
X-52500D01*
G01X-43500D02*
Y162500D01*
X-48125Y155333D01*
X-41875D01*
G01X-27625Y153833D02*
X-26625Y153000D01*
X-25500Y152500D01*
X-24500D01*
X-23500Y153000D01*
X-22750Y153833D01*
X-22375Y155000D01*
X-22625Y156166D01*
X-23250Y157167D01*
X-24375Y157833D01*
X-25875Y158167D01*
X-26750Y158833D01*
X-27125Y160000D01*
X-26875Y161167D01*
X-26250Y162000D01*
X-25375Y162500D01*
X-24500D01*
X-23625Y162167D01*
X-22875Y161333D01*
G01X-12500Y152500D02*
X-17500D01*
Y162500D01*
X-12500D01*
G01X-14500Y157667D02*
X-17500D01*
G01X-2250Y161667D02*
X-3000Y162167D01*
X-3875Y162500D01*
X-4875D01*
X-6000Y162000D01*
X-6875Y161167D01*
X-7500Y160167D01*
X-8000Y158500D01*
X-8125Y157000D01*
X-7875Y155500D01*
X-7500Y154500D01*
X-6750Y153500D01*
X-5875Y152833D01*
X-5000Y152500D01*
X-4125D01*
X-3250Y152833D01*
X-2500Y153333D01*
X-1875Y154000D01*
G01X5000Y152500D02*
X4000Y152667D01*
X3125Y153333D01*
X2375Y154333D01*
X1875Y155500D01*
X1625Y156833D01*
Y158167D01*
X1875Y159500D01*
X2375Y160667D01*
X3125Y161667D01*
X4000Y162333D01*
X5000Y162500D01*
X6000Y162333D01*
X6875Y161667D01*
X7625Y160667D01*
X8125Y159500D01*
X8375Y158167D01*
Y156833D01*
X8125Y155500D01*
X7625Y154333D01*
X6875Y153333D01*
X6000Y152667D01*
X5000Y152500D01*
G01X12125D02*
Y162500D01*
X17875Y152500D01*
Y162500D01*
G01X22250Y152500D02*
Y162500D01*
X24750D01*
X25750Y162000D01*
X26500Y161333D01*
X27125Y160333D01*
X27625Y159166D01*
X27750Y157500D01*
X27625Y155833D01*
X27125Y154667D01*
X26500Y153666D01*
X25750Y153000D01*
X24750Y152500D01*
X22250D01*
G01X31875D02*
X35000Y162500D01*
X38125Y152500D01*
G01X37000Y156000D02*
X33000D01*
G01X42500Y152500D02*
Y162500D01*
X45625D01*
X46625Y162000D01*
X47250Y161333D01*
X47500Y160000D01*
X47250Y158667D01*
X46500Y157833D01*
X45625Y157333D01*
X42500D01*
G01X45625D02*
X47500Y152500D01*
G01X55000D02*
Y157000D01*
X52500Y162500D01*
G01X57500D02*
X55000Y157000D01*
G01X-22500Y112500D02*
Y122500D01*
X-19375D01*
X-18375Y122000D01*
X-17750Y121333D01*
X-17500Y120000D01*
X-17750Y118667D01*
X-18500Y117833D01*
X-19375Y117333D01*
X-22500D01*
G01X-19375D02*
X-17500Y112500D01*
G01X-7500D02*
X-12500D01*
Y122500D01*
X-7500D01*
G01X-9500Y117667D02*
X-12500D01*
G01X-3125Y122500D02*
X0Y112500D01*
X3125Y122500D01*
G01X16875Y112500D02*
X20000Y122500D01*
X23125Y112500D01*
G01X22000Y116000D02*
X18000D01*
G01X-25000Y142500D02*
X-26000Y142167D01*
X-26750Y141333D01*
X-27250Y140333D01*
X-27625Y139000D01*
X-27750Y137500D01*
X-27625Y136000D01*
X-27250Y134667D01*
X-26750Y133666D01*
X-26000Y132833D01*
X-25000Y132500D01*
X-24000Y132833D01*
X-23250Y133666D01*
X-22750Y134667D01*
X-22375Y136000D01*
X-22250Y137500D01*
X-22375Y139000D01*
X-22750Y140333D01*
X-23250Y141333D01*
X-24000Y142167D01*
X-25000Y142500D01*
G01X-17750Y134500D02*
X-17000Y133333D01*
X-16000Y132667D01*
X-14875Y132500D01*
X-13875Y132667D01*
X-12875Y133500D01*
X-12250Y134500D01*
X-12125Y135500D01*
X-12375Y136666D01*
X-13250Y137500D01*
X-14125Y137833D01*
X-15250D01*
G01X-14125D02*
X-13375Y138333D01*
X-12750Y139166D01*
X-12500Y140167D01*
X-12750Y141167D01*
X-13375Y142000D01*
X-14500Y142500D01*
X-15625Y142333D01*
X-16750Y141667D01*
G01X-3500Y132500D02*
Y142500D01*
X-8125Y135333D01*
X-1875D01*
G01X2625Y136666D02*
X3500Y137833D01*
X4250Y138500D01*
X5250Y138833D01*
X6125Y138500D01*
X6750Y137833D01*
X7250Y136833D01*
X7375Y135667D01*
X7250Y134667D01*
X6750Y133666D01*
X6000Y132833D01*
X5125Y132500D01*
X4125Y132833D01*
X3250Y133833D01*
X2750Y135333D01*
X2625Y137000D01*
X2875Y139166D01*
X3250Y140333D01*
X3875Y141500D01*
X4750Y142333D01*
X5625Y142500D01*
X6500Y142167D01*
X7125Y141333D01*
G01X14750Y132500D02*
X15000Y134667D01*
X15375Y136500D01*
X15875Y138167D01*
X16500Y140000D01*
X17500Y142500D01*
X12500D01*
G01X26500Y132500D02*
Y142500D01*
X21875Y135333D01*
X28125D01*
M02*
