G04 ================== begin FILE IDENTIFICATION RECORD ==================*
G04 Layout Name:  20_034674a.brd*
G04 Film Name:    mask_sec*
G04 File Format:  Gerber RS274X*
G04 File Origin:  Cadence Allegro 16.5-S031*
G04 Origin Date:  Tue Oct 30 13:02:00 2012*
G04 *
G04 Layer:  PIN/SOLDERMASK_BOTTOM*
G04 Layer:  PACKAGE GEOMETRY/SOLDERMASK_BOTTOM*
G04 Layer:  BOARD GEOMETRY/TOOLING_CORNERS*
G04 Layer:  BOARD GEOMETRY/SOLDERMASK_BOTTOM*
G04 Layer:  BOARD GEOMETRY/ROOT_NUMBER*
G04 *
G04 Offset:    (0.00 0.00)*
G04 Mirror:    No*
G04 Mode:      Positive*
G04 Rotation:  0*
G04 FullContactRelief:  No*
G04 UndefLineWidth:     8.00*
G04 ================== end FILE IDENTIFICATION RECORD ====================*
%FSLAX55Y55*MOIN*%
%IR0*IPPOS*OFA0.00000B0.00000*MIA0B0*SFA1.00000B1.00000*%
%ADD13C,.07*%
%ADD14R,.07X.07*%
%ADD12R,.2X.3*%
%ADD11R,.205X.1*%
%ADD10C,.145*%
%ADD15C,.05*%
%ADD16C,.008*%
G75*
%LPD*%
G75*
G54D10*
X-215000Y-80000D03*
Y80000D03*
X215000Y-80000D03*
Y80000D03*
G54D11*
X-215000Y-7250D03*
Y27250D03*
X215000Y-7250D03*
Y27250D03*
G54D12*
X-172500Y75000D03*
X-170000Y-75000D03*
X-125000D03*
Y75000D03*
X-72500Y-75000D03*
X-27500D03*
X25000D03*
X75000D03*
X125000D03*
X172500D03*
G54D13*
X-194000Y50000D03*
X-160000Y-30000D03*
Y-20000D03*
X-170000Y-30000D03*
Y-20000D03*
X-160000Y-10000D03*
X-90000Y72500D03*
X-60000Y-30000D03*
Y-20000D03*
X-50000Y-30000D03*
Y-20000D03*
Y-10000D03*
X60000Y-30000D03*
Y-20000D03*
X50000Y-30000D03*
Y-20000D03*
X60000Y-10000D03*
X62500Y52500D03*
Y72500D03*
X120000Y52500D03*
Y75000D03*
X170000Y-30000D03*
Y-20000D03*
X160000Y-30000D03*
Y-20000D03*
X170000Y-10000D03*
Y47500D03*
X197300Y67200D03*
Y47200D03*
Y57200D03*
X187300Y47200D03*
Y57200D03*
G54D14*
X-170000Y-10000D03*
X-60000D03*
X50000D03*
X160000D03*
X187300Y67200D03*
G54D15*
G01X-237500Y-92500D02*
X-202500D01*
G01X-227500Y-102500D02*
Y-67500D01*
G01Y102500D02*
Y67500D01*
G01X-237500Y92500D02*
X-202500D01*
G01X237500Y-92500D02*
X202500D01*
G01X237500Y92500D02*
X202500D01*
G01X227500Y-102500D02*
Y-67500D01*
G01Y102500D02*
Y67500D01*
G54D16*
G01X-97625Y153833D02*
X-96625Y153000D01*
X-95500Y152500D01*
X-94500D01*
X-93500Y153000D01*
X-92750Y153833D01*
X-92375Y155000D01*
X-92625Y156166D01*
X-93250Y157167D01*
X-94375Y157833D01*
X-95875Y158167D01*
X-96750Y158833D01*
X-97125Y160000D01*
X-96875Y161167D01*
X-96250Y162000D01*
X-95375Y162500D01*
X-94500D01*
X-93625Y162167D01*
X-92875Y161333D01*
G01X-85000Y152500D02*
X-86000Y152667D01*
X-86875Y153333D01*
X-87625Y154333D01*
X-88125Y155500D01*
X-88375Y156833D01*
Y158167D01*
X-88125Y159500D01*
X-87625Y160667D01*
X-86875Y161667D01*
X-86000Y162333D01*
X-85000Y162500D01*
X-84000Y162333D01*
X-83125Y161667D01*
X-82375Y160667D01*
X-81875Y159500D01*
X-81625Y158167D01*
Y156833D01*
X-81875Y155500D01*
X-82375Y154333D01*
X-83125Y153333D01*
X-84000Y152667D01*
X-85000Y152500D01*
G01X-77500Y162500D02*
Y152500D01*
X-72500D01*
G01X-67750D02*
Y162500D01*
X-65250D01*
X-64250Y162000D01*
X-63500Y161333D01*
X-62875Y160333D01*
X-62375Y159166D01*
X-62250Y157500D01*
X-62375Y155833D01*
X-62875Y154667D01*
X-63500Y153666D01*
X-64250Y153000D01*
X-65250Y152500D01*
X-67750D01*
G01X-52500D02*
X-57500D01*
Y162500D01*
X-52500D01*
G01X-54500Y157667D02*
X-57500D01*
G01X-47500Y152500D02*
Y162500D01*
X-44375D01*
X-43375Y162000D01*
X-42750Y161333D01*
X-42500Y160000D01*
X-42750Y158667D01*
X-43500Y157833D01*
X-44375Y157333D01*
X-47500D01*
G01X-44375D02*
X-42500Y152500D01*
G01X-38250D02*
Y162500D01*
X-35000Y154167D01*
X-31750Y162500D01*
Y152500D01*
G01X-28125D02*
X-25000Y162500D01*
X-21875Y152500D01*
G01X-23000Y156000D02*
X-27000D01*
G01X-17625Y153833D02*
X-16625Y153000D01*
X-15500Y152500D01*
X-14500D01*
X-13500Y153000D01*
X-12750Y153833D01*
X-12375Y155000D01*
X-12625Y156166D01*
X-13250Y157167D01*
X-14375Y157833D01*
X-15875Y158167D01*
X-16750Y158833D01*
X-17125Y160000D01*
X-16875Y161167D01*
X-16250Y162000D01*
X-15375Y162500D01*
X-14500D01*
X-13625Y162167D01*
X-12875Y161333D01*
G01X-7750Y152500D02*
Y162500D01*
G01X-3000D02*
X-7750Y156333D01*
G01X-2250Y152500D02*
X-5625Y159166D01*
G01X12375Y153833D02*
X13375Y153000D01*
X14500Y152500D01*
X15500D01*
X16500Y153000D01*
X17250Y153833D01*
X17625Y155000D01*
X17375Y156166D01*
X16750Y157167D01*
X15625Y157833D01*
X14125Y158167D01*
X13250Y158833D01*
X12875Y160000D01*
X13125Y161167D01*
X13750Y162000D01*
X14625Y162500D01*
X15500D01*
X16375Y162167D01*
X17125Y161333D01*
G01X27500Y152500D02*
X22500D01*
Y162500D01*
X27500D01*
G01X25500Y157667D02*
X22500D01*
G01X37750Y161667D02*
X37000Y162167D01*
X36125Y162500D01*
X35125D01*
X34000Y162000D01*
X33125Y161167D01*
X32500Y160167D01*
X32000Y158500D01*
X31875Y157000D01*
X32125Y155500D01*
X32500Y154500D01*
X33250Y153500D01*
X34125Y152833D01*
X35000Y152500D01*
X35875D01*
X36750Y152833D01*
X37500Y153333D01*
X38125Y154000D01*
G01X45000Y152500D02*
X44000Y152667D01*
X43125Y153333D01*
X42375Y154333D01*
X41875Y155500D01*
X41625Y156833D01*
Y158167D01*
X41875Y159500D01*
X42375Y160667D01*
X43125Y161667D01*
X44000Y162333D01*
X45000Y162500D01*
X46000Y162333D01*
X46875Y161667D01*
X47625Y160667D01*
X48125Y159500D01*
X48375Y158167D01*
Y156833D01*
X48125Y155500D01*
X47625Y154333D01*
X46875Y153333D01*
X46000Y152667D01*
X45000Y152500D01*
G01X52125D02*
Y162500D01*
X57875Y152500D01*
Y162500D01*
G01X62250Y152500D02*
Y162500D01*
X64750D01*
X65750Y162000D01*
X66500Y161333D01*
X67125Y160333D01*
X67625Y159166D01*
X67750Y157500D01*
X67625Y155833D01*
X67125Y154667D01*
X66500Y153666D01*
X65750Y153000D01*
X64750Y152500D01*
X62250D01*
G01X71875D02*
X75000Y162500D01*
X78125Y152500D01*
G01X77000Y156000D02*
X73000D01*
G01X82500Y152500D02*
Y162500D01*
X85625D01*
X86625Y162000D01*
X87250Y161333D01*
X87500Y160000D01*
X87250Y158667D01*
X86500Y157833D01*
X85625Y157333D01*
X82500D01*
G01X85625D02*
X87500Y152500D01*
G01X95000D02*
Y157000D01*
X92500Y162500D01*
G01X97500D02*
X95000Y157000D01*
G01X-55000Y142500D02*
X-56000Y142167D01*
X-56750Y141333D01*
X-57250Y140333D01*
X-57625Y139000D01*
X-57750Y137500D01*
X-57625Y136000D01*
X-57250Y134667D01*
X-56750Y133666D01*
X-56000Y132833D01*
X-55000Y132500D01*
X-54000Y132833D01*
X-53250Y133666D01*
X-52750Y134667D01*
X-52375Y136000D01*
X-52250Y137500D01*
X-52375Y139000D01*
X-52750Y140333D01*
X-53250Y141333D01*
X-54000Y142167D01*
X-55000Y142500D01*
G01X-45000Y132500D02*
X-44125Y132667D01*
X-43125Y133167D01*
X-42500Y134000D01*
X-42250Y135167D01*
X-42500Y136333D01*
X-43250Y137333D01*
X-44375Y137833D01*
X-45625D01*
X-46375Y138167D01*
X-47000Y139000D01*
X-47250Y140167D01*
X-46875Y141333D01*
X-46000Y142167D01*
X-45000Y142500D01*
X-44000Y142167D01*
X-43125Y141333D01*
X-42750Y140167D01*
X-43000Y139000D01*
X-43625Y138167D01*
X-44375Y137833D01*
X-45625D01*
X-46750Y137333D01*
X-47500Y136333D01*
X-47750Y135167D01*
X-47500Y134000D01*
X-46875Y133167D01*
X-45875Y132667D01*
X-45000Y132500D01*
G01X-36625Y135833D02*
X-33375D01*
G01X33375D02*
X36625D01*
G01X45000Y142500D02*
X44000Y142167D01*
X43250Y141333D01*
X42750Y140333D01*
X42375Y139000D01*
X42250Y137500D01*
X42375Y136000D01*
X42750Y134667D01*
X43250Y133666D01*
X44000Y132833D01*
X45000Y132500D01*
X46000Y132833D01*
X46750Y133666D01*
X47250Y134667D01*
X47625Y136000D01*
X47750Y137500D01*
X47625Y139000D01*
X47250Y140333D01*
X46750Y141333D01*
X46000Y142167D01*
X45000Y142500D01*
G01X52625Y136666D02*
X53500Y137833D01*
X54250Y138500D01*
X55250Y138833D01*
X56125Y138500D01*
X56750Y137833D01*
X57250Y136833D01*
X57375Y135667D01*
X57250Y134667D01*
X56750Y133666D01*
X56000Y132833D01*
X55125Y132500D01*
X54125Y132833D01*
X53250Y133833D01*
X52750Y135333D01*
X52625Y137000D01*
X52875Y139166D01*
X53250Y140333D01*
X53875Y141500D01*
X54750Y142333D01*
X55625Y142500D01*
X56500Y142167D01*
X57125Y141333D01*
G01X-22500Y112500D02*
Y122500D01*
X-19375D01*
X-18375Y122000D01*
X-17750Y121333D01*
X-17500Y120000D01*
X-17750Y118667D01*
X-18500Y117833D01*
X-19375Y117333D01*
X-22500D01*
G01X-19375D02*
X-17500Y112500D01*
G01X-7500D02*
X-12500D01*
Y122500D01*
X-7500D01*
G01X-9500Y117667D02*
X-12500D01*
G01X-3125Y122500D02*
X0Y112500D01*
X3125Y122500D01*
G01X16875Y112500D02*
X20000Y122500D01*
X23125Y112500D01*
G01X22000Y116000D02*
X18000D01*
G01X-25000Y142500D02*
X-26000Y142167D01*
X-26750Y141333D01*
X-27250Y140333D01*
X-27625Y139000D01*
X-27750Y137500D01*
X-27625Y136000D01*
X-27250Y134667D01*
X-26750Y133666D01*
X-26000Y132833D01*
X-25000Y132500D01*
X-24000Y132833D01*
X-23250Y133666D01*
X-22750Y134667D01*
X-22375Y136000D01*
X-22250Y137500D01*
X-22375Y139000D01*
X-22750Y140333D01*
X-23250Y141333D01*
X-24000Y142167D01*
X-25000Y142500D01*
G01X-17750Y134500D02*
X-17000Y133333D01*
X-16000Y132667D01*
X-14875Y132500D01*
X-13875Y132667D01*
X-12875Y133500D01*
X-12250Y134500D01*
X-12125Y135500D01*
X-12375Y136666D01*
X-13250Y137500D01*
X-14125Y137833D01*
X-15250D01*
G01X-14125D02*
X-13375Y138333D01*
X-12750Y139166D01*
X-12500Y140167D01*
X-12750Y141167D01*
X-13375Y142000D01*
X-14500Y142500D01*
X-15625Y142333D01*
X-16750Y141667D01*
G01X-3500Y132500D02*
Y142500D01*
X-8125Y135333D01*
X-1875D01*
G01X2625Y136666D02*
X3500Y137833D01*
X4250Y138500D01*
X5250Y138833D01*
X6125Y138500D01*
X6750Y137833D01*
X7250Y136833D01*
X7375Y135667D01*
X7250Y134667D01*
X6750Y133666D01*
X6000Y132833D01*
X5125Y132500D01*
X4125Y132833D01*
X3250Y133833D01*
X2750Y135333D01*
X2625Y137000D01*
X2875Y139166D01*
X3250Y140333D01*
X3875Y141500D01*
X4750Y142333D01*
X5625Y142500D01*
X6500Y142167D01*
X7125Y141333D01*
G01X14750Y132500D02*
X15000Y134667D01*
X15375Y136500D01*
X15875Y138167D01*
X16500Y140000D01*
X17500Y142500D01*
X12500D01*
G01X26500Y132500D02*
Y142500D01*
X21875Y135333D01*
X28125D01*
M02*
