G04 ================== begin FILE IDENTIFICATION RECORD ==================*
G04 Layout Name:  20_034674a.brd*
G04 Film Name:    mask_prm*
G04 File Format:  Gerber RS274X*
G04 File Origin:  Cadence Allegro 16.5-S031*
G04 Origin Date:  Tue Oct 30 13:02:00 2012*
G04 *
G04 Layer:  PIN/SOLDERMASK_TOP*
G04 Layer:  PACKAGE GEOMETRY/SOLDERMASK_TOP*
G04 Layer:  BOARD GEOMETRY/TOOLING_CORNERS*
G04 Layer:  BOARD GEOMETRY/SOLDERMASK_TOP*
G04 Layer:  BOARD GEOMETRY/ROOT_NUMBER*
G04 *
G04 Offset:    (0.00 0.00)*
G04 Mirror:    No*
G04 Mode:      Positive*
G04 Rotation:  0*
G04 FullContactRelief:  No*
G04 UndefLineWidth:     8.00*
G04 ================== end FILE IDENTIFICATION RECORD ====================*
%FSLAX55Y55*MOIN*%
%IR0*IPPOS*OFA0.00000B0.00000*MIA0B0*SFA1.00000B1.00000*%
%ADD12R,.205X.03*%
%ADD19R,.107X.092*%
%ADD17C,.07*%
%ADD13C,.08*%
%ADD18R,.07X.07*%
%ADD16R,.2X.3*%
%ADD11R,.205X.1*%
%ADD23R,.033X.044*%
%AMMACRO15*
21,1,.048,.052,0.0,0.0,45.*%
%ADD15MACRO15*%
%ADD14R,.052X.048*%
%ADD10C,.145*%
%ADD22R,.048X.052*%
%ADD21R,.091X.029*%
%ADD20R,.068X.084*%
%ADD24C,.05*%
%ADD25C,.008*%
G75*
%LPD*%
G75*
G54D10*
X-215000Y-80000D03*
Y80000D03*
X215000Y-80000D03*
Y80000D03*
G54D20*
X-58000Y82500D03*
X-47000D03*
G54D11*
X-215000Y-7250D03*
Y27250D03*
X215000Y-7250D03*
Y27250D03*
G54D21*
X-35000Y70000D03*
Y85000D03*
Y80000D03*
Y75000D03*
X-10000Y45000D03*
Y50000D03*
Y55000D03*
Y60000D03*
X-15000Y70000D03*
Y85000D03*
Y80000D03*
Y75000D03*
X10000Y45000D03*
Y50000D03*
Y55000D03*
Y60000D03*
G54D12*
X-215000Y10000D03*
X215000D03*
G54D22*
X-28350Y60000D03*
X-53350Y72500D03*
X-46650D03*
X-21650Y60000D03*
X-3350Y68000D03*
X29150Y52000D03*
X3350Y68000D03*
X29150Y44000D03*
X35850Y52000D03*
Y44000D03*
X173350Y62500D03*
X166650D03*
G54D13*
X-205000Y-67500D03*
Y67500D03*
X205000Y-67500D03*
G54D14*
X-194000Y3650D03*
Y10350D03*
X-40000Y44150D03*
Y50850D03*
X-30000Y44150D03*
Y50850D03*
X-20500Y44150D03*
Y50850D03*
X20000Y44150D03*
Y50850D03*
X22500Y83350D03*
Y76650D03*
X12500Y83350D03*
Y76650D03*
G54D23*
X0Y85720D03*
X-3740D03*
X0Y76280D03*
X-3740D03*
X3740Y85720D03*
Y76280D03*
G54D24*
G01X-237500Y-92500D02*
X-202500D01*
G01X-227500Y-102500D02*
Y-67500D01*
G01Y102500D02*
Y67500D01*
G01X-237500Y92500D02*
X-202500D01*
G01X237500Y-92500D02*
X202500D01*
G01X237500Y92500D02*
X202500D01*
G01X227500Y-102500D02*
Y-67500D01*
G01Y102500D02*
Y67500D01*
G54D15*
X-177631Y6869D03*
X-182369Y2131D03*
X183131Y2631D03*
X187869Y7369D03*
G54D25*
G01X-87625Y153833D02*
X-86625Y153000D01*
X-85500Y152500D01*
X-84500D01*
X-83500Y153000D01*
X-82750Y153833D01*
X-82375Y155000D01*
X-82625Y156166D01*
X-83250Y157167D01*
X-84375Y157833D01*
X-85875Y158167D01*
X-86750Y158833D01*
X-87125Y160000D01*
X-86875Y161167D01*
X-86250Y162000D01*
X-85375Y162500D01*
X-84500D01*
X-83625Y162167D01*
X-82875Y161333D01*
G01X-75000Y152500D02*
X-76000Y152667D01*
X-76875Y153333D01*
X-77625Y154333D01*
X-78125Y155500D01*
X-78375Y156833D01*
Y158167D01*
X-78125Y159500D01*
X-77625Y160667D01*
X-76875Y161667D01*
X-76000Y162333D01*
X-75000Y162500D01*
X-74000Y162333D01*
X-73125Y161667D01*
X-72375Y160667D01*
X-71875Y159500D01*
X-71625Y158167D01*
Y156833D01*
X-71875Y155500D01*
X-72375Y154333D01*
X-73125Y153333D01*
X-74000Y152667D01*
X-75000Y152500D01*
G01X-67500Y162500D02*
Y152500D01*
X-62500D01*
G01X-57750D02*
Y162500D01*
X-55250D01*
X-54250Y162000D01*
X-53500Y161333D01*
X-52875Y160333D01*
X-52375Y159166D01*
X-52250Y157500D01*
X-52375Y155833D01*
X-52875Y154667D01*
X-53500Y153666D01*
X-54250Y153000D01*
X-55250Y152500D01*
X-57750D01*
G01X-42500D02*
X-47500D01*
Y162500D01*
X-42500D01*
G01X-44500Y157667D02*
X-47500D01*
G01X-37500Y152500D02*
Y162500D01*
X-34375D01*
X-33375Y162000D01*
X-32750Y161333D01*
X-32500Y160000D01*
X-32750Y158667D01*
X-33500Y157833D01*
X-34375Y157333D01*
X-37500D01*
G01X-34375D02*
X-32500Y152500D01*
G01X-28250D02*
Y162500D01*
X-25000Y154167D01*
X-21750Y162500D01*
Y152500D01*
G01X-18125D02*
X-15000Y162500D01*
X-11875Y152500D01*
G01X-13000Y156000D02*
X-17000D01*
G01X-7625Y153833D02*
X-6625Y153000D01*
X-5500Y152500D01*
X-4500D01*
X-3500Y153000D01*
X-2750Y153833D01*
X-2375Y155000D01*
X-2625Y156166D01*
X-3250Y157167D01*
X-4375Y157833D01*
X-5875Y158167D01*
X-6750Y158833D01*
X-7125Y160000D01*
X-6875Y161167D01*
X-6250Y162000D01*
X-5375Y162500D01*
X-4500D01*
X-3625Y162167D01*
X-2875Y161333D01*
G01X2250Y152500D02*
Y162500D01*
G01X7000D02*
X2250Y156333D01*
G01X7750Y152500D02*
X4375Y159166D01*
G01X22500Y152500D02*
Y162500D01*
X25500D01*
X26500Y162000D01*
X27250Y160833D01*
X27500Y159500D01*
X27250Y158167D01*
X26625Y157167D01*
X25500Y156666D01*
X22500D01*
G01X32500Y152500D02*
Y162500D01*
X35625D01*
X36625Y162000D01*
X37250Y161333D01*
X37500Y160000D01*
X37250Y158667D01*
X36500Y157833D01*
X35625Y157333D01*
X32500D01*
G01X35625D02*
X37500Y152500D01*
G01X43500Y162500D02*
X46500D01*
G01X45000D02*
Y152500D01*
G01X43500D02*
X46500D01*
G01X51750D02*
Y162500D01*
X55000Y154167D01*
X58250Y162500D01*
Y152500D01*
G01X61875D02*
X65000Y162500D01*
X68125Y152500D01*
G01X67000Y156000D02*
X63000D01*
G01X72500Y152500D02*
Y162500D01*
X75625D01*
X76625Y162000D01*
X77250Y161333D01*
X77500Y160000D01*
X77250Y158667D01*
X76500Y157833D01*
X75625Y157333D01*
X72500D01*
G01X75625D02*
X77500Y152500D01*
G01X85000D02*
Y157000D01*
X82500Y162500D01*
G01X87500D02*
X85000Y157000D01*
G01X-55000Y142500D02*
X-56000Y142167D01*
X-56750Y141333D01*
X-57250Y140333D01*
X-57625Y139000D01*
X-57750Y137500D01*
X-57625Y136000D01*
X-57250Y134667D01*
X-56750Y133666D01*
X-56000Y132833D01*
X-55000Y132500D01*
X-54000Y132833D01*
X-53250Y133666D01*
X-52750Y134667D01*
X-52375Y136000D01*
X-52250Y137500D01*
X-52375Y139000D01*
X-52750Y140333D01*
X-53250Y141333D01*
X-54000Y142167D01*
X-55000Y142500D01*
G01X-45000Y132500D02*
X-44125Y132667D01*
X-43125Y133167D01*
X-42500Y134000D01*
X-42250Y135167D01*
X-42500Y136333D01*
X-43250Y137333D01*
X-44375Y137833D01*
X-45625D01*
X-46375Y138167D01*
X-47000Y139000D01*
X-47250Y140167D01*
X-46875Y141333D01*
X-46000Y142167D01*
X-45000Y142500D01*
X-44000Y142167D01*
X-43125Y141333D01*
X-42750Y140167D01*
X-43000Y139000D01*
X-43625Y138167D01*
X-44375Y137833D01*
X-45625D01*
X-46750Y137333D01*
X-47500Y136333D01*
X-47750Y135167D01*
X-47500Y134000D01*
X-46875Y133167D01*
X-45875Y132667D01*
X-45000Y132500D01*
G01X-36625Y135833D02*
X-33375D01*
G01X33375D02*
X36625D01*
G01X45000Y142500D02*
X44000Y142167D01*
X43250Y141333D01*
X42750Y140333D01*
X42375Y139000D01*
X42250Y137500D01*
X42375Y136000D01*
X42750Y134667D01*
X43250Y133666D01*
X44000Y132833D01*
X45000Y132500D01*
X46000Y132833D01*
X46750Y133666D01*
X47250Y134667D01*
X47625Y136000D01*
X47750Y137500D01*
X47625Y139000D01*
X47250Y140333D01*
X46750Y141333D01*
X46000Y142167D01*
X45000Y142500D01*
G01X56500Y132500D02*
Y142500D01*
X51875Y135333D01*
X58125D01*
G01X-22500Y112500D02*
Y122500D01*
X-19375D01*
X-18375Y122000D01*
X-17750Y121333D01*
X-17500Y120000D01*
X-17750Y118667D01*
X-18500Y117833D01*
X-19375Y117333D01*
X-22500D01*
G01X-19375D02*
X-17500Y112500D01*
G01X-7500D02*
X-12500D01*
Y122500D01*
X-7500D01*
G01X-9500Y117667D02*
X-12500D01*
G01X-3125Y122500D02*
X0Y112500D01*
X3125Y122500D01*
G01X16875Y112500D02*
X20000Y122500D01*
X23125Y112500D01*
G01X22000Y116000D02*
X18000D01*
G01X-25000Y142500D02*
X-26000Y142167D01*
X-26750Y141333D01*
X-27250Y140333D01*
X-27625Y139000D01*
X-27750Y137500D01*
X-27625Y136000D01*
X-27250Y134667D01*
X-26750Y133666D01*
X-26000Y132833D01*
X-25000Y132500D01*
X-24000Y132833D01*
X-23250Y133666D01*
X-22750Y134667D01*
X-22375Y136000D01*
X-22250Y137500D01*
X-22375Y139000D01*
X-22750Y140333D01*
X-23250Y141333D01*
X-24000Y142167D01*
X-25000Y142500D01*
G01X-17750Y134500D02*
X-17000Y133333D01*
X-16000Y132667D01*
X-14875Y132500D01*
X-13875Y132667D01*
X-12875Y133500D01*
X-12250Y134500D01*
X-12125Y135500D01*
X-12375Y136666D01*
X-13250Y137500D01*
X-14125Y137833D01*
X-15250D01*
G01X-14125D02*
X-13375Y138333D01*
X-12750Y139166D01*
X-12500Y140167D01*
X-12750Y141167D01*
X-13375Y142000D01*
X-14500Y142500D01*
X-15625Y142333D01*
X-16750Y141667D01*
G01X-3500Y132500D02*
Y142500D01*
X-8125Y135333D01*
X-1875D01*
G01X2625Y136666D02*
X3500Y137833D01*
X4250Y138500D01*
X5250Y138833D01*
X6125Y138500D01*
X6750Y137833D01*
X7250Y136833D01*
X7375Y135667D01*
X7250Y134667D01*
X6750Y133666D01*
X6000Y132833D01*
X5125Y132500D01*
X4125Y132833D01*
X3250Y133833D01*
X2750Y135333D01*
X2625Y137000D01*
X2875Y139166D01*
X3250Y140333D01*
X3875Y141500D01*
X4750Y142333D01*
X5625Y142500D01*
X6500Y142167D01*
X7125Y141333D01*
G01X14750Y132500D02*
X15000Y134667D01*
X15375Y136500D01*
X15875Y138167D01*
X16500Y140000D01*
X17500Y142500D01*
X12500D01*
G01X26500Y132500D02*
Y142500D01*
X21875Y135333D01*
X28125D01*
G54D16*
X-172500Y75000D03*
X-170000Y-75000D03*
X-125000D03*
Y75000D03*
X-72500Y-75000D03*
X-27500D03*
X25000D03*
X75000D03*
X125000D03*
X172500D03*
G54D17*
X-194000Y50000D03*
X-160000Y-30000D03*
Y-20000D03*
X-170000Y-30000D03*
Y-20000D03*
X-160000Y-10000D03*
X-90000Y72500D03*
X-60000Y-30000D03*
Y-20000D03*
X-50000Y-30000D03*
Y-20000D03*
Y-10000D03*
X60000Y-30000D03*
Y-20000D03*
X50000Y-30000D03*
Y-20000D03*
X60000Y-10000D03*
X62500Y52500D03*
Y72500D03*
X120000Y52500D03*
Y75000D03*
X170000Y-30000D03*
Y-20000D03*
X160000Y-30000D03*
Y-20000D03*
X170000Y-10000D03*
Y47500D03*
X197300Y67200D03*
Y47200D03*
Y57200D03*
X187300Y47200D03*
Y57200D03*
G54D18*
X-170000Y-10000D03*
X-60000D03*
X50000D03*
X160000D03*
X187300Y67200D03*
G54D19*
X-72300Y60000D03*
X-52700D03*
X22700Y64500D03*
X42300D03*
X82700Y75000D03*
Y52500D03*
X102300Y75000D03*
Y52500D03*
M02*
