G04 ================== begin FILE IDENTIFICATION RECORD ==================*
G04 Layout Name:  20_034674a.brd*
G04 Film Name:    paste_prm*
G04 File Format:  Gerber RS274X*
G04 File Origin:  Cadence Allegro 16.5-S031*
G04 Origin Date:  Tue Oct 30 13:02:00 2012*
G04 *
G04 Layer:  VIA CLASS/PASTEMASK_TOP*
G04 Layer:  PIN/PASTEMASK_TOP*
G04 Layer:  PACKAGE GEOMETRY/PASTEMASK_TOP*
G04 Layer:  BOARD GEOMETRY/TOOLING_CORNERS*
G04 Layer:  BOARD GEOMETRY/PASTEMASK_TOP*
G04 Layer:  BOARD GEOMETRY/ROOT_NUMBER*
G04 *
G04 Offset:    (0.00 0.00)*
G04 Mirror:    No*
G04 Mode:      Positive*
G04 Rotation:  0*
G04 FullContactRelief:  No*
G04 UndefLineWidth:     8.00*
G04 ================== end FILE IDENTIFICATION RECORD ====================*
%FSLAX55Y55*MOIN*%
%IR0*IPPOS*OFA0.00000B0.00000*MIA0B0*SFA1.00000B1.00000*%
%ADD10C,.04*%
%ADD13R,.102X.087*%
%AMMACRO12*
21,1,.043,.047,0.0,0.0,45.*%
%ADD12MACRO12*%
%ADD11R,.047X.043*%
%ADD16R,.043X.047*%
%ADD15R,.086X.024*%
%ADD17R,.028X.039*%
%ADD14R,.063X.079*%
%ADD18C,.05*%
%ADD19C,.008*%
G75*
%LPD*%
G75*
G54D10*
X-205000Y-67500D03*
Y67500D03*
X205000Y-67500D03*
G54D11*
X-194000Y3650D03*
Y10350D03*
X-40000Y44150D03*
Y50850D03*
X-30000Y44150D03*
Y50850D03*
X-20500Y44150D03*
Y50850D03*
X20000Y44150D03*
Y50850D03*
X22500Y83350D03*
Y76650D03*
X12500Y83350D03*
Y76650D03*
G54D12*
X-177631Y6869D03*
X-182369Y2131D03*
X183131Y2631D03*
X187869Y7369D03*
G54D13*
X-72300Y60000D03*
X-52700D03*
X22700Y64500D03*
X42300D03*
X82700Y75000D03*
Y52500D03*
X102300Y75000D03*
Y52500D03*
G54D14*
X-58000Y82500D03*
X-47000D03*
G54D15*
X-35000Y70000D03*
Y85000D03*
Y80000D03*
Y75000D03*
X-10000Y45000D03*
Y50000D03*
Y55000D03*
Y60000D03*
X-15000Y70000D03*
Y85000D03*
Y80000D03*
Y75000D03*
X10000Y45000D03*
Y50000D03*
Y55000D03*
Y60000D03*
G54D16*
X-28350D03*
X-53350Y72500D03*
X-46650D03*
X-21650Y60000D03*
X-3350Y68000D03*
X29150Y52000D03*
X3350Y68000D03*
X29150Y44000D03*
X35850Y52000D03*
Y44000D03*
X173350Y62500D03*
X166650D03*
G54D17*
X0Y85720D03*
X-3740D03*
X0Y76280D03*
X-3740D03*
X3740Y85720D03*
Y76280D03*
G54D18*
G01X-237500Y-92500D02*
X-202500D01*
G01X-227500Y-102500D02*
Y-67500D01*
G01Y102500D02*
Y67500D01*
G01X-237500Y92500D02*
X-202500D01*
G01X237500Y-92500D02*
X202500D01*
G01X237500Y92500D02*
X202500D01*
G01X227500Y-102500D02*
Y-67500D01*
G01Y102500D02*
Y67500D01*
G54D19*
G01X-82500Y152500D02*
Y162500D01*
X-79500D01*
X-78500Y162000D01*
X-77750Y160833D01*
X-77500Y159500D01*
X-77750Y158167D01*
X-78375Y157167D01*
X-79500Y156666D01*
X-82500D01*
G01X-73125Y152500D02*
X-70000Y162500D01*
X-66875Y152500D01*
G01X-68000Y156000D02*
X-72000D01*
G01X-62625Y153833D02*
X-61625Y153000D01*
X-60500Y152500D01*
X-59500D01*
X-58500Y153000D01*
X-57750Y153833D01*
X-57375Y155000D01*
X-57625Y156166D01*
X-58250Y157167D01*
X-59375Y157833D01*
X-60875Y158167D01*
X-61750Y158833D01*
X-62125Y160000D01*
X-61875Y161167D01*
X-61250Y162000D01*
X-60375Y162500D01*
X-59500D01*
X-58625Y162167D01*
X-57875Y161333D01*
G01X-50000Y162500D02*
Y152500D01*
G01X-52875Y162500D02*
X-47125D01*
G01X-37500Y152500D02*
X-42500D01*
Y162500D01*
X-37500D01*
G01X-39500Y157667D02*
X-42500D01*
G01X-33250Y152500D02*
Y162500D01*
X-30000Y154167D01*
X-26750Y162500D01*
Y152500D01*
G01X-23125D02*
X-20000Y162500D01*
X-16875Y152500D01*
G01X-18000Y156000D02*
X-22000D01*
G01X-12625Y153833D02*
X-11625Y153000D01*
X-10500Y152500D01*
X-9500D01*
X-8500Y153000D01*
X-7750Y153833D01*
X-7375Y155000D01*
X-7625Y156166D01*
X-8250Y157167D01*
X-9375Y157833D01*
X-10875Y158167D01*
X-11750Y158833D01*
X-12125Y160000D01*
X-11875Y161167D01*
X-11250Y162000D01*
X-10375Y162500D01*
X-9500D01*
X-8625Y162167D01*
X-7875Y161333D01*
G01X-2750Y152500D02*
Y162500D01*
G01X2000D02*
X-2750Y156333D01*
G01X2750Y152500D02*
X-625Y159166D01*
G01X17500Y152500D02*
Y162500D01*
X20500D01*
X21500Y162000D01*
X22250Y160833D01*
X22500Y159500D01*
X22250Y158167D01*
X21625Y157167D01*
X20500Y156666D01*
X17500D01*
G01X27500Y152500D02*
Y162500D01*
X30625D01*
X31625Y162000D01*
X32250Y161333D01*
X32500Y160000D01*
X32250Y158667D01*
X31500Y157833D01*
X30625Y157333D01*
X27500D01*
G01X30625D02*
X32500Y152500D01*
G01X38500Y162500D02*
X41500D01*
G01X40000D02*
Y152500D01*
G01X38500D02*
X41500D01*
G01X46750D02*
Y162500D01*
X50000Y154167D01*
X53250Y162500D01*
Y152500D01*
G01X56875D02*
X60000Y162500D01*
X63125Y152500D01*
G01X62000Y156000D02*
X58000D01*
G01X67500Y152500D02*
Y162500D01*
X70625D01*
X71625Y162000D01*
X72250Y161333D01*
X72500Y160000D01*
X72250Y158667D01*
X71500Y157833D01*
X70625Y157333D01*
X67500D01*
G01X70625D02*
X72500Y152500D01*
G01X80000D02*
Y157000D01*
X77500Y162500D01*
G01X82500D02*
X80000Y157000D01*
G01X-55000Y142500D02*
X-56000Y142167D01*
X-56750Y141333D01*
X-57250Y140333D01*
X-57625Y139000D01*
X-57750Y137500D01*
X-57625Y136000D01*
X-57250Y134667D01*
X-56750Y133666D01*
X-56000Y132833D01*
X-55000Y132500D01*
X-54000Y132833D01*
X-53250Y133666D01*
X-52750Y134667D01*
X-52375Y136000D01*
X-52250Y137500D01*
X-52375Y139000D01*
X-52750Y140333D01*
X-53250Y141333D01*
X-54000Y142167D01*
X-55000Y142500D01*
G01X-45000Y132500D02*
X-44125Y132667D01*
X-43125Y133167D01*
X-42500Y134000D01*
X-42250Y135167D01*
X-42500Y136333D01*
X-43250Y137333D01*
X-44375Y137833D01*
X-45625D01*
X-46375Y138167D01*
X-47000Y139000D01*
X-47250Y140167D01*
X-46875Y141333D01*
X-46000Y142167D01*
X-45000Y142500D01*
X-44000Y142167D01*
X-43125Y141333D01*
X-42750Y140167D01*
X-43000Y139000D01*
X-43625Y138167D01*
X-44375Y137833D01*
X-45625D01*
X-46750Y137333D01*
X-47500Y136333D01*
X-47750Y135167D01*
X-47500Y134000D01*
X-46875Y133167D01*
X-45875Y132667D01*
X-45000Y132500D01*
G01X-36625Y135833D02*
X-33375D01*
G01X33375D02*
X36625D01*
G01X45000Y132500D02*
Y142500D01*
X43500Y140500D01*
G01Y132500D02*
X46500D01*
G01X55000Y142500D02*
X54000Y142167D01*
X53250Y141333D01*
X52750Y140333D01*
X52375Y139000D01*
X52250Y137500D01*
X52375Y136000D01*
X52750Y134667D01*
X53250Y133666D01*
X54000Y132833D01*
X55000Y132500D01*
X56000Y132833D01*
X56750Y133666D01*
X57250Y134667D01*
X57625Y136000D01*
X57750Y137500D01*
X57625Y139000D01*
X57250Y140333D01*
X56750Y141333D01*
X56000Y142167D01*
X55000Y142500D01*
G01X-22500Y112500D02*
Y122500D01*
X-19375D01*
X-18375Y122000D01*
X-17750Y121333D01*
X-17500Y120000D01*
X-17750Y118667D01*
X-18500Y117833D01*
X-19375Y117333D01*
X-22500D01*
G01X-19375D02*
X-17500Y112500D01*
G01X-7500D02*
X-12500D01*
Y122500D01*
X-7500D01*
G01X-9500Y117667D02*
X-12500D01*
G01X-3125Y122500D02*
X0Y112500D01*
X3125Y122500D01*
G01X16875Y112500D02*
X20000Y122500D01*
X23125Y112500D01*
G01X22000Y116000D02*
X18000D01*
G01X-25000Y142500D02*
X-26000Y142167D01*
X-26750Y141333D01*
X-27250Y140333D01*
X-27625Y139000D01*
X-27750Y137500D01*
X-27625Y136000D01*
X-27250Y134667D01*
X-26750Y133666D01*
X-26000Y132833D01*
X-25000Y132500D01*
X-24000Y132833D01*
X-23250Y133666D01*
X-22750Y134667D01*
X-22375Y136000D01*
X-22250Y137500D01*
X-22375Y139000D01*
X-22750Y140333D01*
X-23250Y141333D01*
X-24000Y142167D01*
X-25000Y142500D01*
G01X-17750Y134500D02*
X-17000Y133333D01*
X-16000Y132667D01*
X-14875Y132500D01*
X-13875Y132667D01*
X-12875Y133500D01*
X-12250Y134500D01*
X-12125Y135500D01*
X-12375Y136666D01*
X-13250Y137500D01*
X-14125Y137833D01*
X-15250D01*
G01X-14125D02*
X-13375Y138333D01*
X-12750Y139166D01*
X-12500Y140167D01*
X-12750Y141167D01*
X-13375Y142000D01*
X-14500Y142500D01*
X-15625Y142333D01*
X-16750Y141667D01*
G01X-3500Y132500D02*
Y142500D01*
X-8125Y135333D01*
X-1875D01*
G01X2625Y136666D02*
X3500Y137833D01*
X4250Y138500D01*
X5250Y138833D01*
X6125Y138500D01*
X6750Y137833D01*
X7250Y136833D01*
X7375Y135667D01*
X7250Y134667D01*
X6750Y133666D01*
X6000Y132833D01*
X5125Y132500D01*
X4125Y132833D01*
X3250Y133833D01*
X2750Y135333D01*
X2625Y137000D01*
X2875Y139166D01*
X3250Y140333D01*
X3875Y141500D01*
X4750Y142333D01*
X5625Y142500D01*
X6500Y142167D01*
X7125Y141333D01*
G01X14750Y132500D02*
X15000Y134667D01*
X15375Y136500D01*
X15875Y138167D01*
X16500Y140000D01*
X17500Y142500D01*
X12500D01*
G01X26500Y132500D02*
Y142500D01*
X21875Y135333D01*
X28125D01*
M02*
