G04 ================== begin FILE IDENTIFICATION RECORD ==================*
G04 Layout Name:  20_034674a.brd*
G04 Film Name:    silk_prm*
G04 File Format:  Gerber RS274X*
G04 File Origin:  Cadence Allegro 16.5-S031*
G04 Origin Date:  Tue Oct 30 13:02:00 2012*
G04 *
G04 Layer:  REF DES/SILKSCREEN_TOP*
G04 Layer:  PACKAGE GEOMETRY/SILKSCREEN_TOP*
G04 Layer:  BOARD GEOMETRY/TOOLING_CORNERS*
G04 Layer:  BOARD GEOMETRY/SILKSCREEN_TOP*
G04 Layer:  BOARD GEOMETRY/ROOT_NUMBER*
G04 *
G04 Offset:    (0.00 0.00)*
G04 Mirror:    No*
G04 Mode:      Positive*
G04 Rotation:  0*
G04 FullContactRelief:  No*
G04 UndefLineWidth:     8.00*
G04 ================== end FILE IDENTIFICATION RECORD ====================*
%FSLAX55Y55*MOIN*%
%IR0*IPPOS*OFA0.00000B0.00000*MIA0B0*SFA1.00000B1.00000*%
%ADD10C,.05*%
%ADD11C,.06*%
%ADD12C,.008*%
%ADD13C,.005*%
%ADD14C,.006*%
%ADD15C,.0224*%
G75*
%LPD*%
G75*
G36*
G01X-102500Y10000D02*
X-77500D01*
Y35000D01*
X-102500D01*
Y10000D01*
G37*
G36*
G01X-9500Y64200D02*
G02I-1500J0D01*
G37*
G36*
G01X-12500Y65800D02*
G02I-1500J0D01*
G37*
G36*
G01X-6640Y75090D02*
G03I-1500J4D01*
G37*
G36*
G01X34550Y500D02*
G03I-2550J0D01*
G37*
G36*
G01X18000Y-1750D02*
X19000D01*
Y0D01*
X18000D01*
Y-1750D01*
G37*
G36*
G01X19000Y23500D02*
Y27500D01*
X20500D01*
Y23500D01*
X19000D01*
G37*
G36*
G01X21500Y17000D02*
Y15000D01*
X28500D01*
Y17000D01*
X21500D01*
G37*
G36*
G01X34800Y23500D02*
G03I-1800J0D01*
G37*
G36*
G01X78000Y11200D02*
X90200D01*
G03X89410Y8890I-7696J1342D01*
G01X89310Y8990D01*
G02X78000Y11200I-5037J4267D01*
G37*
G36*
G01X99500Y12500D02*
X102500D01*
X96800Y17700D01*
X96700Y17800D01*
X91000Y12500D01*
X94000D01*
G02X71500Y8800I-11544J-62D01*
G01X68300Y5500D01*
X66300Y7700D01*
G03X99500Y12500I16260J4750D01*
G37*
G36*
G01X65500D02*
X62500D01*
X68200Y7300D01*
X68300Y7200D01*
X74000Y12500D01*
X71000D01*
G02X93500Y16200I11544J62D01*
G01X96700Y19500D01*
X98700Y17300D01*
G03X65500Y12500I-16260J-4749D01*
G37*
%LPC*%
G75*
G36*
G01X-81500Y22500D02*
X-97500Y31500D01*
Y14000D01*
X-81500Y22500D01*
G37*
G36*
G01X87000Y13700D02*
X78000D01*
G02X87000I4500J-1011D01*
G37*
G54D15*
X32000Y500D03*
%LPD*%
G75*
G54D10*
G01X-237500Y-92500D02*
X-202500D01*
G01X-227500Y-102500D02*
Y-67500D01*
G01Y102500D02*
Y67500D01*
G01X-237500Y92500D02*
X-202500D01*
G01X237500Y-92500D02*
X202500D01*
G01X237500Y92500D02*
X202500D01*
G01X227500Y-102500D02*
Y-67500D01*
G01Y102500D02*
Y67500D01*
G54D11*
G01X13000Y-17500D02*
X37000D01*
G54D12*
G01X-196000Y7500D02*
X-196500D01*
Y6500D01*
X-191500D01*
Y7500D01*
X-196500D01*
G01X-178940Y2730D02*
X-178590Y2380D01*
X-177880Y3090D01*
X-181410Y6620D01*
X-182120Y5910D01*
X-178590Y2380D01*
G01X-186930Y50000D02*
G03I-7070J0D01*
G01X-172500Y-5000D02*
X-175000Y-7500D01*
Y-35000D01*
X-155000D01*
Y-7500D01*
X-157500Y-5000D01*
X-172500D01*
G01X-169673Y55360D02*
X-169360Y55675D01*
X-169125Y56200D01*
X-168968Y56935D01*
X-169125Y57565D01*
X-169438Y57985D01*
X-169987Y58300D01*
X-172102D01*
Y52000D01*
X-169517D01*
X-168968Y52420D01*
X-168655Y53050D01*
X-168498Y53785D01*
X-168655Y54520D01*
X-169125Y55150D01*
X-169673Y55360D01*
X-172102D01*
G01X-165958Y52000D02*
X-164000Y58300D01*
X-162042Y52000D01*
G01X-162747Y54205D02*
X-165253D01*
G01X-159345Y52840D02*
X-158718Y52315D01*
X-158013Y52000D01*
X-157387D01*
X-156760Y52315D01*
X-156290Y52840D01*
X-156055Y53575D01*
X-156212Y54310D01*
X-156603Y54940D01*
X-157308Y55360D01*
X-158248Y55570D01*
X-158797Y55990D01*
X-159032Y56725D01*
X-158875Y57460D01*
X-158483Y57985D01*
X-157935Y58300D01*
X-157387D01*
X-156838Y58090D01*
X-156368Y57565D01*
G01X-149833Y52000D02*
X-152967D01*
Y58300D01*
X-149833D01*
G01X-151087Y55255D02*
X-152967D01*
G01X-138173Y55360D02*
X-137860Y55675D01*
X-137625Y56200D01*
X-137468Y56935D01*
X-137625Y57565D01*
X-137938Y57985D01*
X-138487Y58300D01*
X-140602D01*
Y52000D01*
X-138017D01*
X-137468Y52420D01*
X-137155Y53050D01*
X-136998Y53785D01*
X-137155Y54520D01*
X-137625Y55150D01*
X-138173Y55360D01*
X-140602D01*
G01X-132500Y52000D02*
X-133127Y52105D01*
X-133675Y52525D01*
X-134145Y53155D01*
X-134458Y53890D01*
X-134615Y54730D01*
Y55570D01*
X-134458Y56410D01*
X-134145Y57145D01*
X-133675Y57775D01*
X-133127Y58195D01*
X-132500Y58300D01*
X-131873Y58195D01*
X-131325Y57775D01*
X-130855Y57145D01*
X-130542Y56410D01*
X-130385Y55570D01*
Y54730D01*
X-130542Y53890D01*
X-130855Y53155D01*
X-131325Y52525D01*
X-131873Y52105D01*
X-132500Y52000D01*
G01X-128158D02*
X-126200Y58300D01*
X-124242Y52000D01*
G01X-124947Y54205D02*
X-127453D01*
G01X-121467Y52000D02*
Y58300D01*
X-119508D01*
X-118882Y57985D01*
X-118490Y57565D01*
X-118333Y56725D01*
X-118490Y55885D01*
X-118960Y55360D01*
X-119508Y55045D01*
X-121467D01*
G01X-119508D02*
X-118333Y52000D01*
G01X-115323D02*
Y58300D01*
X-113757D01*
X-113130Y57985D01*
X-112660Y57565D01*
X-112268Y56935D01*
X-111955Y56200D01*
X-111877Y55150D01*
X-111955Y54100D01*
X-112268Y53365D01*
X-112660Y52735D01*
X-113130Y52315D01*
X-113757Y52000D01*
X-115323D01*
G01X-102018Y54100D02*
X-99982D01*
G01X-96188Y58300D02*
X-93212D01*
X-96188Y52000D01*
X-93212D01*
G01X-167150Y48800D02*
X-167777Y48590D01*
X-168247Y48065D01*
X-168560Y47435D01*
X-168795Y46595D01*
X-168873Y45650D01*
X-168795Y44705D01*
X-168560Y43865D01*
X-168247Y43235D01*
X-167777Y42710D01*
X-167150Y42500D01*
X-166523Y42710D01*
X-166053Y43235D01*
X-165740Y43865D01*
X-165505Y44705D01*
X-165427Y45650D01*
X-165505Y46595D01*
X-165740Y47435D01*
X-166053Y48065D01*
X-166523Y48590D01*
X-167150Y48800D01*
G01X-162573Y43760D02*
X-162103Y43025D01*
X-161477Y42605D01*
X-160772Y42500D01*
X-160145Y42605D01*
X-159518Y43130D01*
X-159127Y43760D01*
X-159048Y44390D01*
X-159205Y45125D01*
X-159753Y45650D01*
X-160302Y45860D01*
X-161007D01*
G01X-160302D02*
X-159832Y46175D01*
X-159440Y46700D01*
X-159283Y47330D01*
X-159440Y47960D01*
X-159832Y48485D01*
X-160537Y48800D01*
X-161242Y48695D01*
X-161947Y48275D01*
G01X-153610Y42500D02*
Y48800D01*
X-156508Y44285D01*
X-152592D01*
G01X-149738Y45125D02*
X-149190Y45860D01*
X-148720Y46280D01*
X-148093Y46490D01*
X-147545Y46280D01*
X-147153Y45860D01*
X-146840Y45230D01*
X-146762Y44495D01*
X-146840Y43865D01*
X-147153Y43235D01*
X-147623Y42710D01*
X-148172Y42500D01*
X-148798Y42710D01*
X-149347Y43340D01*
X-149660Y44285D01*
X-149738Y45335D01*
X-149582Y46700D01*
X-149347Y47435D01*
X-148955Y48170D01*
X-148407Y48695D01*
X-147858Y48800D01*
X-147310Y48590D01*
X-146918Y48065D01*
G01X-142107Y42500D02*
X-141950Y43865D01*
X-141715Y45020D01*
X-141402Y46070D01*
X-141010Y47225D01*
X-140383Y48800D01*
X-143517D01*
G01X-134710Y42500D02*
Y48800D01*
X-137608Y44285D01*
X-133692D01*
G01X-124617Y42500D02*
Y48800D01*
X-122658D01*
X-122032Y48485D01*
X-121640Y48065D01*
X-121483Y47225D01*
X-121640Y46385D01*
X-122110Y45860D01*
X-122658Y45545D01*
X-124617D01*
G01X-122658D02*
X-121483Y42500D01*
G01X-115183D02*
X-118317D01*
Y48800D01*
X-115183D01*
G01X-116437Y45755D02*
X-118317D01*
G01X-112408Y48800D02*
X-110450Y42500D01*
X-108492Y48800D01*
G01X-99808Y42500D02*
X-97850Y48800D01*
X-95892Y42500D01*
G01X-96597Y44705D02*
X-99103D01*
G01X-82930Y72500D02*
G03I-7070J0D01*
G01X-62500Y-5000D02*
X-65000Y-7500D01*
Y-35000D01*
X-45000D01*
Y-7500D01*
X-47500Y-5000D01*
X-62500D01*
G01X-46600Y65500D02*
X-46100Y65000D01*
Y55000D01*
X-49600Y51500D01*
X-78900D01*
G01D02*
Y68500D01*
X-49600D01*
X-46600Y65500D01*
X-46100Y65000D01*
Y56000D01*
G01X-87625Y153833D02*
X-86625Y153000D01*
X-85500Y152500D01*
X-84500D01*
X-83500Y153000D01*
X-82750Y153833D01*
X-82375Y155000D01*
X-82625Y156166D01*
X-83250Y157167D01*
X-84375Y157833D01*
X-85875Y158167D01*
X-86750Y158833D01*
X-87125Y160000D01*
X-86875Y161167D01*
X-86250Y162000D01*
X-85375Y162500D01*
X-84500D01*
X-83625Y162167D01*
X-82875Y161333D01*
G01X-76500Y162500D02*
X-73500D01*
G01X-75000D02*
Y152500D01*
G01X-76500D02*
X-73500D01*
G01X-67500Y162500D02*
Y152500D01*
X-62500D01*
G01X-57750D02*
Y162500D01*
G01X-53000D02*
X-57750Y156333D01*
G01X-52250Y152500D02*
X-55625Y159166D01*
G01X-47625Y153833D02*
X-46625Y153000D01*
X-45500Y152500D01*
X-44500D01*
X-43500Y153000D01*
X-42750Y153833D01*
X-42375Y155000D01*
X-42625Y156166D01*
X-43250Y157167D01*
X-44375Y157833D01*
X-45875Y158167D01*
X-46750Y158833D01*
X-47125Y160000D01*
X-46875Y161167D01*
X-46250Y162000D01*
X-45375Y162500D01*
X-44500D01*
X-43625Y162167D01*
X-42875Y161333D01*
G01X-32250Y161667D02*
X-33000Y162167D01*
X-33875Y162500D01*
X-34875D01*
X-36000Y162000D01*
X-36875Y161167D01*
X-37500Y160167D01*
X-38000Y158500D01*
X-38125Y157000D01*
X-37875Y155500D01*
X-37500Y154500D01*
X-36750Y153500D01*
X-35875Y152833D01*
X-35000Y152500D01*
X-34125D01*
X-33250Y152833D01*
X-32500Y153333D01*
X-31875Y154000D01*
G01X-27500Y152500D02*
Y162500D01*
X-24375D01*
X-23375Y162000D01*
X-22750Y161333D01*
X-22500Y160000D01*
X-22750Y158667D01*
X-23500Y157833D01*
X-24375Y157333D01*
X-27500D01*
G01X-24375D02*
X-22500Y152500D01*
G01X-12500D02*
X-17500D01*
Y162500D01*
X-12500D01*
G01X-14500Y157667D02*
X-17500D01*
G01X-2500Y152500D02*
X-7500D01*
Y162500D01*
X-2500D01*
G01X-4500Y157667D02*
X-7500D01*
G01X2125Y152500D02*
Y162500D01*
X7875Y152500D01*
Y162500D01*
G01X22500Y152500D02*
Y162500D01*
X25500D01*
X26500Y162000D01*
X27250Y160833D01*
X27500Y159500D01*
X27250Y158167D01*
X26625Y157167D01*
X25500Y156666D01*
X22500D01*
G01X32500Y152500D02*
Y162500D01*
X35625D01*
X36625Y162000D01*
X37250Y161333D01*
X37500Y160000D01*
X37250Y158667D01*
X36500Y157833D01*
X35625Y157333D01*
X32500D01*
G01X35625D02*
X37500Y152500D01*
G01X43500Y162500D02*
X46500D01*
G01X45000D02*
Y152500D01*
G01X43500D02*
X46500D01*
G01X51750D02*
Y162500D01*
X55000Y154167D01*
X58250Y162500D01*
Y152500D01*
G01X61875D02*
X65000Y162500D01*
X68125Y152500D01*
G01X67000Y156000D02*
X63000D01*
G01X72500Y152500D02*
Y162500D01*
X75625D01*
X76625Y162000D01*
X77250Y161333D01*
X77500Y160000D01*
X77250Y158667D01*
X76500Y157833D01*
X75625Y157333D01*
X72500D01*
G01X75625D02*
X77500Y152500D01*
G01X85000D02*
Y157000D01*
X82500Y162500D01*
G01X87500D02*
X85000Y157000D01*
G01X-34000Y67300D02*
Y66500D01*
X-27000D01*
X-25000Y68500D01*
X-23000Y66500D01*
X-16000D01*
Y67300D01*
G01X-39600Y47500D02*
G03I-400J0D01*
G01X-32000Y48000D02*
X-32500D01*
Y47000D01*
X-27500D01*
Y48000D01*
X-32500D01*
G01X-46600Y65500D02*
X-46100Y65000D01*
Y64000D01*
Y55000D01*
X-46600Y54500D01*
G01X-46100Y56000D02*
Y65000D01*
X-46600Y65500D01*
G01X-34000Y87700D02*
Y88500D01*
X-16000D01*
Y87700D01*
G01X-51100Y82500D02*
G03I-1400J0D01*
G01X-49500Y74500D02*
Y75000D01*
X-50500D01*
Y70000D01*
X-49500D01*
Y75000D01*
G01X-55000Y142500D02*
X-56000Y142167D01*
X-56750Y141333D01*
X-57250Y140333D01*
X-57625Y139000D01*
X-57750Y137500D01*
X-57625Y136000D01*
X-57250Y134667D01*
X-56750Y133666D01*
X-56000Y132833D01*
X-55000Y132500D01*
X-54000Y132833D01*
X-53250Y133666D01*
X-52750Y134667D01*
X-52375Y136000D01*
X-52250Y137500D01*
X-52375Y139000D01*
X-52750Y140333D01*
X-53250Y141333D01*
X-54000Y142167D01*
X-55000Y142500D01*
G01X-45000Y132500D02*
X-44125Y132667D01*
X-43125Y133167D01*
X-42500Y134000D01*
X-42250Y135167D01*
X-42500Y136333D01*
X-43250Y137333D01*
X-44375Y137833D01*
X-45625D01*
X-46375Y138167D01*
X-47000Y139000D01*
X-47250Y140167D01*
X-46875Y141333D01*
X-46000Y142167D01*
X-45000Y142500D01*
X-44000Y142167D01*
X-43125Y141333D01*
X-42750Y140167D01*
X-43000Y139000D01*
X-43625Y138167D01*
X-44375Y137833D01*
X-45625D01*
X-46750Y137333D01*
X-47500Y136333D01*
X-47750Y135167D01*
X-47500Y134000D01*
X-46875Y133167D01*
X-45875Y132667D01*
X-45000Y132500D01*
G01X-36625Y135833D02*
X-33375D01*
G01X33375D02*
X36625D01*
G01X45000Y142500D02*
X44000Y142167D01*
X43250Y141333D01*
X42750Y140333D01*
X42375Y139000D01*
X42250Y137500D01*
X42375Y136000D01*
X42750Y134667D01*
X43250Y133666D01*
X44000Y132833D01*
X45000Y132500D01*
X46000Y132833D01*
X46750Y133666D01*
X47250Y134667D01*
X47625Y136000D01*
X47750Y137500D01*
X47625Y139000D01*
X47250Y140333D01*
X46750Y141333D01*
X46000Y142167D01*
X45000Y142500D01*
G01X52250Y134500D02*
X53000Y133333D01*
X54000Y132667D01*
X55125Y132500D01*
X56125Y132667D01*
X57125Y133500D01*
X57750Y134500D01*
X57875Y135500D01*
X57625Y136666D01*
X56750Y137500D01*
X55875Y137833D01*
X54750D01*
G01X55875D02*
X56625Y138333D01*
X57250Y139166D01*
X57500Y140167D01*
X57250Y141167D01*
X56625Y142000D01*
X55500Y142500D01*
X54375Y142333D01*
X53250Y141667D01*
G01X9000Y62700D02*
Y63500D01*
X2000D01*
X0Y61500D01*
X-2000Y63500D01*
X-9000D01*
Y62700D01*
G01X9000Y42300D02*
Y41500D01*
X-9000D01*
Y42300D01*
G01X-24600Y60000D02*
G03I-400J0D01*
G01X-22500Y48000D02*
X-23000D01*
Y47000D01*
X-18000D01*
Y48000D01*
X-23000D01*
G01X-500Y66000D02*
Y65500D01*
X500D01*
Y70500D01*
X-500D01*
Y65500D01*
G01X-6640Y85150D02*
X-6710D01*
Y76850D01*
X-6640D01*
G01X-22500Y112500D02*
Y122500D01*
X-19375D01*
X-18375Y122000D01*
X-17750Y121333D01*
X-17500Y120000D01*
X-17750Y118667D01*
X-18500Y117833D01*
X-19375Y117333D01*
X-22500D01*
G01X-19375D02*
X-17500Y112500D01*
G01X-7500D02*
X-12500D01*
Y122500D01*
X-7500D01*
G01X-9500Y117667D02*
X-12500D01*
G01X-3125Y122500D02*
X0Y112500D01*
X3125Y122500D01*
G01X16875Y112500D02*
X20000Y122500D01*
X23125Y112500D01*
G01X22000Y116000D02*
X18000D01*
G01X-25000Y142500D02*
X-26000Y142167D01*
X-26750Y141333D01*
X-27250Y140333D01*
X-27625Y139000D01*
X-27750Y137500D01*
X-27625Y136000D01*
X-27250Y134667D01*
X-26750Y133666D01*
X-26000Y132833D01*
X-25000Y132500D01*
X-24000Y132833D01*
X-23250Y133666D01*
X-22750Y134667D01*
X-22375Y136000D01*
X-22250Y137500D01*
X-22375Y139000D01*
X-22750Y140333D01*
X-23250Y141333D01*
X-24000Y142167D01*
X-25000Y142500D01*
G01X-17750Y134500D02*
X-17000Y133333D01*
X-16000Y132667D01*
X-14875Y132500D01*
X-13875Y132667D01*
X-12875Y133500D01*
X-12250Y134500D01*
X-12125Y135500D01*
X-12375Y136666D01*
X-13250Y137500D01*
X-14125Y137833D01*
X-15250D01*
G01X-14125D02*
X-13375Y138333D01*
X-12750Y139166D01*
X-12500Y140167D01*
X-12750Y141167D01*
X-13375Y142000D01*
X-14500Y142500D01*
X-15625Y142333D01*
X-16750Y141667D01*
G01X-3500Y132500D02*
Y142500D01*
X-8125Y135333D01*
X-1875D01*
G01X2625Y136666D02*
X3500Y137833D01*
X4250Y138500D01*
X5250Y138833D01*
X6125Y138500D01*
X6750Y137833D01*
X7250Y136833D01*
X7375Y135667D01*
X7250Y134667D01*
X6750Y133666D01*
X6000Y132833D01*
X5125Y132500D01*
X4125Y132833D01*
X3250Y133833D01*
X2750Y135333D01*
X2625Y137000D01*
X2875Y139166D01*
X3250Y140333D01*
X3875Y141500D01*
X4750Y142333D01*
X5625Y142500D01*
X6500Y142167D01*
X7125Y141333D01*
G01X14750Y132500D02*
X15000Y134667D01*
X15375Y136500D01*
X15875Y138167D01*
X16500Y140000D01*
X17500Y142500D01*
X12500D01*
G01X26500Y132500D02*
Y142500D01*
X21875Y135333D01*
X28125D01*
G01X18000Y48000D02*
X17500D01*
Y47000D01*
X22500D01*
Y48000D01*
X17500D01*
G01X16600Y59000D02*
X16100Y59500D01*
Y69500D01*
X19600Y73000D01*
X48900D01*
G01X16600Y59000D02*
X16100Y59500D01*
Y60500D01*
Y69500D01*
X16600Y70000D01*
G01X16100Y68500D02*
Y59500D01*
X16600Y59000D01*
G01X48900Y73000D02*
Y56000D01*
X19600D01*
X16600Y59000D01*
X16100Y59500D01*
Y68500D01*
G01X22900Y80000D02*
G03I-400J0D01*
G01X12900D02*
G03I-400J0D01*
G01X6640Y85150D02*
X6710D01*
Y76850D01*
X6640D01*
G01X47500Y-5000D02*
X45000Y-7500D01*
Y-35000D01*
X65000D01*
Y-7500D01*
X62500Y-5000D01*
X47500D01*
G01X32900Y52000D02*
G03I-400J0D01*
G01X32000Y42000D02*
Y41500D01*
X33000D01*
Y46500D01*
X32000D01*
Y41500D01*
G01X69570Y52500D02*
G03I-7070J0D01*
G01Y72500D02*
G03I-7070J0D01*
G01X108400Y80500D02*
X108900Y80000D01*
Y70000D01*
X105400Y66500D01*
X76100D01*
G01D02*
Y83500D01*
X105400D01*
X108400Y80500D01*
X108900Y80000D01*
Y71000D01*
G01X76600Y47000D02*
X76100Y47500D01*
Y57500D01*
X79600Y61000D01*
X108900D01*
G01X76600Y47000D02*
X76100Y47500D01*
Y48500D01*
Y57500D01*
X76600Y58000D01*
G01X76100Y56500D02*
Y47500D01*
X76600Y47000D01*
G01X108900Y61000D02*
Y44000D01*
X79600D01*
X76600Y47000D01*
X76100Y47500D01*
Y56500D01*
G01X108400Y80500D02*
X108900Y80000D01*
Y79000D01*
Y70000D01*
X108400Y69500D01*
G01X127070Y52500D02*
G03I-7070J0D01*
G01Y75000D02*
G03I-7070J0D01*
G01X108900Y71000D02*
Y80000D01*
X108400Y80500D01*
G01X150107Y-29750D02*
X150487Y-30167D01*
X150930Y-30417D01*
X151500Y-30500D01*
X152070Y-30333D01*
X152513Y-30000D01*
X152830Y-29417D01*
X152893Y-28750D01*
X152767Y-28083D01*
X152450Y-27667D01*
X152007Y-27333D01*
X151563Y-27250D01*
X151120Y-27333D01*
X150550Y-27667D01*
X150740Y-25500D01*
X152450D01*
G01X157500Y-5000D02*
X155000Y-7500D01*
Y-35000D01*
X175000D01*
Y-7500D01*
X172500Y-5000D01*
X157500D01*
G01X169500Y60500D02*
Y60000D01*
X170500D01*
Y65000D01*
X169500D01*
Y60000D01*
G01X177070Y47500D02*
G03I-7070J0D01*
G01X184440Y6770D02*
X184090Y7120D01*
X183380Y6410D01*
X186910Y2880D01*
X187620Y3590D01*
X184090Y7120D01*
G01X184800Y72200D02*
X182300Y69700D01*
Y42200D01*
X202300D01*
Y69700D01*
X199800Y72200D01*
X184800D01*
G01X30000Y0D02*
X17500D01*
X17000Y23500D01*
G02X33000I8000J-5055D01*
G01X32500Y2000D01*
G01X10500Y-5000D02*
X39500Y31500D01*
G01Y-5000D02*
X10500Y31500D01*
G01X22000Y28000D02*
X28000D01*
Y25500D01*
X22000D01*
Y28000D01*
X23000D01*
G01X15000Y23500D02*
X35000D01*
G01X32500Y20000D02*
Y16000D01*
X35500D01*
Y20000D01*
X32500D01*
Y19000D01*
G54D13*
G01X-203500Y-63500D02*
G03X-206510I-1505J-3999D01*
G01X-206500Y-71500D02*
G03X-203480Y-71490I1497J4000D01*
G01X-201000Y-66000D02*
G02X-200870Y-68590I-4000J-1499D01*
G01X-209000Y-66000D02*
G03Y-68990I4001J-1495D01*
G01Y69000D02*
G03Y66010I4001J-1495D01*
G01X-201000Y69000D02*
G02X-200870Y66410I-4000J-1499D01*
G01X-206500Y63500D02*
G03X-203480Y63510I1497J4000D01*
G01X-203500Y71500D02*
G03X-206510I-1505J-3999D01*
G01X201000Y-66000D02*
G03Y-68990I4001J-1495D01*
G01X209000Y-66000D02*
G02X209130Y-68590I-4000J-1499D01*
G01X203500Y-71500D02*
G03X206520Y-71490I1497J4000D01*
G01X206500Y-63500D02*
G03X203490I-1505J-3999D01*
G54D14*
G01X-215000Y-45000D02*
Y-50000D01*
G01Y-52500D02*
Y-57500D01*
G01Y-60000D02*
Y-65000D01*
G01Y-67500D02*
Y-70000D01*
G01X-219500Y-23300D02*
Y-22300D01*
X-218300D01*
X-217900Y-22600D01*
X-217633Y-22950D01*
X-217500Y-23450D01*
X-217633Y-23950D01*
X-217900Y-24300D01*
X-218300Y-24600D01*
X-218767Y-24800D01*
X-219300Y-24900D01*
X-219767D01*
X-220167Y-24800D01*
X-220633Y-24600D01*
X-221033Y-24300D01*
X-221300Y-24000D01*
X-221500Y-23600D01*
Y-23250D01*
X-221367Y-22850D01*
X-221100Y-22550D01*
G01X-217500Y-21150D02*
X-221500D01*
X-217500Y-18850D01*
X-221500D01*
G01X-217500Y-17500D02*
X-221500D01*
Y-16500D01*
X-221300Y-16100D01*
X-221033Y-15800D01*
X-220633Y-15550D01*
X-220167Y-15350D01*
X-219500Y-15300D01*
X-218833Y-15350D01*
X-218367Y-15550D01*
X-217967Y-15800D01*
X-217700Y-16100D01*
X-217500Y-16500D01*
Y-17500D01*
G01X-215000Y-15000D02*
Y-20000D01*
G01Y-22500D02*
Y-27500D01*
G01Y-30000D02*
Y-35000D01*
G01Y-37500D02*
Y-42500D01*
G01X-219500Y36700D02*
Y37700D01*
X-218300D01*
X-217900Y37400D01*
X-217633Y37050D01*
X-217500Y36550D01*
X-217633Y36050D01*
X-217900Y35700D01*
X-218300Y35400D01*
X-218767Y35200D01*
X-219300Y35100D01*
X-219767D01*
X-220167Y35200D01*
X-220633Y35400D01*
X-221033Y35700D01*
X-221300Y36000D01*
X-221500Y36400D01*
Y36750D01*
X-221367Y37150D01*
X-221100Y37450D01*
G01X-217500Y38850D02*
X-221500D01*
X-217500Y41150D01*
X-221500D01*
G01X-217500Y42500D02*
X-221500D01*
Y43500D01*
X-221300Y43900D01*
X-221033Y44200D01*
X-220633Y44450D01*
X-220167Y44650D01*
X-219500Y44700D01*
X-218833Y44650D01*
X-218367Y44450D01*
X-217967Y44200D01*
X-217700Y43900D01*
X-217500Y43500D01*
Y42500D01*
G01X-210000Y40000D02*
X-205000D01*
G01X-215000D02*
X-212500D01*
G01X-215000Y35000D02*
Y40000D01*
G01X-184500Y-85800D02*
Y-84800D01*
X-183300D01*
X-182900Y-85100D01*
X-182633Y-85450D01*
X-182500Y-85950D01*
X-182633Y-86450D01*
X-182900Y-86800D01*
X-183300Y-87100D01*
X-183767Y-87300D01*
X-184300Y-87400D01*
X-184767D01*
X-185167Y-87300D01*
X-185633Y-87100D01*
X-186033Y-86800D01*
X-186300Y-86500D01*
X-186500Y-86100D01*
Y-85750D01*
X-186367Y-85350D01*
X-186100Y-85050D01*
G01X-182500Y-83650D02*
X-186500D01*
X-182500Y-81350D01*
X-186500D01*
G01X-182500Y-80000D02*
X-186500D01*
Y-79000D01*
X-186300Y-78600D01*
X-186033Y-78300D01*
X-185633Y-78050D01*
X-185167Y-77850D01*
X-184500Y-77800D01*
X-183833Y-77850D01*
X-183367Y-78050D01*
X-182967Y-78300D01*
X-182700Y-78600D01*
X-182500Y-79000D01*
Y-80000D01*
G01X-195000D02*
X-190000D01*
G01X-202500D02*
X-197500D01*
G01X-192000Y-9300D02*
X-196000D01*
Y-8050D01*
X-195800Y-7650D01*
X-195533Y-7400D01*
X-195000Y-7300D01*
X-194467Y-7400D01*
X-194133Y-7700D01*
X-193933Y-8050D01*
Y-9300D01*
G01Y-8050D02*
X-192000Y-7300D01*
G01X-193667Y-5650D02*
X-194133Y-5300D01*
X-194400Y-5000D01*
X-194533Y-4600D01*
X-194400Y-4250D01*
X-194133Y-4000D01*
X-193733Y-3800D01*
X-193267Y-3750D01*
X-192867Y-3800D01*
X-192467Y-4000D01*
X-192133Y-4300D01*
X-192000Y-4650D01*
X-192133Y-5050D01*
X-192533Y-5400D01*
X-193133Y-5600D01*
X-193800Y-5650D01*
X-194667Y-5550D01*
X-195133Y-5400D01*
X-195600Y-5150D01*
X-195933Y-4800D01*
X-196000Y-4450D01*
X-195867Y-4100D01*
X-195533Y-3850D01*
G01X-182479Y7521D02*
X-185308Y10349D01*
X-184424Y11233D01*
X-184000Y11374D01*
X-183634Y11363D01*
X-183187Y11056D01*
X-182880Y10608D01*
X-182857Y10160D01*
X-182963Y9771D01*
X-183846Y8888D01*
G01X-182963Y9771D02*
X-181065Y8935D01*
G01X-179297Y10703D02*
X-179839Y11386D01*
X-180252Y12011D01*
X-180582Y12624D01*
X-180923Y13319D01*
X-181348Y14309D01*
X-182762Y12895D01*
G01X-180000Y40000D02*
X-175000D01*
G01X-187500D02*
X-182500D01*
G01X-195000D02*
X-190000D01*
G01X-202500D02*
X-197500D01*
G01X-201900Y21500D02*
X-200700D01*
G01X-201300D02*
Y17500D01*
G01X-201900D02*
X-200700D01*
G01X-198850D02*
Y21500D01*
X-196550Y17500D01*
Y21500D01*
G01X-187000Y71700D02*
Y72700D01*
X-185800D01*
X-185400Y72400D01*
X-185133Y72050D01*
X-185000Y71550D01*
X-185133Y71050D01*
X-185400Y70700D01*
X-185800Y70400D01*
X-186267Y70200D01*
X-186800Y70100D01*
X-187267D01*
X-187667Y70200D01*
X-188133Y70400D01*
X-188533Y70700D01*
X-188800Y71000D01*
X-189000Y71400D01*
Y71750D01*
X-188867Y72150D01*
X-188600Y72450D01*
G01X-185000Y73850D02*
X-189000D01*
X-185000Y76150D01*
X-189000D01*
G01X-185000Y77500D02*
X-189000D01*
Y78500D01*
X-188800Y78900D01*
X-188533Y79200D01*
X-188133Y79450D01*
X-187667Y79650D01*
X-187000Y79700D01*
X-186333Y79650D01*
X-185867Y79450D01*
X-185467Y79200D01*
X-185200Y78900D01*
X-185000Y78500D01*
Y77500D01*
G01X-201300Y62500D02*
X-200100D01*
G01X-200700D02*
Y58500D01*
G01X-201300D02*
X-200100D01*
G01X-198250D02*
Y62500D01*
X-195950Y58500D01*
Y62500D01*
G01X-195000Y57167D02*
X-192000D01*
G01X-189900Y62500D02*
Y58500D01*
G01X-191050Y62500D02*
X-188750D01*
G01X-187300Y58500D02*
Y62500D01*
X-186100D01*
X-185700Y62300D01*
X-185400Y61833D01*
X-185300Y61300D01*
X-185400Y60767D01*
X-185650Y60367D01*
X-186100Y60167D01*
X-187300D01*
G01X-157500Y-80000D02*
X-152500D01*
G01X-150000D02*
X-145000D01*
G01X-178600Y-29400D02*
X-178300Y-29733D01*
X-177950Y-29933D01*
X-177500Y-30000D01*
X-177050Y-29867D01*
X-176700Y-29600D01*
X-176450Y-29133D01*
X-176400Y-28600D01*
X-176500Y-28067D01*
X-176750Y-27733D01*
X-177100Y-27467D01*
X-177450Y-27400D01*
X-177800Y-27467D01*
X-178250Y-27733D01*
X-178100Y-26000D01*
X-176750D01*
G01X-152450Y-28833D02*
X-152100Y-28367D01*
X-151800Y-28100D01*
X-151400Y-27967D01*
X-151050Y-28100D01*
X-150800Y-28367D01*
X-150600Y-28767D01*
X-150550Y-29233D01*
X-150600Y-29633D01*
X-150800Y-30033D01*
X-151100Y-30367D01*
X-151450Y-30500D01*
X-151850Y-30367D01*
X-152200Y-29967D01*
X-152400Y-29367D01*
X-152450Y-28700D01*
X-152350Y-27833D01*
X-152200Y-27367D01*
X-151950Y-26900D01*
X-151600Y-26567D01*
X-151250Y-26500D01*
X-150900Y-26633D01*
X-150650Y-26967D01*
G01X-152450Y-6667D02*
X-152150Y-6267D01*
X-151800Y-6067D01*
X-151400Y-6000D01*
X-150900Y-6133D01*
X-150550Y-6467D01*
X-150450Y-6867D01*
X-150500Y-7267D01*
X-150700Y-7600D01*
X-151700Y-8267D01*
X-152150Y-8733D01*
X-152450Y-9400D01*
X-152550Y-10000D01*
X-150450D01*
G01X-167800Y-1700D02*
X-167550Y-2100D01*
X-167250Y-2367D01*
X-166900Y-2500D01*
X-166500Y-2367D01*
X-166200Y-2100D01*
X-165900Y-1700D01*
X-165800Y-1167D01*
Y1500D01*
G01X-163200Y-2500D02*
Y1500D01*
X-163800Y700D01*
G01Y-2500D02*
X-162600D01*
G01X-150000Y40000D02*
X-145000D01*
G01X-157500D02*
X-152500D01*
G01X-165000D02*
X-160000D01*
G01X-172500D02*
X-167500D01*
G01X-137500Y-87100D02*
X-141500D01*
Y-85850D01*
X-141300Y-85450D01*
X-141033Y-85200D01*
X-140500Y-85100D01*
X-139967Y-85200D01*
X-139633Y-85500D01*
X-139433Y-85850D01*
Y-87100D01*
G01Y-85850D02*
X-137500Y-85100D01*
G01Y-81500D02*
Y-83500D01*
X-141500D01*
Y-81500D01*
G01X-139567Y-82300D02*
Y-83500D01*
G01X-137500Y-79850D02*
X-141500D01*
Y-77950D01*
G01X-139567Y-78650D02*
Y-79850D01*
G01X-120000Y40000D02*
X-115000D01*
G01X-127500D02*
X-122500D01*
G01X-135000D02*
X-130000D01*
G01X-142500D02*
X-137500D01*
G01Y70400D02*
X-141500D01*
Y71650D01*
X-141300Y72050D01*
X-141033Y72300D01*
X-140500Y72400D01*
X-139967Y72300D01*
X-139633Y72000D01*
X-139433Y71650D01*
Y70400D01*
G01Y71650D02*
X-137500Y72400D01*
G01Y76000D02*
Y74000D01*
X-141500D01*
Y76000D01*
G01X-139567Y75200D02*
Y74000D01*
G01X-137500Y77650D02*
X-141500D01*
Y79550D01*
G01X-139567Y78850D02*
Y77650D01*
G01X-105000Y-80000D02*
X-100000D01*
G01X-97500D02*
X-92500D01*
G01X-105000Y-77500D02*
Y-80000D01*
G01X-115000Y-47500D02*
Y-52500D01*
G01X-105000Y-47500D02*
Y-52500D01*
G01Y-55000D02*
Y-60000D01*
G01Y-62500D02*
Y-67500D01*
G01Y-70000D02*
Y-75000D01*
G01X-115000Y-55000D02*
Y-57500D01*
G01Y-40000D02*
Y-45000D01*
G01Y-32500D02*
Y-37500D01*
G01Y-25000D02*
Y-30000D01*
G01Y-17500D02*
Y-22500D01*
G01X-105000Y-40000D02*
Y-45000D01*
G01Y-25000D02*
Y-30000D01*
G01Y-17500D02*
Y-22500D01*
G01Y-32500D02*
Y-37500D01*
G01X-115000Y-10000D02*
Y-15000D01*
G01Y-2500D02*
Y-7500D01*
G01Y5000D02*
Y0D01*
G01Y12500D02*
Y7500D01*
G01X-105000Y-10000D02*
Y-15000D01*
G01Y5000D02*
Y0D01*
G01Y12500D02*
Y7500D01*
G01Y-2500D02*
Y-7500D01*
G01X-115000Y20000D02*
Y15000D01*
G01Y27500D02*
Y22500D01*
G01Y35000D02*
Y30000D01*
G01Y40000D02*
Y37500D01*
G01X-105000Y40000D02*
X-100000D01*
G01X-97500D02*
X-92500D01*
G01X-90000D02*
X-85000D01*
G01X-105000Y20000D02*
Y15000D01*
G01Y35000D02*
Y30000D01*
G01Y40000D02*
Y37500D01*
G01Y27500D02*
Y22500D01*
G01X-93300Y82000D02*
X-92300D01*
Y80800D01*
X-92600Y80400D01*
X-92950Y80133D01*
X-93450Y80000D01*
X-93950Y80133D01*
X-94300Y80400D01*
X-94600Y80800D01*
X-94800Y81267D01*
X-94900Y81800D01*
Y82267D01*
X-94800Y82667D01*
X-94600Y83133D01*
X-94300Y83533D01*
X-94000Y83800D01*
X-93600Y84000D01*
X-93250D01*
X-92850Y83867D01*
X-92550Y83600D01*
G01X-91150Y80000D02*
Y84000D01*
X-88850Y80000D01*
Y84000D01*
G01X-87500Y80000D02*
Y84000D01*
X-86500D01*
X-86100Y83800D01*
X-85800Y83533D01*
X-85550Y83133D01*
X-85350Y82667D01*
X-85300Y82000D01*
X-85350Y81333D01*
X-85550Y80867D01*
X-85800Y80467D01*
X-86100Y80200D01*
X-86500Y80000D01*
X-87500D01*
G01X-87000Y-85800D02*
Y-84800D01*
X-85800D01*
X-85400Y-85100D01*
X-85133Y-85450D01*
X-85000Y-85950D01*
X-85133Y-86450D01*
X-85400Y-86800D01*
X-85800Y-87100D01*
X-86267Y-87300D01*
X-86800Y-87400D01*
X-87267D01*
X-87667Y-87300D01*
X-88133Y-87100D01*
X-88533Y-86800D01*
X-88800Y-86500D01*
X-89000Y-86100D01*
Y-85750D01*
X-88867Y-85350D01*
X-88600Y-85050D01*
G01X-85000Y-83650D02*
X-89000D01*
X-85000Y-81350D01*
X-89000D01*
G01X-85000Y-80000D02*
X-89000D01*
Y-79000D01*
X-88800Y-78600D01*
X-88533Y-78300D01*
X-88133Y-78050D01*
X-87667Y-77850D01*
X-87000Y-77800D01*
X-86333Y-77850D01*
X-85867Y-78050D01*
X-85467Y-78300D01*
X-85200Y-78600D01*
X-85000Y-79000D01*
Y-80000D01*
G01X-60000D02*
X-55000D01*
G01X-69600Y-29900D02*
X-69300Y-30233D01*
X-68950Y-30433D01*
X-68500Y-30500D01*
X-68050Y-30367D01*
X-67700Y-30100D01*
X-67450Y-29633D01*
X-67400Y-29100D01*
X-67500Y-28567D01*
X-67750Y-28233D01*
X-68100Y-27967D01*
X-68450Y-27900D01*
X-68800Y-27967D01*
X-69250Y-28233D01*
X-69100Y-26500D01*
X-67750D01*
G01X-82500Y40000D02*
X-77500D01*
G01X-75000D02*
X-70000D01*
G01X-67500D02*
X-62500D01*
G01X-60000D02*
X-55000D01*
G01X-59600Y24400D02*
Y34400D01*
X-53200Y24400D01*
Y34400D01*
G01X-61100Y15700D02*
X-58000D01*
G01X-56000Y20500D02*
X-61100D01*
Y10500D01*
X-56000D01*
G01X-71100Y24400D02*
X-67600Y34400D01*
X-64100Y24400D01*
G01X-69700Y27900D02*
X-65400D01*
G01X-71000Y20500D02*
Y10500D01*
X-68400D01*
X-67400Y11000D01*
X-66700Y11700D01*
X-66000Y12700D01*
X-65500Y13900D01*
X-65400Y15500D01*
X-65500Y17200D01*
X-66000Y18300D01*
X-66700Y19400D01*
X-67400Y20000D01*
X-68400Y20500D01*
X-71000D01*
G01X-62800Y70000D02*
Y74000D01*
X-61550D01*
X-61150Y73800D01*
X-60900Y73533D01*
X-60800Y73000D01*
X-60900Y72467D01*
X-61200Y72133D01*
X-61550Y71933D01*
X-62800D01*
G01X-61550D02*
X-60800Y70000D01*
G01X-57600D02*
Y74000D01*
X-59450Y71133D01*
X-56950D01*
G01X-83200Y61167D02*
X-83500Y61367D01*
X-83850Y61500D01*
X-84250D01*
X-84700Y61300D01*
X-85050Y60967D01*
X-85300Y60567D01*
X-85500Y59900D01*
X-85550Y59300D01*
X-85450Y58700D01*
X-85300Y58300D01*
X-85000Y57900D01*
X-84650Y57633D01*
X-84300Y57500D01*
X-83950D01*
X-83600Y57633D01*
X-83300Y57833D01*
X-83050Y58100D01*
G01X-80700Y57500D02*
Y61500D01*
X-81300Y60700D01*
G01Y57500D02*
X-80100D01*
G01X-68200Y83667D02*
X-68500Y83867D01*
X-68850Y84000D01*
X-69250D01*
X-69700Y83800D01*
X-70050Y83467D01*
X-70300Y83067D01*
X-70500Y82400D01*
X-70550Y81800D01*
X-70450Y81200D01*
X-70300Y80800D01*
X-70000Y80400D01*
X-69650Y80133D01*
X-69300Y80000D01*
X-68950D01*
X-68600Y80133D01*
X-68300Y80333D01*
X-68050Y80600D01*
G01X-66800D02*
X-66500Y80267D01*
X-66150Y80067D01*
X-65700Y80000D01*
X-65250Y80133D01*
X-64900Y80400D01*
X-64650Y80867D01*
X-64600Y81400D01*
X-64700Y81933D01*
X-64950Y82267D01*
X-65300Y82533D01*
X-65650Y82600D01*
X-66000Y82533D01*
X-66450Y82267D01*
X-66300Y84000D01*
X-64950D01*
G01X-40000Y-87100D02*
X-44000D01*
Y-85850D01*
X-43800Y-85450D01*
X-43533Y-85200D01*
X-43000Y-85100D01*
X-42467Y-85200D01*
X-42133Y-85500D01*
X-41933Y-85850D01*
Y-87100D01*
G01Y-85850D02*
X-40000Y-85100D01*
G01Y-81500D02*
Y-83500D01*
X-44000D01*
Y-81500D01*
G01X-42067Y-82300D02*
Y-83500D01*
G01X-40000Y-79850D02*
X-44000D01*
Y-77950D01*
G01X-42067Y-78650D02*
Y-79850D01*
G01X-52500Y-80000D02*
X-47500D01*
G01X-42450Y-28833D02*
X-42100Y-28367D01*
X-41800Y-28100D01*
X-41400Y-27967D01*
X-41050Y-28100D01*
X-40800Y-28367D01*
X-40600Y-28767D01*
X-40550Y-29233D01*
X-40600Y-29633D01*
X-40800Y-30033D01*
X-41100Y-30367D01*
X-41450Y-30500D01*
X-41850Y-30367D01*
X-42200Y-29967D01*
X-42400Y-29367D01*
X-42450Y-28700D01*
X-42350Y-27833D01*
X-42200Y-27367D01*
X-41950Y-26900D01*
X-41600Y-26567D01*
X-41250Y-26500D01*
X-40900Y-26633D01*
X-40650Y-26967D01*
G01X-42450Y-6667D02*
X-42150Y-6267D01*
X-41800Y-6067D01*
X-41400Y-6000D01*
X-40900Y-6133D01*
X-40550Y-6467D01*
X-40450Y-6867D01*
X-40500Y-7267D01*
X-40700Y-7600D01*
X-41700Y-8267D01*
X-42150Y-8733D01*
X-42450Y-9400D01*
X-42550Y-10000D01*
X-40450D01*
G01X-57800Y-1700D02*
X-57550Y-2100D01*
X-57250Y-2367D01*
X-56900Y-2500D01*
X-56500Y-2367D01*
X-56200Y-2100D01*
X-55900Y-1700D01*
X-55800Y-1167D01*
Y1500D01*
G01X-54150Y833D02*
X-53850Y1233D01*
X-53500Y1433D01*
X-53100Y1500D01*
X-52600Y1367D01*
X-52250Y1033D01*
X-52150Y633D01*
X-52200Y233D01*
X-52400Y-100D01*
X-53400Y-767D01*
X-53850Y-1233D01*
X-54150Y-1900D01*
X-54250Y-2500D01*
X-52150D01*
G01X-52500Y40000D02*
X-47500D01*
G01X-45000D02*
X-40000D01*
G01X-37500D02*
X-32500D01*
G01X-30000D02*
X-25000D01*
G01X-40900Y20500D02*
X-37900D01*
G01X-36800Y34400D02*
Y24400D01*
X-31200D01*
G01X-39400Y20500D02*
Y10500D01*
G01X-40900D02*
X-37900D01*
G01X-27000Y19700D02*
X-27800Y20200D01*
X-28700Y20500D01*
X-29700D01*
X-30800Y20000D01*
X-31700Y19200D01*
X-32300Y18200D01*
X-32800Y16600D01*
X-33000Y15000D01*
X-32700Y13500D01*
X-32300Y12500D01*
X-31600Y11500D01*
X-30700Y10800D01*
X-29800Y10500D01*
X-28900D01*
X-28100Y10800D01*
X-27300Y11300D01*
X-26600Y12000D01*
G01X-47300Y27900D02*
X-43000D01*
G01X-48700Y24400D02*
X-45200Y34400D01*
X-41700Y24400D01*
G01X-52200Y20500D02*
X-49000Y10500D01*
X-45800Y20500D01*
G01X-42900Y66500D02*
Y63633D01*
X-42700Y63033D01*
X-42300Y62633D01*
X-41800Y62500D01*
X-41300Y62633D01*
X-40900Y63033D01*
X-40700Y63633D01*
Y66500D01*
G01X-39150Y65833D02*
X-38850Y66233D01*
X-38500Y66433D01*
X-38100Y66500D01*
X-37600Y66367D01*
X-37250Y66033D01*
X-37150Y65633D01*
X-37200Y65233D01*
X-37400Y64900D01*
X-38400Y64233D01*
X-38850Y63767D01*
X-39150Y63100D01*
X-39250Y62500D01*
X-37150D01*
G01X-35700Y61167D02*
X-36000Y61367D01*
X-36350Y61500D01*
X-36750D01*
X-37200Y61300D01*
X-37550Y60967D01*
X-37800Y60567D01*
X-38000Y59900D01*
X-38050Y59300D01*
X-37950Y58700D01*
X-37800Y58300D01*
X-37500Y57900D01*
X-37150Y57633D01*
X-36800Y57500D01*
X-36450D01*
X-36100Y57633D01*
X-35800Y57833D01*
X-35550Y58100D01*
G01X-34150Y59167D02*
X-33800Y59633D01*
X-33500Y59900D01*
X-33100Y60033D01*
X-32750Y59900D01*
X-32500Y59633D01*
X-32300Y59233D01*
X-32250Y58767D01*
X-32300Y58367D01*
X-32500Y57967D01*
X-32800Y57633D01*
X-33150Y57500D01*
X-33550Y57633D01*
X-33900Y58033D01*
X-34100Y58633D01*
X-34150Y59300D01*
X-34050Y60167D01*
X-33900Y60633D01*
X-33650Y61100D01*
X-33300Y61433D01*
X-32950Y61500D01*
X-32600Y61367D01*
X-32350Y61033D01*
G01X-46667Y46800D02*
X-46867Y46500D01*
X-47000Y46150D01*
Y45750D01*
X-46800Y45300D01*
X-46467Y44950D01*
X-46067Y44700D01*
X-45400Y44500D01*
X-44800Y44450D01*
X-44200Y44550D01*
X-43800Y44700D01*
X-43400Y45000D01*
X-43133Y45350D01*
X-43000Y45700D01*
Y46050D01*
X-43133Y46400D01*
X-43333Y46700D01*
X-43600Y46950D01*
G01X-43000Y49900D02*
X-47000D01*
X-44133Y48050D01*
Y50550D01*
G01X-33000Y44700D02*
X-37000D01*
Y45950D01*
X-36800Y46350D01*
X-36533Y46600D01*
X-36000Y46700D01*
X-35467Y46600D01*
X-35133Y46300D01*
X-34933Y45950D01*
Y44700D01*
G01Y45950D02*
X-33000Y46700D01*
G01X-36333Y48350D02*
X-36733Y48650D01*
X-36933Y49000D01*
X-37000Y49400D01*
X-36867Y49900D01*
X-36533Y50250D01*
X-36133Y50350D01*
X-35733Y50300D01*
X-35400Y50100D01*
X-34733Y49100D01*
X-34267Y48650D01*
X-33600Y48350D01*
X-33000Y48250D01*
Y50350D01*
G01X-10000Y-80000D02*
X-5000D01*
G01Y-77500D02*
Y-80000D01*
G01X-15000D02*
X-12500D01*
G01X-5000Y-47500D02*
Y-52500D01*
G01Y-55000D02*
Y-60000D01*
G01Y-62500D02*
Y-67500D01*
G01Y-70000D02*
Y-75000D01*
G01Y-40000D02*
Y-45000D01*
G01Y-25000D02*
Y-30000D01*
G01Y-17500D02*
Y-22500D01*
G01Y-32500D02*
Y-37500D01*
G01Y-10000D02*
Y-15000D01*
G01Y5000D02*
Y0D01*
G01Y12500D02*
Y7500D01*
G01Y-2500D02*
Y-7500D01*
G01X-22500Y40000D02*
X-17500D01*
G01X-15000D02*
X-10000D01*
G01X-7500D02*
X-5000D01*
G01Y20000D02*
Y15000D01*
G01Y35000D02*
Y30000D01*
G01Y40000D02*
Y37500D01*
G01Y27500D02*
Y22500D01*
G01X-8700Y33400D02*
X-9500Y34100D01*
X-10600Y34400D01*
X-11600D01*
X-12700Y33900D01*
X-13600Y33200D01*
X-14400Y32200D01*
X-14900Y31200D01*
X-15200Y30100D01*
Y28900D01*
X-15000Y27600D01*
X-14400Y26400D01*
X-13600Y25400D01*
X-12700Y24800D01*
X-11200Y24400D01*
X-9800Y24700D01*
X-8800Y25400D01*
X-8000Y26400D01*
Y29400D01*
X-10800D01*
G01X-8400Y19300D02*
X-9200Y20200D01*
X-10100Y20500D01*
X-11000D01*
X-11900Y20000D01*
X-12500Y19200D01*
X-12700Y18000D01*
X-12400Y16800D01*
X-11500Y16200D01*
X-9900Y15800D01*
X-8800Y15200D01*
X-8200Y14200D01*
X-7900Y13000D01*
X-8300Y11800D01*
X-9100Y11000D01*
X-10100Y10500D01*
X-11100D01*
X-12200Y11000D01*
X-13200Y11800D01*
G01X-26600Y28700D02*
Y30100D01*
X-26300Y31400D01*
X-25700Y32600D01*
X-24900Y33600D01*
X-24000Y34200D01*
X-22800Y34400D01*
X-21600Y34200D01*
X-20700Y33600D01*
X-19900Y32600D01*
X-19300Y31400D01*
X-19000Y30100D01*
Y28700D01*
X-19300Y27400D01*
X-19900Y26200D01*
X-20700Y25200D01*
X-21600Y24600D01*
X-22800Y24400D01*
X-24000Y24600D01*
X-24900Y25200D01*
X-25800Y26300D01*
X-26300Y27400D01*
X-26600Y28700D01*
G01X-17600Y20500D02*
X-22700D01*
Y10500D01*
X-17600D01*
G01X-22700Y15700D02*
X-19600D01*
G01X-23000Y45200D02*
X-27000D01*
Y46450D01*
X-26800Y46850D01*
X-26533Y47100D01*
X-26000Y47200D01*
X-25467Y47100D01*
X-25133Y46800D01*
X-24933Y46450D01*
Y45200D01*
G01Y46450D02*
X-23000Y47200D01*
G01Y49800D02*
X-27000D01*
X-26200Y49200D01*
G01X-23000D02*
Y50400D01*
G01X-6000Y65700D02*
X-10000D01*
Y66950D01*
X-9800Y67350D01*
X-9533Y67600D01*
X-9000Y67700D01*
X-8467Y67600D01*
X-8133Y67300D01*
X-7933Y66950D01*
Y65700D01*
G01Y66950D02*
X-6000Y67700D01*
G01X-6800Y69200D02*
X-6333Y69500D01*
X-6067Y69900D01*
X-6000Y70350D01*
X-6067Y70750D01*
X-6400Y71150D01*
X-6800Y71400D01*
X-7200Y71450D01*
X-7667Y71350D01*
X-8000Y71000D01*
X-8133Y70650D01*
Y70200D01*
G01Y70650D02*
X-8333Y70950D01*
X-8667Y71200D01*
X-9067Y71300D01*
X-9467Y71200D01*
X-9800Y70950D01*
X-10000Y70500D01*
X-9933Y70050D01*
X-9667Y69600D01*
G01X10500Y-85800D02*
Y-84800D01*
X11700D01*
X12100Y-85100D01*
X12367Y-85450D01*
X12500Y-85950D01*
X12367Y-86450D01*
X12100Y-86800D01*
X11700Y-87100D01*
X11233Y-87300D01*
X10700Y-87400D01*
X10233D01*
X9833Y-87300D01*
X9367Y-87100D01*
X8967Y-86800D01*
X8700Y-86500D01*
X8500Y-86100D01*
Y-85750D01*
X8633Y-85350D01*
X8900Y-85050D01*
G01X12500Y-83650D02*
X8500D01*
X12500Y-81350D01*
X8500D01*
G01X12500Y-80000D02*
X8500D01*
Y-79000D01*
X8700Y-78600D01*
X8967Y-78300D01*
X9367Y-78050D01*
X9833Y-77850D01*
X10500Y-77800D01*
X11167Y-77850D01*
X11633Y-78050D01*
X12033Y-78300D01*
X12300Y-78600D01*
X12500Y-79000D01*
Y-80000D01*
G01X5000Y-77500D02*
Y-80000D01*
G01D02*
X7500D01*
G01X5000Y-47500D02*
Y-52500D01*
G01Y-55000D02*
Y-60000D01*
G01Y-62500D02*
Y-67500D01*
G01Y-70000D02*
Y-75000D01*
G01Y-40000D02*
Y-45000D01*
G01Y-25000D02*
Y-30000D01*
G01Y-17500D02*
Y-22500D01*
G01Y-32500D02*
Y-37500D01*
G01Y-10000D02*
Y-15000D01*
G01Y5000D02*
Y0D01*
G01Y12500D02*
Y7500D01*
G01Y-2500D02*
Y-7500D01*
G01X20000Y40000D02*
X25000D01*
G01X12500D02*
X17500D01*
G01X5000D02*
X10000D01*
G01X27500D02*
X32500D01*
G01X5000Y20000D02*
Y15000D01*
G01Y35000D02*
Y30000D01*
G01Y40000D02*
Y37500D01*
G01Y27500D02*
Y22500D01*
G01X7100Y69000D02*
Y66133D01*
X7300Y65533D01*
X7700Y65133D01*
X8200Y65000D01*
X8700Y65133D01*
X9100Y65533D01*
X9300Y66133D01*
Y69000D01*
G01X11800Y65000D02*
Y69000D01*
X11200Y68200D01*
G01Y65000D02*
X12400D01*
G01X25700Y42900D02*
X26100Y43150D01*
X26367Y43450D01*
X26500Y43800D01*
X26367Y44200D01*
X26100Y44500D01*
X25700Y44800D01*
X25167Y44900D01*
X22500D01*
G01X26500Y46500D02*
X22500D01*
Y47700D01*
X22700Y48100D01*
X23167Y48400D01*
X23700Y48500D01*
X24233Y48400D01*
X24633Y48150D01*
X24833Y47700D01*
Y46500D01*
G01X26500Y51100D02*
X22500D01*
X23300Y50500D01*
G01X26500D02*
Y51700D01*
G01X7100Y74000D02*
Y71133D01*
X7300Y70533D01*
X7700Y70133D01*
X8200Y70000D01*
X8700Y70133D01*
X9100Y70533D01*
X9300Y71133D01*
Y74000D01*
G01X10700Y70800D02*
X11000Y70333D01*
X11400Y70067D01*
X11850Y70000D01*
X12250Y70067D01*
X12650Y70400D01*
X12900Y70800D01*
X12950Y71200D01*
X12850Y71667D01*
X12500Y72000D01*
X12150Y72133D01*
X11700D01*
G01X12150D02*
X12450Y72333D01*
X12700Y72667D01*
X12800Y73067D01*
X12700Y73467D01*
X12450Y73800D01*
X12000Y74000D01*
X11550Y73933D01*
X11100Y73667D01*
G01X26333Y79300D02*
X26133Y79000D01*
X26000Y78650D01*
Y78250D01*
X26200Y77800D01*
X26533Y77450D01*
X26933Y77200D01*
X27600Y77000D01*
X28200Y76950D01*
X28800Y77050D01*
X29200Y77200D01*
X29600Y77500D01*
X29867Y77850D01*
X30000Y78200D01*
Y78550D01*
X29867Y78900D01*
X29667Y79200D01*
X29400Y79450D01*
G01X29533Y80950D02*
X29867Y81300D01*
X30000Y81700D01*
X29867Y82100D01*
X29467Y82450D01*
X28867Y82700D01*
X28267Y82800D01*
X27533D01*
X26933Y82700D01*
X26400Y82450D01*
X26133Y82150D01*
X26000Y81800D01*
X26133Y81400D01*
X26400Y81100D01*
X26800Y80900D01*
X27333Y80800D01*
X27800Y80900D01*
X28267Y81150D01*
X28533Y81450D01*
X28600Y81800D01*
X28467Y82200D01*
X28133Y82500D01*
X27533Y82800D01*
G01X16333Y79300D02*
X16133Y79000D01*
X16000Y78650D01*
Y78250D01*
X16200Y77800D01*
X16533Y77450D01*
X16933Y77200D01*
X17600Y77000D01*
X18200Y76950D01*
X18800Y77050D01*
X19200Y77200D01*
X19600Y77500D01*
X19867Y77850D01*
X20000Y78200D01*
Y78550D01*
X19867Y78900D01*
X19667Y79200D01*
X19400Y79450D01*
G01X20000Y81700D02*
X19133Y81800D01*
X18400Y81950D01*
X17733Y82150D01*
X17000Y82400D01*
X16000Y82800D01*
Y80800D01*
G01X62500Y-87100D02*
X58500D01*
Y-85850D01*
X58700Y-85450D01*
X58967Y-85200D01*
X59500Y-85100D01*
X60033Y-85200D01*
X60367Y-85500D01*
X60567Y-85850D01*
Y-87100D01*
G01Y-85850D02*
X62500Y-85100D01*
G01Y-81500D02*
Y-83500D01*
X58500D01*
Y-81500D01*
G01X60433Y-82300D02*
Y-83500D01*
G01X62500Y-79850D02*
X58500D01*
Y-77950D01*
G01X60433Y-78650D02*
Y-79850D01*
G01X37500Y-80000D02*
X42500D01*
G01X45000D02*
X50000D01*
G01X52500D02*
X55000D01*
G01X40400Y-29900D02*
X40700Y-30233D01*
X41050Y-30433D01*
X41500Y-30500D01*
X41950Y-30367D01*
X42300Y-30100D01*
X42550Y-29633D01*
X42600Y-29100D01*
X42500Y-28567D01*
X42250Y-28233D01*
X41900Y-27967D01*
X41550Y-27900D01*
X41200Y-27967D01*
X40750Y-28233D01*
X40900Y-26500D01*
X42250D01*
G01X52200Y-1700D02*
X52450Y-2100D01*
X52750Y-2367D01*
X53100Y-2500D01*
X53500Y-2367D01*
X53800Y-2100D01*
X54100Y-1700D01*
X54200Y-1167D01*
Y1500D01*
G01X55700Y-1700D02*
X56000Y-2167D01*
X56400Y-2433D01*
X56850Y-2500D01*
X57250Y-2433D01*
X57650Y-2100D01*
X57900Y-1700D01*
X57950Y-1300D01*
X57850Y-833D01*
X57500Y-500D01*
X57150Y-367D01*
X56700D01*
G01X57150D02*
X57450Y-167D01*
X57700Y167D01*
X57800Y567D01*
X57700Y967D01*
X57450Y1300D01*
X57000Y1500D01*
X56550Y1433D01*
X56100Y1167D01*
G01X50000Y40000D02*
X55000D01*
G01X42500D02*
X47500D01*
G01X35000D02*
X40000D01*
G01X57500D02*
X62500D01*
G01X41800Y53667D02*
X41500Y53867D01*
X41150Y54000D01*
X40750D01*
X40300Y53800D01*
X39950Y53467D01*
X39700Y53067D01*
X39500Y52400D01*
X39450Y51800D01*
X39550Y51200D01*
X39700Y50800D01*
X40000Y50400D01*
X40350Y50133D01*
X40700Y50000D01*
X41050D01*
X41400Y50133D01*
X41700Y50333D01*
X41950Y50600D01*
G01X43200Y50800D02*
X43500Y50333D01*
X43900Y50067D01*
X44350Y50000D01*
X44750Y50067D01*
X45150Y50400D01*
X45400Y50800D01*
X45450Y51200D01*
X45350Y51667D01*
X45000Y52000D01*
X44650Y52133D01*
X44200D01*
G01X44650D02*
X44950Y52333D01*
X45200Y52667D01*
X45300Y53067D01*
X45200Y53467D01*
X44950Y53800D01*
X44500Y54000D01*
X44050Y53933D01*
X43600Y53667D01*
G01X40400Y43300D02*
X40650Y42900D01*
X40950Y42633D01*
X41300Y42500D01*
X41700Y42633D01*
X42000Y42900D01*
X42300Y43300D01*
X42400Y43833D01*
Y46500D01*
G01X44000Y42500D02*
Y46500D01*
X45200D01*
X45600Y46300D01*
X45900Y45833D01*
X46000Y45300D01*
X45900Y44767D01*
X45650Y44367D01*
X45200Y44167D01*
X44000D01*
G01X47650Y45833D02*
X47950Y46233D01*
X48300Y46433D01*
X48700Y46500D01*
X49200Y46367D01*
X49550Y46033D01*
X49650Y45633D01*
X49600Y45233D01*
X49400Y44900D01*
X48400Y44233D01*
X47950Y43767D01*
X47650Y43100D01*
X47550Y42500D01*
X49650D01*
G01X57900Y60000D02*
Y64000D01*
X59150D01*
X59550Y63800D01*
X59800Y63533D01*
X59900Y63000D01*
X59800Y62467D01*
X59500Y62133D01*
X59150Y61933D01*
X57900D01*
G01X59150D02*
X59900Y60000D01*
G01X63500D02*
X61500D01*
Y64000D01*
X63500D01*
G01X62700Y62067D02*
X61500D01*
G01X65150Y60000D02*
Y64000D01*
X67050D01*
G01X66350Y62067D02*
X65150D01*
G01X37300Y77667D02*
X37000Y77867D01*
X36650Y78000D01*
X36250D01*
X35800Y77800D01*
X35450Y77467D01*
X35200Y77067D01*
X35000Y76400D01*
X34950Y75800D01*
X35050Y75200D01*
X35200Y74800D01*
X35500Y74400D01*
X35850Y74133D01*
X36200Y74000D01*
X36550D01*
X36900Y74133D01*
X37200Y74333D01*
X37450Y74600D01*
G01X38850Y77333D02*
X39150Y77733D01*
X39500Y77933D01*
X39900Y78000D01*
X40400Y77867D01*
X40750Y77533D01*
X40850Y77133D01*
X40800Y76733D01*
X40600Y76400D01*
X39600Y75733D01*
X39150Y75267D01*
X38850Y74600D01*
X38750Y74000D01*
X40850D01*
G01X45050Y80000D02*
X46300Y84000D01*
X47550Y80000D01*
G01X47100Y81400D02*
X45500D01*
G01X48800Y80000D02*
Y84000D01*
X49800D01*
X50200Y83800D01*
X50500Y83533D01*
X50750Y83133D01*
X50950Y82667D01*
X51000Y82000D01*
X50950Y81333D01*
X50750Y80867D01*
X50500Y80467D01*
X50200Y80200D01*
X49800Y80000D01*
X48800D01*
G01X53500D02*
X53850Y80067D01*
X54250Y80267D01*
X54500Y80600D01*
X54600Y81067D01*
X54500Y81533D01*
X54200Y81933D01*
X53750Y82133D01*
X53250D01*
X52950Y82267D01*
X52700Y82600D01*
X52600Y83067D01*
X52750Y83533D01*
X53100Y83867D01*
X53500Y84000D01*
X53900Y83867D01*
X54250Y83533D01*
X54400Y83067D01*
X54300Y82600D01*
X54050Y82267D01*
X53750Y82133D01*
X53250D01*
X52800Y81933D01*
X52500Y81533D01*
X52400Y81067D01*
X52500Y80600D01*
X52750Y80267D01*
X53150Y80067D01*
X53500Y80000D01*
G01X57100Y84000D02*
X56700Y83867D01*
X56400Y83533D01*
X56200Y83133D01*
X56050Y82600D01*
X56000Y82000D01*
X56050Y81400D01*
X56200Y80867D01*
X56400Y80467D01*
X56700Y80133D01*
X57100Y80000D01*
X57500Y80133D01*
X57800Y80467D01*
X58000Y80867D01*
X58150Y81400D01*
X58200Y82000D01*
X58150Y82600D01*
X58000Y83133D01*
X57800Y83533D01*
X57500Y83867D01*
X57100Y84000D01*
G01X59600Y80800D02*
X59900Y80333D01*
X60300Y80067D01*
X60750Y80000D01*
X61150Y80067D01*
X61550Y80400D01*
X61800Y80800D01*
X61850Y81200D01*
X61750Y81667D01*
X61400Y82000D01*
X61050Y82133D01*
X60600D01*
G01X61050D02*
X61350Y82333D01*
X61600Y82667D01*
X61700Y83067D01*
X61600Y83467D01*
X61350Y83800D01*
X60900Y84000D01*
X60450Y83933D01*
X60000Y83667D01*
G01X64300Y80000D02*
Y84000D01*
X63700Y83200D01*
G01Y80000D02*
X64900D01*
G01X66400Y78667D02*
X69400D01*
G01X71500Y80000D02*
X71100Y80067D01*
X70750Y80333D01*
X70450Y80733D01*
X70250Y81200D01*
X70150Y81733D01*
Y82267D01*
X70250Y82800D01*
X70450Y83267D01*
X70750Y83667D01*
X71100Y83933D01*
X71500Y84000D01*
X71900Y83933D01*
X72250Y83667D01*
X72550Y83267D01*
X72750Y82800D01*
X72850Y82267D01*
Y81733D01*
X72750Y81200D01*
X72550Y80733D01*
X72250Y80333D01*
X71900Y80067D01*
X71500Y80000D01*
G01X74000Y84000D02*
Y81133D01*
X74200Y80533D01*
X74600Y80133D01*
X75100Y80000D01*
X75600Y80133D01*
X76000Y80533D01*
X76200Y81133D01*
Y84000D01*
G01X78700D02*
Y80000D01*
G01X77550Y84000D02*
X79850D01*
G01X87500Y-80000D02*
X92500D01*
G01X67550Y-28833D02*
X67900Y-28367D01*
X68200Y-28100D01*
X68600Y-27967D01*
X68950Y-28100D01*
X69200Y-28367D01*
X69400Y-28767D01*
X69450Y-29233D01*
X69400Y-29633D01*
X69200Y-30033D01*
X68900Y-30367D01*
X68550Y-30500D01*
X68150Y-30367D01*
X67800Y-29967D01*
X67600Y-29367D01*
X67550Y-28700D01*
X67650Y-27833D01*
X67800Y-27367D01*
X68050Y-26900D01*
X68400Y-26567D01*
X68750Y-26500D01*
X69100Y-26633D01*
X69350Y-26967D01*
G01X67550Y-6667D02*
X67850Y-6267D01*
X68200Y-6067D01*
X68600Y-6000D01*
X69100Y-6133D01*
X69450Y-6467D01*
X69550Y-6867D01*
X69500Y-7267D01*
X69300Y-7600D01*
X68300Y-8267D01*
X67850Y-8733D01*
X67550Y-9400D01*
X67450Y-10000D01*
X69550D01*
G01X80000Y40000D02*
X85000D01*
G01X72500D02*
X77500D01*
G01X65000D02*
X70000D01*
G01X87500D02*
X92500D01*
G01X87200Y65167D02*
X86900Y65367D01*
X86550Y65500D01*
X86150D01*
X85700Y65300D01*
X85350Y64967D01*
X85100Y64567D01*
X84900Y63900D01*
X84850Y63300D01*
X84950Y62700D01*
X85100Y62300D01*
X85400Y61900D01*
X85750Y61633D01*
X86100Y61500D01*
X86450D01*
X86800Y61633D01*
X87100Y61833D01*
X87350Y62100D01*
G01X89700Y61500D02*
Y65500D01*
X89100Y64700D01*
G01Y61500D02*
X90300D01*
G01X93300Y65500D02*
X92900Y65367D01*
X92600Y65033D01*
X92400Y64633D01*
X92250Y64100D01*
X92200Y63500D01*
X92250Y62900D01*
X92400Y62367D01*
X92600Y61967D01*
X92900Y61633D01*
X93300Y61500D01*
X93700Y61633D01*
X94000Y61967D01*
X94200Y62367D01*
X94350Y62900D01*
X94400Y63500D01*
X94350Y64100D01*
X94200Y64633D01*
X94000Y65033D01*
X93700Y65367D01*
X93300Y65500D01*
G01X96900D02*
X96500Y65367D01*
X96200Y65033D01*
X96000Y64633D01*
X95850Y64100D01*
X95800Y63500D01*
X95850Y62900D01*
X96000Y62367D01*
X96200Y61967D01*
X96500Y61633D01*
X96900Y61500D01*
X97300Y61633D01*
X97600Y61967D01*
X97800Y62367D01*
X97950Y62900D01*
X98000Y63500D01*
X97950Y64100D01*
X97800Y64633D01*
X97600Y65033D01*
X97300Y65367D01*
X96900Y65500D01*
G01X87200Y87667D02*
X86900Y87867D01*
X86550Y88000D01*
X86150D01*
X85700Y87800D01*
X85350Y87467D01*
X85100Y87067D01*
X84900Y86400D01*
X84850Y85800D01*
X84950Y85200D01*
X85100Y84800D01*
X85400Y84400D01*
X85750Y84133D01*
X86100Y84000D01*
X86450D01*
X86800Y84133D01*
X87100Y84333D01*
X87350Y84600D01*
G01X89700Y84000D02*
Y88000D01*
X89100Y87200D01*
G01Y84000D02*
X90300D01*
G01X93300Y88000D02*
X92900Y87867D01*
X92600Y87533D01*
X92400Y87133D01*
X92250Y86600D01*
X92200Y86000D01*
X92250Y85400D01*
X92400Y84867D01*
X92600Y84467D01*
X92900Y84133D01*
X93300Y84000D01*
X93700Y84133D01*
X94000Y84467D01*
X94200Y84867D01*
X94350Y85400D01*
X94400Y86000D01*
X94350Y86600D01*
X94200Y87133D01*
X94000Y87533D01*
X93700Y87867D01*
X93300Y88000D01*
G01X96900Y84000D02*
Y88000D01*
X96300Y87200D01*
G01Y84000D02*
X97500D01*
G01X110500Y-85800D02*
Y-84800D01*
X111700D01*
X112100Y-85100D01*
X112367Y-85450D01*
X112500Y-85950D01*
X112367Y-86450D01*
X112100Y-86800D01*
X111700Y-87100D01*
X111233Y-87300D01*
X110700Y-87400D01*
X110233D01*
X109833Y-87300D01*
X109367Y-87100D01*
X108967Y-86800D01*
X108700Y-86500D01*
X108500Y-86100D01*
Y-85750D01*
X108633Y-85350D01*
X108900Y-85050D01*
G01X112500Y-83650D02*
X108500D01*
X112500Y-81350D01*
X108500D01*
G01X112500Y-80000D02*
X108500D01*
Y-79000D01*
X108700Y-78600D01*
X108967Y-78300D01*
X109367Y-78050D01*
X109833Y-77850D01*
X110500Y-77800D01*
X111167Y-77850D01*
X111633Y-78050D01*
X112033Y-78300D01*
X112300Y-78600D01*
X112500Y-79000D01*
Y-80000D01*
G01X95000D02*
X100000D01*
G01X105000Y-77500D02*
Y-80000D01*
G01X102500D02*
X105000D01*
G01Y-47500D02*
Y-52500D01*
G01Y-55000D02*
Y-60000D01*
G01Y-62500D02*
Y-67500D01*
G01X115000Y-47500D02*
Y-52500D01*
G01X105000Y-70000D02*
Y-75000D01*
G01X115000Y-55000D02*
Y-57500D01*
G01X105000Y-40000D02*
Y-45000D01*
G01Y-25000D02*
Y-30000D01*
G01Y-17500D02*
Y-22500D01*
G01Y-32500D02*
Y-37500D01*
G01X115000Y-40000D02*
Y-45000D01*
G01Y-25000D02*
Y-30000D01*
G01Y-17500D02*
Y-22500D01*
G01Y-32500D02*
Y-37500D01*
G01X105000Y-10000D02*
Y-15000D01*
G01Y5000D02*
Y0D01*
G01Y12500D02*
Y7500D01*
G01Y-2500D02*
Y-7500D01*
G01X115000Y-10000D02*
Y-15000D01*
G01Y5000D02*
Y0D01*
G01Y12500D02*
Y7500D01*
G01Y-2500D02*
Y-7500D01*
G01X102500Y40000D02*
X105000D01*
G01X95000D02*
X100000D01*
G01X115000D02*
X120000D01*
G01X105000Y20000D02*
Y15000D01*
G01Y35000D02*
Y30000D01*
G01Y40000D02*
Y37500D01*
G01Y27500D02*
Y22500D01*
G01X115000Y20000D02*
Y15000D01*
G01Y35000D02*
Y30000D01*
G01Y40000D02*
Y37500D01*
G01Y27500D02*
Y22500D01*
G01X115750Y61333D02*
X117050D01*
G01X118750Y64000D02*
X120000Y60000D01*
X121250Y64000D01*
G01X122550Y60533D02*
X122950Y60200D01*
X123400Y60000D01*
X123800D01*
X124200Y60200D01*
X124500Y60533D01*
X124650Y61000D01*
X124550Y61467D01*
X124300Y61867D01*
X123850Y62133D01*
X123250Y62267D01*
X122900Y62533D01*
X122750Y63000D01*
X122850Y63467D01*
X123100Y63800D01*
X123450Y64000D01*
X123800D01*
X124150Y63867D01*
X124450Y63533D01*
G01X115850Y83833D02*
X117050D01*
G01X116400Y84700D02*
Y82967D01*
G01X118750Y86500D02*
X120000Y82500D01*
X121250Y86500D01*
G01X122550Y83033D02*
X122950Y82700D01*
X123400Y82500D01*
X123800D01*
X124200Y82700D01*
X124500Y83033D01*
X124650Y83500D01*
X124550Y83967D01*
X124300Y84367D01*
X123850Y84633D01*
X123250Y84767D01*
X122900Y85033D01*
X122750Y85500D01*
X122850Y85967D01*
X123100Y86300D01*
X123450Y86500D01*
X123800D01*
X124150Y86367D01*
X124450Y86033D01*
G01X137500Y-80000D02*
X142500D01*
G01X145000D02*
X150000D01*
G01X130000Y40000D02*
X135000D01*
G01X122500D02*
X127500D01*
G01X145000D02*
X150000D01*
G01X137500D02*
X142500D01*
G01X147900Y60800D02*
X148150Y60400D01*
X148450Y60133D01*
X148800Y60000D01*
X149200Y60133D01*
X149500Y60400D01*
X149800Y60800D01*
X149900Y61333D01*
Y64000D01*
G01X151500Y60000D02*
Y64000D01*
X152700D01*
X153100Y63800D01*
X153400Y63333D01*
X153500Y62800D01*
X153400Y62267D01*
X153150Y61867D01*
X152700Y61667D01*
X151500D01*
G01X155000Y60800D02*
X155300Y60333D01*
X155700Y60067D01*
X156150Y60000D01*
X156550Y60067D01*
X156950Y60400D01*
X157200Y60800D01*
X157250Y61200D01*
X157150Y61667D01*
X156800Y62000D01*
X156450Y62133D01*
X156000D01*
G01X156450D02*
X156750Y62333D01*
X157000Y62667D01*
X157100Y63067D01*
X157000Y63467D01*
X156750Y63800D01*
X156300Y64000D01*
X155850Y63933D01*
X155400Y63667D01*
G01X141000Y47500D02*
X140600Y47567D01*
X140250Y47833D01*
X139950Y48233D01*
X139750Y48700D01*
X139650Y49233D01*
Y49767D01*
X139750Y50300D01*
X139950Y50767D01*
X140250Y51167D01*
X140600Y51433D01*
X141000Y51500D01*
X141400Y51433D01*
X141750Y51167D01*
X142050Y50767D01*
X142250Y50300D01*
X142350Y49767D01*
Y49233D01*
X142250Y48700D01*
X142050Y48233D01*
X141750Y47833D01*
X141400Y47567D01*
X141000Y47500D01*
G01X143500Y51500D02*
Y48633D01*
X143700Y48033D01*
X144100Y47633D01*
X144600Y47500D01*
X145100Y47633D01*
X145500Y48033D01*
X145700Y48633D01*
Y51500D01*
G01X148200D02*
Y47500D01*
G01X147050Y51500D02*
X149350D01*
G01X150300Y46167D02*
X153300D01*
G01X155400Y51500D02*
Y47500D01*
G01X154250Y51500D02*
X156550D01*
G01X158000Y47500D02*
Y51500D01*
X159200D01*
X159600Y51300D01*
X159900Y50833D01*
X160000Y50300D01*
X159900Y49767D01*
X159650Y49367D01*
X159200Y49167D01*
X158000D01*
G01X160000Y-87100D02*
X156000D01*
Y-85850D01*
X156200Y-85450D01*
X156467Y-85200D01*
X157000Y-85100D01*
X157533Y-85200D01*
X157867Y-85500D01*
X158067Y-85850D01*
Y-87100D01*
G01Y-85850D02*
X160000Y-85100D01*
G01Y-81500D02*
Y-83500D01*
X156000D01*
Y-81500D01*
G01X157933Y-82300D02*
Y-83500D01*
G01X160000Y-79850D02*
X156000D01*
Y-77950D01*
G01X157933Y-78650D02*
Y-79850D01*
G01X177550Y-28833D02*
X177900Y-28367D01*
X178200Y-28100D01*
X178600Y-27967D01*
X178950Y-28100D01*
X179200Y-28367D01*
X179400Y-28767D01*
X179450Y-29233D01*
X179400Y-29633D01*
X179200Y-30033D01*
X178900Y-30367D01*
X178550Y-30500D01*
X178150Y-30367D01*
X177800Y-29967D01*
X177600Y-29367D01*
X177550Y-28700D01*
X177650Y-27833D01*
X177800Y-27367D01*
X178050Y-26900D01*
X178400Y-26567D01*
X178750Y-26500D01*
X179100Y-26633D01*
X179350Y-26967D01*
G01X179981Y7261D02*
X177152Y10089D01*
X178036Y10973D01*
X178460Y11114D01*
X178826Y11103D01*
X179273Y10796D01*
X179580Y10348D01*
X179603Y9900D01*
X179497Y9511D01*
X178614Y8628D01*
G01X179497Y9511D02*
X181395Y8675D01*
G01X182032Y10160D02*
X182479Y10136D01*
X182868Y10243D01*
X183234Y10514D01*
X183458Y10926D01*
X183517Y11362D01*
X183363Y11869D01*
X183022Y12281D01*
X182574Y12588D01*
X182161Y12647D01*
X181725Y12588D01*
X181431Y12387D01*
X181230Y12093D01*
X181101Y11586D01*
X179981Y12918D01*
X180936Y13872D01*
G01X177550Y-6667D02*
X177850Y-6267D01*
X178200Y-6067D01*
X178600Y-6000D01*
X179100Y-6133D01*
X179450Y-6467D01*
X179550Y-6867D01*
X179500Y-7267D01*
X179300Y-7600D01*
X178300Y-8267D01*
X177850Y-8733D01*
X177550Y-9400D01*
X177450Y-10000D01*
X179550D01*
G01X162200Y-1700D02*
X162450Y-2100D01*
X162750Y-2367D01*
X163100Y-2500D01*
X163500Y-2367D01*
X163800Y-2100D01*
X164100Y-1700D01*
X164200Y-1167D01*
Y1500D01*
G01X167400Y-2500D02*
Y1500D01*
X165550Y-1367D01*
X168050D01*
G01X160000Y40000D02*
X165000D01*
G01X152500D02*
X157500D01*
G01X175000D02*
X180000D01*
G01X167500D02*
X172500D01*
G01X170750Y67333D02*
X172050D01*
G01X173750Y70000D02*
X175000Y66000D01*
X176250Y70000D01*
G01X177550Y66533D02*
X177950Y66200D01*
X178400Y66000D01*
X178800D01*
X179200Y66200D01*
X179500Y66533D01*
X179650Y67000D01*
X179550Y67467D01*
X179300Y67867D01*
X178850Y68133D01*
X178250Y68267D01*
X177900Y68533D01*
X177750Y69000D01*
X177850Y69467D01*
X178100Y69800D01*
X178450Y70000D01*
X178800D01*
X179150Y69867D01*
X179450Y69533D01*
G01X151300Y75000D02*
Y79000D01*
X152500D01*
X152900Y78800D01*
X153200Y78333D01*
X153300Y77800D01*
X153200Y77267D01*
X152950Y76867D01*
X152500Y76667D01*
X151300D01*
G01X155900Y75000D02*
X155500Y75067D01*
X155150Y75333D01*
X154850Y75733D01*
X154650Y76200D01*
X154550Y76733D01*
Y77267D01*
X154650Y77800D01*
X154850Y78267D01*
X155150Y78667D01*
X155500Y78933D01*
X155900Y79000D01*
X156300Y78933D01*
X156650Y78667D01*
X156950Y78267D01*
X157150Y77800D01*
X157250Y77267D01*
Y76733D01*
X157150Y76200D01*
X156950Y75733D01*
X156650Y75333D01*
X156300Y75067D01*
X155900Y75000D01*
G01X158000Y79000D02*
X158700Y75000D01*
X159500Y79000D01*
X160300Y75000D01*
X161000Y79000D01*
G01X164100Y75000D02*
X162100D01*
Y79000D01*
X164100D01*
G01X163300Y77067D02*
X162100D01*
G01X165700Y75000D02*
Y79000D01*
X166950D01*
X167350Y78800D01*
X167600Y78533D01*
X167700Y78000D01*
X167600Y77467D01*
X167300Y77133D01*
X166950Y76933D01*
X165700D01*
G01X166950D02*
X167700Y75000D01*
G01X175000Y78667D02*
X174700Y78867D01*
X174350Y79000D01*
X173950D01*
X173500Y78800D01*
X173150Y78467D01*
X172900Y78067D01*
X172700Y77400D01*
X172650Y76800D01*
X172750Y76200D01*
X172900Y75800D01*
X173200Y75400D01*
X173550Y75133D01*
X173900Y75000D01*
X174250D01*
X174600Y75133D01*
X174900Y75333D01*
X175150Y75600D01*
G01X177500Y75000D02*
X177100Y75067D01*
X176750Y75333D01*
X176450Y75733D01*
X176250Y76200D01*
X176150Y76733D01*
Y77267D01*
X176250Y77800D01*
X176450Y78267D01*
X176750Y78667D01*
X177100Y78933D01*
X177500Y79000D01*
X177900Y78933D01*
X178250Y78667D01*
X178550Y78267D01*
X178750Y77800D01*
X178850Y77267D01*
Y76733D01*
X178750Y76200D01*
X178550Y75733D01*
X178250Y75333D01*
X177900Y75067D01*
X177500Y75000D01*
G01X179950D02*
Y79000D01*
X182250Y75000D01*
Y79000D01*
G01X183550Y75000D02*
Y79000D01*
X185850Y75000D01*
Y79000D01*
G01X189300Y75000D02*
X187300D01*
Y79000D01*
X189300D01*
G01X188500Y77067D02*
X187300D01*
G01X193000Y78667D02*
X192700Y78867D01*
X192350Y79000D01*
X191950D01*
X191500Y78800D01*
X191150Y78467D01*
X190900Y78067D01*
X190700Y77400D01*
X190650Y76800D01*
X190750Y76200D01*
X190900Y75800D01*
X191200Y75400D01*
X191550Y75133D01*
X191900Y75000D01*
X192250D01*
X192600Y75133D01*
X192900Y75333D01*
X193150Y75600D01*
G01X195500Y79000D02*
Y75000D01*
G01X194350Y79000D02*
X196650D01*
G01X199100Y75000D02*
X198700Y75067D01*
X198350Y75333D01*
X198050Y75733D01*
X197850Y76200D01*
X197750Y76733D01*
Y77267D01*
X197850Y77800D01*
X198050Y78267D01*
X198350Y78667D01*
X198700Y78933D01*
X199100Y79000D01*
X199500Y78933D01*
X199850Y78667D01*
X200150Y78267D01*
X200350Y77800D01*
X200450Y77267D01*
Y76733D01*
X200350Y76200D01*
X200150Y75733D01*
X199850Y75333D01*
X199500Y75067D01*
X199100Y75000D01*
G01X201700D02*
Y79000D01*
X202950D01*
X203350Y78800D01*
X203600Y78533D01*
X203700Y78000D01*
X203600Y77467D01*
X203300Y77133D01*
X202950Y76933D01*
X201700D01*
G01X202950D02*
X203700Y75000D01*
G01X175150Y82500D02*
X176400Y86500D01*
X177650Y82500D01*
G01X177200Y83900D02*
X175600D01*
G01X178900Y82500D02*
Y86500D01*
X179900D01*
X180300Y86300D01*
X180600Y86033D01*
X180850Y85633D01*
X181050Y85167D01*
X181100Y84500D01*
X181050Y83833D01*
X180850Y83367D01*
X180600Y82967D01*
X180300Y82700D01*
X179900Y82500D01*
X178900D01*
G01X184700Y86167D02*
X184400Y86367D01*
X184050Y86500D01*
X183650D01*
X183200Y86300D01*
X182850Y85967D01*
X182600Y85567D01*
X182400Y84900D01*
X182350Y84300D01*
X182450Y83700D01*
X182600Y83300D01*
X182900Y82900D01*
X183250Y82633D01*
X183600Y82500D01*
X183950D01*
X184300Y82633D01*
X184600Y82833D01*
X184850Y83100D01*
G01X185000Y-80000D02*
X190000D01*
G01X192500D02*
X197500D01*
G01X200000D02*
X205000D01*
G01X190000Y40000D02*
X195000D01*
G01X182500D02*
X187500D01*
G01X205000D02*
X210000D01*
G01X197500D02*
X202500D01*
G01X193900Y12500D02*
X193500Y12567D01*
X193150Y12833D01*
X192850Y13233D01*
X192650Y13700D01*
X192550Y14233D01*
Y14767D01*
X192650Y15300D01*
X192850Y15767D01*
X193150Y16167D01*
X193500Y16433D01*
X193900Y16500D01*
X194300Y16433D01*
X194650Y16167D01*
X194950Y15767D01*
X195150Y15300D01*
X195250Y14767D01*
Y14233D01*
X195150Y13700D01*
X194950Y13233D01*
X194650Y12833D01*
X194300Y12567D01*
X193900Y12500D01*
G01X196400Y16500D02*
Y13633D01*
X196600Y13033D01*
X197000Y12633D01*
X197500Y12500D01*
X198000Y12633D01*
X198400Y13033D01*
X198600Y13633D01*
Y16500D01*
G01X201100D02*
Y12500D01*
G01X199950Y16500D02*
X202250D01*
G01X203350Y66333D02*
X204550D01*
G01X203900Y67200D02*
Y65467D01*
G01X206250Y69000D02*
X207500Y65000D01*
X208750Y69000D01*
G01X210050Y65533D02*
X210450Y65200D01*
X210900Y65000D01*
X211300D01*
X211700Y65200D01*
X212000Y65533D01*
X212150Y66000D01*
X212050Y66467D01*
X211800Y66867D01*
X211350Y67133D01*
X210750Y67267D01*
X210400Y67533D01*
X210250Y68000D01*
X210350Y68467D01*
X210600Y68800D01*
X210950Y69000D01*
X211300D01*
X211650Y68867D01*
X211950Y68533D01*
G01X206700Y57000D02*
X207700D01*
Y55800D01*
X207400Y55400D01*
X207050Y55133D01*
X206550Y55000D01*
X206050Y55133D01*
X205700Y55400D01*
X205400Y55800D01*
X205200Y56267D01*
X205100Y56800D01*
Y57267D01*
X205200Y57667D01*
X205400Y58133D01*
X205700Y58533D01*
X206000Y58800D01*
X206400Y59000D01*
X206750D01*
X207150Y58867D01*
X207450Y58600D01*
G01X208850Y55000D02*
Y59000D01*
X211150Y55000D01*
Y59000D01*
G01X212500Y55000D02*
Y59000D01*
X213500D01*
X213900Y58800D01*
X214200Y58533D01*
X214450Y58133D01*
X214650Y57667D01*
X214700Y57000D01*
X214650Y56333D01*
X214450Y55867D01*
X214200Y55467D01*
X213900Y55200D01*
X213500Y55000D01*
X212500D01*
G01X203350Y49000D02*
X204600Y45000D01*
X205850Y49000D01*
G01X209300Y48667D02*
X209000Y48867D01*
X208650Y49000D01*
X208250D01*
X207800Y48800D01*
X207450Y48467D01*
X207200Y48067D01*
X207000Y47400D01*
X206950Y46800D01*
X207050Y46200D01*
X207200Y45800D01*
X207500Y45400D01*
X207850Y45133D01*
X208200Y45000D01*
X208550D01*
X208900Y45133D01*
X209200Y45333D01*
X209450Y45600D01*
G01X211800Y45000D02*
X211400Y45067D01*
X211050Y45333D01*
X210750Y45733D01*
X210550Y46200D01*
X210450Y46733D01*
Y47267D01*
X210550Y47800D01*
X210750Y48267D01*
X211050Y48667D01*
X211400Y48933D01*
X211800Y49000D01*
X212200Y48933D01*
X212550Y48667D01*
X212850Y48267D01*
X213050Y47800D01*
X213150Y47267D01*
Y46733D01*
X213050Y46200D01*
X212850Y45733D01*
X212550Y45333D01*
X212200Y45067D01*
X211800Y45000D01*
G01X214100D02*
Y49000D01*
X215400Y45667D01*
X216700Y49000D01*
Y45000D01*
G01X215000Y-45000D02*
Y-50000D01*
G01Y-52500D02*
Y-57500D01*
G01Y-60000D02*
Y-65000D01*
G01Y-67500D02*
Y-70000D01*
G01X220500Y-23300D02*
Y-22300D01*
X221700D01*
X222100Y-22600D01*
X222367Y-22950D01*
X222500Y-23450D01*
X222367Y-23950D01*
X222100Y-24300D01*
X221700Y-24600D01*
X221233Y-24800D01*
X220700Y-24900D01*
X220233D01*
X219833Y-24800D01*
X219367Y-24600D01*
X218967Y-24300D01*
X218700Y-24000D01*
X218500Y-23600D01*
Y-23250D01*
X218633Y-22850D01*
X218900Y-22550D01*
G01X222500Y-21150D02*
X218500D01*
X222500Y-18850D01*
X218500D01*
G01X222500Y-17500D02*
X218500D01*
Y-16500D01*
X218700Y-16100D01*
X218967Y-15800D01*
X219367Y-15550D01*
X219833Y-15350D01*
X220500Y-15300D01*
X221167Y-15350D01*
X221633Y-15550D01*
X222033Y-15800D01*
X222300Y-16100D01*
X222500Y-16500D01*
Y-17500D01*
G01X215000Y-15000D02*
Y-20000D01*
G01Y-22500D02*
Y-27500D01*
G01Y-30000D02*
Y-35000D01*
G01Y-37500D02*
Y-42500D01*
G01X220500Y36700D02*
Y37700D01*
X221700D01*
X222100Y37400D01*
X222367Y37050D01*
X222500Y36550D01*
X222367Y36050D01*
X222100Y35700D01*
X221700Y35400D01*
X221233Y35200D01*
X220700Y35100D01*
X220233D01*
X219833Y35200D01*
X219367Y35400D01*
X218967Y35700D01*
X218700Y36000D01*
X218500Y36400D01*
Y36750D01*
X218633Y37150D01*
X218900Y37450D01*
G01X222500Y38850D02*
X218500D01*
X222500Y41150D01*
X218500D01*
G01X222500Y42500D02*
X218500D01*
Y43500D01*
X218700Y43900D01*
X218967Y44200D01*
X219367Y44450D01*
X219833Y44650D01*
X220500Y44700D01*
X221167Y44650D01*
X221633Y44450D01*
X222033Y44200D01*
X222300Y43900D01*
X222500Y43500D01*
Y42500D01*
G01X212500Y40000D02*
X215000D01*
G01D02*
Y35000D01*
M02*
