M48
;DRILL file {KiCad 4.0.6-e0-6349~53~ubuntu14.04.1} date Thu Jul  6 11:01:02 2017
;FORMAT={3:3/ absolute / metric / suppress leading zeros}
FMAT,2
METRIC,TZ
T1C0.400
T2C0.600
T3C0.800
T4C1.000
T5C3.500
%
G90
G05
M71
T1
X165354Y-109093
X184150Y-108585
X184150Y-110617
X188849Y-102870
X190119Y-103632
X192786Y-99822
T2
X78486Y-95123
X81661Y-85852
X87630Y-80645
X88900Y-80645
X90170Y-80645
X93853Y-84582
X94742Y-105537
X94869Y-100330
X98171Y-107442
X98171Y-112522
X98298Y-91567
X104013Y-88011
X106934Y-103886
X116332Y-99822
X116586Y-87630
X118110Y-101600
X118110Y-106045
X120777Y-85471
X120777Y-89789
X129159Y-99695
X131699Y-87630
X145415Y-69723
X145415Y-85725
X145415Y-97536
X148971Y-83185
X148971Y-95123
X158750Y-83185
X158750Y-95123
X164592Y-86360
X164592Y-87630
X164592Y-88900
X164592Y-98425
X164592Y-99695
X164592Y-100965
X172212Y-98933
X172212Y-105283
X172212Y-111125
X179578Y-101092
X179578Y-113792
X185039Y-94488
X185039Y-95758
X185039Y-97028
X189484Y-91059
X194437Y-94488
X194437Y-95758
X194437Y-97028
X198120Y-101854
X198564Y-114554
X199136Y-91059
X201422Y-110744
X204851Y-101854
X204851Y-113221
X210566Y-85725
X210566Y-90170
X219583Y-102616
X219583Y-113919
T3
X73787Y-91059
X73787Y-93599
X73787Y-96139
X73787Y-102870
X73787Y-105410
X73787Y-107950
X81153Y-99441
X81153Y-107061
X84709Y-103124
X92329Y-103124
X180721Y-84899
X180721Y-92519
T4
X142875Y-78740
X145415Y-78740
X147955Y-78740
X186563Y-78867
X189103Y-78867
X211963Y-78740
X214503Y-78740
T5
X63500Y-71120
X63500Y-125730
X226060Y-71120
X226060Y-125730
T0
M30
