G04 #@! TF.FileFunction,Other,Fab,Top*
%FSLAX46Y46*%
G04 Gerber Fmt 4.6, Leading zero omitted, Abs format (unit mm)*
G04 Created by KiCad (PCBNEW 4.0.6-e0-6349~53~ubuntu14.04.1) date Thu Jul  6 11:50:46 2017*
%MOMM*%
%LPD*%
G01*
G04 APERTURE LIST*
%ADD10C,0.100000*%
%ADD11C,0.150000*%
%ADD12C,0.075000*%
%ADD13C,0.135000*%
G04 APERTURE END LIST*
D10*
X140836381Y-87630000D02*
G75*
G03X140836381Y-87630000I-3041381J0D01*
G01*
X140945000Y-90780000D02*
X140945000Y-84480000D01*
X135315000Y-90780000D02*
X140945000Y-90780000D01*
X134645000Y-90110000D02*
X135315000Y-90780000D01*
X134645000Y-85150000D02*
X134645000Y-90110000D01*
X135315000Y-84480000D02*
X134645000Y-85150000D01*
X140945000Y-84480000D02*
X135315000Y-84480000D01*
X140836381Y-99695000D02*
G75*
G03X140836381Y-99695000I-3041381J0D01*
G01*
X134645000Y-96545000D02*
X134645000Y-102845000D01*
X140275000Y-96545000D02*
X134645000Y-96545000D01*
X140945000Y-97215000D02*
X140275000Y-96545000D01*
X140945000Y-102175000D02*
X140945000Y-97215000D01*
X140275000Y-102845000D02*
X140945000Y-102175000D01*
X134645000Y-102845000D02*
X140275000Y-102845000D01*
X89738000Y-87973000D02*
X89738000Y-89573000D01*
X86538000Y-87973000D02*
X89738000Y-87973000D01*
X86538000Y-89573000D02*
X86538000Y-87973000D01*
X89738000Y-89573000D02*
X86538000Y-89573000D01*
X93269000Y-92238000D02*
X96469000Y-92238000D01*
X93269000Y-96788000D02*
X93269000Y-92238000D01*
X96469000Y-96788000D02*
X93269000Y-96788000D01*
X96469000Y-92238000D02*
X96469000Y-96788000D01*
X112105000Y-86411000D02*
X112105000Y-89611000D01*
X107555000Y-86411000D02*
X112105000Y-86411000D01*
X107555000Y-89611000D02*
X107555000Y-86411000D01*
X112105000Y-89611000D02*
X107555000Y-89611000D01*
X158801000Y-109893000D02*
X158801000Y-108293000D01*
X162001000Y-109893000D02*
X158801000Y-109893000D01*
X162001000Y-108293000D02*
X162001000Y-109893000D01*
X158801000Y-108293000D02*
X162001000Y-108293000D01*
X83261000Y-94452000D02*
X80061000Y-94452000D01*
X83261000Y-89902000D02*
X83261000Y-94452000D01*
X80061000Y-89902000D02*
X83261000Y-89902000D01*
X80061000Y-94452000D02*
X80061000Y-89902000D01*
X87173000Y-85382000D02*
X87173000Y-83782000D01*
X90373000Y-85382000D02*
X87173000Y-85382000D01*
X90373000Y-83782000D02*
X90373000Y-85382000D01*
X87173000Y-83782000D02*
X90373000Y-83782000D01*
X107605000Y-101422000D02*
X107605000Y-98222000D01*
X112155000Y-101422000D02*
X107605000Y-101422000D01*
X112155000Y-98222000D02*
X112155000Y-101422000D01*
X107605000Y-98222000D02*
X112155000Y-98222000D01*
X88468000Y-98318000D02*
X88468000Y-100818000D01*
X85268000Y-98318000D02*
X88468000Y-98318000D01*
X85268000Y-100818000D02*
X85268000Y-98318000D01*
X88468000Y-100818000D02*
X85268000Y-100818000D01*
X90134000Y-105588000D02*
X90134000Y-108788000D01*
X85584000Y-105588000D02*
X90134000Y-105588000D01*
X85584000Y-108788000D02*
X85584000Y-105588000D01*
X90134000Y-108788000D02*
X85584000Y-108788000D01*
X155949381Y-87630000D02*
G75*
G03X155949381Y-87630000I-3041381J0D01*
G01*
X149758000Y-84480000D02*
X149758000Y-90780000D01*
X155388000Y-84480000D02*
X149758000Y-84480000D01*
X156058000Y-85150000D02*
X155388000Y-84480000D01*
X156058000Y-90110000D02*
X156058000Y-85150000D01*
X155388000Y-90780000D02*
X156058000Y-90110000D01*
X149758000Y-90780000D02*
X155388000Y-90780000D01*
X155949381Y-99695000D02*
G75*
G03X155949381Y-99695000I-3041381J0D01*
G01*
X156058000Y-102845000D02*
X156058000Y-96545000D01*
X150428000Y-102845000D02*
X156058000Y-102845000D01*
X149758000Y-102175000D02*
X150428000Y-102845000D01*
X149758000Y-97215000D02*
X149758000Y-102175000D01*
X150428000Y-96545000D02*
X149758000Y-97215000D01*
X156058000Y-96545000D02*
X150428000Y-96545000D01*
X196520000Y-105700000D02*
X199720000Y-105700000D01*
X196520000Y-110250000D02*
X196520000Y-105700000D01*
X199720000Y-110250000D02*
X196520000Y-110250000D01*
X199720000Y-105700000D02*
X199720000Y-110250000D01*
X217983000Y-106208000D02*
X221183000Y-106208000D01*
X217983000Y-110758000D02*
X217983000Y-106208000D01*
X221183000Y-110758000D02*
X217983000Y-110758000D01*
X221183000Y-106208000D02*
X221183000Y-110758000D01*
X224701000Y-108153000D02*
X223101000Y-108153000D01*
X224701000Y-104953000D02*
X224701000Y-108153000D01*
X223101000Y-104953000D02*
X224701000Y-104953000D01*
X223101000Y-108153000D02*
X223101000Y-104953000D01*
X206451000Y-110327000D02*
X203251000Y-110327000D01*
X206451000Y-105777000D02*
X206451000Y-110327000D01*
X203251000Y-105777000D02*
X206451000Y-105777000D01*
X203251000Y-110327000D02*
X203251000Y-105777000D01*
X181178000Y-110200000D02*
X177978000Y-110200000D01*
X181178000Y-105650000D02*
X181178000Y-110200000D01*
X177978000Y-105650000D02*
X181178000Y-105650000D01*
X177978000Y-110200000D02*
X177978000Y-105650000D01*
X185369000Y-113754000D02*
X185369000Y-115354000D01*
X182169000Y-113754000D02*
X185369000Y-113754000D01*
X182169000Y-115354000D02*
X182169000Y-113754000D01*
X185369000Y-115354000D02*
X182169000Y-115354000D01*
X189725500Y-115354000D02*
X189725500Y-113754000D01*
X192925500Y-115354000D02*
X189725500Y-115354000D01*
X192925500Y-113754000D02*
X192925500Y-115354000D01*
X189725500Y-113754000D02*
X192925500Y-113754000D01*
X86519000Y-102124000D02*
X86519000Y-104124000D01*
X86519000Y-104124000D02*
X90519000Y-104124000D01*
X90519000Y-104124000D02*
X90519000Y-102124000D01*
X90519000Y-102124000D02*
X86519000Y-102124000D01*
X84709000Y-103124000D02*
X86519000Y-103124000D01*
X92329000Y-103124000D02*
X90519000Y-103124000D01*
X87119000Y-102124000D02*
X87119000Y-104124000D01*
X80153000Y-105251000D02*
X82153000Y-105251000D01*
X82153000Y-105251000D02*
X82153000Y-101251000D01*
X82153000Y-101251000D02*
X80153000Y-101251000D01*
X80153000Y-101251000D02*
X80153000Y-105251000D01*
X81153000Y-107061000D02*
X81153000Y-105251000D01*
X81153000Y-99441000D02*
X81153000Y-101251000D01*
X80153000Y-104651000D02*
X82153000Y-104651000D01*
X156056000Y-83185000D02*
X156206000Y-83185000D01*
X156056000Y-82985000D02*
X155756000Y-83185000D01*
X156056000Y-83385000D02*
X156056000Y-82985000D01*
X155756000Y-83185000D02*
X156056000Y-83385000D01*
X155756000Y-83185000D02*
X155606000Y-83185000D01*
X155756000Y-83385000D02*
X155756000Y-82985000D01*
X156606000Y-82735000D02*
X156606000Y-83635000D01*
X155306000Y-82735000D02*
X156606000Y-82735000D01*
X155306000Y-83635000D02*
X155306000Y-82735000D01*
X156606000Y-83635000D02*
X155306000Y-83635000D01*
X185764500Y-82867500D02*
X185614500Y-82867500D01*
X185764500Y-83067500D02*
X186064500Y-82867500D01*
X185764500Y-82667500D02*
X185764500Y-83067500D01*
X186064500Y-82867500D02*
X185764500Y-82667500D01*
X186064500Y-82867500D02*
X186214500Y-82867500D01*
X186064500Y-82667500D02*
X186064500Y-83067500D01*
X185214500Y-83317500D02*
X185214500Y-82417500D01*
X186514500Y-83317500D02*
X185214500Y-83317500D01*
X186514500Y-82417500D02*
X186514500Y-83317500D01*
X185214500Y-82417500D02*
X186514500Y-82417500D01*
X181721000Y-86709500D02*
X179721000Y-86709500D01*
X179721000Y-86709500D02*
X179721000Y-90709500D01*
X179721000Y-90709500D02*
X181721000Y-90709500D01*
X181721000Y-90709500D02*
X181721000Y-86709500D01*
X180721000Y-84899500D02*
X180721000Y-86709500D01*
X180721000Y-92519500D02*
X180721000Y-90709500D01*
X181721000Y-87309500D02*
X179721000Y-87309500D01*
X155856000Y-95123000D02*
X155706000Y-95123000D01*
X155856000Y-95323000D02*
X156156000Y-95123000D01*
X155856000Y-94923000D02*
X155856000Y-95323000D01*
X156156000Y-95123000D02*
X155856000Y-94923000D01*
X156156000Y-95123000D02*
X156306000Y-95123000D01*
X156156000Y-94923000D02*
X156156000Y-95323000D01*
X155306000Y-95573000D02*
X155306000Y-94673000D01*
X156606000Y-95573000D02*
X155306000Y-95573000D01*
X156606000Y-94673000D02*
X156606000Y-95573000D01*
X155306000Y-94673000D02*
X156606000Y-94673000D01*
X141605000Y-80010000D02*
X149225000Y-80010000D01*
X149225000Y-80010000D02*
X149225000Y-77470000D01*
X149225000Y-77470000D02*
X141605000Y-77470000D01*
X141605000Y-77470000D02*
X141605000Y-80010000D01*
X185293000Y-80137000D02*
X190373000Y-80137000D01*
X190373000Y-80137000D02*
X190373000Y-77597000D01*
X190373000Y-77597000D02*
X185293000Y-77597000D01*
X185293000Y-77597000D02*
X185293000Y-80137000D01*
X210693000Y-80010000D02*
X215773000Y-80010000D01*
X215773000Y-80010000D02*
X215773000Y-77470000D01*
X215773000Y-77470000D02*
X210693000Y-77470000D01*
X210693000Y-77470000D02*
X210693000Y-80010000D01*
X87130000Y-82395000D02*
X90630000Y-82395000D01*
X90653625Y-82398625D02*
G75*
G03X88900000Y-78165000I-1753625J1753625D01*
G01*
X87146375Y-82398625D02*
G75*
G02X88900000Y-78165000I1753625J1753625D01*
G01*
X162842000Y-85860000D02*
X162842000Y-89360000D01*
X162838375Y-89383625D02*
G75*
G03X167072000Y-87630000I1753625J1753625D01*
G01*
X162838375Y-85876375D02*
G75*
G02X167072000Y-87630000I1753625J-1753625D01*
G01*
X183289000Y-93988000D02*
X183289000Y-97488000D01*
X183285375Y-97511625D02*
G75*
G03X187519000Y-95758000I1753625J1753625D01*
G01*
X183285375Y-94004375D02*
G75*
G02X187519000Y-95758000I1753625J-1753625D01*
G01*
X192687000Y-93988000D02*
X192687000Y-97488000D01*
X192683375Y-97511625D02*
G75*
G03X196917000Y-95758000I1753625J1753625D01*
G01*
X192683375Y-94004375D02*
G75*
G02X196917000Y-95758000I1753625J-1753625D01*
G01*
X162842000Y-97925000D02*
X162842000Y-101425000D01*
X162838375Y-101448625D02*
G75*
G03X167072000Y-99695000I1753625J1753625D01*
G01*
X162838375Y-97941375D02*
G75*
G02X167072000Y-99695000I1753625J-1753625D01*
G01*
X85298000Y-86764000D02*
X85298000Y-86464000D01*
X85898000Y-86764000D02*
X85298000Y-86764000D01*
X85898000Y-86464000D02*
X85898000Y-86764000D01*
X85298000Y-86464000D02*
X85898000Y-86464000D01*
X91544000Y-99014000D02*
X91844000Y-99014000D01*
X91544000Y-99614000D02*
X91544000Y-99014000D01*
X91844000Y-99614000D02*
X91544000Y-99614000D01*
X91844000Y-99014000D02*
X91844000Y-99614000D01*
X88473000Y-86764000D02*
X88473000Y-86464000D01*
X89073000Y-86764000D02*
X88473000Y-86764000D01*
X89073000Y-86464000D02*
X89073000Y-86764000D01*
X88473000Y-86464000D02*
X89073000Y-86464000D01*
X94788000Y-107038000D02*
X94788000Y-107338000D01*
X94188000Y-107038000D02*
X94788000Y-107038000D01*
X94188000Y-107338000D02*
X94188000Y-107038000D01*
X94788000Y-107338000D02*
X94188000Y-107338000D01*
X150703000Y-83335000D02*
X150703000Y-83035000D01*
X151303000Y-83335000D02*
X150703000Y-83335000D01*
X151303000Y-83035000D02*
X151303000Y-83335000D01*
X150703000Y-83035000D02*
X151303000Y-83035000D01*
X159347000Y-88030000D02*
X159347000Y-87230000D01*
X160947000Y-88030000D02*
X159347000Y-88030000D01*
X160947000Y-87230000D02*
X160947000Y-88030000D01*
X159347000Y-87230000D02*
X160947000Y-87230000D01*
X187109000Y-90659000D02*
X187109000Y-91459000D01*
X185509000Y-90659000D02*
X187109000Y-90659000D01*
X185509000Y-91459000D02*
X185509000Y-90659000D01*
X187109000Y-91459000D02*
X185509000Y-91459000D01*
X196380000Y-90659000D02*
X196380000Y-91459000D01*
X194780000Y-90659000D02*
X196380000Y-90659000D01*
X194780000Y-91459000D02*
X194780000Y-90659000D01*
X196380000Y-91459000D02*
X194780000Y-91459000D01*
X183688000Y-82717500D02*
X183688000Y-83017500D01*
X183088000Y-82717500D02*
X183688000Y-82717500D01*
X183088000Y-83017500D02*
X183088000Y-82717500D01*
X183688000Y-83017500D02*
X183088000Y-83017500D01*
X189692000Y-94638000D02*
X189692000Y-94338000D01*
X190292000Y-94638000D02*
X189692000Y-94638000D01*
X190292000Y-94338000D02*
X190292000Y-94638000D01*
X189692000Y-94338000D02*
X190292000Y-94338000D01*
X159347000Y-100095000D02*
X159347000Y-99295000D01*
X160947000Y-100095000D02*
X159347000Y-100095000D01*
X160947000Y-99295000D02*
X160947000Y-100095000D01*
X159347000Y-99295000D02*
X160947000Y-99295000D01*
X151303000Y-94973000D02*
X151303000Y-95273000D01*
X150703000Y-94973000D02*
X151303000Y-94973000D01*
X150703000Y-95273000D02*
X150703000Y-94973000D01*
X151303000Y-95273000D02*
X150703000Y-95273000D01*
X186390000Y-101750000D02*
X186390000Y-101450000D01*
X186990000Y-101750000D02*
X186390000Y-101750000D01*
X186990000Y-101450000D02*
X186990000Y-101750000D01*
X186390000Y-101450000D02*
X186990000Y-101450000D01*
X187660000Y-101750000D02*
X187660000Y-101450000D01*
X188260000Y-101750000D02*
X187660000Y-101750000D01*
X188260000Y-101450000D02*
X188260000Y-101750000D01*
X187660000Y-101450000D02*
X188260000Y-101450000D01*
X192740000Y-101750000D02*
X192740000Y-101450000D01*
X193340000Y-101750000D02*
X192740000Y-101750000D01*
X193340000Y-101450000D02*
X193340000Y-101750000D01*
X192740000Y-101450000D02*
X193340000Y-101450000D01*
X192070000Y-101450000D02*
X192070000Y-101750000D01*
X191470000Y-101450000D02*
X192070000Y-101450000D01*
X191470000Y-101750000D02*
X191470000Y-101450000D01*
X192070000Y-101750000D02*
X191470000Y-101750000D01*
X188930000Y-101750000D02*
X188930000Y-101450000D01*
X189530000Y-101750000D02*
X188930000Y-101750000D01*
X189530000Y-101450000D02*
X189530000Y-101750000D01*
X188930000Y-101450000D02*
X189530000Y-101450000D01*
X190800000Y-101450000D02*
X190800000Y-101750000D01*
X190200000Y-101450000D02*
X190800000Y-101450000D01*
X190200000Y-101750000D02*
X190200000Y-101450000D01*
X190800000Y-101750000D02*
X190200000Y-101750000D01*
X193121000Y-112862500D02*
X193121000Y-112562500D01*
X193721000Y-112862500D02*
X193121000Y-112862500D01*
X193721000Y-112562500D02*
X193721000Y-112862500D01*
X193121000Y-112562500D02*
X193721000Y-112562500D01*
X73732000Y-97094000D02*
G75*
G03X73732000Y-97094000I-1095000J0D01*
G01*
X76197000Y-88834000D02*
X71367000Y-88834000D01*
X71367000Y-88834000D02*
X71367000Y-98364000D01*
X71367000Y-98364000D02*
X76197000Y-98364000D01*
X76197000Y-98364000D02*
X76197000Y-88834000D01*
X73333000Y-97925000D02*
X71806000Y-96398000D01*
X73467000Y-97791000D02*
X71940000Y-96264000D01*
X73732000Y-108905000D02*
G75*
G03X73732000Y-108905000I-1095000J0D01*
G01*
X76197000Y-100645000D02*
X71367000Y-100645000D01*
X71367000Y-100645000D02*
X71367000Y-110175000D01*
X71367000Y-110175000D02*
X76197000Y-110175000D01*
X76197000Y-110175000D02*
X76197000Y-100645000D01*
X73333000Y-109736000D02*
X71806000Y-108209000D01*
X73467000Y-109602000D02*
X71940000Y-108075000D01*
X87315000Y-91276000D02*
X90215000Y-91276000D01*
X90215000Y-91276000D02*
X90215000Y-96176000D01*
X90215000Y-96176000D02*
X86315000Y-96176000D01*
X86315000Y-96176000D02*
X86315000Y-92276000D01*
X86315000Y-92276000D02*
X87315000Y-91276000D01*
X108905000Y-91276000D02*
X111805000Y-91276000D01*
X111805000Y-91276000D02*
X111805000Y-96176000D01*
X111805000Y-96176000D02*
X107905000Y-96176000D01*
X107905000Y-96176000D02*
X107905000Y-92276000D01*
X107905000Y-92276000D02*
X108905000Y-91276000D01*
D11*
X193834000Y-107000000D02*
X193834000Y-109900000D01*
X193834000Y-109900000D02*
X185134000Y-109900000D01*
X185134000Y-109900000D02*
X185134000Y-106000000D01*
X185134000Y-106000000D02*
X192834000Y-106000000D01*
X192834000Y-106000000D02*
X193834000Y-107000000D01*
D10*
X211140000Y-105373000D02*
X214040000Y-105373000D01*
X214040000Y-105373000D02*
X214040000Y-110273000D01*
X214040000Y-110273000D02*
X210140000Y-110273000D01*
X210140000Y-110273000D02*
X210140000Y-106373000D01*
X210140000Y-106373000D02*
X211140000Y-105373000D01*
X136068811Y-83426190D02*
X135783097Y-83426190D01*
X135925954Y-83426190D02*
X135925954Y-82926190D01*
X135878335Y-82997619D01*
X135830716Y-83045238D01*
X135783097Y-83069048D01*
X136378335Y-82926190D02*
X136425954Y-82926190D01*
X136473573Y-82950000D01*
X136497382Y-82973810D01*
X136521192Y-83021429D01*
X136545001Y-83116667D01*
X136545001Y-83235714D01*
X136521192Y-83330952D01*
X136497382Y-83378571D01*
X136473573Y-83402381D01*
X136425954Y-83426190D01*
X136378335Y-83426190D01*
X136330716Y-83402381D01*
X136306906Y-83378571D01*
X136283097Y-83330952D01*
X136259287Y-83235714D01*
X136259287Y-83116667D01*
X136283097Y-83021429D01*
X136306906Y-82973810D01*
X136330716Y-82950000D01*
X136378335Y-82926190D01*
X136854525Y-82926190D02*
X136902144Y-82926190D01*
X136949763Y-82950000D01*
X136973572Y-82973810D01*
X136997382Y-83021429D01*
X137021191Y-83116667D01*
X137021191Y-83235714D01*
X136997382Y-83330952D01*
X136973572Y-83378571D01*
X136949763Y-83402381D01*
X136902144Y-83426190D01*
X136854525Y-83426190D01*
X136806906Y-83402381D01*
X136783096Y-83378571D01*
X136759287Y-83330952D01*
X136735477Y-83235714D01*
X136735477Y-83116667D01*
X136759287Y-83021429D01*
X136783096Y-82973810D01*
X136806906Y-82950000D01*
X136854525Y-82926190D01*
X137449762Y-83092857D02*
X137449762Y-83426190D01*
X137235477Y-83092857D02*
X137235477Y-83354762D01*
X137259286Y-83402381D01*
X137306905Y-83426190D01*
X137378334Y-83426190D01*
X137425953Y-83402381D01*
X137449762Y-83378571D01*
X137854524Y-83164286D02*
X137687858Y-83164286D01*
X137687858Y-83426190D02*
X137687858Y-82926190D01*
X137925953Y-82926190D01*
X138473571Y-82902381D02*
X138045000Y-83545238D01*
X138592620Y-82926190D02*
X138902143Y-82926190D01*
X138735477Y-83116667D01*
X138806905Y-83116667D01*
X138854524Y-83140476D01*
X138878334Y-83164286D01*
X138902143Y-83211905D01*
X138902143Y-83330952D01*
X138878334Y-83378571D01*
X138854524Y-83402381D01*
X138806905Y-83426190D01*
X138664048Y-83426190D01*
X138616429Y-83402381D01*
X138592620Y-83378571D01*
X139354524Y-82926190D02*
X139116429Y-82926190D01*
X139092619Y-83164286D01*
X139116429Y-83140476D01*
X139164048Y-83116667D01*
X139283095Y-83116667D01*
X139330714Y-83140476D01*
X139354524Y-83164286D01*
X139378333Y-83211905D01*
X139378333Y-83330952D01*
X139354524Y-83378571D01*
X139330714Y-83402381D01*
X139283095Y-83426190D01*
X139164048Y-83426190D01*
X139116429Y-83402381D01*
X139092619Y-83378571D01*
X139521190Y-82926190D02*
X139687857Y-83426190D01*
X139854523Y-82926190D01*
X135874524Y-87585714D02*
X136255476Y-87585714D01*
X136065000Y-87776190D02*
X136065000Y-87395238D01*
X137235477Y-91872571D02*
X137211667Y-91896381D01*
X137140239Y-91920190D01*
X137092620Y-91920190D01*
X137021191Y-91896381D01*
X136973572Y-91848762D01*
X136949763Y-91801143D01*
X136925953Y-91705905D01*
X136925953Y-91634476D01*
X136949763Y-91539238D01*
X136973572Y-91491619D01*
X137021191Y-91444000D01*
X137092620Y-91420190D01*
X137140239Y-91420190D01*
X137211667Y-91444000D01*
X137235477Y-91467810D01*
X137711667Y-91920190D02*
X137425953Y-91920190D01*
X137568810Y-91920190D02*
X137568810Y-91420190D01*
X137521191Y-91491619D01*
X137473572Y-91539238D01*
X137425953Y-91563048D01*
X138021191Y-91420190D02*
X138068810Y-91420190D01*
X138116429Y-91444000D01*
X138140238Y-91467810D01*
X138164048Y-91515429D01*
X138187857Y-91610667D01*
X138187857Y-91729714D01*
X138164048Y-91824952D01*
X138140238Y-91872571D01*
X138116429Y-91896381D01*
X138068810Y-91920190D01*
X138021191Y-91920190D01*
X137973572Y-91896381D01*
X137949762Y-91872571D01*
X137925953Y-91824952D01*
X137902143Y-91729714D01*
X137902143Y-91610667D01*
X137925953Y-91515429D01*
X137949762Y-91467810D01*
X137973572Y-91444000D01*
X138021191Y-91420190D01*
X138664047Y-91920190D02*
X138378333Y-91920190D01*
X138521190Y-91920190D02*
X138521190Y-91420190D01*
X138473571Y-91491619D01*
X138425952Y-91539238D01*
X138378333Y-91563048D01*
X136068811Y-104351190D02*
X135783097Y-104351190D01*
X135925954Y-104351190D02*
X135925954Y-103851190D01*
X135878335Y-103922619D01*
X135830716Y-103970238D01*
X135783097Y-103994048D01*
X136378335Y-103851190D02*
X136425954Y-103851190D01*
X136473573Y-103875000D01*
X136497382Y-103898810D01*
X136521192Y-103946429D01*
X136545001Y-104041667D01*
X136545001Y-104160714D01*
X136521192Y-104255952D01*
X136497382Y-104303571D01*
X136473573Y-104327381D01*
X136425954Y-104351190D01*
X136378335Y-104351190D01*
X136330716Y-104327381D01*
X136306906Y-104303571D01*
X136283097Y-104255952D01*
X136259287Y-104160714D01*
X136259287Y-104041667D01*
X136283097Y-103946429D01*
X136306906Y-103898810D01*
X136330716Y-103875000D01*
X136378335Y-103851190D01*
X136854525Y-103851190D02*
X136902144Y-103851190D01*
X136949763Y-103875000D01*
X136973572Y-103898810D01*
X136997382Y-103946429D01*
X137021191Y-104041667D01*
X137021191Y-104160714D01*
X136997382Y-104255952D01*
X136973572Y-104303571D01*
X136949763Y-104327381D01*
X136902144Y-104351190D01*
X136854525Y-104351190D01*
X136806906Y-104327381D01*
X136783096Y-104303571D01*
X136759287Y-104255952D01*
X136735477Y-104160714D01*
X136735477Y-104041667D01*
X136759287Y-103946429D01*
X136783096Y-103898810D01*
X136806906Y-103875000D01*
X136854525Y-103851190D01*
X137449762Y-104017857D02*
X137449762Y-104351190D01*
X137235477Y-104017857D02*
X137235477Y-104279762D01*
X137259286Y-104327381D01*
X137306905Y-104351190D01*
X137378334Y-104351190D01*
X137425953Y-104327381D01*
X137449762Y-104303571D01*
X137854524Y-104089286D02*
X137687858Y-104089286D01*
X137687858Y-104351190D02*
X137687858Y-103851190D01*
X137925953Y-103851190D01*
X138473571Y-103827381D02*
X138045000Y-104470238D01*
X138592620Y-103851190D02*
X138902143Y-103851190D01*
X138735477Y-104041667D01*
X138806905Y-104041667D01*
X138854524Y-104065476D01*
X138878334Y-104089286D01*
X138902143Y-104136905D01*
X138902143Y-104255952D01*
X138878334Y-104303571D01*
X138854524Y-104327381D01*
X138806905Y-104351190D01*
X138664048Y-104351190D01*
X138616429Y-104327381D01*
X138592620Y-104303571D01*
X139354524Y-103851190D02*
X139116429Y-103851190D01*
X139092619Y-104089286D01*
X139116429Y-104065476D01*
X139164048Y-104041667D01*
X139283095Y-104041667D01*
X139330714Y-104065476D01*
X139354524Y-104089286D01*
X139378333Y-104136905D01*
X139378333Y-104255952D01*
X139354524Y-104303571D01*
X139330714Y-104327381D01*
X139283095Y-104351190D01*
X139164048Y-104351190D01*
X139116429Y-104327381D01*
X139092619Y-104303571D01*
X139521190Y-103851190D02*
X139687857Y-104351190D01*
X139854523Y-103851190D01*
X139334524Y-99810714D02*
X139715476Y-99810714D01*
X139525000Y-100001190D02*
X139525000Y-99620238D01*
X137489477Y-104318571D02*
X137465667Y-104342381D01*
X137394239Y-104366190D01*
X137346620Y-104366190D01*
X137275191Y-104342381D01*
X137227572Y-104294762D01*
X137203763Y-104247143D01*
X137179953Y-104151905D01*
X137179953Y-104080476D01*
X137203763Y-103985238D01*
X137227572Y-103937619D01*
X137275191Y-103890000D01*
X137346620Y-103866190D01*
X137394239Y-103866190D01*
X137465667Y-103890000D01*
X137489477Y-103913810D01*
X137965667Y-104366190D02*
X137679953Y-104366190D01*
X137822810Y-104366190D02*
X137822810Y-103866190D01*
X137775191Y-103937619D01*
X137727572Y-103985238D01*
X137679953Y-104009048D01*
X138275191Y-103866190D02*
X138322810Y-103866190D01*
X138370429Y-103890000D01*
X138394238Y-103913810D01*
X138418048Y-103961429D01*
X138441857Y-104056667D01*
X138441857Y-104175714D01*
X138418048Y-104270952D01*
X138394238Y-104318571D01*
X138370429Y-104342381D01*
X138322810Y-104366190D01*
X138275191Y-104366190D01*
X138227572Y-104342381D01*
X138203762Y-104318571D01*
X138179953Y-104270952D01*
X138156143Y-104175714D01*
X138156143Y-104056667D01*
X138179953Y-103961429D01*
X138203762Y-103913810D01*
X138227572Y-103890000D01*
X138275191Y-103866190D01*
X138632333Y-103913810D02*
X138656143Y-103890000D01*
X138703762Y-103866190D01*
X138822809Y-103866190D01*
X138870428Y-103890000D01*
X138894238Y-103913810D01*
X138918047Y-103961429D01*
X138918047Y-104009048D01*
X138894238Y-104080476D01*
X138608524Y-104366190D01*
X138918047Y-104366190D01*
X87840381Y-86999190D02*
X87554667Y-86999190D01*
X87697524Y-86999190D02*
X87697524Y-86499190D01*
X87649905Y-86570619D01*
X87602286Y-86618238D01*
X87554667Y-86642048D01*
X88054667Y-86665857D02*
X88054667Y-86999190D01*
X88054667Y-86713476D02*
X88078476Y-86689667D01*
X88126095Y-86665857D01*
X88197524Y-86665857D01*
X88245143Y-86689667D01*
X88268952Y-86737286D01*
X88268952Y-86999190D01*
X88673714Y-86737286D02*
X88507048Y-86737286D01*
X88507048Y-86999190D02*
X88507048Y-86499190D01*
X88745143Y-86499190D01*
X92380571Y-89205523D02*
X92404381Y-89229333D01*
X92428190Y-89300761D01*
X92428190Y-89348380D01*
X92404381Y-89419809D01*
X92356762Y-89467428D01*
X92309143Y-89491237D01*
X92213905Y-89515047D01*
X92142476Y-89515047D01*
X92047238Y-89491237D01*
X91999619Y-89467428D01*
X91952000Y-89419809D01*
X91928190Y-89348380D01*
X91928190Y-89300761D01*
X91952000Y-89229333D01*
X91975810Y-89205523D01*
X91975810Y-89015047D02*
X91952000Y-88991237D01*
X91928190Y-88943618D01*
X91928190Y-88824571D01*
X91952000Y-88776952D01*
X91975810Y-88753142D01*
X92023429Y-88729333D01*
X92071048Y-88729333D01*
X92142476Y-88753142D01*
X92428190Y-89038856D01*
X92428190Y-88729333D01*
X91928190Y-88419809D02*
X91928190Y-88372190D01*
X91952000Y-88324571D01*
X91975810Y-88300762D01*
X92023429Y-88276952D01*
X92118667Y-88253143D01*
X92237714Y-88253143D01*
X92332952Y-88276952D01*
X92380571Y-88300762D01*
X92404381Y-88324571D01*
X92428190Y-88372190D01*
X92428190Y-88419809D01*
X92404381Y-88467428D01*
X92380571Y-88491238D01*
X92332952Y-88515047D01*
X92237714Y-88538857D01*
X92118667Y-88538857D01*
X92023429Y-88515047D01*
X91975810Y-88491238D01*
X91952000Y-88467428D01*
X91928190Y-88419809D01*
X92428190Y-87776953D02*
X92428190Y-88062667D01*
X92428190Y-87919810D02*
X91928190Y-87919810D01*
X91999619Y-87967429D01*
X92047238Y-88015048D01*
X92071048Y-88062667D01*
X92345190Y-95261809D02*
X92345190Y-95547523D01*
X92345190Y-95404666D02*
X91845190Y-95404666D01*
X91916619Y-95452285D01*
X91964238Y-95499904D01*
X91988048Y-95547523D01*
X91845190Y-94952285D02*
X91845190Y-94904666D01*
X91869000Y-94857047D01*
X91892810Y-94833238D01*
X91940429Y-94809428D01*
X92035667Y-94785619D01*
X92154714Y-94785619D01*
X92249952Y-94809428D01*
X92297571Y-94833238D01*
X92321381Y-94857047D01*
X92345190Y-94904666D01*
X92345190Y-94952285D01*
X92321381Y-94999904D01*
X92297571Y-95023714D01*
X92249952Y-95047523D01*
X92154714Y-95071333D01*
X92035667Y-95071333D01*
X91940429Y-95047523D01*
X91892810Y-95023714D01*
X91869000Y-94999904D01*
X91845190Y-94952285D01*
X91845190Y-94476095D02*
X91845190Y-94428476D01*
X91869000Y-94380857D01*
X91892810Y-94357048D01*
X91940429Y-94333238D01*
X92035667Y-94309429D01*
X92154714Y-94309429D01*
X92249952Y-94333238D01*
X92297571Y-94357048D01*
X92321381Y-94380857D01*
X92345190Y-94428476D01*
X92345190Y-94476095D01*
X92321381Y-94523714D01*
X92297571Y-94547524D01*
X92249952Y-94571333D01*
X92154714Y-94595143D01*
X92035667Y-94595143D01*
X91940429Y-94571333D01*
X91892810Y-94547524D01*
X91869000Y-94523714D01*
X91845190Y-94476095D01*
X92011857Y-94095143D02*
X92345190Y-94095143D01*
X92059476Y-94095143D02*
X92035667Y-94071334D01*
X92011857Y-94023715D01*
X92011857Y-93952286D01*
X92035667Y-93904667D01*
X92083286Y-93880858D01*
X92345190Y-93880858D01*
X92083286Y-93476096D02*
X92083286Y-93642762D01*
X92345190Y-93642762D02*
X91845190Y-93642762D01*
X91845190Y-93404667D01*
X94309477Y-89586571D02*
X94285667Y-89610381D01*
X94214239Y-89634190D01*
X94166620Y-89634190D01*
X94095191Y-89610381D01*
X94047572Y-89562762D01*
X94023763Y-89515143D01*
X93999953Y-89419905D01*
X93999953Y-89348476D01*
X94023763Y-89253238D01*
X94047572Y-89205619D01*
X94095191Y-89158000D01*
X94166620Y-89134190D01*
X94214239Y-89134190D01*
X94285667Y-89158000D01*
X94309477Y-89181810D01*
X94499953Y-89181810D02*
X94523763Y-89158000D01*
X94571382Y-89134190D01*
X94690429Y-89134190D01*
X94738048Y-89158000D01*
X94761858Y-89181810D01*
X94785667Y-89229429D01*
X94785667Y-89277048D01*
X94761858Y-89348476D01*
X94476144Y-89634190D01*
X94785667Y-89634190D01*
X95095191Y-89134190D02*
X95142810Y-89134190D01*
X95190429Y-89158000D01*
X95214238Y-89181810D01*
X95238048Y-89229429D01*
X95261857Y-89324667D01*
X95261857Y-89443714D01*
X95238048Y-89538952D01*
X95214238Y-89586571D01*
X95190429Y-89610381D01*
X95142810Y-89634190D01*
X95095191Y-89634190D01*
X95047572Y-89610381D01*
X95023762Y-89586571D01*
X94999953Y-89538952D01*
X94976143Y-89443714D01*
X94976143Y-89324667D01*
X94999953Y-89229429D01*
X95023762Y-89181810D01*
X95047572Y-89158000D01*
X95095191Y-89134190D01*
X95452333Y-89181810D02*
X95476143Y-89158000D01*
X95523762Y-89134190D01*
X95642809Y-89134190D01*
X95690428Y-89158000D01*
X95714238Y-89181810D01*
X95738047Y-89229429D01*
X95738047Y-89277048D01*
X95714238Y-89348476D01*
X95428524Y-89634190D01*
X95738047Y-89634190D01*
X109081191Y-85487190D02*
X108795477Y-85487190D01*
X108938334Y-85487190D02*
X108938334Y-84987190D01*
X108890715Y-85058619D01*
X108843096Y-85106238D01*
X108795477Y-85130048D01*
X109390715Y-84987190D02*
X109438334Y-84987190D01*
X109485953Y-85011000D01*
X109509762Y-85034810D01*
X109533572Y-85082429D01*
X109557381Y-85177667D01*
X109557381Y-85296714D01*
X109533572Y-85391952D01*
X109509762Y-85439571D01*
X109485953Y-85463381D01*
X109438334Y-85487190D01*
X109390715Y-85487190D01*
X109343096Y-85463381D01*
X109319286Y-85439571D01*
X109295477Y-85391952D01*
X109271667Y-85296714D01*
X109271667Y-85177667D01*
X109295477Y-85082429D01*
X109319286Y-85034810D01*
X109343096Y-85011000D01*
X109390715Y-84987190D01*
X109866905Y-84987190D02*
X109914524Y-84987190D01*
X109962143Y-85011000D01*
X109985952Y-85034810D01*
X110009762Y-85082429D01*
X110033571Y-85177667D01*
X110033571Y-85296714D01*
X110009762Y-85391952D01*
X109985952Y-85439571D01*
X109962143Y-85463381D01*
X109914524Y-85487190D01*
X109866905Y-85487190D01*
X109819286Y-85463381D01*
X109795476Y-85439571D01*
X109771667Y-85391952D01*
X109747857Y-85296714D01*
X109747857Y-85177667D01*
X109771667Y-85082429D01*
X109795476Y-85034810D01*
X109819286Y-85011000D01*
X109866905Y-84987190D01*
X110247857Y-85153857D02*
X110247857Y-85487190D01*
X110247857Y-85201476D02*
X110271666Y-85177667D01*
X110319285Y-85153857D01*
X110390714Y-85153857D01*
X110438333Y-85177667D01*
X110462142Y-85225286D01*
X110462142Y-85487190D01*
X110866904Y-85225286D02*
X110700238Y-85225286D01*
X110700238Y-85487190D02*
X110700238Y-84987190D01*
X110938333Y-84987190D01*
X114986571Y-88697523D02*
X115010381Y-88721333D01*
X115034190Y-88792761D01*
X115034190Y-88840380D01*
X115010381Y-88911809D01*
X114962762Y-88959428D01*
X114915143Y-88983237D01*
X114819905Y-89007047D01*
X114748476Y-89007047D01*
X114653238Y-88983237D01*
X114605619Y-88959428D01*
X114558000Y-88911809D01*
X114534190Y-88840380D01*
X114534190Y-88792761D01*
X114558000Y-88721333D01*
X114581810Y-88697523D01*
X114581810Y-88507047D02*
X114558000Y-88483237D01*
X114534190Y-88435618D01*
X114534190Y-88316571D01*
X114558000Y-88268952D01*
X114581810Y-88245142D01*
X114629429Y-88221333D01*
X114677048Y-88221333D01*
X114748476Y-88245142D01*
X115034190Y-88530856D01*
X115034190Y-88221333D01*
X114534190Y-87911809D02*
X114534190Y-87864190D01*
X114558000Y-87816571D01*
X114581810Y-87792762D01*
X114629429Y-87768952D01*
X114724667Y-87745143D01*
X114843714Y-87745143D01*
X114938952Y-87768952D01*
X114986571Y-87792762D01*
X115010381Y-87816571D01*
X115034190Y-87864190D01*
X115034190Y-87911809D01*
X115010381Y-87959428D01*
X114986571Y-87983238D01*
X114938952Y-88007047D01*
X114843714Y-88030857D01*
X114724667Y-88030857D01*
X114629429Y-88007047D01*
X114581810Y-87983238D01*
X114558000Y-87959428D01*
X114534190Y-87911809D01*
X114534190Y-87578476D02*
X114534190Y-87268953D01*
X114724667Y-87435619D01*
X114724667Y-87364191D01*
X114748476Y-87316572D01*
X114772286Y-87292762D01*
X114819905Y-87268953D01*
X114938952Y-87268953D01*
X114986571Y-87292762D01*
X115010381Y-87316572D01*
X115034190Y-87364191D01*
X115034190Y-87507048D01*
X115010381Y-87554667D01*
X114986571Y-87578476D01*
X159698620Y-110985857D02*
X159698620Y-111319190D01*
X159579573Y-110795381D02*
X159460525Y-111152524D01*
X159770049Y-111152524D01*
X159960525Y-111271571D02*
X159984334Y-111295381D01*
X159960525Y-111319190D01*
X159936715Y-111295381D01*
X159960525Y-111271571D01*
X159960525Y-111319190D01*
X160151001Y-110819190D02*
X160484334Y-110819190D01*
X160270048Y-111319190D01*
X160889095Y-110985857D02*
X160889095Y-111319190D01*
X160674810Y-110985857D02*
X160674810Y-111247762D01*
X160698619Y-111295381D01*
X160746238Y-111319190D01*
X160817667Y-111319190D01*
X160865286Y-111295381D01*
X160889095Y-111271571D01*
X161293857Y-111057286D02*
X161127191Y-111057286D01*
X161127191Y-111319190D02*
X161127191Y-110819190D01*
X161365286Y-110819190D01*
X159841477Y-107521571D02*
X159817667Y-107545381D01*
X159746239Y-107569190D01*
X159698620Y-107569190D01*
X159627191Y-107545381D01*
X159579572Y-107497762D01*
X159555763Y-107450143D01*
X159531953Y-107354905D01*
X159531953Y-107283476D01*
X159555763Y-107188238D01*
X159579572Y-107140619D01*
X159627191Y-107093000D01*
X159698620Y-107069190D01*
X159746239Y-107069190D01*
X159817667Y-107093000D01*
X159841477Y-107116810D01*
X160031953Y-107116810D02*
X160055763Y-107093000D01*
X160103382Y-107069190D01*
X160222429Y-107069190D01*
X160270048Y-107093000D01*
X160293858Y-107116810D01*
X160317667Y-107164429D01*
X160317667Y-107212048D01*
X160293858Y-107283476D01*
X160008144Y-107569190D01*
X160317667Y-107569190D01*
X160627191Y-107069190D02*
X160674810Y-107069190D01*
X160722429Y-107093000D01*
X160746238Y-107116810D01*
X160770048Y-107164429D01*
X160793857Y-107259667D01*
X160793857Y-107378714D01*
X160770048Y-107473952D01*
X160746238Y-107521571D01*
X160722429Y-107545381D01*
X160674810Y-107569190D01*
X160627191Y-107569190D01*
X160579572Y-107545381D01*
X160555762Y-107521571D01*
X160531953Y-107473952D01*
X160508143Y-107378714D01*
X160508143Y-107259667D01*
X160531953Y-107164429D01*
X160555762Y-107116810D01*
X160579572Y-107093000D01*
X160627191Y-107069190D01*
X161222428Y-107235857D02*
X161222428Y-107569190D01*
X161103381Y-107045381D02*
X160984333Y-107402524D01*
X161293857Y-107402524D01*
X84637190Y-92975809D02*
X84637190Y-93261523D01*
X84637190Y-93118666D02*
X84137190Y-93118666D01*
X84208619Y-93166285D01*
X84256238Y-93213904D01*
X84280048Y-93261523D01*
X84137190Y-92666285D02*
X84137190Y-92618666D01*
X84161000Y-92571047D01*
X84184810Y-92547238D01*
X84232429Y-92523428D01*
X84327667Y-92499619D01*
X84446714Y-92499619D01*
X84541952Y-92523428D01*
X84589571Y-92547238D01*
X84613381Y-92571047D01*
X84637190Y-92618666D01*
X84637190Y-92666285D01*
X84613381Y-92713904D01*
X84589571Y-92737714D01*
X84541952Y-92761523D01*
X84446714Y-92785333D01*
X84327667Y-92785333D01*
X84232429Y-92761523D01*
X84184810Y-92737714D01*
X84161000Y-92713904D01*
X84137190Y-92666285D01*
X84137190Y-92190095D02*
X84137190Y-92142476D01*
X84161000Y-92094857D01*
X84184810Y-92071048D01*
X84232429Y-92047238D01*
X84327667Y-92023429D01*
X84446714Y-92023429D01*
X84541952Y-92047238D01*
X84589571Y-92071048D01*
X84613381Y-92094857D01*
X84637190Y-92142476D01*
X84637190Y-92190095D01*
X84613381Y-92237714D01*
X84589571Y-92261524D01*
X84541952Y-92285333D01*
X84446714Y-92309143D01*
X84327667Y-92309143D01*
X84232429Y-92285333D01*
X84184810Y-92261524D01*
X84161000Y-92237714D01*
X84137190Y-92190095D01*
X84303857Y-91809143D02*
X84637190Y-91809143D01*
X84351476Y-91809143D02*
X84327667Y-91785334D01*
X84303857Y-91737715D01*
X84303857Y-91666286D01*
X84327667Y-91618667D01*
X84375286Y-91594858D01*
X84637190Y-91594858D01*
X84375286Y-91190096D02*
X84375286Y-91356762D01*
X84637190Y-91356762D02*
X84137190Y-91356762D01*
X84137190Y-91118667D01*
X81101477Y-87300571D02*
X81077667Y-87324381D01*
X81006239Y-87348190D01*
X80958620Y-87348190D01*
X80887191Y-87324381D01*
X80839572Y-87276762D01*
X80815763Y-87229143D01*
X80791953Y-87133905D01*
X80791953Y-87062476D01*
X80815763Y-86967238D01*
X80839572Y-86919619D01*
X80887191Y-86872000D01*
X80958620Y-86848190D01*
X81006239Y-86848190D01*
X81077667Y-86872000D01*
X81101477Y-86895810D01*
X81291953Y-86895810D02*
X81315763Y-86872000D01*
X81363382Y-86848190D01*
X81482429Y-86848190D01*
X81530048Y-86872000D01*
X81553858Y-86895810D01*
X81577667Y-86943429D01*
X81577667Y-86991048D01*
X81553858Y-87062476D01*
X81268144Y-87348190D01*
X81577667Y-87348190D01*
X81887191Y-86848190D02*
X81934810Y-86848190D01*
X81982429Y-86872000D01*
X82006238Y-86895810D01*
X82030048Y-86943429D01*
X82053857Y-87038667D01*
X82053857Y-87157714D01*
X82030048Y-87252952D01*
X82006238Y-87300571D01*
X81982429Y-87324381D01*
X81934810Y-87348190D01*
X81887191Y-87348190D01*
X81839572Y-87324381D01*
X81815762Y-87300571D01*
X81791953Y-87252952D01*
X81768143Y-87157714D01*
X81768143Y-87038667D01*
X81791953Y-86943429D01*
X81815762Y-86895810D01*
X81839572Y-86872000D01*
X81887191Y-86848190D01*
X82506238Y-86848190D02*
X82268143Y-86848190D01*
X82244333Y-87086286D01*
X82268143Y-87062476D01*
X82315762Y-87038667D01*
X82434809Y-87038667D01*
X82482428Y-87062476D01*
X82506238Y-87086286D01*
X82530047Y-87133905D01*
X82530047Y-87252952D01*
X82506238Y-87300571D01*
X82482428Y-87324381D01*
X82434809Y-87348190D01*
X82315762Y-87348190D01*
X82268143Y-87324381D01*
X82244333Y-87300571D01*
X88475381Y-86808190D02*
X88189667Y-86808190D01*
X88332524Y-86808190D02*
X88332524Y-86308190D01*
X88284905Y-86379619D01*
X88237286Y-86427238D01*
X88189667Y-86451048D01*
X88689667Y-86474857D02*
X88689667Y-86808190D01*
X88689667Y-86522476D02*
X88713476Y-86498667D01*
X88761095Y-86474857D01*
X88832524Y-86474857D01*
X88880143Y-86498667D01*
X88903952Y-86546286D01*
X88903952Y-86808190D01*
X89308714Y-86546286D02*
X89142048Y-86546286D01*
X89142048Y-86808190D02*
X89142048Y-86308190D01*
X89380143Y-86308190D01*
X93015571Y-85268523D02*
X93039381Y-85292333D01*
X93063190Y-85363761D01*
X93063190Y-85411380D01*
X93039381Y-85482809D01*
X92991762Y-85530428D01*
X92944143Y-85554237D01*
X92848905Y-85578047D01*
X92777476Y-85578047D01*
X92682238Y-85554237D01*
X92634619Y-85530428D01*
X92587000Y-85482809D01*
X92563190Y-85411380D01*
X92563190Y-85363761D01*
X92587000Y-85292333D01*
X92610810Y-85268523D01*
X92610810Y-85078047D02*
X92587000Y-85054237D01*
X92563190Y-85006618D01*
X92563190Y-84887571D01*
X92587000Y-84839952D01*
X92610810Y-84816142D01*
X92658429Y-84792333D01*
X92706048Y-84792333D01*
X92777476Y-84816142D01*
X93063190Y-85101856D01*
X93063190Y-84792333D01*
X92563190Y-84482809D02*
X92563190Y-84435190D01*
X92587000Y-84387571D01*
X92610810Y-84363762D01*
X92658429Y-84339952D01*
X92753667Y-84316143D01*
X92872714Y-84316143D01*
X92967952Y-84339952D01*
X93015571Y-84363762D01*
X93039381Y-84387571D01*
X93063190Y-84435190D01*
X93063190Y-84482809D01*
X93039381Y-84530428D01*
X93015571Y-84554238D01*
X92967952Y-84578047D01*
X92872714Y-84601857D01*
X92753667Y-84601857D01*
X92658429Y-84578047D01*
X92610810Y-84554238D01*
X92587000Y-84530428D01*
X92563190Y-84482809D01*
X92563190Y-83887572D02*
X92563190Y-83982810D01*
X92587000Y-84030429D01*
X92610810Y-84054238D01*
X92682238Y-84101857D01*
X92777476Y-84125667D01*
X92967952Y-84125667D01*
X93015571Y-84101857D01*
X93039381Y-84078048D01*
X93063190Y-84030429D01*
X93063190Y-83935191D01*
X93039381Y-83887572D01*
X93015571Y-83863762D01*
X92967952Y-83839953D01*
X92848905Y-83839953D01*
X92801286Y-83863762D01*
X92777476Y-83887572D01*
X92753667Y-83935191D01*
X92753667Y-84030429D01*
X92777476Y-84078048D01*
X92801286Y-84101857D01*
X92848905Y-84125667D01*
X109081191Y-102798190D02*
X108795477Y-102798190D01*
X108938334Y-102798190D02*
X108938334Y-102298190D01*
X108890715Y-102369619D01*
X108843096Y-102417238D01*
X108795477Y-102441048D01*
X109390715Y-102298190D02*
X109438334Y-102298190D01*
X109485953Y-102322000D01*
X109509762Y-102345810D01*
X109533572Y-102393429D01*
X109557381Y-102488667D01*
X109557381Y-102607714D01*
X109533572Y-102702952D01*
X109509762Y-102750571D01*
X109485953Y-102774381D01*
X109438334Y-102798190D01*
X109390715Y-102798190D01*
X109343096Y-102774381D01*
X109319286Y-102750571D01*
X109295477Y-102702952D01*
X109271667Y-102607714D01*
X109271667Y-102488667D01*
X109295477Y-102393429D01*
X109319286Y-102345810D01*
X109343096Y-102322000D01*
X109390715Y-102298190D01*
X109866905Y-102298190D02*
X109914524Y-102298190D01*
X109962143Y-102322000D01*
X109985952Y-102345810D01*
X110009762Y-102393429D01*
X110033571Y-102488667D01*
X110033571Y-102607714D01*
X110009762Y-102702952D01*
X109985952Y-102750571D01*
X109962143Y-102774381D01*
X109914524Y-102798190D01*
X109866905Y-102798190D01*
X109819286Y-102774381D01*
X109795476Y-102750571D01*
X109771667Y-102702952D01*
X109747857Y-102607714D01*
X109747857Y-102488667D01*
X109771667Y-102393429D01*
X109795476Y-102345810D01*
X109819286Y-102322000D01*
X109866905Y-102298190D01*
X110247857Y-102464857D02*
X110247857Y-102798190D01*
X110247857Y-102512476D02*
X110271666Y-102488667D01*
X110319285Y-102464857D01*
X110390714Y-102464857D01*
X110438333Y-102488667D01*
X110462142Y-102536286D01*
X110462142Y-102798190D01*
X110866904Y-102536286D02*
X110700238Y-102536286D01*
X110700238Y-102798190D02*
X110700238Y-102298190D01*
X110938333Y-102298190D01*
X114986571Y-100508523D02*
X115010381Y-100532333D01*
X115034190Y-100603761D01*
X115034190Y-100651380D01*
X115010381Y-100722809D01*
X114962762Y-100770428D01*
X114915143Y-100794237D01*
X114819905Y-100818047D01*
X114748476Y-100818047D01*
X114653238Y-100794237D01*
X114605619Y-100770428D01*
X114558000Y-100722809D01*
X114534190Y-100651380D01*
X114534190Y-100603761D01*
X114558000Y-100532333D01*
X114581810Y-100508523D01*
X114581810Y-100318047D02*
X114558000Y-100294237D01*
X114534190Y-100246618D01*
X114534190Y-100127571D01*
X114558000Y-100079952D01*
X114581810Y-100056142D01*
X114629429Y-100032333D01*
X114677048Y-100032333D01*
X114748476Y-100056142D01*
X115034190Y-100341856D01*
X115034190Y-100032333D01*
X114534190Y-99722809D02*
X114534190Y-99675190D01*
X114558000Y-99627571D01*
X114581810Y-99603762D01*
X114629429Y-99579952D01*
X114724667Y-99556143D01*
X114843714Y-99556143D01*
X114938952Y-99579952D01*
X114986571Y-99603762D01*
X115010381Y-99627571D01*
X115034190Y-99675190D01*
X115034190Y-99722809D01*
X115010381Y-99770428D01*
X114986571Y-99794238D01*
X114938952Y-99818047D01*
X114843714Y-99841857D01*
X114724667Y-99841857D01*
X114629429Y-99818047D01*
X114581810Y-99794238D01*
X114558000Y-99770428D01*
X114534190Y-99722809D01*
X114534190Y-99389476D02*
X114534190Y-99056143D01*
X115034190Y-99270429D01*
X86784667Y-97294190D02*
X86498953Y-97294190D01*
X86641810Y-97294190D02*
X86641810Y-96794190D01*
X86594191Y-96865619D01*
X86546572Y-96913238D01*
X86498953Y-96937048D01*
X87213238Y-96960857D02*
X87213238Y-97294190D01*
X86998953Y-96960857D02*
X86998953Y-97222762D01*
X87022762Y-97270381D01*
X87070381Y-97294190D01*
X87141810Y-97294190D01*
X87189429Y-97270381D01*
X87213238Y-97246571D01*
X83363571Y-100127523D02*
X83387381Y-100151333D01*
X83411190Y-100222761D01*
X83411190Y-100270380D01*
X83387381Y-100341809D01*
X83339762Y-100389428D01*
X83292143Y-100413237D01*
X83196905Y-100437047D01*
X83125476Y-100437047D01*
X83030238Y-100413237D01*
X82982619Y-100389428D01*
X82935000Y-100341809D01*
X82911190Y-100270380D01*
X82911190Y-100222761D01*
X82935000Y-100151333D01*
X82958810Y-100127523D01*
X82958810Y-99937047D02*
X82935000Y-99913237D01*
X82911190Y-99865618D01*
X82911190Y-99746571D01*
X82935000Y-99698952D01*
X82958810Y-99675142D01*
X83006429Y-99651333D01*
X83054048Y-99651333D01*
X83125476Y-99675142D01*
X83411190Y-99960856D01*
X83411190Y-99651333D01*
X82911190Y-99341809D02*
X82911190Y-99294190D01*
X82935000Y-99246571D01*
X82958810Y-99222762D01*
X83006429Y-99198952D01*
X83101667Y-99175143D01*
X83220714Y-99175143D01*
X83315952Y-99198952D01*
X83363571Y-99222762D01*
X83387381Y-99246571D01*
X83411190Y-99294190D01*
X83411190Y-99341809D01*
X83387381Y-99389428D01*
X83363571Y-99413238D01*
X83315952Y-99437047D01*
X83220714Y-99460857D01*
X83101667Y-99460857D01*
X83006429Y-99437047D01*
X82958810Y-99413238D01*
X82935000Y-99389428D01*
X82911190Y-99341809D01*
X83125476Y-98889429D02*
X83101667Y-98937048D01*
X83077857Y-98960857D01*
X83030238Y-98984667D01*
X83006429Y-98984667D01*
X82958810Y-98960857D01*
X82935000Y-98937048D01*
X82911190Y-98889429D01*
X82911190Y-98794191D01*
X82935000Y-98746572D01*
X82958810Y-98722762D01*
X83006429Y-98698953D01*
X83030238Y-98698953D01*
X83077857Y-98722762D01*
X83101667Y-98746572D01*
X83125476Y-98794191D01*
X83125476Y-98889429D01*
X83149286Y-98937048D01*
X83173095Y-98960857D01*
X83220714Y-98984667D01*
X83315952Y-98984667D01*
X83363571Y-98960857D01*
X83387381Y-98937048D01*
X83411190Y-98889429D01*
X83411190Y-98794191D01*
X83387381Y-98746572D01*
X83363571Y-98722762D01*
X83315952Y-98698953D01*
X83220714Y-98698953D01*
X83173095Y-98722762D01*
X83149286Y-98746572D01*
X83125476Y-98794191D01*
X87038763Y-104164190D02*
X87086382Y-104164190D01*
X87134001Y-104188000D01*
X87157810Y-104211810D01*
X87181620Y-104259429D01*
X87205429Y-104354667D01*
X87205429Y-104473714D01*
X87181620Y-104568952D01*
X87157810Y-104616571D01*
X87134001Y-104640381D01*
X87086382Y-104664190D01*
X87038763Y-104664190D01*
X86991144Y-104640381D01*
X86967334Y-104616571D01*
X86943525Y-104568952D01*
X86919715Y-104473714D01*
X86919715Y-104354667D01*
X86943525Y-104259429D01*
X86967334Y-104211810D01*
X86991144Y-104188000D01*
X87038763Y-104164190D01*
X87419715Y-104616571D02*
X87443524Y-104640381D01*
X87419715Y-104664190D01*
X87395905Y-104640381D01*
X87419715Y-104616571D01*
X87419715Y-104664190D01*
X87872095Y-104330857D02*
X87872095Y-104664190D01*
X87753048Y-104140381D02*
X87634000Y-104497524D01*
X87943524Y-104497524D01*
X88086381Y-104164190D02*
X88419714Y-104164190D01*
X88205428Y-104664190D01*
X88824475Y-104330857D02*
X88824475Y-104664190D01*
X88610190Y-104330857D02*
X88610190Y-104592762D01*
X88633999Y-104640381D01*
X88681618Y-104664190D01*
X88753047Y-104664190D01*
X88800666Y-104640381D01*
X88824475Y-104616571D01*
X83363571Y-107747523D02*
X83387381Y-107771333D01*
X83411190Y-107842761D01*
X83411190Y-107890380D01*
X83387381Y-107961809D01*
X83339762Y-108009428D01*
X83292143Y-108033237D01*
X83196905Y-108057047D01*
X83125476Y-108057047D01*
X83030238Y-108033237D01*
X82982619Y-108009428D01*
X82935000Y-107961809D01*
X82911190Y-107890380D01*
X82911190Y-107842761D01*
X82935000Y-107771333D01*
X82958810Y-107747523D01*
X82958810Y-107557047D02*
X82935000Y-107533237D01*
X82911190Y-107485618D01*
X82911190Y-107366571D01*
X82935000Y-107318952D01*
X82958810Y-107295142D01*
X83006429Y-107271333D01*
X83054048Y-107271333D01*
X83125476Y-107295142D01*
X83411190Y-107580856D01*
X83411190Y-107271333D01*
X82911190Y-106961809D02*
X82911190Y-106914190D01*
X82935000Y-106866571D01*
X82958810Y-106842762D01*
X83006429Y-106818952D01*
X83101667Y-106795143D01*
X83220714Y-106795143D01*
X83315952Y-106818952D01*
X83363571Y-106842762D01*
X83387381Y-106866571D01*
X83411190Y-106914190D01*
X83411190Y-106961809D01*
X83387381Y-107009428D01*
X83363571Y-107033238D01*
X83315952Y-107057047D01*
X83220714Y-107080857D01*
X83101667Y-107080857D01*
X83006429Y-107057047D01*
X82958810Y-107033238D01*
X82935000Y-107009428D01*
X82911190Y-106961809D01*
X83411190Y-106557048D02*
X83411190Y-106461810D01*
X83387381Y-106414191D01*
X83363571Y-106390381D01*
X83292143Y-106342762D01*
X83196905Y-106318953D01*
X83006429Y-106318953D01*
X82958810Y-106342762D01*
X82935000Y-106366572D01*
X82911190Y-106414191D01*
X82911190Y-106509429D01*
X82935000Y-106557048D01*
X82958810Y-106580857D01*
X83006429Y-106604667D01*
X83125476Y-106604667D01*
X83173095Y-106580857D01*
X83196905Y-106557048D01*
X83220714Y-106509429D01*
X83220714Y-106414191D01*
X83196905Y-106366572D01*
X83173095Y-106342762D01*
X83125476Y-106318953D01*
X151181811Y-92286190D02*
X150896097Y-92286190D01*
X151038954Y-92286190D02*
X151038954Y-91786190D01*
X150991335Y-91857619D01*
X150943716Y-91905238D01*
X150896097Y-91929048D01*
X151491335Y-91786190D02*
X151538954Y-91786190D01*
X151586573Y-91810000D01*
X151610382Y-91833810D01*
X151634192Y-91881429D01*
X151658001Y-91976667D01*
X151658001Y-92095714D01*
X151634192Y-92190952D01*
X151610382Y-92238571D01*
X151586573Y-92262381D01*
X151538954Y-92286190D01*
X151491335Y-92286190D01*
X151443716Y-92262381D01*
X151419906Y-92238571D01*
X151396097Y-92190952D01*
X151372287Y-92095714D01*
X151372287Y-91976667D01*
X151396097Y-91881429D01*
X151419906Y-91833810D01*
X151443716Y-91810000D01*
X151491335Y-91786190D01*
X151967525Y-91786190D02*
X152015144Y-91786190D01*
X152062763Y-91810000D01*
X152086572Y-91833810D01*
X152110382Y-91881429D01*
X152134191Y-91976667D01*
X152134191Y-92095714D01*
X152110382Y-92190952D01*
X152086572Y-92238571D01*
X152062763Y-92262381D01*
X152015144Y-92286190D01*
X151967525Y-92286190D01*
X151919906Y-92262381D01*
X151896096Y-92238571D01*
X151872287Y-92190952D01*
X151848477Y-92095714D01*
X151848477Y-91976667D01*
X151872287Y-91881429D01*
X151896096Y-91833810D01*
X151919906Y-91810000D01*
X151967525Y-91786190D01*
X152562762Y-91952857D02*
X152562762Y-92286190D01*
X152348477Y-91952857D02*
X152348477Y-92214762D01*
X152372286Y-92262381D01*
X152419905Y-92286190D01*
X152491334Y-92286190D01*
X152538953Y-92262381D01*
X152562762Y-92238571D01*
X152967524Y-92024286D02*
X152800858Y-92024286D01*
X152800858Y-92286190D02*
X152800858Y-91786190D01*
X153038953Y-91786190D01*
X153586571Y-91762381D02*
X153158000Y-92405238D01*
X153705620Y-91786190D02*
X154015143Y-91786190D01*
X153848477Y-91976667D01*
X153919905Y-91976667D01*
X153967524Y-92000476D01*
X153991334Y-92024286D01*
X154015143Y-92071905D01*
X154015143Y-92190952D01*
X153991334Y-92238571D01*
X153967524Y-92262381D01*
X153919905Y-92286190D01*
X153777048Y-92286190D01*
X153729429Y-92262381D01*
X153705620Y-92238571D01*
X154467524Y-91786190D02*
X154229429Y-91786190D01*
X154205619Y-92024286D01*
X154229429Y-92000476D01*
X154277048Y-91976667D01*
X154396095Y-91976667D01*
X154443714Y-92000476D01*
X154467524Y-92024286D01*
X154491333Y-92071905D01*
X154491333Y-92190952D01*
X154467524Y-92238571D01*
X154443714Y-92262381D01*
X154396095Y-92286190D01*
X154277048Y-92286190D01*
X154229429Y-92262381D01*
X154205619Y-92238571D01*
X154634190Y-91786190D02*
X154800857Y-92286190D01*
X154967523Y-91786190D01*
X154447524Y-87745714D02*
X154828476Y-87745714D01*
X154638000Y-87936190D02*
X154638000Y-87555238D01*
X152348477Y-91872571D02*
X152324667Y-91896381D01*
X152253239Y-91920190D01*
X152205620Y-91920190D01*
X152134191Y-91896381D01*
X152086572Y-91848762D01*
X152062763Y-91801143D01*
X152038953Y-91705905D01*
X152038953Y-91634476D01*
X152062763Y-91539238D01*
X152086572Y-91491619D01*
X152134191Y-91444000D01*
X152205620Y-91420190D01*
X152253239Y-91420190D01*
X152324667Y-91444000D01*
X152348477Y-91467810D01*
X152515144Y-91420190D02*
X152824667Y-91420190D01*
X152658001Y-91610667D01*
X152729429Y-91610667D01*
X152777048Y-91634476D01*
X152800858Y-91658286D01*
X152824667Y-91705905D01*
X152824667Y-91824952D01*
X152800858Y-91872571D01*
X152777048Y-91896381D01*
X152729429Y-91920190D01*
X152586572Y-91920190D01*
X152538953Y-91896381D01*
X152515144Y-91872571D01*
X153134191Y-91420190D02*
X153181810Y-91420190D01*
X153229429Y-91444000D01*
X153253238Y-91467810D01*
X153277048Y-91515429D01*
X153300857Y-91610667D01*
X153300857Y-91729714D01*
X153277048Y-91824952D01*
X153253238Y-91872571D01*
X153229429Y-91896381D01*
X153181810Y-91920190D01*
X153134191Y-91920190D01*
X153086572Y-91896381D01*
X153062762Y-91872571D01*
X153038953Y-91824952D01*
X153015143Y-91729714D01*
X153015143Y-91610667D01*
X153038953Y-91515429D01*
X153062762Y-91467810D01*
X153086572Y-91444000D01*
X153134191Y-91420190D01*
X153777047Y-91920190D02*
X153491333Y-91920190D01*
X153634190Y-91920190D02*
X153634190Y-91420190D01*
X153586571Y-91491619D01*
X153538952Y-91539238D01*
X153491333Y-91563048D01*
X151181811Y-95491190D02*
X150896097Y-95491190D01*
X151038954Y-95491190D02*
X151038954Y-94991190D01*
X150991335Y-95062619D01*
X150943716Y-95110238D01*
X150896097Y-95134048D01*
X151491335Y-94991190D02*
X151538954Y-94991190D01*
X151586573Y-95015000D01*
X151610382Y-95038810D01*
X151634192Y-95086429D01*
X151658001Y-95181667D01*
X151658001Y-95300714D01*
X151634192Y-95395952D01*
X151610382Y-95443571D01*
X151586573Y-95467381D01*
X151538954Y-95491190D01*
X151491335Y-95491190D01*
X151443716Y-95467381D01*
X151419906Y-95443571D01*
X151396097Y-95395952D01*
X151372287Y-95300714D01*
X151372287Y-95181667D01*
X151396097Y-95086429D01*
X151419906Y-95038810D01*
X151443716Y-95015000D01*
X151491335Y-94991190D01*
X151967525Y-94991190D02*
X152015144Y-94991190D01*
X152062763Y-95015000D01*
X152086572Y-95038810D01*
X152110382Y-95086429D01*
X152134191Y-95181667D01*
X152134191Y-95300714D01*
X152110382Y-95395952D01*
X152086572Y-95443571D01*
X152062763Y-95467381D01*
X152015144Y-95491190D01*
X151967525Y-95491190D01*
X151919906Y-95467381D01*
X151896096Y-95443571D01*
X151872287Y-95395952D01*
X151848477Y-95300714D01*
X151848477Y-95181667D01*
X151872287Y-95086429D01*
X151896096Y-95038810D01*
X151919906Y-95015000D01*
X151967525Y-94991190D01*
X152562762Y-95157857D02*
X152562762Y-95491190D01*
X152348477Y-95157857D02*
X152348477Y-95419762D01*
X152372286Y-95467381D01*
X152419905Y-95491190D01*
X152491334Y-95491190D01*
X152538953Y-95467381D01*
X152562762Y-95443571D01*
X152967524Y-95229286D02*
X152800858Y-95229286D01*
X152800858Y-95491190D02*
X152800858Y-94991190D01*
X153038953Y-94991190D01*
X153586571Y-94967381D02*
X153158000Y-95610238D01*
X153705620Y-94991190D02*
X154015143Y-94991190D01*
X153848477Y-95181667D01*
X153919905Y-95181667D01*
X153967524Y-95205476D01*
X153991334Y-95229286D01*
X154015143Y-95276905D01*
X154015143Y-95395952D01*
X153991334Y-95443571D01*
X153967524Y-95467381D01*
X153919905Y-95491190D01*
X153777048Y-95491190D01*
X153729429Y-95467381D01*
X153705620Y-95443571D01*
X154467524Y-94991190D02*
X154229429Y-94991190D01*
X154205619Y-95229286D01*
X154229429Y-95205476D01*
X154277048Y-95181667D01*
X154396095Y-95181667D01*
X154443714Y-95205476D01*
X154467524Y-95229286D01*
X154491333Y-95276905D01*
X154491333Y-95395952D01*
X154467524Y-95443571D01*
X154443714Y-95467381D01*
X154396095Y-95491190D01*
X154277048Y-95491190D01*
X154229429Y-95467381D01*
X154205619Y-95443571D01*
X154634190Y-94991190D02*
X154800857Y-95491190D01*
X154967523Y-94991190D01*
X150987524Y-99650714D02*
X151368476Y-99650714D01*
X151178000Y-99841190D02*
X151178000Y-99460238D01*
X152348477Y-104303571D02*
X152324667Y-104327381D01*
X152253239Y-104351190D01*
X152205620Y-104351190D01*
X152134191Y-104327381D01*
X152086572Y-104279762D01*
X152062763Y-104232143D01*
X152038953Y-104136905D01*
X152038953Y-104065476D01*
X152062763Y-103970238D01*
X152086572Y-103922619D01*
X152134191Y-103875000D01*
X152205620Y-103851190D01*
X152253239Y-103851190D01*
X152324667Y-103875000D01*
X152348477Y-103898810D01*
X152515144Y-103851190D02*
X152824667Y-103851190D01*
X152658001Y-104041667D01*
X152729429Y-104041667D01*
X152777048Y-104065476D01*
X152800858Y-104089286D01*
X152824667Y-104136905D01*
X152824667Y-104255952D01*
X152800858Y-104303571D01*
X152777048Y-104327381D01*
X152729429Y-104351190D01*
X152586572Y-104351190D01*
X152538953Y-104327381D01*
X152515144Y-104303571D01*
X153134191Y-103851190D02*
X153181810Y-103851190D01*
X153229429Y-103875000D01*
X153253238Y-103898810D01*
X153277048Y-103946429D01*
X153300857Y-104041667D01*
X153300857Y-104160714D01*
X153277048Y-104255952D01*
X153253238Y-104303571D01*
X153229429Y-104327381D01*
X153181810Y-104351190D01*
X153134191Y-104351190D01*
X153086572Y-104327381D01*
X153062762Y-104303571D01*
X153038953Y-104255952D01*
X153015143Y-104160714D01*
X153015143Y-104041667D01*
X153038953Y-103946429D01*
X153062762Y-103898810D01*
X153086572Y-103875000D01*
X153134191Y-103851190D01*
X153491333Y-103898810D02*
X153515143Y-103875000D01*
X153562762Y-103851190D01*
X153681809Y-103851190D01*
X153729428Y-103875000D01*
X153753238Y-103898810D01*
X153777047Y-103946429D01*
X153777047Y-103994048D01*
X153753238Y-104065476D01*
X153467524Y-104351190D01*
X153777047Y-104351190D01*
X195596190Y-108723809D02*
X195596190Y-109009523D01*
X195596190Y-108866666D02*
X195096190Y-108866666D01*
X195167619Y-108914285D01*
X195215238Y-108961904D01*
X195239048Y-109009523D01*
X195096190Y-108414285D02*
X195096190Y-108366666D01*
X195120000Y-108319047D01*
X195143810Y-108295238D01*
X195191429Y-108271428D01*
X195286667Y-108247619D01*
X195405714Y-108247619D01*
X195500952Y-108271428D01*
X195548571Y-108295238D01*
X195572381Y-108319047D01*
X195596190Y-108366666D01*
X195596190Y-108414285D01*
X195572381Y-108461904D01*
X195548571Y-108485714D01*
X195500952Y-108509523D01*
X195405714Y-108533333D01*
X195286667Y-108533333D01*
X195191429Y-108509523D01*
X195143810Y-108485714D01*
X195120000Y-108461904D01*
X195096190Y-108414285D01*
X195096190Y-107938095D02*
X195096190Y-107890476D01*
X195120000Y-107842857D01*
X195143810Y-107819048D01*
X195191429Y-107795238D01*
X195286667Y-107771429D01*
X195405714Y-107771429D01*
X195500952Y-107795238D01*
X195548571Y-107819048D01*
X195572381Y-107842857D01*
X195596190Y-107890476D01*
X195596190Y-107938095D01*
X195572381Y-107985714D01*
X195548571Y-108009524D01*
X195500952Y-108033333D01*
X195405714Y-108057143D01*
X195286667Y-108057143D01*
X195191429Y-108033333D01*
X195143810Y-108009524D01*
X195120000Y-107985714D01*
X195096190Y-107938095D01*
X195262857Y-107557143D02*
X195596190Y-107557143D01*
X195310476Y-107557143D02*
X195286667Y-107533334D01*
X195262857Y-107485715D01*
X195262857Y-107414286D01*
X195286667Y-107366667D01*
X195334286Y-107342858D01*
X195596190Y-107342858D01*
X195334286Y-106938096D02*
X195334286Y-107104762D01*
X195596190Y-107104762D02*
X195096190Y-107104762D01*
X195096190Y-106866667D01*
X197560477Y-112954571D02*
X197536667Y-112978381D01*
X197465239Y-113002190D01*
X197417620Y-113002190D01*
X197346191Y-112978381D01*
X197298572Y-112930762D01*
X197274763Y-112883143D01*
X197250953Y-112787905D01*
X197250953Y-112716476D01*
X197274763Y-112621238D01*
X197298572Y-112573619D01*
X197346191Y-112526000D01*
X197417620Y-112502190D01*
X197465239Y-112502190D01*
X197536667Y-112526000D01*
X197560477Y-112549810D01*
X197727144Y-112502190D02*
X198036667Y-112502190D01*
X197870001Y-112692667D01*
X197941429Y-112692667D01*
X197989048Y-112716476D01*
X198012858Y-112740286D01*
X198036667Y-112787905D01*
X198036667Y-112906952D01*
X198012858Y-112954571D01*
X197989048Y-112978381D01*
X197941429Y-113002190D01*
X197798572Y-113002190D01*
X197750953Y-112978381D01*
X197727144Y-112954571D01*
X198346191Y-112502190D02*
X198393810Y-112502190D01*
X198441429Y-112526000D01*
X198465238Y-112549810D01*
X198489048Y-112597429D01*
X198512857Y-112692667D01*
X198512857Y-112811714D01*
X198489048Y-112906952D01*
X198465238Y-112954571D01*
X198441429Y-112978381D01*
X198393810Y-113002190D01*
X198346191Y-113002190D01*
X198298572Y-112978381D01*
X198274762Y-112954571D01*
X198250953Y-112906952D01*
X198227143Y-112811714D01*
X198227143Y-112692667D01*
X198250953Y-112597429D01*
X198274762Y-112549810D01*
X198298572Y-112526000D01*
X198346191Y-112502190D01*
X198679524Y-112502190D02*
X198989047Y-112502190D01*
X198822381Y-112692667D01*
X198893809Y-112692667D01*
X198941428Y-112716476D01*
X198965238Y-112740286D01*
X198989047Y-112787905D01*
X198989047Y-112906952D01*
X198965238Y-112954571D01*
X198941428Y-112978381D01*
X198893809Y-113002190D01*
X198750952Y-113002190D01*
X198703333Y-112978381D01*
X198679524Y-112954571D01*
X217059190Y-109231809D02*
X217059190Y-109517523D01*
X217059190Y-109374666D02*
X216559190Y-109374666D01*
X216630619Y-109422285D01*
X216678238Y-109469904D01*
X216702048Y-109517523D01*
X216559190Y-108922285D02*
X216559190Y-108874666D01*
X216583000Y-108827047D01*
X216606810Y-108803238D01*
X216654429Y-108779428D01*
X216749667Y-108755619D01*
X216868714Y-108755619D01*
X216963952Y-108779428D01*
X217011571Y-108803238D01*
X217035381Y-108827047D01*
X217059190Y-108874666D01*
X217059190Y-108922285D01*
X217035381Y-108969904D01*
X217011571Y-108993714D01*
X216963952Y-109017523D01*
X216868714Y-109041333D01*
X216749667Y-109041333D01*
X216654429Y-109017523D01*
X216606810Y-108993714D01*
X216583000Y-108969904D01*
X216559190Y-108922285D01*
X216559190Y-108446095D02*
X216559190Y-108398476D01*
X216583000Y-108350857D01*
X216606810Y-108327048D01*
X216654429Y-108303238D01*
X216749667Y-108279429D01*
X216868714Y-108279429D01*
X216963952Y-108303238D01*
X217011571Y-108327048D01*
X217035381Y-108350857D01*
X217059190Y-108398476D01*
X217059190Y-108446095D01*
X217035381Y-108493714D01*
X217011571Y-108517524D01*
X216963952Y-108541333D01*
X216868714Y-108565143D01*
X216749667Y-108565143D01*
X216654429Y-108541333D01*
X216606810Y-108517524D01*
X216583000Y-108493714D01*
X216559190Y-108446095D01*
X216725857Y-108065143D02*
X217059190Y-108065143D01*
X216773476Y-108065143D02*
X216749667Y-108041334D01*
X216725857Y-107993715D01*
X216725857Y-107922286D01*
X216749667Y-107874667D01*
X216797286Y-107850858D01*
X217059190Y-107850858D01*
X216797286Y-107446096D02*
X216797286Y-107612762D01*
X217059190Y-107612762D02*
X216559190Y-107612762D01*
X216559190Y-107374667D01*
X222174571Y-108890523D02*
X222198381Y-108914333D01*
X222222190Y-108985761D01*
X222222190Y-109033380D01*
X222198381Y-109104809D01*
X222150762Y-109152428D01*
X222103143Y-109176237D01*
X222007905Y-109200047D01*
X221936476Y-109200047D01*
X221841238Y-109176237D01*
X221793619Y-109152428D01*
X221746000Y-109104809D01*
X221722190Y-109033380D01*
X221722190Y-108985761D01*
X221746000Y-108914333D01*
X221769810Y-108890523D01*
X221722190Y-108723856D02*
X221722190Y-108414333D01*
X221912667Y-108580999D01*
X221912667Y-108509571D01*
X221936476Y-108461952D01*
X221960286Y-108438142D01*
X222007905Y-108414333D01*
X222126952Y-108414333D01*
X222174571Y-108438142D01*
X222198381Y-108461952D01*
X222222190Y-108509571D01*
X222222190Y-108652428D01*
X222198381Y-108700047D01*
X222174571Y-108723856D01*
X221722190Y-108104809D02*
X221722190Y-108057190D01*
X221746000Y-108009571D01*
X221769810Y-107985762D01*
X221817429Y-107961952D01*
X221912667Y-107938143D01*
X222031714Y-107938143D01*
X222126952Y-107961952D01*
X222174571Y-107985762D01*
X222198381Y-108009571D01*
X222222190Y-108057190D01*
X222222190Y-108104809D01*
X222198381Y-108152428D01*
X222174571Y-108176238D01*
X222126952Y-108200047D01*
X222031714Y-108223857D01*
X221912667Y-108223857D01*
X221817429Y-108200047D01*
X221769810Y-108176238D01*
X221746000Y-108152428D01*
X221722190Y-108104809D01*
X221888857Y-107509572D02*
X222222190Y-107509572D01*
X221698381Y-107628619D02*
X222055524Y-107747667D01*
X222055524Y-107438143D01*
X225793857Y-107255380D02*
X226127190Y-107255380D01*
X225603381Y-107374427D02*
X225960524Y-107493475D01*
X225960524Y-107183951D01*
X226079571Y-106993475D02*
X226103381Y-106969666D01*
X226127190Y-106993475D01*
X226103381Y-107017285D01*
X226079571Y-106993475D01*
X226127190Y-106993475D01*
X225627190Y-106802999D02*
X225627190Y-106469666D01*
X226127190Y-106683952D01*
X225793857Y-106064905D02*
X226127190Y-106064905D01*
X225793857Y-106279190D02*
X226055762Y-106279190D01*
X226103381Y-106255381D01*
X226127190Y-106207762D01*
X226127190Y-106136333D01*
X226103381Y-106088714D01*
X226079571Y-106064905D01*
X225865286Y-105660143D02*
X225865286Y-105826809D01*
X226127190Y-105826809D02*
X225627190Y-105826809D01*
X225627190Y-105588714D01*
X223341477Y-110541571D02*
X223317667Y-110565381D01*
X223246239Y-110589190D01*
X223198620Y-110589190D01*
X223127191Y-110565381D01*
X223079572Y-110517762D01*
X223055763Y-110470143D01*
X223031953Y-110374905D01*
X223031953Y-110303476D01*
X223055763Y-110208238D01*
X223079572Y-110160619D01*
X223127191Y-110113000D01*
X223198620Y-110089190D01*
X223246239Y-110089190D01*
X223317667Y-110113000D01*
X223341477Y-110136810D01*
X223508144Y-110089190D02*
X223817667Y-110089190D01*
X223651001Y-110279667D01*
X223722429Y-110279667D01*
X223770048Y-110303476D01*
X223793858Y-110327286D01*
X223817667Y-110374905D01*
X223817667Y-110493952D01*
X223793858Y-110541571D01*
X223770048Y-110565381D01*
X223722429Y-110589190D01*
X223579572Y-110589190D01*
X223531953Y-110565381D01*
X223508144Y-110541571D01*
X224127191Y-110089190D02*
X224174810Y-110089190D01*
X224222429Y-110113000D01*
X224246238Y-110136810D01*
X224270048Y-110184429D01*
X224293857Y-110279667D01*
X224293857Y-110398714D01*
X224270048Y-110493952D01*
X224246238Y-110541571D01*
X224222429Y-110565381D01*
X224174810Y-110589190D01*
X224127191Y-110589190D01*
X224079572Y-110565381D01*
X224055762Y-110541571D01*
X224031953Y-110493952D01*
X224008143Y-110398714D01*
X224008143Y-110279667D01*
X224031953Y-110184429D01*
X224055762Y-110136810D01*
X224079572Y-110113000D01*
X224127191Y-110089190D01*
X224746238Y-110089190D02*
X224508143Y-110089190D01*
X224484333Y-110327286D01*
X224508143Y-110303476D01*
X224555762Y-110279667D01*
X224674809Y-110279667D01*
X224722428Y-110303476D01*
X224746238Y-110327286D01*
X224770047Y-110374905D01*
X224770047Y-110493952D01*
X224746238Y-110541571D01*
X224722428Y-110565381D01*
X224674809Y-110589190D01*
X224555762Y-110589190D01*
X224508143Y-110565381D01*
X224484333Y-110541571D01*
X207827190Y-108850809D02*
X207827190Y-109136523D01*
X207827190Y-108993666D02*
X207327190Y-108993666D01*
X207398619Y-109041285D01*
X207446238Y-109088904D01*
X207470048Y-109136523D01*
X207327190Y-108541285D02*
X207327190Y-108493666D01*
X207351000Y-108446047D01*
X207374810Y-108422238D01*
X207422429Y-108398428D01*
X207517667Y-108374619D01*
X207636714Y-108374619D01*
X207731952Y-108398428D01*
X207779571Y-108422238D01*
X207803381Y-108446047D01*
X207827190Y-108493666D01*
X207827190Y-108541285D01*
X207803381Y-108588904D01*
X207779571Y-108612714D01*
X207731952Y-108636523D01*
X207636714Y-108660333D01*
X207517667Y-108660333D01*
X207422429Y-108636523D01*
X207374810Y-108612714D01*
X207351000Y-108588904D01*
X207327190Y-108541285D01*
X207327190Y-108065095D02*
X207327190Y-108017476D01*
X207351000Y-107969857D01*
X207374810Y-107946048D01*
X207422429Y-107922238D01*
X207517667Y-107898429D01*
X207636714Y-107898429D01*
X207731952Y-107922238D01*
X207779571Y-107946048D01*
X207803381Y-107969857D01*
X207827190Y-108017476D01*
X207827190Y-108065095D01*
X207803381Y-108112714D01*
X207779571Y-108136524D01*
X207731952Y-108160333D01*
X207636714Y-108184143D01*
X207517667Y-108184143D01*
X207422429Y-108160333D01*
X207374810Y-108136524D01*
X207351000Y-108112714D01*
X207327190Y-108065095D01*
X207493857Y-107684143D02*
X207827190Y-107684143D01*
X207541476Y-107684143D02*
X207517667Y-107660334D01*
X207493857Y-107612715D01*
X207493857Y-107541286D01*
X207517667Y-107493667D01*
X207565286Y-107469858D01*
X207827190Y-107469858D01*
X207565286Y-107065096D02*
X207565286Y-107231762D01*
X207827190Y-107231762D02*
X207327190Y-107231762D01*
X207327190Y-106993667D01*
X207442571Y-108636523D02*
X207466381Y-108660333D01*
X207490190Y-108731761D01*
X207490190Y-108779380D01*
X207466381Y-108850809D01*
X207418762Y-108898428D01*
X207371143Y-108922237D01*
X207275905Y-108946047D01*
X207204476Y-108946047D01*
X207109238Y-108922237D01*
X207061619Y-108898428D01*
X207014000Y-108850809D01*
X206990190Y-108779380D01*
X206990190Y-108731761D01*
X207014000Y-108660333D01*
X207037810Y-108636523D01*
X206990190Y-108469856D02*
X206990190Y-108160333D01*
X207180667Y-108326999D01*
X207180667Y-108255571D01*
X207204476Y-108207952D01*
X207228286Y-108184142D01*
X207275905Y-108160333D01*
X207394952Y-108160333D01*
X207442571Y-108184142D01*
X207466381Y-108207952D01*
X207490190Y-108255571D01*
X207490190Y-108398428D01*
X207466381Y-108446047D01*
X207442571Y-108469856D01*
X206990190Y-107850809D02*
X206990190Y-107803190D01*
X207014000Y-107755571D01*
X207037810Y-107731762D01*
X207085429Y-107707952D01*
X207180667Y-107684143D01*
X207299714Y-107684143D01*
X207394952Y-107707952D01*
X207442571Y-107731762D01*
X207466381Y-107755571D01*
X207490190Y-107803190D01*
X207490190Y-107850809D01*
X207466381Y-107898428D01*
X207442571Y-107922238D01*
X207394952Y-107946047D01*
X207299714Y-107969857D01*
X207180667Y-107969857D01*
X207085429Y-107946047D01*
X207037810Y-107922238D01*
X207014000Y-107898428D01*
X206990190Y-107850809D01*
X206990190Y-107255572D02*
X206990190Y-107350810D01*
X207014000Y-107398429D01*
X207037810Y-107422238D01*
X207109238Y-107469857D01*
X207204476Y-107493667D01*
X207394952Y-107493667D01*
X207442571Y-107469857D01*
X207466381Y-107446048D01*
X207490190Y-107398429D01*
X207490190Y-107303191D01*
X207466381Y-107255572D01*
X207442571Y-107231762D01*
X207394952Y-107207953D01*
X207275905Y-107207953D01*
X207228286Y-107231762D01*
X207204476Y-107255572D01*
X207180667Y-107303191D01*
X207180667Y-107398429D01*
X207204476Y-107446048D01*
X207228286Y-107469857D01*
X207275905Y-107493667D01*
X182554190Y-108723809D02*
X182554190Y-109009523D01*
X182554190Y-108866666D02*
X182054190Y-108866666D01*
X182125619Y-108914285D01*
X182173238Y-108961904D01*
X182197048Y-109009523D01*
X182054190Y-108414285D02*
X182054190Y-108366666D01*
X182078000Y-108319047D01*
X182101810Y-108295238D01*
X182149429Y-108271428D01*
X182244667Y-108247619D01*
X182363714Y-108247619D01*
X182458952Y-108271428D01*
X182506571Y-108295238D01*
X182530381Y-108319047D01*
X182554190Y-108366666D01*
X182554190Y-108414285D01*
X182530381Y-108461904D01*
X182506571Y-108485714D01*
X182458952Y-108509523D01*
X182363714Y-108533333D01*
X182244667Y-108533333D01*
X182149429Y-108509523D01*
X182101810Y-108485714D01*
X182078000Y-108461904D01*
X182054190Y-108414285D01*
X182054190Y-107938095D02*
X182054190Y-107890476D01*
X182078000Y-107842857D01*
X182101810Y-107819048D01*
X182149429Y-107795238D01*
X182244667Y-107771429D01*
X182363714Y-107771429D01*
X182458952Y-107795238D01*
X182506571Y-107819048D01*
X182530381Y-107842857D01*
X182554190Y-107890476D01*
X182554190Y-107938095D01*
X182530381Y-107985714D01*
X182506571Y-108009524D01*
X182458952Y-108033333D01*
X182363714Y-108057143D01*
X182244667Y-108057143D01*
X182149429Y-108033333D01*
X182101810Y-108009524D01*
X182078000Y-107985714D01*
X182054190Y-107938095D01*
X182220857Y-107557143D02*
X182554190Y-107557143D01*
X182268476Y-107557143D02*
X182244667Y-107533334D01*
X182220857Y-107485715D01*
X182220857Y-107414286D01*
X182244667Y-107366667D01*
X182292286Y-107342858D01*
X182554190Y-107342858D01*
X182292286Y-106938096D02*
X182292286Y-107104762D01*
X182554190Y-107104762D02*
X182054190Y-107104762D01*
X182054190Y-106866667D01*
X177006571Y-108509523D02*
X177030381Y-108533333D01*
X177054190Y-108604761D01*
X177054190Y-108652380D01*
X177030381Y-108723809D01*
X176982762Y-108771428D01*
X176935143Y-108795237D01*
X176839905Y-108819047D01*
X176768476Y-108819047D01*
X176673238Y-108795237D01*
X176625619Y-108771428D01*
X176578000Y-108723809D01*
X176554190Y-108652380D01*
X176554190Y-108604761D01*
X176578000Y-108533333D01*
X176601810Y-108509523D01*
X176554190Y-108342856D02*
X176554190Y-108033333D01*
X176744667Y-108199999D01*
X176744667Y-108128571D01*
X176768476Y-108080952D01*
X176792286Y-108057142D01*
X176839905Y-108033333D01*
X176958952Y-108033333D01*
X177006571Y-108057142D01*
X177030381Y-108080952D01*
X177054190Y-108128571D01*
X177054190Y-108271428D01*
X177030381Y-108319047D01*
X177006571Y-108342856D01*
X176554190Y-107723809D02*
X176554190Y-107676190D01*
X176578000Y-107628571D01*
X176601810Y-107604762D01*
X176649429Y-107580952D01*
X176744667Y-107557143D01*
X176863714Y-107557143D01*
X176958952Y-107580952D01*
X177006571Y-107604762D01*
X177030381Y-107628571D01*
X177054190Y-107676190D01*
X177054190Y-107723809D01*
X177030381Y-107771428D01*
X177006571Y-107795238D01*
X176958952Y-107819047D01*
X176863714Y-107842857D01*
X176744667Y-107842857D01*
X176649429Y-107819047D01*
X176601810Y-107795238D01*
X176578000Y-107771428D01*
X176554190Y-107723809D01*
X176554190Y-107390476D02*
X176554190Y-107057143D01*
X177054190Y-107271429D01*
X183066620Y-112446857D02*
X183066620Y-112780190D01*
X182947573Y-112256381D02*
X182828525Y-112613524D01*
X183138049Y-112613524D01*
X183328525Y-112732571D02*
X183352334Y-112756381D01*
X183328525Y-112780190D01*
X183304715Y-112756381D01*
X183328525Y-112732571D01*
X183328525Y-112780190D01*
X183519001Y-112280190D02*
X183852334Y-112280190D01*
X183638048Y-112780190D01*
X184257095Y-112446857D02*
X184257095Y-112780190D01*
X184042810Y-112446857D02*
X184042810Y-112708762D01*
X184066619Y-112756381D01*
X184114238Y-112780190D01*
X184185667Y-112780190D01*
X184233286Y-112756381D01*
X184257095Y-112732571D01*
X184661857Y-112518286D02*
X184495191Y-112518286D01*
X184495191Y-112780190D02*
X184495191Y-112280190D01*
X184733286Y-112280190D01*
X183209477Y-116482571D02*
X183185667Y-116506381D01*
X183114239Y-116530190D01*
X183066620Y-116530190D01*
X182995191Y-116506381D01*
X182947572Y-116458762D01*
X182923763Y-116411143D01*
X182899953Y-116315905D01*
X182899953Y-116244476D01*
X182923763Y-116149238D01*
X182947572Y-116101619D01*
X182995191Y-116054000D01*
X183066620Y-116030190D01*
X183114239Y-116030190D01*
X183185667Y-116054000D01*
X183209477Y-116077810D01*
X183376144Y-116030190D02*
X183685667Y-116030190D01*
X183519001Y-116220667D01*
X183590429Y-116220667D01*
X183638048Y-116244476D01*
X183661858Y-116268286D01*
X183685667Y-116315905D01*
X183685667Y-116434952D01*
X183661858Y-116482571D01*
X183638048Y-116506381D01*
X183590429Y-116530190D01*
X183447572Y-116530190D01*
X183399953Y-116506381D01*
X183376144Y-116482571D01*
X183995191Y-116030190D02*
X184042810Y-116030190D01*
X184090429Y-116054000D01*
X184114238Y-116077810D01*
X184138048Y-116125429D01*
X184161857Y-116220667D01*
X184161857Y-116339714D01*
X184138048Y-116434952D01*
X184114238Y-116482571D01*
X184090429Y-116506381D01*
X184042810Y-116530190D01*
X183995191Y-116530190D01*
X183947572Y-116506381D01*
X183923762Y-116482571D01*
X183899953Y-116434952D01*
X183876143Y-116339714D01*
X183876143Y-116220667D01*
X183899953Y-116125429D01*
X183923762Y-116077810D01*
X183947572Y-116054000D01*
X183995191Y-116030190D01*
X184447571Y-116244476D02*
X184399952Y-116220667D01*
X184376143Y-116196857D01*
X184352333Y-116149238D01*
X184352333Y-116125429D01*
X184376143Y-116077810D01*
X184399952Y-116054000D01*
X184447571Y-116030190D01*
X184542809Y-116030190D01*
X184590428Y-116054000D01*
X184614238Y-116077810D01*
X184638047Y-116125429D01*
X184638047Y-116149238D01*
X184614238Y-116196857D01*
X184590428Y-116220667D01*
X184542809Y-116244476D01*
X184447571Y-116244476D01*
X184399952Y-116268286D01*
X184376143Y-116292095D01*
X184352333Y-116339714D01*
X184352333Y-116434952D01*
X184376143Y-116482571D01*
X184399952Y-116506381D01*
X184447571Y-116530190D01*
X184542809Y-116530190D01*
X184590428Y-116506381D01*
X184614238Y-116482571D01*
X184638047Y-116434952D01*
X184638047Y-116339714D01*
X184614238Y-116292095D01*
X184590428Y-116268286D01*
X184542809Y-116244476D01*
X190623120Y-116446857D02*
X190623120Y-116780190D01*
X190504073Y-116256381D02*
X190385025Y-116613524D01*
X190694549Y-116613524D01*
X190885025Y-116732571D02*
X190908834Y-116756381D01*
X190885025Y-116780190D01*
X190861215Y-116756381D01*
X190885025Y-116732571D01*
X190885025Y-116780190D01*
X191075501Y-116280190D02*
X191408834Y-116280190D01*
X191194548Y-116780190D01*
X191813595Y-116446857D02*
X191813595Y-116780190D01*
X191599310Y-116446857D02*
X191599310Y-116708762D01*
X191623119Y-116756381D01*
X191670738Y-116780190D01*
X191742167Y-116780190D01*
X191789786Y-116756381D01*
X191813595Y-116732571D01*
X192218357Y-116518286D02*
X192051691Y-116518286D01*
X192051691Y-116780190D02*
X192051691Y-116280190D01*
X192289786Y-116280190D01*
X190702477Y-116447071D02*
X190678667Y-116470881D01*
X190607239Y-116494690D01*
X190559620Y-116494690D01*
X190488191Y-116470881D01*
X190440572Y-116423262D01*
X190416763Y-116375643D01*
X190392953Y-116280405D01*
X190392953Y-116208976D01*
X190416763Y-116113738D01*
X190440572Y-116066119D01*
X190488191Y-116018500D01*
X190559620Y-115994690D01*
X190607239Y-115994690D01*
X190678667Y-116018500D01*
X190702477Y-116042310D01*
X190869144Y-115994690D02*
X191178667Y-115994690D01*
X191012001Y-116185167D01*
X191083429Y-116185167D01*
X191131048Y-116208976D01*
X191154858Y-116232786D01*
X191178667Y-116280405D01*
X191178667Y-116399452D01*
X191154858Y-116447071D01*
X191131048Y-116470881D01*
X191083429Y-116494690D01*
X190940572Y-116494690D01*
X190892953Y-116470881D01*
X190869144Y-116447071D01*
X191488191Y-115994690D02*
X191535810Y-115994690D01*
X191583429Y-116018500D01*
X191607238Y-116042310D01*
X191631048Y-116089929D01*
X191654857Y-116185167D01*
X191654857Y-116304214D01*
X191631048Y-116399452D01*
X191607238Y-116447071D01*
X191583429Y-116470881D01*
X191535810Y-116494690D01*
X191488191Y-116494690D01*
X191440572Y-116470881D01*
X191416762Y-116447071D01*
X191392953Y-116399452D01*
X191369143Y-116304214D01*
X191369143Y-116185167D01*
X191392953Y-116089929D01*
X191416762Y-116042310D01*
X191440572Y-116018500D01*
X191488191Y-115994690D01*
X191892952Y-116494690D02*
X191988190Y-116494690D01*
X192035809Y-116470881D01*
X192059619Y-116447071D01*
X192107238Y-116375643D01*
X192131047Y-116280405D01*
X192131047Y-116089929D01*
X192107238Y-116042310D01*
X192083428Y-116018500D01*
X192035809Y-115994690D01*
X191940571Y-115994690D01*
X191892952Y-116018500D01*
X191869143Y-116042310D01*
X191845333Y-116089929D01*
X191845333Y-116208976D01*
X191869143Y-116256595D01*
X191892952Y-116280405D01*
X191940571Y-116304214D01*
X192035809Y-116304214D01*
X192083428Y-116280405D01*
X192107238Y-116256595D01*
X192131047Y-116208976D01*
X87447572Y-105410190D02*
X87161858Y-105410190D01*
X87304715Y-105410190D02*
X87304715Y-104910190D01*
X87257096Y-104981619D01*
X87209477Y-105029238D01*
X87161858Y-105053048D01*
X87661858Y-105410190D02*
X87661858Y-104910190D01*
X87947572Y-105410190D01*
X87947572Y-104910190D01*
X88399953Y-105076857D02*
X88399953Y-105410190D01*
X88280906Y-104886381D02*
X88161858Y-105243524D01*
X88471382Y-105243524D01*
X88923762Y-105410190D02*
X88638048Y-105410190D01*
X88780905Y-105410190D02*
X88780905Y-104910190D01*
X88733286Y-104981619D01*
X88685667Y-105029238D01*
X88638048Y-105053048D01*
X89352333Y-105076857D02*
X89352333Y-105410190D01*
X89233286Y-104886381D02*
X89114238Y-105243524D01*
X89423762Y-105243524D01*
X89685666Y-105124476D02*
X89638047Y-105100667D01*
X89614238Y-105076857D01*
X89590428Y-105029238D01*
X89590428Y-105005429D01*
X89614238Y-104957810D01*
X89638047Y-104934000D01*
X89685666Y-104910190D01*
X89780904Y-104910190D01*
X89828523Y-104934000D01*
X89852333Y-104957810D01*
X89876142Y-105005429D01*
X89876142Y-105029238D01*
X89852333Y-105076857D01*
X89828523Y-105100667D01*
X89780904Y-105124476D01*
X89685666Y-105124476D01*
X89638047Y-105148286D01*
X89614238Y-105172095D01*
X89590428Y-105219714D01*
X89590428Y-105314952D01*
X89614238Y-105362571D01*
X89638047Y-105386381D01*
X89685666Y-105410190D01*
X89780904Y-105410190D01*
X89828523Y-105386381D01*
X89852333Y-105362571D01*
X89876142Y-105314952D01*
X89876142Y-105219714D01*
X89852333Y-105172095D01*
X89828523Y-105148286D01*
X89780904Y-105124476D01*
X83411190Y-103842237D02*
X82911190Y-103842237D01*
X82911190Y-103723190D01*
X82935000Y-103651761D01*
X82982619Y-103604142D01*
X83030238Y-103580333D01*
X83125476Y-103556523D01*
X83196905Y-103556523D01*
X83292143Y-103580333D01*
X83339762Y-103604142D01*
X83387381Y-103651761D01*
X83411190Y-103723190D01*
X83411190Y-103842237D01*
X82958810Y-103366047D02*
X82935000Y-103342237D01*
X82911190Y-103294618D01*
X82911190Y-103175571D01*
X82935000Y-103127952D01*
X82958810Y-103104142D01*
X83006429Y-103080333D01*
X83054048Y-103080333D01*
X83125476Y-103104142D01*
X83411190Y-103389856D01*
X83411190Y-103080333D01*
X82911190Y-102770809D02*
X82911190Y-102723190D01*
X82935000Y-102675571D01*
X82958810Y-102651762D01*
X83006429Y-102627952D01*
X83101667Y-102604143D01*
X83220714Y-102604143D01*
X83315952Y-102627952D01*
X83363571Y-102651762D01*
X83387381Y-102675571D01*
X83411190Y-102723190D01*
X83411190Y-102770809D01*
X83387381Y-102818428D01*
X83363571Y-102842238D01*
X83315952Y-102866047D01*
X83220714Y-102889857D01*
X83101667Y-102889857D01*
X83006429Y-102866047D01*
X82958810Y-102842238D01*
X82935000Y-102818428D01*
X82911190Y-102770809D01*
X83411190Y-102127953D02*
X83411190Y-102413667D01*
X83411190Y-102270810D02*
X82911190Y-102270810D01*
X82982619Y-102318429D01*
X83030238Y-102366048D01*
X83054048Y-102413667D01*
X83439190Y-104322428D02*
X83439190Y-104608142D01*
X83439190Y-104465285D02*
X82939190Y-104465285D01*
X83010619Y-104512904D01*
X83058238Y-104560523D01*
X83082048Y-104608142D01*
X83439190Y-104108142D02*
X82939190Y-104108142D01*
X83439190Y-103822428D01*
X82939190Y-103822428D01*
X83105857Y-103370047D02*
X83439190Y-103370047D01*
X82915381Y-103489094D02*
X83272524Y-103608142D01*
X83272524Y-103298618D01*
X83439190Y-102846238D02*
X83439190Y-103131952D01*
X83439190Y-102989095D02*
X82939190Y-102989095D01*
X83010619Y-103036714D01*
X83058238Y-103084333D01*
X83082048Y-103131952D01*
X83105857Y-102417667D02*
X83439190Y-102417667D01*
X82915381Y-102536714D02*
X83272524Y-102655762D01*
X83272524Y-102346238D01*
X83153476Y-102084334D02*
X83129667Y-102131953D01*
X83105857Y-102155762D01*
X83058238Y-102179572D01*
X83034429Y-102179572D01*
X82986810Y-102155762D01*
X82963000Y-102131953D01*
X82939190Y-102084334D01*
X82939190Y-101989096D01*
X82963000Y-101941477D01*
X82986810Y-101917667D01*
X83034429Y-101893858D01*
X83058238Y-101893858D01*
X83105857Y-101917667D01*
X83129667Y-101941477D01*
X83153476Y-101989096D01*
X83153476Y-102084334D01*
X83177286Y-102131953D01*
X83201095Y-102155762D01*
X83248714Y-102179572D01*
X83343952Y-102179572D01*
X83391571Y-102155762D01*
X83415381Y-102131953D01*
X83439190Y-102084334D01*
X83439190Y-101989096D01*
X83415381Y-101941477D01*
X83391571Y-101917667D01*
X83343952Y-101893858D01*
X83248714Y-101893858D01*
X83201095Y-101917667D01*
X83177286Y-101941477D01*
X83153476Y-101989096D01*
X79474190Y-103842237D02*
X78974190Y-103842237D01*
X78974190Y-103723190D01*
X78998000Y-103651761D01*
X79045619Y-103604142D01*
X79093238Y-103580333D01*
X79188476Y-103556523D01*
X79259905Y-103556523D01*
X79355143Y-103580333D01*
X79402762Y-103604142D01*
X79450381Y-103651761D01*
X79474190Y-103723190D01*
X79474190Y-103842237D01*
X79021810Y-103366047D02*
X78998000Y-103342237D01*
X78974190Y-103294618D01*
X78974190Y-103175571D01*
X78998000Y-103127952D01*
X79021810Y-103104142D01*
X79069429Y-103080333D01*
X79117048Y-103080333D01*
X79188476Y-103104142D01*
X79474190Y-103389856D01*
X79474190Y-103080333D01*
X78974190Y-102770809D02*
X78974190Y-102723190D01*
X78998000Y-102675571D01*
X79021810Y-102651762D01*
X79069429Y-102627952D01*
X79164667Y-102604143D01*
X79283714Y-102604143D01*
X79378952Y-102627952D01*
X79426571Y-102651762D01*
X79450381Y-102675571D01*
X79474190Y-102723190D01*
X79474190Y-102770809D01*
X79450381Y-102818428D01*
X79426571Y-102842238D01*
X79378952Y-102866047D01*
X79283714Y-102889857D01*
X79164667Y-102889857D01*
X79069429Y-102866047D01*
X79021810Y-102842238D01*
X78998000Y-102818428D01*
X78974190Y-102770809D01*
X79021810Y-102413667D02*
X78998000Y-102389857D01*
X78974190Y-102342238D01*
X78974190Y-102223191D01*
X78998000Y-102175572D01*
X79021810Y-102151762D01*
X79069429Y-102127953D01*
X79117048Y-102127953D01*
X79188476Y-102151762D01*
X79474190Y-102437476D01*
X79474190Y-102127953D01*
X155503620Y-84311190D02*
X155265525Y-84311190D01*
X155241715Y-84549286D01*
X155265525Y-84525476D01*
X155313144Y-84501667D01*
X155432191Y-84501667D01*
X155479810Y-84525476D01*
X155503620Y-84549286D01*
X155527429Y-84596905D01*
X155527429Y-84715952D01*
X155503620Y-84763571D01*
X155479810Y-84787381D01*
X155432191Y-84811190D01*
X155313144Y-84811190D01*
X155265525Y-84787381D01*
X155241715Y-84763571D01*
X155741715Y-84763571D02*
X155765524Y-84787381D01*
X155741715Y-84811190D01*
X155717905Y-84787381D01*
X155741715Y-84763571D01*
X155741715Y-84811190D01*
X156194095Y-84311190D02*
X156098857Y-84311190D01*
X156051238Y-84335000D01*
X156027429Y-84358810D01*
X155979810Y-84430238D01*
X155956000Y-84525476D01*
X155956000Y-84715952D01*
X155979810Y-84763571D01*
X156003619Y-84787381D01*
X156051238Y-84811190D01*
X156146476Y-84811190D01*
X156194095Y-84787381D01*
X156217905Y-84763571D01*
X156241714Y-84715952D01*
X156241714Y-84596905D01*
X156217905Y-84549286D01*
X156194095Y-84525476D01*
X156146476Y-84501667D01*
X156051238Y-84501667D01*
X156003619Y-84525476D01*
X155979810Y-84549286D01*
X155956000Y-84596905D01*
X156384571Y-84311190D02*
X156551238Y-84811190D01*
X156717904Y-84311190D01*
X155110763Y-82111190D02*
X155110763Y-81611190D01*
X155229810Y-81611190D01*
X155301239Y-81635000D01*
X155348858Y-81682619D01*
X155372667Y-81730238D01*
X155396477Y-81825476D01*
X155396477Y-81896905D01*
X155372667Y-81992143D01*
X155348858Y-82039762D01*
X155301239Y-82087381D01*
X155229810Y-82111190D01*
X155110763Y-82111190D01*
X155563144Y-81611190D02*
X155872667Y-81611190D01*
X155706001Y-81801667D01*
X155777429Y-81801667D01*
X155825048Y-81825476D01*
X155848858Y-81849286D01*
X155872667Y-81896905D01*
X155872667Y-82015952D01*
X155848858Y-82063571D01*
X155825048Y-82087381D01*
X155777429Y-82111190D01*
X155634572Y-82111190D01*
X155586953Y-82087381D01*
X155563144Y-82063571D01*
X156182191Y-81611190D02*
X156229810Y-81611190D01*
X156277429Y-81635000D01*
X156301238Y-81658810D01*
X156325048Y-81706429D01*
X156348857Y-81801667D01*
X156348857Y-81920714D01*
X156325048Y-82015952D01*
X156301238Y-82063571D01*
X156277429Y-82087381D01*
X156229810Y-82111190D01*
X156182191Y-82111190D01*
X156134572Y-82087381D01*
X156110762Y-82063571D01*
X156086953Y-82015952D01*
X156063143Y-81920714D01*
X156063143Y-81801667D01*
X156086953Y-81706429D01*
X156110762Y-81658810D01*
X156134572Y-81635000D01*
X156182191Y-81611190D01*
X156825047Y-82111190D02*
X156539333Y-82111190D01*
X156682190Y-82111190D02*
X156682190Y-81611190D01*
X156634571Y-81682619D01*
X156586952Y-81730238D01*
X156539333Y-81754048D01*
X185412120Y-81193690D02*
X185174025Y-81193690D01*
X185150215Y-81431786D01*
X185174025Y-81407976D01*
X185221644Y-81384167D01*
X185340691Y-81384167D01*
X185388310Y-81407976D01*
X185412120Y-81431786D01*
X185435929Y-81479405D01*
X185435929Y-81598452D01*
X185412120Y-81646071D01*
X185388310Y-81669881D01*
X185340691Y-81693690D01*
X185221644Y-81693690D01*
X185174025Y-81669881D01*
X185150215Y-81646071D01*
X185650215Y-81646071D02*
X185674024Y-81669881D01*
X185650215Y-81693690D01*
X185626405Y-81669881D01*
X185650215Y-81646071D01*
X185650215Y-81693690D01*
X186102595Y-81193690D02*
X186007357Y-81193690D01*
X185959738Y-81217500D01*
X185935929Y-81241310D01*
X185888310Y-81312738D01*
X185864500Y-81407976D01*
X185864500Y-81598452D01*
X185888310Y-81646071D01*
X185912119Y-81669881D01*
X185959738Y-81693690D01*
X186054976Y-81693690D01*
X186102595Y-81669881D01*
X186126405Y-81646071D01*
X186150214Y-81598452D01*
X186150214Y-81479405D01*
X186126405Y-81431786D01*
X186102595Y-81407976D01*
X186054976Y-81384167D01*
X185959738Y-81384167D01*
X185912119Y-81407976D01*
X185888310Y-81431786D01*
X185864500Y-81479405D01*
X186293071Y-81193690D02*
X186459738Y-81693690D01*
X186626404Y-81193690D01*
X185082763Y-84300190D02*
X185082763Y-83800190D01*
X185201810Y-83800190D01*
X185273239Y-83824000D01*
X185320858Y-83871619D01*
X185344667Y-83919238D01*
X185368477Y-84014476D01*
X185368477Y-84085905D01*
X185344667Y-84181143D01*
X185320858Y-84228762D01*
X185273239Y-84276381D01*
X185201810Y-84300190D01*
X185082763Y-84300190D01*
X185535144Y-83800190D02*
X185844667Y-83800190D01*
X185678001Y-83990667D01*
X185749429Y-83990667D01*
X185797048Y-84014476D01*
X185820858Y-84038286D01*
X185844667Y-84085905D01*
X185844667Y-84204952D01*
X185820858Y-84252571D01*
X185797048Y-84276381D01*
X185749429Y-84300190D01*
X185606572Y-84300190D01*
X185558953Y-84276381D01*
X185535144Y-84252571D01*
X186154191Y-83800190D02*
X186201810Y-83800190D01*
X186249429Y-83824000D01*
X186273238Y-83847810D01*
X186297048Y-83895429D01*
X186320857Y-83990667D01*
X186320857Y-84109714D01*
X186297048Y-84204952D01*
X186273238Y-84252571D01*
X186249429Y-84276381D01*
X186201810Y-84300190D01*
X186154191Y-84300190D01*
X186106572Y-84276381D01*
X186082762Y-84252571D01*
X186058953Y-84204952D01*
X186035143Y-84109714D01*
X186035143Y-83990667D01*
X186058953Y-83895429D01*
X186082762Y-83847810D01*
X186106572Y-83824000D01*
X186154191Y-83800190D01*
X186511333Y-83847810D02*
X186535143Y-83824000D01*
X186582762Y-83800190D01*
X186701809Y-83800190D01*
X186749428Y-83824000D01*
X186773238Y-83847810D01*
X186797047Y-83895429D01*
X186797047Y-83943048D01*
X186773238Y-84014476D01*
X186487524Y-84300190D01*
X186797047Y-84300190D01*
X178887190Y-89780928D02*
X178887190Y-90066642D01*
X178887190Y-89923785D02*
X178387190Y-89923785D01*
X178458619Y-89971404D01*
X178506238Y-90019023D01*
X178530048Y-90066642D01*
X178887190Y-89566642D02*
X178387190Y-89566642D01*
X178887190Y-89280928D01*
X178387190Y-89280928D01*
X178553857Y-88828547D02*
X178887190Y-88828547D01*
X178363381Y-88947594D02*
X178720524Y-89066642D01*
X178720524Y-88757118D01*
X178887190Y-88304738D02*
X178887190Y-88590452D01*
X178887190Y-88447595D02*
X178387190Y-88447595D01*
X178458619Y-88495214D01*
X178506238Y-88542833D01*
X178530048Y-88590452D01*
X178553857Y-87876167D02*
X178887190Y-87876167D01*
X178363381Y-87995214D02*
X178720524Y-88114262D01*
X178720524Y-87804738D01*
X178601476Y-87542834D02*
X178577667Y-87590453D01*
X178553857Y-87614262D01*
X178506238Y-87638072D01*
X178482429Y-87638072D01*
X178434810Y-87614262D01*
X178411000Y-87590453D01*
X178387190Y-87542834D01*
X178387190Y-87447596D01*
X178411000Y-87399977D01*
X178434810Y-87376167D01*
X178482429Y-87352358D01*
X178506238Y-87352358D01*
X178553857Y-87376167D01*
X178577667Y-87399977D01*
X178601476Y-87447596D01*
X178601476Y-87542834D01*
X178625286Y-87590453D01*
X178649095Y-87614262D01*
X178696714Y-87638072D01*
X178791952Y-87638072D01*
X178839571Y-87614262D01*
X178863381Y-87590453D01*
X178887190Y-87542834D01*
X178887190Y-87447596D01*
X178863381Y-87399977D01*
X178839571Y-87376167D01*
X178791952Y-87352358D01*
X178696714Y-87352358D01*
X178649095Y-87376167D01*
X178625286Y-87399977D01*
X178601476Y-87447596D01*
X179875763Y-94396690D02*
X179875763Y-93896690D01*
X179994810Y-93896690D01*
X180066239Y-93920500D01*
X180113858Y-93968119D01*
X180137667Y-94015738D01*
X180161477Y-94110976D01*
X180161477Y-94182405D01*
X180137667Y-94277643D01*
X180113858Y-94325262D01*
X180066239Y-94372881D01*
X179994810Y-94396690D01*
X179875763Y-94396690D01*
X180328144Y-93896690D02*
X180637667Y-93896690D01*
X180471001Y-94087167D01*
X180542429Y-94087167D01*
X180590048Y-94110976D01*
X180613858Y-94134786D01*
X180637667Y-94182405D01*
X180637667Y-94301452D01*
X180613858Y-94349071D01*
X180590048Y-94372881D01*
X180542429Y-94396690D01*
X180399572Y-94396690D01*
X180351953Y-94372881D01*
X180328144Y-94349071D01*
X180947191Y-93896690D02*
X180994810Y-93896690D01*
X181042429Y-93920500D01*
X181066238Y-93944310D01*
X181090048Y-93991929D01*
X181113857Y-94087167D01*
X181113857Y-94206214D01*
X181090048Y-94301452D01*
X181066238Y-94349071D01*
X181042429Y-94372881D01*
X180994810Y-94396690D01*
X180947191Y-94396690D01*
X180899572Y-94372881D01*
X180875762Y-94349071D01*
X180851953Y-94301452D01*
X180828143Y-94206214D01*
X180828143Y-94087167D01*
X180851953Y-93991929D01*
X180875762Y-93944310D01*
X180899572Y-93920500D01*
X180947191Y-93896690D01*
X181280524Y-93896690D02*
X181590047Y-93896690D01*
X181423381Y-94087167D01*
X181494809Y-94087167D01*
X181542428Y-94110976D01*
X181566238Y-94134786D01*
X181590047Y-94182405D01*
X181590047Y-94301452D01*
X181566238Y-94349071D01*
X181542428Y-94372881D01*
X181494809Y-94396690D01*
X181351952Y-94396690D01*
X181304333Y-94372881D01*
X181280524Y-94349071D01*
X155503620Y-93449190D02*
X155265525Y-93449190D01*
X155241715Y-93687286D01*
X155265525Y-93663476D01*
X155313144Y-93639667D01*
X155432191Y-93639667D01*
X155479810Y-93663476D01*
X155503620Y-93687286D01*
X155527429Y-93734905D01*
X155527429Y-93853952D01*
X155503620Y-93901571D01*
X155479810Y-93925381D01*
X155432191Y-93949190D01*
X155313144Y-93949190D01*
X155265525Y-93925381D01*
X155241715Y-93901571D01*
X155741715Y-93901571D02*
X155765524Y-93925381D01*
X155741715Y-93949190D01*
X155717905Y-93925381D01*
X155741715Y-93901571D01*
X155741715Y-93949190D01*
X156194095Y-93449190D02*
X156098857Y-93449190D01*
X156051238Y-93473000D01*
X156027429Y-93496810D01*
X155979810Y-93568238D01*
X155956000Y-93663476D01*
X155956000Y-93853952D01*
X155979810Y-93901571D01*
X156003619Y-93925381D01*
X156051238Y-93949190D01*
X156146476Y-93949190D01*
X156194095Y-93925381D01*
X156217905Y-93901571D01*
X156241714Y-93853952D01*
X156241714Y-93734905D01*
X156217905Y-93687286D01*
X156194095Y-93663476D01*
X156146476Y-93639667D01*
X156051238Y-93639667D01*
X156003619Y-93663476D01*
X155979810Y-93687286D01*
X155956000Y-93734905D01*
X156384571Y-93449190D02*
X156551238Y-93949190D01*
X156717904Y-93449190D01*
X155110763Y-94206190D02*
X155110763Y-93706190D01*
X155229810Y-93706190D01*
X155301239Y-93730000D01*
X155348858Y-93777619D01*
X155372667Y-93825238D01*
X155396477Y-93920476D01*
X155396477Y-93991905D01*
X155372667Y-94087143D01*
X155348858Y-94134762D01*
X155301239Y-94182381D01*
X155229810Y-94206190D01*
X155110763Y-94206190D01*
X155563144Y-93706190D02*
X155872667Y-93706190D01*
X155706001Y-93896667D01*
X155777429Y-93896667D01*
X155825048Y-93920476D01*
X155848858Y-93944286D01*
X155872667Y-93991905D01*
X155872667Y-94110952D01*
X155848858Y-94158571D01*
X155825048Y-94182381D01*
X155777429Y-94206190D01*
X155634572Y-94206190D01*
X155586953Y-94182381D01*
X155563144Y-94158571D01*
X156182191Y-93706190D02*
X156229810Y-93706190D01*
X156277429Y-93730000D01*
X156301238Y-93753810D01*
X156325048Y-93801429D01*
X156348857Y-93896667D01*
X156348857Y-94015714D01*
X156325048Y-94110952D01*
X156301238Y-94158571D01*
X156277429Y-94182381D01*
X156229810Y-94206190D01*
X156182191Y-94206190D01*
X156134572Y-94182381D01*
X156110762Y-94158571D01*
X156086953Y-94110952D01*
X156063143Y-94015714D01*
X156063143Y-93896667D01*
X156086953Y-93801429D01*
X156110762Y-93753810D01*
X156134572Y-93730000D01*
X156182191Y-93706190D01*
X156777428Y-93872857D02*
X156777428Y-94206190D01*
X156658381Y-93682381D02*
X156539333Y-94039524D01*
X156848857Y-94039524D01*
X150511190Y-79406666D02*
X150011190Y-79406666D01*
X150011190Y-79216190D01*
X150035000Y-79168571D01*
X150058810Y-79144762D01*
X150106429Y-79120952D01*
X150177857Y-79120952D01*
X150225476Y-79144762D01*
X150249286Y-79168571D01*
X150273095Y-79216190D01*
X150273095Y-79406666D01*
X150011190Y-78954285D02*
X150511190Y-78835238D01*
X150154048Y-78740000D01*
X150511190Y-78644762D01*
X150011190Y-78525714D01*
X150511190Y-78049523D02*
X150273095Y-78216190D01*
X150511190Y-78335237D02*
X150011190Y-78335237D01*
X150011190Y-78144761D01*
X150035000Y-78097142D01*
X150058810Y-78073333D01*
X150106429Y-78049523D01*
X150177857Y-78049523D01*
X150225476Y-78073333D01*
X150249286Y-78097142D01*
X150273095Y-78144761D01*
X150273095Y-78335237D01*
X140271190Y-79382856D02*
X140628333Y-79382856D01*
X140699762Y-79406666D01*
X140747381Y-79454285D01*
X140771190Y-79525713D01*
X140771190Y-79573332D01*
X140771190Y-78882857D02*
X140771190Y-79168571D01*
X140771190Y-79025714D02*
X140271190Y-79025714D01*
X140342619Y-79073333D01*
X140390238Y-79120952D01*
X140414048Y-79168571D01*
X140271190Y-78573333D02*
X140271190Y-78525714D01*
X140295000Y-78478095D01*
X140318810Y-78454286D01*
X140366429Y-78430476D01*
X140461667Y-78406667D01*
X140580714Y-78406667D01*
X140675952Y-78430476D01*
X140723571Y-78454286D01*
X140747381Y-78478095D01*
X140771190Y-78525714D01*
X140771190Y-78573333D01*
X140747381Y-78620952D01*
X140723571Y-78644762D01*
X140675952Y-78668571D01*
X140580714Y-78692381D01*
X140461667Y-78692381D01*
X140366429Y-78668571D01*
X140318810Y-78644762D01*
X140295000Y-78620952D01*
X140271190Y-78573333D01*
X140771190Y-77930477D02*
X140771190Y-78216191D01*
X140771190Y-78073334D02*
X140271190Y-78073334D01*
X140342619Y-78120953D01*
X140390238Y-78168572D01*
X140414048Y-78216191D01*
X191159190Y-80236048D02*
X191563952Y-80236048D01*
X191611571Y-80212239D01*
X191635381Y-80188429D01*
X191659190Y-80140810D01*
X191659190Y-80045572D01*
X191635381Y-79997953D01*
X191611571Y-79974144D01*
X191563952Y-79950334D01*
X191159190Y-79950334D01*
X191659190Y-79712238D02*
X191159190Y-79712238D01*
X191659190Y-79426524D01*
X191159190Y-79426524D01*
X191659190Y-79188428D02*
X191159190Y-79188428D01*
X191516333Y-79021762D01*
X191159190Y-78855095D01*
X191659190Y-78855095D01*
X191159190Y-78616999D02*
X191563952Y-78616999D01*
X191611571Y-78593190D01*
X191635381Y-78569380D01*
X191659190Y-78521761D01*
X191659190Y-78426523D01*
X191635381Y-78378904D01*
X191611571Y-78355095D01*
X191563952Y-78331285D01*
X191159190Y-78331285D01*
X191159190Y-78164618D02*
X191159190Y-77878904D01*
X191659190Y-78021761D02*
X191159190Y-78021761D01*
X191397286Y-77712237D02*
X191397286Y-77545571D01*
X191659190Y-77474142D02*
X191659190Y-77712237D01*
X191159190Y-77712237D01*
X191159190Y-77474142D01*
X183959190Y-79509856D02*
X184316333Y-79509856D01*
X184387762Y-79533666D01*
X184435381Y-79581285D01*
X184459190Y-79652713D01*
X184459190Y-79700332D01*
X184459190Y-79009857D02*
X184459190Y-79295571D01*
X184459190Y-79152714D02*
X183959190Y-79152714D01*
X184030619Y-79200333D01*
X184078238Y-79247952D01*
X184102048Y-79295571D01*
X183959190Y-78700333D02*
X183959190Y-78652714D01*
X183983000Y-78605095D01*
X184006810Y-78581286D01*
X184054429Y-78557476D01*
X184149667Y-78533667D01*
X184268714Y-78533667D01*
X184363952Y-78557476D01*
X184411571Y-78581286D01*
X184435381Y-78605095D01*
X184459190Y-78652714D01*
X184459190Y-78700333D01*
X184435381Y-78747952D01*
X184411571Y-78771762D01*
X184363952Y-78795571D01*
X184268714Y-78819381D01*
X184149667Y-78819381D01*
X184054429Y-78795571D01*
X184006810Y-78771762D01*
X183983000Y-78747952D01*
X183959190Y-78700333D01*
X184006810Y-78343191D02*
X183983000Y-78319381D01*
X183959190Y-78271762D01*
X183959190Y-78152715D01*
X183983000Y-78105096D01*
X184006810Y-78081286D01*
X184054429Y-78057477D01*
X184102048Y-78057477D01*
X184173476Y-78081286D01*
X184459190Y-78367000D01*
X184459190Y-78057477D01*
X217035381Y-80156666D02*
X217059190Y-80085237D01*
X217059190Y-79966190D01*
X217035381Y-79918571D01*
X217011571Y-79894761D01*
X216963952Y-79870952D01*
X216916333Y-79870952D01*
X216868714Y-79894761D01*
X216844905Y-79918571D01*
X216821095Y-79966190D01*
X216797286Y-80061428D01*
X216773476Y-80109047D01*
X216749667Y-80132856D01*
X216702048Y-80156666D01*
X216654429Y-80156666D01*
X216606810Y-80132856D01*
X216583000Y-80109047D01*
X216559190Y-80061428D01*
X216559190Y-79942380D01*
X216583000Y-79870952D01*
X217059190Y-79656666D02*
X216559190Y-79656666D01*
X216583000Y-79156667D02*
X216559190Y-79204286D01*
X216559190Y-79275714D01*
X216583000Y-79347143D01*
X216630619Y-79394762D01*
X216678238Y-79418571D01*
X216773476Y-79442381D01*
X216844905Y-79442381D01*
X216940143Y-79418571D01*
X216987762Y-79394762D01*
X217035381Y-79347143D01*
X217059190Y-79275714D01*
X217059190Y-79228095D01*
X217035381Y-79156667D01*
X217011571Y-79132857D01*
X216844905Y-79132857D01*
X216844905Y-79228095D01*
X217106810Y-79037619D02*
X217106810Y-78656667D01*
X216559190Y-78442381D02*
X216559190Y-78347143D01*
X216583000Y-78299524D01*
X216630619Y-78251905D01*
X216725857Y-78228096D01*
X216892524Y-78228096D01*
X216987762Y-78251905D01*
X217035381Y-78299524D01*
X217059190Y-78347143D01*
X217059190Y-78442381D01*
X217035381Y-78490000D01*
X216987762Y-78537619D01*
X216892524Y-78561429D01*
X216725857Y-78561429D01*
X216630619Y-78537619D01*
X216583000Y-78490000D01*
X216559190Y-78442381D01*
X216559190Y-78013809D02*
X216963952Y-78013809D01*
X217011571Y-77990000D01*
X217035381Y-77966190D01*
X217059190Y-77918571D01*
X217059190Y-77823333D01*
X217035381Y-77775714D01*
X217011571Y-77751905D01*
X216963952Y-77728095D01*
X216559190Y-77728095D01*
X216559190Y-77561428D02*
X216559190Y-77275714D01*
X217059190Y-77418571D02*
X216559190Y-77418571D01*
X209359190Y-79382856D02*
X209716333Y-79382856D01*
X209787762Y-79406666D01*
X209835381Y-79454285D01*
X209859190Y-79525713D01*
X209859190Y-79573332D01*
X209859190Y-78882857D02*
X209859190Y-79168571D01*
X209859190Y-79025714D02*
X209359190Y-79025714D01*
X209430619Y-79073333D01*
X209478238Y-79120952D01*
X209502048Y-79168571D01*
X209359190Y-78573333D02*
X209359190Y-78525714D01*
X209383000Y-78478095D01*
X209406810Y-78454286D01*
X209454429Y-78430476D01*
X209549667Y-78406667D01*
X209668714Y-78406667D01*
X209763952Y-78430476D01*
X209811571Y-78454286D01*
X209835381Y-78478095D01*
X209859190Y-78525714D01*
X209859190Y-78573333D01*
X209835381Y-78620952D01*
X209811571Y-78644762D01*
X209763952Y-78668571D01*
X209668714Y-78692381D01*
X209549667Y-78692381D01*
X209454429Y-78668571D01*
X209406810Y-78644762D01*
X209383000Y-78620952D01*
X209359190Y-78573333D01*
X209359190Y-78240000D02*
X209359190Y-77930477D01*
X209549667Y-78097143D01*
X209549667Y-78025715D01*
X209573476Y-77978096D01*
X209597286Y-77954286D01*
X209644905Y-77930477D01*
X209763952Y-77930477D01*
X209811571Y-77954286D01*
X209835381Y-77978096D01*
X209859190Y-78025715D01*
X209859190Y-78168572D01*
X209835381Y-78216191D01*
X209811571Y-78240000D01*
X87542858Y-83208810D02*
X87566668Y-83185000D01*
X87614287Y-83161190D01*
X87733334Y-83161190D01*
X87780953Y-83185000D01*
X87804763Y-83208810D01*
X87828572Y-83256429D01*
X87828572Y-83304048D01*
X87804763Y-83375476D01*
X87519049Y-83661190D01*
X87828572Y-83661190D01*
X88042858Y-83661190D02*
X88042858Y-83161190D01*
X88328572Y-83661190D01*
X88328572Y-83161190D01*
X88519049Y-83161190D02*
X88828572Y-83161190D01*
X88661906Y-83351667D01*
X88733334Y-83351667D01*
X88780953Y-83375476D01*
X88804763Y-83399286D01*
X88828572Y-83446905D01*
X88828572Y-83565952D01*
X88804763Y-83613571D01*
X88780953Y-83637381D01*
X88733334Y-83661190D01*
X88590477Y-83661190D01*
X88542858Y-83637381D01*
X88519049Y-83613571D01*
X89114286Y-83375476D02*
X89066667Y-83351667D01*
X89042858Y-83327857D01*
X89019048Y-83280238D01*
X89019048Y-83256429D01*
X89042858Y-83208810D01*
X89066667Y-83185000D01*
X89114286Y-83161190D01*
X89209524Y-83161190D01*
X89257143Y-83185000D01*
X89280953Y-83208810D01*
X89304762Y-83256429D01*
X89304762Y-83280238D01*
X89280953Y-83327857D01*
X89257143Y-83351667D01*
X89209524Y-83375476D01*
X89114286Y-83375476D01*
X89066667Y-83399286D01*
X89042858Y-83423095D01*
X89019048Y-83470714D01*
X89019048Y-83565952D01*
X89042858Y-83613571D01*
X89066667Y-83637381D01*
X89114286Y-83661190D01*
X89209524Y-83661190D01*
X89257143Y-83637381D01*
X89280953Y-83613571D01*
X89304762Y-83565952D01*
X89304762Y-83470714D01*
X89280953Y-83423095D01*
X89257143Y-83399286D01*
X89209524Y-83375476D01*
X89780952Y-83661190D02*
X89495238Y-83661190D01*
X89638095Y-83661190D02*
X89638095Y-83161190D01*
X89590476Y-83232619D01*
X89542857Y-83280238D01*
X89495238Y-83304048D01*
X90019047Y-83661190D02*
X90114285Y-83661190D01*
X90161904Y-83637381D01*
X90185714Y-83613571D01*
X90233333Y-83542143D01*
X90257142Y-83446905D01*
X90257142Y-83256429D01*
X90233333Y-83208810D01*
X90209523Y-83185000D01*
X90161904Y-83161190D01*
X90066666Y-83161190D01*
X90019047Y-83185000D01*
X89995238Y-83208810D01*
X89971428Y-83256429D01*
X89971428Y-83375476D01*
X89995238Y-83423095D01*
X90019047Y-83446905D01*
X90066666Y-83470714D01*
X90161904Y-83470714D01*
X90209523Y-83446905D01*
X90233333Y-83423095D01*
X90257142Y-83375476D01*
X88376191Y-77358810D02*
X88328572Y-77335000D01*
X88280953Y-77287381D01*
X88209524Y-77215952D01*
X88161905Y-77192143D01*
X88114286Y-77192143D01*
X88138096Y-77311190D02*
X88090477Y-77287381D01*
X88042858Y-77239762D01*
X88019048Y-77144524D01*
X88019048Y-76977857D01*
X88042858Y-76882619D01*
X88090477Y-76835000D01*
X88138096Y-76811190D01*
X88233334Y-76811190D01*
X88280953Y-76835000D01*
X88328572Y-76882619D01*
X88352381Y-76977857D01*
X88352381Y-77144524D01*
X88328572Y-77239762D01*
X88280953Y-77287381D01*
X88233334Y-77311190D01*
X88138096Y-77311190D01*
X88542858Y-76858810D02*
X88566668Y-76835000D01*
X88614287Y-76811190D01*
X88733334Y-76811190D01*
X88780953Y-76835000D01*
X88804763Y-76858810D01*
X88828572Y-76906429D01*
X88828572Y-76954048D01*
X88804763Y-77025476D01*
X88519049Y-77311190D01*
X88828572Y-77311190D01*
X89138096Y-76811190D02*
X89185715Y-76811190D01*
X89233334Y-76835000D01*
X89257143Y-76858810D01*
X89280953Y-76906429D01*
X89304762Y-77001667D01*
X89304762Y-77120714D01*
X89280953Y-77215952D01*
X89257143Y-77263571D01*
X89233334Y-77287381D01*
X89185715Y-77311190D01*
X89138096Y-77311190D01*
X89090477Y-77287381D01*
X89066667Y-77263571D01*
X89042858Y-77215952D01*
X89019048Y-77120714D01*
X89019048Y-77001667D01*
X89042858Y-76906429D01*
X89066667Y-76858810D01*
X89090477Y-76835000D01*
X89138096Y-76811190D01*
X89780952Y-77311190D02*
X89495238Y-77311190D01*
X89638095Y-77311190D02*
X89638095Y-76811190D01*
X89590476Y-76882619D01*
X89542857Y-76930238D01*
X89495238Y-76954048D01*
X161766286Y-88558571D02*
X161790095Y-88487142D01*
X161813905Y-88463333D01*
X161861524Y-88439523D01*
X161932952Y-88439523D01*
X161980571Y-88463333D01*
X162004381Y-88487142D01*
X162028190Y-88534761D01*
X162028190Y-88725237D01*
X161528190Y-88725237D01*
X161528190Y-88558571D01*
X161552000Y-88510952D01*
X161575810Y-88487142D01*
X161623429Y-88463333D01*
X161671048Y-88463333D01*
X161718667Y-88487142D01*
X161742476Y-88510952D01*
X161766286Y-88558571D01*
X161766286Y-88725237D01*
X161980571Y-87939523D02*
X162004381Y-87963333D01*
X162028190Y-88034761D01*
X162028190Y-88082380D01*
X162004381Y-88153809D01*
X161956762Y-88201428D01*
X161909143Y-88225237D01*
X161813905Y-88249047D01*
X161742476Y-88249047D01*
X161647238Y-88225237D01*
X161599619Y-88201428D01*
X161552000Y-88153809D01*
X161528190Y-88082380D01*
X161528190Y-88034761D01*
X161552000Y-87963333D01*
X161575810Y-87939523D01*
X161528190Y-87487142D02*
X161528190Y-87725237D01*
X161766286Y-87749047D01*
X161742476Y-87725237D01*
X161718667Y-87677618D01*
X161718667Y-87558571D01*
X161742476Y-87510952D01*
X161766286Y-87487142D01*
X161813905Y-87463333D01*
X161932952Y-87463333D01*
X161980571Y-87487142D01*
X162004381Y-87510952D01*
X162028190Y-87558571D01*
X162028190Y-87677618D01*
X162004381Y-87725237D01*
X161980571Y-87749047D01*
X161694857Y-87034762D02*
X162028190Y-87034762D01*
X161504381Y-87153809D02*
X161861524Y-87272857D01*
X161861524Y-86963333D01*
X161528190Y-86558572D02*
X161528190Y-86653810D01*
X161552000Y-86701429D01*
X161575810Y-86725238D01*
X161647238Y-86772857D01*
X161742476Y-86796667D01*
X161932952Y-86796667D01*
X161980571Y-86772857D01*
X162004381Y-86749048D01*
X162028190Y-86701429D01*
X162028190Y-86606191D01*
X162004381Y-86558572D01*
X161980571Y-86534762D01*
X161932952Y-86510953D01*
X161813905Y-86510953D01*
X161766286Y-86534762D01*
X161742476Y-86558572D01*
X161718667Y-86606191D01*
X161718667Y-86701429D01*
X161742476Y-86749048D01*
X161766286Y-86772857D01*
X161813905Y-86796667D01*
X168425810Y-88153809D02*
X168402000Y-88201428D01*
X168354381Y-88249047D01*
X168282952Y-88320476D01*
X168259143Y-88368095D01*
X168259143Y-88415714D01*
X168378190Y-88391904D02*
X168354381Y-88439523D01*
X168306762Y-88487142D01*
X168211524Y-88510952D01*
X168044857Y-88510952D01*
X167949619Y-88487142D01*
X167902000Y-88439523D01*
X167878190Y-88391904D01*
X167878190Y-88296666D01*
X167902000Y-88249047D01*
X167949619Y-88201428D01*
X168044857Y-88177619D01*
X168211524Y-88177619D01*
X168306762Y-88201428D01*
X168354381Y-88249047D01*
X168378190Y-88296666D01*
X168378190Y-88391904D01*
X167878190Y-88010951D02*
X167878190Y-87701428D01*
X168068667Y-87868094D01*
X168068667Y-87796666D01*
X168092476Y-87749047D01*
X168116286Y-87725237D01*
X168163905Y-87701428D01*
X168282952Y-87701428D01*
X168330571Y-87725237D01*
X168354381Y-87749047D01*
X168378190Y-87796666D01*
X168378190Y-87939523D01*
X168354381Y-87987142D01*
X168330571Y-88010951D01*
X167878190Y-87391904D02*
X167878190Y-87344285D01*
X167902000Y-87296666D01*
X167925810Y-87272857D01*
X167973429Y-87249047D01*
X168068667Y-87225238D01*
X168187714Y-87225238D01*
X168282952Y-87249047D01*
X168330571Y-87272857D01*
X168354381Y-87296666D01*
X168378190Y-87344285D01*
X168378190Y-87391904D01*
X168354381Y-87439523D01*
X168330571Y-87463333D01*
X168282952Y-87487142D01*
X168187714Y-87510952D01*
X168068667Y-87510952D01*
X167973429Y-87487142D01*
X167925810Y-87463333D01*
X167902000Y-87439523D01*
X167878190Y-87391904D01*
X168378190Y-86749048D02*
X168378190Y-87034762D01*
X168378190Y-86891905D02*
X167878190Y-86891905D01*
X167949619Y-86939524D01*
X167997238Y-86987143D01*
X168021048Y-87034762D01*
X182213286Y-96686571D02*
X182237095Y-96615142D01*
X182260905Y-96591333D01*
X182308524Y-96567523D01*
X182379952Y-96567523D01*
X182427571Y-96591333D01*
X182451381Y-96615142D01*
X182475190Y-96662761D01*
X182475190Y-96853237D01*
X181975190Y-96853237D01*
X181975190Y-96686571D01*
X181999000Y-96638952D01*
X182022810Y-96615142D01*
X182070429Y-96591333D01*
X182118048Y-96591333D01*
X182165667Y-96615142D01*
X182189476Y-96638952D01*
X182213286Y-96686571D01*
X182213286Y-96853237D01*
X182427571Y-96067523D02*
X182451381Y-96091333D01*
X182475190Y-96162761D01*
X182475190Y-96210380D01*
X182451381Y-96281809D01*
X182403762Y-96329428D01*
X182356143Y-96353237D01*
X182260905Y-96377047D01*
X182189476Y-96377047D01*
X182094238Y-96353237D01*
X182046619Y-96329428D01*
X181999000Y-96281809D01*
X181975190Y-96210380D01*
X181975190Y-96162761D01*
X181999000Y-96091333D01*
X182022810Y-96067523D01*
X181975190Y-95615142D02*
X181975190Y-95853237D01*
X182213286Y-95877047D01*
X182189476Y-95853237D01*
X182165667Y-95805618D01*
X182165667Y-95686571D01*
X182189476Y-95638952D01*
X182213286Y-95615142D01*
X182260905Y-95591333D01*
X182379952Y-95591333D01*
X182427571Y-95615142D01*
X182451381Y-95638952D01*
X182475190Y-95686571D01*
X182475190Y-95805618D01*
X182451381Y-95853237D01*
X182427571Y-95877047D01*
X182141857Y-95162762D02*
X182475190Y-95162762D01*
X181951381Y-95281809D02*
X182308524Y-95400857D01*
X182308524Y-95091333D01*
X181975190Y-94686572D02*
X181975190Y-94781810D01*
X181999000Y-94829429D01*
X182022810Y-94853238D01*
X182094238Y-94900857D01*
X182189476Y-94924667D01*
X182379952Y-94924667D01*
X182427571Y-94900857D01*
X182451381Y-94877048D01*
X182475190Y-94829429D01*
X182475190Y-94734191D01*
X182451381Y-94686572D01*
X182427571Y-94662762D01*
X182379952Y-94638953D01*
X182260905Y-94638953D01*
X182213286Y-94662762D01*
X182189476Y-94686572D01*
X182165667Y-94734191D01*
X182165667Y-94829429D01*
X182189476Y-94877048D01*
X182213286Y-94900857D01*
X182260905Y-94924667D01*
X182772810Y-96281809D02*
X182749000Y-96329428D01*
X182701381Y-96377047D01*
X182629952Y-96448476D01*
X182606143Y-96496095D01*
X182606143Y-96543714D01*
X182725190Y-96519904D02*
X182701381Y-96567523D01*
X182653762Y-96615142D01*
X182558524Y-96638952D01*
X182391857Y-96638952D01*
X182296619Y-96615142D01*
X182249000Y-96567523D01*
X182225190Y-96519904D01*
X182225190Y-96424666D01*
X182249000Y-96377047D01*
X182296619Y-96329428D01*
X182391857Y-96305619D01*
X182558524Y-96305619D01*
X182653762Y-96329428D01*
X182701381Y-96377047D01*
X182725190Y-96424666D01*
X182725190Y-96519904D01*
X182225190Y-96138951D02*
X182225190Y-95829428D01*
X182415667Y-95996094D01*
X182415667Y-95924666D01*
X182439476Y-95877047D01*
X182463286Y-95853237D01*
X182510905Y-95829428D01*
X182629952Y-95829428D01*
X182677571Y-95853237D01*
X182701381Y-95877047D01*
X182725190Y-95924666D01*
X182725190Y-96067523D01*
X182701381Y-96115142D01*
X182677571Y-96138951D01*
X182225190Y-95519904D02*
X182225190Y-95472285D01*
X182249000Y-95424666D01*
X182272810Y-95400857D01*
X182320429Y-95377047D01*
X182415667Y-95353238D01*
X182534714Y-95353238D01*
X182629952Y-95377047D01*
X182677571Y-95400857D01*
X182701381Y-95424666D01*
X182725190Y-95472285D01*
X182725190Y-95519904D01*
X182701381Y-95567523D01*
X182677571Y-95591333D01*
X182629952Y-95615142D01*
X182534714Y-95638952D01*
X182415667Y-95638952D01*
X182320429Y-95615142D01*
X182272810Y-95591333D01*
X182249000Y-95567523D01*
X182225190Y-95519904D01*
X182272810Y-95162762D02*
X182249000Y-95138952D01*
X182225190Y-95091333D01*
X182225190Y-94972286D01*
X182249000Y-94924667D01*
X182272810Y-94900857D01*
X182320429Y-94877048D01*
X182368048Y-94877048D01*
X182439476Y-94900857D01*
X182725190Y-95186571D01*
X182725190Y-94877048D01*
X191611286Y-96686571D02*
X191635095Y-96615142D01*
X191658905Y-96591333D01*
X191706524Y-96567523D01*
X191777952Y-96567523D01*
X191825571Y-96591333D01*
X191849381Y-96615142D01*
X191873190Y-96662761D01*
X191873190Y-96853237D01*
X191373190Y-96853237D01*
X191373190Y-96686571D01*
X191397000Y-96638952D01*
X191420810Y-96615142D01*
X191468429Y-96591333D01*
X191516048Y-96591333D01*
X191563667Y-96615142D01*
X191587476Y-96638952D01*
X191611286Y-96686571D01*
X191611286Y-96853237D01*
X191825571Y-96067523D02*
X191849381Y-96091333D01*
X191873190Y-96162761D01*
X191873190Y-96210380D01*
X191849381Y-96281809D01*
X191801762Y-96329428D01*
X191754143Y-96353237D01*
X191658905Y-96377047D01*
X191587476Y-96377047D01*
X191492238Y-96353237D01*
X191444619Y-96329428D01*
X191397000Y-96281809D01*
X191373190Y-96210380D01*
X191373190Y-96162761D01*
X191397000Y-96091333D01*
X191420810Y-96067523D01*
X191373190Y-95615142D02*
X191373190Y-95853237D01*
X191611286Y-95877047D01*
X191587476Y-95853237D01*
X191563667Y-95805618D01*
X191563667Y-95686571D01*
X191587476Y-95638952D01*
X191611286Y-95615142D01*
X191658905Y-95591333D01*
X191777952Y-95591333D01*
X191825571Y-95615142D01*
X191849381Y-95638952D01*
X191873190Y-95686571D01*
X191873190Y-95805618D01*
X191849381Y-95853237D01*
X191825571Y-95877047D01*
X191539857Y-95162762D02*
X191873190Y-95162762D01*
X191349381Y-95281809D02*
X191706524Y-95400857D01*
X191706524Y-95091333D01*
X191373190Y-94686572D02*
X191373190Y-94781810D01*
X191397000Y-94829429D01*
X191420810Y-94853238D01*
X191492238Y-94900857D01*
X191587476Y-94924667D01*
X191777952Y-94924667D01*
X191825571Y-94900857D01*
X191849381Y-94877048D01*
X191873190Y-94829429D01*
X191873190Y-94734191D01*
X191849381Y-94686572D01*
X191825571Y-94662762D01*
X191777952Y-94638953D01*
X191658905Y-94638953D01*
X191611286Y-94662762D01*
X191587476Y-94686572D01*
X191563667Y-94734191D01*
X191563667Y-94829429D01*
X191587476Y-94877048D01*
X191611286Y-94900857D01*
X191658905Y-94924667D01*
X198270810Y-96281809D02*
X198247000Y-96329428D01*
X198199381Y-96377047D01*
X198127952Y-96448476D01*
X198104143Y-96496095D01*
X198104143Y-96543714D01*
X198223190Y-96519904D02*
X198199381Y-96567523D01*
X198151762Y-96615142D01*
X198056524Y-96638952D01*
X197889857Y-96638952D01*
X197794619Y-96615142D01*
X197747000Y-96567523D01*
X197723190Y-96519904D01*
X197723190Y-96424666D01*
X197747000Y-96377047D01*
X197794619Y-96329428D01*
X197889857Y-96305619D01*
X198056524Y-96305619D01*
X198151762Y-96329428D01*
X198199381Y-96377047D01*
X198223190Y-96424666D01*
X198223190Y-96519904D01*
X197723190Y-96138951D02*
X197723190Y-95829428D01*
X197913667Y-95996094D01*
X197913667Y-95924666D01*
X197937476Y-95877047D01*
X197961286Y-95853237D01*
X198008905Y-95829428D01*
X198127952Y-95829428D01*
X198175571Y-95853237D01*
X198199381Y-95877047D01*
X198223190Y-95924666D01*
X198223190Y-96067523D01*
X198199381Y-96115142D01*
X198175571Y-96138951D01*
X197723190Y-95519904D02*
X197723190Y-95472285D01*
X197747000Y-95424666D01*
X197770810Y-95400857D01*
X197818429Y-95377047D01*
X197913667Y-95353238D01*
X198032714Y-95353238D01*
X198127952Y-95377047D01*
X198175571Y-95400857D01*
X198199381Y-95424666D01*
X198223190Y-95472285D01*
X198223190Y-95519904D01*
X198199381Y-95567523D01*
X198175571Y-95591333D01*
X198127952Y-95615142D01*
X198032714Y-95638952D01*
X197913667Y-95638952D01*
X197818429Y-95615142D01*
X197770810Y-95591333D01*
X197747000Y-95567523D01*
X197723190Y-95519904D01*
X197723190Y-95186571D02*
X197723190Y-94877048D01*
X197913667Y-95043714D01*
X197913667Y-94972286D01*
X197937476Y-94924667D01*
X197961286Y-94900857D01*
X198008905Y-94877048D01*
X198127952Y-94877048D01*
X198175571Y-94900857D01*
X198199381Y-94924667D01*
X198223190Y-94972286D01*
X198223190Y-95115143D01*
X198199381Y-95162762D01*
X198175571Y-95186571D01*
X161766286Y-100623571D02*
X161790095Y-100552142D01*
X161813905Y-100528333D01*
X161861524Y-100504523D01*
X161932952Y-100504523D01*
X161980571Y-100528333D01*
X162004381Y-100552142D01*
X162028190Y-100599761D01*
X162028190Y-100790237D01*
X161528190Y-100790237D01*
X161528190Y-100623571D01*
X161552000Y-100575952D01*
X161575810Y-100552142D01*
X161623429Y-100528333D01*
X161671048Y-100528333D01*
X161718667Y-100552142D01*
X161742476Y-100575952D01*
X161766286Y-100623571D01*
X161766286Y-100790237D01*
X161980571Y-100004523D02*
X162004381Y-100028333D01*
X162028190Y-100099761D01*
X162028190Y-100147380D01*
X162004381Y-100218809D01*
X161956762Y-100266428D01*
X161909143Y-100290237D01*
X161813905Y-100314047D01*
X161742476Y-100314047D01*
X161647238Y-100290237D01*
X161599619Y-100266428D01*
X161552000Y-100218809D01*
X161528190Y-100147380D01*
X161528190Y-100099761D01*
X161552000Y-100028333D01*
X161575810Y-100004523D01*
X161528190Y-99552142D02*
X161528190Y-99790237D01*
X161766286Y-99814047D01*
X161742476Y-99790237D01*
X161718667Y-99742618D01*
X161718667Y-99623571D01*
X161742476Y-99575952D01*
X161766286Y-99552142D01*
X161813905Y-99528333D01*
X161932952Y-99528333D01*
X161980571Y-99552142D01*
X162004381Y-99575952D01*
X162028190Y-99623571D01*
X162028190Y-99742618D01*
X162004381Y-99790237D01*
X161980571Y-99814047D01*
X161528190Y-99075952D02*
X161528190Y-99314047D01*
X161766286Y-99337857D01*
X161742476Y-99314047D01*
X161718667Y-99266428D01*
X161718667Y-99147381D01*
X161742476Y-99099762D01*
X161766286Y-99075952D01*
X161813905Y-99052143D01*
X161932952Y-99052143D01*
X161980571Y-99075952D01*
X162004381Y-99099762D01*
X162028190Y-99147381D01*
X162028190Y-99266428D01*
X162004381Y-99314047D01*
X161980571Y-99337857D01*
X161528190Y-98623572D02*
X161528190Y-98718810D01*
X161552000Y-98766429D01*
X161575810Y-98790238D01*
X161647238Y-98837857D01*
X161742476Y-98861667D01*
X161932952Y-98861667D01*
X161980571Y-98837857D01*
X162004381Y-98814048D01*
X162028190Y-98766429D01*
X162028190Y-98671191D01*
X162004381Y-98623572D01*
X161980571Y-98599762D01*
X161932952Y-98575953D01*
X161813905Y-98575953D01*
X161766286Y-98599762D01*
X161742476Y-98623572D01*
X161718667Y-98671191D01*
X161718667Y-98766429D01*
X161742476Y-98814048D01*
X161766286Y-98837857D01*
X161813905Y-98861667D01*
X168425810Y-100218809D02*
X168402000Y-100266428D01*
X168354381Y-100314047D01*
X168282952Y-100385476D01*
X168259143Y-100433095D01*
X168259143Y-100480714D01*
X168378190Y-100456904D02*
X168354381Y-100504523D01*
X168306762Y-100552142D01*
X168211524Y-100575952D01*
X168044857Y-100575952D01*
X167949619Y-100552142D01*
X167902000Y-100504523D01*
X167878190Y-100456904D01*
X167878190Y-100361666D01*
X167902000Y-100314047D01*
X167949619Y-100266428D01*
X168044857Y-100242619D01*
X168211524Y-100242619D01*
X168306762Y-100266428D01*
X168354381Y-100314047D01*
X168378190Y-100361666D01*
X168378190Y-100456904D01*
X167878190Y-100075951D02*
X167878190Y-99766428D01*
X168068667Y-99933094D01*
X168068667Y-99861666D01*
X168092476Y-99814047D01*
X168116286Y-99790237D01*
X168163905Y-99766428D01*
X168282952Y-99766428D01*
X168330571Y-99790237D01*
X168354381Y-99814047D01*
X168378190Y-99861666D01*
X168378190Y-100004523D01*
X168354381Y-100052142D01*
X168330571Y-100075951D01*
X167878190Y-99456904D02*
X167878190Y-99409285D01*
X167902000Y-99361666D01*
X167925810Y-99337857D01*
X167973429Y-99314047D01*
X168068667Y-99290238D01*
X168187714Y-99290238D01*
X168282952Y-99314047D01*
X168330571Y-99337857D01*
X168354381Y-99361666D01*
X168378190Y-99409285D01*
X168378190Y-99456904D01*
X168354381Y-99504523D01*
X168330571Y-99528333D01*
X168282952Y-99552142D01*
X168187714Y-99575952D01*
X168068667Y-99575952D01*
X167973429Y-99552142D01*
X167925810Y-99528333D01*
X167902000Y-99504523D01*
X167878190Y-99456904D01*
X168044857Y-98861667D02*
X168378190Y-98861667D01*
X167854381Y-98980714D02*
X168211524Y-99099762D01*
X168211524Y-98790238D01*
X84895620Y-87640190D02*
X84800382Y-87640190D01*
X84752763Y-87664000D01*
X84728954Y-87687810D01*
X84681335Y-87759238D01*
X84657525Y-87854476D01*
X84657525Y-88044952D01*
X84681335Y-88092571D01*
X84705144Y-88116381D01*
X84752763Y-88140190D01*
X84848001Y-88140190D01*
X84895620Y-88116381D01*
X84919430Y-88092571D01*
X84943239Y-88044952D01*
X84943239Y-87925905D01*
X84919430Y-87878286D01*
X84895620Y-87854476D01*
X84848001Y-87830667D01*
X84752763Y-87830667D01*
X84705144Y-87854476D01*
X84681335Y-87878286D01*
X84657525Y-87925905D01*
X85157525Y-88092571D02*
X85181334Y-88116381D01*
X85157525Y-88140190D01*
X85133715Y-88116381D01*
X85157525Y-88092571D01*
X85157525Y-88140190D01*
X85348001Y-87640190D02*
X85657524Y-87640190D01*
X85490858Y-87830667D01*
X85562286Y-87830667D01*
X85609905Y-87854476D01*
X85633715Y-87878286D01*
X85657524Y-87925905D01*
X85657524Y-88044952D01*
X85633715Y-88092571D01*
X85609905Y-88116381D01*
X85562286Y-88140190D01*
X85419429Y-88140190D01*
X85371810Y-88116381D01*
X85348001Y-88092571D01*
X86086095Y-87806857D02*
X86086095Y-88140190D01*
X85967048Y-87616381D02*
X85848000Y-87973524D01*
X86157524Y-87973524D01*
X86348000Y-88140190D02*
X86348000Y-87640190D01*
X86395619Y-87949714D02*
X86538476Y-88140190D01*
X86538476Y-87806857D02*
X86348000Y-87997333D01*
X84681190Y-86919523D02*
X84443095Y-87086190D01*
X84681190Y-87205237D02*
X84181190Y-87205237D01*
X84181190Y-87014761D01*
X84205000Y-86967142D01*
X84228810Y-86943333D01*
X84276429Y-86919523D01*
X84347857Y-86919523D01*
X84395476Y-86943333D01*
X84419286Y-86967142D01*
X84443095Y-87014761D01*
X84443095Y-87205237D01*
X84228810Y-86729047D02*
X84205000Y-86705237D01*
X84181190Y-86657618D01*
X84181190Y-86538571D01*
X84205000Y-86490952D01*
X84228810Y-86467142D01*
X84276429Y-86443333D01*
X84324048Y-86443333D01*
X84395476Y-86467142D01*
X84681190Y-86752856D01*
X84681190Y-86443333D01*
X84181190Y-86133809D02*
X84181190Y-86086190D01*
X84205000Y-86038571D01*
X84228810Y-86014762D01*
X84276429Y-85990952D01*
X84371667Y-85967143D01*
X84490714Y-85967143D01*
X84585952Y-85990952D01*
X84633571Y-86014762D01*
X84657381Y-86038571D01*
X84681190Y-86086190D01*
X84681190Y-86133809D01*
X84657381Y-86181428D01*
X84633571Y-86205238D01*
X84585952Y-86229047D01*
X84490714Y-86252857D01*
X84371667Y-86252857D01*
X84276429Y-86229047D01*
X84228810Y-86205238D01*
X84205000Y-86181428D01*
X84181190Y-86133809D01*
X84681190Y-85490953D02*
X84681190Y-85776667D01*
X84681190Y-85633810D02*
X84181190Y-85633810D01*
X84252619Y-85681429D01*
X84300238Y-85729048D01*
X84324048Y-85776667D01*
X90286857Y-99778285D02*
X90620190Y-99778285D01*
X90096381Y-99897332D02*
X90453524Y-100016380D01*
X90453524Y-99706856D01*
X90572571Y-99516380D02*
X90596381Y-99492571D01*
X90620190Y-99516380D01*
X90596381Y-99540190D01*
X90572571Y-99516380D01*
X90620190Y-99516380D01*
X90120190Y-99325904D02*
X90120190Y-98992571D01*
X90620190Y-99206857D01*
X90620190Y-98802095D02*
X90120190Y-98802095D01*
X90429714Y-98754476D02*
X90620190Y-98611619D01*
X90286857Y-98611619D02*
X90477333Y-98802095D01*
X91007477Y-98270190D02*
X90840810Y-98032095D01*
X90721763Y-98270190D02*
X90721763Y-97770190D01*
X90912239Y-97770190D01*
X90959858Y-97794000D01*
X90983667Y-97817810D01*
X91007477Y-97865429D01*
X91007477Y-97936857D01*
X90983667Y-97984476D01*
X90959858Y-98008286D01*
X90912239Y-98032095D01*
X90721763Y-98032095D01*
X91197953Y-97817810D02*
X91221763Y-97794000D01*
X91269382Y-97770190D01*
X91388429Y-97770190D01*
X91436048Y-97794000D01*
X91459858Y-97817810D01*
X91483667Y-97865429D01*
X91483667Y-97913048D01*
X91459858Y-97984476D01*
X91174144Y-98270190D01*
X91483667Y-98270190D01*
X91793191Y-97770190D02*
X91840810Y-97770190D01*
X91888429Y-97794000D01*
X91912238Y-97817810D01*
X91936048Y-97865429D01*
X91959857Y-97960667D01*
X91959857Y-98079714D01*
X91936048Y-98174952D01*
X91912238Y-98222571D01*
X91888429Y-98246381D01*
X91840810Y-98270190D01*
X91793191Y-98270190D01*
X91745572Y-98246381D01*
X91721762Y-98222571D01*
X91697953Y-98174952D01*
X91674143Y-98079714D01*
X91674143Y-97960667D01*
X91697953Y-97865429D01*
X91721762Y-97817810D01*
X91745572Y-97794000D01*
X91793191Y-97770190D01*
X92150333Y-97817810D02*
X92174143Y-97794000D01*
X92221762Y-97770190D01*
X92340809Y-97770190D01*
X92388428Y-97794000D01*
X92412238Y-97817810D01*
X92436047Y-97865429D01*
X92436047Y-97913048D01*
X92412238Y-97984476D01*
X92126524Y-98270190D01*
X92436047Y-98270190D01*
X88070620Y-87640190D02*
X87975382Y-87640190D01*
X87927763Y-87664000D01*
X87903954Y-87687810D01*
X87856335Y-87759238D01*
X87832525Y-87854476D01*
X87832525Y-88044952D01*
X87856335Y-88092571D01*
X87880144Y-88116381D01*
X87927763Y-88140190D01*
X88023001Y-88140190D01*
X88070620Y-88116381D01*
X88094430Y-88092571D01*
X88118239Y-88044952D01*
X88118239Y-87925905D01*
X88094430Y-87878286D01*
X88070620Y-87854476D01*
X88023001Y-87830667D01*
X87927763Y-87830667D01*
X87880144Y-87854476D01*
X87856335Y-87878286D01*
X87832525Y-87925905D01*
X88332525Y-88092571D02*
X88356334Y-88116381D01*
X88332525Y-88140190D01*
X88308715Y-88116381D01*
X88332525Y-88092571D01*
X88332525Y-88140190D01*
X88523001Y-87640190D02*
X88832524Y-87640190D01*
X88665858Y-87830667D01*
X88737286Y-87830667D01*
X88784905Y-87854476D01*
X88808715Y-87878286D01*
X88832524Y-87925905D01*
X88832524Y-88044952D01*
X88808715Y-88092571D01*
X88784905Y-88116381D01*
X88737286Y-88140190D01*
X88594429Y-88140190D01*
X88546810Y-88116381D01*
X88523001Y-88092571D01*
X89261095Y-87806857D02*
X89261095Y-88140190D01*
X89142048Y-87616381D02*
X89023000Y-87973524D01*
X89332524Y-87973524D01*
X89523000Y-88140190D02*
X89523000Y-87640190D01*
X89570619Y-87949714D02*
X89713476Y-88140190D01*
X89713476Y-87806857D02*
X89523000Y-87997333D01*
X90118477Y-86967190D02*
X89951810Y-86729095D01*
X89832763Y-86967190D02*
X89832763Y-86467190D01*
X90023239Y-86467190D01*
X90070858Y-86491000D01*
X90094667Y-86514810D01*
X90118477Y-86562429D01*
X90118477Y-86633857D01*
X90094667Y-86681476D01*
X90070858Y-86705286D01*
X90023239Y-86729095D01*
X89832763Y-86729095D01*
X90308953Y-86514810D02*
X90332763Y-86491000D01*
X90380382Y-86467190D01*
X90499429Y-86467190D01*
X90547048Y-86491000D01*
X90570858Y-86514810D01*
X90594667Y-86562429D01*
X90594667Y-86610048D01*
X90570858Y-86681476D01*
X90285144Y-86967190D01*
X90594667Y-86967190D01*
X90904191Y-86467190D02*
X90951810Y-86467190D01*
X90999429Y-86491000D01*
X91023238Y-86514810D01*
X91047048Y-86562429D01*
X91070857Y-86657667D01*
X91070857Y-86776714D01*
X91047048Y-86871952D01*
X91023238Y-86919571D01*
X90999429Y-86943381D01*
X90951810Y-86967190D01*
X90904191Y-86967190D01*
X90856572Y-86943381D01*
X90832762Y-86919571D01*
X90808953Y-86871952D01*
X90785143Y-86776714D01*
X90785143Y-86657667D01*
X90808953Y-86562429D01*
X90832762Y-86514810D01*
X90856572Y-86491000D01*
X90904191Y-86467190D01*
X91237524Y-86467190D02*
X91547047Y-86467190D01*
X91380381Y-86657667D01*
X91451809Y-86657667D01*
X91499428Y-86681476D01*
X91523238Y-86705286D01*
X91547047Y-86752905D01*
X91547047Y-86871952D01*
X91523238Y-86919571D01*
X91499428Y-86943381D01*
X91451809Y-86967190D01*
X91308952Y-86967190D01*
X91261333Y-86943381D01*
X91237524Y-86919571D01*
X94023715Y-105780857D02*
X94023715Y-106114190D01*
X93904668Y-105590381D02*
X93785620Y-105947524D01*
X94095144Y-105947524D01*
X94285620Y-106066571D02*
X94309429Y-106090381D01*
X94285620Y-106114190D01*
X94261810Y-106090381D01*
X94285620Y-106066571D01*
X94285620Y-106114190D01*
X94476096Y-105614190D02*
X94809429Y-105614190D01*
X94595143Y-106114190D01*
X94999905Y-106114190D02*
X94999905Y-105614190D01*
X95047524Y-105923714D02*
X95190381Y-106114190D01*
X95190381Y-105780857D02*
X94999905Y-105971333D01*
X94055477Y-108430190D02*
X93888810Y-108192095D01*
X93769763Y-108430190D02*
X93769763Y-107930190D01*
X93960239Y-107930190D01*
X94007858Y-107954000D01*
X94031667Y-107977810D01*
X94055477Y-108025429D01*
X94055477Y-108096857D01*
X94031667Y-108144476D01*
X94007858Y-108168286D01*
X93960239Y-108192095D01*
X93769763Y-108192095D01*
X94245953Y-107977810D02*
X94269763Y-107954000D01*
X94317382Y-107930190D01*
X94436429Y-107930190D01*
X94484048Y-107954000D01*
X94507858Y-107977810D01*
X94531667Y-108025429D01*
X94531667Y-108073048D01*
X94507858Y-108144476D01*
X94222144Y-108430190D01*
X94531667Y-108430190D01*
X94841191Y-107930190D02*
X94888810Y-107930190D01*
X94936429Y-107954000D01*
X94960238Y-107977810D01*
X94984048Y-108025429D01*
X95007857Y-108120667D01*
X95007857Y-108239714D01*
X94984048Y-108334952D01*
X94960238Y-108382571D01*
X94936429Y-108406381D01*
X94888810Y-108430190D01*
X94841191Y-108430190D01*
X94793572Y-108406381D01*
X94769762Y-108382571D01*
X94745953Y-108334952D01*
X94722143Y-108239714D01*
X94722143Y-108120667D01*
X94745953Y-108025429D01*
X94769762Y-107977810D01*
X94793572Y-107954000D01*
X94841191Y-107930190D01*
X95436428Y-108096857D02*
X95436428Y-108430190D01*
X95317381Y-107906381D02*
X95198333Y-108263524D01*
X95507857Y-108263524D01*
X150538715Y-84377857D02*
X150538715Y-84711190D01*
X150419668Y-84187381D02*
X150300620Y-84544524D01*
X150610144Y-84544524D01*
X150800620Y-84663571D02*
X150824429Y-84687381D01*
X150800620Y-84711190D01*
X150776810Y-84687381D01*
X150800620Y-84663571D01*
X150800620Y-84711190D01*
X150991096Y-84211190D02*
X151324429Y-84211190D01*
X151110143Y-84711190D01*
X151514905Y-84711190D02*
X151514905Y-84211190D01*
X151562524Y-84520714D02*
X151705381Y-84711190D01*
X151705381Y-84377857D02*
X151514905Y-84568333D01*
X150443477Y-82161190D02*
X150276810Y-81923095D01*
X150157763Y-82161190D02*
X150157763Y-81661190D01*
X150348239Y-81661190D01*
X150395858Y-81685000D01*
X150419667Y-81708810D01*
X150443477Y-81756429D01*
X150443477Y-81827857D01*
X150419667Y-81875476D01*
X150395858Y-81899286D01*
X150348239Y-81923095D01*
X150157763Y-81923095D01*
X150610144Y-81661190D02*
X150919667Y-81661190D01*
X150753001Y-81851667D01*
X150824429Y-81851667D01*
X150872048Y-81875476D01*
X150895858Y-81899286D01*
X150919667Y-81946905D01*
X150919667Y-82065952D01*
X150895858Y-82113571D01*
X150872048Y-82137381D01*
X150824429Y-82161190D01*
X150681572Y-82161190D01*
X150633953Y-82137381D01*
X150610144Y-82113571D01*
X151229191Y-81661190D02*
X151276810Y-81661190D01*
X151324429Y-81685000D01*
X151348238Y-81708810D01*
X151372048Y-81756429D01*
X151395857Y-81851667D01*
X151395857Y-81970714D01*
X151372048Y-82065952D01*
X151348238Y-82113571D01*
X151324429Y-82137381D01*
X151276810Y-82161190D01*
X151229191Y-82161190D01*
X151181572Y-82137381D01*
X151157762Y-82113571D01*
X151133953Y-82065952D01*
X151110143Y-81970714D01*
X151110143Y-81851667D01*
X151133953Y-81756429D01*
X151157762Y-81708810D01*
X151181572Y-81685000D01*
X151229191Y-81661190D01*
X151872047Y-82161190D02*
X151586333Y-82161190D01*
X151729190Y-82161190D02*
X151729190Y-81661190D01*
X151681571Y-81732619D01*
X151633952Y-81780238D01*
X151586333Y-81804048D01*
X159849381Y-89406190D02*
X159563667Y-89406190D01*
X159706524Y-89406190D02*
X159706524Y-88906190D01*
X159658905Y-88977619D01*
X159611286Y-89025238D01*
X159563667Y-89049048D01*
X160158905Y-88906190D02*
X160206524Y-88906190D01*
X160254143Y-88930000D01*
X160277952Y-88953810D01*
X160301762Y-89001429D01*
X160325571Y-89096667D01*
X160325571Y-89215714D01*
X160301762Y-89310952D01*
X160277952Y-89358571D01*
X160254143Y-89382381D01*
X160206524Y-89406190D01*
X160158905Y-89406190D01*
X160111286Y-89382381D01*
X160087476Y-89358571D01*
X160063667Y-89310952D01*
X160039857Y-89215714D01*
X160039857Y-89096667D01*
X160063667Y-89001429D01*
X160087476Y-88953810D01*
X160111286Y-88930000D01*
X160158905Y-88906190D01*
X160539857Y-89406190D02*
X160539857Y-88906190D01*
X160587476Y-89215714D02*
X160730333Y-89406190D01*
X160730333Y-89072857D02*
X160539857Y-89263333D01*
D12*
X159587477Y-87856190D02*
X159420810Y-87618095D01*
X159301763Y-87856190D02*
X159301763Y-87356190D01*
X159492239Y-87356190D01*
X159539858Y-87380000D01*
X159563667Y-87403810D01*
X159587477Y-87451429D01*
X159587477Y-87522857D01*
X159563667Y-87570476D01*
X159539858Y-87594286D01*
X159492239Y-87618095D01*
X159301763Y-87618095D01*
X159754144Y-87356190D02*
X160063667Y-87356190D01*
X159897001Y-87546667D01*
X159968429Y-87546667D01*
X160016048Y-87570476D01*
X160039858Y-87594286D01*
X160063667Y-87641905D01*
X160063667Y-87760952D01*
X160039858Y-87808571D01*
X160016048Y-87832381D01*
X159968429Y-87856190D01*
X159825572Y-87856190D01*
X159777953Y-87832381D01*
X159754144Y-87808571D01*
X160373191Y-87356190D02*
X160420810Y-87356190D01*
X160468429Y-87380000D01*
X160492238Y-87403810D01*
X160516048Y-87451429D01*
X160539857Y-87546667D01*
X160539857Y-87665714D01*
X160516048Y-87760952D01*
X160492238Y-87808571D01*
X160468429Y-87832381D01*
X160420810Y-87856190D01*
X160373191Y-87856190D01*
X160325572Y-87832381D01*
X160301762Y-87808571D01*
X160277953Y-87760952D01*
X160254143Y-87665714D01*
X160254143Y-87546667D01*
X160277953Y-87451429D01*
X160301762Y-87403810D01*
X160325572Y-87380000D01*
X160373191Y-87356190D01*
X160730333Y-87403810D02*
X160754143Y-87380000D01*
X160801762Y-87356190D01*
X160920809Y-87356190D01*
X160968428Y-87380000D01*
X160992238Y-87403810D01*
X161016047Y-87451429D01*
X161016047Y-87499048D01*
X160992238Y-87570476D01*
X160706524Y-87856190D01*
X161016047Y-87856190D01*
D10*
X186011381Y-89735190D02*
X185725667Y-89735190D01*
X185868524Y-89735190D02*
X185868524Y-89235190D01*
X185820905Y-89306619D01*
X185773286Y-89354238D01*
X185725667Y-89378048D01*
X186320905Y-89235190D02*
X186368524Y-89235190D01*
X186416143Y-89259000D01*
X186439952Y-89282810D01*
X186463762Y-89330429D01*
X186487571Y-89425667D01*
X186487571Y-89544714D01*
X186463762Y-89639952D01*
X186439952Y-89687571D01*
X186416143Y-89711381D01*
X186368524Y-89735190D01*
X186320905Y-89735190D01*
X186273286Y-89711381D01*
X186249476Y-89687571D01*
X186225667Y-89639952D01*
X186201857Y-89544714D01*
X186201857Y-89425667D01*
X186225667Y-89330429D01*
X186249476Y-89282810D01*
X186273286Y-89259000D01*
X186320905Y-89235190D01*
X186701857Y-89735190D02*
X186701857Y-89235190D01*
X186749476Y-89544714D02*
X186892333Y-89735190D01*
X186892333Y-89401857D02*
X186701857Y-89592333D01*
D12*
X185749477Y-90015190D02*
X185582810Y-89777095D01*
X185463763Y-90015190D02*
X185463763Y-89515190D01*
X185654239Y-89515190D01*
X185701858Y-89539000D01*
X185725667Y-89562810D01*
X185749477Y-89610429D01*
X185749477Y-89681857D01*
X185725667Y-89729476D01*
X185701858Y-89753286D01*
X185654239Y-89777095D01*
X185463763Y-89777095D01*
X185916144Y-89515190D02*
X186225667Y-89515190D01*
X186059001Y-89705667D01*
X186130429Y-89705667D01*
X186178048Y-89729476D01*
X186201858Y-89753286D01*
X186225667Y-89800905D01*
X186225667Y-89919952D01*
X186201858Y-89967571D01*
X186178048Y-89991381D01*
X186130429Y-90015190D01*
X185987572Y-90015190D01*
X185939953Y-89991381D01*
X185916144Y-89967571D01*
X186535191Y-89515190D02*
X186582810Y-89515190D01*
X186630429Y-89539000D01*
X186654238Y-89562810D01*
X186678048Y-89610429D01*
X186701857Y-89705667D01*
X186701857Y-89824714D01*
X186678048Y-89919952D01*
X186654238Y-89967571D01*
X186630429Y-89991381D01*
X186582810Y-90015190D01*
X186535191Y-90015190D01*
X186487572Y-89991381D01*
X186463762Y-89967571D01*
X186439953Y-89919952D01*
X186416143Y-89824714D01*
X186416143Y-89705667D01*
X186439953Y-89610429D01*
X186463762Y-89562810D01*
X186487572Y-89539000D01*
X186535191Y-89515190D01*
X186868524Y-89515190D02*
X187178047Y-89515190D01*
X187011381Y-89705667D01*
X187082809Y-89705667D01*
X187130428Y-89729476D01*
X187154238Y-89753286D01*
X187178047Y-89800905D01*
X187178047Y-89919952D01*
X187154238Y-89967571D01*
X187130428Y-89991381D01*
X187082809Y-90015190D01*
X186939952Y-90015190D01*
X186892333Y-89991381D01*
X186868524Y-89967571D01*
D10*
X195282381Y-89735190D02*
X194996667Y-89735190D01*
X195139524Y-89735190D02*
X195139524Y-89235190D01*
X195091905Y-89306619D01*
X195044286Y-89354238D01*
X194996667Y-89378048D01*
X195591905Y-89235190D02*
X195639524Y-89235190D01*
X195687143Y-89259000D01*
X195710952Y-89282810D01*
X195734762Y-89330429D01*
X195758571Y-89425667D01*
X195758571Y-89544714D01*
X195734762Y-89639952D01*
X195710952Y-89687571D01*
X195687143Y-89711381D01*
X195639524Y-89735190D01*
X195591905Y-89735190D01*
X195544286Y-89711381D01*
X195520476Y-89687571D01*
X195496667Y-89639952D01*
X195472857Y-89544714D01*
X195472857Y-89425667D01*
X195496667Y-89330429D01*
X195520476Y-89282810D01*
X195544286Y-89259000D01*
X195591905Y-89235190D01*
X195972857Y-89735190D02*
X195972857Y-89235190D01*
X196020476Y-89544714D02*
X196163333Y-89735190D01*
X196163333Y-89401857D02*
X195972857Y-89592333D01*
D12*
X195020477Y-90015190D02*
X194853810Y-89777095D01*
X194734763Y-90015190D02*
X194734763Y-89515190D01*
X194925239Y-89515190D01*
X194972858Y-89539000D01*
X194996667Y-89562810D01*
X195020477Y-89610429D01*
X195020477Y-89681857D01*
X194996667Y-89729476D01*
X194972858Y-89753286D01*
X194925239Y-89777095D01*
X194734763Y-89777095D01*
X195187144Y-89515190D02*
X195496667Y-89515190D01*
X195330001Y-89705667D01*
X195401429Y-89705667D01*
X195449048Y-89729476D01*
X195472858Y-89753286D01*
X195496667Y-89800905D01*
X195496667Y-89919952D01*
X195472858Y-89967571D01*
X195449048Y-89991381D01*
X195401429Y-90015190D01*
X195258572Y-90015190D01*
X195210953Y-89991381D01*
X195187144Y-89967571D01*
X195806191Y-89515190D02*
X195853810Y-89515190D01*
X195901429Y-89539000D01*
X195925238Y-89562810D01*
X195949048Y-89610429D01*
X195972857Y-89705667D01*
X195972857Y-89824714D01*
X195949048Y-89919952D01*
X195925238Y-89967571D01*
X195901429Y-89991381D01*
X195853810Y-90015190D01*
X195806191Y-90015190D01*
X195758572Y-89991381D01*
X195734762Y-89967571D01*
X195710953Y-89919952D01*
X195687143Y-89824714D01*
X195687143Y-89705667D01*
X195710953Y-89610429D01*
X195734762Y-89562810D01*
X195758572Y-89539000D01*
X195806191Y-89515190D01*
X196401428Y-89681857D02*
X196401428Y-90015190D01*
X196282381Y-89491381D02*
X196163333Y-89848524D01*
X196472857Y-89848524D01*
D10*
X182852286Y-81793690D02*
X182566572Y-81793690D01*
X182709429Y-81793690D02*
X182709429Y-81293690D01*
X182661810Y-81365119D01*
X182614191Y-81412738D01*
X182566572Y-81436548D01*
X183161810Y-81293690D02*
X183209429Y-81293690D01*
X183257048Y-81317500D01*
X183280857Y-81341310D01*
X183304667Y-81388929D01*
X183328476Y-81484167D01*
X183328476Y-81603214D01*
X183304667Y-81698452D01*
X183280857Y-81746071D01*
X183257048Y-81769881D01*
X183209429Y-81793690D01*
X183161810Y-81793690D01*
X183114191Y-81769881D01*
X183090381Y-81746071D01*
X183066572Y-81698452D01*
X183042762Y-81603214D01*
X183042762Y-81484167D01*
X183066572Y-81388929D01*
X183090381Y-81341310D01*
X183114191Y-81317500D01*
X183161810Y-81293690D01*
X183638000Y-81293690D02*
X183685619Y-81293690D01*
X183733238Y-81317500D01*
X183757047Y-81341310D01*
X183780857Y-81388929D01*
X183804666Y-81484167D01*
X183804666Y-81603214D01*
X183780857Y-81698452D01*
X183757047Y-81746071D01*
X183733238Y-81769881D01*
X183685619Y-81793690D01*
X183638000Y-81793690D01*
X183590381Y-81769881D01*
X183566571Y-81746071D01*
X183542762Y-81698452D01*
X183518952Y-81603214D01*
X183518952Y-81484167D01*
X183542762Y-81388929D01*
X183566571Y-81341310D01*
X183590381Y-81317500D01*
X183638000Y-81293690D01*
X184018952Y-81793690D02*
X184018952Y-81293690D01*
X184066571Y-81603214D02*
X184209428Y-81793690D01*
X184209428Y-81460357D02*
X184018952Y-81650833D01*
X182828477Y-84300190D02*
X182661810Y-84062095D01*
X182542763Y-84300190D02*
X182542763Y-83800190D01*
X182733239Y-83800190D01*
X182780858Y-83824000D01*
X182804667Y-83847810D01*
X182828477Y-83895429D01*
X182828477Y-83966857D01*
X182804667Y-84014476D01*
X182780858Y-84038286D01*
X182733239Y-84062095D01*
X182542763Y-84062095D01*
X182995144Y-83800190D02*
X183304667Y-83800190D01*
X183138001Y-83990667D01*
X183209429Y-83990667D01*
X183257048Y-84014476D01*
X183280858Y-84038286D01*
X183304667Y-84085905D01*
X183304667Y-84204952D01*
X183280858Y-84252571D01*
X183257048Y-84276381D01*
X183209429Y-84300190D01*
X183066572Y-84300190D01*
X183018953Y-84276381D01*
X182995144Y-84252571D01*
X183614191Y-83800190D02*
X183661810Y-83800190D01*
X183709429Y-83824000D01*
X183733238Y-83847810D01*
X183757048Y-83895429D01*
X183780857Y-83990667D01*
X183780857Y-84109714D01*
X183757048Y-84204952D01*
X183733238Y-84252571D01*
X183709429Y-84276381D01*
X183661810Y-84300190D01*
X183614191Y-84300190D01*
X183566572Y-84276381D01*
X183542762Y-84252571D01*
X183518953Y-84204952D01*
X183495143Y-84109714D01*
X183495143Y-83990667D01*
X183518953Y-83895429D01*
X183542762Y-83847810D01*
X183566572Y-83824000D01*
X183614191Y-83800190D01*
X184233238Y-83800190D02*
X183995143Y-83800190D01*
X183971333Y-84038286D01*
X183995143Y-84014476D01*
X184042762Y-83990667D01*
X184161809Y-83990667D01*
X184209428Y-84014476D01*
X184233238Y-84038286D01*
X184257047Y-84085905D01*
X184257047Y-84204952D01*
X184233238Y-84252571D01*
X184209428Y-84276381D01*
X184161809Y-84300190D01*
X184042762Y-84300190D01*
X183995143Y-84276381D01*
X183971333Y-84252571D01*
X189456286Y-96014190D02*
X189170572Y-96014190D01*
X189313429Y-96014190D02*
X189313429Y-95514190D01*
X189265810Y-95585619D01*
X189218191Y-95633238D01*
X189170572Y-95657048D01*
X189765810Y-95514190D02*
X189813429Y-95514190D01*
X189861048Y-95538000D01*
X189884857Y-95561810D01*
X189908667Y-95609429D01*
X189932476Y-95704667D01*
X189932476Y-95823714D01*
X189908667Y-95918952D01*
X189884857Y-95966571D01*
X189861048Y-95990381D01*
X189813429Y-96014190D01*
X189765810Y-96014190D01*
X189718191Y-95990381D01*
X189694381Y-95966571D01*
X189670572Y-95918952D01*
X189646762Y-95823714D01*
X189646762Y-95704667D01*
X189670572Y-95609429D01*
X189694381Y-95561810D01*
X189718191Y-95538000D01*
X189765810Y-95514190D01*
X190242000Y-95514190D02*
X190289619Y-95514190D01*
X190337238Y-95538000D01*
X190361047Y-95561810D01*
X190384857Y-95609429D01*
X190408666Y-95704667D01*
X190408666Y-95823714D01*
X190384857Y-95918952D01*
X190361047Y-95966571D01*
X190337238Y-95990381D01*
X190289619Y-96014190D01*
X190242000Y-96014190D01*
X190194381Y-95990381D01*
X190170571Y-95966571D01*
X190146762Y-95918952D01*
X190122952Y-95823714D01*
X190122952Y-95704667D01*
X190146762Y-95609429D01*
X190170571Y-95561810D01*
X190194381Y-95538000D01*
X190242000Y-95514190D01*
X190622952Y-96014190D02*
X190622952Y-95514190D01*
X190670571Y-95823714D02*
X190813428Y-96014190D01*
X190813428Y-95680857D02*
X190622952Y-95871333D01*
X189432477Y-93464190D02*
X189265810Y-93226095D01*
X189146763Y-93464190D02*
X189146763Y-92964190D01*
X189337239Y-92964190D01*
X189384858Y-92988000D01*
X189408667Y-93011810D01*
X189432477Y-93059429D01*
X189432477Y-93130857D01*
X189408667Y-93178476D01*
X189384858Y-93202286D01*
X189337239Y-93226095D01*
X189146763Y-93226095D01*
X189599144Y-92964190D02*
X189908667Y-92964190D01*
X189742001Y-93154667D01*
X189813429Y-93154667D01*
X189861048Y-93178476D01*
X189884858Y-93202286D01*
X189908667Y-93249905D01*
X189908667Y-93368952D01*
X189884858Y-93416571D01*
X189861048Y-93440381D01*
X189813429Y-93464190D01*
X189670572Y-93464190D01*
X189622953Y-93440381D01*
X189599144Y-93416571D01*
X190218191Y-92964190D02*
X190265810Y-92964190D01*
X190313429Y-92988000D01*
X190337238Y-93011810D01*
X190361048Y-93059429D01*
X190384857Y-93154667D01*
X190384857Y-93273714D01*
X190361048Y-93368952D01*
X190337238Y-93416571D01*
X190313429Y-93440381D01*
X190265810Y-93464190D01*
X190218191Y-93464190D01*
X190170572Y-93440381D01*
X190146762Y-93416571D01*
X190122953Y-93368952D01*
X190099143Y-93273714D01*
X190099143Y-93154667D01*
X190122953Y-93059429D01*
X190146762Y-93011810D01*
X190170572Y-92988000D01*
X190218191Y-92964190D01*
X190813428Y-92964190D02*
X190718190Y-92964190D01*
X190670571Y-92988000D01*
X190646762Y-93011810D01*
X190599143Y-93083238D01*
X190575333Y-93178476D01*
X190575333Y-93368952D01*
X190599143Y-93416571D01*
X190622952Y-93440381D01*
X190670571Y-93464190D01*
X190765809Y-93464190D01*
X190813428Y-93440381D01*
X190837238Y-93416571D01*
X190861047Y-93368952D01*
X190861047Y-93249905D01*
X190837238Y-93202286D01*
X190813428Y-93178476D01*
X190765809Y-93154667D01*
X190670571Y-93154667D01*
X190622952Y-93178476D01*
X190599143Y-93202286D01*
X190575333Y-93249905D01*
X159849381Y-101471190D02*
X159563667Y-101471190D01*
X159706524Y-101471190D02*
X159706524Y-100971190D01*
X159658905Y-101042619D01*
X159611286Y-101090238D01*
X159563667Y-101114048D01*
X160158905Y-100971190D02*
X160206524Y-100971190D01*
X160254143Y-100995000D01*
X160277952Y-101018810D01*
X160301762Y-101066429D01*
X160325571Y-101161667D01*
X160325571Y-101280714D01*
X160301762Y-101375952D01*
X160277952Y-101423571D01*
X160254143Y-101447381D01*
X160206524Y-101471190D01*
X160158905Y-101471190D01*
X160111286Y-101447381D01*
X160087476Y-101423571D01*
X160063667Y-101375952D01*
X160039857Y-101280714D01*
X160039857Y-101161667D01*
X160063667Y-101066429D01*
X160087476Y-101018810D01*
X160111286Y-100995000D01*
X160158905Y-100971190D01*
X160539857Y-101471190D02*
X160539857Y-100971190D01*
X160587476Y-101280714D02*
X160730333Y-101471190D01*
X160730333Y-101137857D02*
X160539857Y-101328333D01*
D12*
X159587477Y-98524190D02*
X159420810Y-98286095D01*
X159301763Y-98524190D02*
X159301763Y-98024190D01*
X159492239Y-98024190D01*
X159539858Y-98048000D01*
X159563667Y-98071810D01*
X159587477Y-98119429D01*
X159587477Y-98190857D01*
X159563667Y-98238476D01*
X159539858Y-98262286D01*
X159492239Y-98286095D01*
X159301763Y-98286095D01*
X159754144Y-98024190D02*
X160063667Y-98024190D01*
X159897001Y-98214667D01*
X159968429Y-98214667D01*
X160016048Y-98238476D01*
X160039858Y-98262286D01*
X160063667Y-98309905D01*
X160063667Y-98428952D01*
X160039858Y-98476571D01*
X160016048Y-98500381D01*
X159968429Y-98524190D01*
X159825572Y-98524190D01*
X159777953Y-98500381D01*
X159754144Y-98476571D01*
X160373191Y-98024190D02*
X160420810Y-98024190D01*
X160468429Y-98048000D01*
X160492238Y-98071810D01*
X160516048Y-98119429D01*
X160539857Y-98214667D01*
X160539857Y-98333714D01*
X160516048Y-98428952D01*
X160492238Y-98476571D01*
X160468429Y-98500381D01*
X160420810Y-98524190D01*
X160373191Y-98524190D01*
X160325572Y-98500381D01*
X160301762Y-98476571D01*
X160277953Y-98428952D01*
X160254143Y-98333714D01*
X160254143Y-98214667D01*
X160277953Y-98119429D01*
X160301762Y-98071810D01*
X160325572Y-98048000D01*
X160373191Y-98024190D01*
X160706524Y-98024190D02*
X161039857Y-98024190D01*
X160825571Y-98524190D01*
D10*
X150538715Y-93715857D02*
X150538715Y-94049190D01*
X150419668Y-93525381D02*
X150300620Y-93882524D01*
X150610144Y-93882524D01*
X150800620Y-94001571D02*
X150824429Y-94025381D01*
X150800620Y-94049190D01*
X150776810Y-94025381D01*
X150800620Y-94001571D01*
X150800620Y-94049190D01*
X150991096Y-93549190D02*
X151324429Y-93549190D01*
X151110143Y-94049190D01*
X151514905Y-94049190D02*
X151514905Y-93549190D01*
X151562524Y-93858714D02*
X151705381Y-94049190D01*
X151705381Y-93715857D02*
X151514905Y-93906333D01*
X150316477Y-94206190D02*
X150149810Y-93968095D01*
X150030763Y-94206190D02*
X150030763Y-93706190D01*
X150221239Y-93706190D01*
X150268858Y-93730000D01*
X150292667Y-93753810D01*
X150316477Y-93801429D01*
X150316477Y-93872857D01*
X150292667Y-93920476D01*
X150268858Y-93944286D01*
X150221239Y-93968095D01*
X150030763Y-93968095D01*
X150483144Y-93706190D02*
X150792667Y-93706190D01*
X150626001Y-93896667D01*
X150697429Y-93896667D01*
X150745048Y-93920476D01*
X150768858Y-93944286D01*
X150792667Y-93991905D01*
X150792667Y-94110952D01*
X150768858Y-94158571D01*
X150745048Y-94182381D01*
X150697429Y-94206190D01*
X150554572Y-94206190D01*
X150506953Y-94182381D01*
X150483144Y-94158571D01*
X151102191Y-93706190D02*
X151149810Y-93706190D01*
X151197429Y-93730000D01*
X151221238Y-93753810D01*
X151245048Y-93801429D01*
X151268857Y-93896667D01*
X151268857Y-94015714D01*
X151245048Y-94110952D01*
X151221238Y-94158571D01*
X151197429Y-94182381D01*
X151149810Y-94206190D01*
X151102191Y-94206190D01*
X151054572Y-94182381D01*
X151030762Y-94158571D01*
X151006953Y-94110952D01*
X150983143Y-94015714D01*
X150983143Y-93896667D01*
X151006953Y-93801429D01*
X151030762Y-93753810D01*
X151054572Y-93730000D01*
X151102191Y-93706190D01*
X151554571Y-93920476D02*
X151506952Y-93896667D01*
X151483143Y-93872857D01*
X151459333Y-93825238D01*
X151459333Y-93801429D01*
X151483143Y-93753810D01*
X151506952Y-93730000D01*
X151554571Y-93706190D01*
X151649809Y-93706190D01*
X151697428Y-93730000D01*
X151721238Y-93753810D01*
X151745047Y-93801429D01*
X151745047Y-93825238D01*
X151721238Y-93872857D01*
X151697428Y-93896667D01*
X151649809Y-93920476D01*
X151554571Y-93920476D01*
X151506952Y-93944286D01*
X151483143Y-93968095D01*
X151459333Y-94015714D01*
X151459333Y-94110952D01*
X151483143Y-94158571D01*
X151506952Y-94182381D01*
X151554571Y-94206190D01*
X151649809Y-94206190D01*
X151697428Y-94182381D01*
X151721238Y-94158571D01*
X151745047Y-94110952D01*
X151745047Y-94015714D01*
X151721238Y-93968095D01*
X151697428Y-93944286D01*
X151649809Y-93920476D01*
X186154286Y-103126190D02*
X185868572Y-103126190D01*
X186011429Y-103126190D02*
X186011429Y-102626190D01*
X185963810Y-102697619D01*
X185916191Y-102745238D01*
X185868572Y-102769048D01*
X186463810Y-102626190D02*
X186511429Y-102626190D01*
X186559048Y-102650000D01*
X186582857Y-102673810D01*
X186606667Y-102721429D01*
X186630476Y-102816667D01*
X186630476Y-102935714D01*
X186606667Y-103030952D01*
X186582857Y-103078571D01*
X186559048Y-103102381D01*
X186511429Y-103126190D01*
X186463810Y-103126190D01*
X186416191Y-103102381D01*
X186392381Y-103078571D01*
X186368572Y-103030952D01*
X186344762Y-102935714D01*
X186344762Y-102816667D01*
X186368572Y-102721429D01*
X186392381Y-102673810D01*
X186416191Y-102650000D01*
X186463810Y-102626190D01*
X186940000Y-102626190D02*
X186987619Y-102626190D01*
X187035238Y-102650000D01*
X187059047Y-102673810D01*
X187082857Y-102721429D01*
X187106666Y-102816667D01*
X187106666Y-102935714D01*
X187082857Y-103030952D01*
X187059047Y-103078571D01*
X187035238Y-103102381D01*
X186987619Y-103126190D01*
X186940000Y-103126190D01*
X186892381Y-103102381D01*
X186868571Y-103078571D01*
X186844762Y-103030952D01*
X186820952Y-102935714D01*
X186820952Y-102816667D01*
X186844762Y-102721429D01*
X186868571Y-102673810D01*
X186892381Y-102650000D01*
X186940000Y-102626190D01*
X187320952Y-103126190D02*
X187320952Y-102626190D01*
X187368571Y-102935714D02*
X187511428Y-103126190D01*
X187511428Y-102792857D02*
X187320952Y-102983333D01*
X186916190Y-103683523D02*
X186678095Y-103850190D01*
X186916190Y-103969237D02*
X186416190Y-103969237D01*
X186416190Y-103778761D01*
X186440000Y-103731142D01*
X186463810Y-103707333D01*
X186511429Y-103683523D01*
X186582857Y-103683523D01*
X186630476Y-103707333D01*
X186654286Y-103731142D01*
X186678095Y-103778761D01*
X186678095Y-103969237D01*
X186416190Y-103516856D02*
X186416190Y-103207333D01*
X186606667Y-103373999D01*
X186606667Y-103302571D01*
X186630476Y-103254952D01*
X186654286Y-103231142D01*
X186701905Y-103207333D01*
X186820952Y-103207333D01*
X186868571Y-103231142D01*
X186892381Y-103254952D01*
X186916190Y-103302571D01*
X186916190Y-103445428D01*
X186892381Y-103493047D01*
X186868571Y-103516856D01*
X186416190Y-102897809D02*
X186416190Y-102850190D01*
X186440000Y-102802571D01*
X186463810Y-102778762D01*
X186511429Y-102754952D01*
X186606667Y-102731143D01*
X186725714Y-102731143D01*
X186820952Y-102754952D01*
X186868571Y-102778762D01*
X186892381Y-102802571D01*
X186916190Y-102850190D01*
X186916190Y-102897809D01*
X186892381Y-102945428D01*
X186868571Y-102969238D01*
X186820952Y-102993047D01*
X186725714Y-103016857D01*
X186606667Y-103016857D01*
X186511429Y-102993047D01*
X186463810Y-102969238D01*
X186440000Y-102945428D01*
X186416190Y-102897809D01*
X186916190Y-102493048D02*
X186916190Y-102397810D01*
X186892381Y-102350191D01*
X186868571Y-102326381D01*
X186797143Y-102278762D01*
X186701905Y-102254953D01*
X186511429Y-102254953D01*
X186463810Y-102278762D01*
X186440000Y-102302572D01*
X186416190Y-102350191D01*
X186416190Y-102445429D01*
X186440000Y-102493048D01*
X186463810Y-102516857D01*
X186511429Y-102540667D01*
X186630476Y-102540667D01*
X186678095Y-102516857D01*
X186701905Y-102493048D01*
X186725714Y-102445429D01*
X186725714Y-102350191D01*
X186701905Y-102302572D01*
X186678095Y-102278762D01*
X186630476Y-102254953D01*
X187424286Y-103126190D02*
X187138572Y-103126190D01*
X187281429Y-103126190D02*
X187281429Y-102626190D01*
X187233810Y-102697619D01*
X187186191Y-102745238D01*
X187138572Y-102769048D01*
X187733810Y-102626190D02*
X187781429Y-102626190D01*
X187829048Y-102650000D01*
X187852857Y-102673810D01*
X187876667Y-102721429D01*
X187900476Y-102816667D01*
X187900476Y-102935714D01*
X187876667Y-103030952D01*
X187852857Y-103078571D01*
X187829048Y-103102381D01*
X187781429Y-103126190D01*
X187733810Y-103126190D01*
X187686191Y-103102381D01*
X187662381Y-103078571D01*
X187638572Y-103030952D01*
X187614762Y-102935714D01*
X187614762Y-102816667D01*
X187638572Y-102721429D01*
X187662381Y-102673810D01*
X187686191Y-102650000D01*
X187733810Y-102626190D01*
X188210000Y-102626190D02*
X188257619Y-102626190D01*
X188305238Y-102650000D01*
X188329047Y-102673810D01*
X188352857Y-102721429D01*
X188376666Y-102816667D01*
X188376666Y-102935714D01*
X188352857Y-103030952D01*
X188329047Y-103078571D01*
X188305238Y-103102381D01*
X188257619Y-103126190D01*
X188210000Y-103126190D01*
X188162381Y-103102381D01*
X188138571Y-103078571D01*
X188114762Y-103030952D01*
X188090952Y-102935714D01*
X188090952Y-102816667D01*
X188114762Y-102721429D01*
X188138571Y-102673810D01*
X188162381Y-102650000D01*
X188210000Y-102626190D01*
X188590952Y-103126190D02*
X188590952Y-102626190D01*
X188638571Y-102935714D02*
X188781428Y-103126190D01*
X188781428Y-102792857D02*
X188590952Y-102983333D01*
X188186190Y-100635523D02*
X187948095Y-100802190D01*
X188186190Y-100921237D02*
X187686190Y-100921237D01*
X187686190Y-100730761D01*
X187710000Y-100683142D01*
X187733810Y-100659333D01*
X187781429Y-100635523D01*
X187852857Y-100635523D01*
X187900476Y-100659333D01*
X187924286Y-100683142D01*
X187948095Y-100730761D01*
X187948095Y-100921237D01*
X187686190Y-100468856D02*
X187686190Y-100159333D01*
X187876667Y-100325999D01*
X187876667Y-100254571D01*
X187900476Y-100206952D01*
X187924286Y-100183142D01*
X187971905Y-100159333D01*
X188090952Y-100159333D01*
X188138571Y-100183142D01*
X188162381Y-100206952D01*
X188186190Y-100254571D01*
X188186190Y-100397428D01*
X188162381Y-100445047D01*
X188138571Y-100468856D01*
X188186190Y-99683143D02*
X188186190Y-99968857D01*
X188186190Y-99826000D02*
X187686190Y-99826000D01*
X187757619Y-99873619D01*
X187805238Y-99921238D01*
X187829048Y-99968857D01*
X187686190Y-99373619D02*
X187686190Y-99326000D01*
X187710000Y-99278381D01*
X187733810Y-99254572D01*
X187781429Y-99230762D01*
X187876667Y-99206953D01*
X187995714Y-99206953D01*
X188090952Y-99230762D01*
X188138571Y-99254572D01*
X188162381Y-99278381D01*
X188186190Y-99326000D01*
X188186190Y-99373619D01*
X188162381Y-99421238D01*
X188138571Y-99445048D01*
X188090952Y-99468857D01*
X187995714Y-99492667D01*
X187876667Y-99492667D01*
X187781429Y-99468857D01*
X187733810Y-99445048D01*
X187710000Y-99421238D01*
X187686190Y-99373619D01*
X192980476Y-103126190D02*
X192694762Y-103126190D01*
X192837619Y-103126190D02*
X192837619Y-102626190D01*
X192790000Y-102697619D01*
X192742381Y-102745238D01*
X192694762Y-102769048D01*
X193194762Y-103126190D02*
X193194762Y-102626190D01*
X193242381Y-102935714D02*
X193385238Y-103126190D01*
X193385238Y-102792857D02*
X193194762Y-102983333D01*
X193266190Y-100635523D02*
X193028095Y-100802190D01*
X193266190Y-100921237D02*
X192766190Y-100921237D01*
X192766190Y-100730761D01*
X192790000Y-100683142D01*
X192813810Y-100659333D01*
X192861429Y-100635523D01*
X192932857Y-100635523D01*
X192980476Y-100659333D01*
X193004286Y-100683142D01*
X193028095Y-100730761D01*
X193028095Y-100921237D01*
X192766190Y-100468856D02*
X192766190Y-100159333D01*
X192956667Y-100325999D01*
X192956667Y-100254571D01*
X192980476Y-100206952D01*
X193004286Y-100183142D01*
X193051905Y-100159333D01*
X193170952Y-100159333D01*
X193218571Y-100183142D01*
X193242381Y-100206952D01*
X193266190Y-100254571D01*
X193266190Y-100397428D01*
X193242381Y-100445047D01*
X193218571Y-100468856D01*
X193266190Y-99683143D02*
X193266190Y-99968857D01*
X193266190Y-99826000D02*
X192766190Y-99826000D01*
X192837619Y-99873619D01*
X192885238Y-99921238D01*
X192909048Y-99968857D01*
X193266190Y-99206953D02*
X193266190Y-99492667D01*
X193266190Y-99349810D02*
X192766190Y-99349810D01*
X192837619Y-99397429D01*
X192885238Y-99445048D01*
X192909048Y-99492667D01*
X191710476Y-100526190D02*
X191424762Y-100526190D01*
X191567619Y-100526190D02*
X191567619Y-100026190D01*
X191520000Y-100097619D01*
X191472381Y-100145238D01*
X191424762Y-100169048D01*
X191924762Y-100526190D02*
X191924762Y-100026190D01*
X191972381Y-100335714D02*
X192115238Y-100526190D01*
X192115238Y-100192857D02*
X191924762Y-100383333D01*
X191996190Y-103683523D02*
X191758095Y-103850190D01*
X191996190Y-103969237D02*
X191496190Y-103969237D01*
X191496190Y-103778761D01*
X191520000Y-103731142D01*
X191543810Y-103707333D01*
X191591429Y-103683523D01*
X191662857Y-103683523D01*
X191710476Y-103707333D01*
X191734286Y-103731142D01*
X191758095Y-103778761D01*
X191758095Y-103969237D01*
X191496190Y-103516856D02*
X191496190Y-103207333D01*
X191686667Y-103373999D01*
X191686667Y-103302571D01*
X191710476Y-103254952D01*
X191734286Y-103231142D01*
X191781905Y-103207333D01*
X191900952Y-103207333D01*
X191948571Y-103231142D01*
X191972381Y-103254952D01*
X191996190Y-103302571D01*
X191996190Y-103445428D01*
X191972381Y-103493047D01*
X191948571Y-103516856D01*
X191996190Y-102731143D02*
X191996190Y-103016857D01*
X191996190Y-102874000D02*
X191496190Y-102874000D01*
X191567619Y-102921619D01*
X191615238Y-102969238D01*
X191639048Y-103016857D01*
X191543810Y-102540667D02*
X191520000Y-102516857D01*
X191496190Y-102469238D01*
X191496190Y-102350191D01*
X191520000Y-102302572D01*
X191543810Y-102278762D01*
X191591429Y-102254953D01*
X191639048Y-102254953D01*
X191710476Y-102278762D01*
X191996190Y-102564476D01*
X191996190Y-102254953D01*
X189170476Y-103126190D02*
X188884762Y-103126190D01*
X189027619Y-103126190D02*
X189027619Y-102626190D01*
X188980000Y-102697619D01*
X188932381Y-102745238D01*
X188884762Y-102769048D01*
X189384762Y-103126190D02*
X189384762Y-102626190D01*
X189432381Y-102935714D02*
X189575238Y-103126190D01*
X189575238Y-102792857D02*
X189384762Y-102983333D01*
X189456190Y-103683523D02*
X189218095Y-103850190D01*
X189456190Y-103969237D02*
X188956190Y-103969237D01*
X188956190Y-103778761D01*
X188980000Y-103731142D01*
X189003810Y-103707333D01*
X189051429Y-103683523D01*
X189122857Y-103683523D01*
X189170476Y-103707333D01*
X189194286Y-103731142D01*
X189218095Y-103778761D01*
X189218095Y-103969237D01*
X188956190Y-103516856D02*
X188956190Y-103207333D01*
X189146667Y-103373999D01*
X189146667Y-103302571D01*
X189170476Y-103254952D01*
X189194286Y-103231142D01*
X189241905Y-103207333D01*
X189360952Y-103207333D01*
X189408571Y-103231142D01*
X189432381Y-103254952D01*
X189456190Y-103302571D01*
X189456190Y-103445428D01*
X189432381Y-103493047D01*
X189408571Y-103516856D01*
X189456190Y-102731143D02*
X189456190Y-103016857D01*
X189456190Y-102874000D02*
X188956190Y-102874000D01*
X189027619Y-102921619D01*
X189075238Y-102969238D01*
X189099048Y-103016857D01*
X188956190Y-102564476D02*
X188956190Y-102254953D01*
X189146667Y-102421619D01*
X189146667Y-102350191D01*
X189170476Y-102302572D01*
X189194286Y-102278762D01*
X189241905Y-102254953D01*
X189360952Y-102254953D01*
X189408571Y-102278762D01*
X189432381Y-102302572D01*
X189456190Y-102350191D01*
X189456190Y-102493048D01*
X189432381Y-102540667D01*
X189408571Y-102564476D01*
X190440476Y-100526190D02*
X190154762Y-100526190D01*
X190297619Y-100526190D02*
X190297619Y-100026190D01*
X190250000Y-100097619D01*
X190202381Y-100145238D01*
X190154762Y-100169048D01*
X190654762Y-100526190D02*
X190654762Y-100026190D01*
X190702381Y-100335714D02*
X190845238Y-100526190D01*
X190845238Y-100192857D02*
X190654762Y-100383333D01*
X190726190Y-100635523D02*
X190488095Y-100802190D01*
X190726190Y-100921237D02*
X190226190Y-100921237D01*
X190226190Y-100730761D01*
X190250000Y-100683142D01*
X190273810Y-100659333D01*
X190321429Y-100635523D01*
X190392857Y-100635523D01*
X190440476Y-100659333D01*
X190464286Y-100683142D01*
X190488095Y-100730761D01*
X190488095Y-100921237D01*
X190226190Y-100468856D02*
X190226190Y-100159333D01*
X190416667Y-100325999D01*
X190416667Y-100254571D01*
X190440476Y-100206952D01*
X190464286Y-100183142D01*
X190511905Y-100159333D01*
X190630952Y-100159333D01*
X190678571Y-100183142D01*
X190702381Y-100206952D01*
X190726190Y-100254571D01*
X190726190Y-100397428D01*
X190702381Y-100445047D01*
X190678571Y-100468856D01*
X190726190Y-99683143D02*
X190726190Y-99968857D01*
X190726190Y-99826000D02*
X190226190Y-99826000D01*
X190297619Y-99873619D01*
X190345238Y-99921238D01*
X190369048Y-99968857D01*
X190392857Y-99254572D02*
X190726190Y-99254572D01*
X190202381Y-99373619D02*
X190559524Y-99492667D01*
X190559524Y-99183143D01*
X193361476Y-114238690D02*
X193075762Y-114238690D01*
X193218619Y-114238690D02*
X193218619Y-113738690D01*
X193171000Y-113810119D01*
X193123381Y-113857738D01*
X193075762Y-113881548D01*
X193575762Y-114238690D02*
X193575762Y-113738690D01*
X193623381Y-114048214D02*
X193766238Y-114238690D01*
X193766238Y-113905357D02*
X193575762Y-114095833D01*
X192861477Y-111688690D02*
X192694810Y-111450595D01*
X192575763Y-111688690D02*
X192575763Y-111188690D01*
X192766239Y-111188690D01*
X192813858Y-111212500D01*
X192837667Y-111236310D01*
X192861477Y-111283929D01*
X192861477Y-111355357D01*
X192837667Y-111402976D01*
X192813858Y-111426786D01*
X192766239Y-111450595D01*
X192575763Y-111450595D01*
X193028144Y-111188690D02*
X193337667Y-111188690D01*
X193171001Y-111379167D01*
X193242429Y-111379167D01*
X193290048Y-111402976D01*
X193313858Y-111426786D01*
X193337667Y-111474405D01*
X193337667Y-111593452D01*
X193313858Y-111641071D01*
X193290048Y-111664881D01*
X193242429Y-111688690D01*
X193099572Y-111688690D01*
X193051953Y-111664881D01*
X193028144Y-111641071D01*
X193813857Y-111688690D02*
X193528143Y-111688690D01*
X193671000Y-111688690D02*
X193671000Y-111188690D01*
X193623381Y-111260119D01*
X193575762Y-111307738D01*
X193528143Y-111331548D01*
X194266238Y-111188690D02*
X194028143Y-111188690D01*
X194004333Y-111426786D01*
X194028143Y-111402976D01*
X194075762Y-111379167D01*
X194194809Y-111379167D01*
X194242428Y-111402976D01*
X194266238Y-111426786D01*
X194290047Y-111474405D01*
X194290047Y-111593452D01*
X194266238Y-111641071D01*
X194242428Y-111664881D01*
X194194809Y-111688690D01*
X194075762Y-111688690D01*
X194028143Y-111664881D01*
X194004333Y-111641071D01*
X69890810Y-94182333D02*
X69867000Y-94158523D01*
X69843190Y-94110904D01*
X69843190Y-93991857D01*
X69867000Y-93944238D01*
X69890810Y-93920428D01*
X69938429Y-93896619D01*
X69986048Y-93896619D01*
X70057476Y-93920428D01*
X70343190Y-94206142D01*
X70343190Y-93896619D01*
X69890810Y-93706143D02*
X69867000Y-93682333D01*
X69843190Y-93634714D01*
X69843190Y-93515667D01*
X69867000Y-93468048D01*
X69890810Y-93444238D01*
X69938429Y-93420429D01*
X69986048Y-93420429D01*
X70057476Y-93444238D01*
X70343190Y-93729952D01*
X70343190Y-93420429D01*
X70343190Y-93206143D02*
X69843190Y-93206143D01*
X70152714Y-93158524D02*
X70343190Y-93015667D01*
X70009857Y-93015667D02*
X70200333Y-93206143D01*
X69890810Y-105993333D02*
X69867000Y-105969523D01*
X69843190Y-105921904D01*
X69843190Y-105802857D01*
X69867000Y-105755238D01*
X69890810Y-105731428D01*
X69938429Y-105707619D01*
X69986048Y-105707619D01*
X70057476Y-105731428D01*
X70343190Y-106017142D01*
X70343190Y-105707619D01*
X69890810Y-105517143D02*
X69867000Y-105493333D01*
X69843190Y-105445714D01*
X69843190Y-105326667D01*
X69867000Y-105279048D01*
X69890810Y-105255238D01*
X69938429Y-105231429D01*
X69986048Y-105231429D01*
X70057476Y-105255238D01*
X70343190Y-105540952D01*
X70343190Y-105231429D01*
X70343190Y-105017143D02*
X69843190Y-105017143D01*
X70152714Y-104969524D02*
X70343190Y-104826667D01*
X70009857Y-104826667D02*
X70200333Y-105017143D01*
X87205477Y-96952190D02*
X87491191Y-96952190D01*
X87348334Y-97452190D02*
X87348334Y-96952190D01*
X87895953Y-97452190D02*
X87657858Y-97452190D01*
X87657858Y-96952190D01*
X88157858Y-96952190D02*
X88205477Y-96952190D01*
X88253096Y-96976000D01*
X88276905Y-96999810D01*
X88300715Y-97047429D01*
X88324524Y-97142667D01*
X88324524Y-97261714D01*
X88300715Y-97356952D01*
X88276905Y-97404571D01*
X88253096Y-97428381D01*
X88205477Y-97452190D01*
X88157858Y-97452190D01*
X88110239Y-97428381D01*
X88086429Y-97404571D01*
X88062620Y-97356952D01*
X88038810Y-97261714D01*
X88038810Y-97142667D01*
X88062620Y-97047429D01*
X88086429Y-96999810D01*
X88110239Y-96976000D01*
X88157858Y-96952190D01*
X88753095Y-96952190D02*
X88657857Y-96952190D01*
X88610238Y-96976000D01*
X88586429Y-96999810D01*
X88538810Y-97071238D01*
X88515000Y-97166476D01*
X88515000Y-97356952D01*
X88538810Y-97404571D01*
X88562619Y-97428381D01*
X88610238Y-97452190D01*
X88705476Y-97452190D01*
X88753095Y-97428381D01*
X88776905Y-97404571D01*
X88800714Y-97356952D01*
X88800714Y-97237905D01*
X88776905Y-97190286D01*
X88753095Y-97166476D01*
X88705476Y-97142667D01*
X88610238Y-97142667D01*
X88562619Y-97166476D01*
X88538810Y-97190286D01*
X88515000Y-97237905D01*
X89276904Y-97452190D02*
X88991190Y-97452190D01*
X89134047Y-97452190D02*
X89134047Y-96952190D01*
X89086428Y-97023619D01*
X89038809Y-97071238D01*
X88991190Y-97095048D01*
X87407858Y-93452190D02*
X87407858Y-93856952D01*
X87431667Y-93904571D01*
X87455477Y-93928381D01*
X87503096Y-93952190D01*
X87598334Y-93952190D01*
X87645953Y-93928381D01*
X87669762Y-93904571D01*
X87693572Y-93856952D01*
X87693572Y-93452190D01*
X87907858Y-93499810D02*
X87931668Y-93476000D01*
X87979287Y-93452190D01*
X88098334Y-93452190D01*
X88145953Y-93476000D01*
X88169763Y-93499810D01*
X88193572Y-93547429D01*
X88193572Y-93595048D01*
X88169763Y-93666476D01*
X87884049Y-93952190D01*
X88193572Y-93952190D01*
X88503096Y-93452190D02*
X88550715Y-93452190D01*
X88598334Y-93476000D01*
X88622143Y-93499810D01*
X88645953Y-93547429D01*
X88669762Y-93642667D01*
X88669762Y-93761714D01*
X88645953Y-93856952D01*
X88622143Y-93904571D01*
X88598334Y-93928381D01*
X88550715Y-93952190D01*
X88503096Y-93952190D01*
X88455477Y-93928381D01*
X88431667Y-93904571D01*
X88407858Y-93856952D01*
X88384048Y-93761714D01*
X88384048Y-93642667D01*
X88407858Y-93547429D01*
X88431667Y-93499810D01*
X88455477Y-93476000D01*
X88503096Y-93452190D01*
X89145952Y-93952190D02*
X88860238Y-93952190D01*
X89003095Y-93952190D02*
X89003095Y-93452190D01*
X88955476Y-93523619D01*
X88907857Y-93571238D01*
X88860238Y-93595048D01*
X108795477Y-96952190D02*
X109081191Y-96952190D01*
X108938334Y-97452190D02*
X108938334Y-96952190D01*
X109485953Y-97452190D02*
X109247858Y-97452190D01*
X109247858Y-96952190D01*
X109747858Y-96952190D02*
X109795477Y-96952190D01*
X109843096Y-96976000D01*
X109866905Y-96999810D01*
X109890715Y-97047429D01*
X109914524Y-97142667D01*
X109914524Y-97261714D01*
X109890715Y-97356952D01*
X109866905Y-97404571D01*
X109843096Y-97428381D01*
X109795477Y-97452190D01*
X109747858Y-97452190D01*
X109700239Y-97428381D01*
X109676429Y-97404571D01*
X109652620Y-97356952D01*
X109628810Y-97261714D01*
X109628810Y-97142667D01*
X109652620Y-97047429D01*
X109676429Y-96999810D01*
X109700239Y-96976000D01*
X109747858Y-96952190D01*
X110343095Y-96952190D02*
X110247857Y-96952190D01*
X110200238Y-96976000D01*
X110176429Y-96999810D01*
X110128810Y-97071238D01*
X110105000Y-97166476D01*
X110105000Y-97356952D01*
X110128810Y-97404571D01*
X110152619Y-97428381D01*
X110200238Y-97452190D01*
X110295476Y-97452190D01*
X110343095Y-97428381D01*
X110366905Y-97404571D01*
X110390714Y-97356952D01*
X110390714Y-97237905D01*
X110366905Y-97190286D01*
X110343095Y-97166476D01*
X110295476Y-97142667D01*
X110200238Y-97142667D01*
X110152619Y-97166476D01*
X110128810Y-97190286D01*
X110105000Y-97237905D01*
X110866904Y-97452190D02*
X110581190Y-97452190D01*
X110724047Y-97452190D02*
X110724047Y-96952190D01*
X110676428Y-97023619D01*
X110628809Y-97071238D01*
X110581190Y-97095048D01*
X108997858Y-93452190D02*
X108997858Y-93856952D01*
X109021667Y-93904571D01*
X109045477Y-93928381D01*
X109093096Y-93952190D01*
X109188334Y-93952190D01*
X109235953Y-93928381D01*
X109259762Y-93904571D01*
X109283572Y-93856952D01*
X109283572Y-93452190D01*
X109497858Y-93499810D02*
X109521668Y-93476000D01*
X109569287Y-93452190D01*
X109688334Y-93452190D01*
X109735953Y-93476000D01*
X109759763Y-93499810D01*
X109783572Y-93547429D01*
X109783572Y-93595048D01*
X109759763Y-93666476D01*
X109474049Y-93952190D01*
X109783572Y-93952190D01*
X110093096Y-93452190D02*
X110140715Y-93452190D01*
X110188334Y-93476000D01*
X110212143Y-93499810D01*
X110235953Y-93547429D01*
X110259762Y-93642667D01*
X110259762Y-93761714D01*
X110235953Y-93856952D01*
X110212143Y-93904571D01*
X110188334Y-93928381D01*
X110140715Y-93952190D01*
X110093096Y-93952190D01*
X110045477Y-93928381D01*
X110021667Y-93904571D01*
X109997858Y-93856952D01*
X109974048Y-93761714D01*
X109974048Y-93642667D01*
X109997858Y-93547429D01*
X110021667Y-93499810D01*
X110045477Y-93476000D01*
X110093096Y-93452190D01*
X110450238Y-93499810D02*
X110474048Y-93476000D01*
X110521667Y-93452190D01*
X110640714Y-93452190D01*
X110688333Y-93476000D01*
X110712143Y-93499810D01*
X110735952Y-93547429D01*
X110735952Y-93595048D01*
X110712143Y-93666476D01*
X110426429Y-93952190D01*
X110735952Y-93952190D01*
X184001857Y-108569047D02*
X184335190Y-108569047D01*
X183811381Y-108688094D02*
X184168524Y-108807142D01*
X184168524Y-108497618D01*
X183835190Y-108211904D02*
X183835190Y-108164285D01*
X183859000Y-108116666D01*
X183882810Y-108092857D01*
X183930429Y-108069047D01*
X184025667Y-108045238D01*
X184144714Y-108045238D01*
X184239952Y-108069047D01*
X184287571Y-108092857D01*
X184311381Y-108116666D01*
X184335190Y-108164285D01*
X184335190Y-108211904D01*
X184311381Y-108259523D01*
X184287571Y-108283333D01*
X184239952Y-108307142D01*
X184144714Y-108330952D01*
X184025667Y-108330952D01*
X183930429Y-108307142D01*
X183882810Y-108283333D01*
X183859000Y-108259523D01*
X183835190Y-108211904D01*
X183835190Y-107616667D02*
X183835190Y-107711905D01*
X183859000Y-107759524D01*
X183882810Y-107783333D01*
X183954238Y-107830952D01*
X184049476Y-107854762D01*
X184239952Y-107854762D01*
X184287571Y-107830952D01*
X184311381Y-107807143D01*
X184335190Y-107759524D01*
X184335190Y-107664286D01*
X184311381Y-107616667D01*
X184287571Y-107592857D01*
X184239952Y-107569048D01*
X184120905Y-107569048D01*
X184073286Y-107592857D01*
X184049476Y-107616667D01*
X184025667Y-107664286D01*
X184025667Y-107759524D01*
X184049476Y-107807143D01*
X184073286Y-107830952D01*
X184120905Y-107854762D01*
X183835190Y-107140477D02*
X183835190Y-107235715D01*
X183859000Y-107283334D01*
X183882810Y-107307143D01*
X183954238Y-107354762D01*
X184049476Y-107378572D01*
X184239952Y-107378572D01*
X184287571Y-107354762D01*
X184311381Y-107330953D01*
X184335190Y-107283334D01*
X184335190Y-107188096D01*
X184311381Y-107140477D01*
X184287571Y-107116667D01*
X184239952Y-107092858D01*
X184120905Y-107092858D01*
X184073286Y-107116667D01*
X184049476Y-107140477D01*
X184025667Y-107188096D01*
X184025667Y-107283334D01*
X184049476Y-107330953D01*
X184073286Y-107354762D01*
X184120905Y-107378572D01*
D13*
X188991143Y-109492857D02*
X189719714Y-109492857D01*
X189805429Y-109450000D01*
X189848286Y-109407143D01*
X189891143Y-109321429D01*
X189891143Y-109150000D01*
X189848286Y-109064286D01*
X189805429Y-109021429D01*
X189719714Y-108978572D01*
X188991143Y-108978572D01*
X188991143Y-108635715D02*
X188991143Y-108078572D01*
X189334000Y-108378572D01*
X189334000Y-108250000D01*
X189376857Y-108164286D01*
X189419714Y-108121429D01*
X189505429Y-108078572D01*
X189719714Y-108078572D01*
X189805429Y-108121429D01*
X189848286Y-108164286D01*
X189891143Y-108250000D01*
X189891143Y-108507143D01*
X189848286Y-108592857D01*
X189805429Y-108635715D01*
X188991143Y-107521429D02*
X188991143Y-107435714D01*
X189034000Y-107350000D01*
X189076857Y-107307143D01*
X189162571Y-107264286D01*
X189334000Y-107221429D01*
X189548286Y-107221429D01*
X189719714Y-107264286D01*
X189805429Y-107307143D01*
X189848286Y-107350000D01*
X189891143Y-107435714D01*
X189891143Y-107521429D01*
X189848286Y-107607143D01*
X189805429Y-107650000D01*
X189719714Y-107692857D01*
X189548286Y-107735714D01*
X189334000Y-107735714D01*
X189162571Y-107692857D01*
X189076857Y-107650000D01*
X189034000Y-107607143D01*
X188991143Y-107521429D01*
X189891143Y-106364286D02*
X189891143Y-106878571D01*
X189891143Y-106621429D02*
X188991143Y-106621429D01*
X189119714Y-106707143D01*
X189205429Y-106792857D01*
X189248286Y-106878571D01*
D10*
X211030477Y-111049190D02*
X211316191Y-111049190D01*
X211173334Y-111549190D02*
X211173334Y-111049190D01*
X211720953Y-111549190D02*
X211482858Y-111549190D01*
X211482858Y-111049190D01*
X211982858Y-111049190D02*
X212030477Y-111049190D01*
X212078096Y-111073000D01*
X212101905Y-111096810D01*
X212125715Y-111144429D01*
X212149524Y-111239667D01*
X212149524Y-111358714D01*
X212125715Y-111453952D01*
X212101905Y-111501571D01*
X212078096Y-111525381D01*
X212030477Y-111549190D01*
X211982858Y-111549190D01*
X211935239Y-111525381D01*
X211911429Y-111501571D01*
X211887620Y-111453952D01*
X211863810Y-111358714D01*
X211863810Y-111239667D01*
X211887620Y-111144429D01*
X211911429Y-111096810D01*
X211935239Y-111073000D01*
X211982858Y-111049190D01*
X212578095Y-111049190D02*
X212482857Y-111049190D01*
X212435238Y-111073000D01*
X212411429Y-111096810D01*
X212363810Y-111168238D01*
X212340000Y-111263476D01*
X212340000Y-111453952D01*
X212363810Y-111501571D01*
X212387619Y-111525381D01*
X212435238Y-111549190D01*
X212530476Y-111549190D01*
X212578095Y-111525381D01*
X212601905Y-111501571D01*
X212625714Y-111453952D01*
X212625714Y-111334905D01*
X212601905Y-111287286D01*
X212578095Y-111263476D01*
X212530476Y-111239667D01*
X212435238Y-111239667D01*
X212387619Y-111263476D01*
X212363810Y-111287286D01*
X212340000Y-111334905D01*
X213101904Y-111549190D02*
X212816190Y-111549190D01*
X212959047Y-111549190D02*
X212959047Y-111049190D01*
X212911428Y-111120619D01*
X212863809Y-111168238D01*
X212816190Y-111192048D01*
X211232858Y-107549190D02*
X211232858Y-107953952D01*
X211256667Y-108001571D01*
X211280477Y-108025381D01*
X211328096Y-108049190D01*
X211423334Y-108049190D01*
X211470953Y-108025381D01*
X211494762Y-108001571D01*
X211518572Y-107953952D01*
X211518572Y-107549190D01*
X211709049Y-107549190D02*
X212018572Y-107549190D01*
X211851906Y-107739667D01*
X211923334Y-107739667D01*
X211970953Y-107763476D01*
X211994763Y-107787286D01*
X212018572Y-107834905D01*
X212018572Y-107953952D01*
X211994763Y-108001571D01*
X211970953Y-108025381D01*
X211923334Y-108049190D01*
X211780477Y-108049190D01*
X211732858Y-108025381D01*
X211709049Y-108001571D01*
X212328096Y-107549190D02*
X212375715Y-107549190D01*
X212423334Y-107573000D01*
X212447143Y-107596810D01*
X212470953Y-107644429D01*
X212494762Y-107739667D01*
X212494762Y-107858714D01*
X212470953Y-107953952D01*
X212447143Y-108001571D01*
X212423334Y-108025381D01*
X212375715Y-108049190D01*
X212328096Y-108049190D01*
X212280477Y-108025381D01*
X212256667Y-108001571D01*
X212232858Y-107953952D01*
X212209048Y-107858714D01*
X212209048Y-107739667D01*
X212232858Y-107644429D01*
X212256667Y-107596810D01*
X212280477Y-107573000D01*
X212328096Y-107549190D01*
X212685238Y-107596810D02*
X212709048Y-107573000D01*
X212756667Y-107549190D01*
X212875714Y-107549190D01*
X212923333Y-107573000D01*
X212947143Y-107596810D01*
X212970952Y-107644429D01*
X212970952Y-107692048D01*
X212947143Y-107763476D01*
X212661429Y-108049190D01*
X212970952Y-108049190D01*
M02*
