G04 #@! TF.FileFunction,Copper,L2,Bot,Signal*
%FSLAX46Y46*%
G04 Gerber Fmt 4.6, Leading zero omitted, Abs format (unit mm)*
G04 Created by KiCad (PCBNEW 4.0.6-e0-6349~53~ubuntu14.04.1) date Thu Jul  6 11:00:55 2017*
%MOMM*%
%LPD*%
G01*
G04 APERTURE LIST*
%ADD10C,0.100000*%
%ADD11C,7.000000*%
%ADD12R,1.600000X1.600000*%
%ADD13O,1.600000X1.600000*%
%ADD14R,1.700000X1.700000*%
%ADD15O,1.700000X1.700000*%
%ADD16O,0.900000X1.500000*%
%ADD17R,0.900000X1.500000*%
%ADD18O,1.500000X0.900000*%
%ADD19R,1.500000X0.900000*%
%ADD20C,1.440000*%
%ADD21C,1.100000*%
%ADD22C,0.600000*%
%ADD23C,0.500000*%
%ADD24C,0.250000*%
%ADD25C,0.254000*%
G04 APERTURE END LIST*
D10*
D11*
X226060000Y-71120000D03*
X226060000Y-125730000D03*
X63500000Y-125730000D03*
X63500000Y-71120000D03*
D12*
X84709000Y-103124000D03*
D13*
X92329000Y-103124000D03*
D12*
X81153000Y-107061000D03*
D13*
X81153000Y-99441000D03*
D12*
X180721000Y-84899500D03*
D13*
X180721000Y-92519500D03*
D14*
X142875000Y-78740000D03*
D15*
X145415000Y-78740000D03*
X147955000Y-78740000D03*
D14*
X186563000Y-78867000D03*
D15*
X189103000Y-78867000D03*
D14*
X211963000Y-78740000D03*
D15*
X214503000Y-78740000D03*
D16*
X88900000Y-80645000D03*
X90170000Y-80645000D03*
D17*
X87630000Y-80645000D03*
D18*
X164592000Y-87630000D03*
X164592000Y-88900000D03*
D19*
X164592000Y-86360000D03*
D18*
X185039000Y-95758000D03*
X185039000Y-97028000D03*
D19*
X185039000Y-94488000D03*
D18*
X194437000Y-95758000D03*
X194437000Y-97028000D03*
D19*
X194437000Y-94488000D03*
D18*
X164592000Y-99695000D03*
X164592000Y-100965000D03*
D19*
X164592000Y-98425000D03*
D20*
X73787000Y-96139000D03*
X73787000Y-93599000D03*
X73787000Y-91059000D03*
X73787000Y-107950000D03*
X73787000Y-105410000D03*
X73787000Y-102870000D03*
D21*
X120777000Y-89789000D03*
X120777000Y-85471000D03*
X118110000Y-101600000D03*
X118110000Y-106045000D03*
X98171000Y-107442000D03*
X98171000Y-112522000D03*
X210566000Y-85725000D03*
X210566000Y-90170000D03*
X172212000Y-105283000D03*
X172212000Y-98933000D03*
X172212000Y-111125000D03*
X219583000Y-102616000D03*
X98298000Y-91567000D03*
X116586000Y-87630000D03*
X148971000Y-83185000D03*
X131699000Y-87630000D03*
X145415000Y-69723000D03*
X145415000Y-97536000D03*
X145415000Y-85725000D03*
X219583000Y-113919000D03*
X204851000Y-101854000D03*
X198120000Y-101854000D03*
X198564500Y-114554000D03*
X179578000Y-113792000D03*
X158750000Y-95123000D03*
X158750000Y-83185000D03*
X116332000Y-99822000D03*
X104013000Y-88011000D03*
X81661000Y-85852000D03*
X93853000Y-84582000D03*
X94742000Y-105537000D03*
X94869000Y-100330000D03*
X204851000Y-113220500D03*
X78486000Y-95123000D03*
X106934000Y-103886000D03*
X148971000Y-95123000D03*
X129159000Y-99695000D03*
D22*
X192786000Y-99822000D03*
X165354000Y-109093000D03*
D21*
X201422000Y-110744000D03*
X199136000Y-91059000D03*
X189484000Y-91059000D03*
X179578000Y-101092000D03*
D22*
X188849000Y-102870000D03*
X184150000Y-110617000D03*
X184150000Y-108585000D03*
X190119000Y-103632000D03*
D23*
X164592000Y-86360000D02*
X167767000Y-86360000D01*
X219583000Y-88900000D02*
X219583000Y-102616000D01*
X218567000Y-87884000D02*
X219583000Y-88900000D01*
X169291000Y-87884000D02*
X218567000Y-87884000D01*
X167767000Y-86360000D02*
X169291000Y-87884000D01*
X116586000Y-84455000D02*
X116586000Y-87630000D01*
X115316000Y-83185000D02*
X116586000Y-84455000D01*
X100711000Y-83185000D02*
X115316000Y-83185000D01*
X99441000Y-84455000D02*
X100711000Y-83185000D01*
X99441000Y-90424000D02*
X99441000Y-84455000D01*
X98298000Y-91567000D02*
X99441000Y-90424000D01*
X151257000Y-81280000D02*
X151257000Y-73660000D01*
X151257000Y-73660000D02*
X149733000Y-72136000D01*
X149733000Y-72136000D02*
X128905000Y-72136000D01*
X128905000Y-72136000D02*
X126873000Y-74168000D01*
X126873000Y-74168000D02*
X126873000Y-85471000D01*
X126873000Y-85471000D02*
X124714000Y-87630000D01*
X124714000Y-87630000D02*
X116586000Y-87630000D01*
X148971000Y-83185000D02*
X148971000Y-81280000D01*
X142875000Y-81280000D02*
X148971000Y-81280000D01*
X148971000Y-81280000D02*
X151257000Y-81280000D01*
X151257000Y-81280000D02*
X163322000Y-81280000D01*
X164592000Y-82550000D02*
X164592000Y-86360000D01*
X163322000Y-81280000D02*
X164592000Y-82550000D01*
X142875000Y-78740000D02*
X142875000Y-81280000D01*
X131699000Y-83947000D02*
X131699000Y-87630000D01*
X133096000Y-82550000D02*
X131699000Y-83947000D01*
X141605000Y-82550000D02*
X133096000Y-82550000D01*
X142875000Y-81280000D02*
X141605000Y-82550000D01*
X164592000Y-98425000D02*
X161544000Y-98425000D01*
X204851000Y-117348000D02*
X204851000Y-113220500D01*
X203327000Y-118872000D02*
X204851000Y-117348000D01*
X161798000Y-118872000D02*
X203327000Y-118872000D01*
X160401000Y-117475000D02*
X161798000Y-118872000D01*
X160401000Y-99568000D02*
X160401000Y-117475000D01*
X161544000Y-98425000D02*
X160401000Y-99568000D01*
X106934000Y-109093000D02*
X106934000Y-103886000D01*
X105791000Y-110236000D02*
X106934000Y-109093000D01*
X78613000Y-110236000D02*
X105791000Y-110236000D01*
X77470000Y-109093000D02*
X78613000Y-110236000D01*
X77470000Y-96139000D02*
X77470000Y-109093000D01*
X78486000Y-95123000D02*
X77470000Y-96139000D01*
X129159000Y-99695000D02*
X129159000Y-101727000D01*
X127000000Y-103886000D02*
X106934000Y-103886000D01*
X129159000Y-101727000D02*
X127000000Y-103886000D01*
X148971000Y-95123000D02*
X148971000Y-92202000D01*
X148971000Y-92202000D02*
X148971000Y-92329000D01*
X148971000Y-92329000D02*
X148971000Y-92202000D01*
X164592000Y-98425000D02*
X164592000Y-93980000D01*
X162814000Y-92202000D02*
X148971000Y-92202000D01*
X148971000Y-92202000D02*
X129159000Y-92202000D01*
X164592000Y-93980000D02*
X162814000Y-92202000D01*
X147955000Y-78740000D02*
X147955000Y-75946000D01*
X129159000Y-76200000D02*
X129159000Y-92202000D01*
X129159000Y-92202000D02*
X129159000Y-94742000D01*
X129159000Y-94742000D02*
X129159000Y-99695000D01*
X130810000Y-74549000D02*
X129159000Y-76200000D01*
X146558000Y-74549000D02*
X130810000Y-74549000D01*
X147955000Y-75946000D02*
X146558000Y-74549000D01*
D24*
X182118000Y-99822000D02*
X192786000Y-99822000D01*
X181165500Y-100774500D02*
X182118000Y-99822000D01*
X181165500Y-107505500D02*
X181165500Y-100774500D01*
X179578000Y-109093000D02*
X181165500Y-107505500D01*
X165354000Y-109093000D02*
X179578000Y-109093000D01*
D23*
X199136000Y-91059000D02*
X199136000Y-92329000D01*
X201422000Y-93853000D02*
X201422000Y-110744000D01*
X200787000Y-93218000D02*
X201422000Y-93853000D01*
X200025000Y-93218000D02*
X200787000Y-93218000D01*
X199136000Y-92329000D02*
X200025000Y-93218000D01*
X198374000Y-89408000D02*
X188722000Y-89408000D01*
X199136000Y-90170000D02*
X198374000Y-89408000D01*
X199136000Y-91059000D02*
X199136000Y-90170000D01*
X164592000Y-88900000D02*
X167894000Y-88900000D01*
X189484000Y-90170000D02*
X189484000Y-91059000D01*
X188722000Y-89408000D02*
X189484000Y-90170000D01*
X168402000Y-89408000D02*
X188722000Y-89408000D01*
X167894000Y-88900000D02*
X168402000Y-89408000D01*
X180721000Y-92519500D02*
X180721000Y-97028000D01*
X164592000Y-100965000D02*
X179451000Y-100965000D01*
X179451000Y-100965000D02*
X179578000Y-101092000D01*
X185039000Y-97028000D02*
X180721000Y-97028000D01*
X179578000Y-98171000D02*
X179578000Y-101092000D01*
X180721000Y-97028000D02*
X179578000Y-98171000D01*
X185039000Y-97028000D02*
X194437000Y-97028000D01*
D24*
X188849000Y-102870000D02*
X183134000Y-102870000D01*
X183134000Y-102870000D02*
X182499000Y-103505000D01*
X182499000Y-103505000D02*
X182499000Y-109982000D01*
X182499000Y-109982000D02*
X183134000Y-110617000D01*
X183134000Y-110617000D02*
X184150000Y-110617000D01*
X183324500Y-104267000D02*
X183324500Y-108331000D01*
X183578500Y-108585000D02*
X184150000Y-108585000D01*
X183896000Y-103632000D02*
X183324500Y-104267000D01*
X190119000Y-103632000D02*
X183896000Y-103632000D01*
X183324500Y-108331000D02*
X183578500Y-108585000D01*
D25*
G36*
X232918000Y-133858000D02*
X56642000Y-133858000D01*
X56642000Y-128687312D01*
X60722293Y-128687312D01*
X61125762Y-129213924D01*
X62639730Y-129857307D01*
X64284666Y-129872346D01*
X65810145Y-129256750D01*
X65874238Y-129213924D01*
X66277707Y-128687312D01*
X223282293Y-128687312D01*
X223685762Y-129213924D01*
X225199730Y-129857307D01*
X226844666Y-129872346D01*
X228370145Y-129256750D01*
X228434238Y-129213924D01*
X228837707Y-128687312D01*
X226060000Y-125909605D01*
X223282293Y-128687312D01*
X66277707Y-128687312D01*
X63500000Y-125909605D01*
X60722293Y-128687312D01*
X56642000Y-128687312D01*
X56642000Y-126514666D01*
X59357654Y-126514666D01*
X59973250Y-128040145D01*
X60016076Y-128104238D01*
X60542688Y-128507707D01*
X63320395Y-125730000D01*
X63679605Y-125730000D01*
X66457312Y-128507707D01*
X66983924Y-128104238D01*
X67627307Y-126590270D01*
X67627998Y-126514666D01*
X221917654Y-126514666D01*
X222533250Y-128040145D01*
X222576076Y-128104238D01*
X223102688Y-128507707D01*
X225880395Y-125730000D01*
X226239605Y-125730000D01*
X229017312Y-128507707D01*
X229543924Y-128104238D01*
X230187307Y-126590270D01*
X230202346Y-124945334D01*
X229586750Y-123419855D01*
X229543924Y-123355762D01*
X229017312Y-122952293D01*
X226239605Y-125730000D01*
X225880395Y-125730000D01*
X223102688Y-122952293D01*
X222576076Y-123355762D01*
X221932693Y-124869730D01*
X221917654Y-126514666D01*
X67627998Y-126514666D01*
X67642346Y-124945334D01*
X67026750Y-123419855D01*
X66983924Y-123355762D01*
X66457312Y-122952293D01*
X63679605Y-125730000D01*
X63320395Y-125730000D01*
X60542688Y-122952293D01*
X60016076Y-123355762D01*
X59372693Y-124869730D01*
X59357654Y-126514666D01*
X56642000Y-126514666D01*
X56642000Y-122772688D01*
X60722293Y-122772688D01*
X63500000Y-125550395D01*
X66277707Y-122772688D01*
X223282293Y-122772688D01*
X226060000Y-125550395D01*
X228837707Y-122772688D01*
X228434238Y-122246076D01*
X226920270Y-121602693D01*
X225275334Y-121587654D01*
X223749855Y-122203250D01*
X223685762Y-122246076D01*
X223282293Y-122772688D01*
X66277707Y-122772688D01*
X65874238Y-122246076D01*
X64360270Y-121602693D01*
X62715334Y-121587654D01*
X61189855Y-122203250D01*
X61125762Y-122246076D01*
X60722293Y-122772688D01*
X56642000Y-122772688D01*
X56642000Y-112756677D01*
X96985794Y-112756677D01*
X97165820Y-113192372D01*
X97498875Y-113526009D01*
X97934255Y-113706794D01*
X98405677Y-113707206D01*
X98841372Y-113527180D01*
X99175009Y-113194125D01*
X99355794Y-112758745D01*
X99356206Y-112287323D01*
X99176180Y-111851628D01*
X98843125Y-111517991D01*
X98407745Y-111337206D01*
X97936323Y-111336794D01*
X97500628Y-111516820D01*
X97166991Y-111849875D01*
X96986206Y-112285255D01*
X96985794Y-112756677D01*
X56642000Y-112756677D01*
X56642000Y-105678344D01*
X72431765Y-105678344D01*
X72637617Y-106176543D01*
X73018452Y-106558043D01*
X73312264Y-106680045D01*
X73020457Y-106800617D01*
X72638957Y-107181452D01*
X72432236Y-107679291D01*
X72431765Y-108218344D01*
X72637617Y-108716543D01*
X73018452Y-109098043D01*
X73516291Y-109304764D01*
X74055344Y-109305235D01*
X74553543Y-109099383D01*
X74935043Y-108718548D01*
X75141764Y-108220709D01*
X75142235Y-107681656D01*
X74936383Y-107183457D01*
X74555548Y-106801957D01*
X74261736Y-106679955D01*
X74553543Y-106559383D01*
X74935043Y-106178548D01*
X75141764Y-105680709D01*
X75142235Y-105141656D01*
X74936383Y-104643457D01*
X74555548Y-104261957D01*
X74277884Y-104146661D01*
X74492869Y-104057611D01*
X74557169Y-103819774D01*
X73787000Y-103049605D01*
X73016831Y-103819774D01*
X73081131Y-104057611D01*
X73313172Y-104139669D01*
X73020457Y-104260617D01*
X72638957Y-104641452D01*
X72432236Y-105139291D01*
X72431765Y-105678344D01*
X56642000Y-105678344D01*
X56642000Y-102672342D01*
X72419667Y-102672342D01*
X72448108Y-103210644D01*
X72599389Y-103575869D01*
X72837226Y-103640169D01*
X73607395Y-102870000D01*
X73966605Y-102870000D01*
X74736774Y-103640169D01*
X74974611Y-103575869D01*
X75154333Y-103067658D01*
X75125892Y-102529356D01*
X74974611Y-102164131D01*
X74736774Y-102099831D01*
X73966605Y-102870000D01*
X73607395Y-102870000D01*
X72837226Y-102099831D01*
X72599389Y-102164131D01*
X72419667Y-102672342D01*
X56642000Y-102672342D01*
X56642000Y-101920226D01*
X73016831Y-101920226D01*
X73787000Y-102690395D01*
X74557169Y-101920226D01*
X74492869Y-101682389D01*
X73984658Y-101502667D01*
X73446356Y-101531108D01*
X73081131Y-101682389D01*
X73016831Y-101920226D01*
X56642000Y-101920226D01*
X56642000Y-91327344D01*
X72431765Y-91327344D01*
X72637617Y-91825543D01*
X73018452Y-92207043D01*
X73312264Y-92329045D01*
X73020457Y-92449617D01*
X72638957Y-92830452D01*
X72432236Y-93328291D01*
X72431765Y-93867344D01*
X72637617Y-94365543D01*
X73018452Y-94747043D01*
X73312264Y-94869045D01*
X73020457Y-94989617D01*
X72638957Y-95370452D01*
X72432236Y-95868291D01*
X72431765Y-96407344D01*
X72637617Y-96905543D01*
X73018452Y-97287043D01*
X73516291Y-97493764D01*
X74055344Y-97494235D01*
X74553543Y-97288383D01*
X74935043Y-96907548D01*
X75141764Y-96409709D01*
X75142000Y-96139000D01*
X76584999Y-96139000D01*
X76585000Y-96139005D01*
X76585000Y-109092995D01*
X76584999Y-109093000D01*
X76627216Y-109305235D01*
X76652367Y-109431675D01*
X76780424Y-109623327D01*
X76844210Y-109718790D01*
X77987208Y-110861787D01*
X77987210Y-110861790D01*
X78162145Y-110978677D01*
X78274325Y-111053633D01*
X78613000Y-111121001D01*
X78613005Y-111121000D01*
X105790995Y-111121000D01*
X105791000Y-111121001D01*
X106073484Y-111064810D01*
X106129675Y-111053633D01*
X106416790Y-110861790D01*
X106416791Y-110861789D01*
X107559787Y-109718792D01*
X107559790Y-109718790D01*
X107751633Y-109431675D01*
X107761148Y-109383839D01*
X107819001Y-109093000D01*
X107819000Y-109092995D01*
X107819000Y-106279677D01*
X116924794Y-106279677D01*
X117104820Y-106715372D01*
X117437875Y-107049009D01*
X117873255Y-107229794D01*
X118344677Y-107230206D01*
X118780372Y-107050180D01*
X119114009Y-106717125D01*
X119294794Y-106281745D01*
X119295206Y-105810323D01*
X119115180Y-105374628D01*
X118782125Y-105040991D01*
X118346745Y-104860206D01*
X117875323Y-104859794D01*
X117439628Y-105039820D01*
X117105991Y-105372875D01*
X116925206Y-105808255D01*
X116924794Y-106279677D01*
X107819000Y-106279677D01*
X107819000Y-104771000D01*
X126999995Y-104771000D01*
X127000000Y-104771001D01*
X127282484Y-104714810D01*
X127338675Y-104703633D01*
X127625790Y-104511790D01*
X129784787Y-102352792D01*
X129784790Y-102352790D01*
X129976633Y-102065675D01*
X129979751Y-102050000D01*
X130044001Y-101727000D01*
X130044000Y-101726995D01*
X130044000Y-100485926D01*
X130163009Y-100367125D01*
X130343794Y-99931745D01*
X130344206Y-99460323D01*
X130164180Y-99024628D01*
X130044000Y-98904238D01*
X130044000Y-93087000D01*
X148086000Y-93087000D01*
X148086000Y-94332074D01*
X147966991Y-94450875D01*
X147786206Y-94886255D01*
X147785794Y-95357677D01*
X147965820Y-95793372D01*
X148298875Y-96127009D01*
X148734255Y-96307794D01*
X149205677Y-96308206D01*
X149641372Y-96128180D01*
X149975009Y-95795125D01*
X150155794Y-95359745D01*
X150156206Y-94888323D01*
X149976180Y-94452628D01*
X149856000Y-94332238D01*
X149856000Y-93087000D01*
X162447420Y-93087000D01*
X163707000Y-94346579D01*
X163707000Y-97352962D01*
X163606683Y-97371838D01*
X163390559Y-97510910D01*
X163370683Y-97540000D01*
X161544005Y-97540000D01*
X161544000Y-97539999D01*
X161205325Y-97607367D01*
X160918210Y-97799210D01*
X160918208Y-97799213D01*
X159775210Y-98942210D01*
X159583367Y-99229325D01*
X159583367Y-99229326D01*
X159515999Y-99568000D01*
X159516000Y-99568005D01*
X159516000Y-117474995D01*
X159515999Y-117475000D01*
X159558105Y-117686675D01*
X159583367Y-117813675D01*
X159744191Y-118054367D01*
X159775210Y-118100790D01*
X161172208Y-119497787D01*
X161172210Y-119497790D01*
X161459325Y-119689633D01*
X161798000Y-119757000D01*
X203326995Y-119757000D01*
X203327000Y-119757001D01*
X203609484Y-119700810D01*
X203665675Y-119689633D01*
X203952790Y-119497790D01*
X203952791Y-119497789D01*
X205476787Y-117973792D01*
X205476790Y-117973790D01*
X205668633Y-117686675D01*
X205736000Y-117348000D01*
X205736000Y-114011426D01*
X205855009Y-113892625D01*
X206035794Y-113457245D01*
X206036206Y-112985823D01*
X205856180Y-112550128D01*
X205523125Y-112216491D01*
X205087745Y-112035706D01*
X204616323Y-112035294D01*
X204180628Y-112215320D01*
X203846991Y-112548375D01*
X203666206Y-112983755D01*
X203665794Y-113455177D01*
X203845820Y-113890872D01*
X203966000Y-114011262D01*
X203966000Y-116981421D01*
X202960420Y-117987000D01*
X162164579Y-117987000D01*
X161286000Y-117108420D01*
X161286000Y-111359677D01*
X171026794Y-111359677D01*
X171206820Y-111795372D01*
X171539875Y-112129009D01*
X171975255Y-112309794D01*
X172446677Y-112310206D01*
X172882372Y-112130180D01*
X173216009Y-111797125D01*
X173396794Y-111361745D01*
X173397206Y-110890323D01*
X173217180Y-110454628D01*
X172884125Y-110120991D01*
X172448745Y-109940206D01*
X171977323Y-109939794D01*
X171541628Y-110119820D01*
X171207991Y-110452875D01*
X171027206Y-110888255D01*
X171026794Y-111359677D01*
X161286000Y-111359677D01*
X161286000Y-105517677D01*
X171026794Y-105517677D01*
X171206820Y-105953372D01*
X171539875Y-106287009D01*
X171975255Y-106467794D01*
X172446677Y-106468206D01*
X172882372Y-106288180D01*
X173216009Y-105955125D01*
X173396794Y-105519745D01*
X173397206Y-105048323D01*
X173217180Y-104612628D01*
X172884125Y-104278991D01*
X172448745Y-104098206D01*
X171977323Y-104097794D01*
X171541628Y-104277820D01*
X171207991Y-104610875D01*
X171027206Y-105046255D01*
X171026794Y-105517677D01*
X161286000Y-105517677D01*
X161286000Y-99934580D01*
X161910579Y-99310000D01*
X163256447Y-99310000D01*
X163179866Y-99695000D01*
X163262457Y-100110212D01*
X163409315Y-100330000D01*
X163262457Y-100549788D01*
X163179866Y-100965000D01*
X163262457Y-101380212D01*
X163497655Y-101732211D01*
X163849654Y-101967409D01*
X164264866Y-102050000D01*
X164919134Y-102050000D01*
X165334346Y-101967409D01*
X165510061Y-101850000D01*
X178660295Y-101850000D01*
X178905875Y-102096009D01*
X179341255Y-102276794D01*
X179812677Y-102277206D01*
X180248372Y-102097180D01*
X180405500Y-101940326D01*
X180405500Y-107190698D01*
X179263198Y-108333000D01*
X165916463Y-108333000D01*
X165884327Y-108300808D01*
X165540799Y-108158162D01*
X165168833Y-108157838D01*
X164825057Y-108299883D01*
X164561808Y-108562673D01*
X164419162Y-108906201D01*
X164418838Y-109278167D01*
X164560883Y-109621943D01*
X164823673Y-109885192D01*
X165167201Y-110027838D01*
X165539167Y-110028162D01*
X165882943Y-109886117D01*
X165916118Y-109853000D01*
X179578000Y-109853000D01*
X179868839Y-109795148D01*
X180115401Y-109630401D01*
X181702901Y-108042901D01*
X181739000Y-107988875D01*
X181739000Y-109982000D01*
X181796852Y-110272839D01*
X181961599Y-110519401D01*
X182596599Y-111154401D01*
X182843161Y-111319148D01*
X183134000Y-111377000D01*
X183587537Y-111377000D01*
X183619673Y-111409192D01*
X183963201Y-111551838D01*
X184335167Y-111552162D01*
X184678943Y-111410117D01*
X184942192Y-111147327D01*
X185084838Y-110803799D01*
X185085162Y-110431833D01*
X184943117Y-110088057D01*
X184680327Y-109824808D01*
X184336799Y-109682162D01*
X183964833Y-109681838D01*
X183621057Y-109823883D01*
X183587882Y-109857000D01*
X183448802Y-109857000D01*
X183259000Y-109667198D01*
X183259000Y-109267998D01*
X183287660Y-109287148D01*
X183578500Y-109345000D01*
X183587537Y-109345000D01*
X183619673Y-109377192D01*
X183963201Y-109519838D01*
X184335167Y-109520162D01*
X184678943Y-109378117D01*
X184942192Y-109115327D01*
X185084838Y-108771799D01*
X185085162Y-108399833D01*
X184943117Y-108056057D01*
X184680327Y-107792808D01*
X184336799Y-107650162D01*
X184084500Y-107649942D01*
X184084500Y-104558639D01*
X184234475Y-104392000D01*
X189556537Y-104392000D01*
X189588673Y-104424192D01*
X189932201Y-104566838D01*
X190304167Y-104567162D01*
X190647943Y-104425117D01*
X190911192Y-104162327D01*
X191053838Y-103818799D01*
X191054162Y-103446833D01*
X190912117Y-103103057D01*
X190649327Y-102839808D01*
X190305799Y-102697162D01*
X189933833Y-102696838D01*
X189784098Y-102758707D01*
X189784162Y-102684833D01*
X189642117Y-102341057D01*
X189379327Y-102077808D01*
X189035799Y-101935162D01*
X188663833Y-101934838D01*
X188320057Y-102076883D01*
X188286882Y-102110000D01*
X183134000Y-102110000D01*
X182843161Y-102167852D01*
X182596599Y-102332599D01*
X181961599Y-102967599D01*
X181925500Y-103021625D01*
X181925500Y-101089302D01*
X182432802Y-100582000D01*
X192223537Y-100582000D01*
X192255673Y-100614192D01*
X192599201Y-100756838D01*
X192971167Y-100757162D01*
X193314943Y-100615117D01*
X193578192Y-100352327D01*
X193720838Y-100008799D01*
X193721162Y-99636833D01*
X193579117Y-99293057D01*
X193316327Y-99029808D01*
X192972799Y-98887162D01*
X192600833Y-98886838D01*
X192257057Y-99028883D01*
X192223882Y-99062000D01*
X182118000Y-99062000D01*
X181875414Y-99110254D01*
X181827160Y-99119852D01*
X181580599Y-99284599D01*
X180628099Y-100237099D01*
X180536228Y-100374594D01*
X180463000Y-100301238D01*
X180463000Y-98537580D01*
X181087579Y-97913000D01*
X184120939Y-97913000D01*
X184296654Y-98030409D01*
X184711866Y-98113000D01*
X185366134Y-98113000D01*
X185781346Y-98030409D01*
X185957061Y-97913000D01*
X193518939Y-97913000D01*
X193694654Y-98030409D01*
X194109866Y-98113000D01*
X194764134Y-98113000D01*
X195179346Y-98030409D01*
X195531345Y-97795211D01*
X195766543Y-97443212D01*
X195849134Y-97028000D01*
X195766543Y-96612788D01*
X195619685Y-96393000D01*
X195766543Y-96173212D01*
X195849134Y-95758000D01*
X195766543Y-95342788D01*
X195723241Y-95277981D01*
X195783431Y-95189890D01*
X195834440Y-94938000D01*
X195834440Y-94038000D01*
X195790162Y-93802683D01*
X195651090Y-93586559D01*
X195438890Y-93441569D01*
X195187000Y-93390560D01*
X193687000Y-93390560D01*
X193451683Y-93434838D01*
X193235559Y-93573910D01*
X193090569Y-93786110D01*
X193039560Y-94038000D01*
X193039560Y-94938000D01*
X193083838Y-95173317D01*
X193150978Y-95277655D01*
X193107457Y-95342788D01*
X193024866Y-95758000D01*
X193101447Y-96143000D01*
X186374553Y-96143000D01*
X186451134Y-95758000D01*
X186368543Y-95342788D01*
X186325241Y-95277981D01*
X186385431Y-95189890D01*
X186436440Y-94938000D01*
X186436440Y-94038000D01*
X186392162Y-93802683D01*
X186253090Y-93586559D01*
X186040890Y-93441569D01*
X185789000Y-93390560D01*
X184289000Y-93390560D01*
X184053683Y-93434838D01*
X183837559Y-93573910D01*
X183692569Y-93786110D01*
X183641560Y-94038000D01*
X183641560Y-94938000D01*
X183685838Y-95173317D01*
X183752978Y-95277655D01*
X183709457Y-95342788D01*
X183626866Y-95758000D01*
X183703447Y-96143000D01*
X181606000Y-96143000D01*
X181606000Y-93648973D01*
X181735698Y-93562311D01*
X182046767Y-93096764D01*
X182156000Y-92547613D01*
X182156000Y-92491387D01*
X182046767Y-91942236D01*
X181735698Y-91476689D01*
X181270151Y-91165620D01*
X180721000Y-91056387D01*
X180171849Y-91165620D01*
X179706302Y-91476689D01*
X179395233Y-91942236D01*
X179286000Y-92491387D01*
X179286000Y-92547613D01*
X179395233Y-93096764D01*
X179706302Y-93562311D01*
X179836000Y-93648973D01*
X179836000Y-96661421D01*
X178952210Y-97545210D01*
X178760367Y-97832325D01*
X178760367Y-97832326D01*
X178692999Y-98171000D01*
X178693000Y-98171005D01*
X178693000Y-100080000D01*
X172539142Y-100080000D01*
X172882372Y-99938180D01*
X173216009Y-99605125D01*
X173396794Y-99169745D01*
X173397206Y-98698323D01*
X173217180Y-98262628D01*
X172884125Y-97928991D01*
X172448745Y-97748206D01*
X171977323Y-97747794D01*
X171541628Y-97927820D01*
X171207991Y-98260875D01*
X171027206Y-98696255D01*
X171026794Y-99167677D01*
X171206820Y-99603372D01*
X171539875Y-99937009D01*
X171884237Y-100080000D01*
X165927553Y-100080000D01*
X166004134Y-99695000D01*
X165921543Y-99279788D01*
X165878241Y-99214981D01*
X165938431Y-99126890D01*
X165989440Y-98875000D01*
X165989440Y-97975000D01*
X165945162Y-97739683D01*
X165806090Y-97523559D01*
X165593890Y-97378569D01*
X165477000Y-97354898D01*
X165477000Y-93980005D01*
X165477001Y-93980000D01*
X165409633Y-93641326D01*
X165409633Y-93641325D01*
X165217790Y-93354210D01*
X165217787Y-93354208D01*
X163439790Y-91576210D01*
X163290845Y-91476689D01*
X163152675Y-91384367D01*
X163096484Y-91373190D01*
X162814000Y-91316999D01*
X162813995Y-91317000D01*
X130044000Y-91317000D01*
X130044000Y-76566580D01*
X131176579Y-75434000D01*
X146191420Y-75434000D01*
X147070000Y-76312579D01*
X147070000Y-77550568D01*
X146904946Y-77660853D01*
X146677298Y-78001553D01*
X146610183Y-77858642D01*
X146181924Y-77468355D01*
X145771890Y-77298524D01*
X145542000Y-77419845D01*
X145542000Y-78613000D01*
X145562000Y-78613000D01*
X145562000Y-78867000D01*
X145542000Y-78867000D01*
X145542000Y-80060155D01*
X145771890Y-80181476D01*
X146181924Y-80011645D01*
X146610183Y-79621358D01*
X146677298Y-79478447D01*
X146904946Y-79819147D01*
X147386715Y-80141054D01*
X147955000Y-80254093D01*
X148523285Y-80141054D01*
X149005054Y-79819147D01*
X149326961Y-79337378D01*
X149440000Y-78769093D01*
X149440000Y-78710907D01*
X149326961Y-78142622D01*
X149005054Y-77660853D01*
X148840000Y-77550568D01*
X148840000Y-75946000D01*
X148772633Y-75607325D01*
X148580790Y-75320210D01*
X148580787Y-75320208D01*
X147183790Y-73923210D01*
X147145622Y-73897707D01*
X146896675Y-73731367D01*
X146840484Y-73720190D01*
X146558000Y-73663999D01*
X146557995Y-73664000D01*
X130810005Y-73664000D01*
X130810000Y-73663999D01*
X130471326Y-73731366D01*
X130471324Y-73731367D01*
X130471325Y-73731367D01*
X130184210Y-73923210D01*
X130184208Y-73923213D01*
X128533210Y-75574210D01*
X128341367Y-75861325D01*
X128341367Y-75861326D01*
X128273999Y-76200000D01*
X128274000Y-76200005D01*
X128274000Y-98904074D01*
X128154991Y-99022875D01*
X127974206Y-99458255D01*
X127973794Y-99929677D01*
X128153820Y-100365372D01*
X128274000Y-100485762D01*
X128274000Y-101360421D01*
X126633420Y-103001000D01*
X107724926Y-103001000D01*
X107606125Y-102881991D01*
X107170745Y-102701206D01*
X106699323Y-102700794D01*
X106263628Y-102880820D01*
X105929991Y-103213875D01*
X105749206Y-103649255D01*
X105748794Y-104120677D01*
X105928820Y-104556372D01*
X106049000Y-104676762D01*
X106049000Y-108726421D01*
X105424420Y-109351000D01*
X78979579Y-109351000D01*
X78355000Y-108726420D01*
X78355000Y-107346750D01*
X79718000Y-107346750D01*
X79718000Y-107987309D01*
X79814673Y-108220698D01*
X79993301Y-108399327D01*
X80226690Y-108496000D01*
X80867250Y-108496000D01*
X81026000Y-108337250D01*
X81026000Y-107188000D01*
X81280000Y-107188000D01*
X81280000Y-108337250D01*
X81438750Y-108496000D01*
X82079310Y-108496000D01*
X82312699Y-108399327D01*
X82491327Y-108220698D01*
X82588000Y-107987309D01*
X82588000Y-107676677D01*
X96985794Y-107676677D01*
X97165820Y-108112372D01*
X97498875Y-108446009D01*
X97934255Y-108626794D01*
X98405677Y-108627206D01*
X98841372Y-108447180D01*
X99175009Y-108114125D01*
X99355794Y-107678745D01*
X99356206Y-107207323D01*
X99176180Y-106771628D01*
X98843125Y-106437991D01*
X98407745Y-106257206D01*
X97936323Y-106256794D01*
X97500628Y-106436820D01*
X97166991Y-106769875D01*
X96986206Y-107205255D01*
X96985794Y-107676677D01*
X82588000Y-107676677D01*
X82588000Y-107346750D01*
X82429250Y-107188000D01*
X81280000Y-107188000D01*
X81026000Y-107188000D01*
X79876750Y-107188000D01*
X79718000Y-107346750D01*
X78355000Y-107346750D01*
X78355000Y-106134691D01*
X79718000Y-106134691D01*
X79718000Y-106775250D01*
X79876750Y-106934000D01*
X81026000Y-106934000D01*
X81026000Y-105784750D01*
X81280000Y-105784750D01*
X81280000Y-106934000D01*
X82429250Y-106934000D01*
X82588000Y-106775250D01*
X82588000Y-106134691D01*
X82491327Y-105901302D01*
X82312699Y-105722673D01*
X82079310Y-105626000D01*
X81438750Y-105626000D01*
X81280000Y-105784750D01*
X81026000Y-105784750D01*
X80867250Y-105626000D01*
X80226690Y-105626000D01*
X79993301Y-105722673D01*
X79814673Y-105901302D01*
X79718000Y-106134691D01*
X78355000Y-106134691D01*
X78355000Y-102324000D01*
X83261560Y-102324000D01*
X83261560Y-103924000D01*
X83305838Y-104159317D01*
X83444910Y-104375441D01*
X83657110Y-104520431D01*
X83909000Y-104571440D01*
X85509000Y-104571440D01*
X85744317Y-104527162D01*
X85960441Y-104388090D01*
X86105431Y-104175890D01*
X86156440Y-103924000D01*
X86156440Y-103124000D01*
X90865887Y-103124000D01*
X90975120Y-103673151D01*
X91286189Y-104138698D01*
X91751736Y-104449767D01*
X92300887Y-104559000D01*
X92357113Y-104559000D01*
X92906264Y-104449767D01*
X93371811Y-104138698D01*
X93682880Y-103673151D01*
X93792113Y-103124000D01*
X93682880Y-102574849D01*
X93371811Y-102109302D01*
X92960807Y-101834677D01*
X116924794Y-101834677D01*
X117104820Y-102270372D01*
X117437875Y-102604009D01*
X117873255Y-102784794D01*
X118344677Y-102785206D01*
X118780372Y-102605180D01*
X119114009Y-102272125D01*
X119294794Y-101836745D01*
X119295206Y-101365323D01*
X119115180Y-100929628D01*
X118782125Y-100595991D01*
X118346745Y-100415206D01*
X117875323Y-100414794D01*
X117439628Y-100594820D01*
X117105991Y-100927875D01*
X116925206Y-101363255D01*
X116924794Y-101834677D01*
X92960807Y-101834677D01*
X92906264Y-101798233D01*
X92357113Y-101689000D01*
X92300887Y-101689000D01*
X91751736Y-101798233D01*
X91286189Y-102109302D01*
X90975120Y-102574849D01*
X90865887Y-103124000D01*
X86156440Y-103124000D01*
X86156440Y-102324000D01*
X86112162Y-102088683D01*
X85973090Y-101872559D01*
X85760890Y-101727569D01*
X85509000Y-101676560D01*
X83909000Y-101676560D01*
X83673683Y-101720838D01*
X83457559Y-101859910D01*
X83312569Y-102072110D01*
X83261560Y-102324000D01*
X78355000Y-102324000D01*
X78355000Y-99412887D01*
X79718000Y-99412887D01*
X79718000Y-99469113D01*
X79827233Y-100018264D01*
X80138302Y-100483811D01*
X80603849Y-100794880D01*
X81153000Y-100904113D01*
X81702151Y-100794880D01*
X82167698Y-100483811D01*
X82478767Y-100018264D01*
X82588000Y-99469113D01*
X82588000Y-99412887D01*
X82478767Y-98863736D01*
X82167698Y-98398189D01*
X81702151Y-98087120D01*
X81153000Y-97977887D01*
X80603849Y-98087120D01*
X80138302Y-98398189D01*
X79827233Y-98863736D01*
X79718000Y-99412887D01*
X78355000Y-99412887D01*
X78355000Y-96505580D01*
X78552521Y-96308059D01*
X78720677Y-96308206D01*
X79156372Y-96128180D01*
X79490009Y-95795125D01*
X79670794Y-95359745D01*
X79671206Y-94888323D01*
X79491180Y-94452628D01*
X79158125Y-94118991D01*
X78722745Y-93938206D01*
X78251323Y-93937794D01*
X77815628Y-94117820D01*
X77481991Y-94450875D01*
X77301206Y-94886255D01*
X77301057Y-95056363D01*
X76844210Y-95513210D01*
X76652367Y-95800325D01*
X76652367Y-95800326D01*
X76584999Y-96139000D01*
X75142000Y-96139000D01*
X75142235Y-95870656D01*
X74936383Y-95372457D01*
X74555548Y-94990957D01*
X74261736Y-94868955D01*
X74553543Y-94748383D01*
X74935043Y-94367548D01*
X75141764Y-93869709D01*
X75142235Y-93330656D01*
X74936383Y-92832457D01*
X74555548Y-92450957D01*
X74261736Y-92328955D01*
X74553543Y-92208383D01*
X74935043Y-91827548D01*
X74945785Y-91801677D01*
X97112794Y-91801677D01*
X97292820Y-92237372D01*
X97625875Y-92571009D01*
X98061255Y-92751794D01*
X98532677Y-92752206D01*
X98968372Y-92572180D01*
X99302009Y-92239125D01*
X99482794Y-91803745D01*
X99482943Y-91633637D01*
X100066787Y-91049792D01*
X100066790Y-91049790D01*
X100258633Y-90762675D01*
X100298586Y-90561820D01*
X100326001Y-90424000D01*
X100326000Y-90423995D01*
X100326000Y-90023677D01*
X119591794Y-90023677D01*
X119771820Y-90459372D01*
X120104875Y-90793009D01*
X120540255Y-90973794D01*
X121011677Y-90974206D01*
X121447372Y-90794180D01*
X121781009Y-90461125D01*
X121961794Y-90025745D01*
X121962206Y-89554323D01*
X121782180Y-89118628D01*
X121449125Y-88784991D01*
X121013745Y-88604206D01*
X120542323Y-88603794D01*
X120106628Y-88783820D01*
X119772991Y-89116875D01*
X119592206Y-89552255D01*
X119591794Y-90023677D01*
X100326000Y-90023677D01*
X100326000Y-84821580D01*
X101077579Y-84070000D01*
X114949420Y-84070000D01*
X115701000Y-84821579D01*
X115701000Y-86839074D01*
X115581991Y-86957875D01*
X115401206Y-87393255D01*
X115400794Y-87864677D01*
X115580820Y-88300372D01*
X115913875Y-88634009D01*
X116349255Y-88814794D01*
X116820677Y-88815206D01*
X117256372Y-88635180D01*
X117376762Y-88515000D01*
X124713995Y-88515000D01*
X124714000Y-88515001D01*
X124996484Y-88458810D01*
X125052675Y-88447633D01*
X125339790Y-88255790D01*
X127498787Y-86096792D01*
X127498790Y-86096790D01*
X127690633Y-85809675D01*
X127705644Y-85734210D01*
X127758001Y-85471000D01*
X127758000Y-85470995D01*
X127758000Y-74534580D01*
X129271579Y-73021000D01*
X149366420Y-73021000D01*
X150372000Y-74026579D01*
X150372000Y-80395000D01*
X143760000Y-80395000D01*
X143760000Y-80230854D01*
X143960317Y-80193162D01*
X144176441Y-80054090D01*
X144321431Y-79841890D01*
X144343301Y-79733893D01*
X144648076Y-80011645D01*
X145058110Y-80181476D01*
X145288000Y-80060155D01*
X145288000Y-78867000D01*
X145268000Y-78867000D01*
X145268000Y-78613000D01*
X145288000Y-78613000D01*
X145288000Y-77419845D01*
X145058110Y-77298524D01*
X144648076Y-77468355D01*
X144345063Y-77744501D01*
X144328162Y-77654683D01*
X144189090Y-77438559D01*
X143976890Y-77293569D01*
X143725000Y-77242560D01*
X142025000Y-77242560D01*
X141789683Y-77286838D01*
X141573559Y-77425910D01*
X141428569Y-77638110D01*
X141377560Y-77890000D01*
X141377560Y-79590000D01*
X141421838Y-79825317D01*
X141560910Y-80041441D01*
X141773110Y-80186431D01*
X141990000Y-80230352D01*
X141990000Y-80913421D01*
X141238420Y-81665000D01*
X133096000Y-81665000D01*
X132757325Y-81732367D01*
X132470210Y-81924210D01*
X132470208Y-81924213D01*
X131073210Y-83321210D01*
X130881367Y-83608325D01*
X130875590Y-83637367D01*
X130813999Y-83947000D01*
X130814000Y-83947005D01*
X130814000Y-86839074D01*
X130694991Y-86957875D01*
X130514206Y-87393255D01*
X130513794Y-87864677D01*
X130693820Y-88300372D01*
X131026875Y-88634009D01*
X131462255Y-88814794D01*
X131933677Y-88815206D01*
X132369372Y-88635180D01*
X132703009Y-88302125D01*
X132883794Y-87866745D01*
X132884206Y-87395323D01*
X132704180Y-86959628D01*
X132584000Y-86839238D01*
X132584000Y-84313580D01*
X133462579Y-83435000D01*
X141604995Y-83435000D01*
X141605000Y-83435001D01*
X141887484Y-83378810D01*
X141943675Y-83367633D01*
X142230790Y-83175790D01*
X142230791Y-83175789D01*
X143241579Y-82165000D01*
X148086000Y-82165000D01*
X148086000Y-82394074D01*
X147966991Y-82512875D01*
X147786206Y-82948255D01*
X147785794Y-83419677D01*
X147965820Y-83855372D01*
X148298875Y-84189009D01*
X148734255Y-84369794D01*
X149205677Y-84370206D01*
X149641372Y-84190180D01*
X149975009Y-83857125D01*
X150155794Y-83421745D01*
X150156206Y-82950323D01*
X149976180Y-82514628D01*
X149856000Y-82394238D01*
X149856000Y-82165000D01*
X162955420Y-82165000D01*
X163707000Y-82916579D01*
X163707000Y-85287962D01*
X163606683Y-85306838D01*
X163390559Y-85445910D01*
X163245569Y-85658110D01*
X163194560Y-85910000D01*
X163194560Y-86810000D01*
X163238838Y-87045317D01*
X163305978Y-87149655D01*
X163262457Y-87214788D01*
X163179866Y-87630000D01*
X163262457Y-88045212D01*
X163409315Y-88265000D01*
X163262457Y-88484788D01*
X163179866Y-88900000D01*
X163262457Y-89315212D01*
X163497655Y-89667211D01*
X163849654Y-89902409D01*
X164264866Y-89985000D01*
X164919134Y-89985000D01*
X165334346Y-89902409D01*
X165510061Y-89785000D01*
X167527421Y-89785000D01*
X167776208Y-90033787D01*
X167776210Y-90033790D01*
X168063325Y-90225633D01*
X168402000Y-90293000D01*
X188355420Y-90293000D01*
X188470985Y-90408564D01*
X188299206Y-90822255D01*
X188298794Y-91293677D01*
X188478820Y-91729372D01*
X188811875Y-92063009D01*
X189247255Y-92243794D01*
X189718677Y-92244206D01*
X190154372Y-92064180D01*
X190488009Y-91731125D01*
X190668794Y-91295745D01*
X190669206Y-90824323D01*
X190489180Y-90388628D01*
X190393719Y-90293000D01*
X198007420Y-90293000D01*
X198122985Y-90408564D01*
X197951206Y-90822255D01*
X197950794Y-91293677D01*
X198130820Y-91729372D01*
X198251000Y-91849762D01*
X198251000Y-92328995D01*
X198250999Y-92329000D01*
X198283301Y-92491387D01*
X198318367Y-92667675D01*
X198428470Y-92832457D01*
X198510210Y-92954790D01*
X199399208Y-93843787D01*
X199399210Y-93843790D01*
X199686325Y-94035633D01*
X199698225Y-94038000D01*
X200025000Y-94103001D01*
X200025005Y-94103000D01*
X200420420Y-94103000D01*
X200537000Y-94219579D01*
X200537000Y-109953074D01*
X200417991Y-110071875D01*
X200237206Y-110507255D01*
X200236794Y-110978677D01*
X200416820Y-111414372D01*
X200749875Y-111748009D01*
X201185255Y-111928794D01*
X201656677Y-111929206D01*
X202092372Y-111749180D01*
X202426009Y-111416125D01*
X202606794Y-110980745D01*
X202607206Y-110509323D01*
X202427180Y-110073628D01*
X202307000Y-109953238D01*
X202307000Y-93853005D01*
X202307001Y-93853000D01*
X202239634Y-93514326D01*
X202116910Y-93330656D01*
X202047790Y-93227210D01*
X202047787Y-93227208D01*
X201412790Y-92592210D01*
X201303971Y-92519500D01*
X201125675Y-92400367D01*
X201069484Y-92389190D01*
X200787000Y-92332999D01*
X200786995Y-92333000D01*
X200391579Y-92333000D01*
X200021000Y-91962420D01*
X200021000Y-91849926D01*
X200140009Y-91731125D01*
X200320794Y-91295745D01*
X200321206Y-90824323D01*
X200147812Y-90404677D01*
X209380794Y-90404677D01*
X209560820Y-90840372D01*
X209893875Y-91174009D01*
X210329255Y-91354794D01*
X210800677Y-91355206D01*
X211236372Y-91175180D01*
X211570009Y-90842125D01*
X211750794Y-90406745D01*
X211751206Y-89935323D01*
X211571180Y-89499628D01*
X211238125Y-89165991D01*
X210802745Y-88985206D01*
X210331323Y-88984794D01*
X209895628Y-89164820D01*
X209561991Y-89497875D01*
X209381206Y-89933255D01*
X209380794Y-90404677D01*
X200147812Y-90404677D01*
X200141180Y-90388628D01*
X200021000Y-90268238D01*
X200021000Y-90170005D01*
X200021001Y-90170000D01*
X199953633Y-89831326D01*
X199953633Y-89831325D01*
X199761790Y-89544210D01*
X199761787Y-89544208D01*
X198999790Y-88782210D01*
X198980020Y-88769000D01*
X218200420Y-88769000D01*
X218698000Y-89266579D01*
X218698000Y-101825074D01*
X218578991Y-101943875D01*
X218398206Y-102379255D01*
X218397794Y-102850677D01*
X218577820Y-103286372D01*
X218910875Y-103620009D01*
X219346255Y-103800794D01*
X219817677Y-103801206D01*
X220253372Y-103621180D01*
X220587009Y-103288125D01*
X220767794Y-102852745D01*
X220768206Y-102381323D01*
X220588180Y-101945628D01*
X220468000Y-101825238D01*
X220468000Y-88900005D01*
X220468001Y-88900000D01*
X220400633Y-88561326D01*
X220400633Y-88561325D01*
X220208790Y-88274210D01*
X220208787Y-88274208D01*
X219192790Y-87258210D01*
X219072197Y-87177633D01*
X218905675Y-87066367D01*
X218849484Y-87055190D01*
X218567000Y-86998999D01*
X218566995Y-86999000D01*
X169657579Y-86999000D01*
X168392790Y-85734210D01*
X168350087Y-85705677D01*
X168105675Y-85542367D01*
X168049484Y-85531190D01*
X167767000Y-85474999D01*
X167766995Y-85475000D01*
X165816669Y-85475000D01*
X165806090Y-85458559D01*
X165593890Y-85313569D01*
X165477000Y-85289898D01*
X165477000Y-84099500D01*
X179273560Y-84099500D01*
X179273560Y-85699500D01*
X179317838Y-85934817D01*
X179456910Y-86150941D01*
X179669110Y-86295931D01*
X179921000Y-86346940D01*
X181521000Y-86346940D01*
X181756317Y-86302662D01*
X181972441Y-86163590D01*
X182111768Y-85959677D01*
X209380794Y-85959677D01*
X209560820Y-86395372D01*
X209893875Y-86729009D01*
X210329255Y-86909794D01*
X210800677Y-86910206D01*
X211236372Y-86730180D01*
X211570009Y-86397125D01*
X211750794Y-85961745D01*
X211751206Y-85490323D01*
X211571180Y-85054628D01*
X211238125Y-84720991D01*
X210802745Y-84540206D01*
X210331323Y-84539794D01*
X209895628Y-84719820D01*
X209561991Y-85052875D01*
X209381206Y-85488255D01*
X209380794Y-85959677D01*
X182111768Y-85959677D01*
X182117431Y-85951390D01*
X182168440Y-85699500D01*
X182168440Y-84099500D01*
X182124162Y-83864183D01*
X181985090Y-83648059D01*
X181772890Y-83503069D01*
X181521000Y-83452060D01*
X179921000Y-83452060D01*
X179685683Y-83496338D01*
X179469559Y-83635410D01*
X179324569Y-83847610D01*
X179273560Y-84099500D01*
X165477000Y-84099500D01*
X165477000Y-82550005D01*
X165477001Y-82550000D01*
X165409633Y-82211325D01*
X165217790Y-81924210D01*
X165217787Y-81924208D01*
X163947790Y-80654210D01*
X163660675Y-80462367D01*
X163604484Y-80451190D01*
X163322000Y-80394999D01*
X163321995Y-80395000D01*
X152142000Y-80395000D01*
X152142000Y-78017000D01*
X185065560Y-78017000D01*
X185065560Y-79717000D01*
X185109838Y-79952317D01*
X185248910Y-80168441D01*
X185461110Y-80313431D01*
X185713000Y-80364440D01*
X187413000Y-80364440D01*
X187648317Y-80320162D01*
X187864441Y-80181090D01*
X188009431Y-79968890D01*
X188031301Y-79860893D01*
X188336076Y-80138645D01*
X188746110Y-80308476D01*
X188976000Y-80187155D01*
X188976000Y-78994000D01*
X189230000Y-78994000D01*
X189230000Y-80187155D01*
X189459890Y-80308476D01*
X189869924Y-80138645D01*
X190298183Y-79748358D01*
X190544486Y-79223892D01*
X190423819Y-78994000D01*
X189230000Y-78994000D01*
X188976000Y-78994000D01*
X188956000Y-78994000D01*
X188956000Y-78740000D01*
X188976000Y-78740000D01*
X188976000Y-77546845D01*
X189230000Y-77546845D01*
X189230000Y-78740000D01*
X190423819Y-78740000D01*
X190544486Y-78510108D01*
X190298183Y-77985642D01*
X190193236Y-77890000D01*
X210465560Y-77890000D01*
X210465560Y-79590000D01*
X210509838Y-79825317D01*
X210648910Y-80041441D01*
X210861110Y-80186431D01*
X211113000Y-80237440D01*
X212813000Y-80237440D01*
X213048317Y-80193162D01*
X213264441Y-80054090D01*
X213409431Y-79841890D01*
X213431301Y-79733893D01*
X213736076Y-80011645D01*
X214146110Y-80181476D01*
X214376000Y-80060155D01*
X214376000Y-78867000D01*
X214630000Y-78867000D01*
X214630000Y-80060155D01*
X214859890Y-80181476D01*
X215269924Y-80011645D01*
X215698183Y-79621358D01*
X215944486Y-79096892D01*
X215823819Y-78867000D01*
X214630000Y-78867000D01*
X214376000Y-78867000D01*
X214356000Y-78867000D01*
X214356000Y-78613000D01*
X214376000Y-78613000D01*
X214376000Y-77419845D01*
X214630000Y-77419845D01*
X214630000Y-78613000D01*
X215823819Y-78613000D01*
X215944486Y-78383108D01*
X215698183Y-77858642D01*
X215269924Y-77468355D01*
X214859890Y-77298524D01*
X214630000Y-77419845D01*
X214376000Y-77419845D01*
X214146110Y-77298524D01*
X213736076Y-77468355D01*
X213433063Y-77744501D01*
X213416162Y-77654683D01*
X213277090Y-77438559D01*
X213064890Y-77293569D01*
X212813000Y-77242560D01*
X211113000Y-77242560D01*
X210877683Y-77286838D01*
X210661559Y-77425910D01*
X210516569Y-77638110D01*
X210465560Y-77890000D01*
X190193236Y-77890000D01*
X189869924Y-77595355D01*
X189459890Y-77425524D01*
X189230000Y-77546845D01*
X188976000Y-77546845D01*
X188746110Y-77425524D01*
X188336076Y-77595355D01*
X188033063Y-77871501D01*
X188016162Y-77781683D01*
X187877090Y-77565559D01*
X187664890Y-77420569D01*
X187413000Y-77369560D01*
X185713000Y-77369560D01*
X185477683Y-77413838D01*
X185261559Y-77552910D01*
X185116569Y-77765110D01*
X185065560Y-78017000D01*
X152142000Y-78017000D01*
X152142000Y-74077312D01*
X223282293Y-74077312D01*
X223685762Y-74603924D01*
X225199730Y-75247307D01*
X226844666Y-75262346D01*
X228370145Y-74646750D01*
X228434238Y-74603924D01*
X228837707Y-74077312D01*
X226060000Y-71299605D01*
X223282293Y-74077312D01*
X152142000Y-74077312D01*
X152142000Y-73660000D01*
X152074633Y-73321325D01*
X151882790Y-73034210D01*
X151882787Y-73034208D01*
X150753246Y-71904666D01*
X221917654Y-71904666D01*
X222533250Y-73430145D01*
X222576076Y-73494238D01*
X223102688Y-73897707D01*
X225880395Y-71120000D01*
X226239605Y-71120000D01*
X229017312Y-73897707D01*
X229543924Y-73494238D01*
X230187307Y-71980270D01*
X230202346Y-70335334D01*
X229586750Y-68809855D01*
X229543924Y-68745762D01*
X229017312Y-68342293D01*
X226239605Y-71120000D01*
X225880395Y-71120000D01*
X223102688Y-68342293D01*
X222576076Y-68745762D01*
X221932693Y-70259730D01*
X221917654Y-71904666D01*
X150753246Y-71904666D01*
X150358790Y-71510210D01*
X150071675Y-71318367D01*
X149977353Y-71299605D01*
X149733000Y-71250999D01*
X149732995Y-71251000D01*
X128905005Y-71251000D01*
X128905000Y-71250999D01*
X128660647Y-71299605D01*
X128566325Y-71318367D01*
X128279210Y-71510210D01*
X128279208Y-71510213D01*
X126247210Y-73542210D01*
X126055367Y-73829325D01*
X126055367Y-73829326D01*
X125987999Y-74168000D01*
X125988000Y-74168005D01*
X125988000Y-85104421D01*
X124347420Y-86745000D01*
X117471000Y-86745000D01*
X117471000Y-85705677D01*
X119591794Y-85705677D01*
X119771820Y-86141372D01*
X120104875Y-86475009D01*
X120540255Y-86655794D01*
X121011677Y-86656206D01*
X121447372Y-86476180D01*
X121781009Y-86143125D01*
X121961794Y-85707745D01*
X121962206Y-85236323D01*
X121782180Y-84800628D01*
X121449125Y-84466991D01*
X121013745Y-84286206D01*
X120542323Y-84285794D01*
X120106628Y-84465820D01*
X119772991Y-84798875D01*
X119592206Y-85234255D01*
X119591794Y-85705677D01*
X117471000Y-85705677D01*
X117471000Y-84455005D01*
X117471001Y-84455000D01*
X117403633Y-84116325D01*
X117372680Y-84070000D01*
X117211790Y-83829210D01*
X117211787Y-83829208D01*
X115941790Y-82559210D01*
X115872444Y-82512875D01*
X115654675Y-82367367D01*
X115598484Y-82356190D01*
X115316000Y-82299999D01*
X115315995Y-82300000D01*
X100711005Y-82300000D01*
X100711000Y-82299999D01*
X100372325Y-82367367D01*
X100085210Y-82559210D01*
X100085208Y-82559213D01*
X98815210Y-83829210D01*
X98623367Y-84116325D01*
X98623367Y-84116326D01*
X98555999Y-84455000D01*
X98556000Y-84455005D01*
X98556000Y-90057421D01*
X98231480Y-90381941D01*
X98063323Y-90381794D01*
X97627628Y-90561820D01*
X97293991Y-90894875D01*
X97113206Y-91330255D01*
X97112794Y-91801677D01*
X74945785Y-91801677D01*
X75141764Y-91329709D01*
X75142235Y-90790656D01*
X74936383Y-90292457D01*
X74555548Y-89910957D01*
X74057709Y-89704236D01*
X73518656Y-89703765D01*
X73020457Y-89909617D01*
X72638957Y-90290452D01*
X72432236Y-90788291D01*
X72431765Y-91327344D01*
X56642000Y-91327344D01*
X56642000Y-79895000D01*
X86532560Y-79895000D01*
X86532560Y-81395000D01*
X86576838Y-81630317D01*
X86715910Y-81846441D01*
X86928110Y-81991431D01*
X87180000Y-82042440D01*
X88080000Y-82042440D01*
X88315317Y-81998162D01*
X88419655Y-81931022D01*
X88484788Y-81974543D01*
X88900000Y-82057134D01*
X89315212Y-81974543D01*
X89539274Y-81824830D01*
X89875999Y-81989408D01*
X90043000Y-81862502D01*
X90043000Y-80772000D01*
X90297000Y-80772000D01*
X90297000Y-81862502D01*
X90464001Y-81989408D01*
X90847408Y-81802013D01*
X91123808Y-81477544D01*
X91255000Y-81072000D01*
X91255000Y-80772000D01*
X90297000Y-80772000D01*
X90043000Y-80772000D01*
X90023000Y-80772000D01*
X90023000Y-80518000D01*
X90043000Y-80518000D01*
X90043000Y-79427498D01*
X90297000Y-79427498D01*
X90297000Y-80518000D01*
X91255000Y-80518000D01*
X91255000Y-80218000D01*
X91123808Y-79812456D01*
X90847408Y-79487987D01*
X90464001Y-79300592D01*
X90297000Y-79427498D01*
X90043000Y-79427498D01*
X89875999Y-79300592D01*
X89539274Y-79465170D01*
X89315212Y-79315457D01*
X88900000Y-79232866D01*
X88484788Y-79315457D01*
X88419981Y-79358759D01*
X88331890Y-79298569D01*
X88080000Y-79247560D01*
X87180000Y-79247560D01*
X86944683Y-79291838D01*
X86728559Y-79430910D01*
X86583569Y-79643110D01*
X86532560Y-79895000D01*
X56642000Y-79895000D01*
X56642000Y-74077312D01*
X60722293Y-74077312D01*
X61125762Y-74603924D01*
X62639730Y-75247307D01*
X64284666Y-75262346D01*
X65810145Y-74646750D01*
X65874238Y-74603924D01*
X66277707Y-74077312D01*
X63500000Y-71299605D01*
X60722293Y-74077312D01*
X56642000Y-74077312D01*
X56642000Y-71904666D01*
X59357654Y-71904666D01*
X59973250Y-73430145D01*
X60016076Y-73494238D01*
X60542688Y-73897707D01*
X63320395Y-71120000D01*
X63679605Y-71120000D01*
X66457312Y-73897707D01*
X66983924Y-73494238D01*
X67627307Y-71980270D01*
X67642346Y-70335334D01*
X67026750Y-68809855D01*
X66983924Y-68745762D01*
X66457312Y-68342293D01*
X63679605Y-71120000D01*
X63320395Y-71120000D01*
X60542688Y-68342293D01*
X60016076Y-68745762D01*
X59372693Y-70259730D01*
X59357654Y-71904666D01*
X56642000Y-71904666D01*
X56642000Y-68162688D01*
X60722293Y-68162688D01*
X63500000Y-70940395D01*
X66277707Y-68162688D01*
X223282293Y-68162688D01*
X226060000Y-70940395D01*
X228837707Y-68162688D01*
X228434238Y-67636076D01*
X226920270Y-66992693D01*
X225275334Y-66977654D01*
X223749855Y-67593250D01*
X223685762Y-67636076D01*
X223282293Y-68162688D01*
X66277707Y-68162688D01*
X65874238Y-67636076D01*
X64360270Y-66992693D01*
X62715334Y-66977654D01*
X61189855Y-67593250D01*
X61125762Y-67636076D01*
X60722293Y-68162688D01*
X56642000Y-68162688D01*
X56642000Y-64262000D01*
X232918000Y-64262000D01*
X232918000Y-133858000D01*
X232918000Y-133858000D01*
G37*
X232918000Y-133858000D02*
X56642000Y-133858000D01*
X56642000Y-128687312D01*
X60722293Y-128687312D01*
X61125762Y-129213924D01*
X62639730Y-129857307D01*
X64284666Y-129872346D01*
X65810145Y-129256750D01*
X65874238Y-129213924D01*
X66277707Y-128687312D01*
X223282293Y-128687312D01*
X223685762Y-129213924D01*
X225199730Y-129857307D01*
X226844666Y-129872346D01*
X228370145Y-129256750D01*
X228434238Y-129213924D01*
X228837707Y-128687312D01*
X226060000Y-125909605D01*
X223282293Y-128687312D01*
X66277707Y-128687312D01*
X63500000Y-125909605D01*
X60722293Y-128687312D01*
X56642000Y-128687312D01*
X56642000Y-126514666D01*
X59357654Y-126514666D01*
X59973250Y-128040145D01*
X60016076Y-128104238D01*
X60542688Y-128507707D01*
X63320395Y-125730000D01*
X63679605Y-125730000D01*
X66457312Y-128507707D01*
X66983924Y-128104238D01*
X67627307Y-126590270D01*
X67627998Y-126514666D01*
X221917654Y-126514666D01*
X222533250Y-128040145D01*
X222576076Y-128104238D01*
X223102688Y-128507707D01*
X225880395Y-125730000D01*
X226239605Y-125730000D01*
X229017312Y-128507707D01*
X229543924Y-128104238D01*
X230187307Y-126590270D01*
X230202346Y-124945334D01*
X229586750Y-123419855D01*
X229543924Y-123355762D01*
X229017312Y-122952293D01*
X226239605Y-125730000D01*
X225880395Y-125730000D01*
X223102688Y-122952293D01*
X222576076Y-123355762D01*
X221932693Y-124869730D01*
X221917654Y-126514666D01*
X67627998Y-126514666D01*
X67642346Y-124945334D01*
X67026750Y-123419855D01*
X66983924Y-123355762D01*
X66457312Y-122952293D01*
X63679605Y-125730000D01*
X63320395Y-125730000D01*
X60542688Y-122952293D01*
X60016076Y-123355762D01*
X59372693Y-124869730D01*
X59357654Y-126514666D01*
X56642000Y-126514666D01*
X56642000Y-122772688D01*
X60722293Y-122772688D01*
X63500000Y-125550395D01*
X66277707Y-122772688D01*
X223282293Y-122772688D01*
X226060000Y-125550395D01*
X228837707Y-122772688D01*
X228434238Y-122246076D01*
X226920270Y-121602693D01*
X225275334Y-121587654D01*
X223749855Y-122203250D01*
X223685762Y-122246076D01*
X223282293Y-122772688D01*
X66277707Y-122772688D01*
X65874238Y-122246076D01*
X64360270Y-121602693D01*
X62715334Y-121587654D01*
X61189855Y-122203250D01*
X61125762Y-122246076D01*
X60722293Y-122772688D01*
X56642000Y-122772688D01*
X56642000Y-112756677D01*
X96985794Y-112756677D01*
X97165820Y-113192372D01*
X97498875Y-113526009D01*
X97934255Y-113706794D01*
X98405677Y-113707206D01*
X98841372Y-113527180D01*
X99175009Y-113194125D01*
X99355794Y-112758745D01*
X99356206Y-112287323D01*
X99176180Y-111851628D01*
X98843125Y-111517991D01*
X98407745Y-111337206D01*
X97936323Y-111336794D01*
X97500628Y-111516820D01*
X97166991Y-111849875D01*
X96986206Y-112285255D01*
X96985794Y-112756677D01*
X56642000Y-112756677D01*
X56642000Y-105678344D01*
X72431765Y-105678344D01*
X72637617Y-106176543D01*
X73018452Y-106558043D01*
X73312264Y-106680045D01*
X73020457Y-106800617D01*
X72638957Y-107181452D01*
X72432236Y-107679291D01*
X72431765Y-108218344D01*
X72637617Y-108716543D01*
X73018452Y-109098043D01*
X73516291Y-109304764D01*
X74055344Y-109305235D01*
X74553543Y-109099383D01*
X74935043Y-108718548D01*
X75141764Y-108220709D01*
X75142235Y-107681656D01*
X74936383Y-107183457D01*
X74555548Y-106801957D01*
X74261736Y-106679955D01*
X74553543Y-106559383D01*
X74935043Y-106178548D01*
X75141764Y-105680709D01*
X75142235Y-105141656D01*
X74936383Y-104643457D01*
X74555548Y-104261957D01*
X74277884Y-104146661D01*
X74492869Y-104057611D01*
X74557169Y-103819774D01*
X73787000Y-103049605D01*
X73016831Y-103819774D01*
X73081131Y-104057611D01*
X73313172Y-104139669D01*
X73020457Y-104260617D01*
X72638957Y-104641452D01*
X72432236Y-105139291D01*
X72431765Y-105678344D01*
X56642000Y-105678344D01*
X56642000Y-102672342D01*
X72419667Y-102672342D01*
X72448108Y-103210644D01*
X72599389Y-103575869D01*
X72837226Y-103640169D01*
X73607395Y-102870000D01*
X73966605Y-102870000D01*
X74736774Y-103640169D01*
X74974611Y-103575869D01*
X75154333Y-103067658D01*
X75125892Y-102529356D01*
X74974611Y-102164131D01*
X74736774Y-102099831D01*
X73966605Y-102870000D01*
X73607395Y-102870000D01*
X72837226Y-102099831D01*
X72599389Y-102164131D01*
X72419667Y-102672342D01*
X56642000Y-102672342D01*
X56642000Y-101920226D01*
X73016831Y-101920226D01*
X73787000Y-102690395D01*
X74557169Y-101920226D01*
X74492869Y-101682389D01*
X73984658Y-101502667D01*
X73446356Y-101531108D01*
X73081131Y-101682389D01*
X73016831Y-101920226D01*
X56642000Y-101920226D01*
X56642000Y-91327344D01*
X72431765Y-91327344D01*
X72637617Y-91825543D01*
X73018452Y-92207043D01*
X73312264Y-92329045D01*
X73020457Y-92449617D01*
X72638957Y-92830452D01*
X72432236Y-93328291D01*
X72431765Y-93867344D01*
X72637617Y-94365543D01*
X73018452Y-94747043D01*
X73312264Y-94869045D01*
X73020457Y-94989617D01*
X72638957Y-95370452D01*
X72432236Y-95868291D01*
X72431765Y-96407344D01*
X72637617Y-96905543D01*
X73018452Y-97287043D01*
X73516291Y-97493764D01*
X74055344Y-97494235D01*
X74553543Y-97288383D01*
X74935043Y-96907548D01*
X75141764Y-96409709D01*
X75142000Y-96139000D01*
X76584999Y-96139000D01*
X76585000Y-96139005D01*
X76585000Y-109092995D01*
X76584999Y-109093000D01*
X76627216Y-109305235D01*
X76652367Y-109431675D01*
X76780424Y-109623327D01*
X76844210Y-109718790D01*
X77987208Y-110861787D01*
X77987210Y-110861790D01*
X78162145Y-110978677D01*
X78274325Y-111053633D01*
X78613000Y-111121001D01*
X78613005Y-111121000D01*
X105790995Y-111121000D01*
X105791000Y-111121001D01*
X106073484Y-111064810D01*
X106129675Y-111053633D01*
X106416790Y-110861790D01*
X106416791Y-110861789D01*
X107559787Y-109718792D01*
X107559790Y-109718790D01*
X107751633Y-109431675D01*
X107761148Y-109383839D01*
X107819001Y-109093000D01*
X107819000Y-109092995D01*
X107819000Y-106279677D01*
X116924794Y-106279677D01*
X117104820Y-106715372D01*
X117437875Y-107049009D01*
X117873255Y-107229794D01*
X118344677Y-107230206D01*
X118780372Y-107050180D01*
X119114009Y-106717125D01*
X119294794Y-106281745D01*
X119295206Y-105810323D01*
X119115180Y-105374628D01*
X118782125Y-105040991D01*
X118346745Y-104860206D01*
X117875323Y-104859794D01*
X117439628Y-105039820D01*
X117105991Y-105372875D01*
X116925206Y-105808255D01*
X116924794Y-106279677D01*
X107819000Y-106279677D01*
X107819000Y-104771000D01*
X126999995Y-104771000D01*
X127000000Y-104771001D01*
X127282484Y-104714810D01*
X127338675Y-104703633D01*
X127625790Y-104511790D01*
X129784787Y-102352792D01*
X129784790Y-102352790D01*
X129976633Y-102065675D01*
X129979751Y-102050000D01*
X130044001Y-101727000D01*
X130044000Y-101726995D01*
X130044000Y-100485926D01*
X130163009Y-100367125D01*
X130343794Y-99931745D01*
X130344206Y-99460323D01*
X130164180Y-99024628D01*
X130044000Y-98904238D01*
X130044000Y-93087000D01*
X148086000Y-93087000D01*
X148086000Y-94332074D01*
X147966991Y-94450875D01*
X147786206Y-94886255D01*
X147785794Y-95357677D01*
X147965820Y-95793372D01*
X148298875Y-96127009D01*
X148734255Y-96307794D01*
X149205677Y-96308206D01*
X149641372Y-96128180D01*
X149975009Y-95795125D01*
X150155794Y-95359745D01*
X150156206Y-94888323D01*
X149976180Y-94452628D01*
X149856000Y-94332238D01*
X149856000Y-93087000D01*
X162447420Y-93087000D01*
X163707000Y-94346579D01*
X163707000Y-97352962D01*
X163606683Y-97371838D01*
X163390559Y-97510910D01*
X163370683Y-97540000D01*
X161544005Y-97540000D01*
X161544000Y-97539999D01*
X161205325Y-97607367D01*
X160918210Y-97799210D01*
X160918208Y-97799213D01*
X159775210Y-98942210D01*
X159583367Y-99229325D01*
X159583367Y-99229326D01*
X159515999Y-99568000D01*
X159516000Y-99568005D01*
X159516000Y-117474995D01*
X159515999Y-117475000D01*
X159558105Y-117686675D01*
X159583367Y-117813675D01*
X159744191Y-118054367D01*
X159775210Y-118100790D01*
X161172208Y-119497787D01*
X161172210Y-119497790D01*
X161459325Y-119689633D01*
X161798000Y-119757000D01*
X203326995Y-119757000D01*
X203327000Y-119757001D01*
X203609484Y-119700810D01*
X203665675Y-119689633D01*
X203952790Y-119497790D01*
X203952791Y-119497789D01*
X205476787Y-117973792D01*
X205476790Y-117973790D01*
X205668633Y-117686675D01*
X205736000Y-117348000D01*
X205736000Y-114011426D01*
X205855009Y-113892625D01*
X206035794Y-113457245D01*
X206036206Y-112985823D01*
X205856180Y-112550128D01*
X205523125Y-112216491D01*
X205087745Y-112035706D01*
X204616323Y-112035294D01*
X204180628Y-112215320D01*
X203846991Y-112548375D01*
X203666206Y-112983755D01*
X203665794Y-113455177D01*
X203845820Y-113890872D01*
X203966000Y-114011262D01*
X203966000Y-116981421D01*
X202960420Y-117987000D01*
X162164579Y-117987000D01*
X161286000Y-117108420D01*
X161286000Y-111359677D01*
X171026794Y-111359677D01*
X171206820Y-111795372D01*
X171539875Y-112129009D01*
X171975255Y-112309794D01*
X172446677Y-112310206D01*
X172882372Y-112130180D01*
X173216009Y-111797125D01*
X173396794Y-111361745D01*
X173397206Y-110890323D01*
X173217180Y-110454628D01*
X172884125Y-110120991D01*
X172448745Y-109940206D01*
X171977323Y-109939794D01*
X171541628Y-110119820D01*
X171207991Y-110452875D01*
X171027206Y-110888255D01*
X171026794Y-111359677D01*
X161286000Y-111359677D01*
X161286000Y-105517677D01*
X171026794Y-105517677D01*
X171206820Y-105953372D01*
X171539875Y-106287009D01*
X171975255Y-106467794D01*
X172446677Y-106468206D01*
X172882372Y-106288180D01*
X173216009Y-105955125D01*
X173396794Y-105519745D01*
X173397206Y-105048323D01*
X173217180Y-104612628D01*
X172884125Y-104278991D01*
X172448745Y-104098206D01*
X171977323Y-104097794D01*
X171541628Y-104277820D01*
X171207991Y-104610875D01*
X171027206Y-105046255D01*
X171026794Y-105517677D01*
X161286000Y-105517677D01*
X161286000Y-99934580D01*
X161910579Y-99310000D01*
X163256447Y-99310000D01*
X163179866Y-99695000D01*
X163262457Y-100110212D01*
X163409315Y-100330000D01*
X163262457Y-100549788D01*
X163179866Y-100965000D01*
X163262457Y-101380212D01*
X163497655Y-101732211D01*
X163849654Y-101967409D01*
X164264866Y-102050000D01*
X164919134Y-102050000D01*
X165334346Y-101967409D01*
X165510061Y-101850000D01*
X178660295Y-101850000D01*
X178905875Y-102096009D01*
X179341255Y-102276794D01*
X179812677Y-102277206D01*
X180248372Y-102097180D01*
X180405500Y-101940326D01*
X180405500Y-107190698D01*
X179263198Y-108333000D01*
X165916463Y-108333000D01*
X165884327Y-108300808D01*
X165540799Y-108158162D01*
X165168833Y-108157838D01*
X164825057Y-108299883D01*
X164561808Y-108562673D01*
X164419162Y-108906201D01*
X164418838Y-109278167D01*
X164560883Y-109621943D01*
X164823673Y-109885192D01*
X165167201Y-110027838D01*
X165539167Y-110028162D01*
X165882943Y-109886117D01*
X165916118Y-109853000D01*
X179578000Y-109853000D01*
X179868839Y-109795148D01*
X180115401Y-109630401D01*
X181702901Y-108042901D01*
X181739000Y-107988875D01*
X181739000Y-109982000D01*
X181796852Y-110272839D01*
X181961599Y-110519401D01*
X182596599Y-111154401D01*
X182843161Y-111319148D01*
X183134000Y-111377000D01*
X183587537Y-111377000D01*
X183619673Y-111409192D01*
X183963201Y-111551838D01*
X184335167Y-111552162D01*
X184678943Y-111410117D01*
X184942192Y-111147327D01*
X185084838Y-110803799D01*
X185085162Y-110431833D01*
X184943117Y-110088057D01*
X184680327Y-109824808D01*
X184336799Y-109682162D01*
X183964833Y-109681838D01*
X183621057Y-109823883D01*
X183587882Y-109857000D01*
X183448802Y-109857000D01*
X183259000Y-109667198D01*
X183259000Y-109267998D01*
X183287660Y-109287148D01*
X183578500Y-109345000D01*
X183587537Y-109345000D01*
X183619673Y-109377192D01*
X183963201Y-109519838D01*
X184335167Y-109520162D01*
X184678943Y-109378117D01*
X184942192Y-109115327D01*
X185084838Y-108771799D01*
X185085162Y-108399833D01*
X184943117Y-108056057D01*
X184680327Y-107792808D01*
X184336799Y-107650162D01*
X184084500Y-107649942D01*
X184084500Y-104558639D01*
X184234475Y-104392000D01*
X189556537Y-104392000D01*
X189588673Y-104424192D01*
X189932201Y-104566838D01*
X190304167Y-104567162D01*
X190647943Y-104425117D01*
X190911192Y-104162327D01*
X191053838Y-103818799D01*
X191054162Y-103446833D01*
X190912117Y-103103057D01*
X190649327Y-102839808D01*
X190305799Y-102697162D01*
X189933833Y-102696838D01*
X189784098Y-102758707D01*
X189784162Y-102684833D01*
X189642117Y-102341057D01*
X189379327Y-102077808D01*
X189035799Y-101935162D01*
X188663833Y-101934838D01*
X188320057Y-102076883D01*
X188286882Y-102110000D01*
X183134000Y-102110000D01*
X182843161Y-102167852D01*
X182596599Y-102332599D01*
X181961599Y-102967599D01*
X181925500Y-103021625D01*
X181925500Y-101089302D01*
X182432802Y-100582000D01*
X192223537Y-100582000D01*
X192255673Y-100614192D01*
X192599201Y-100756838D01*
X192971167Y-100757162D01*
X193314943Y-100615117D01*
X193578192Y-100352327D01*
X193720838Y-100008799D01*
X193721162Y-99636833D01*
X193579117Y-99293057D01*
X193316327Y-99029808D01*
X192972799Y-98887162D01*
X192600833Y-98886838D01*
X192257057Y-99028883D01*
X192223882Y-99062000D01*
X182118000Y-99062000D01*
X181875414Y-99110254D01*
X181827160Y-99119852D01*
X181580599Y-99284599D01*
X180628099Y-100237099D01*
X180536228Y-100374594D01*
X180463000Y-100301238D01*
X180463000Y-98537580D01*
X181087579Y-97913000D01*
X184120939Y-97913000D01*
X184296654Y-98030409D01*
X184711866Y-98113000D01*
X185366134Y-98113000D01*
X185781346Y-98030409D01*
X185957061Y-97913000D01*
X193518939Y-97913000D01*
X193694654Y-98030409D01*
X194109866Y-98113000D01*
X194764134Y-98113000D01*
X195179346Y-98030409D01*
X195531345Y-97795211D01*
X195766543Y-97443212D01*
X195849134Y-97028000D01*
X195766543Y-96612788D01*
X195619685Y-96393000D01*
X195766543Y-96173212D01*
X195849134Y-95758000D01*
X195766543Y-95342788D01*
X195723241Y-95277981D01*
X195783431Y-95189890D01*
X195834440Y-94938000D01*
X195834440Y-94038000D01*
X195790162Y-93802683D01*
X195651090Y-93586559D01*
X195438890Y-93441569D01*
X195187000Y-93390560D01*
X193687000Y-93390560D01*
X193451683Y-93434838D01*
X193235559Y-93573910D01*
X193090569Y-93786110D01*
X193039560Y-94038000D01*
X193039560Y-94938000D01*
X193083838Y-95173317D01*
X193150978Y-95277655D01*
X193107457Y-95342788D01*
X193024866Y-95758000D01*
X193101447Y-96143000D01*
X186374553Y-96143000D01*
X186451134Y-95758000D01*
X186368543Y-95342788D01*
X186325241Y-95277981D01*
X186385431Y-95189890D01*
X186436440Y-94938000D01*
X186436440Y-94038000D01*
X186392162Y-93802683D01*
X186253090Y-93586559D01*
X186040890Y-93441569D01*
X185789000Y-93390560D01*
X184289000Y-93390560D01*
X184053683Y-93434838D01*
X183837559Y-93573910D01*
X183692569Y-93786110D01*
X183641560Y-94038000D01*
X183641560Y-94938000D01*
X183685838Y-95173317D01*
X183752978Y-95277655D01*
X183709457Y-95342788D01*
X183626866Y-95758000D01*
X183703447Y-96143000D01*
X181606000Y-96143000D01*
X181606000Y-93648973D01*
X181735698Y-93562311D01*
X182046767Y-93096764D01*
X182156000Y-92547613D01*
X182156000Y-92491387D01*
X182046767Y-91942236D01*
X181735698Y-91476689D01*
X181270151Y-91165620D01*
X180721000Y-91056387D01*
X180171849Y-91165620D01*
X179706302Y-91476689D01*
X179395233Y-91942236D01*
X179286000Y-92491387D01*
X179286000Y-92547613D01*
X179395233Y-93096764D01*
X179706302Y-93562311D01*
X179836000Y-93648973D01*
X179836000Y-96661421D01*
X178952210Y-97545210D01*
X178760367Y-97832325D01*
X178760367Y-97832326D01*
X178692999Y-98171000D01*
X178693000Y-98171005D01*
X178693000Y-100080000D01*
X172539142Y-100080000D01*
X172882372Y-99938180D01*
X173216009Y-99605125D01*
X173396794Y-99169745D01*
X173397206Y-98698323D01*
X173217180Y-98262628D01*
X172884125Y-97928991D01*
X172448745Y-97748206D01*
X171977323Y-97747794D01*
X171541628Y-97927820D01*
X171207991Y-98260875D01*
X171027206Y-98696255D01*
X171026794Y-99167677D01*
X171206820Y-99603372D01*
X171539875Y-99937009D01*
X171884237Y-100080000D01*
X165927553Y-100080000D01*
X166004134Y-99695000D01*
X165921543Y-99279788D01*
X165878241Y-99214981D01*
X165938431Y-99126890D01*
X165989440Y-98875000D01*
X165989440Y-97975000D01*
X165945162Y-97739683D01*
X165806090Y-97523559D01*
X165593890Y-97378569D01*
X165477000Y-97354898D01*
X165477000Y-93980005D01*
X165477001Y-93980000D01*
X165409633Y-93641326D01*
X165409633Y-93641325D01*
X165217790Y-93354210D01*
X165217787Y-93354208D01*
X163439790Y-91576210D01*
X163290845Y-91476689D01*
X163152675Y-91384367D01*
X163096484Y-91373190D01*
X162814000Y-91316999D01*
X162813995Y-91317000D01*
X130044000Y-91317000D01*
X130044000Y-76566580D01*
X131176579Y-75434000D01*
X146191420Y-75434000D01*
X147070000Y-76312579D01*
X147070000Y-77550568D01*
X146904946Y-77660853D01*
X146677298Y-78001553D01*
X146610183Y-77858642D01*
X146181924Y-77468355D01*
X145771890Y-77298524D01*
X145542000Y-77419845D01*
X145542000Y-78613000D01*
X145562000Y-78613000D01*
X145562000Y-78867000D01*
X145542000Y-78867000D01*
X145542000Y-80060155D01*
X145771890Y-80181476D01*
X146181924Y-80011645D01*
X146610183Y-79621358D01*
X146677298Y-79478447D01*
X146904946Y-79819147D01*
X147386715Y-80141054D01*
X147955000Y-80254093D01*
X148523285Y-80141054D01*
X149005054Y-79819147D01*
X149326961Y-79337378D01*
X149440000Y-78769093D01*
X149440000Y-78710907D01*
X149326961Y-78142622D01*
X149005054Y-77660853D01*
X148840000Y-77550568D01*
X148840000Y-75946000D01*
X148772633Y-75607325D01*
X148580790Y-75320210D01*
X148580787Y-75320208D01*
X147183790Y-73923210D01*
X147145622Y-73897707D01*
X146896675Y-73731367D01*
X146840484Y-73720190D01*
X146558000Y-73663999D01*
X146557995Y-73664000D01*
X130810005Y-73664000D01*
X130810000Y-73663999D01*
X130471326Y-73731366D01*
X130471324Y-73731367D01*
X130471325Y-73731367D01*
X130184210Y-73923210D01*
X130184208Y-73923213D01*
X128533210Y-75574210D01*
X128341367Y-75861325D01*
X128341367Y-75861326D01*
X128273999Y-76200000D01*
X128274000Y-76200005D01*
X128274000Y-98904074D01*
X128154991Y-99022875D01*
X127974206Y-99458255D01*
X127973794Y-99929677D01*
X128153820Y-100365372D01*
X128274000Y-100485762D01*
X128274000Y-101360421D01*
X126633420Y-103001000D01*
X107724926Y-103001000D01*
X107606125Y-102881991D01*
X107170745Y-102701206D01*
X106699323Y-102700794D01*
X106263628Y-102880820D01*
X105929991Y-103213875D01*
X105749206Y-103649255D01*
X105748794Y-104120677D01*
X105928820Y-104556372D01*
X106049000Y-104676762D01*
X106049000Y-108726421D01*
X105424420Y-109351000D01*
X78979579Y-109351000D01*
X78355000Y-108726420D01*
X78355000Y-107346750D01*
X79718000Y-107346750D01*
X79718000Y-107987309D01*
X79814673Y-108220698D01*
X79993301Y-108399327D01*
X80226690Y-108496000D01*
X80867250Y-108496000D01*
X81026000Y-108337250D01*
X81026000Y-107188000D01*
X81280000Y-107188000D01*
X81280000Y-108337250D01*
X81438750Y-108496000D01*
X82079310Y-108496000D01*
X82312699Y-108399327D01*
X82491327Y-108220698D01*
X82588000Y-107987309D01*
X82588000Y-107676677D01*
X96985794Y-107676677D01*
X97165820Y-108112372D01*
X97498875Y-108446009D01*
X97934255Y-108626794D01*
X98405677Y-108627206D01*
X98841372Y-108447180D01*
X99175009Y-108114125D01*
X99355794Y-107678745D01*
X99356206Y-107207323D01*
X99176180Y-106771628D01*
X98843125Y-106437991D01*
X98407745Y-106257206D01*
X97936323Y-106256794D01*
X97500628Y-106436820D01*
X97166991Y-106769875D01*
X96986206Y-107205255D01*
X96985794Y-107676677D01*
X82588000Y-107676677D01*
X82588000Y-107346750D01*
X82429250Y-107188000D01*
X81280000Y-107188000D01*
X81026000Y-107188000D01*
X79876750Y-107188000D01*
X79718000Y-107346750D01*
X78355000Y-107346750D01*
X78355000Y-106134691D01*
X79718000Y-106134691D01*
X79718000Y-106775250D01*
X79876750Y-106934000D01*
X81026000Y-106934000D01*
X81026000Y-105784750D01*
X81280000Y-105784750D01*
X81280000Y-106934000D01*
X82429250Y-106934000D01*
X82588000Y-106775250D01*
X82588000Y-106134691D01*
X82491327Y-105901302D01*
X82312699Y-105722673D01*
X82079310Y-105626000D01*
X81438750Y-105626000D01*
X81280000Y-105784750D01*
X81026000Y-105784750D01*
X80867250Y-105626000D01*
X80226690Y-105626000D01*
X79993301Y-105722673D01*
X79814673Y-105901302D01*
X79718000Y-106134691D01*
X78355000Y-106134691D01*
X78355000Y-102324000D01*
X83261560Y-102324000D01*
X83261560Y-103924000D01*
X83305838Y-104159317D01*
X83444910Y-104375441D01*
X83657110Y-104520431D01*
X83909000Y-104571440D01*
X85509000Y-104571440D01*
X85744317Y-104527162D01*
X85960441Y-104388090D01*
X86105431Y-104175890D01*
X86156440Y-103924000D01*
X86156440Y-103124000D01*
X90865887Y-103124000D01*
X90975120Y-103673151D01*
X91286189Y-104138698D01*
X91751736Y-104449767D01*
X92300887Y-104559000D01*
X92357113Y-104559000D01*
X92906264Y-104449767D01*
X93371811Y-104138698D01*
X93682880Y-103673151D01*
X93792113Y-103124000D01*
X93682880Y-102574849D01*
X93371811Y-102109302D01*
X92960807Y-101834677D01*
X116924794Y-101834677D01*
X117104820Y-102270372D01*
X117437875Y-102604009D01*
X117873255Y-102784794D01*
X118344677Y-102785206D01*
X118780372Y-102605180D01*
X119114009Y-102272125D01*
X119294794Y-101836745D01*
X119295206Y-101365323D01*
X119115180Y-100929628D01*
X118782125Y-100595991D01*
X118346745Y-100415206D01*
X117875323Y-100414794D01*
X117439628Y-100594820D01*
X117105991Y-100927875D01*
X116925206Y-101363255D01*
X116924794Y-101834677D01*
X92960807Y-101834677D01*
X92906264Y-101798233D01*
X92357113Y-101689000D01*
X92300887Y-101689000D01*
X91751736Y-101798233D01*
X91286189Y-102109302D01*
X90975120Y-102574849D01*
X90865887Y-103124000D01*
X86156440Y-103124000D01*
X86156440Y-102324000D01*
X86112162Y-102088683D01*
X85973090Y-101872559D01*
X85760890Y-101727569D01*
X85509000Y-101676560D01*
X83909000Y-101676560D01*
X83673683Y-101720838D01*
X83457559Y-101859910D01*
X83312569Y-102072110D01*
X83261560Y-102324000D01*
X78355000Y-102324000D01*
X78355000Y-99412887D01*
X79718000Y-99412887D01*
X79718000Y-99469113D01*
X79827233Y-100018264D01*
X80138302Y-100483811D01*
X80603849Y-100794880D01*
X81153000Y-100904113D01*
X81702151Y-100794880D01*
X82167698Y-100483811D01*
X82478767Y-100018264D01*
X82588000Y-99469113D01*
X82588000Y-99412887D01*
X82478767Y-98863736D01*
X82167698Y-98398189D01*
X81702151Y-98087120D01*
X81153000Y-97977887D01*
X80603849Y-98087120D01*
X80138302Y-98398189D01*
X79827233Y-98863736D01*
X79718000Y-99412887D01*
X78355000Y-99412887D01*
X78355000Y-96505580D01*
X78552521Y-96308059D01*
X78720677Y-96308206D01*
X79156372Y-96128180D01*
X79490009Y-95795125D01*
X79670794Y-95359745D01*
X79671206Y-94888323D01*
X79491180Y-94452628D01*
X79158125Y-94118991D01*
X78722745Y-93938206D01*
X78251323Y-93937794D01*
X77815628Y-94117820D01*
X77481991Y-94450875D01*
X77301206Y-94886255D01*
X77301057Y-95056363D01*
X76844210Y-95513210D01*
X76652367Y-95800325D01*
X76652367Y-95800326D01*
X76584999Y-96139000D01*
X75142000Y-96139000D01*
X75142235Y-95870656D01*
X74936383Y-95372457D01*
X74555548Y-94990957D01*
X74261736Y-94868955D01*
X74553543Y-94748383D01*
X74935043Y-94367548D01*
X75141764Y-93869709D01*
X75142235Y-93330656D01*
X74936383Y-92832457D01*
X74555548Y-92450957D01*
X74261736Y-92328955D01*
X74553543Y-92208383D01*
X74935043Y-91827548D01*
X74945785Y-91801677D01*
X97112794Y-91801677D01*
X97292820Y-92237372D01*
X97625875Y-92571009D01*
X98061255Y-92751794D01*
X98532677Y-92752206D01*
X98968372Y-92572180D01*
X99302009Y-92239125D01*
X99482794Y-91803745D01*
X99482943Y-91633637D01*
X100066787Y-91049792D01*
X100066790Y-91049790D01*
X100258633Y-90762675D01*
X100298586Y-90561820D01*
X100326001Y-90424000D01*
X100326000Y-90423995D01*
X100326000Y-90023677D01*
X119591794Y-90023677D01*
X119771820Y-90459372D01*
X120104875Y-90793009D01*
X120540255Y-90973794D01*
X121011677Y-90974206D01*
X121447372Y-90794180D01*
X121781009Y-90461125D01*
X121961794Y-90025745D01*
X121962206Y-89554323D01*
X121782180Y-89118628D01*
X121449125Y-88784991D01*
X121013745Y-88604206D01*
X120542323Y-88603794D01*
X120106628Y-88783820D01*
X119772991Y-89116875D01*
X119592206Y-89552255D01*
X119591794Y-90023677D01*
X100326000Y-90023677D01*
X100326000Y-84821580D01*
X101077579Y-84070000D01*
X114949420Y-84070000D01*
X115701000Y-84821579D01*
X115701000Y-86839074D01*
X115581991Y-86957875D01*
X115401206Y-87393255D01*
X115400794Y-87864677D01*
X115580820Y-88300372D01*
X115913875Y-88634009D01*
X116349255Y-88814794D01*
X116820677Y-88815206D01*
X117256372Y-88635180D01*
X117376762Y-88515000D01*
X124713995Y-88515000D01*
X124714000Y-88515001D01*
X124996484Y-88458810D01*
X125052675Y-88447633D01*
X125339790Y-88255790D01*
X127498787Y-86096792D01*
X127498790Y-86096790D01*
X127690633Y-85809675D01*
X127705644Y-85734210D01*
X127758001Y-85471000D01*
X127758000Y-85470995D01*
X127758000Y-74534580D01*
X129271579Y-73021000D01*
X149366420Y-73021000D01*
X150372000Y-74026579D01*
X150372000Y-80395000D01*
X143760000Y-80395000D01*
X143760000Y-80230854D01*
X143960317Y-80193162D01*
X144176441Y-80054090D01*
X144321431Y-79841890D01*
X144343301Y-79733893D01*
X144648076Y-80011645D01*
X145058110Y-80181476D01*
X145288000Y-80060155D01*
X145288000Y-78867000D01*
X145268000Y-78867000D01*
X145268000Y-78613000D01*
X145288000Y-78613000D01*
X145288000Y-77419845D01*
X145058110Y-77298524D01*
X144648076Y-77468355D01*
X144345063Y-77744501D01*
X144328162Y-77654683D01*
X144189090Y-77438559D01*
X143976890Y-77293569D01*
X143725000Y-77242560D01*
X142025000Y-77242560D01*
X141789683Y-77286838D01*
X141573559Y-77425910D01*
X141428569Y-77638110D01*
X141377560Y-77890000D01*
X141377560Y-79590000D01*
X141421838Y-79825317D01*
X141560910Y-80041441D01*
X141773110Y-80186431D01*
X141990000Y-80230352D01*
X141990000Y-80913421D01*
X141238420Y-81665000D01*
X133096000Y-81665000D01*
X132757325Y-81732367D01*
X132470210Y-81924210D01*
X132470208Y-81924213D01*
X131073210Y-83321210D01*
X130881367Y-83608325D01*
X130875590Y-83637367D01*
X130813999Y-83947000D01*
X130814000Y-83947005D01*
X130814000Y-86839074D01*
X130694991Y-86957875D01*
X130514206Y-87393255D01*
X130513794Y-87864677D01*
X130693820Y-88300372D01*
X131026875Y-88634009D01*
X131462255Y-88814794D01*
X131933677Y-88815206D01*
X132369372Y-88635180D01*
X132703009Y-88302125D01*
X132883794Y-87866745D01*
X132884206Y-87395323D01*
X132704180Y-86959628D01*
X132584000Y-86839238D01*
X132584000Y-84313580D01*
X133462579Y-83435000D01*
X141604995Y-83435000D01*
X141605000Y-83435001D01*
X141887484Y-83378810D01*
X141943675Y-83367633D01*
X142230790Y-83175790D01*
X142230791Y-83175789D01*
X143241579Y-82165000D01*
X148086000Y-82165000D01*
X148086000Y-82394074D01*
X147966991Y-82512875D01*
X147786206Y-82948255D01*
X147785794Y-83419677D01*
X147965820Y-83855372D01*
X148298875Y-84189009D01*
X148734255Y-84369794D01*
X149205677Y-84370206D01*
X149641372Y-84190180D01*
X149975009Y-83857125D01*
X150155794Y-83421745D01*
X150156206Y-82950323D01*
X149976180Y-82514628D01*
X149856000Y-82394238D01*
X149856000Y-82165000D01*
X162955420Y-82165000D01*
X163707000Y-82916579D01*
X163707000Y-85287962D01*
X163606683Y-85306838D01*
X163390559Y-85445910D01*
X163245569Y-85658110D01*
X163194560Y-85910000D01*
X163194560Y-86810000D01*
X163238838Y-87045317D01*
X163305978Y-87149655D01*
X163262457Y-87214788D01*
X163179866Y-87630000D01*
X163262457Y-88045212D01*
X163409315Y-88265000D01*
X163262457Y-88484788D01*
X163179866Y-88900000D01*
X163262457Y-89315212D01*
X163497655Y-89667211D01*
X163849654Y-89902409D01*
X164264866Y-89985000D01*
X164919134Y-89985000D01*
X165334346Y-89902409D01*
X165510061Y-89785000D01*
X167527421Y-89785000D01*
X167776208Y-90033787D01*
X167776210Y-90033790D01*
X168063325Y-90225633D01*
X168402000Y-90293000D01*
X188355420Y-90293000D01*
X188470985Y-90408564D01*
X188299206Y-90822255D01*
X188298794Y-91293677D01*
X188478820Y-91729372D01*
X188811875Y-92063009D01*
X189247255Y-92243794D01*
X189718677Y-92244206D01*
X190154372Y-92064180D01*
X190488009Y-91731125D01*
X190668794Y-91295745D01*
X190669206Y-90824323D01*
X190489180Y-90388628D01*
X190393719Y-90293000D01*
X198007420Y-90293000D01*
X198122985Y-90408564D01*
X197951206Y-90822255D01*
X197950794Y-91293677D01*
X198130820Y-91729372D01*
X198251000Y-91849762D01*
X198251000Y-92328995D01*
X198250999Y-92329000D01*
X198283301Y-92491387D01*
X198318367Y-92667675D01*
X198428470Y-92832457D01*
X198510210Y-92954790D01*
X199399208Y-93843787D01*
X199399210Y-93843790D01*
X199686325Y-94035633D01*
X199698225Y-94038000D01*
X200025000Y-94103001D01*
X200025005Y-94103000D01*
X200420420Y-94103000D01*
X200537000Y-94219579D01*
X200537000Y-109953074D01*
X200417991Y-110071875D01*
X200237206Y-110507255D01*
X200236794Y-110978677D01*
X200416820Y-111414372D01*
X200749875Y-111748009D01*
X201185255Y-111928794D01*
X201656677Y-111929206D01*
X202092372Y-111749180D01*
X202426009Y-111416125D01*
X202606794Y-110980745D01*
X202607206Y-110509323D01*
X202427180Y-110073628D01*
X202307000Y-109953238D01*
X202307000Y-93853005D01*
X202307001Y-93853000D01*
X202239634Y-93514326D01*
X202116910Y-93330656D01*
X202047790Y-93227210D01*
X202047787Y-93227208D01*
X201412790Y-92592210D01*
X201303971Y-92519500D01*
X201125675Y-92400367D01*
X201069484Y-92389190D01*
X200787000Y-92332999D01*
X200786995Y-92333000D01*
X200391579Y-92333000D01*
X200021000Y-91962420D01*
X200021000Y-91849926D01*
X200140009Y-91731125D01*
X200320794Y-91295745D01*
X200321206Y-90824323D01*
X200147812Y-90404677D01*
X209380794Y-90404677D01*
X209560820Y-90840372D01*
X209893875Y-91174009D01*
X210329255Y-91354794D01*
X210800677Y-91355206D01*
X211236372Y-91175180D01*
X211570009Y-90842125D01*
X211750794Y-90406745D01*
X211751206Y-89935323D01*
X211571180Y-89499628D01*
X211238125Y-89165991D01*
X210802745Y-88985206D01*
X210331323Y-88984794D01*
X209895628Y-89164820D01*
X209561991Y-89497875D01*
X209381206Y-89933255D01*
X209380794Y-90404677D01*
X200147812Y-90404677D01*
X200141180Y-90388628D01*
X200021000Y-90268238D01*
X200021000Y-90170005D01*
X200021001Y-90170000D01*
X199953633Y-89831326D01*
X199953633Y-89831325D01*
X199761790Y-89544210D01*
X199761787Y-89544208D01*
X198999790Y-88782210D01*
X198980020Y-88769000D01*
X218200420Y-88769000D01*
X218698000Y-89266579D01*
X218698000Y-101825074D01*
X218578991Y-101943875D01*
X218398206Y-102379255D01*
X218397794Y-102850677D01*
X218577820Y-103286372D01*
X218910875Y-103620009D01*
X219346255Y-103800794D01*
X219817677Y-103801206D01*
X220253372Y-103621180D01*
X220587009Y-103288125D01*
X220767794Y-102852745D01*
X220768206Y-102381323D01*
X220588180Y-101945628D01*
X220468000Y-101825238D01*
X220468000Y-88900005D01*
X220468001Y-88900000D01*
X220400633Y-88561326D01*
X220400633Y-88561325D01*
X220208790Y-88274210D01*
X220208787Y-88274208D01*
X219192790Y-87258210D01*
X219072197Y-87177633D01*
X218905675Y-87066367D01*
X218849484Y-87055190D01*
X218567000Y-86998999D01*
X218566995Y-86999000D01*
X169657579Y-86999000D01*
X168392790Y-85734210D01*
X168350087Y-85705677D01*
X168105675Y-85542367D01*
X168049484Y-85531190D01*
X167767000Y-85474999D01*
X167766995Y-85475000D01*
X165816669Y-85475000D01*
X165806090Y-85458559D01*
X165593890Y-85313569D01*
X165477000Y-85289898D01*
X165477000Y-84099500D01*
X179273560Y-84099500D01*
X179273560Y-85699500D01*
X179317838Y-85934817D01*
X179456910Y-86150941D01*
X179669110Y-86295931D01*
X179921000Y-86346940D01*
X181521000Y-86346940D01*
X181756317Y-86302662D01*
X181972441Y-86163590D01*
X182111768Y-85959677D01*
X209380794Y-85959677D01*
X209560820Y-86395372D01*
X209893875Y-86729009D01*
X210329255Y-86909794D01*
X210800677Y-86910206D01*
X211236372Y-86730180D01*
X211570009Y-86397125D01*
X211750794Y-85961745D01*
X211751206Y-85490323D01*
X211571180Y-85054628D01*
X211238125Y-84720991D01*
X210802745Y-84540206D01*
X210331323Y-84539794D01*
X209895628Y-84719820D01*
X209561991Y-85052875D01*
X209381206Y-85488255D01*
X209380794Y-85959677D01*
X182111768Y-85959677D01*
X182117431Y-85951390D01*
X182168440Y-85699500D01*
X182168440Y-84099500D01*
X182124162Y-83864183D01*
X181985090Y-83648059D01*
X181772890Y-83503069D01*
X181521000Y-83452060D01*
X179921000Y-83452060D01*
X179685683Y-83496338D01*
X179469559Y-83635410D01*
X179324569Y-83847610D01*
X179273560Y-84099500D01*
X165477000Y-84099500D01*
X165477000Y-82550005D01*
X165477001Y-82550000D01*
X165409633Y-82211325D01*
X165217790Y-81924210D01*
X165217787Y-81924208D01*
X163947790Y-80654210D01*
X163660675Y-80462367D01*
X163604484Y-80451190D01*
X163322000Y-80394999D01*
X163321995Y-80395000D01*
X152142000Y-80395000D01*
X152142000Y-78017000D01*
X185065560Y-78017000D01*
X185065560Y-79717000D01*
X185109838Y-79952317D01*
X185248910Y-80168441D01*
X185461110Y-80313431D01*
X185713000Y-80364440D01*
X187413000Y-80364440D01*
X187648317Y-80320162D01*
X187864441Y-80181090D01*
X188009431Y-79968890D01*
X188031301Y-79860893D01*
X188336076Y-80138645D01*
X188746110Y-80308476D01*
X188976000Y-80187155D01*
X188976000Y-78994000D01*
X189230000Y-78994000D01*
X189230000Y-80187155D01*
X189459890Y-80308476D01*
X189869924Y-80138645D01*
X190298183Y-79748358D01*
X190544486Y-79223892D01*
X190423819Y-78994000D01*
X189230000Y-78994000D01*
X188976000Y-78994000D01*
X188956000Y-78994000D01*
X188956000Y-78740000D01*
X188976000Y-78740000D01*
X188976000Y-77546845D01*
X189230000Y-77546845D01*
X189230000Y-78740000D01*
X190423819Y-78740000D01*
X190544486Y-78510108D01*
X190298183Y-77985642D01*
X190193236Y-77890000D01*
X210465560Y-77890000D01*
X210465560Y-79590000D01*
X210509838Y-79825317D01*
X210648910Y-80041441D01*
X210861110Y-80186431D01*
X211113000Y-80237440D01*
X212813000Y-80237440D01*
X213048317Y-80193162D01*
X213264441Y-80054090D01*
X213409431Y-79841890D01*
X213431301Y-79733893D01*
X213736076Y-80011645D01*
X214146110Y-80181476D01*
X214376000Y-80060155D01*
X214376000Y-78867000D01*
X214630000Y-78867000D01*
X214630000Y-80060155D01*
X214859890Y-80181476D01*
X215269924Y-80011645D01*
X215698183Y-79621358D01*
X215944486Y-79096892D01*
X215823819Y-78867000D01*
X214630000Y-78867000D01*
X214376000Y-78867000D01*
X214356000Y-78867000D01*
X214356000Y-78613000D01*
X214376000Y-78613000D01*
X214376000Y-77419845D01*
X214630000Y-77419845D01*
X214630000Y-78613000D01*
X215823819Y-78613000D01*
X215944486Y-78383108D01*
X215698183Y-77858642D01*
X215269924Y-77468355D01*
X214859890Y-77298524D01*
X214630000Y-77419845D01*
X214376000Y-77419845D01*
X214146110Y-77298524D01*
X213736076Y-77468355D01*
X213433063Y-77744501D01*
X213416162Y-77654683D01*
X213277090Y-77438559D01*
X213064890Y-77293569D01*
X212813000Y-77242560D01*
X211113000Y-77242560D01*
X210877683Y-77286838D01*
X210661559Y-77425910D01*
X210516569Y-77638110D01*
X210465560Y-77890000D01*
X190193236Y-77890000D01*
X189869924Y-77595355D01*
X189459890Y-77425524D01*
X189230000Y-77546845D01*
X188976000Y-77546845D01*
X188746110Y-77425524D01*
X188336076Y-77595355D01*
X188033063Y-77871501D01*
X188016162Y-77781683D01*
X187877090Y-77565559D01*
X187664890Y-77420569D01*
X187413000Y-77369560D01*
X185713000Y-77369560D01*
X185477683Y-77413838D01*
X185261559Y-77552910D01*
X185116569Y-77765110D01*
X185065560Y-78017000D01*
X152142000Y-78017000D01*
X152142000Y-74077312D01*
X223282293Y-74077312D01*
X223685762Y-74603924D01*
X225199730Y-75247307D01*
X226844666Y-75262346D01*
X228370145Y-74646750D01*
X228434238Y-74603924D01*
X228837707Y-74077312D01*
X226060000Y-71299605D01*
X223282293Y-74077312D01*
X152142000Y-74077312D01*
X152142000Y-73660000D01*
X152074633Y-73321325D01*
X151882790Y-73034210D01*
X151882787Y-73034208D01*
X150753246Y-71904666D01*
X221917654Y-71904666D01*
X222533250Y-73430145D01*
X222576076Y-73494238D01*
X223102688Y-73897707D01*
X225880395Y-71120000D01*
X226239605Y-71120000D01*
X229017312Y-73897707D01*
X229543924Y-73494238D01*
X230187307Y-71980270D01*
X230202346Y-70335334D01*
X229586750Y-68809855D01*
X229543924Y-68745762D01*
X229017312Y-68342293D01*
X226239605Y-71120000D01*
X225880395Y-71120000D01*
X223102688Y-68342293D01*
X222576076Y-68745762D01*
X221932693Y-70259730D01*
X221917654Y-71904666D01*
X150753246Y-71904666D01*
X150358790Y-71510210D01*
X150071675Y-71318367D01*
X149977353Y-71299605D01*
X149733000Y-71250999D01*
X149732995Y-71251000D01*
X128905005Y-71251000D01*
X128905000Y-71250999D01*
X128660647Y-71299605D01*
X128566325Y-71318367D01*
X128279210Y-71510210D01*
X128279208Y-71510213D01*
X126247210Y-73542210D01*
X126055367Y-73829325D01*
X126055367Y-73829326D01*
X125987999Y-74168000D01*
X125988000Y-74168005D01*
X125988000Y-85104421D01*
X124347420Y-86745000D01*
X117471000Y-86745000D01*
X117471000Y-85705677D01*
X119591794Y-85705677D01*
X119771820Y-86141372D01*
X120104875Y-86475009D01*
X120540255Y-86655794D01*
X121011677Y-86656206D01*
X121447372Y-86476180D01*
X121781009Y-86143125D01*
X121961794Y-85707745D01*
X121962206Y-85236323D01*
X121782180Y-84800628D01*
X121449125Y-84466991D01*
X121013745Y-84286206D01*
X120542323Y-84285794D01*
X120106628Y-84465820D01*
X119772991Y-84798875D01*
X119592206Y-85234255D01*
X119591794Y-85705677D01*
X117471000Y-85705677D01*
X117471000Y-84455005D01*
X117471001Y-84455000D01*
X117403633Y-84116325D01*
X117372680Y-84070000D01*
X117211790Y-83829210D01*
X117211787Y-83829208D01*
X115941790Y-82559210D01*
X115872444Y-82512875D01*
X115654675Y-82367367D01*
X115598484Y-82356190D01*
X115316000Y-82299999D01*
X115315995Y-82300000D01*
X100711005Y-82300000D01*
X100711000Y-82299999D01*
X100372325Y-82367367D01*
X100085210Y-82559210D01*
X100085208Y-82559213D01*
X98815210Y-83829210D01*
X98623367Y-84116325D01*
X98623367Y-84116326D01*
X98555999Y-84455000D01*
X98556000Y-84455005D01*
X98556000Y-90057421D01*
X98231480Y-90381941D01*
X98063323Y-90381794D01*
X97627628Y-90561820D01*
X97293991Y-90894875D01*
X97113206Y-91330255D01*
X97112794Y-91801677D01*
X74945785Y-91801677D01*
X75141764Y-91329709D01*
X75142235Y-90790656D01*
X74936383Y-90292457D01*
X74555548Y-89910957D01*
X74057709Y-89704236D01*
X73518656Y-89703765D01*
X73020457Y-89909617D01*
X72638957Y-90290452D01*
X72432236Y-90788291D01*
X72431765Y-91327344D01*
X56642000Y-91327344D01*
X56642000Y-79895000D01*
X86532560Y-79895000D01*
X86532560Y-81395000D01*
X86576838Y-81630317D01*
X86715910Y-81846441D01*
X86928110Y-81991431D01*
X87180000Y-82042440D01*
X88080000Y-82042440D01*
X88315317Y-81998162D01*
X88419655Y-81931022D01*
X88484788Y-81974543D01*
X88900000Y-82057134D01*
X89315212Y-81974543D01*
X89539274Y-81824830D01*
X89875999Y-81989408D01*
X90043000Y-81862502D01*
X90043000Y-80772000D01*
X90297000Y-80772000D01*
X90297000Y-81862502D01*
X90464001Y-81989408D01*
X90847408Y-81802013D01*
X91123808Y-81477544D01*
X91255000Y-81072000D01*
X91255000Y-80772000D01*
X90297000Y-80772000D01*
X90043000Y-80772000D01*
X90023000Y-80772000D01*
X90023000Y-80518000D01*
X90043000Y-80518000D01*
X90043000Y-79427498D01*
X90297000Y-79427498D01*
X90297000Y-80518000D01*
X91255000Y-80518000D01*
X91255000Y-80218000D01*
X91123808Y-79812456D01*
X90847408Y-79487987D01*
X90464001Y-79300592D01*
X90297000Y-79427498D01*
X90043000Y-79427498D01*
X89875999Y-79300592D01*
X89539274Y-79465170D01*
X89315212Y-79315457D01*
X88900000Y-79232866D01*
X88484788Y-79315457D01*
X88419981Y-79358759D01*
X88331890Y-79298569D01*
X88080000Y-79247560D01*
X87180000Y-79247560D01*
X86944683Y-79291838D01*
X86728559Y-79430910D01*
X86583569Y-79643110D01*
X86532560Y-79895000D01*
X56642000Y-79895000D01*
X56642000Y-74077312D01*
X60722293Y-74077312D01*
X61125762Y-74603924D01*
X62639730Y-75247307D01*
X64284666Y-75262346D01*
X65810145Y-74646750D01*
X65874238Y-74603924D01*
X66277707Y-74077312D01*
X63500000Y-71299605D01*
X60722293Y-74077312D01*
X56642000Y-74077312D01*
X56642000Y-71904666D01*
X59357654Y-71904666D01*
X59973250Y-73430145D01*
X60016076Y-73494238D01*
X60542688Y-73897707D01*
X63320395Y-71120000D01*
X63679605Y-71120000D01*
X66457312Y-73897707D01*
X66983924Y-73494238D01*
X67627307Y-71980270D01*
X67642346Y-70335334D01*
X67026750Y-68809855D01*
X66983924Y-68745762D01*
X66457312Y-68342293D01*
X63679605Y-71120000D01*
X63320395Y-71120000D01*
X60542688Y-68342293D01*
X60016076Y-68745762D01*
X59372693Y-70259730D01*
X59357654Y-71904666D01*
X56642000Y-71904666D01*
X56642000Y-68162688D01*
X60722293Y-68162688D01*
X63500000Y-70940395D01*
X66277707Y-68162688D01*
X223282293Y-68162688D01*
X226060000Y-70940395D01*
X228837707Y-68162688D01*
X228434238Y-67636076D01*
X226920270Y-66992693D01*
X225275334Y-66977654D01*
X223749855Y-67593250D01*
X223685762Y-67636076D01*
X223282293Y-68162688D01*
X66277707Y-68162688D01*
X65874238Y-67636076D01*
X64360270Y-66992693D01*
X62715334Y-66977654D01*
X61189855Y-67593250D01*
X61125762Y-67636076D01*
X60722293Y-68162688D01*
X56642000Y-68162688D01*
X56642000Y-64262000D01*
X232918000Y-64262000D01*
X232918000Y-133858000D01*
M02*
