G04 ================== begin FILE IDENTIFICATION RECORD ==================*
G04 Layout Name:  C:/tmp/20_034901b/worklib/02_034901b_top/physical/08_034901b.brd*
G04 Film Name:    assy1*
G04 File Format:  Gerber RS274X*
G04 File Origin:  Cadence Allegro 16.5-S031*
G04 Origin Date:  Fri Mar 21 04:56:11 2014*
G04 *
G04 Layer:  MANUFACTURING/PEN24*
G04 Layer:  MANUFACTURING/PEN22*
G04 Layer:  MANUFACTURING/PEN15*
G04 Layer:  DRAWING FORMAT/OUTLINE*
G04 Layer:  MANUFACTURING/PEN27*
G04 Layer:  MANUFACTURING/PEN29*
G04 Layer:  DRAWING FORMAT/ASSY_D*
G04 Layer:  BOARD GEOMETRY/ASSEMBLY_DETAIL*
G04 *
G04 Offset:    (0.0 0.0)*
G04 Mirror:    No*
G04 Mode:      Positive*
G04 Rotation:  0*
G04 FullContactRelief:  No*
G04 UndefLineWidth:     5.0*
G04 ================== end FILE IDENTIFICATION RECORD ====================*
%FSLAX55Y55*MOIN*%
%IR0*IPPOS*OFA0.00000B0.00000*MIA0B0*SFA1.00000B1.00000*%
%ADD10C,.012*%
%ADD11C,.005*%
G75*
%LPD*%
G75*
G54D10*
G01X773500Y-672500D02*
Y-697500D01*
X780000D01*
X782500Y-696200D01*
X784300Y-694500D01*
X786000Y-692000D01*
X787300Y-689000D01*
X787500Y-685000D01*
X787300Y-680700D01*
X786000Y-678000D01*
X784300Y-675200D01*
X782500Y-673700D01*
X780000Y-672500D01*
X773500D01*
G01X776800Y-657700D02*
X787500D01*
G01X773300Y-666500D02*
X782000Y-641500D01*
X790800Y-666500D01*
G01X798300Y-684500D02*
X806000D01*
G01X811000Y-672500D02*
X798300D01*
Y-697500D01*
X811000D01*
G01X802000Y-666500D02*
Y-641500D01*
X818000Y-666500D01*
Y-641500D01*
G01X820500Y-672500D02*
X828500Y-697500D01*
X836500Y-672500D01*
G01X832800Y-657700D02*
X843500D01*
G01X829300Y-666500D02*
X838000Y-641500D01*
X846800Y-666500D01*
G01X852500Y-672500D02*
Y-697500D01*
G01X848800D02*
X856300D01*
G01X883500Y-674500D02*
X881500Y-673200D01*
X879300Y-672500D01*
X876800D01*
X874000Y-673700D01*
X871800Y-675700D01*
X870300Y-678200D01*
X869000Y-682200D01*
X868500Y-686200D01*
X869300Y-690000D01*
X870300Y-692500D01*
X872000Y-695000D01*
X874300Y-696700D01*
X876500Y-697500D01*
X878800D01*
X880800Y-696700D01*
X882800Y-695500D01*
X884500Y-693700D01*
G01X859000Y-641500D02*
Y-666500D01*
X873000D01*
G01X848800Y-672500D02*
X856300D01*
G01X894300Y-684500D02*
X902000D01*
G01X907000Y-672500D02*
X894300D01*
Y-697500D01*
X907000D01*
G01X884500Y-655700D02*
Y-652200D01*
X885300Y-649000D01*
X886800Y-646000D01*
X888800Y-643500D01*
X891000Y-642000D01*
X894000Y-641500D01*
X897000Y-642000D01*
X899300Y-643500D01*
X901300Y-646000D01*
X902800Y-649000D01*
X903500Y-652200D01*
Y-655700D01*
X902800Y-659000D01*
X901300Y-662000D01*
X899300Y-664500D01*
X897000Y-666000D01*
X894000Y-666500D01*
X891000Y-666000D01*
X888800Y-664500D01*
X886500Y-661700D01*
X885300Y-659000D01*
X884500Y-655700D01*
G01X930000Y-675500D02*
X928000Y-673200D01*
X925800Y-672500D01*
X923500D01*
X921300Y-673700D01*
X919800Y-675700D01*
X919300Y-678700D01*
X920000Y-681700D01*
X922300Y-683200D01*
X926300Y-684200D01*
X929000Y-685700D01*
X930500Y-688200D01*
X931300Y-691200D01*
X930300Y-694200D01*
X928300Y-696200D01*
X925800Y-697500D01*
X923300D01*
X920500Y-696200D01*
X918000Y-694200D01*
G01X929300Y-644000D02*
X927300Y-642200D01*
X924500Y-641500D01*
X922000D01*
X919300Y-642700D01*
X917000Y-644500D01*
X915000Y-647000D01*
X913800Y-649500D01*
X913000Y-652200D01*
Y-655200D01*
X913500Y-658500D01*
X915000Y-661500D01*
X917000Y-664000D01*
X919300Y-665500D01*
X923000Y-666500D01*
X926500Y-665700D01*
X929000Y-664000D01*
X931000Y-661500D01*
Y-654000D01*
X924000D01*
G54D11*
G01X-991000Y-133000D02*
Y-132000D01*
X-971000D01*
Y-126000D01*
X-958500Y-132500D01*
X-971000Y-139000D01*
Y-133000D01*
X-991000D01*
G01X-992000Y-134000D02*
Y-131000D01*
X-972000D01*
Y-124500D01*
X-957000Y-132500D01*
X-972000Y-140500D01*
Y-134000D01*
X-992000D01*
G01X-993000Y-135000D02*
Y-130000D01*
X-973000D01*
Y-123000D01*
X-955500Y-132500D01*
X-973000Y-142000D01*
Y-135000D01*
X-993000D01*
G01X-994000Y-136000D02*
Y-129000D01*
X-974000D01*
Y-121500D01*
X-954000Y-132500D01*
X-974000Y-143500D01*
Y-136000D01*
X-994000D01*
G01X-981880Y-782500D02*
X-974000Y-757500D01*
X-966120Y-782500D01*
G01X-968960Y-773750D02*
X-979040D01*
G01X-954000Y-557500D02*
X-984000D01*
G01X-971480Y-344170D02*
X-970220Y-342920D01*
X-969280Y-340830D01*
X-968640Y-337920D01*
X-969280Y-335420D01*
X-970530Y-333750D01*
X-972740Y-332500D01*
X-981240D01*
Y-357500D01*
X-970850D01*
X-968640Y-355830D01*
X-967380Y-353330D01*
X-966760Y-350420D01*
X-967380Y-347500D01*
X-969280Y-345000D01*
X-971480Y-344170D01*
X-981240D01*
G01X-966500Y-132500D02*
X-965500D01*
G01X-967000Y-133500D02*
Y-131500D01*
X-964500Y-132500D01*
X-967000Y-133500D01*
G01X-968000Y-134500D02*
Y-130500D01*
X-963000Y-132500D01*
X-968000Y-134500D01*
G01X-969000Y-136000D02*
Y-129000D01*
X-961500Y-132500D01*
X-969000Y-136000D01*
G01X-970000Y-137500D02*
Y-127500D01*
X-960000Y-132500D01*
X-970000Y-137500D01*
G01X-967070Y90420D02*
X-968960Y91670D01*
X-971160Y92500D01*
X-973680D01*
X-976520Y91250D01*
X-978720Y89170D01*
X-980300Y86670D01*
X-981560Y82500D01*
X-981880Y78750D01*
X-981240Y75000D01*
X-980300Y72500D01*
X-978410Y70000D01*
X-976200Y68330D01*
X-974000Y67500D01*
X-971800D01*
X-969590Y68330D01*
X-967700Y69580D01*
X-966120Y71250D01*
G01X-984000Y292500D02*
X-954000D01*
G01X-980930Y492500D02*
Y517500D01*
X-974630D01*
X-972110Y516250D01*
X-970220Y514580D01*
X-968640Y512080D01*
X-967380Y509170D01*
X-967070Y505000D01*
X-967380Y500830D01*
X-968640Y497920D01*
X-970220Y495420D01*
X-972110Y493750D01*
X-974630Y492500D01*
X-980930D01*
G01X-954000Y667500D02*
Y-932500D01*
X301000D01*
G01Y667500D02*
X-954000D01*
G01X-725220Y-967500D02*
Y-942500D01*
X-736880Y-960420D01*
X-721120D01*
G01X-725220Y677500D02*
Y702500D01*
X-736880Y684580D01*
X-721120D01*
G01X-554000Y-306000D02*
Y-268500D01*
X-542840D01*
X-539120Y-270390D01*
X-536330Y-274740D01*
X-535400Y-279750D01*
X-536330Y-284760D01*
X-538670Y-288510D01*
X-542840Y-290370D01*
X-554000D01*
G01X-516800Y-306000D02*
Y-268500D01*
X-505190D01*
X-501470Y-270390D01*
X-499130Y-272880D01*
X-498200Y-277890D01*
X-499130Y-282870D01*
X-501920Y-285990D01*
X-505190Y-287880D01*
X-516800D01*
G01X-505190D02*
X-498200Y-306000D01*
G01X-509600Y-144000D02*
X-209600D01*
Y216000D01*
X-509600D01*
Y-144000D01*
G01X-487580Y178740D02*
X-488720Y179490D01*
X-490040Y180000D01*
X-491570D01*
X-493280Y179250D01*
X-494600Y177990D01*
X-495560Y176490D01*
X-496310Y174000D01*
X-496490Y171750D01*
X-496130Y169500D01*
X-495560Y168000D01*
X-494420Y166500D01*
X-493070Y165510D01*
X-491750Y165000D01*
X-490430D01*
X-489080Y165510D01*
X-487940Y166260D01*
X-487010Y167250D01*
G01X-480620D02*
X-479480Y165990D01*
X-478160Y165240D01*
X-476450Y165000D01*
X-474740Y165510D01*
X-473420Y166500D01*
X-472460Y168240D01*
X-472280Y170250D01*
X-472640Y172260D01*
X-473600Y173490D01*
X-474920Y174510D01*
X-476270Y174750D01*
X-477590Y174510D01*
X-479300Y173490D01*
X-478730Y180000D01*
X-473600D01*
G01X-454000Y-932500D02*
Y-962500D01*
G01X-470300Y-268500D02*
Y-306000D01*
G01X-475880D02*
X-464720D01*
G01X-475880Y-268500D02*
X-464720D01*
G01X-428390Y-3000D02*
G03I-21210J0D01*
G01X-432890Y63000D02*
G03I-21210J0D01*
G01X-439100Y98040D02*
X-454100D01*
Y102810D01*
X-453350Y104310D01*
X-452360Y105270D01*
X-450350Y105660D01*
X-448340Y105270D01*
X-447110Y104130D01*
X-446360Y102810D01*
Y98040D01*
G01X-463100Y99540D02*
X-478100D01*
Y104310D01*
X-477350Y105810D01*
X-476360Y106770D01*
X-474350Y107160D01*
X-472340Y106770D01*
X-471110Y105630D01*
X-470360Y104310D01*
Y99540D01*
G01X-451610Y113550D02*
X-453110Y114690D01*
X-453860Y116010D01*
X-454100Y117540D01*
X-453590Y119430D01*
X-452360Y120750D01*
X-450860Y121140D01*
X-449360Y120960D01*
X-448100Y120180D01*
X-445610Y116400D01*
X-443840Y114690D01*
X-441350Y113550D01*
X-439100Y113160D01*
Y121140D01*
G01X-470360Y104310D02*
X-463100Y107160D01*
G01Y118650D02*
X-478100D01*
X-475100Y116370D01*
G01X-463100D02*
Y120930D01*
G01X-473600Y126000D02*
X-464600D01*
Y144000D01*
X-473600D01*
Y126000D01*
G01X-464600Y183000D02*
Y162000D01*
X-425600D01*
Y183000D01*
X-464600D01*
G01X-462080Y208740D02*
X-463220Y209490D01*
X-464540Y210000D01*
X-466070D01*
X-467780Y209250D01*
X-469100Y207990D01*
X-470060Y206490D01*
X-470810Y204000D01*
X-470990Y201750D01*
X-470630Y199500D01*
X-470060Y198000D01*
X-468920Y196500D01*
X-467570Y195510D01*
X-466250Y195000D01*
X-464930D01*
X-463580Y195510D01*
X-462440Y196260D01*
X-461510Y197250D01*
G01X-450950Y195000D02*
Y210000D01*
X-453230Y207000D01*
G01Y195000D02*
X-448670D01*
G01X-454000Y667500D02*
Y697500D01*
G01X-445190Y-306000D02*
Y-268500D01*
X-433100Y-299760D01*
X-421010Y-268500D01*
Y-306000D01*
G01X-426500Y-75990D02*
X-421940D01*
G01X-424400Y-72750D02*
Y-79260D01*
G01X-383390Y-39000D02*
G03I-21210J0D01*
G01X-426860Y-9000D02*
Y6000D01*
X-422090D01*
X-420590Y5250D01*
X-419630Y4260D01*
X-419240Y2250D01*
X-419630Y240D01*
X-420770Y-990D01*
X-422090Y-1740D01*
X-426860D01*
G01X-422090D02*
X-419240Y-9000D01*
G01X-427250Y54000D02*
Y39000D01*
G01X-429530D02*
X-424970D01*
G01X-429530Y54000D02*
X-424970D01*
G01X-446360Y102810D02*
X-439100Y105660D01*
G01X-440600Y144000D02*
X-449600D01*
Y126000D01*
X-440600D01*
Y144000D01*
G01X-445100Y205500D02*
Y196500D01*
X-427100D01*
Y205500D01*
X-445100D01*
G01X-407540Y-306000D02*
X-395900Y-268500D01*
X-384260Y-306000D01*
G01X-388460Y-292890D02*
X-403340D01*
G01X-413840Y-66000D02*
X-409100Y-81000D01*
X-404360Y-66000D01*
G01X-397790Y-78990D02*
X-396260Y-80250D01*
X-394550Y-81000D01*
X-393050D01*
X-391520Y-80250D01*
X-390380Y-78990D01*
X-389810Y-77250D01*
X-390200Y-75510D01*
X-391130Y-74010D01*
X-392840Y-72990D01*
X-395120Y-72510D01*
X-396470Y-71490D01*
X-397040Y-69750D01*
X-396650Y-68010D01*
X-395690Y-66750D01*
X-394370Y-66000D01*
X-393050D01*
X-391700Y-66510D01*
X-390560Y-67740D01*
G01X-403940Y-9000D02*
X-411560D01*
Y6000D01*
X-403940D01*
G01X-407000Y-1260D02*
X-411560D01*
G01X-396050Y-9000D02*
Y6000D01*
X-388850D01*
G01X-391490Y-1260D02*
X-396050D01*
G01X-416330Y39000D02*
Y54000D01*
X-407570Y39000D01*
Y54000D01*
G01X-401840Y67020D02*
X-402590Y65880D01*
X-403100Y64560D01*
Y63030D01*
X-402350Y61320D01*
X-401090Y60000D01*
X-399590Y59040D01*
X-397100Y58290D01*
X-394850Y58110D01*
X-392600Y58470D01*
X-391100Y59040D01*
X-389600Y60180D01*
X-388610Y61530D01*
X-388100Y62850D01*
Y64170D01*
X-388610Y65520D01*
X-389360Y66660D01*
X-390350Y67590D01*
G01X-410600Y79500D02*
X-419600D01*
Y61500D01*
X-410600D01*
Y79500D01*
G01X-403100Y78150D02*
X-402590Y76620D01*
X-401360Y75480D01*
X-399860Y74730D01*
X-397850Y74160D01*
X-395600Y73980D01*
X-393350Y74160D01*
X-391340Y74730D01*
X-389840Y75480D01*
X-388610Y76620D01*
X-388100Y78150D01*
X-388610Y79680D01*
X-389840Y80820D01*
X-391340Y81570D01*
X-393350Y82140D01*
X-395600Y82320D01*
X-397850Y82140D01*
X-399860Y81570D01*
X-401360Y80820D01*
X-402590Y79680D01*
X-403100Y78150D01*
G01X-387080Y150240D02*
X-388220Y150990D01*
X-389540Y151500D01*
X-391070D01*
X-392780Y150750D01*
X-394100Y149490D01*
X-395060Y147990D01*
X-395810Y145500D01*
X-395990Y143250D01*
X-395630Y141000D01*
X-395060Y139500D01*
X-393920Y138000D01*
X-392570Y137010D01*
X-391250Y136500D01*
X-389930D01*
X-388580Y137010D01*
X-387440Y137760D01*
X-386510Y138750D01*
G01X-401600Y139500D02*
Y148500D01*
X-419600D01*
Y139500D01*
X-401600D01*
G01X-394100Y189540D02*
X-409100D01*
Y194310D01*
X-408350Y195810D01*
X-407360Y196770D01*
X-405350Y197160D01*
X-403340Y196770D01*
X-402110Y195630D01*
X-401360Y194310D01*
Y189540D01*
G01X-397100Y186000D02*
X-406100D01*
Y168000D01*
X-397100D01*
Y186000D01*
G01X-401360Y194310D02*
X-394100Y197160D01*
G01X-396350Y204480D02*
X-395090Y205620D01*
X-394340Y206940D01*
X-394100Y208650D01*
X-394610Y210360D01*
X-395600Y211680D01*
X-397340Y212640D01*
X-399350Y212820D01*
X-401360Y212460D01*
X-402590Y211500D01*
X-403610Y210180D01*
X-403850Y208830D01*
X-403610Y207510D01*
X-402590Y205800D01*
X-409100Y206370D01*
Y211500D01*
G01X-368000Y-306000D02*
Y-268500D01*
X-356390D01*
X-352670Y-270390D01*
X-350330Y-272880D01*
X-349400Y-277890D01*
X-350330Y-282870D01*
X-353120Y-285990D01*
X-356390Y-287880D01*
X-368000D01*
G01X-377150Y-9000D02*
Y6000D01*
X-379430Y3000D01*
G01Y-9000D02*
X-374870D01*
G01X-379550Y149010D02*
X-378410Y150510D01*
X-377090Y151260D01*
X-375560Y151500D01*
X-373670Y150990D01*
X-372350Y149760D01*
X-371960Y148260D01*
X-372140Y146760D01*
X-372920Y145500D01*
X-376700Y143010D01*
X-378410Y141240D01*
X-379550Y138750D01*
X-379940Y136500D01*
X-371960D01*
G01X-367100Y174540D02*
X-382100D01*
Y179310D01*
X-381350Y180810D01*
X-380360Y181770D01*
X-378350Y182160D01*
X-376340Y181770D01*
X-375110Y180630D01*
X-374360Y179310D01*
Y174540D01*
G01Y179310D02*
X-367100Y182160D01*
G01X-353600Y193500D02*
X-362600D01*
Y175500D01*
X-353600D01*
Y193500D01*
G01X-373340Y190050D02*
X-375110Y191370D01*
X-376100Y192510D01*
X-376610Y194040D01*
X-376100Y195360D01*
X-375110Y196320D01*
X-373610Y197070D01*
X-371840Y197250D01*
X-370340Y197070D01*
X-368840Y196320D01*
X-367610Y195180D01*
X-367100Y193830D01*
X-367610Y192330D01*
X-369110Y190980D01*
X-371360Y190230D01*
X-373850Y190050D01*
X-377090Y190410D01*
X-378860Y190980D01*
X-380600Y191940D01*
X-381860Y193260D01*
X-382100Y194610D01*
X-381590Y195930D01*
X-380360Y196890D01*
G01X-356390Y-287880D02*
X-349400Y-306000D01*
G01X-321500D02*
Y-289140D01*
X-330800Y-268500D01*
G01X-340340Y-66000D02*
X-335600Y-81000D01*
X-330860Y-66000D01*
G01X-353360Y-75990D02*
X-348440D01*
G01X-311390Y-39000D02*
G03I-21210J0D01*
G01X-353360Y-7500D02*
Y7500D01*
X-348590D01*
X-347090Y6750D01*
X-346130Y5760D01*
X-345740Y3750D01*
X-346130Y1740D01*
X-347270Y510D01*
X-348590Y-240D01*
X-353360D01*
G01X-348590D02*
X-345740Y-7500D01*
G01X-330440D02*
X-338060D01*
Y7500D01*
X-330440D01*
G01X-333500Y240D02*
X-338060D01*
G01X-334400Y60000D02*
X-335930Y60240D01*
X-337250Y61260D01*
X-338390Y62760D01*
X-339140Y64500D01*
X-339530Y66510D01*
Y68490D01*
X-339140Y70500D01*
X-338390Y72240D01*
X-337250Y73740D01*
X-335930Y74760D01*
X-334400Y75000D01*
X-332870Y74760D01*
X-331550Y73740D01*
X-330410Y72240D01*
X-329660Y70500D01*
X-329270Y68490D01*
Y66510D01*
X-329660Y64500D01*
X-330410Y62760D01*
X-331550Y61260D01*
X-332870Y60240D01*
X-334400Y60000D01*
G01X-353600Y159000D02*
X-335600D01*
X-329600Y153000D01*
X-323600Y159000D01*
X-305600D01*
Y99000D01*
X-353600D01*
Y159000D01*
G01X-341420Y133500D02*
Y122760D01*
X-340670Y120510D01*
X-339140Y119010D01*
X-337250Y118500D01*
X-335360Y119010D01*
X-333830Y120510D01*
X-333080Y122760D01*
Y133500D01*
G01X-337100Y153000D02*
G03I-4500J0D01*
G01X-344960Y150000D02*
X-338240D01*
G01X-344960Y156000D02*
X-338240D01*
G01X-334100Y180000D02*
Y171000D01*
X-316100D01*
Y180000D01*
X-334100D01*
G01Y204000D02*
Y195000D01*
X-316100D01*
Y204000D01*
X-334100D01*
G01X-312200Y-268500D02*
X-321500Y-289140D01*
G01X-324290Y-78990D02*
X-322760Y-80250D01*
X-321050Y-81000D01*
X-319550D01*
X-318020Y-80250D01*
X-316880Y-78990D01*
X-316310Y-77250D01*
X-316700Y-75510D01*
X-317630Y-74010D01*
X-319340Y-72990D01*
X-321620Y-72510D01*
X-322970Y-71490D01*
X-323540Y-69750D01*
X-323150Y-68010D01*
X-322190Y-66750D01*
X-320870Y-66000D01*
X-319550D01*
X-318200Y-66510D01*
X-317060Y-67740D01*
G01X-322550Y-7500D02*
Y7500D01*
X-315350D01*
G01X-317990Y240D02*
X-322550D01*
G01X-307250Y5010D02*
X-306110Y6510D01*
X-304790Y7260D01*
X-303260Y7500D01*
X-301370Y6990D01*
X-300050Y5760D01*
X-299660Y4260D01*
X-299840Y2760D01*
X-300620Y1500D01*
X-304400Y-990D01*
X-306110Y-2760D01*
X-307250Y-5250D01*
X-307640Y-7500D01*
X-299660D01*
G01X-323270Y75000D02*
Y64260D01*
X-322520Y62010D01*
X-320990Y60510D01*
X-319100Y60000D01*
X-317210Y60510D01*
X-315680Y62010D01*
X-314930Y64260D01*
Y75000D01*
G01X-303800D02*
Y60000D01*
G01X-308180Y75000D02*
X-299420D01*
G01X-321950Y118500D02*
Y133500D01*
X-324230Y130500D01*
G01Y118500D02*
X-319670D01*
G01X-309560Y168000D02*
Y183000D01*
X-304790D01*
X-303290Y182250D01*
X-302330Y181260D01*
X-301940Y179250D01*
X-302330Y177240D01*
X-303470Y176010D01*
X-304790Y175260D01*
X-309560D01*
G01X-304790D02*
X-301940Y168000D01*
G01X-309560Y192000D02*
Y207000D01*
X-304790D01*
X-303290Y206250D01*
X-302330Y205260D01*
X-301940Y203250D01*
X-302330Y201240D01*
X-303470Y200010D01*
X-304790Y199260D01*
X-309560D01*
G01X-304790D02*
X-301940Y192000D01*
G01X-254390Y0D02*
G03I-21210J0D01*
G01Y66000D02*
G03I-21210J0D01*
G01X-271100Y141000D02*
X-262100D01*
Y159000D01*
X-271100D01*
Y141000D01*
G01X-294620Y171000D02*
X-293480Y169260D01*
X-291980Y168240D01*
X-290270Y168000D01*
X-288740Y168240D01*
X-287210Y169500D01*
X-286280Y171000D01*
X-286070Y172500D01*
X-286460Y174240D01*
X-287780Y175500D01*
X-289130Y176010D01*
X-290840D01*
G01X-289130D02*
X-287990Y176760D01*
X-287030Y177990D01*
X-286640Y179490D01*
X-287030Y180990D01*
X-287990Y182250D01*
X-289700Y183000D01*
X-291410Y182760D01*
X-293120Y181740D01*
G01X-288170Y192000D02*
Y207000D01*
X-295190Y196260D01*
X-285710D01*
G01X-256880Y-300990D02*
X-253130Y-304140D01*
X-248960Y-306000D01*
X-245240D01*
X-241520Y-304140D01*
X-238730Y-300990D01*
X-237320Y-296610D01*
X-238250Y-292260D01*
X-240590Y-288510D01*
X-244790Y-285990D01*
X-250340Y-284760D01*
X-253610Y-282240D01*
X-255020Y-277890D01*
X-254060Y-273510D01*
X-251750Y-270390D01*
X-248510Y-268500D01*
X-245240D01*
X-241970Y-269760D01*
X-239180Y-272880D01*
G01X-257840Y146520D02*
X-258590Y145380D01*
X-259100Y144060D01*
Y142530D01*
X-258350Y140820D01*
X-257090Y139500D01*
X-255590Y138540D01*
X-253100Y137790D01*
X-250850Y137610D01*
X-248600Y137970D01*
X-247100Y138540D01*
X-245600Y139680D01*
X-244610Y141030D01*
X-244100Y142350D01*
Y143670D01*
X-244610Y145020D01*
X-245360Y146160D01*
X-246350Y147090D01*
G01X-245840Y154410D02*
X-244610Y155760D01*
X-244100Y157260D01*
X-244610Y158790D01*
X-246110Y160110D01*
X-248360Y161070D01*
X-250610Y161460D01*
X-253340D01*
X-255590Y161070D01*
X-257600Y160110D01*
X-258590Y158970D01*
X-259100Y157650D01*
X-258590Y156120D01*
X-257600Y154980D01*
X-256100Y154230D01*
X-254090Y153840D01*
X-252350Y154230D01*
X-250610Y155190D01*
X-249590Y156330D01*
X-249350Y157650D01*
X-249860Y159180D01*
X-251090Y160320D01*
X-253340Y161460D01*
G01X-215480Y-306000D02*
X-204320D01*
G01X-215480Y-268500D02*
X-204320D01*
G01X-185930Y-962500D02*
X-184040Y-965420D01*
X-181520Y-967080D01*
X-178680Y-967500D01*
X-176160Y-967080D01*
X-173640Y-965000D01*
X-172070Y-962500D01*
X-171760Y-960000D01*
X-172380Y-957080D01*
X-174590Y-955000D01*
X-176800Y-954170D01*
X-179630D01*
G01X-176800D02*
X-174910Y-952920D01*
X-173330Y-950830D01*
X-172700Y-948330D01*
X-173330Y-945830D01*
X-174910Y-943750D01*
X-177740Y-942500D01*
X-180570Y-942920D01*
X-183410Y-944580D01*
G01X-209900Y-268500D02*
Y-306000D01*
G01X-182930D02*
Y-268500D01*
X-173630D01*
X-169910Y-270390D01*
X-167120Y-272880D01*
X-164780Y-276630D01*
X-162920Y-281010D01*
X-162470Y-287250D01*
X-162920Y-293490D01*
X-164780Y-297870D01*
X-167120Y-301620D01*
X-169910Y-304140D01*
X-173630Y-306000D01*
X-182930D01*
G01X-185930Y682500D02*
X-184040Y679580D01*
X-181520Y677920D01*
X-178680Y677500D01*
X-176160Y677920D01*
X-173640Y680000D01*
X-172070Y682500D01*
X-171760Y685000D01*
X-172380Y687920D01*
X-174590Y690000D01*
X-176800Y690830D01*
X-179630D01*
G01X-176800D02*
X-174910Y692080D01*
X-173330Y694170D01*
X-172700Y696670D01*
X-173330Y699170D01*
X-174910Y701250D01*
X-177740Y702500D01*
X-180570Y702080D01*
X-183410Y700420D01*
G01X-126200Y-306000D02*
X-144800D01*
Y-268500D01*
X-126200D01*
G01X-133640Y-286620D02*
X-144800D01*
G01X99500Y-972500D02*
X92500D01*
Y-952500D01*
X85000D01*
X96000Y-932500D01*
X107000Y-952500D01*
X99500D01*
Y-972500D01*
G01X98500Y-971500D02*
X93500D01*
Y-951500D01*
X86500D01*
X96000Y-934000D01*
X105500Y-951500D01*
X98500D01*
Y-971500D01*
G01X97500Y-970500D02*
X94500D01*
Y-950500D01*
X88000D01*
X96000Y-935500D01*
X104000Y-950500D01*
X97500D01*
Y-970500D01*
G01X96500Y-969500D02*
X95500D01*
Y-949500D01*
X89500D01*
X96000Y-937000D01*
X102500Y-949500D01*
X96500D01*
Y-969500D01*
G01X95500Y704500D02*
X96500D01*
Y684500D01*
X102500D01*
X96000Y672000D01*
X89500Y684500D01*
X95500D01*
Y704500D01*
G01X94500Y705500D02*
X97500D01*
Y685500D01*
X104000D01*
X96000Y670500D01*
X88000Y685500D01*
X94500D01*
Y705500D01*
G01X93500Y706500D02*
X98500D01*
Y686500D01*
X105500D01*
X96000Y669000D01*
X86500Y686500D01*
X93500D01*
Y706500D01*
G01X92500Y707500D02*
X99500D01*
Y687500D01*
X107000D01*
X96000Y667500D01*
X85000Y687500D01*
X92500D01*
Y707500D01*
G01X96000Y-945000D02*
Y-944000D01*
G01X101000Y-948500D02*
X91000D01*
X96000Y-938500D01*
X101000Y-948500D01*
G01X99500Y-947500D02*
X92500D01*
X96000Y-940000D01*
X99500Y-947500D01*
G01X98000Y-946500D02*
X94000D01*
X96000Y-941500D01*
X98000Y-946500D01*
G01X97000Y-945500D02*
X95000D01*
X96000Y-943000D01*
X97000Y-945500D01*
G01X96000Y680000D02*
Y679000D01*
G01X95000Y680500D02*
X97000D01*
X96000Y678000D01*
X95000Y680500D01*
G01X94000Y681500D02*
X98000D01*
X96000Y676500D01*
X94000Y681500D01*
G01X92500Y682500D02*
X99500D01*
X96000Y675000D01*
X92500Y682500D01*
G01X91000Y683500D02*
X101000D01*
X96000Y673500D01*
X91000Y683500D01*
G01X150820Y-297990D02*
X154570Y-301140D01*
X158740Y-303000D01*
X162460D01*
X166180Y-301140D01*
X168970Y-297990D01*
X170380Y-293610D01*
X169450Y-289260D01*
X167110Y-285510D01*
X162910Y-282990D01*
X157360Y-281760D01*
X154090Y-279240D01*
X152680Y-274890D01*
X153640Y-270510D01*
X155950Y-267390D01*
X159190Y-265500D01*
X162460D01*
X165730Y-266760D01*
X168520Y-269880D01*
G01X207100Y-303000D02*
X188500D01*
Y-265500D01*
X207100D01*
G01X199660Y-283620D02*
X188500D01*
G01X245230Y-268620D02*
X242440Y-266760D01*
X239200Y-265500D01*
X235480D01*
X231280Y-267390D01*
X228040Y-270510D01*
X225700Y-274260D01*
X223840Y-280500D01*
X223360Y-286140D01*
X224320Y-291750D01*
X225700Y-295500D01*
X228490Y-299250D01*
X231760Y-301740D01*
X235000Y-303000D01*
X238240D01*
X241510Y-301740D01*
X244300Y-299880D01*
X246640Y-297390D01*
G01X272200Y-303000D02*
X268480Y-302370D01*
X265240Y-299880D01*
X262420Y-296130D01*
X260560Y-291750D01*
X259630Y-286740D01*
Y-281760D01*
X260560Y-276750D01*
X262420Y-272370D01*
X265240Y-268620D01*
X268480Y-266130D01*
X272200Y-265500D01*
X275920Y-266130D01*
X279160Y-268620D01*
X281980Y-272370D01*
X283840Y-276750D01*
X284770Y-281760D01*
Y-286740D01*
X283840Y-291750D01*
X281980Y-296130D01*
X279160Y-299880D01*
X275920Y-302370D01*
X272200Y-303000D01*
G01X549600Y-141500D02*
X249600D01*
Y218500D01*
X549600D01*
Y-141500D01*
G01X298720Y-303000D02*
Y-265500D01*
X320080Y-303000D01*
Y-265500D01*
G01X301000Y-932500D02*
X1146000D01*
Y-607500D01*
G01X326000Y-932500D02*
Y-632500D01*
X1146000D01*
G01X326000Y-907500D02*
X1146000D01*
G01X326000Y-832500D02*
X1146000D01*
G01X696000Y-732500D02*
X326000D01*
G01Y-625000D02*
Y-605000D01*
X332000D01*
X334000Y-606000D01*
X335500Y-608330D01*
X336000Y-611000D01*
X335500Y-613670D01*
X334250Y-615670D01*
X332000Y-616670D01*
X326000D01*
G01X346000Y-625000D02*
Y-605000D01*
X352250D01*
X354250Y-606000D01*
X355500Y-607330D01*
X356000Y-610000D01*
X355500Y-612670D01*
X354000Y-614330D01*
X352250Y-615330D01*
X346000D01*
G01X352250D02*
X356000Y-625000D01*
G01X368000Y-605000D02*
X374000D01*
G01X371000D02*
Y-625000D01*
G01X368000D02*
X374000D01*
G01X384500D02*
Y-605000D01*
X391000Y-621670D01*
X397500Y-605000D01*
Y-625000D01*
G01X404750D02*
X411000Y-605000D01*
X417250Y-625000D01*
G01X415000Y-618000D02*
X407000D01*
G01X426000Y-625000D02*
Y-605000D01*
X432250D01*
X434250Y-606000D01*
X435500Y-607330D01*
X436000Y-610000D01*
X435500Y-612670D01*
X434000Y-614330D01*
X432250Y-615330D01*
X426000D01*
G01X432250D02*
X436000Y-625000D01*
G01X451000D02*
Y-616000D01*
X446000Y-605000D01*
G01X456000D02*
X451000Y-616000D01*
G01X485750Y-622330D02*
X487750Y-624000D01*
X490000Y-625000D01*
X492000D01*
X494000Y-624000D01*
X495500Y-622330D01*
X496250Y-620000D01*
X495750Y-617670D01*
X494500Y-615670D01*
X492250Y-614330D01*
X489250Y-613670D01*
X487500Y-612330D01*
X486750Y-610000D01*
X487250Y-607670D01*
X488500Y-606000D01*
X490250Y-605000D01*
X492000D01*
X493750Y-605670D01*
X495250Y-607330D01*
G01X508000Y-605000D02*
X514000D01*
G01X511000D02*
Y-625000D01*
G01X508000D02*
X514000D01*
G01X525500D02*
Y-605000D01*
X530500D01*
X532500Y-606000D01*
X534000Y-607330D01*
X535250Y-609330D01*
X536250Y-611670D01*
X536500Y-615000D01*
X536250Y-618330D01*
X535250Y-620670D01*
X534000Y-622670D01*
X532500Y-624000D01*
X530500Y-625000D01*
X525500D01*
G01X556000D02*
X546000D01*
Y-605000D01*
X556000D01*
G01X552000Y-614670D02*
X546000D01*
G01X325500Y643000D02*
Y568000D01*
G01X1145340Y568280D02*
X325340D01*
G01X1145500Y593000D02*
X325500D01*
G01X326000Y667500D02*
Y592500D01*
G01X1146000Y617500D02*
X326000D01*
G01X1146000Y592500D02*
Y667500D01*
X301000D01*
G01X1146000Y642500D02*
X326000D01*
G01X344300Y-925000D02*
Y-917000D01*
X346300D01*
X347100Y-917400D01*
X347700Y-917930D01*
X348200Y-918730D01*
X348600Y-919670D01*
X348700Y-921000D01*
X348600Y-922330D01*
X348200Y-923270D01*
X347700Y-924070D01*
X347100Y-924600D01*
X346300Y-925000D01*
X344300D01*
G01X354500D02*
X353700Y-924870D01*
X353000Y-924330D01*
X352400Y-923530D01*
X352000Y-922600D01*
X351800Y-921530D01*
Y-920470D01*
X352000Y-919400D01*
X352400Y-918470D01*
X353000Y-917670D01*
X353700Y-917130D01*
X354500Y-917000D01*
X355300Y-917130D01*
X356000Y-917670D01*
X356600Y-918470D01*
X357000Y-919400D01*
X357200Y-920470D01*
Y-921530D01*
X357000Y-922600D01*
X356600Y-923530D01*
X356000Y-924330D01*
X355300Y-924870D01*
X354500Y-925000D01*
G01X368200D02*
Y-917000D01*
X372800Y-925000D01*
Y-917000D01*
G01X378500Y-925000D02*
X377700Y-924870D01*
X377000Y-924330D01*
X376400Y-923530D01*
X376000Y-922600D01*
X375800Y-921530D01*
Y-920470D01*
X376000Y-919400D01*
X376400Y-918470D01*
X377000Y-917670D01*
X377700Y-917130D01*
X378500Y-917000D01*
X379300Y-917130D01*
X380000Y-917670D01*
X380600Y-918470D01*
X381000Y-919400D01*
X381200Y-920470D01*
Y-921530D01*
X381000Y-922600D01*
X380600Y-923530D01*
X380000Y-924330D01*
X379300Y-924870D01*
X378500Y-925000D01*
G01X386500Y-917000D02*
Y-925000D01*
G01X384200Y-917000D02*
X388800D01*
G01X400400Y-923930D02*
X401200Y-924600D01*
X402100Y-925000D01*
X402900D01*
X403700Y-924600D01*
X404300Y-923930D01*
X404600Y-923000D01*
X404400Y-922070D01*
X403900Y-921270D01*
X403000Y-920730D01*
X401800Y-920470D01*
X401100Y-919930D01*
X400800Y-919000D01*
X401000Y-918070D01*
X401500Y-917400D01*
X402200Y-917000D01*
X402900D01*
X403600Y-917270D01*
X404200Y-917930D01*
G01X412700Y-917670D02*
X412100Y-917270D01*
X411400Y-917000D01*
X410600D01*
X409700Y-917400D01*
X409000Y-918070D01*
X408500Y-918870D01*
X408100Y-920200D01*
X408000Y-921400D01*
X408200Y-922600D01*
X408500Y-923400D01*
X409100Y-924200D01*
X409800Y-924730D01*
X410500Y-925000D01*
X411200D01*
X411900Y-924730D01*
X412500Y-924330D01*
X413000Y-923800D01*
G01X416000Y-925000D02*
X418500Y-917000D01*
X421000Y-925000D01*
G01X420100Y-922200D02*
X416900D01*
G01X424500Y-917000D02*
Y-925000D01*
X428500D01*
G01X436500D02*
X432500D01*
Y-917000D01*
X436500D01*
G01X434900Y-920870D02*
X432500D01*
G01X448300Y-925000D02*
Y-917000D01*
X450300D01*
X451100Y-917400D01*
X451700Y-917930D01*
X452200Y-918730D01*
X452600Y-919670D01*
X452700Y-921000D01*
X452600Y-922330D01*
X452200Y-923270D01*
X451700Y-924070D01*
X451100Y-924600D01*
X450300Y-925000D01*
X448300D01*
G01X455500Y-917000D02*
X456900Y-925000D01*
X458500Y-917000D01*
X460100Y-925000D01*
X461500Y-917000D01*
G01X467100Y-921000D02*
X469100D01*
Y-923400D01*
X468500Y-924200D01*
X467800Y-924730D01*
X466800Y-925000D01*
X465800Y-924730D01*
X465100Y-924200D01*
X464500Y-923400D01*
X464100Y-922470D01*
X463900Y-921400D01*
Y-920470D01*
X464100Y-919670D01*
X464500Y-918730D01*
X465100Y-917930D01*
X465700Y-917400D01*
X466500Y-917000D01*
X467200D01*
X468000Y-917270D01*
X468600Y-917800D01*
G01X334600Y-847500D02*
Y-839500D01*
X338400D01*
G01X337000Y-843370D02*
X334600D01*
G01X343300Y-839500D02*
X345700D01*
G01X344500D02*
Y-847500D01*
G01X343300D02*
X345700D01*
G01X350200D02*
Y-839500D01*
X354800Y-847500D01*
Y-839500D01*
G01X359300D02*
X361700D01*
G01X360500D02*
Y-847500D01*
G01X359300D02*
X361700D01*
G01X366400Y-846430D02*
X367200Y-847100D01*
X368100Y-847500D01*
X368900D01*
X369700Y-847100D01*
X370300Y-846430D01*
X370600Y-845500D01*
X370400Y-844570D01*
X369900Y-843770D01*
X369000Y-843230D01*
X367800Y-842970D01*
X367100Y-842430D01*
X366800Y-841500D01*
X367000Y-840570D01*
X367500Y-839900D01*
X368200Y-839500D01*
X368900D01*
X369600Y-839770D01*
X370200Y-840430D01*
G01X374400Y-847500D02*
Y-839500D01*
G01X378600D02*
Y-847500D01*
G01Y-843500D02*
X374400D01*
G01X333900Y-747500D02*
Y-739500D01*
X336500Y-746170D01*
X339100Y-739500D01*
Y-747500D01*
G01X342000D02*
X344500Y-739500D01*
X347000Y-747500D01*
G01X346100Y-744700D02*
X342900D01*
G01X352500Y-739500D02*
Y-747500D01*
G01X350200Y-739500D02*
X354800D01*
G01X362500Y-747500D02*
X358500D01*
Y-739500D01*
X362500D01*
G01X360900Y-743370D02*
X358500D01*
G01X366500Y-747500D02*
Y-739500D01*
X369000D01*
X369800Y-739900D01*
X370300Y-740430D01*
X370500Y-741500D01*
X370300Y-742570D01*
X369700Y-743230D01*
X369000Y-743630D01*
X366500D01*
G01X369000D02*
X370500Y-747500D01*
G01X375300Y-739500D02*
X377700D01*
G01X376500D02*
Y-747500D01*
G01X375300D02*
X377700D01*
G01X382000D02*
X384500Y-739500D01*
X387000Y-747500D01*
G01X386100Y-744700D02*
X382900D01*
G01X390500Y-739500D02*
Y-747500D01*
X394500D01*
G01X337900Y-715170D02*
X337770Y-715080D01*
Y-714920D01*
X337900Y-714830D01*
X338030Y-714920D01*
Y-715080D01*
X337900Y-715170D01*
G01X341670Y-715000D02*
X344330Y-710000D01*
G01X341670D02*
X344330Y-715000D01*
G01X346770D02*
X349430Y-710000D01*
G01X346770D02*
X349430Y-715000D01*
G01X351870D02*
X354530Y-710000D01*
G01X351870D02*
X354530Y-715000D01*
G01X362700Y-713330D02*
X364220D01*
G01X363400Y-712250D02*
Y-714420D01*
G01X367680Y-713330D02*
X369320D01*
G01X373600Y-715170D02*
X373470Y-715080D01*
Y-714920D01*
X373600Y-714830D01*
X373730Y-714920D01*
Y-715080D01*
X373600Y-715170D01*
G01X378700Y-710000D02*
X378190Y-710170D01*
X377810Y-710580D01*
X377560Y-711080D01*
X377370Y-711750D01*
X377310Y-712500D01*
X377370Y-713250D01*
X377560Y-713920D01*
X377810Y-714420D01*
X378190Y-714830D01*
X378700Y-715000D01*
X379210Y-714830D01*
X379590Y-714420D01*
X379840Y-713920D01*
X380030Y-713250D01*
X380090Y-712500D01*
X380030Y-711750D01*
X379840Y-711080D01*
X379590Y-710580D01*
X379210Y-710170D01*
X378700Y-710000D01*
G01X383800D02*
X383290Y-710170D01*
X382910Y-710580D01*
X382660Y-711080D01*
X382470Y-711750D01*
X382410Y-712500D01*
X382470Y-713250D01*
X382660Y-713920D01*
X382910Y-714420D01*
X383290Y-714830D01*
X383800Y-715000D01*
X384310Y-714830D01*
X384690Y-714420D01*
X384940Y-713920D01*
X385130Y-713250D01*
X385190Y-712500D01*
X385130Y-711750D01*
X384940Y-711080D01*
X384690Y-710580D01*
X384310Y-710170D01*
X383800Y-710000D01*
G01X387510Y-714250D02*
X387890Y-714670D01*
X388330Y-714920D01*
X388900Y-715000D01*
X389470Y-714830D01*
X389910Y-714500D01*
X390230Y-713920D01*
X390290Y-713250D01*
X390170Y-712580D01*
X389850Y-712170D01*
X389410Y-711830D01*
X388960Y-711750D01*
X388520Y-711830D01*
X387950Y-712170D01*
X388140Y-710000D01*
X389850D01*
G01X337900Y-725170D02*
X337770Y-725080D01*
Y-724920D01*
X337900Y-724830D01*
X338030Y-724920D01*
Y-725080D01*
X337900Y-725170D01*
G01X341670Y-725000D02*
X344330Y-720000D01*
G01X341670D02*
X344330Y-725000D01*
G01X346770D02*
X349430Y-720000D01*
G01X346770D02*
X349430Y-725000D01*
G01X351870D02*
X354530Y-720000D01*
G01X351870D02*
X354530Y-725000D01*
G01X356970D02*
X359630Y-720000D01*
G01X356970D02*
X359630Y-725000D01*
G01X367800Y-723330D02*
X369320D01*
G01X368500Y-722250D02*
Y-724420D01*
G01X372780Y-723330D02*
X374420D01*
G01X378700Y-725170D02*
X378570Y-725080D01*
Y-724920D01*
X378700Y-724830D01*
X378830Y-724920D01*
Y-725080D01*
X378700Y-725170D01*
G01X383800Y-720000D02*
X383290Y-720170D01*
X382910Y-720580D01*
X382660Y-721080D01*
X382470Y-721750D01*
X382410Y-722500D01*
X382470Y-723250D01*
X382660Y-723920D01*
X382910Y-724420D01*
X383290Y-724830D01*
X383800Y-725000D01*
X384310Y-724830D01*
X384690Y-724420D01*
X384940Y-723920D01*
X385130Y-723250D01*
X385190Y-722500D01*
X385130Y-721750D01*
X384940Y-721080D01*
X384690Y-720580D01*
X384310Y-720170D01*
X383800Y-720000D01*
G01X388900D02*
X388390Y-720170D01*
X388010Y-720580D01*
X387760Y-721080D01*
X387570Y-721750D01*
X387510Y-722500D01*
X387570Y-723250D01*
X387760Y-723920D01*
X388010Y-724420D01*
X388390Y-724830D01*
X388900Y-725000D01*
X389410Y-724830D01*
X389790Y-724420D01*
X390040Y-723920D01*
X390230Y-723250D01*
X390290Y-722500D01*
X390230Y-721750D01*
X390040Y-721080D01*
X389790Y-720580D01*
X389410Y-720170D01*
X388900Y-720000D01*
G01X392610Y-724250D02*
X392990Y-724670D01*
X393430Y-724920D01*
X394000Y-725000D01*
X394570Y-724830D01*
X395010Y-724500D01*
X395330Y-723920D01*
X395390Y-723250D01*
X395270Y-722580D01*
X394950Y-722170D01*
X394510Y-721830D01*
X394060Y-721750D01*
X393620Y-721830D01*
X393050Y-722170D01*
X393240Y-720000D01*
X394950D01*
G01X399100D02*
X398590Y-720170D01*
X398210Y-720580D01*
X397960Y-721080D01*
X397770Y-721750D01*
X397710Y-722500D01*
X397770Y-723250D01*
X397960Y-723920D01*
X398210Y-724420D01*
X398590Y-724830D01*
X399100Y-725000D01*
X399610Y-724830D01*
X399990Y-724420D01*
X400240Y-723920D01*
X400430Y-723250D01*
X400490Y-722500D01*
X400430Y-721750D01*
X400240Y-721080D01*
X399990Y-720580D01*
X399610Y-720170D01*
X399100Y-720000D01*
G01X336510Y-692500D02*
Y-687500D01*
X337770D01*
X338280Y-687750D01*
X338660Y-688080D01*
X338980Y-688580D01*
X339230Y-689170D01*
X339290Y-690000D01*
X339230Y-690830D01*
X338980Y-691420D01*
X338660Y-691920D01*
X338280Y-692250D01*
X337770Y-692500D01*
X336510D01*
G01X344270D02*
X341730D01*
Y-687500D01*
X344270D01*
G01X343250Y-689920D02*
X341730D01*
G01X349490Y-687920D02*
X349110Y-687670D01*
X348670Y-687500D01*
X348160D01*
X347590Y-687750D01*
X347150Y-688170D01*
X346830Y-688670D01*
X346580Y-689500D01*
X346520Y-690250D01*
X346640Y-691000D01*
X346830Y-691500D01*
X347210Y-692000D01*
X347660Y-692330D01*
X348100Y-692500D01*
X348540D01*
X348990Y-692330D01*
X349370Y-692080D01*
X349680Y-691750D01*
G01X352440Y-687500D02*
X353960D01*
G01X353200D02*
Y-692500D01*
G01X352440D02*
X353960D01*
G01X356650D02*
Y-687500D01*
X358300Y-691670D01*
X359950Y-687500D01*
Y-692500D01*
G01X361820D02*
X363400Y-687500D01*
X364980Y-692500D01*
G01X364410Y-690750D02*
X362390D01*
G01X367230Y-687500D02*
Y-692500D01*
X369770D01*
G01X372270Y-691830D02*
X372780Y-692250D01*
X373350Y-692500D01*
X373850D01*
X374360Y-692250D01*
X374740Y-691830D01*
X374930Y-691250D01*
X374800Y-690670D01*
X374490Y-690170D01*
X373920Y-689830D01*
X373160Y-689670D01*
X372710Y-689330D01*
X372520Y-688750D01*
X372650Y-688170D01*
X372970Y-687750D01*
X373410Y-687500D01*
X373850D01*
X374300Y-687670D01*
X374680Y-688080D01*
G01X337900Y-705170D02*
X337770Y-705080D01*
Y-704920D01*
X337900Y-704830D01*
X338030Y-704920D01*
Y-705080D01*
X337900Y-705170D01*
G01X341670Y-705000D02*
X344330Y-700000D01*
G01X341670D02*
X344330Y-705000D01*
G01X346770D02*
X349430Y-700000D01*
G01X346770D02*
X349430Y-705000D01*
G01X357600Y-703330D02*
X359120D01*
G01X358300Y-702250D02*
Y-704420D01*
G01X362580Y-703330D02*
X364220D01*
G01X368500Y-705170D02*
X368370Y-705080D01*
Y-704920D01*
X368500Y-704830D01*
X368630Y-704920D01*
Y-705080D01*
X368500Y-705170D01*
G01X373600Y-700000D02*
X373090Y-700170D01*
X372710Y-700580D01*
X372460Y-701080D01*
X372270Y-701750D01*
X372210Y-702500D01*
X372270Y-703250D01*
X372460Y-703920D01*
X372710Y-704420D01*
X373090Y-704830D01*
X373600Y-705000D01*
X374110Y-704830D01*
X374490Y-704420D01*
X374740Y-703920D01*
X374930Y-703250D01*
X374990Y-702500D01*
X374930Y-701750D01*
X374740Y-701080D01*
X374490Y-700580D01*
X374110Y-700170D01*
X373600Y-700000D01*
G01X378700Y-705000D02*
Y-700000D01*
X377940Y-701000D01*
G01Y-705000D02*
X379460D01*
G01X383800Y-700000D02*
X383290Y-700170D01*
X382910Y-700580D01*
X382660Y-701080D01*
X382470Y-701750D01*
X382410Y-702500D01*
X382470Y-703250D01*
X382660Y-703920D01*
X382910Y-704420D01*
X383290Y-704830D01*
X383800Y-705000D01*
X384310Y-704830D01*
X384690Y-704420D01*
X384940Y-703920D01*
X385130Y-703250D01*
X385190Y-702500D01*
X385130Y-701750D01*
X384940Y-701080D01*
X384690Y-700580D01*
X384310Y-700170D01*
X383800Y-700000D01*
G01X339130Y-662500D02*
Y-656200D01*
X340690D01*
X341320Y-656520D01*
X341790Y-656940D01*
X342180Y-657560D01*
X342500Y-658300D01*
X342570Y-659350D01*
X342500Y-660400D01*
X342180Y-661140D01*
X341790Y-661770D01*
X341320Y-662190D01*
X340690Y-662500D01*
X339130D01*
G01X346210Y-656200D02*
X348090D01*
G01X347150D02*
Y-662500D01*
G01X346210D02*
X348090D01*
G01X351410D02*
Y-656200D01*
X353450Y-661450D01*
X355490Y-656200D01*
Y-662500D01*
G01X361320D02*
X358180D01*
Y-656200D01*
X361320D01*
G01X360060Y-659240D02*
X358180D01*
G01X364250Y-662500D02*
Y-656200D01*
X367850Y-662500D01*
Y-656200D01*
G01X370700Y-661660D02*
X371330Y-662190D01*
X372040Y-662500D01*
X372660D01*
X373290Y-662190D01*
X373760Y-661660D01*
X374000Y-660920D01*
X373840Y-660190D01*
X373450Y-659560D01*
X372740Y-659140D01*
X371800Y-658930D01*
X371250Y-658510D01*
X371020Y-657780D01*
X371180Y-657040D01*
X371570Y-656520D01*
X372110Y-656200D01*
X372660D01*
X373210Y-656410D01*
X373680Y-656940D01*
G01X377710Y-656200D02*
X379590D01*
G01X378650D02*
Y-662500D01*
G01X377710D02*
X379590D01*
G01X384950D02*
X384320Y-662400D01*
X383780Y-661980D01*
X383300Y-661350D01*
X382990Y-660610D01*
X382830Y-659770D01*
Y-658930D01*
X382990Y-658090D01*
X383300Y-657350D01*
X383780Y-656730D01*
X384320Y-656300D01*
X384950Y-656200D01*
X385580Y-656300D01*
X386120Y-656730D01*
X386600Y-657350D01*
X386910Y-658090D01*
X387070Y-658930D01*
Y-659770D01*
X386910Y-660610D01*
X386600Y-661350D01*
X386120Y-661980D01*
X385580Y-662400D01*
X384950Y-662500D01*
G01X389450D02*
Y-656200D01*
X393050Y-662500D01*
Y-656200D01*
G01X395900Y-661660D02*
X396530Y-662190D01*
X397240Y-662500D01*
X397860D01*
X398490Y-662190D01*
X398960Y-661660D01*
X399200Y-660920D01*
X399040Y-660190D01*
X398650Y-659560D01*
X397940Y-659140D01*
X397000Y-658930D01*
X396450Y-658510D01*
X396220Y-657780D01*
X396380Y-657040D01*
X396770Y-656520D01*
X397310Y-656200D01*
X397860D01*
X398410Y-656410D01*
X398880Y-656940D01*
G01X408190Y-662500D02*
X410150Y-656200D01*
X412110Y-662500D01*
G01X411400Y-660300D02*
X408900D01*
G01X414880Y-662500D02*
Y-656200D01*
X416840D01*
X417470Y-656520D01*
X417860Y-656940D01*
X418020Y-657780D01*
X417860Y-658620D01*
X417390Y-659140D01*
X416840Y-659460D01*
X414880D01*
G01X416840D02*
X418020Y-662500D01*
G01X424320D02*
X421180D01*
Y-656200D01*
X424320D01*
G01X423060Y-659240D02*
X421180D01*
G01X434410Y-656200D02*
X436290D01*
G01X435350D02*
Y-662500D01*
G01X434410D02*
X436290D01*
G01X439850D02*
Y-656200D01*
X443450Y-662500D01*
Y-656200D01*
G01X453310D02*
X455190D01*
G01X454250D02*
Y-662500D01*
G01X453310D02*
X455190D01*
G01X458750D02*
Y-656200D01*
X462350Y-662500D01*
Y-656200D01*
G01X468570Y-656730D02*
X468100Y-656410D01*
X467560Y-656200D01*
X466930D01*
X466220Y-656520D01*
X465680Y-657040D01*
X465280Y-657670D01*
X464970Y-658720D01*
X464890Y-659670D01*
X465050Y-660610D01*
X465280Y-661240D01*
X465750Y-661870D01*
X466300Y-662290D01*
X466850Y-662500D01*
X467400D01*
X467950Y-662290D01*
X468420Y-661980D01*
X468810Y-661560D01*
G01X471500Y-662500D02*
Y-656200D01*
G01X474800D02*
Y-662500D01*
G01Y-659350D02*
X471500D01*
G01X481020Y-662500D02*
X477880D01*
Y-656200D01*
X481020D01*
G01X479760Y-659240D02*
X477880D01*
G01X484100Y-661660D02*
X484730Y-662190D01*
X485440Y-662500D01*
X486060D01*
X486690Y-662190D01*
X487160Y-661660D01*
X487400Y-660920D01*
X487240Y-660190D01*
X486850Y-659560D01*
X486140Y-659140D01*
X485200Y-658930D01*
X484650Y-658510D01*
X484420Y-657780D01*
X484580Y-657040D01*
X484970Y-656520D01*
X485510Y-656200D01*
X486060D01*
X486610Y-656410D01*
X487080Y-656940D01*
G01X331630Y-643700D02*
Y-648210D01*
X331940Y-649160D01*
X332570Y-649790D01*
X333350Y-650000D01*
X334130Y-649790D01*
X334760Y-649160D01*
X335070Y-648210D01*
Y-643700D01*
G01X337850Y-650000D02*
Y-643700D01*
X341450Y-650000D01*
Y-643700D01*
G01X344380D02*
Y-650000D01*
X347520D01*
G01X353820D02*
X350680D01*
Y-643700D01*
X353820D01*
G01X352560Y-646740D02*
X350680D01*
G01X356900Y-649160D02*
X357530Y-649690D01*
X358240Y-650000D01*
X358860D01*
X359490Y-649690D01*
X359960Y-649160D01*
X360200Y-648420D01*
X360040Y-647690D01*
X359650Y-647060D01*
X358940Y-646640D01*
X358000Y-646430D01*
X357450Y-646010D01*
X357220Y-645280D01*
X357380Y-644540D01*
X357770Y-644020D01*
X358310Y-643700D01*
X358860D01*
X359410Y-643910D01*
X359880Y-644440D01*
G01X363200Y-649160D02*
X363830Y-649690D01*
X364540Y-650000D01*
X365160D01*
X365790Y-649690D01*
X366260Y-649160D01*
X366500Y-648420D01*
X366340Y-647690D01*
X365950Y-647060D01*
X365240Y-646640D01*
X364300Y-646430D01*
X363750Y-646010D01*
X363520Y-645280D01*
X363680Y-644540D01*
X364070Y-644020D01*
X364610Y-643700D01*
X365160D01*
X365710Y-643910D01*
X366180Y-644440D01*
G01X377450Y-650000D02*
X376820Y-649900D01*
X376280Y-649480D01*
X375800Y-648850D01*
X375490Y-648110D01*
X375330Y-647270D01*
Y-646430D01*
X375490Y-645590D01*
X375800Y-644850D01*
X376280Y-644230D01*
X376820Y-643800D01*
X377450Y-643700D01*
X378080Y-643800D01*
X378620Y-644230D01*
X379100Y-644850D01*
X379410Y-645590D01*
X379570Y-646430D01*
Y-647270D01*
X379410Y-648110D01*
X379100Y-648850D01*
X378620Y-649480D01*
X378080Y-649900D01*
X377450Y-650000D01*
G01X383750Y-643700D02*
Y-650000D01*
G01X381950Y-643700D02*
X385550D01*
G01X388400Y-650000D02*
Y-643700D01*
G01X391700D02*
Y-650000D01*
G01Y-646850D02*
X388400D01*
G01X397920Y-650000D02*
X394780D01*
Y-643700D01*
X397920D01*
G01X396660Y-646740D02*
X394780D01*
G01X401080Y-650000D02*
Y-643700D01*
X403040D01*
X403670Y-644020D01*
X404060Y-644440D01*
X404220Y-645280D01*
X404060Y-646120D01*
X403590Y-646640D01*
X403040Y-646960D01*
X401080D01*
G01X403040D02*
X404220Y-650000D01*
G01X406600Y-643700D02*
X407700Y-650000D01*
X408950Y-643700D01*
X410200Y-650000D01*
X411300Y-643700D01*
G01X414310D02*
X416190D01*
G01X415250D02*
Y-650000D01*
G01X414310D02*
X416190D01*
G01X419900Y-649160D02*
X420530Y-649690D01*
X421240Y-650000D01*
X421860D01*
X422490Y-649690D01*
X422960Y-649160D01*
X423200Y-648420D01*
X423040Y-647690D01*
X422650Y-647060D01*
X421940Y-646640D01*
X421000Y-646430D01*
X420450Y-646010D01*
X420220Y-645280D01*
X420380Y-644540D01*
X420770Y-644020D01*
X421310Y-643700D01*
X421860D01*
X422410Y-643910D01*
X422880Y-644440D01*
G01X429420Y-650000D02*
X426280D01*
Y-643700D01*
X429420D01*
G01X428160Y-646740D02*
X426280D01*
G01X438800Y-649160D02*
X439430Y-649690D01*
X440140Y-650000D01*
X440760D01*
X441390Y-649690D01*
X441860Y-649160D01*
X442100Y-648420D01*
X441940Y-647690D01*
X441550Y-647060D01*
X440840Y-646640D01*
X439900Y-646430D01*
X439350Y-646010D01*
X439120Y-645280D01*
X439280Y-644540D01*
X439670Y-644020D01*
X440210Y-643700D01*
X440760D01*
X441310Y-643910D01*
X441780Y-644440D01*
G01X445180Y-650000D02*
Y-643700D01*
X447060D01*
X447690Y-644020D01*
X448160Y-644750D01*
X448320Y-645590D01*
X448160Y-646430D01*
X447770Y-647060D01*
X447060Y-647380D01*
X445180D01*
G01X454620Y-650000D02*
X451480D01*
Y-643700D01*
X454620D01*
G01X453360Y-646740D02*
X451480D01*
G01X461070Y-644230D02*
X460600Y-643910D01*
X460060Y-643700D01*
X459430D01*
X458720Y-644020D01*
X458180Y-644540D01*
X457780Y-645170D01*
X457470Y-646220D01*
X457390Y-647170D01*
X457550Y-648110D01*
X457780Y-648740D01*
X458250Y-649370D01*
X458800Y-649790D01*
X459350Y-650000D01*
X459900D01*
X460450Y-649790D01*
X460920Y-649480D01*
X461310Y-649060D01*
G01X464710Y-643700D02*
X466590D01*
G01X465650D02*
Y-650000D01*
G01X464710D02*
X466590D01*
G01X470460D02*
Y-643700D01*
X473440D01*
G01X472340Y-646740D02*
X470460D01*
G01X477310Y-643700D02*
X479190D01*
G01X478250D02*
Y-650000D01*
G01X477310D02*
X479190D01*
G01X486120D02*
X482980D01*
Y-643700D01*
X486120D01*
G01X484860Y-646740D02*
X482980D01*
G01X489130Y-650000D02*
Y-643700D01*
X490690D01*
X491320Y-644020D01*
X491790Y-644440D01*
X492180Y-645060D01*
X492500Y-645800D01*
X492570Y-646850D01*
X492500Y-647900D01*
X492180Y-648640D01*
X491790Y-649270D01*
X491320Y-649690D01*
X490690Y-650000D01*
X489130D01*
G01X336370Y-303000D02*
Y-265500D01*
X345670D01*
X349390Y-267390D01*
X352180Y-269880D01*
X354520Y-273630D01*
X356380Y-278010D01*
X356830Y-284250D01*
X356380Y-290490D01*
X354520Y-294870D01*
X352180Y-298620D01*
X349390Y-301140D01*
X345670Y-303000D01*
X336370D01*
G01X351500Y580830D02*
X352000Y581330D01*
X352370Y582170D01*
X352630Y583330D01*
X352370Y584330D01*
X351880Y585000D01*
X351000Y585500D01*
X347630D01*
Y575500D01*
X351750D01*
X352630Y576170D01*
X353130Y577170D01*
X353370Y578330D01*
X353130Y579500D01*
X352370Y580500D01*
X351500Y580830D01*
X347630D01*
G01X347870Y600000D02*
X351000Y610000D01*
X354130Y600000D01*
G01X353000Y603500D02*
X349000D01*
G01X338500Y625000D02*
Y635000D01*
X341620D01*
X342620Y634500D01*
X343250Y633830D01*
X343500Y632500D01*
X343250Y631170D01*
X342500Y630330D01*
X341620Y629830D01*
X338500D01*
G01X341620D02*
X343500Y625000D01*
G01X353500D02*
X348500D01*
Y635000D01*
X353500D01*
G01X351500Y630170D02*
X348500D01*
G01X357870Y635000D02*
X361000Y625000D01*
X364130Y635000D01*
G01X365010Y-946670D02*
X366910Y-944170D01*
X369110Y-942920D01*
X371630Y-942500D01*
X374780Y-943330D01*
X376990Y-945420D01*
X377620Y-947920D01*
X377300Y-950420D01*
X376040Y-952500D01*
X369740Y-956670D01*
X366910Y-959580D01*
X365010Y-963750D01*
X364380Y-967500D01*
X377620D01*
G01X387900Y-672500D02*
Y-677500D01*
G01X386440Y-672500D02*
X389360D01*
G01X393000Y-677500D02*
X392490Y-677420D01*
X392050Y-677080D01*
X391670Y-676580D01*
X391420Y-676000D01*
X391290Y-675330D01*
Y-674670D01*
X391420Y-674000D01*
X391670Y-673420D01*
X392050Y-672920D01*
X392490Y-672580D01*
X393000Y-672500D01*
X393510Y-672580D01*
X393950Y-672920D01*
X394330Y-673420D01*
X394580Y-674000D01*
X394710Y-674670D01*
Y-675330D01*
X394580Y-676000D01*
X394330Y-676580D01*
X393950Y-677080D01*
X393510Y-677420D01*
X393000Y-677500D01*
G01X396830Y-672500D02*
Y-677500D01*
X399370D01*
G01X404470D02*
X401930D01*
Y-672500D01*
X404470D01*
G01X403450Y-674920D02*
X401930D01*
G01X407030Y-677500D02*
Y-672500D01*
X408620D01*
X409120Y-672750D01*
X409440Y-673080D01*
X409570Y-673750D01*
X409440Y-674420D01*
X409060Y-674830D01*
X408620Y-675080D01*
X407030D01*
G01X408620D02*
X409570Y-677500D01*
G01X411820D02*
X413400Y-672500D01*
X414980Y-677500D01*
G01X414410Y-675750D02*
X412390D01*
G01X417040Y-677500D02*
Y-672500D01*
X419960Y-677500D01*
Y-672500D01*
G01X424990Y-672920D02*
X424610Y-672670D01*
X424170Y-672500D01*
X423660D01*
X423090Y-672750D01*
X422650Y-673170D01*
X422330Y-673670D01*
X422080Y-674500D01*
X422020Y-675250D01*
X422140Y-676000D01*
X422330Y-676500D01*
X422710Y-677000D01*
X423160Y-677330D01*
X423600Y-677500D01*
X424040D01*
X424490Y-677330D01*
X424870Y-677080D01*
X425180Y-676750D01*
G01X429970Y-677500D02*
X427430D01*
Y-672500D01*
X429970D01*
G01X428950Y-674920D02*
X427430D01*
G01X432470Y-676830D02*
X432980Y-677250D01*
X433550Y-677500D01*
X434050D01*
X434560Y-677250D01*
X434940Y-676830D01*
X435130Y-676250D01*
X435000Y-675670D01*
X434690Y-675170D01*
X434120Y-674830D01*
X433360Y-674670D01*
X432910Y-674330D01*
X432720Y-673750D01*
X432850Y-673170D01*
X433170Y-672750D01*
X433610Y-672500D01*
X434050D01*
X434500Y-672670D01*
X434880Y-673080D01*
G01X372160Y-303000D02*
X383800Y-265500D01*
X395440Y-303000D01*
G01X391240Y-289890D02*
X376360D01*
G01X377100Y91000D02*
Y1000D01*
X437100D01*
Y91000D01*
X377100D01*
G01X381870Y133270D02*
X417330D01*
Y168730D01*
X381870D01*
Y153940D01*
X384840Y151000D01*
X381870Y148060D01*
Y133270D01*
G01X392580Y139120D02*
G03I-4500J0D01*
G01X392370Y140500D02*
X383790D01*
G01X386280Y191500D02*
Y180760D01*
X387030Y178510D01*
X388560Y177010D01*
X390450Y176500D01*
X392340Y177010D01*
X393870Y178510D01*
X394620Y180760D01*
Y191500D01*
G01X375500Y618000D02*
Y568000D01*
G01X376000Y642500D02*
Y592500D01*
G01X365010Y698330D02*
X366910Y700830D01*
X369110Y702080D01*
X371630Y702500D01*
X374780Y701670D01*
X376990Y699580D01*
X377620Y697080D01*
X377300Y694580D01*
X376040Y692500D01*
X369740Y688330D01*
X366910Y685420D01*
X365010Y681250D01*
X364380Y677500D01*
X377620D01*
G01X407200Y-703330D02*
X408720D01*
G01X407900Y-702250D02*
Y-704420D01*
G01X412180Y-703330D02*
X413820D01*
G01X418100Y-705000D02*
Y-700000D01*
X417340Y-701000D01*
G01Y-705000D02*
X418860D01*
G01X422060Y-705170D02*
X424340Y-700000D01*
G01X426910Y-704000D02*
X427290Y-704580D01*
X427790Y-704920D01*
X428360Y-705000D01*
X428870Y-704920D01*
X429380Y-704500D01*
X429690Y-704000D01*
X429760Y-703500D01*
X429630Y-702920D01*
X429190Y-702500D01*
X428740Y-702330D01*
X428170D01*
G01X428740D02*
X429120Y-702080D01*
X429440Y-701670D01*
X429570Y-701170D01*
X429440Y-700670D01*
X429120Y-700250D01*
X428550Y-700000D01*
X427980Y-700080D01*
X427410Y-700420D01*
G01X432200Y-700830D02*
X432580Y-700330D01*
X433020Y-700080D01*
X433530Y-700000D01*
X434160Y-700170D01*
X434600Y-700580D01*
X434730Y-701080D01*
X434670Y-701580D01*
X434410Y-702000D01*
X433150Y-702830D01*
X432580Y-703420D01*
X432200Y-704250D01*
X432070Y-705000D01*
X434730D01*
G01X396700Y-692500D02*
Y-687500D01*
X399100D01*
G01X398220Y-689920D02*
X396700D01*
G01X401730Y-692500D02*
Y-687500D01*
X403320D01*
X403820Y-687750D01*
X404140Y-688080D01*
X404270Y-688750D01*
X404140Y-689420D01*
X403760Y-689830D01*
X403320Y-690080D01*
X401730D01*
G01X403320D02*
X404270Y-692500D01*
G01X406520D02*
X408100Y-687500D01*
X409680Y-692500D01*
G01X409110Y-690750D02*
X407090D01*
G01X414590Y-687920D02*
X414210Y-687670D01*
X413770Y-687500D01*
X413260D01*
X412690Y-687750D01*
X412250Y-688170D01*
X411930Y-688670D01*
X411680Y-689500D01*
X411620Y-690250D01*
X411740Y-691000D01*
X411930Y-691500D01*
X412310Y-692000D01*
X412760Y-692330D01*
X413200Y-692500D01*
X413640D01*
X414090Y-692330D01*
X414470Y-692080D01*
X414780Y-691750D01*
G01X418300Y-687500D02*
Y-692500D01*
G01X416840Y-687500D02*
X419760D01*
G01X422640D02*
X424160D01*
G01X423400D02*
Y-692500D01*
G01X422640D02*
X424160D01*
G01X428500D02*
X427990Y-692420D01*
X427550Y-692080D01*
X427170Y-691580D01*
X426920Y-691000D01*
X426790Y-690330D01*
Y-689670D01*
X426920Y-689000D01*
X427170Y-688420D01*
X427550Y-687920D01*
X427990Y-687580D01*
X428500Y-687500D01*
X429010Y-687580D01*
X429450Y-687920D01*
X429830Y-688420D01*
X430080Y-689000D01*
X430210Y-689670D01*
Y-690330D01*
X430080Y-691000D01*
X429830Y-691580D01*
X429450Y-692080D01*
X429010Y-692420D01*
X428500Y-692500D01*
G01X432140D02*
Y-687500D01*
X435060Y-692500D01*
Y-687500D01*
G01X437370Y-691830D02*
X437880Y-692250D01*
X438450Y-692500D01*
X438950D01*
X439460Y-692250D01*
X439840Y-691830D01*
X440030Y-691250D01*
X439900Y-690670D01*
X439590Y-690170D01*
X439020Y-689830D01*
X438260Y-689670D01*
X437810Y-689330D01*
X437620Y-688750D01*
X437750Y-688170D01*
X438070Y-687750D01*
X438510Y-687500D01*
X438950D01*
X439400Y-687670D01*
X439780Y-688080D01*
G01X411700Y-303000D02*
Y-265500D01*
X423310D01*
X427030Y-267390D01*
X429370Y-269880D01*
X430300Y-274890D01*
X429370Y-279870D01*
X426580Y-282990D01*
X423310Y-284880D01*
X411700D01*
G01X395640Y41500D02*
X396600Y40000D01*
X397740Y39010D01*
X399060Y38500D01*
X400590Y39010D01*
X401730Y40000D01*
X402870Y41500D01*
X403260Y43510D01*
Y53500D01*
G01X414750Y38500D02*
Y53500D01*
X412470Y50500D01*
G01Y38500D02*
X417030D01*
G01X402150Y189010D02*
X403290Y190510D01*
X404610Y191260D01*
X406140Y191500D01*
X408030Y190990D01*
X409350Y189760D01*
X409740Y188260D01*
X409560Y186760D01*
X408780Y185500D01*
X405000Y183010D01*
X403290Y181240D01*
X402150Y178750D01*
X401760Y176500D01*
X409740D01*
G01X423310Y-284880D02*
X430300Y-303000D01*
G01X458200D02*
Y-286140D01*
X448900Y-265500D01*
G01X443100Y77500D02*
X458100D01*
X455100Y79780D01*
G01X443100D02*
Y75220D01*
G01X440100Y163000D02*
Y142000D01*
X479100D01*
Y163000D01*
X440100D01*
G01X458820Y-692500D02*
X460400Y-687500D01*
X461980Y-692500D01*
G01X461410Y-690750D02*
X459390D01*
G01X464040Y-692500D02*
Y-687500D01*
X466960Y-692500D01*
Y-687500D01*
G01X470980Y-690000D02*
X472250D01*
Y-691500D01*
X471870Y-692000D01*
X471420Y-692330D01*
X470790Y-692500D01*
X470160Y-692330D01*
X469710Y-692000D01*
X469330Y-691500D01*
X469080Y-690920D01*
X468950Y-690250D01*
Y-689670D01*
X469080Y-689170D01*
X469330Y-688580D01*
X469710Y-688080D01*
X470090Y-687750D01*
X470600Y-687500D01*
X471040D01*
X471550Y-687670D01*
X471930Y-688000D01*
G01X474430Y-687500D02*
Y-692500D01*
X476970D01*
G01X482070D02*
X479530D01*
Y-687500D01*
X482070D01*
G01X481050Y-689920D02*
X479530D01*
G01X484570Y-691830D02*
X485080Y-692250D01*
X485650Y-692500D01*
X486150D01*
X486660Y-692250D01*
X487040Y-691830D01*
X487230Y-691250D01*
X487100Y-690670D01*
X486790Y-690170D01*
X486220Y-689830D01*
X485460Y-689670D01*
X485010Y-689330D01*
X484820Y-688750D01*
X484950Y-688170D01*
X485270Y-687750D01*
X485710Y-687500D01*
X486150D01*
X486600Y-687670D01*
X486980Y-688080D01*
G01X459700Y-703330D02*
X461220D01*
G01X460400Y-702250D02*
Y-704420D01*
G01X464680Y-703330D02*
X466320D01*
G01X474200Y-700830D02*
X474580Y-700330D01*
X475020Y-700080D01*
X475530Y-700000D01*
X476160Y-700170D01*
X476600Y-700580D01*
X476730Y-701080D01*
X476670Y-701580D01*
X476410Y-702000D01*
X475150Y-702830D01*
X474580Y-703420D01*
X474200Y-704250D01*
X474070Y-705000D01*
X476730D01*
G01X467500Y-265500D02*
X458200Y-286140D01*
G01X459120Y182740D02*
X457980Y183490D01*
X456660Y184000D01*
X455130D01*
X453420Y183250D01*
X452100Y181990D01*
X451140Y180490D01*
X450390Y178000D01*
X450210Y175750D01*
X450570Y173500D01*
X451140Y172000D01*
X452280Y170500D01*
X453630Y169510D01*
X454950Y169000D01*
X456270D01*
X457620Y169510D01*
X458760Y170260D01*
X459690Y171250D01*
G01X466650Y175240D02*
X467970Y177010D01*
X469110Y178000D01*
X470640Y178510D01*
X471960Y178000D01*
X472920Y177010D01*
X473670Y175510D01*
X473850Y173740D01*
X473670Y172240D01*
X472920Y170740D01*
X471780Y169510D01*
X470430Y169000D01*
X468930Y169510D01*
X467580Y171010D01*
X466830Y173260D01*
X466650Y175750D01*
X467010Y178990D01*
X467580Y180760D01*
X468540Y182500D01*
X469860Y183760D01*
X471210Y184000D01*
X472530Y183490D01*
X473490Y182260D01*
G01X501000Y-932500D02*
Y-632500D01*
G01X509290Y-886920D02*
X508910Y-886670D01*
X508470Y-886500D01*
X507960D01*
X507390Y-886750D01*
X506950Y-887170D01*
X506630Y-887670D01*
X506380Y-888500D01*
X506320Y-889250D01*
X506440Y-890000D01*
X506630Y-890500D01*
X507010Y-891000D01*
X507460Y-891330D01*
X507900Y-891500D01*
X508340D01*
X508790Y-891330D01*
X509170Y-891080D01*
X509480Y-890750D01*
G01X511670Y-891500D02*
Y-886500D01*
G01X514330D02*
Y-891500D01*
G01Y-889000D02*
X511670D01*
G01X519370Y-891500D02*
X516830D01*
Y-886500D01*
X519370D01*
G01X518350Y-888920D02*
X516830D01*
G01X524590Y-886920D02*
X524210Y-886670D01*
X523770Y-886500D01*
X523260D01*
X522690Y-886750D01*
X522250Y-887170D01*
X521930Y-887670D01*
X521680Y-888500D01*
X521620Y-889250D01*
X521740Y-890000D01*
X521930Y-890500D01*
X522310Y-891000D01*
X522760Y-891330D01*
X523200Y-891500D01*
X523640D01*
X524090Y-891330D01*
X524470Y-891080D01*
X524780Y-890750D01*
G01X526910Y-891500D02*
Y-886500D01*
G01X529310D02*
X526910Y-889580D01*
G01X529690Y-891500D02*
X527980Y-888170D01*
G01X534670Y-891500D02*
X532130D01*
Y-886500D01*
X534670D01*
G01X533650Y-888920D02*
X532130D01*
G01X537230Y-891500D02*
Y-886500D01*
X538820D01*
X539320Y-886750D01*
X539640Y-887080D01*
X539770Y-887750D01*
X539640Y-888420D01*
X539260Y-888830D01*
X538820Y-889080D01*
X537230D01*
G01X538820D02*
X539770Y-891500D01*
G01X507700Y-900830D02*
X510300D01*
G01X515700D02*
X518300D01*
G01X523700D02*
X526300D01*
G01X531700D02*
X534300D01*
G01X539700D02*
X542300D01*
G01X547700D02*
X550300D01*
G01X555700D02*
X558300D01*
G01X563700D02*
X566300D01*
G01X506630Y-866500D02*
Y-861500D01*
X508150D01*
X508660Y-861750D01*
X509040Y-862330D01*
X509170Y-863000D01*
X509040Y-863670D01*
X508720Y-864170D01*
X508150Y-864420D01*
X506630D01*
G01X513000Y-861500D02*
Y-866500D01*
G01X511540Y-861500D02*
X514460D01*
G01X516710Y-866500D02*
Y-861500D01*
X517970D01*
X518480Y-861750D01*
X518860Y-862080D01*
X519180Y-862580D01*
X519430Y-863170D01*
X519490Y-864000D01*
X519430Y-864830D01*
X519180Y-865420D01*
X518860Y-865920D01*
X518480Y-866250D01*
X517970Y-866500D01*
X516710D01*
G01X529570D02*
X527030D01*
Y-861500D01*
X529570D01*
G01X528550Y-863920D02*
X527030D01*
G01X531940Y-866500D02*
Y-861500D01*
X534860Y-866500D01*
Y-861500D01*
G01X538880Y-864000D02*
X540150D01*
Y-865500D01*
X539770Y-866000D01*
X539320Y-866330D01*
X538690Y-866500D01*
X538060Y-866330D01*
X537610Y-866000D01*
X537230Y-865500D01*
X536980Y-864920D01*
X536850Y-864250D01*
Y-863670D01*
X536980Y-863170D01*
X537230Y-862580D01*
X537610Y-862080D01*
X537990Y-861750D01*
X538500Y-861500D01*
X538940D01*
X539450Y-861670D01*
X539830Y-862000D01*
G01X542840Y-861500D02*
X544360D01*
G01X543600D02*
Y-866500D01*
G01X542840D02*
X544360D01*
G01X547240D02*
Y-861500D01*
X550160Y-866500D01*
Y-861500D01*
G01X555070Y-866500D02*
X552530D01*
Y-861500D01*
X555070D01*
G01X554050Y-863920D02*
X552530D01*
G01X560170Y-866500D02*
X557630D01*
Y-861500D01*
X560170D01*
G01X559150Y-863920D02*
X557630D01*
G01X562730Y-866500D02*
Y-861500D01*
X564320D01*
X564820Y-861750D01*
X565140Y-862080D01*
X565270Y-862750D01*
X565140Y-863420D01*
X564760Y-863830D01*
X564320Y-864080D01*
X562730D01*
G01X564320D02*
X565270Y-866500D01*
G01X506400Y-878500D02*
Y-870500D01*
X509000Y-877170D01*
X511600Y-870500D01*
Y-878500D01*
G01X517000Y-878770D02*
X516800Y-878630D01*
Y-878370D01*
X517000Y-878230D01*
X517200Y-878370D01*
Y-878630D01*
X517000Y-878770D01*
G01X530800Y-878500D02*
Y-870500D01*
X532800D01*
X533600Y-870900D01*
X534200Y-871430D01*
X534700Y-872230D01*
X535100Y-873170D01*
X535200Y-874500D01*
X535100Y-875830D01*
X534700Y-876770D01*
X534200Y-877570D01*
X533600Y-878100D01*
X532800Y-878500D01*
X530800D01*
G01X538800Y-870500D02*
Y-876230D01*
X539200Y-877430D01*
X540000Y-878230D01*
X541000Y-878500D01*
X542000Y-878230D01*
X542800Y-877430D01*
X543200Y-876230D01*
Y-870500D01*
G01X547100Y-878500D02*
Y-870500D01*
X550900D01*
G01X549500Y-874370D02*
X547100D01*
G01X555100Y-878500D02*
Y-870500D01*
X558900D01*
G01X557500Y-874370D02*
X555100D01*
G01X501000Y-882500D02*
X696000D01*
G01X507700Y-825830D02*
X510300D01*
G01X515700D02*
X518300D01*
G01X523700D02*
X526300D01*
G01X531700D02*
X534300D01*
G01X539700D02*
X542300D01*
G01X547700D02*
X550300D01*
G01X555700D02*
X558300D01*
G01X563700D02*
X566300D01*
G01X506400Y-853500D02*
Y-845500D01*
X509000Y-852170D01*
X511600Y-845500D01*
Y-853500D01*
G01X517000Y-853770D02*
X516800Y-853630D01*
Y-853370D01*
X517000Y-853230D01*
X517200Y-853370D01*
Y-853630D01*
X517000Y-853770D01*
G01X531000Y-845500D02*
Y-853500D01*
X535000D01*
G01X538500D02*
X541000Y-845500D01*
X543500Y-853500D01*
G01X542600Y-850700D02*
X539400D01*
G01X549800Y-849230D02*
X550200Y-848830D01*
X550500Y-848170D01*
X550700Y-847230D01*
X550500Y-846430D01*
X550100Y-845900D01*
X549400Y-845500D01*
X546700D01*
Y-853500D01*
X550000D01*
X550700Y-852970D01*
X551100Y-852170D01*
X551300Y-851230D01*
X551100Y-850300D01*
X550500Y-849500D01*
X549800Y-849230D01*
X546700D01*
G01X555000Y-853500D02*
Y-845500D01*
X557500D01*
X558300Y-845900D01*
X558800Y-846430D01*
X559000Y-847500D01*
X558800Y-848570D01*
X558200Y-849230D01*
X557500Y-849630D01*
X555000D01*
G01X557500D02*
X559000Y-853500D01*
G01X562500D02*
X565000Y-845500D01*
X567500Y-853500D01*
G01X566600Y-850700D02*
X563400D01*
G01X570700Y-853500D02*
Y-845500D01*
X575300Y-853500D01*
Y-845500D01*
G01X583200Y-846170D02*
X582600Y-845770D01*
X581900Y-845500D01*
X581100D01*
X580200Y-845900D01*
X579500Y-846570D01*
X579000Y-847370D01*
X578600Y-848700D01*
X578500Y-849900D01*
X578700Y-851100D01*
X579000Y-851900D01*
X579600Y-852700D01*
X580300Y-853230D01*
X581000Y-853500D01*
X581700D01*
X582400Y-853230D01*
X583000Y-852830D01*
X583500Y-852300D01*
G01X586900Y-853500D02*
Y-845500D01*
G01X591100D02*
Y-853500D01*
G01Y-849500D02*
X586900D01*
G01X599000Y-853500D02*
X595000D01*
Y-845500D01*
X599000D01*
G01X597400Y-849370D02*
X595000D01*
G01X506510Y-841500D02*
Y-836500D01*
X507770D01*
X508280Y-836750D01*
X508660Y-837080D01*
X508980Y-837580D01*
X509230Y-838170D01*
X509290Y-839000D01*
X509230Y-839830D01*
X508980Y-840420D01*
X508660Y-840920D01*
X508280Y-841250D01*
X507770Y-841500D01*
X506510D01*
G01X514270D02*
X511730D01*
Y-836500D01*
X514270D01*
G01X513250Y-838920D02*
X511730D01*
G01X516770Y-840830D02*
X517280Y-841250D01*
X517850Y-841500D01*
X518350D01*
X518860Y-841250D01*
X519240Y-840830D01*
X519430Y-840250D01*
X519300Y-839670D01*
X518990Y-839170D01*
X518420Y-838830D01*
X517660Y-838670D01*
X517210Y-838330D01*
X517020Y-837750D01*
X517150Y-837170D01*
X517470Y-836750D01*
X517910Y-836500D01*
X518350D01*
X518800Y-836670D01*
X519180Y-837080D01*
G01X522440Y-836500D02*
X523960D01*
G01X523200D02*
Y-841500D01*
G01X522440D02*
X523960D01*
G01X528680Y-839000D02*
X529950D01*
Y-840500D01*
X529570Y-841000D01*
X529120Y-841330D01*
X528490Y-841500D01*
X527860Y-841330D01*
X527410Y-841000D01*
X527030Y-840500D01*
X526780Y-839920D01*
X526650Y-839250D01*
Y-838670D01*
X526780Y-838170D01*
X527030Y-837580D01*
X527410Y-837080D01*
X527790Y-836750D01*
X528300Y-836500D01*
X528740D01*
X529250Y-836670D01*
X529630Y-837000D01*
G01X531940Y-841500D02*
Y-836500D01*
X534860Y-841500D01*
Y-836500D01*
G01X539770Y-841500D02*
X537230D01*
Y-836500D01*
X539770D01*
G01X538750Y-838920D02*
X537230D01*
G01X542330Y-841500D02*
Y-836500D01*
X543920D01*
X544420Y-836750D01*
X544740Y-837080D01*
X544870Y-837750D01*
X544740Y-838420D01*
X544360Y-838830D01*
X543920Y-839080D01*
X542330D01*
G01X543920D02*
X544870Y-841500D01*
G01X696000Y-857500D02*
X501000D01*
G01X507700Y-800830D02*
X510300D01*
G01X515700D02*
X518300D01*
G01X523700D02*
X526300D01*
G01X531700D02*
X534300D01*
G01X539700D02*
X542300D01*
G01X547700D02*
X550300D01*
G01X555700D02*
X558300D01*
G01X563700D02*
X566300D01*
G01X506570Y-816500D02*
Y-811500D01*
G01X509230D02*
Y-816500D01*
G01Y-814000D02*
X506570D01*
G01X511420Y-816500D02*
X513000Y-811500D01*
X514580Y-816500D01*
G01X514010Y-814750D02*
X511990D01*
G01X516830Y-816500D02*
Y-811500D01*
X518420D01*
X518920Y-811750D01*
X519240Y-812080D01*
X519370Y-812750D01*
X519240Y-813420D01*
X518860Y-813830D01*
X518420Y-814080D01*
X516830D01*
G01X518420D02*
X519370Y-816500D01*
G01X521810D02*
Y-811500D01*
X523070D01*
X523580Y-811750D01*
X523960Y-812080D01*
X524280Y-812580D01*
X524530Y-813170D01*
X524590Y-814000D01*
X524530Y-814830D01*
X524280Y-815420D01*
X523960Y-815920D01*
X523580Y-816250D01*
X523070Y-816500D01*
X521810D01*
G01X526400Y-811500D02*
X527290Y-816500D01*
X528300Y-811500D01*
X529310Y-816500D01*
X530200Y-811500D01*
G01X531820Y-816500D02*
X533400Y-811500D01*
X534980Y-816500D01*
G01X534410Y-814750D02*
X532390D01*
G01X537230Y-816500D02*
Y-811500D01*
X538820D01*
X539320Y-811750D01*
X539640Y-812080D01*
X539770Y-812750D01*
X539640Y-813420D01*
X539260Y-813830D01*
X538820Y-814080D01*
X537230D01*
G01X538820D02*
X539770Y-816500D01*
G01X544870D02*
X542330D01*
Y-811500D01*
X544870D01*
G01X543850Y-813920D02*
X542330D01*
G01X552530Y-816500D02*
Y-811500D01*
X554120D01*
X554620Y-811750D01*
X554940Y-812080D01*
X555070Y-812750D01*
X554940Y-813420D01*
X554560Y-813830D01*
X554120Y-814080D01*
X552530D01*
G01X554120D02*
X555070Y-816500D01*
G01X560170D02*
X557630D01*
Y-811500D01*
X560170D01*
G01X559150Y-813920D02*
X557630D01*
G01X562730Y-811500D02*
Y-816500D01*
X565270D01*
G01X570370D02*
X567830D01*
Y-811500D01*
X570370D01*
G01X569350Y-813920D02*
X567830D01*
G01X572620Y-816500D02*
X574200Y-811500D01*
X575780Y-816500D01*
G01X575210Y-814750D02*
X573190D01*
G01X577970Y-815830D02*
X578480Y-816250D01*
X579050Y-816500D01*
X579550D01*
X580060Y-816250D01*
X580440Y-815830D01*
X580630Y-815250D01*
X580500Y-814670D01*
X580190Y-814170D01*
X579620Y-813830D01*
X578860Y-813670D01*
X578410Y-813330D01*
X578220Y-812750D01*
X578350Y-812170D01*
X578670Y-811750D01*
X579110Y-811500D01*
X579550D01*
X580000Y-811670D01*
X580380Y-812080D01*
G01X585670Y-816500D02*
X583130D01*
Y-811500D01*
X585670D01*
G01X584650Y-813920D02*
X583130D01*
G01X501000Y-807500D02*
X696000D01*
G01X509600Y-774500D02*
X511600D01*
Y-776900D01*
X511000Y-777700D01*
X510300Y-778230D01*
X509300Y-778500D01*
X508300Y-778230D01*
X507600Y-777700D01*
X507000Y-776900D01*
X506600Y-775970D01*
X506400Y-774900D01*
Y-773970D01*
X506600Y-773170D01*
X507000Y-772230D01*
X507600Y-771430D01*
X508200Y-770900D01*
X509000Y-770500D01*
X509700D01*
X510500Y-770770D01*
X511100Y-771300D01*
G01X517000Y-778770D02*
X516800Y-778630D01*
Y-778370D01*
X517000Y-778230D01*
X517200Y-778370D01*
Y-778630D01*
X517000Y-778770D01*
G01X535200Y-771170D02*
X534600Y-770770D01*
X533900Y-770500D01*
X533100D01*
X532200Y-770900D01*
X531500Y-771570D01*
X531000Y-772370D01*
X530600Y-773700D01*
X530500Y-774900D01*
X530700Y-776100D01*
X531000Y-776900D01*
X531600Y-777700D01*
X532300Y-778230D01*
X533000Y-778500D01*
X533700D01*
X534400Y-778230D01*
X535000Y-777830D01*
X535500Y-777300D01*
G01X543000Y-778500D02*
X539000D01*
Y-770500D01*
X543000D01*
G01X541400Y-774370D02*
X539000D01*
G01X547000Y-770500D02*
Y-778500D01*
X551000D01*
G01X559000D02*
X555000D01*
Y-770500D01*
X559000D01*
G01X557400Y-774370D02*
X555000D01*
G01X562800Y-778500D02*
Y-770500D01*
X564800D01*
X565600Y-770900D01*
X566200Y-771430D01*
X566700Y-772230D01*
X567100Y-773170D01*
X567200Y-774500D01*
X567100Y-775830D01*
X566700Y-776770D01*
X566200Y-777570D01*
X565600Y-778100D01*
X564800Y-778500D01*
X562800D01*
G01X573000D02*
X572200Y-778370D01*
X571500Y-777830D01*
X570900Y-777030D01*
X570500Y-776100D01*
X570300Y-775030D01*
Y-773970D01*
X570500Y-772900D01*
X570900Y-771970D01*
X571500Y-771170D01*
X572200Y-770630D01*
X573000Y-770500D01*
X573800Y-770630D01*
X574500Y-771170D01*
X575100Y-771970D01*
X575500Y-772900D01*
X575700Y-773970D01*
Y-775030D01*
X575500Y-776100D01*
X575100Y-777030D01*
X574500Y-777830D01*
X573800Y-778370D01*
X573000Y-778500D01*
G01X578700D02*
Y-770500D01*
X583300Y-778500D01*
Y-770500D01*
G01X587800D02*
X590200D01*
G01X589000D02*
Y-778500D01*
G01X587800D02*
X590200D01*
G01X597000D02*
X596200Y-778370D01*
X595500Y-777830D01*
X594900Y-777030D01*
X594500Y-776100D01*
X594300Y-775030D01*
Y-773970D01*
X594500Y-772900D01*
X594900Y-771970D01*
X595500Y-771170D01*
X596200Y-770630D01*
X597000Y-770500D01*
X597800Y-770630D01*
X598500Y-771170D01*
X599100Y-771970D01*
X599500Y-772900D01*
X599700Y-773970D01*
Y-775030D01*
X599500Y-776100D01*
X599100Y-777030D01*
X598500Y-777830D01*
X597800Y-778370D01*
X597000Y-778500D01*
G01X507900Y-786500D02*
Y-791500D01*
G01X506440Y-786500D02*
X509360D01*
G01X514270Y-791500D02*
X511730D01*
Y-786500D01*
X514270D01*
G01X513250Y-788920D02*
X511730D01*
G01X516770Y-790830D02*
X517280Y-791250D01*
X517850Y-791500D01*
X518350D01*
X518860Y-791250D01*
X519240Y-790830D01*
X519430Y-790250D01*
X519300Y-789670D01*
X518990Y-789170D01*
X518420Y-788830D01*
X517660Y-788670D01*
X517210Y-788330D01*
X517020Y-787750D01*
X517150Y-787170D01*
X517470Y-786750D01*
X517910Y-786500D01*
X518350D01*
X518800Y-786670D01*
X519180Y-787080D01*
G01X523200Y-786500D02*
Y-791500D01*
G01X521740Y-786500D02*
X524660D01*
G01X532130Y-791500D02*
Y-786500D01*
X533650D01*
X534160Y-786750D01*
X534540Y-787330D01*
X534670Y-788000D01*
X534540Y-788670D01*
X534220Y-789170D01*
X533650Y-789420D01*
X532130D01*
G01X537230Y-791500D02*
Y-786500D01*
X538820D01*
X539320Y-786750D01*
X539640Y-787080D01*
X539770Y-787750D01*
X539640Y-788420D01*
X539260Y-788830D01*
X538820Y-789080D01*
X537230D01*
G01X538820D02*
X539770Y-791500D01*
G01X543600D02*
X543090Y-791420D01*
X542650Y-791080D01*
X542270Y-790580D01*
X542020Y-790000D01*
X541890Y-789330D01*
Y-788670D01*
X542020Y-788000D01*
X542270Y-787420D01*
X542650Y-786920D01*
X543090Y-786580D01*
X543600Y-786500D01*
X544110Y-786580D01*
X544550Y-786920D01*
X544930Y-787420D01*
X545180Y-788000D01*
X545310Y-788670D01*
Y-789330D01*
X545180Y-790000D01*
X544930Y-790580D01*
X544550Y-791080D01*
X544110Y-791420D01*
X543600Y-791500D01*
G01X550090Y-786920D02*
X549710Y-786670D01*
X549270Y-786500D01*
X548760D01*
X548190Y-786750D01*
X547750Y-787170D01*
X547430Y-787670D01*
X547180Y-788500D01*
X547120Y-789250D01*
X547240Y-790000D01*
X547430Y-790500D01*
X547810Y-791000D01*
X548260Y-791330D01*
X548700Y-791500D01*
X549140D01*
X549590Y-791330D01*
X549970Y-791080D01*
X550280Y-790750D01*
G01X555070Y-791500D02*
X552530D01*
Y-786500D01*
X555070D01*
G01X554050Y-788920D02*
X552530D01*
G01X557570Y-790830D02*
X558080Y-791250D01*
X558650Y-791500D01*
X559150D01*
X559660Y-791250D01*
X560040Y-790830D01*
X560230Y-790250D01*
X560100Y-789670D01*
X559790Y-789170D01*
X559220Y-788830D01*
X558460Y-788670D01*
X558010Y-788330D01*
X557820Y-787750D01*
X557950Y-787170D01*
X558270Y-786750D01*
X558710Y-786500D01*
X559150D01*
X559600Y-786670D01*
X559980Y-787080D01*
G01X562670Y-790830D02*
X563180Y-791250D01*
X563750Y-791500D01*
X564250D01*
X564760Y-791250D01*
X565140Y-790830D01*
X565330Y-790250D01*
X565200Y-789670D01*
X564890Y-789170D01*
X564320Y-788830D01*
X563560Y-788670D01*
X563110Y-788330D01*
X562920Y-787750D01*
X563050Y-787170D01*
X563370Y-786750D01*
X563810Y-786500D01*
X564250D01*
X564700Y-786670D01*
X565080Y-787080D01*
G01X501000Y-782500D02*
X696000D01*
G01X507900Y-736500D02*
Y-741500D01*
G01X506440Y-736500D02*
X509360D01*
G01X514270Y-741500D02*
X511730D01*
Y-736500D01*
X514270D01*
G01X513250Y-738920D02*
X511730D01*
G01X516770Y-740830D02*
X517280Y-741250D01*
X517850Y-741500D01*
X518350D01*
X518860Y-741250D01*
X519240Y-740830D01*
X519430Y-740250D01*
X519300Y-739670D01*
X518990Y-739170D01*
X518420Y-738830D01*
X517660Y-738670D01*
X517210Y-738330D01*
X517020Y-737750D01*
X517150Y-737170D01*
X517470Y-736750D01*
X517910Y-736500D01*
X518350D01*
X518800Y-736670D01*
X519180Y-737080D01*
G01X523200Y-736500D02*
Y-741500D01*
G01X521740Y-736500D02*
X524660D01*
G01X534670Y-741500D02*
X532130D01*
Y-736500D01*
X534670D01*
G01X533650Y-738920D02*
X532130D01*
G01X537040Y-741500D02*
Y-736500D01*
X539960Y-741500D01*
Y-736500D01*
G01X543980Y-739000D02*
X545250D01*
Y-740500D01*
X544870Y-741000D01*
X544420Y-741330D01*
X543790Y-741500D01*
X543160Y-741330D01*
X542710Y-741000D01*
X542330Y-740500D01*
X542080Y-739920D01*
X541950Y-739250D01*
Y-738670D01*
X542080Y-738170D01*
X542330Y-737580D01*
X542710Y-737080D01*
X543090Y-736750D01*
X543600Y-736500D01*
X544040D01*
X544550Y-736670D01*
X544930Y-737000D01*
G01X547940Y-736500D02*
X549460D01*
G01X548700D02*
Y-741500D01*
G01X547940D02*
X549460D01*
G01X552340D02*
Y-736500D01*
X555260Y-741500D01*
Y-736500D01*
G01X560170Y-741500D02*
X557630D01*
Y-736500D01*
X560170D01*
G01X559150Y-738920D02*
X557630D01*
G01X565270Y-741500D02*
X562730D01*
Y-736500D01*
X565270D01*
G01X564250Y-738920D02*
X562730D01*
G01X567830Y-741500D02*
Y-736500D01*
X569420D01*
X569920Y-736750D01*
X570240Y-737080D01*
X570370Y-737750D01*
X570240Y-738420D01*
X569860Y-738830D01*
X569420Y-739080D01*
X567830D01*
G01X569420D02*
X570370Y-741500D01*
G01X507700Y-750830D02*
X510300D01*
G01X515700D02*
X518300D01*
G01X523700D02*
X526300D01*
G01X531700D02*
X534300D01*
G01X539700D02*
X542300D01*
G01X547700D02*
X550300D01*
G01X555700D02*
X558300D01*
G01X563700D02*
X566300D01*
G01X509290Y-761920D02*
X508910Y-761670D01*
X508470Y-761500D01*
X507960D01*
X507390Y-761750D01*
X506950Y-762170D01*
X506630Y-762670D01*
X506380Y-763500D01*
X506320Y-764250D01*
X506440Y-765000D01*
X506630Y-765500D01*
X507010Y-766000D01*
X507460Y-766330D01*
X507900Y-766500D01*
X508340D01*
X508790Y-766330D01*
X509170Y-766080D01*
X509480Y-765750D01*
G01X513000Y-766500D02*
X512490Y-766420D01*
X512050Y-766080D01*
X511670Y-765580D01*
X511420Y-765000D01*
X511290Y-764330D01*
Y-763670D01*
X511420Y-763000D01*
X511670Y-762420D01*
X512050Y-761920D01*
X512490Y-761580D01*
X513000Y-761500D01*
X513510Y-761580D01*
X513950Y-761920D01*
X514330Y-762420D01*
X514580Y-763000D01*
X514710Y-763670D01*
Y-764330D01*
X514580Y-765000D01*
X514330Y-765580D01*
X513950Y-766080D01*
X513510Y-766420D01*
X513000Y-766500D01*
G01X516450D02*
Y-761500D01*
X518100Y-765670D01*
X519750Y-761500D01*
Y-766500D01*
G01X521930D02*
Y-761500D01*
X523450D01*
X523960Y-761750D01*
X524340Y-762330D01*
X524470Y-763000D01*
X524340Y-763670D01*
X524020Y-764170D01*
X523450Y-764420D01*
X521930D01*
G01X528300Y-766500D02*
X527790Y-766420D01*
X527350Y-766080D01*
X526970Y-765580D01*
X526720Y-765000D01*
X526590Y-764330D01*
Y-763670D01*
X526720Y-763000D01*
X526970Y-762420D01*
X527350Y-761920D01*
X527790Y-761580D01*
X528300Y-761500D01*
X528810Y-761580D01*
X529250Y-761920D01*
X529630Y-762420D01*
X529880Y-763000D01*
X530010Y-763670D01*
Y-764330D01*
X529880Y-765000D01*
X529630Y-765580D01*
X529250Y-766080D01*
X528810Y-766420D01*
X528300Y-766500D01*
G01X531940D02*
Y-761500D01*
X534860Y-766500D01*
Y-761500D01*
G01X539770Y-766500D02*
X537230D01*
Y-761500D01*
X539770D01*
G01X538750Y-763920D02*
X537230D01*
G01X542140Y-766500D02*
Y-761500D01*
X545060Y-766500D01*
Y-761500D01*
G01X548700D02*
Y-766500D01*
G01X547240Y-761500D02*
X550160D01*
G01X560170Y-766500D02*
X557630D01*
Y-761500D01*
X560170D01*
G01X559150Y-763920D02*
X557630D01*
G01X562540Y-766500D02*
Y-761500D01*
X565460Y-766500D01*
Y-761500D01*
G01X569480Y-764000D02*
X570750D01*
Y-765500D01*
X570370Y-766000D01*
X569920Y-766330D01*
X569290Y-766500D01*
X568660Y-766330D01*
X568210Y-766000D01*
X567830Y-765500D01*
X567580Y-764920D01*
X567450Y-764250D01*
Y-763670D01*
X567580Y-763170D01*
X567830Y-762580D01*
X568210Y-762080D01*
X568590Y-761750D01*
X569100Y-761500D01*
X569540D01*
X570050Y-761670D01*
X570430Y-762000D01*
G01X573440Y-761500D02*
X574960D01*
G01X574200D02*
Y-766500D01*
G01X573440D02*
X574960D01*
G01X577840D02*
Y-761500D01*
X580760Y-766500D01*
Y-761500D01*
G01X585670Y-766500D02*
X583130D01*
Y-761500D01*
X585670D01*
G01X584650Y-763920D02*
X583130D01*
G01X590770Y-766500D02*
X588230D01*
Y-761500D01*
X590770D01*
G01X589750Y-763920D02*
X588230D01*
G01X593330Y-766500D02*
Y-761500D01*
X594920D01*
X595420Y-761750D01*
X595740Y-762080D01*
X595870Y-762750D01*
X595740Y-763420D01*
X595360Y-763830D01*
X594920Y-764080D01*
X593330D01*
G01X594920D02*
X595870Y-766500D01*
G01X501000Y-757500D02*
X696000D01*
G01X506570Y-716500D02*
Y-711500D01*
G01X509230D02*
Y-716500D01*
G01Y-714000D02*
X506570D01*
G01X511420Y-716500D02*
X513000Y-711500D01*
X514580Y-716500D01*
G01X514010Y-714750D02*
X511990D01*
G01X516830Y-716500D02*
Y-711500D01*
X518420D01*
X518920Y-711750D01*
X519240Y-712080D01*
X519370Y-712750D01*
X519240Y-713420D01*
X518860Y-713830D01*
X518420Y-714080D01*
X516830D01*
G01X518420D02*
X519370Y-716500D01*
G01X521810D02*
Y-711500D01*
X523070D01*
X523580Y-711750D01*
X523960Y-712080D01*
X524280Y-712580D01*
X524530Y-713170D01*
X524590Y-714000D01*
X524530Y-714830D01*
X524280Y-715420D01*
X523960Y-715920D01*
X523580Y-716250D01*
X523070Y-716500D01*
X521810D01*
G01X526400Y-711500D02*
X527290Y-716500D01*
X528300Y-711500D01*
X529310Y-716500D01*
X530200Y-711500D01*
G01X531820Y-716500D02*
X533400Y-711500D01*
X534980Y-716500D01*
G01X534410Y-714750D02*
X532390D01*
G01X537230Y-716500D02*
Y-711500D01*
X538820D01*
X539320Y-711750D01*
X539640Y-712080D01*
X539770Y-712750D01*
X539640Y-713420D01*
X539260Y-713830D01*
X538820Y-714080D01*
X537230D01*
G01X538820D02*
X539770Y-716500D01*
G01X544870D02*
X542330D01*
Y-711500D01*
X544870D01*
G01X543850Y-713920D02*
X542330D01*
G01X552470Y-715830D02*
X552980Y-716250D01*
X553550Y-716500D01*
X554050D01*
X554560Y-716250D01*
X554940Y-715830D01*
X555130Y-715250D01*
X555000Y-714670D01*
X554690Y-714170D01*
X554120Y-713830D01*
X553360Y-713670D01*
X552910Y-713330D01*
X552720Y-712750D01*
X552850Y-712170D01*
X553170Y-711750D01*
X553610Y-711500D01*
X554050D01*
X554500Y-711670D01*
X554880Y-712080D01*
G01X558900Y-716500D02*
Y-714250D01*
X557630Y-711500D01*
G01X560170D02*
X558900Y-714250D01*
G01X562670Y-715830D02*
X563180Y-716250D01*
X563750Y-716500D01*
X564250D01*
X564760Y-716250D01*
X565140Y-715830D01*
X565330Y-715250D01*
X565200Y-714670D01*
X564890Y-714170D01*
X564320Y-713830D01*
X563560Y-713670D01*
X563110Y-713330D01*
X562920Y-712750D01*
X563050Y-712170D01*
X563370Y-711750D01*
X563810Y-711500D01*
X564250D01*
X564700Y-711670D01*
X565080Y-712080D01*
G01X569100Y-711500D02*
Y-716500D01*
G01X567640Y-711500D02*
X570560D01*
G01X575470Y-716500D02*
X572930D01*
Y-711500D01*
X575470D01*
G01X574450Y-713920D02*
X572930D01*
G01X577650Y-716500D02*
Y-711500D01*
X579300Y-715670D01*
X580950Y-711500D01*
Y-716500D01*
G01X583070Y-715830D02*
X583580Y-716250D01*
X584150Y-716500D01*
X584650D01*
X585160Y-716250D01*
X585540Y-715830D01*
X585730Y-715250D01*
X585600Y-714670D01*
X585290Y-714170D01*
X584720Y-713830D01*
X583960Y-713670D01*
X583510Y-713330D01*
X583320Y-712750D01*
X583450Y-712170D01*
X583770Y-711750D01*
X584210Y-711500D01*
X584650D01*
X585100Y-711670D01*
X585480Y-712080D01*
G01X507000Y-726900D02*
X507500Y-727700D01*
X508100Y-728230D01*
X508800Y-728500D01*
X509600Y-728230D01*
X510200Y-727700D01*
X510800Y-726900D01*
X511000Y-725830D01*
Y-720500D01*
G01X517000Y-728770D02*
X516800Y-728630D01*
Y-728370D01*
X517000Y-728230D01*
X517200Y-728370D01*
Y-728630D01*
X517000Y-728770D01*
G01X530800Y-728500D02*
Y-720500D01*
G01X534600D02*
X530800Y-725430D01*
G01X535200Y-728500D02*
X532500Y-723170D01*
G01X543000Y-728500D02*
X539000D01*
Y-720500D01*
X543000D01*
G01X541400Y-724370D02*
X539000D01*
G01X546500Y-728500D02*
X549000Y-720500D01*
X551500Y-728500D01*
G01X550600Y-725700D02*
X547400D01*
G01X554700Y-728500D02*
Y-720500D01*
X559300Y-728500D01*
Y-720500D01*
G01X567000Y-728500D02*
X563000D01*
Y-720500D01*
X567000D01*
G01X565400Y-724370D02*
X563000D01*
G01X509600Y-674500D02*
X511600D01*
Y-676900D01*
X511000Y-677700D01*
X510300Y-678230D01*
X509300Y-678500D01*
X508300Y-678230D01*
X507600Y-677700D01*
X507000Y-676900D01*
X506600Y-675970D01*
X506400Y-674900D01*
Y-673970D01*
X506600Y-673170D01*
X507000Y-672230D01*
X507600Y-671430D01*
X508200Y-670900D01*
X509000Y-670500D01*
X509700D01*
X510500Y-670770D01*
X511100Y-671300D01*
G01X517000Y-678770D02*
X516800Y-678630D01*
Y-678370D01*
X517000Y-678230D01*
X517200Y-678370D01*
Y-678630D01*
X517000Y-678770D01*
G01X535200Y-671170D02*
X534600Y-670770D01*
X533900Y-670500D01*
X533100D01*
X532200Y-670900D01*
X531500Y-671570D01*
X531000Y-672370D01*
X530600Y-673700D01*
X530500Y-674900D01*
X530700Y-676100D01*
X531000Y-676900D01*
X531600Y-677700D01*
X532300Y-678230D01*
X533000Y-678500D01*
X533700D01*
X534400Y-678230D01*
X535000Y-677830D01*
X535500Y-677300D01*
G01X543000Y-678500D02*
X539000D01*
Y-670500D01*
X543000D01*
G01X541400Y-674370D02*
X539000D01*
G01X547000Y-670500D02*
Y-678500D01*
X551000D01*
G01X559000D02*
X555000D01*
Y-670500D01*
X559000D01*
G01X557400Y-674370D02*
X555000D01*
G01X562800Y-678500D02*
Y-670500D01*
X564800D01*
X565600Y-670900D01*
X566200Y-671430D01*
X566700Y-672230D01*
X567100Y-673170D01*
X567200Y-674500D01*
X567100Y-675830D01*
X566700Y-676770D01*
X566200Y-677570D01*
X565600Y-678100D01*
X564800Y-678500D01*
X562800D01*
G01X573000D02*
X572200Y-678370D01*
X571500Y-677830D01*
X570900Y-677030D01*
X570500Y-676100D01*
X570300Y-675030D01*
Y-673970D01*
X570500Y-672900D01*
X570900Y-671970D01*
X571500Y-671170D01*
X572200Y-670630D01*
X573000Y-670500D01*
X573800Y-670630D01*
X574500Y-671170D01*
X575100Y-671970D01*
X575500Y-672900D01*
X575700Y-673970D01*
Y-675030D01*
X575500Y-676100D01*
X575100Y-677030D01*
X574500Y-677830D01*
X573800Y-678370D01*
X573000Y-678500D01*
G01X578700D02*
Y-670500D01*
X583300Y-678500D01*
Y-670500D01*
G01X587800D02*
X590200D01*
G01X589000D02*
Y-678500D01*
G01X587800D02*
X590200D01*
G01X597000D02*
X596200Y-678370D01*
X595500Y-677830D01*
X594900Y-677030D01*
X594500Y-676100D01*
X594300Y-675030D01*
Y-673970D01*
X594500Y-672900D01*
X594900Y-671970D01*
X595500Y-671170D01*
X596200Y-670630D01*
X597000Y-670500D01*
X597800Y-670630D01*
X598500Y-671170D01*
X599100Y-671970D01*
X599500Y-672900D01*
X599700Y-673970D01*
Y-675030D01*
X599500Y-676100D01*
X599100Y-677030D01*
X598500Y-677830D01*
X597800Y-678370D01*
X597000Y-678500D01*
G01X507000Y-703500D02*
Y-695500D01*
X509500D01*
X510300Y-695900D01*
X510800Y-696430D01*
X511000Y-697500D01*
X510800Y-698570D01*
X510200Y-699230D01*
X509500Y-699630D01*
X507000D01*
G01X509500D02*
X511000Y-703500D01*
G01X517000Y-703770D02*
X516800Y-703630D01*
Y-703370D01*
X517000Y-703230D01*
X517200Y-703370D01*
Y-703630D01*
X517000Y-703770D01*
G01X530400Y-703500D02*
Y-695500D01*
X533000Y-702170D01*
X535600Y-695500D01*
Y-703500D01*
G01X538500D02*
X541000Y-695500D01*
X543500Y-703500D01*
G01X542600Y-700700D02*
X539400D01*
G01X551200Y-696170D02*
X550600Y-695770D01*
X549900Y-695500D01*
X549100D01*
X548200Y-695900D01*
X547500Y-696570D01*
X547000Y-697370D01*
X546600Y-698700D01*
X546500Y-699900D01*
X546700Y-701100D01*
X547000Y-701900D01*
X547600Y-702700D01*
X548300Y-703230D01*
X549000Y-703500D01*
X549700D01*
X550400Y-703230D01*
X551000Y-702830D01*
X551500Y-702300D01*
G01X554800Y-703500D02*
Y-695500D01*
X556800D01*
X557600Y-695900D01*
X558200Y-696430D01*
X558700Y-697230D01*
X559100Y-698170D01*
X559200Y-699500D01*
X559100Y-700830D01*
X558700Y-701770D01*
X558200Y-702570D01*
X557600Y-703100D01*
X556800Y-703500D01*
X554800D01*
G01X565000D02*
X564200Y-703370D01*
X563500Y-702830D01*
X562900Y-702030D01*
X562500Y-701100D01*
X562300Y-700030D01*
Y-698970D01*
X562500Y-697900D01*
X562900Y-696970D01*
X563500Y-696170D01*
X564200Y-695630D01*
X565000Y-695500D01*
X565800Y-695630D01*
X566500Y-696170D01*
X567100Y-696970D01*
X567500Y-697900D01*
X567700Y-698970D01*
Y-700030D01*
X567500Y-701100D01*
X567100Y-702030D01*
X566500Y-702830D01*
X565800Y-703370D01*
X565000Y-703500D01*
G01X570700D02*
Y-695500D01*
X575300Y-703500D01*
Y-695500D01*
G01X578500Y-703500D02*
X581000Y-695500D01*
X583500Y-703500D01*
G01X582600Y-700700D02*
X579400D01*
G01X587000Y-695500D02*
Y-703500D01*
X591000D01*
G01X594800D02*
Y-695500D01*
X596800D01*
X597600Y-695900D01*
X598200Y-696430D01*
X598700Y-697230D01*
X599100Y-698170D01*
X599200Y-699500D01*
X599100Y-700830D01*
X598700Y-701770D01*
X598200Y-702570D01*
X597600Y-703100D01*
X596800Y-703500D01*
X594800D01*
G01X506570Y-691500D02*
Y-686500D01*
G01X509230D02*
Y-691500D01*
G01Y-689000D02*
X506570D01*
G01X511420Y-691500D02*
X513000Y-686500D01*
X514580Y-691500D01*
G01X514010Y-689750D02*
X511990D01*
G01X516830Y-691500D02*
Y-686500D01*
X518420D01*
X518920Y-686750D01*
X519240Y-687080D01*
X519370Y-687750D01*
X519240Y-688420D01*
X518860Y-688830D01*
X518420Y-689080D01*
X516830D01*
G01X518420D02*
X519370Y-691500D01*
G01X521810D02*
Y-686500D01*
X523070D01*
X523580Y-686750D01*
X523960Y-687080D01*
X524280Y-687580D01*
X524530Y-688170D01*
X524590Y-689000D01*
X524530Y-689830D01*
X524280Y-690420D01*
X523960Y-690920D01*
X523580Y-691250D01*
X523070Y-691500D01*
X521810D01*
G01X526400Y-686500D02*
X527290Y-691500D01*
X528300Y-686500D01*
X529310Y-691500D01*
X530200Y-686500D01*
G01X531820Y-691500D02*
X533400Y-686500D01*
X534980Y-691500D01*
G01X534410Y-689750D02*
X532390D01*
G01X537230Y-691500D02*
Y-686500D01*
X538820D01*
X539320Y-686750D01*
X539640Y-687080D01*
X539770Y-687750D01*
X539640Y-688420D01*
X539260Y-688830D01*
X538820Y-689080D01*
X537230D01*
G01X538820D02*
X539770Y-691500D01*
G01X544870D02*
X542330D01*
Y-686500D01*
X544870D01*
G01X543850Y-688920D02*
X542330D01*
G01X552470Y-690830D02*
X552980Y-691250D01*
X553550Y-691500D01*
X554050D01*
X554560Y-691250D01*
X554940Y-690830D01*
X555130Y-690250D01*
X555000Y-689670D01*
X554690Y-689170D01*
X554120Y-688830D01*
X553360Y-688670D01*
X552910Y-688330D01*
X552720Y-687750D01*
X552850Y-687170D01*
X553170Y-686750D01*
X553610Y-686500D01*
X554050D01*
X554500Y-686670D01*
X554880Y-687080D01*
G01X560170Y-691500D02*
X557630D01*
Y-686500D01*
X560170D01*
G01X559150Y-688920D02*
X557630D01*
G01X562730Y-691500D02*
Y-686500D01*
X564320D01*
X564820Y-686750D01*
X565140Y-687080D01*
X565270Y-687750D01*
X565140Y-688420D01*
X564760Y-688830D01*
X564320Y-689080D01*
X562730D01*
G01X564320D02*
X565270Y-691500D01*
G01X567520Y-686500D02*
X569100Y-691500D01*
X570680Y-686500D01*
G01X573440D02*
X574960D01*
G01X574200D02*
Y-691500D01*
G01X573440D02*
X574960D01*
G01X580690Y-686920D02*
X580310Y-686670D01*
X579870Y-686500D01*
X579360D01*
X578790Y-686750D01*
X578350Y-687170D01*
X578030Y-687670D01*
X577780Y-688500D01*
X577720Y-689250D01*
X577840Y-690000D01*
X578030Y-690500D01*
X578410Y-691000D01*
X578860Y-691330D01*
X579300Y-691500D01*
X579740D01*
X580190Y-691330D01*
X580570Y-691080D01*
X580880Y-690750D01*
G01X585670Y-691500D02*
X583130D01*
Y-686500D01*
X585670D01*
G01X584650Y-688920D02*
X583130D01*
G01X588170Y-690830D02*
X588680Y-691250D01*
X589250Y-691500D01*
X589750D01*
X590260Y-691250D01*
X590640Y-690830D01*
X590830Y-690250D01*
X590700Y-689670D01*
X590390Y-689170D01*
X589820Y-688830D01*
X589060Y-688670D01*
X588610Y-688330D01*
X588420Y-687750D01*
X588550Y-687170D01*
X588870Y-686750D01*
X589310Y-686500D01*
X589750D01*
X590200Y-686670D01*
X590580Y-687080D01*
G01X501000Y-682500D02*
X696000D01*
G01X501000Y-707500D02*
X1146000D01*
G01X507900Y-661500D02*
Y-666500D01*
G01X506440Y-661500D02*
X509360D01*
G01X514270Y-666500D02*
X511730D01*
Y-661500D01*
X514270D01*
G01X513250Y-663920D02*
X511730D01*
G01X516450Y-666500D02*
Y-661500D01*
X518100Y-665670D01*
X519750Y-661500D01*
Y-666500D01*
G01X521930D02*
Y-661500D01*
X523450D01*
X523960Y-661750D01*
X524340Y-662330D01*
X524470Y-663000D01*
X524340Y-663670D01*
X524020Y-664170D01*
X523450Y-664420D01*
X521930D01*
G01X527030Y-661500D02*
Y-666500D01*
X529570D01*
G01X531820D02*
X533400Y-661500D01*
X534980Y-666500D01*
G01X534410Y-664750D02*
X532390D01*
G01X538500Y-661500D02*
Y-666500D01*
G01X537040Y-661500D02*
X539960D01*
G01X544870Y-666500D02*
X542330D01*
Y-661500D01*
X544870D01*
G01X543850Y-663920D02*
X542330D01*
G01X555070Y-666500D02*
X552530D01*
Y-661500D01*
X555070D01*
G01X554050Y-663920D02*
X552530D01*
G01X557440Y-666500D02*
Y-661500D01*
X560360Y-666500D01*
Y-661500D01*
G01X564380Y-664000D02*
X565650D01*
Y-665500D01*
X565270Y-666000D01*
X564820Y-666330D01*
X564190Y-666500D01*
X563560Y-666330D01*
X563110Y-666000D01*
X562730Y-665500D01*
X562480Y-664920D01*
X562350Y-664250D01*
Y-663670D01*
X562480Y-663170D01*
X562730Y-662580D01*
X563110Y-662080D01*
X563490Y-661750D01*
X564000Y-661500D01*
X564440D01*
X564950Y-661670D01*
X565330Y-662000D01*
G01X568340Y-661500D02*
X569860D01*
G01X569100D02*
Y-666500D01*
G01X568340D02*
X569860D01*
G01X572740D02*
Y-661500D01*
X575660Y-666500D01*
Y-661500D01*
G01X580570Y-666500D02*
X578030D01*
Y-661500D01*
X580570D01*
G01X579550Y-663920D02*
X578030D01*
G01X585670Y-666500D02*
X583130D01*
Y-661500D01*
X585670D01*
G01X584650Y-663920D02*
X583130D01*
G01X588230Y-666500D02*
Y-661500D01*
X589820D01*
X590320Y-661750D01*
X590640Y-662080D01*
X590770Y-662750D01*
X590640Y-663420D01*
X590260Y-663830D01*
X589820Y-664080D01*
X588230D01*
G01X589820D02*
X590770Y-666500D01*
G01X501000Y-657500D02*
X696000D01*
G01X539000Y-650000D02*
X541500Y-642000D01*
X544000Y-650000D01*
G01X543100Y-647200D02*
X539900D01*
G01X547500Y-650000D02*
Y-642000D01*
X549900D01*
X550700Y-642400D01*
X551300Y-643330D01*
X551500Y-644400D01*
X551300Y-645470D01*
X550800Y-646270D01*
X549900Y-646670D01*
X547500D01*
G01X555500Y-650000D02*
Y-642000D01*
X557900D01*
X558700Y-642400D01*
X559300Y-643330D01*
X559500Y-644400D01*
X559300Y-645470D01*
X558800Y-646270D01*
X557900Y-646670D01*
X555500D01*
G01X563500Y-650000D02*
Y-642000D01*
X566000D01*
X566800Y-642400D01*
X567300Y-642930D01*
X567500Y-644000D01*
X567300Y-645070D01*
X566700Y-645730D01*
X566000Y-646130D01*
X563500D01*
G01X566000D02*
X567500Y-650000D01*
G01X573500D02*
X572700Y-649870D01*
X572000Y-649330D01*
X571400Y-648530D01*
X571000Y-647600D01*
X570800Y-646530D01*
Y-645470D01*
X571000Y-644400D01*
X571400Y-643470D01*
X572000Y-642670D01*
X572700Y-642130D01*
X573500Y-642000D01*
X574300Y-642130D01*
X575000Y-642670D01*
X575600Y-643470D01*
X576000Y-644400D01*
X576200Y-645470D01*
Y-646530D01*
X576000Y-647600D01*
X575600Y-648530D01*
X575000Y-649330D01*
X574300Y-649870D01*
X573500Y-650000D01*
G01X579000Y-642000D02*
X581500Y-650000D01*
X584000Y-642000D01*
G01X587000Y-650000D02*
X589500Y-642000D01*
X592000Y-650000D01*
G01X591100Y-647200D02*
X587900D01*
G01X595500Y-642000D02*
Y-650000D01*
X599500D01*
G01X522820Y-297990D02*
X526570Y-301140D01*
X530740Y-303000D01*
X534460D01*
X538180Y-301140D01*
X540970Y-297990D01*
X542380Y-293610D01*
X541450Y-289260D01*
X539110Y-285510D01*
X534910Y-282990D01*
X529360Y-281760D01*
X526090Y-279240D01*
X524680Y-274890D01*
X525640Y-270510D01*
X527950Y-267390D01*
X531190Y-265500D01*
X534460D01*
X537730Y-266760D01*
X540520Y-269880D01*
G01X523250Y584670D02*
X522500Y585170D01*
X521630Y585500D01*
X520630D01*
X519500Y585000D01*
X518630Y584170D01*
X518000Y583170D01*
X517500Y581500D01*
X517370Y580000D01*
X517630Y578500D01*
X518000Y577500D01*
X518750Y576500D01*
X519630Y575830D01*
X520500Y575500D01*
X521370D01*
X522250Y575830D01*
X523000Y576330D01*
X523630Y577000D01*
G01X527870Y575500D02*
Y585500D01*
G01X533130D02*
Y575500D01*
G01Y580500D02*
X527870D01*
G01X537370Y575500D02*
X540500Y585500D01*
X543630Y575500D01*
G01X542500Y579000D02*
X538500D01*
G01X547630Y575500D02*
Y585500D01*
X553370Y575500D01*
Y585500D01*
G01X561250Y580500D02*
X563750D01*
Y577500D01*
X563000Y576500D01*
X562120Y575830D01*
X560880Y575500D01*
X559630Y575830D01*
X558750Y576500D01*
X558000Y577500D01*
X557500Y578670D01*
X557250Y580000D01*
Y581170D01*
X557500Y582170D01*
X558000Y583330D01*
X558750Y584330D01*
X559500Y585000D01*
X560500Y585500D01*
X561370D01*
X562370Y585170D01*
X563130Y584500D01*
G01X573000Y575500D02*
X568000D01*
Y585500D01*
X573000D01*
G01X571000Y580670D02*
X568000D01*
G01X587370Y575500D02*
X590500Y585500D01*
X593630Y575500D01*
G01X592500Y579000D02*
X588500D01*
G01X597870Y576830D02*
X598880Y576000D01*
X600000Y575500D01*
X601000D01*
X602000Y576000D01*
X602750Y576830D01*
X603130Y578000D01*
X602880Y579170D01*
X602250Y580170D01*
X601120Y580830D01*
X599630Y581170D01*
X598750Y581830D01*
X598370Y583000D01*
X598630Y584170D01*
X599250Y585000D01*
X600120Y585500D01*
X601000D01*
X601880Y585170D01*
X602630Y584330D01*
G01X618000Y575500D02*
Y585500D01*
X621000D01*
X622000Y585000D01*
X622750Y583830D01*
X623000Y582500D01*
X622750Y581170D01*
X622120Y580170D01*
X621000Y579670D01*
X618000D01*
G01X633000Y575500D02*
X628000D01*
Y585500D01*
X633000D01*
G01X631000Y580670D02*
X628000D01*
G01X638000Y575500D02*
Y585500D01*
X641120D01*
X642120Y585000D01*
X642750Y584330D01*
X643000Y583000D01*
X642750Y581670D01*
X642000Y580830D01*
X641120Y580330D01*
X638000D01*
G01X641120D02*
X643000Y575500D01*
G01X663000D02*
X658000D01*
Y585500D01*
X663000D01*
G01X661000Y580670D02*
X658000D01*
G01X673250Y584670D02*
X672500Y585170D01*
X671630Y585500D01*
X670630D01*
X669500Y585000D01*
X668630Y584170D01*
X668000Y583170D01*
X667500Y581500D01*
X667370Y580000D01*
X667630Y578500D01*
X668000Y577500D01*
X668750Y576500D01*
X669630Y575830D01*
X670500Y575500D01*
X671370D01*
X672250Y575830D01*
X673000Y576330D01*
X673630Y577000D01*
G01X678000Y575500D02*
Y585500D01*
X681120D01*
X682120Y585000D01*
X682750Y584330D01*
X683000Y583000D01*
X682750Y581670D01*
X682000Y580830D01*
X681120Y580330D01*
X678000D01*
G01X681120D02*
X683000Y575500D01*
G01X688000Y572170D02*
X690500Y585500D01*
G01X693000D02*
X690500Y572170D01*
G01X686750Y577170D02*
X694250D01*
G01Y580500D02*
X686750D01*
G01X700500Y585500D02*
X699500Y585170D01*
X698750Y584330D01*
X698250Y583330D01*
X697870Y582000D01*
X697750Y580500D01*
X697870Y579000D01*
X698250Y577670D01*
X698750Y576670D01*
X699500Y575830D01*
X700500Y575500D01*
X701500Y575830D01*
X702250Y576670D01*
X702750Y577670D01*
X703130Y579000D01*
X703250Y580500D01*
X703130Y582000D01*
X702750Y583330D01*
X702250Y584330D01*
X701500Y585170D01*
X700500Y585500D01*
G01X712000Y575500D02*
Y585500D01*
X707370Y578330D01*
X713630D01*
G01X717750Y577000D02*
X718500Y576170D01*
X719370Y575670D01*
X720500Y575500D01*
X721630Y575830D01*
X722500Y576500D01*
X723130Y577670D01*
X723250Y579000D01*
X723000Y580330D01*
X722370Y581170D01*
X721500Y581830D01*
X720630Y582000D01*
X719750Y581830D01*
X718630Y581170D01*
X719000Y585500D01*
X722370D01*
G01X727750Y577500D02*
X728500Y576330D01*
X729500Y575670D01*
X730630Y575500D01*
X731630Y575670D01*
X732630Y576500D01*
X733250Y577500D01*
X733370Y578500D01*
X733130Y579670D01*
X732250Y580500D01*
X731370Y580830D01*
X730250D01*
G01X731370D02*
X732120Y581330D01*
X732750Y582170D01*
X733000Y583170D01*
X732750Y584170D01*
X732120Y585000D01*
X731000Y585500D01*
X729880Y585330D01*
X728750Y584670D01*
G01X740500Y575500D02*
X741370Y575670D01*
X742370Y576170D01*
X743000Y577000D01*
X743250Y578170D01*
X743000Y579330D01*
X742250Y580330D01*
X741120Y580830D01*
X739880D01*
X739120Y581170D01*
X738500Y582000D01*
X738250Y583170D01*
X738630Y584330D01*
X739500Y585170D01*
X740500Y585500D01*
X741500Y585170D01*
X742370Y584330D01*
X742750Y583170D01*
X742500Y582000D01*
X741880Y581170D01*
X741120Y580830D01*
X739880D01*
X738750Y580330D01*
X738000Y579330D01*
X737750Y578170D01*
X738000Y577000D01*
X738630Y576170D01*
X739630Y575670D01*
X740500Y575500D01*
G01X752000D02*
Y585500D01*
X747370Y578330D01*
X753630D01*
G01X569800Y-265500D02*
Y-303000D01*
G01X564220D02*
X575380D01*
G01X564220Y-265500D02*
X575380D01*
G01X564500Y610000D02*
X567500D01*
G01X566000D02*
Y600000D01*
G01X564500D02*
X567500D01*
G01X573130D02*
Y610000D01*
X578870Y600000D01*
Y610000D01*
G01X584500D02*
X587500D01*
G01X586000D02*
Y600000D01*
G01X584500D02*
X587500D01*
G01X596000Y610000D02*
Y600000D01*
G01X593130Y610000D02*
X598870D01*
G01X604500D02*
X607500D01*
G01X606000D02*
Y600000D01*
G01X604500D02*
X607500D01*
G01X612870D02*
X616000Y610000D01*
X619130Y600000D01*
G01X618000Y603500D02*
X614000D01*
G01X623500Y610000D02*
Y600000D01*
X628500D01*
G01X643500D02*
Y610000D01*
X646620D01*
X647620Y609500D01*
X648250Y608830D01*
X648500Y607500D01*
X648250Y606170D01*
X647500Y605330D01*
X646620Y604830D01*
X643500D01*
G01X646620D02*
X648500Y600000D01*
G01X658500D02*
X653500D01*
Y610000D01*
X658500D01*
G01X656500Y605170D02*
X653500D01*
G01X663500Y610000D02*
Y600000D01*
X668500D01*
G01X678500D02*
X673500D01*
Y610000D01*
X678500D01*
G01X676500Y605170D02*
X673500D01*
G01X682870Y600000D02*
X686000Y610000D01*
X689130Y600000D01*
G01X688000Y603500D02*
X684000D01*
G01X693370Y601330D02*
X694380Y600500D01*
X695500Y600000D01*
X696500D01*
X697500Y600500D01*
X698250Y601330D01*
X698630Y602500D01*
X698380Y603670D01*
X697750Y604670D01*
X696620Y605330D01*
X695130Y605670D01*
X694250Y606330D01*
X693870Y607500D01*
X694130Y608670D01*
X694750Y609500D01*
X695620Y610000D01*
X696500D01*
X697380Y609670D01*
X698130Y608830D01*
G01X708500Y600000D02*
X703500D01*
Y610000D01*
X708500D01*
G01X706500Y605170D02*
X703500D01*
G01X596770Y-303000D02*
Y-265500D01*
X606070D01*
X609790Y-267390D01*
X612580Y-269880D01*
X614920Y-273630D01*
X616780Y-278010D01*
X617230Y-284250D01*
X616780Y-290490D01*
X614920Y-294870D01*
X612580Y-298620D01*
X609790Y-301140D01*
X606070Y-303000D01*
X596770D01*
G01X583250Y625000D02*
Y635000D01*
X585750D01*
X586750Y634500D01*
X587500Y633830D01*
X588130Y632830D01*
X588630Y631670D01*
X588750Y630000D01*
X588630Y628330D01*
X588130Y627170D01*
X587500Y626170D01*
X586750Y625500D01*
X585750Y625000D01*
X583250D01*
G01X598500D02*
X593500D01*
Y635000D01*
X598500D01*
G01X596500Y630170D02*
X593500D01*
G01X603370Y626330D02*
X604380Y625500D01*
X605500Y625000D01*
X606500D01*
X607500Y625500D01*
X608250Y626330D01*
X608630Y627500D01*
X608380Y628670D01*
X607750Y629670D01*
X606620Y630330D01*
X605130Y630670D01*
X604250Y631330D01*
X603870Y632500D01*
X604130Y633670D01*
X604750Y634500D01*
X605620Y635000D01*
X606500D01*
X607380Y634670D01*
X608130Y633830D01*
G01X618750Y634170D02*
X618000Y634670D01*
X617130Y635000D01*
X616130D01*
X615000Y634500D01*
X614130Y633670D01*
X613500Y632670D01*
X613000Y631000D01*
X612870Y629500D01*
X613130Y628000D01*
X613500Y627000D01*
X614250Y626000D01*
X615130Y625330D01*
X616000Y625000D01*
X616870D01*
X617750Y625330D01*
X618500Y625830D01*
X619130Y626500D01*
G01X623500Y625000D02*
Y635000D01*
X626620D01*
X627620Y634500D01*
X628250Y633830D01*
X628500Y632500D01*
X628250Y631170D01*
X627500Y630330D01*
X626620Y629830D01*
X623500D01*
G01X626620D02*
X628500Y625000D01*
G01X634500Y635000D02*
X637500D01*
G01X636000D02*
Y625000D01*
G01X634500D02*
X637500D01*
G01X643500D02*
Y635000D01*
X646500D01*
X647500Y634500D01*
X648250Y633330D01*
X648500Y632000D01*
X648250Y630670D01*
X647620Y629670D01*
X646500Y629170D01*
X643500D01*
G01X656000Y635000D02*
Y625000D01*
G01X653130Y635000D02*
X658870D01*
G01X664500D02*
X667500D01*
G01X666000D02*
Y625000D01*
G01X664500D02*
X667500D01*
G01X676000D02*
X675000Y625170D01*
X674130Y625830D01*
X673370Y626830D01*
X672870Y628000D01*
X672620Y629330D01*
Y630670D01*
X672870Y632000D01*
X673370Y633170D01*
X674130Y634170D01*
X675000Y634830D01*
X676000Y635000D01*
X677000Y634830D01*
X677870Y634170D01*
X678630Y633170D01*
X679130Y632000D01*
X679380Y630670D01*
Y629330D01*
X679130Y628000D01*
X678630Y626830D01*
X677870Y625830D01*
X677000Y625170D01*
X676000Y625000D01*
G01X683130D02*
Y635000D01*
X688870Y625000D01*
Y635000D01*
G01X593500Y650000D02*
Y660000D01*
X596620D01*
X597620Y659500D01*
X598250Y658830D01*
X598500Y657500D01*
X598250Y656170D01*
X597500Y655330D01*
X596620Y654830D01*
X593500D01*
G01X596620D02*
X598500Y650000D01*
G01X608500D02*
X603500D01*
Y660000D01*
X608500D01*
G01X606500Y655170D02*
X603500D01*
G01X612870Y660000D02*
X616000Y650000D01*
X619130Y660000D01*
G01X624500D02*
X627500D01*
G01X626000D02*
Y650000D01*
G01X624500D02*
X627500D01*
G01X633370Y651330D02*
X634380Y650500D01*
X635500Y650000D01*
X636500D01*
X637500Y650500D01*
X638250Y651330D01*
X638630Y652500D01*
X638380Y653670D01*
X637750Y654670D01*
X636620Y655330D01*
X635130Y655670D01*
X634250Y656330D01*
X633870Y657500D01*
X634130Y658670D01*
X634750Y659500D01*
X635620Y660000D01*
X636500D01*
X637380Y659670D01*
X638130Y658830D01*
G01X644500Y660000D02*
X647500D01*
G01X646000D02*
Y650000D01*
G01X644500D02*
X647500D01*
G01X656000D02*
X655000Y650170D01*
X654130Y650830D01*
X653370Y651830D01*
X652870Y653000D01*
X652620Y654330D01*
Y655670D01*
X652870Y657000D01*
X653370Y658170D01*
X654130Y659170D01*
X655000Y659830D01*
X656000Y660000D01*
X657000Y659830D01*
X657870Y659170D01*
X658630Y658170D01*
X659130Y657000D01*
X659380Y655670D01*
Y654330D01*
X659130Y653000D01*
X658630Y651830D01*
X657870Y650830D01*
X657000Y650170D01*
X656000Y650000D01*
G01X663130D02*
Y660000D01*
X668870Y650000D01*
Y660000D01*
G01X673370Y651330D02*
X674380Y650500D01*
X675500Y650000D01*
X676500D01*
X677500Y650500D01*
X678250Y651330D01*
X678630Y652500D01*
X678380Y653670D01*
X677750Y654670D01*
X676620Y655330D01*
X675130Y655670D01*
X674250Y656330D01*
X673870Y657500D01*
X674130Y658670D01*
X674750Y659500D01*
X675620Y660000D01*
X676500D01*
X677380Y659670D01*
X678130Y658830D01*
G01X646000Y-932500D02*
Y-962500D01*
G01X631000Y-632500D02*
Y-932500D01*
G01X636700Y-900830D02*
X639300D01*
G01X644700D02*
X647300D01*
G01X652700D02*
X655300D01*
G01X660700D02*
X663300D01*
G01X668700D02*
X671300D01*
G01X676700D02*
X679300D01*
G01X684700D02*
X687300D01*
G01X638000Y-878500D02*
Y-870500D01*
X636800Y-872100D01*
G01Y-878500D02*
X639200D01*
G01X643800Y-877300D02*
X644400Y-877970D01*
X645100Y-878370D01*
X646000Y-878500D01*
X646900Y-878230D01*
X647600Y-877700D01*
X648100Y-876770D01*
X648200Y-875700D01*
X648000Y-874630D01*
X647500Y-873970D01*
X646800Y-873430D01*
X646100Y-873300D01*
X645400Y-873430D01*
X644500Y-873970D01*
X644800Y-870500D01*
X647500D01*
G01X652100Y-878500D02*
Y-870500D01*
X655900D01*
G01X654500Y-874370D02*
X652100D01*
G01X664000Y-878500D02*
X660000D01*
Y-870500D01*
X664000D01*
G01X662400Y-874370D02*
X660000D01*
G01X670800Y-874230D02*
X671200Y-873830D01*
X671500Y-873170D01*
X671700Y-872230D01*
X671500Y-871430D01*
X671100Y-870900D01*
X670400Y-870500D01*
X667700D01*
Y-878500D01*
X671000D01*
X671700Y-877970D01*
X672100Y-877170D01*
X672300Y-876230D01*
X672100Y-875300D01*
X671500Y-874500D01*
X670800Y-874230D01*
X667700D01*
G01X678000Y-878500D02*
Y-870500D01*
X676800Y-872100D01*
G01Y-878500D02*
X679200D01*
G01X683800Y-876900D02*
X684400Y-877830D01*
X685200Y-878370D01*
X686100Y-878500D01*
X686900Y-878370D01*
X687700Y-877700D01*
X688200Y-876900D01*
X688300Y-876100D01*
X688100Y-875170D01*
X687400Y-874500D01*
X686700Y-874230D01*
X685800D01*
G01X686700D02*
X687300Y-873830D01*
X687800Y-873170D01*
X688000Y-872370D01*
X687800Y-871570D01*
X687300Y-870900D01*
X686400Y-870500D01*
X685500Y-870630D01*
X684600Y-871170D01*
G01X636700Y-825830D02*
X639300D01*
G01X644700D02*
X647300D01*
G01X652700D02*
X655300D01*
G01X660700D02*
X663300D01*
G01X668700D02*
X671300D01*
G01X676700D02*
X679300D01*
G01X684700D02*
X687300D01*
G01X638000Y-853500D02*
Y-845500D01*
X636800Y-847100D01*
G01Y-853500D02*
X639200D01*
G01X643800Y-852300D02*
X644400Y-852970D01*
X645100Y-853370D01*
X646000Y-853500D01*
X646900Y-853230D01*
X647600Y-852700D01*
X648100Y-851770D01*
X648200Y-850700D01*
X648000Y-849630D01*
X647500Y-848970D01*
X646800Y-848430D01*
X646100Y-848300D01*
X645400Y-848430D01*
X644500Y-848970D01*
X644800Y-845500D01*
X647500D01*
G01X652100Y-853500D02*
Y-845500D01*
X655900D01*
G01X654500Y-849370D02*
X652100D01*
G01X664000Y-853500D02*
X660000D01*
Y-845500D01*
X664000D01*
G01X662400Y-849370D02*
X660000D01*
G01X670800Y-849230D02*
X671200Y-848830D01*
X671500Y-848170D01*
X671700Y-847230D01*
X671500Y-846430D01*
X671100Y-845900D01*
X670400Y-845500D01*
X667700D01*
Y-853500D01*
X671000D01*
X671700Y-852970D01*
X672100Y-852170D01*
X672300Y-851230D01*
X672100Y-850300D01*
X671500Y-849500D01*
X670800Y-849230D01*
X667700D01*
G01X678000Y-853500D02*
Y-845500D01*
X676800Y-847100D01*
G01Y-853500D02*
X679200D01*
G01X683800Y-851900D02*
X684400Y-852830D01*
X685200Y-853370D01*
X686100Y-853500D01*
X686900Y-853370D01*
X687700Y-852700D01*
X688200Y-851900D01*
X688300Y-851100D01*
X688100Y-850170D01*
X687400Y-849500D01*
X686700Y-849230D01*
X685800D01*
G01X686700D02*
X687300Y-848830D01*
X687800Y-848170D01*
X688000Y-847370D01*
X687800Y-846570D01*
X687300Y-845900D01*
X686400Y-845500D01*
X685500Y-845630D01*
X684600Y-846170D01*
G01X636700Y-800830D02*
X639300D01*
G01X644700D02*
X647300D01*
G01X652700D02*
X655300D01*
G01X660700D02*
X663300D01*
G01X668700D02*
X671300D01*
G01X676700D02*
X679300D01*
G01X684700D02*
X687300D01*
G01X638000Y-778500D02*
Y-770500D01*
X636800Y-772100D01*
G01Y-778500D02*
X639200D01*
G01X643800Y-777300D02*
X644400Y-777970D01*
X645100Y-778370D01*
X646000Y-778500D01*
X646900Y-778230D01*
X647600Y-777700D01*
X648100Y-776770D01*
X648200Y-775700D01*
X648000Y-774630D01*
X647500Y-773970D01*
X646800Y-773430D01*
X646100Y-773300D01*
X645400Y-773430D01*
X644500Y-773970D01*
X644800Y-770500D01*
X647500D01*
G01X652100Y-778500D02*
Y-770500D01*
X655900D01*
G01X654500Y-774370D02*
X652100D01*
G01X664000Y-778500D02*
X660000D01*
Y-770500D01*
X664000D01*
G01X662400Y-774370D02*
X660000D01*
G01X670800Y-774230D02*
X671200Y-773830D01*
X671500Y-773170D01*
X671700Y-772230D01*
X671500Y-771430D01*
X671100Y-770900D01*
X670400Y-770500D01*
X667700D01*
Y-778500D01*
X671000D01*
X671700Y-777970D01*
X672100Y-777170D01*
X672300Y-776230D01*
X672100Y-775300D01*
X671500Y-774500D01*
X670800Y-774230D01*
X667700D01*
G01X678000Y-778500D02*
Y-770500D01*
X676800Y-772100D01*
G01Y-778500D02*
X679200D01*
G01X683800Y-776900D02*
X684400Y-777830D01*
X685200Y-778370D01*
X686100Y-778500D01*
X686900Y-778370D01*
X687700Y-777700D01*
X688200Y-776900D01*
X688300Y-776100D01*
X688100Y-775170D01*
X687400Y-774500D01*
X686700Y-774230D01*
X685800D01*
G01X686700D02*
X687300Y-773830D01*
X687800Y-773170D01*
X688000Y-772370D01*
X687800Y-771570D01*
X687300Y-770900D01*
X686400Y-770500D01*
X685500Y-770630D01*
X684600Y-771170D01*
G01X636700Y-750830D02*
X639300D01*
G01X644700D02*
X647300D01*
G01X652700D02*
X655300D01*
G01X660700D02*
X663300D01*
G01X668700D02*
X671300D01*
G01X676700D02*
X679300D01*
G01X684700D02*
X687300D01*
G01X638000Y-728500D02*
Y-720500D01*
X636800Y-722100D01*
G01Y-728500D02*
X639200D01*
G01X643800Y-727300D02*
X644400Y-727970D01*
X645100Y-728370D01*
X646000Y-728500D01*
X646900Y-728230D01*
X647600Y-727700D01*
X648100Y-726770D01*
X648200Y-725700D01*
X648000Y-724630D01*
X647500Y-723970D01*
X646800Y-723430D01*
X646100Y-723300D01*
X645400Y-723430D01*
X644500Y-723970D01*
X644800Y-720500D01*
X647500D01*
G01X652100Y-728500D02*
Y-720500D01*
X655900D01*
G01X654500Y-724370D02*
X652100D01*
G01X664000Y-728500D02*
X660000D01*
Y-720500D01*
X664000D01*
G01X662400Y-724370D02*
X660000D01*
G01X670800Y-724230D02*
X671200Y-723830D01*
X671500Y-723170D01*
X671700Y-722230D01*
X671500Y-721430D01*
X671100Y-720900D01*
X670400Y-720500D01*
X667700D01*
Y-728500D01*
X671000D01*
X671700Y-727970D01*
X672100Y-727170D01*
X672300Y-726230D01*
X672100Y-725300D01*
X671500Y-724500D01*
X670800Y-724230D01*
X667700D01*
G01X678000Y-728500D02*
Y-720500D01*
X676800Y-722100D01*
G01Y-728500D02*
X679200D01*
G01X683800Y-726900D02*
X684400Y-727830D01*
X685200Y-728370D01*
X686100Y-728500D01*
X686900Y-728370D01*
X687700Y-727700D01*
X688200Y-726900D01*
X688300Y-726100D01*
X688100Y-725170D01*
X687400Y-724500D01*
X686700Y-724230D01*
X685800D01*
G01X686700D02*
X687300Y-723830D01*
X687800Y-723170D01*
X688000Y-722370D01*
X687800Y-721570D01*
X687300Y-720900D01*
X686400Y-720500D01*
X685500Y-720630D01*
X684600Y-721170D01*
G01X638000Y-678500D02*
Y-670500D01*
X636800Y-672100D01*
G01Y-678500D02*
X639200D01*
G01X643800Y-677300D02*
X644400Y-677970D01*
X645100Y-678370D01*
X646000Y-678500D01*
X646900Y-678230D01*
X647600Y-677700D01*
X648100Y-676770D01*
X648200Y-675700D01*
X648000Y-674630D01*
X647500Y-673970D01*
X646800Y-673430D01*
X646100Y-673300D01*
X645400Y-673430D01*
X644500Y-673970D01*
X644800Y-670500D01*
X647500D01*
G01X652100Y-678500D02*
Y-670500D01*
X655900D01*
G01X654500Y-674370D02*
X652100D01*
G01X664000Y-678500D02*
X660000D01*
Y-670500D01*
X664000D01*
G01X662400Y-674370D02*
X660000D01*
G01X670800Y-674230D02*
X671200Y-673830D01*
X671500Y-673170D01*
X671700Y-672230D01*
X671500Y-671430D01*
X671100Y-670900D01*
X670400Y-670500D01*
X667700D01*
Y-678500D01*
X671000D01*
X671700Y-677970D01*
X672100Y-677170D01*
X672300Y-676230D01*
X672100Y-675300D01*
X671500Y-674500D01*
X670800Y-674230D01*
X667700D01*
G01X678000Y-678500D02*
Y-670500D01*
X676800Y-672100D01*
G01Y-678500D02*
X679200D01*
G01X683800Y-676900D02*
X684400Y-677830D01*
X685200Y-678370D01*
X686100Y-678500D01*
X686900Y-678370D01*
X687700Y-677700D01*
X688200Y-676900D01*
X688300Y-676100D01*
X688100Y-675170D01*
X687400Y-674500D01*
X686700Y-674230D01*
X685800D01*
G01X686700D02*
X687300Y-673830D01*
X687800Y-673170D01*
X688000Y-672370D01*
X687800Y-671570D01*
X687300Y-670900D01*
X686400Y-670500D01*
X685500Y-670630D01*
X684600Y-671170D01*
G01X638000Y-703500D02*
Y-695500D01*
X636800Y-697100D01*
G01Y-703500D02*
X639200D01*
G01X643800Y-702300D02*
X644400Y-702970D01*
X645100Y-703370D01*
X646000Y-703500D01*
X646900Y-703230D01*
X647600Y-702700D01*
X648100Y-701770D01*
X648200Y-700700D01*
X648000Y-699630D01*
X647500Y-698970D01*
X646800Y-698430D01*
X646100Y-698300D01*
X645400Y-698430D01*
X644500Y-698970D01*
X644800Y-695500D01*
X647500D01*
G01X652100Y-703500D02*
Y-695500D01*
X655900D01*
G01X654500Y-699370D02*
X652100D01*
G01X664000Y-703500D02*
X660000D01*
Y-695500D01*
X664000D01*
G01X662400Y-699370D02*
X660000D01*
G01X670800Y-699230D02*
X671200Y-698830D01*
X671500Y-698170D01*
X671700Y-697230D01*
X671500Y-696430D01*
X671100Y-695900D01*
X670400Y-695500D01*
X667700D01*
Y-703500D01*
X671000D01*
X671700Y-702970D01*
X672100Y-702170D01*
X672300Y-701230D01*
X672100Y-700300D01*
X671500Y-699500D01*
X670800Y-699230D01*
X667700D01*
G01X678000Y-703500D02*
Y-695500D01*
X676800Y-697100D01*
G01Y-703500D02*
X679200D01*
G01X683800Y-701900D02*
X684400Y-702830D01*
X685200Y-703370D01*
X686100Y-703500D01*
X686900Y-703370D01*
X687700Y-702700D01*
X688200Y-701900D01*
X688300Y-701100D01*
X688100Y-700170D01*
X687400Y-699500D01*
X686700Y-699230D01*
X685800D01*
G01X686700D02*
X687300Y-698830D01*
X687800Y-698170D01*
X688000Y-697370D01*
X687800Y-696570D01*
X687300Y-695900D01*
X686400Y-695500D01*
X685500Y-695630D01*
X684600Y-696170D01*
G01X651800Y-650000D02*
Y-642000D01*
X653800D01*
X654600Y-642400D01*
X655200Y-642930D01*
X655700Y-643730D01*
X656100Y-644670D01*
X656200Y-646000D01*
X656100Y-647330D01*
X655700Y-648270D01*
X655200Y-649070D01*
X654600Y-649600D01*
X653800Y-650000D01*
X651800D01*
G01X659500D02*
X662000Y-642000D01*
X664500Y-650000D01*
G01X663600Y-647200D02*
X660400D01*
G01X670000Y-642000D02*
Y-650000D01*
G01X667700Y-642000D02*
X672300D01*
G01X680000Y-650000D02*
X676000D01*
Y-642000D01*
X680000D01*
G01X678400Y-645870D02*
X676000D01*
G01X653500Y-303000D02*
X634900D01*
Y-265500D01*
X653500D01*
G01X646060Y-283620D02*
X634900D01*
G01X646000Y667500D02*
Y697500D01*
G01X706900Y-923930D02*
X707700Y-924600D01*
X708600Y-925000D01*
X709400D01*
X710200Y-924600D01*
X710800Y-923930D01*
X711100Y-923000D01*
X710900Y-922070D01*
X710400Y-921270D01*
X709500Y-920730D01*
X708300Y-920470D01*
X707600Y-919930D01*
X707300Y-919000D01*
X707500Y-918070D01*
X708000Y-917400D01*
X708700Y-917000D01*
X709400D01*
X710100Y-917270D01*
X710700Y-917930D01*
G01X719200Y-917670D02*
X718600Y-917270D01*
X717900Y-917000D01*
X717100D01*
X716200Y-917400D01*
X715500Y-918070D01*
X715000Y-918870D01*
X714600Y-920200D01*
X714500Y-921400D01*
X714700Y-922600D01*
X715000Y-923400D01*
X715600Y-924200D01*
X716300Y-924730D01*
X717000Y-925000D01*
X717700D01*
X718400Y-924730D01*
X719000Y-924330D01*
X719500Y-923800D01*
G01X722500Y-925000D02*
X725000Y-917000D01*
X727500Y-925000D01*
G01X726600Y-922200D02*
X723400D01*
G01X731000Y-917000D02*
Y-925000D01*
X735000D01*
G01X743000D02*
X739000D01*
Y-917000D01*
X743000D01*
G01X741400Y-920870D02*
X739000D01*
G01X696000Y-932500D02*
Y-632500D01*
G01X726500Y-874170D02*
X725000Y-873170D01*
X723250Y-872500D01*
X721250D01*
X719000Y-873500D01*
X717250Y-875170D01*
X716000Y-877170D01*
X715000Y-880500D01*
X714750Y-883500D01*
X715250Y-886500D01*
X716000Y-888500D01*
X717500Y-890500D01*
X719250Y-891830D01*
X721000Y-892500D01*
X722750D01*
X724500Y-891830D01*
X726000Y-890830D01*
X727250Y-889500D01*
G01X706900Y-851430D02*
X707700Y-852100D01*
X708600Y-852500D01*
X709400D01*
X710200Y-852100D01*
X710800Y-851430D01*
X711100Y-850500D01*
X710900Y-849570D01*
X710400Y-848770D01*
X709500Y-848230D01*
X708300Y-847970D01*
X707600Y-847430D01*
X707300Y-846500D01*
X707500Y-845570D01*
X708000Y-844900D01*
X708700Y-844500D01*
X709400D01*
X710100Y-844770D01*
X710700Y-845430D01*
G01X715800Y-844500D02*
X718200D01*
G01X717000D02*
Y-852500D01*
G01X715800D02*
X718200D01*
G01X723100Y-844500D02*
X726900D01*
X723100Y-852500D01*
X726900D01*
G01X735000D02*
X731000D01*
Y-844500D01*
X735000D01*
G01X733400Y-848370D02*
X731000D01*
G01X709000Y-720500D02*
Y-728500D01*
G01X706700Y-720500D02*
X711300D01*
G01X715800D02*
X718200D01*
G01X717000D02*
Y-728500D01*
G01X715800D02*
X718200D01*
G01X725000Y-720500D02*
Y-728500D01*
G01X722700Y-720500D02*
X727300D01*
G01X731000D02*
Y-728500D01*
X735000D01*
G01X743000D02*
X739000D01*
Y-720500D01*
X743000D01*
G01X741400Y-724370D02*
X739000D01*
G01X711000Y-647500D02*
Y-692500D01*
X756000Y-670000D01*
X711000Y-647500D01*
G01X706000Y-692500D02*
X761000D01*
G01X706000Y-689500D02*
X711000D01*
G01X706000Y-690500D02*
X711000D01*
G01X706000Y-691500D02*
X711000D01*
G01X706000Y-686500D02*
X711000D01*
G01X706000Y-687500D02*
X711000D01*
G01X706000Y-688500D02*
X711000D01*
G01X706000Y-683500D02*
X711000D01*
G01X706000Y-684500D02*
X711000D01*
G01X706000Y-685500D02*
X711000D01*
G01X706000Y-680500D02*
X711000D01*
G01X706000Y-681500D02*
X711000D01*
G01X706000Y-682500D02*
X711000D01*
G01X761000Y-691500D02*
X713000D01*
G01X761000Y-690500D02*
X715000D01*
G01X761000Y-689500D02*
X717000D01*
G01X761000Y-688500D02*
X719000D01*
G01X706000Y-642500D02*
X761000D01*
Y-697500D01*
X706000D01*
Y-642500D01*
G01Y-693500D02*
X761000D01*
G01X706000Y-694500D02*
X761000D01*
G01X706000Y-695500D02*
X761000D01*
G01X706000Y-696500D02*
X761000D01*
G01X706000Y-650500D02*
X711000D01*
G01X706000Y-651500D02*
X711000D01*
G01X706000Y-652500D02*
X711000D01*
G01X706000Y-653500D02*
X711000D01*
G01X706000Y-654500D02*
X711000D01*
G01X706000Y-655500D02*
X711000D01*
G01X706000Y-656500D02*
X711000D01*
G01X706000Y-657500D02*
X711000D01*
G01X706000Y-658500D02*
X711000D01*
G01X706000Y-659500D02*
X711000D01*
G01X706000Y-660500D02*
X711000D01*
G01X706000Y-661500D02*
X711000D01*
G01X706000Y-662500D02*
X711000D01*
G01X719000Y-651500D02*
X761000D01*
G01X717000Y-650500D02*
X761000D01*
G01X706000Y-663500D02*
X711000D01*
G01X706000Y-664500D02*
X711000D01*
G01X706000Y-665500D02*
X711000D01*
G01X706000Y-666500D02*
X711000D01*
G01X706000Y-667500D02*
X711000D01*
G01X706000Y-668500D02*
X711000D01*
G01X706000Y-669500D02*
X711000D01*
G01X706000Y-670500D02*
X711000D01*
G01X706000Y-671500D02*
X711000D01*
G01X706000Y-672500D02*
X711000D01*
G01X706000Y-673500D02*
X711000D01*
G01X706000Y-674500D02*
X711000D01*
G01X706000Y-677500D02*
X711000D01*
G01X706000Y-678500D02*
X711000D01*
G01X706000Y-679500D02*
X711000D01*
G01X706000Y-675500D02*
X711000D01*
G01X706000Y-676500D02*
X711000D01*
G01X706000Y-643500D02*
X761000D01*
G01X706000Y-644500D02*
X761000D01*
G01X706000Y-645500D02*
X761000D01*
G01X706000Y-646500D02*
X761000D01*
G01X706000Y-647500D02*
X761000D01*
G01X706000Y-648500D02*
X711000D01*
G01X706000Y-649500D02*
X711000D01*
G01X715000D02*
X761000D01*
G01X713000Y-648500D02*
X761000D01*
G01X751250Y-875830D02*
X752750Y-873830D01*
X754500Y-872830D01*
X756500Y-872500D01*
X759000Y-873170D01*
X760750Y-874830D01*
X761250Y-876830D01*
X761000Y-878830D01*
X760000Y-880500D01*
X755000Y-883830D01*
X752750Y-886170D01*
X751250Y-889500D01*
X750750Y-892500D01*
X761250D01*
G01X779000D02*
Y-872500D01*
X769750Y-886830D01*
X782250D01*
G01X790500Y-888500D02*
X792000Y-890830D01*
X794000Y-892170D01*
X796250Y-892500D01*
X798250Y-892170D01*
X800250Y-890500D01*
X801500Y-888500D01*
X801750Y-886500D01*
X801250Y-884170D01*
X799500Y-882500D01*
X797750Y-881830D01*
X795500D01*
G01X797750D02*
X799250Y-880830D01*
X800500Y-879170D01*
X801000Y-877170D01*
X800500Y-875170D01*
X799250Y-873500D01*
X797000Y-872500D01*
X794750Y-872830D01*
X792500Y-874170D01*
G01X810500Y-889500D02*
X812000Y-891170D01*
X813750Y-892170D01*
X816000Y-892500D01*
X818250Y-891830D01*
X820000Y-890500D01*
X821250Y-888170D01*
X821500Y-885500D01*
X821000Y-882830D01*
X819750Y-881170D01*
X818000Y-879830D01*
X816250Y-879500D01*
X814500Y-879830D01*
X812250Y-881170D01*
X813000Y-872500D01*
X819750D01*
G01X830500Y-889500D02*
X832000Y-891170D01*
X833750Y-892170D01*
X836000Y-892500D01*
X838250Y-891830D01*
X840000Y-890500D01*
X841250Y-888170D01*
X841500Y-885500D01*
X841000Y-882830D01*
X839750Y-881170D01*
X838000Y-879830D01*
X836250Y-879500D01*
X834500Y-879830D01*
X832250Y-881170D01*
X833000Y-872500D01*
X839750D01*
G01X746000Y-907500D02*
Y-832500D01*
G01X749570Y-802500D02*
Y-790000D01*
X753600Y-800420D01*
X757630Y-790000D01*
Y-802500D01*
G01X762590Y-790000D02*
Y-798960D01*
X763210Y-800830D01*
X764450Y-802080D01*
X766000Y-802500D01*
X767550Y-802080D01*
X768790Y-800830D01*
X769410Y-798960D01*
Y-790000D01*
G01X775300D02*
Y-802500D01*
X781500D01*
G01X790800Y-790000D02*
Y-802500D01*
G01X787240Y-790000D02*
X794360D01*
G01X801340D02*
X805060D01*
G01X803200D02*
Y-802500D01*
G01X801340D02*
X805060D01*
G01X812500D02*
Y-790000D01*
X816220D01*
X817460Y-790630D01*
X818390Y-792080D01*
X818700Y-793750D01*
X818390Y-795420D01*
X817610Y-796670D01*
X816220Y-797290D01*
X812500D01*
G01X824900Y-790000D02*
Y-802500D01*
X831100D01*
G01X843500D02*
X837300D01*
Y-790000D01*
X843500D01*
G01X841020Y-796040D02*
X837300D01*
G01X862250Y-802500D02*
Y-790000D01*
X868150D01*
G01X865970Y-796040D02*
X862250D01*
G01X878840Y-795830D02*
X879460Y-795210D01*
X879920Y-794170D01*
X880240Y-792710D01*
X879920Y-791460D01*
X879310Y-790630D01*
X878220Y-790000D01*
X874040D01*
Y-802500D01*
X879150D01*
X880240Y-801670D01*
X880860Y-800420D01*
X881160Y-798960D01*
X880860Y-797500D01*
X879920Y-796250D01*
X878840Y-795830D01*
X874040D01*
G01X903640D02*
X904260Y-795210D01*
X904720Y-794170D01*
X905040Y-792710D01*
X904720Y-791460D01*
X904110Y-790630D01*
X903020Y-790000D01*
X898840D01*
Y-802500D01*
X903950D01*
X905040Y-801670D01*
X905660Y-800420D01*
X905960Y-798960D01*
X905660Y-797500D01*
X904720Y-796250D01*
X903640Y-795830D01*
X898840D01*
G01X910920Y-802500D02*
X914800Y-790000D01*
X918680Y-802500D01*
G01X917280Y-798130D02*
X912320D01*
G01X923640Y-802500D02*
Y-790000D01*
X930760Y-802500D01*
Y-790000D01*
G01X936190Y-802500D02*
Y-790000D01*
X939290D01*
X940530Y-790630D01*
X941460Y-791460D01*
X942240Y-792710D01*
X942860Y-794170D01*
X943010Y-796250D01*
X942860Y-798330D01*
X942240Y-799790D01*
X941460Y-801040D01*
X940530Y-801880D01*
X939290Y-802500D01*
X936190D01*
G01X949990Y-798330D02*
X954010D01*
G01X961300Y-802500D02*
Y-790000D01*
X965020D01*
X966260Y-790630D01*
X967190Y-792080D01*
X967500Y-793750D01*
X967190Y-795420D01*
X966410Y-796670D01*
X965020Y-797290D01*
X961300D01*
G01X972920Y-802500D02*
X976800Y-790000D01*
X980680Y-802500D01*
G01X979280Y-798130D02*
X974320D01*
G01X985940Y-800830D02*
X987190Y-801880D01*
X988580Y-802500D01*
X989820D01*
X991060Y-801880D01*
X991990Y-800830D01*
X992460Y-799370D01*
X992150Y-797920D01*
X991370Y-796670D01*
X989970Y-795830D01*
X988120Y-795420D01*
X987030Y-794580D01*
X986560Y-793130D01*
X986880Y-791670D01*
X987650Y-790630D01*
X988730Y-790000D01*
X989820D01*
X990910Y-790420D01*
X991840Y-791460D01*
G01X998340Y-800830D02*
X999590Y-801880D01*
X1000980Y-802500D01*
X1002220D01*
X1003460Y-801880D01*
X1004390Y-800830D01*
X1004860Y-799370D01*
X1004550Y-797920D01*
X1003770Y-796670D01*
X1002370Y-795830D01*
X1000520Y-795420D01*
X999430Y-794580D01*
X998960Y-793130D01*
X999280Y-791670D01*
X1000050Y-790630D01*
X1001130Y-790000D01*
X1002220D01*
X1003310Y-790420D01*
X1004240Y-791460D01*
G01X1022990Y-802500D02*
Y-790000D01*
X1026090D01*
X1027330Y-790630D01*
X1028260Y-791460D01*
X1029040Y-792710D01*
X1029660Y-794170D01*
X1029810Y-796250D01*
X1029660Y-798330D01*
X1029040Y-799790D01*
X1028260Y-801040D01*
X1027330Y-801880D01*
X1026090Y-802500D01*
X1022990D01*
G01X1035390Y-790000D02*
Y-798960D01*
X1036010Y-800830D01*
X1037250Y-802080D01*
X1038800Y-802500D01*
X1040350Y-802080D01*
X1041590Y-800830D01*
X1042210Y-798960D01*
Y-790000D01*
G01X1047320Y-802500D02*
X1051200Y-790000D01*
X1055080Y-802500D01*
G01X1053680Y-798130D02*
X1048720D01*
G01X1060500Y-790000D02*
Y-802500D01*
X1066700D01*
G01X1085450Y-790000D02*
X1091350D01*
X1085450Y-802500D01*
X1091350D01*
G01X761000Y-684500D02*
X727000D01*
G01X761000Y-683500D02*
X729000D01*
G01X761000Y-682500D02*
X731000D01*
G01X761000Y-681500D02*
X733000D01*
G01X761000Y-680500D02*
X735000D01*
G01X761000Y-687500D02*
X721000D01*
G01X761000Y-686500D02*
X723000D01*
G01X761000Y-685500D02*
X725000D01*
G01X741000Y-662500D02*
X761000D01*
G01X739000Y-661500D02*
X761000D01*
G01X737000Y-660500D02*
X761000D01*
G01X735000Y-659500D02*
X761000D01*
G01X733000Y-658500D02*
X761000D01*
G01X731000Y-657500D02*
X761000D01*
G01X729000Y-656500D02*
X761000D01*
G01X727000Y-655500D02*
X761000D01*
G01X749000Y-666500D02*
X761000D01*
G01X747000Y-665500D02*
X761000D01*
G01X745000Y-664500D02*
X761000D01*
G01X743000Y-663500D02*
X761000D01*
G01Y-679500D02*
X737000D01*
G01X761000Y-678500D02*
X739000D01*
G01X741000Y-677500D02*
X761000D01*
G01X743000Y-676500D02*
X761000D01*
G01X745000Y-675500D02*
X761000D01*
G01X747000Y-674500D02*
X761000D01*
G01X749000Y-673500D02*
X761000D01*
G01X725000Y-654500D02*
X761000D01*
G01X723000Y-653500D02*
X761000D01*
G01X721000Y-652500D02*
X761000D01*
G01X762100Y-852500D02*
Y-844500D01*
X765900D01*
G01X764500Y-848370D02*
X762100D01*
G01X769900Y-851430D02*
X770700Y-852100D01*
X771600Y-852500D01*
X772400D01*
X773200Y-852100D01*
X773800Y-851430D01*
X774100Y-850500D01*
X773900Y-849570D01*
X773400Y-848770D01*
X772500Y-848230D01*
X771300Y-847970D01*
X770600Y-847430D01*
X770300Y-846500D01*
X770500Y-845570D01*
X771000Y-844900D01*
X771700Y-844500D01*
X772400D01*
X773100Y-844770D01*
X773700Y-845430D01*
G01X782200Y-845170D02*
X781600Y-844770D01*
X780900Y-844500D01*
X780100D01*
X779200Y-844900D01*
X778500Y-845570D01*
X778000Y-846370D01*
X777600Y-847700D01*
X777500Y-848900D01*
X777700Y-850100D01*
X778000Y-850900D01*
X778600Y-851700D01*
X779300Y-852230D01*
X780000Y-852500D01*
X780700D01*
X781400Y-852230D01*
X782000Y-851830D01*
X782500Y-851300D01*
G01X785400Y-852500D02*
Y-844500D01*
X788000Y-851170D01*
X790600Y-844500D01*
Y-852500D01*
G01X801700D02*
Y-844500D01*
X806300Y-852500D01*
Y-844500D01*
G01X812000Y-852500D02*
X811200Y-852370D01*
X810500Y-851830D01*
X809900Y-851030D01*
X809500Y-850100D01*
X809300Y-849030D01*
Y-847970D01*
X809500Y-846900D01*
X809900Y-845970D01*
X810500Y-845170D01*
X811200Y-844630D01*
X812000Y-844500D01*
X812800Y-844630D01*
X813500Y-845170D01*
X814100Y-845970D01*
X814500Y-846900D01*
X814700Y-847970D01*
Y-849030D01*
X814500Y-850100D01*
X814100Y-851030D01*
X813500Y-851830D01*
X812800Y-852370D01*
X812000Y-852500D01*
G01X761000Y-670000D02*
X756000D01*
G01X751000Y-667500D02*
X761000D01*
G01X751000Y-672500D02*
X761000D01*
G01X753000Y-671500D02*
X761000D01*
G01X755000Y-670500D02*
X761000D01*
G01X755000Y-669500D02*
X761000D01*
G01X753000Y-668500D02*
X761000D01*
G01X784750Y-925000D02*
Y-915000D01*
X783250Y-917000D01*
G01Y-925000D02*
X786250D01*
G01X792500Y-925330D02*
X797000Y-915000D01*
G01X804750Y-925000D02*
Y-915000D01*
X803250Y-917000D01*
G01Y-925000D02*
X806250D01*
G01X846000Y-932500D02*
Y-832500D01*
G01X863500Y-872500D02*
X861500Y-873170D01*
X860000Y-874830D01*
X859000Y-876830D01*
X858250Y-879500D01*
X858000Y-882500D01*
X858250Y-885500D01*
X859000Y-888170D01*
X860000Y-890170D01*
X861500Y-891830D01*
X863500Y-892500D01*
X865500Y-891830D01*
X867000Y-890170D01*
X868000Y-888170D01*
X868750Y-885500D01*
X869000Y-882500D01*
X868750Y-879500D01*
X868000Y-876830D01*
X867000Y-874830D01*
X865500Y-873170D01*
X863500Y-872500D01*
G01X883500Y-892500D02*
Y-872500D01*
X880500Y-876500D01*
G01Y-892500D02*
X886500D01*
G01X851800Y-852500D02*
Y-844500D01*
X853800D01*
X854600Y-844900D01*
X855200Y-845430D01*
X855700Y-846230D01*
X856100Y-847170D01*
X856200Y-848500D01*
X856100Y-849830D01*
X855700Y-850770D01*
X855200Y-851570D01*
X854600Y-852100D01*
X853800Y-852500D01*
X851800D01*
G01X860000D02*
Y-844500D01*
X862500D01*
X863300Y-844900D01*
X863800Y-845430D01*
X864000Y-846500D01*
X863800Y-847570D01*
X863200Y-848230D01*
X862500Y-848630D01*
X860000D01*
G01X862500D02*
X864000Y-852500D01*
G01X867500D02*
X870000Y-844500D01*
X872500Y-852500D01*
G01X871600Y-849700D02*
X868400D01*
G01X875000Y-844500D02*
X876400Y-852500D01*
X878000Y-844500D01*
X879600Y-852500D01*
X881000Y-844500D01*
G01X884800D02*
X887200D01*
G01X886000D02*
Y-852500D01*
G01X884800D02*
X887200D01*
G01X891700D02*
Y-844500D01*
X896300Y-852500D01*
Y-844500D01*
G01X902600Y-848500D02*
X904600D01*
Y-850900D01*
X904000Y-851700D01*
X903300Y-852230D01*
X902300Y-852500D01*
X901300Y-852230D01*
X900600Y-851700D01*
X900000Y-850900D01*
X899600Y-849970D01*
X899400Y-848900D01*
Y-847970D01*
X899600Y-847170D01*
X900000Y-846230D01*
X900600Y-845430D01*
X901200Y-844900D01*
X902000Y-844500D01*
X902700D01*
X903500Y-844770D01*
X904100Y-845300D01*
G01X915700Y-852500D02*
Y-844500D01*
X920300Y-852500D01*
Y-844500D01*
G01X923800D02*
Y-850230D01*
X924200Y-851430D01*
X925000Y-852230D01*
X926000Y-852500D01*
X927000Y-852230D01*
X927800Y-851430D01*
X928200Y-850230D01*
Y-844500D01*
G01X931400Y-852500D02*
Y-844500D01*
X934000Y-851170D01*
X936600Y-844500D01*
Y-852500D01*
G01X942800Y-848230D02*
X943200Y-847830D01*
X943500Y-847170D01*
X943700Y-846230D01*
X943500Y-845430D01*
X943100Y-844900D01*
X942400Y-844500D01*
X939700D01*
Y-852500D01*
X943000D01*
X943700Y-851970D01*
X944100Y-851170D01*
X944300Y-850230D01*
X944100Y-849300D01*
X943500Y-848500D01*
X942800Y-848230D01*
X939700D01*
G01X952000Y-852500D02*
X948000D01*
Y-844500D01*
X952000D01*
G01X950400Y-848370D02*
X948000D01*
G01X956000Y-852500D02*
Y-844500D01*
X958500D01*
X959300Y-844900D01*
X959800Y-845430D01*
X960000Y-846500D01*
X959800Y-847570D01*
X959200Y-848230D01*
X958500Y-848630D01*
X956000D01*
G01X958500D02*
X960000Y-852500D01*
G01X849320Y-750000D02*
X855200Y-731200D01*
X861080Y-750000D01*
G01X858960Y-743420D02*
X851440D01*
G01X869060Y-747490D02*
X870950Y-749060D01*
X873060Y-750000D01*
X874940D01*
X876820Y-749060D01*
X878230Y-747490D01*
X878940Y-745300D01*
X878470Y-743110D01*
X877290Y-741230D01*
X875170Y-739970D01*
X872360Y-739350D01*
X870710Y-738090D01*
X870000Y-735900D01*
X870480Y-733710D01*
X871650Y-732140D01*
X873290Y-731200D01*
X874940D01*
X876590Y-731830D01*
X878000Y-733390D01*
G01X887860Y-747490D02*
X889750Y-749060D01*
X891860Y-750000D01*
X893740D01*
X895620Y-749060D01*
X897030Y-747490D01*
X897740Y-745300D01*
X897270Y-743110D01*
X896090Y-741230D01*
X893970Y-739970D01*
X891160Y-739350D01*
X889510Y-738090D01*
X888800Y-735900D01*
X889280Y-733710D01*
X890450Y-732140D01*
X892090Y-731200D01*
X893740D01*
X895390Y-731830D01*
X896800Y-733390D01*
G01X916300Y-750000D02*
X906900D01*
Y-731200D01*
X916300D01*
G01X912540Y-740290D02*
X906900D01*
G01X924290Y-750000D02*
Y-731200D01*
X930400Y-746870D01*
X936510Y-731200D01*
Y-750000D01*
G01X951080Y-739970D02*
X952020Y-739030D01*
X952720Y-737470D01*
X953200Y-735270D01*
X952720Y-733390D01*
X951790Y-732140D01*
X950140Y-731200D01*
X943800D01*
Y-750000D01*
X951550D01*
X953200Y-748750D01*
X954140Y-746870D01*
X954600Y-744670D01*
X954140Y-742480D01*
X952720Y-740600D01*
X951080Y-739970D01*
X943800D01*
G01X963300Y-731200D02*
Y-750000D01*
X972700D01*
G01X986800D02*
Y-741540D01*
X982100Y-731200D01*
G01X991500D02*
X986800Y-741540D01*
G01X900250Y-885830D02*
X906750D01*
G01X923500Y-872500D02*
X921500Y-873170D01*
X920000Y-874830D01*
X919000Y-876830D01*
X918250Y-879500D01*
X918000Y-882500D01*
X918250Y-885500D01*
X919000Y-888170D01*
X920000Y-890170D01*
X921500Y-891830D01*
X923500Y-892500D01*
X925500Y-891830D01*
X927000Y-890170D01*
X928000Y-888170D01*
X928750Y-885500D01*
X929000Y-882500D01*
X928750Y-879500D01*
X928000Y-876830D01*
X927000Y-874830D01*
X925500Y-873170D01*
X923500Y-872500D01*
G01X938000Y-888500D02*
X939500Y-890830D01*
X941500Y-892170D01*
X943750Y-892500D01*
X945750Y-892170D01*
X947750Y-890500D01*
X949000Y-888500D01*
X949250Y-886500D01*
X948750Y-884170D01*
X947000Y-882500D01*
X945250Y-881830D01*
X943000D01*
G01X945250D02*
X946750Y-880830D01*
X948000Y-879170D01*
X948500Y-877170D01*
X948000Y-875170D01*
X946750Y-873500D01*
X944500Y-872500D01*
X942250Y-872830D01*
X940000Y-874170D01*
G01X966500Y-892500D02*
Y-872500D01*
X957250Y-886830D01*
X969750D01*
G01X979250Y-890170D02*
X981000Y-891830D01*
X983000Y-892500D01*
X985000Y-891830D01*
X986750Y-889830D01*
X988000Y-886830D01*
X988500Y-883830D01*
Y-880170D01*
X988000Y-877170D01*
X986750Y-874500D01*
X985250Y-873170D01*
X983500Y-872500D01*
X981500Y-873170D01*
X980000Y-874500D01*
X979000Y-876500D01*
X978500Y-879170D01*
X979000Y-881500D01*
X980250Y-883830D01*
X981750Y-885170D01*
X983500Y-885500D01*
X985500Y-884830D01*
X987000Y-883170D01*
X988500Y-880170D01*
G01X1003500Y-872500D02*
X1001500Y-873170D01*
X1000000Y-874830D01*
X999000Y-876830D01*
X998250Y-879500D01*
X998000Y-882500D01*
X998250Y-885500D01*
X999000Y-888170D01*
X1000000Y-890170D01*
X1001500Y-891830D01*
X1003500Y-892500D01*
X1005500Y-891830D01*
X1007000Y-890170D01*
X1008000Y-888170D01*
X1008750Y-885500D01*
X1009000Y-882500D01*
X1008750Y-879500D01*
X1008000Y-876830D01*
X1007000Y-874830D01*
X1005500Y-873170D01*
X1003500Y-872500D01*
G01X1023500Y-892500D02*
Y-872500D01*
X1020500Y-876500D01*
G01Y-892500D02*
X1026500D01*
G01X895500Y618000D02*
Y568000D01*
G01X896000Y642500D02*
Y592500D01*
G01X921000Y-967500D02*
Y-942500D01*
X917220Y-947500D01*
G01Y-967500D02*
X924780D01*
G01X915500Y585500D02*
X914500Y585170D01*
X913750Y584330D01*
X913250Y583330D01*
X912870Y582000D01*
X912750Y580500D01*
X912870Y579000D01*
X913250Y577670D01*
X913750Y576670D01*
X914500Y575830D01*
X915500Y575500D01*
X916500Y575830D01*
X917250Y576670D01*
X917750Y577670D01*
X918130Y579000D01*
X918250Y580500D01*
X918130Y582000D01*
X917750Y583330D01*
X917250Y584330D01*
X916500Y585170D01*
X915500Y585500D01*
G01X925250Y575500D02*
X925500Y577670D01*
X925880Y579500D01*
X926370Y581170D01*
X927000Y583000D01*
X928000Y585500D01*
X923000D01*
G01X932250Y575500D02*
Y585500D01*
X935500Y577170D01*
X938750Y585500D01*
Y575500D01*
G01X942370D02*
X945500Y585500D01*
X948630Y575500D01*
G01X947500Y579000D02*
X943500D01*
G01X953000Y575500D02*
Y585500D01*
X956120D01*
X957120Y585000D01*
X957750Y584330D01*
X958000Y583000D01*
X957750Y581670D01*
X957000Y580830D01*
X956120Y580330D01*
X953000D01*
G01X956120D02*
X958000Y575500D01*
G01X965500D02*
Y585500D01*
X964000Y583500D01*
G01Y575500D02*
X967000D01*
G01X977000D02*
Y585500D01*
X972370Y578330D01*
X978630D01*
G01X916000Y600000D02*
Y610000D01*
X914500Y608000D01*
G01Y600000D02*
X917500D01*
G01X923250Y601500D02*
X924000Y600670D01*
X924870Y600170D01*
X926000Y600000D01*
X927130Y600330D01*
X928000Y601000D01*
X928630Y602170D01*
X928750Y603500D01*
X928500Y604830D01*
X927870Y605670D01*
X927000Y606330D01*
X926130Y606500D01*
X925250Y606330D01*
X924130Y605670D01*
X924500Y610000D01*
X927870D01*
G01X933620Y600000D02*
Y610000D01*
X938380D01*
G01X936620Y605170D02*
X933620D01*
G01X948500Y600000D02*
X943500D01*
Y610000D01*
X948500D01*
G01X946500Y605170D02*
X943500D01*
G01X957000Y605330D02*
X957500Y605830D01*
X957870Y606670D01*
X958130Y607830D01*
X957870Y608830D01*
X957380Y609500D01*
X956500Y610000D01*
X953130D01*
Y600000D01*
X957250D01*
X958130Y600670D01*
X958630Y601670D01*
X958870Y602830D01*
X958630Y604000D01*
X957870Y605000D01*
X957000Y605330D01*
X953130D01*
G01X966000Y600000D02*
Y610000D01*
X964500Y608000D01*
G01Y600000D02*
X967500D01*
G01X973250Y602000D02*
X974000Y600830D01*
X975000Y600170D01*
X976130Y600000D01*
X977130Y600170D01*
X978130Y601000D01*
X978750Y602000D01*
X978870Y603000D01*
X978630Y604170D01*
X977750Y605000D01*
X976870Y605330D01*
X975750D01*
G01X976870D02*
X977620Y605830D01*
X978250Y606670D01*
X978500Y607670D01*
X978250Y608670D01*
X977620Y609500D01*
X976500Y610000D01*
X975380Y609830D01*
X974250Y609170D01*
G01X928250Y625000D02*
Y635000D01*
X930750D01*
X931750Y634500D01*
X932500Y633830D01*
X933130Y632830D01*
X933630Y631670D01*
X933750Y630000D01*
X933630Y628330D01*
X933130Y627170D01*
X932500Y626170D01*
X931750Y625500D01*
X930750Y625000D01*
X928250D01*
G01X937870D02*
X941000Y635000D01*
X944130Y625000D01*
G01X943000Y628500D02*
X939000D01*
G01X951000Y635000D02*
Y625000D01*
G01X948130Y635000D02*
X953870D01*
G01X963500Y625000D02*
X958500D01*
Y635000D01*
X963500D01*
G01X961500Y630170D02*
X958500D01*
G01X921000Y677500D02*
Y702500D01*
X917220Y697500D01*
G01Y677500D02*
X924780D01*
G01X982000Y-682500D02*
X982700Y-682370D01*
X983500Y-681970D01*
X984000Y-681300D01*
X984200Y-680370D01*
X984000Y-679430D01*
X983400Y-678630D01*
X982500Y-678230D01*
X981500D01*
X980900Y-677970D01*
X980400Y-677300D01*
X980200Y-676370D01*
X980500Y-675430D01*
X981200Y-674770D01*
X982000Y-674500D01*
X982800Y-674770D01*
X983500Y-675430D01*
X983800Y-676370D01*
X983600Y-677300D01*
X983100Y-677970D01*
X982500Y-678230D01*
X981500D01*
X980600Y-678630D01*
X980000Y-679430D01*
X979800Y-680370D01*
X980000Y-681300D01*
X980500Y-681970D01*
X981300Y-682370D01*
X982000Y-682500D01*
G01X990000Y-674500D02*
X989200Y-674770D01*
X988600Y-675430D01*
X988200Y-676230D01*
X987900Y-677300D01*
X987800Y-678500D01*
X987900Y-679700D01*
X988200Y-680770D01*
X988600Y-681570D01*
X989200Y-682230D01*
X990000Y-682500D01*
X990800Y-682230D01*
X991400Y-681570D01*
X991800Y-680770D01*
X992100Y-679700D01*
X992200Y-678500D01*
X992100Y-677300D01*
X991800Y-676230D01*
X991400Y-675430D01*
X990800Y-674770D01*
X990000Y-674500D01*
G01X999200Y-682500D02*
Y-674500D01*
X995500Y-680230D01*
X1000500D01*
G01X1011000Y-674500D02*
X1012400Y-682500D01*
X1014000Y-674500D01*
X1015600Y-682500D01*
X1017000Y-674500D01*
G01X1022000Y-682500D02*
X1021200Y-682370D01*
X1020500Y-681830D01*
X1019900Y-681030D01*
X1019500Y-680100D01*
X1019300Y-679030D01*
Y-677970D01*
X1019500Y-676900D01*
X1019900Y-675970D01*
X1020500Y-675170D01*
X1021200Y-674630D01*
X1022000Y-674500D01*
X1022800Y-674630D01*
X1023500Y-675170D01*
X1024100Y-675970D01*
X1024500Y-676900D01*
X1024700Y-677970D01*
Y-679030D01*
X1024500Y-680100D01*
X1024100Y-681030D01*
X1023500Y-681830D01*
X1022800Y-682370D01*
X1022000Y-682500D01*
G01X1030800Y-678230D02*
X1031200Y-677830D01*
X1031500Y-677170D01*
X1031700Y-676230D01*
X1031500Y-675430D01*
X1031100Y-674900D01*
X1030400Y-674500D01*
X1027700D01*
Y-682500D01*
X1031000D01*
X1031700Y-681970D01*
X1032100Y-681170D01*
X1032300Y-680230D01*
X1032100Y-679300D01*
X1031500Y-678500D01*
X1030800Y-678230D01*
X1027700D01*
G01X1035800Y-674500D02*
Y-680230D01*
X1036200Y-681430D01*
X1037000Y-682230D01*
X1038000Y-682500D01*
X1039000Y-682230D01*
X1039800Y-681430D01*
X1040200Y-680230D01*
Y-674500D01*
G01X1044000Y-682500D02*
Y-674500D01*
X1046500D01*
X1047300Y-674900D01*
X1047800Y-675430D01*
X1048000Y-676500D01*
X1047800Y-677570D01*
X1047200Y-678230D01*
X1046500Y-678630D01*
X1044000D01*
G01X1046500D02*
X1048000Y-682500D01*
G01X1051700D02*
Y-674500D01*
X1056300Y-682500D01*
Y-674500D01*
G01X1067900Y-681430D02*
X1068700Y-682100D01*
X1069600Y-682500D01*
X1070400D01*
X1071200Y-682100D01*
X1071800Y-681430D01*
X1072100Y-680500D01*
X1071900Y-679570D01*
X1071400Y-678770D01*
X1070500Y-678230D01*
X1069300Y-677970D01*
X1068600Y-677430D01*
X1068300Y-676500D01*
X1068500Y-675570D01*
X1069000Y-674900D01*
X1069700Y-674500D01*
X1070400D01*
X1071100Y-674770D01*
X1071700Y-675430D01*
G01X1078000Y-674500D02*
Y-682500D01*
G01X1075700Y-674500D02*
X1080300D01*
G01X1084000Y-682500D02*
Y-674500D01*
X1086500D01*
X1087300Y-674900D01*
X1087800Y-675430D01*
X1088000Y-676500D01*
X1087800Y-677570D01*
X1087200Y-678230D01*
X1086500Y-678630D01*
X1084000D01*
G01X1086500D02*
X1088000Y-682500D01*
G01X1096000D02*
X1092000D01*
Y-674500D01*
X1096000D01*
G01X1094400Y-678370D02*
X1092000D01*
G01X1104000Y-682500D02*
X1100000D01*
Y-674500D01*
X1104000D01*
G01X1102400Y-678370D02*
X1100000D01*
G01X1110000Y-674500D02*
Y-682500D01*
G01X1107700Y-674500D02*
X1112300D01*
G01X967000Y-689500D02*
X968400Y-697500D01*
X970000Y-689500D01*
X971600Y-697500D01*
X973000Y-689500D01*
G01X976800D02*
X979200D01*
G01X978000D02*
Y-697500D01*
G01X976800D02*
X979200D01*
G01X984000Y-689500D02*
Y-697500D01*
X988000D01*
G01X991400D02*
Y-689500D01*
X994000Y-696170D01*
X996600Y-689500D01*
Y-697500D01*
G01X1000800Y-689500D02*
X1003200D01*
G01X1002000D02*
Y-697500D01*
G01X1000800D02*
X1003200D01*
G01X1007700D02*
Y-689500D01*
X1012300Y-697500D01*
Y-689500D01*
G01X1018600Y-693500D02*
X1020600D01*
Y-695900D01*
X1020000Y-696700D01*
X1019300Y-697230D01*
X1018300Y-697500D01*
X1017300Y-697230D01*
X1016600Y-696700D01*
X1016000Y-695900D01*
X1015600Y-694970D01*
X1015400Y-693900D01*
Y-692970D01*
X1015600Y-692170D01*
X1016000Y-691230D01*
X1016600Y-690430D01*
X1017200Y-689900D01*
X1018000Y-689500D01*
X1018700D01*
X1019500Y-689770D01*
X1020100Y-690300D01*
G01X1026000Y-689500D02*
Y-697500D01*
G01X1023700Y-689500D02*
X1028300D01*
G01X1034000Y-697500D02*
X1033200Y-697370D01*
X1032500Y-696830D01*
X1031900Y-696030D01*
X1031500Y-695100D01*
X1031300Y-694030D01*
Y-692970D01*
X1031500Y-691900D01*
X1031900Y-690970D01*
X1032500Y-690170D01*
X1033200Y-689630D01*
X1034000Y-689500D01*
X1034800Y-689630D01*
X1035500Y-690170D01*
X1036100Y-690970D01*
X1036500Y-691900D01*
X1036700Y-692970D01*
Y-694030D01*
X1036500Y-695100D01*
X1036100Y-696030D01*
X1035500Y-696830D01*
X1034800Y-697370D01*
X1034000Y-697500D01*
G01X1039700D02*
Y-689500D01*
X1044300Y-697500D01*
Y-689500D01*
G01X1049800Y-698970D02*
X1050200Y-697230D01*
G01X1063400Y-697500D02*
Y-689500D01*
X1066000Y-696170D01*
X1068600Y-689500D01*
Y-697500D01*
G01X1071500D02*
X1074000Y-689500D01*
X1076500Y-697500D01*
G01X1075600Y-694700D02*
X1072400D01*
G01X1090000Y-689500D02*
X1089200Y-689770D01*
X1088600Y-690430D01*
X1088200Y-691230D01*
X1087900Y-692300D01*
X1087800Y-693500D01*
X1087900Y-694700D01*
X1088200Y-695770D01*
X1088600Y-696570D01*
X1089200Y-697230D01*
X1090000Y-697500D01*
X1090800Y-697230D01*
X1091400Y-696570D01*
X1091800Y-695770D01*
X1092100Y-694700D01*
X1092200Y-693500D01*
X1092100Y-692300D01*
X1091800Y-691230D01*
X1091400Y-690430D01*
X1090800Y-689770D01*
X1090000Y-689500D01*
G01X1098000Y-697500D02*
Y-689500D01*
X1096800Y-691100D01*
G01Y-697500D02*
X1099200D01*
G01X1106000D02*
X1106700Y-697370D01*
X1107500Y-696970D01*
X1108000Y-696300D01*
X1108200Y-695370D01*
X1108000Y-694430D01*
X1107400Y-693630D01*
X1106500Y-693230D01*
X1105500D01*
X1104900Y-692970D01*
X1104400Y-692300D01*
X1104200Y-691370D01*
X1104500Y-690430D01*
X1105200Y-689770D01*
X1106000Y-689500D01*
X1106800Y-689770D01*
X1107500Y-690430D01*
X1107800Y-691370D01*
X1107600Y-692300D01*
X1107100Y-692970D01*
X1106500Y-693230D01*
X1105500D01*
X1104600Y-693630D01*
X1104000Y-694430D01*
X1103800Y-695370D01*
X1104000Y-696300D01*
X1104500Y-696970D01*
X1105300Y-697370D01*
X1106000Y-697500D01*
G01X1114000D02*
X1114700Y-697370D01*
X1115500Y-696970D01*
X1116000Y-696300D01*
X1116200Y-695370D01*
X1116000Y-694430D01*
X1115400Y-693630D01*
X1114500Y-693230D01*
X1113500D01*
X1112900Y-692970D01*
X1112400Y-692300D01*
X1112200Y-691370D01*
X1112500Y-690430D01*
X1113200Y-689770D01*
X1114000Y-689500D01*
X1114800Y-689770D01*
X1115500Y-690430D01*
X1115800Y-691370D01*
X1115600Y-692300D01*
X1115100Y-692970D01*
X1114500Y-693230D01*
X1113500D01*
X1112600Y-693630D01*
X1112000Y-694430D01*
X1111800Y-695370D01*
X1112000Y-696300D01*
X1112500Y-696970D01*
X1113300Y-697370D01*
X1114000Y-697500D01*
G01X1121800D02*
X1122000Y-695770D01*
X1122300Y-694300D01*
X1122700Y-692970D01*
X1123200Y-691500D01*
X1124000Y-689500D01*
X1120000D01*
G01X1001900Y-923930D02*
X1002700Y-924600D01*
X1003600Y-925000D01*
X1004400D01*
X1005200Y-924600D01*
X1005800Y-923930D01*
X1006100Y-923000D01*
X1005900Y-922070D01*
X1005400Y-921270D01*
X1004500Y-920730D01*
X1003300Y-920470D01*
X1002600Y-919930D01*
X1002300Y-919000D01*
X1002500Y-918070D01*
X1003000Y-917400D01*
X1003700Y-917000D01*
X1004400D01*
X1005100Y-917270D01*
X1005700Y-917930D01*
G01X1009900Y-925000D02*
Y-917000D01*
G01X1014100D02*
Y-925000D01*
G01Y-921000D02*
X1009900D01*
G01X1022000Y-925000D02*
X1018000D01*
Y-917000D01*
X1022000D01*
G01X1020400Y-920870D02*
X1018000D01*
G01X1030000Y-925000D02*
X1026000D01*
Y-917000D01*
X1030000D01*
G01X1028400Y-920870D02*
X1026000D01*
G01X1036000Y-917000D02*
Y-925000D01*
G01X1033700Y-917000D02*
X1038300D01*
G01X996000Y-907500D02*
Y-932500D01*
G01X1008250Y-667500D02*
Y-657500D01*
X1010750D01*
X1011750Y-658000D01*
X1012500Y-658670D01*
X1013130Y-659670D01*
X1013630Y-660830D01*
X1013750Y-662500D01*
X1013630Y-664170D01*
X1013130Y-665330D01*
X1012500Y-666330D01*
X1011750Y-667000D01*
X1010750Y-667500D01*
X1008250D01*
G01X1019500Y-657500D02*
X1022500D01*
G01X1021000D02*
Y-667500D01*
G01X1019500D02*
X1022500D01*
G01X1027870Y-657500D02*
X1031000Y-667500D01*
X1034130Y-657500D01*
G01X1039500D02*
X1042500D01*
G01X1041000D02*
Y-667500D01*
G01X1039500D02*
X1042500D01*
G01X1048370Y-666170D02*
X1049380Y-667000D01*
X1050500Y-667500D01*
X1051500D01*
X1052500Y-667000D01*
X1053250Y-666170D01*
X1053630Y-665000D01*
X1053380Y-663830D01*
X1052750Y-662830D01*
X1051620Y-662170D01*
X1050130Y-661830D01*
X1049250Y-661170D01*
X1048870Y-660000D01*
X1049130Y-658830D01*
X1049750Y-658000D01*
X1050620Y-657500D01*
X1051500D01*
X1052380Y-657830D01*
X1053130Y-658670D01*
G01X1059500Y-657500D02*
X1062500D01*
G01X1061000D02*
Y-667500D01*
G01X1059500D02*
X1062500D01*
G01X1071000D02*
X1070000Y-667330D01*
X1069130Y-666670D01*
X1068370Y-665670D01*
X1067870Y-664500D01*
X1067620Y-663170D01*
Y-661830D01*
X1067870Y-660500D01*
X1068370Y-659330D01*
X1069130Y-658330D01*
X1070000Y-657670D01*
X1071000Y-657500D01*
X1072000Y-657670D01*
X1072870Y-658330D01*
X1073630Y-659330D01*
X1074130Y-660500D01*
X1074380Y-661830D01*
Y-663170D01*
X1074130Y-664500D01*
X1073630Y-665670D01*
X1072870Y-666670D01*
X1072000Y-667330D01*
X1071000Y-667500D01*
G01X1078130D02*
Y-657500D01*
X1083870Y-667500D01*
Y-657500D01*
G01X1017370Y575500D02*
X1020500Y585500D01*
X1023630Y575500D01*
G01X1022500Y579000D02*
X1018500D01*
G01X1030500Y575170D02*
X1030250Y575330D01*
Y575670D01*
X1030500Y575830D01*
X1030750Y575670D01*
Y575330D01*
X1030500Y575170D01*
G01X1047250Y575500D02*
Y585500D01*
X1050500Y577170D01*
X1053750Y585500D01*
Y575500D01*
G01X1057370D02*
X1060500Y585500D01*
X1063630Y575500D01*
G01X1062500Y579000D02*
X1058500D01*
G01X1067870Y575500D02*
Y585500D01*
G01X1073130D02*
Y575500D01*
G01Y580500D02*
X1067870D01*
G01X1077370Y575500D02*
X1080500Y585500D01*
X1083630Y575500D01*
G01X1082500Y579000D02*
X1078500D01*
G01X1088120Y575500D02*
Y585500D01*
X1092880D01*
G01X1091120Y580670D02*
X1088120D01*
G01X1098120Y575500D02*
Y585500D01*
X1102880D01*
G01X1101120Y580670D02*
X1098120D01*
G01X1113000Y575500D02*
X1108000D01*
Y585500D01*
X1113000D01*
G01X1111000Y580670D02*
X1108000D01*
G01X1120500Y575500D02*
Y580000D01*
X1118000Y585500D01*
G01X1123000D02*
X1120500Y580000D01*
G01X995500Y618000D02*
Y568000D01*
G01X996000Y642500D02*
Y592500D01*
G01X1032250Y-642500D02*
X1034000Y-652500D01*
X1036000Y-642500D01*
X1038000Y-652500D01*
X1039750Y-642500D01*
G01X1042250D02*
X1044000Y-652500D01*
X1046000Y-642500D01*
X1048000Y-652500D01*
X1049750Y-642500D01*
G01X1052750Y-652500D02*
Y-642500D01*
X1056000Y-650830D01*
X1059250Y-642500D01*
Y-652500D01*
G01X1037750Y600000D02*
Y610000D01*
X1041000Y601670D01*
X1044250Y610000D01*
Y600000D01*
G01X1051000Y599670D02*
X1050750Y599830D01*
Y600170D01*
X1051000Y600330D01*
X1051250Y600170D01*
Y599830D01*
X1051000Y599670D01*
G01X1068250Y600000D02*
Y610000D01*
X1070750D01*
X1071750Y609500D01*
X1072500Y608830D01*
X1073130Y607830D01*
X1073630Y606670D01*
X1073750Y605000D01*
X1073630Y603330D01*
X1073130Y602170D01*
X1072500Y601170D01*
X1071750Y600500D01*
X1070750Y600000D01*
X1068250D01*
G01X1078250Y610000D02*
Y602830D01*
X1078750Y601330D01*
X1079750Y600330D01*
X1081000Y600000D01*
X1082250Y600330D01*
X1083250Y601330D01*
X1083750Y602830D01*
Y610000D01*
G01X1088620Y600000D02*
Y610000D01*
X1093380D01*
G01X1091620Y605170D02*
X1088620D01*
G01X1098620Y600000D02*
Y610000D01*
X1103380D01*
G01X1101620Y605170D02*
X1098620D01*
G01X1032870Y625000D02*
X1036000Y635000D01*
X1039130Y625000D01*
G01X1038000Y628500D02*
X1034000D01*
G01X1043500Y625000D02*
Y635000D01*
X1046500D01*
X1047500Y634500D01*
X1048250Y633330D01*
X1048500Y632000D01*
X1048250Y630670D01*
X1047620Y629670D01*
X1046500Y629170D01*
X1043500D01*
G01X1053500Y625000D02*
Y635000D01*
X1056500D01*
X1057500Y634500D01*
X1058250Y633330D01*
X1058500Y632000D01*
X1058250Y630670D01*
X1057620Y629670D01*
X1056500Y629170D01*
X1053500D01*
G01X1063500Y625000D02*
Y635000D01*
X1066620D01*
X1067620Y634500D01*
X1068250Y633830D01*
X1068500Y632500D01*
X1068250Y631170D01*
X1067500Y630330D01*
X1066620Y629830D01*
X1063500D01*
G01X1066620D02*
X1068500Y625000D01*
G01X1076000D02*
X1075000Y625170D01*
X1074130Y625830D01*
X1073370Y626830D01*
X1072870Y628000D01*
X1072620Y629330D01*
Y630670D01*
X1072870Y632000D01*
X1073370Y633170D01*
X1074130Y634170D01*
X1075000Y634830D01*
X1076000Y635000D01*
X1077000Y634830D01*
X1077870Y634170D01*
X1078630Y633170D01*
X1079130Y632000D01*
X1079380Y630670D01*
Y629330D01*
X1079130Y628000D01*
X1078630Y626830D01*
X1077870Y625830D01*
X1077000Y625170D01*
X1076000Y625000D01*
G01X1082870Y635000D02*
X1086000Y625000D01*
X1089130Y635000D01*
G01X1098500Y625000D02*
X1093500D01*
Y635000D01*
X1098500D01*
G01X1096500Y630170D02*
X1093500D01*
G01X1103250Y625000D02*
Y635000D01*
X1105750D01*
X1106750Y634500D01*
X1107500Y633830D01*
X1108130Y632830D01*
X1108630Y631670D01*
X1108750Y630000D01*
X1108630Y628330D01*
X1108130Y627170D01*
X1107500Y626170D01*
X1106750Y625500D01*
X1105750Y625000D01*
X1103250D01*
G01X1079000Y-925000D02*
X1078200Y-924870D01*
X1077500Y-924330D01*
X1076900Y-923530D01*
X1076500Y-922600D01*
X1076300Y-921530D01*
Y-920470D01*
X1076500Y-919400D01*
X1076900Y-918470D01*
X1077500Y-917670D01*
X1078200Y-917130D01*
X1079000Y-917000D01*
X1079800Y-917130D01*
X1080500Y-917670D01*
X1081100Y-918470D01*
X1081500Y-919400D01*
X1081700Y-920470D01*
Y-921530D01*
X1081500Y-922600D01*
X1081100Y-923530D01*
X1080500Y-924330D01*
X1079800Y-924870D01*
X1079000Y-925000D01*
G01X1085100D02*
Y-917000D01*
X1088900D01*
G01X1087500Y-920870D02*
X1085100D01*
G01X1062250Y-925000D02*
Y-915000D01*
X1060750Y-917000D01*
G01Y-925000D02*
X1063750D01*
G01X1102250D02*
Y-915000D01*
X1100750Y-917000D01*
G01Y-925000D02*
X1103750D01*
G01X1096000Y-907500D02*
Y-832500D01*
G01X1109500Y-852500D02*
Y-844500D01*
X1112000D01*
X1112800Y-844900D01*
X1113300Y-845430D01*
X1113500Y-846500D01*
X1113300Y-847570D01*
X1112700Y-848230D01*
X1112000Y-848630D01*
X1109500D01*
G01X1112000D02*
X1113500Y-852500D01*
G01X1121500D02*
X1117500D01*
Y-844500D01*
X1121500D01*
G01X1119900Y-848370D02*
X1117500D01*
G01X1125000Y-844500D02*
X1127500Y-852500D01*
X1130000Y-844500D01*
G01X1123000Y-881830D02*
X1124000Y-880830D01*
X1124750Y-879170D01*
X1125250Y-876830D01*
X1124750Y-874830D01*
X1123750Y-873500D01*
X1122000Y-872500D01*
X1115250D01*
Y-892500D01*
X1123500D01*
X1125250Y-891170D01*
X1126250Y-889170D01*
X1126750Y-886830D01*
X1126250Y-884500D01*
X1124750Y-882500D01*
X1123000Y-881830D01*
X1115250D01*
G01X1122120Y313740D02*
X1120980Y314490D01*
X1119660Y315000D01*
X1118130D01*
X1116420Y314250D01*
X1115100Y312990D01*
X1114140Y311490D01*
X1113390Y309000D01*
X1113210Y306750D01*
X1113570Y304500D01*
X1114140Y303000D01*
X1115280Y301500D01*
X1116630Y300510D01*
X1117950Y300000D01*
X1119270D01*
X1120620Y300510D01*
X1121760Y301260D01*
X1122690Y302250D01*
G01X1129650Y306240D02*
X1130970Y308010D01*
X1132110Y309000D01*
X1133640Y309510D01*
X1134960Y309000D01*
X1135920Y308010D01*
X1136670Y306510D01*
X1136850Y304740D01*
X1136670Y303240D01*
X1135920Y301740D01*
X1134780Y300510D01*
X1133430Y300000D01*
X1131930Y300510D01*
X1130580Y302010D01*
X1129830Y304260D01*
X1129650Y306750D01*
X1130010Y309990D01*
X1130580Y311760D01*
X1131540Y313500D01*
X1132860Y314760D01*
X1134210Y315000D01*
X1135530Y314490D01*
X1136490Y313260D01*
G01X1158120Y-782500D02*
X1166000Y-757500D01*
X1173880Y-782500D01*
G01X1171040Y-773750D02*
X1160960D01*
G01X1146000Y-607500D02*
Y592500D01*
G01X1176000Y-557500D02*
X1146000D01*
G01X1168520Y-344170D02*
X1169780Y-342920D01*
X1170720Y-340830D01*
X1171360Y-337920D01*
X1170720Y-335420D01*
X1169470Y-333750D01*
X1167260Y-332500D01*
X1158760D01*
Y-357500D01*
X1169150D01*
X1171360Y-355830D01*
X1172620Y-353330D01*
X1173240Y-350420D01*
X1172620Y-347500D01*
X1170720Y-345000D01*
X1168520Y-344170D01*
X1158760D01*
G01X1184000Y-131000D02*
Y-134000D01*
X1164000D01*
Y-140500D01*
X1149000Y-132500D01*
X1164000Y-124500D01*
Y-131000D01*
X1184000D01*
G01X1185000Y-130000D02*
Y-135000D01*
X1165000D01*
Y-142000D01*
X1147500Y-132500D01*
X1165000Y-123000D01*
Y-130000D01*
X1185000D01*
G01X1186000Y-129000D02*
Y-136000D01*
X1166000D01*
Y-143500D01*
X1146000Y-132500D01*
X1166000Y-121500D01*
Y-129000D01*
X1186000D01*
G01X1178880Y-135000D02*
X1167720D01*
G01X1158500Y-132500D02*
X1157500D01*
G01X1159000Y-131500D02*
Y-133500D01*
X1156500Y-132500D01*
X1159000Y-131500D01*
G01X1160000Y-130500D02*
Y-134500D01*
X1155000Y-132500D01*
X1160000Y-130500D01*
G01X1161000Y-129000D02*
Y-136000D01*
X1153500Y-132500D01*
X1161000Y-129000D01*
G01X1162000Y-127500D02*
Y-137500D01*
X1152000Y-132500D01*
X1162000Y-127500D01*
G01X1183000Y-132000D02*
Y-133000D01*
X1163000D01*
Y-139000D01*
X1150500Y-132500D01*
X1163000Y-126000D01*
Y-132000D01*
X1183000D01*
G01X1172930Y90420D02*
X1171040Y91670D01*
X1168840Y92500D01*
X1166320D01*
X1163480Y91250D01*
X1161280Y89170D01*
X1159700Y86670D01*
X1158440Y82500D01*
X1158120Y78750D01*
X1158760Y75000D01*
X1159700Y72500D01*
X1161590Y70000D01*
X1163800Y68330D01*
X1166000Y67500D01*
X1168200D01*
X1170410Y68330D01*
X1172300Y69580D01*
X1173880Y71250D01*
G01X1176000Y292500D02*
X1146000D01*
G01X1159070Y492500D02*
Y517500D01*
X1165370D01*
X1167890Y516250D01*
X1169780Y514580D01*
X1171360Y512080D01*
X1172620Y509170D01*
X1172930Y505000D01*
X1172620Y500830D01*
X1171360Y497920D01*
X1169780Y495420D01*
X1167890Y493750D01*
X1165370Y492500D01*
X1159070D01*
M02*
