G04 ================== begin FILE IDENTIFICATION RECORD ==================*
G04 Layout Name:  C:/tmp/20_034901b/worklib/02_034901b_top/physical/08_034901b.brd*
G04 Film Name:    l2_secondary*
G04 File Format:  Gerber RS274X*
G04 File Origin:  Cadence Allegro 16.5-S031*
G04 Origin Date:  Fri Mar 21 04:56:11 2014*
G04 *
G04 Layer:  VIA CLASS/BOTTOM*
G04 Layer:  PIN/BOTTOM*
G04 Layer:  ETCH/BOTTOM*
G04 Layer:  BOARD GEOMETRY/TOOLING_CORNERS*
G04 Layer:  BOARD GEOMETRY/LYR_BOTTOM*
G04 Layer:  BOARD GEOMETRY/ROOT_NUMBER*
G04 *
G04 Offset:    (0.0 0.0)*
G04 Mirror:    No*
G04 Mode:      Positive*
G04 Rotation:  0*
G04 FullContactRelief:  No*
G04 UndefLineWidth:     8.0*
G04 ================== end FILE IDENTIFICATION RECORD ====================*
%FSLAX55Y55*MOIN*%
%IR0*IPPOS*OFA0.00000B0.00000*MIA0B0*SFA1.00000B1.00000*%
%AMMACRO10*
4,1,36,0.0,-.02,
.003473,-.019696,
.00684,-.018794,
.01,-.017321,
.012856,-.015321,
.015321,-.012856,
.017321,-.01,
.018794,-.00684,
.019696,-.003473,
.02,0.0,
.019696,.003473,
.018794,.00684,
.017321,.01,
.015321,.012856,
.012856,.015321,
.01,.017321,
.00684,.018794,
.003473,.019696,
0.0,.02,
-.003473,.019696,
-.00684,.018794,
-.01,.017321,
-.012856,.015321,
-.015321,.012856,
-.017321,.01,
-.018794,.00684,
-.019696,.003473,
-.02,0.0,
-.019696,-.003473,
-.018794,-.00684,
-.017321,-.01,
-.015321,-.012856,
-.012856,-.015321,
-.01,-.017321,
-.00684,-.018794,
-.003473,-.019696,
0.0,-.02,
0.0*
%
%ADD10MACRO10*%
%ADD17R,.012X.052*%
%ADD11C,.04*%
%ADD14C,.06*%
%ADD13C,.025*%
%ADD12C,.065*%
%ADD15R,.06X.06*%
%ADD16R,.063X.079*%
%ADD18C,.012*%
%ADD19C,.008*%
%ADD20C,.05*%
%ADD22C,.1054*%
%ADD23C,.0704*%
%ADD24C,.0804*%
%ADD21C,.0754*%
G75*
%LPD*%
G75*
G36*
G01X-31370Y-57490D02*
G02X-31680Y-56840I1J399D01*
G03X-38170Y-39390I-8320J6838D01*
G02X-38280Y-38630I62J397D01*
G03X-41720I-1720J3630D01*
G02X-41830Y-39390I-172J-363D01*
G03X-46840Y-41680I1823J-10614D01*
G02X-47490Y-41370I-251J311D01*
G01Y31000D01*
X-41500D01*
Y27000D01*
X-22610D01*
Y18610D01*
X-25580D01*
X-30110Y14080D01*
X-30220Y14110D01*
G03X-26390Y10280I-1280J-5110D01*
G01X-26420Y10390D01*
X-23420Y13390D01*
X-12510D01*
Y7490D01*
X-2490D01*
Y9620D01*
G02X-1750Y9830I400J-1D01*
G03X7400Y13580I4248J2673D01*
G01X7380Y13690D01*
X11960Y18270D01*
X12060Y18260D01*
G03X11970Y24730I437J3242D01*
G02X11500Y25120I-71J392D01*
G01Y34390D01*
G02X11910Y34790I399J1D01*
G03X14610Y40030I90J3269D01*
G01Y41500D01*
X11500Y44610D01*
Y57490D01*
X47490D01*
Y-41370D01*
G02X46840Y-41680I-399J1D01*
G03X41830Y-39390I-6833J-8324D01*
G02X41720Y-38630I62J397D01*
G03X38280I-1720J3630D01*
G02X38170Y-39390I-172J-363D01*
G03X31680Y-56840I1830J-10612D01*
G02X31370Y-57490I-311J-251D01*
G01X-31370D01*
G37*
%LPC*%
G75*
G36*
G01X-2130Y-9440D02*
G03X-2870I-370J-151D01*
G02Y-5560I-4630J1940D01*
G03X-2130I370J151D01*
G02Y-9440I4630J-1940D01*
G37*
G54D22*
X-15000Y-25000D03*
X9000D03*
X28000Y10000D03*
G54D23*
X-7500Y2500D03*
X2500D03*
G54D24*
X40000Y50000D03*
G54D21*
X-30000Y-13000D03*
X28000Y-12000D03*
%LPD*%
G75*
G54D10*
X-40000Y-50000D03*
X40000D03*
G54D20*
G01X-62500Y-62500D02*
X-27500D01*
G01X-62500Y62500D02*
X-27500D01*
G01X-52500Y-72500D02*
Y-37500D01*
G01Y72500D02*
Y37500D01*
G01X62500Y-62500D02*
X27500D01*
G01X62500Y62500D02*
X27500D01*
G01X52500Y-72500D02*
Y-37500D01*
G01Y72500D02*
Y37500D01*
G54D11*
X-40000Y-35000D03*
X40000D03*
Y50000D03*
G54D12*
X-30000Y-13000D03*
X-31500Y9000D03*
X-15000Y-25000D03*
X9000D03*
X28000Y-12000D03*
Y10000D03*
G54D13*
X-28500Y24000D03*
X-14000Y10000D03*
X-6500Y23500D03*
X-9000Y36000D03*
X-6900Y32000D03*
X-23620Y32300D03*
X-9000Y52850D03*
X-7000Y48150D03*
X12000Y38060D03*
X27000Y25000D03*
X6000Y41650D03*
X12500Y21500D03*
X19500Y46500D03*
X27060Y44250D03*
G54D14*
X2500Y12500D03*
X-7500Y2500D03*
Y-7500D03*
X2500D03*
Y2500D03*
G54D15*
X-7500Y12500D03*
G54D16*
X-25500Y38000D03*
X-14500D03*
G54D17*
X-3840Y28440D03*
X-1280D03*
X1280D03*
Y46560D03*
X-3840D03*
X-1280D03*
X3840Y28440D03*
Y46560D03*
G54D18*
G01X-33000Y-16000D02*
X-30000Y-13000D01*
G01D02*
X-27000Y-10000D01*
G01X-33000D02*
X-30000Y-13000D01*
G01D02*
X-27000Y-16000D01*
G01X-31500Y9000D02*
X-24500Y16000D01*
X-21500D01*
G01X-320Y-320D02*
X2500Y2500D01*
G01X-320Y5320D02*
X2500Y2500D01*
G01X-10320Y-320D02*
X-7500Y2500D01*
G01D02*
X-4680Y5320D01*
G01X-10320D02*
X-7500Y2500D01*
G01D02*
X-4680Y-320D01*
G01X-3840Y28440D02*
X-5540D01*
X-6500Y27480D01*
Y23500D01*
G01X13000Y33000D02*
X-420D01*
X-1280Y32140D01*
Y28440D01*
G01X-20500Y16000D02*
X-19000D01*
G01X-20500D02*
X-20250Y16250D01*
Y17250D01*
G01X-21500Y16000D02*
X-20500D01*
G01X-20250Y17250D02*
X-21500Y16000D01*
G01X-19000D02*
X-18500D01*
G01X-20250Y17250D02*
X-20000Y17000D01*
G01D02*
X-19000Y16000D01*
G01X-20000Y17500D02*
X-20250Y17250D01*
G01X-20000Y17500D02*
Y17000D01*
G01X-18500Y16000D02*
X-11000D01*
X-7500Y12500D01*
G01X-20000Y17500D02*
X-18500Y16000D01*
G01X-9000Y52850D02*
X-9650Y53500D01*
X-17000D01*
X-18000Y52500D01*
Y45000D01*
X-20000Y43000D01*
Y17500D01*
G01X-9000Y36000D02*
X-12500D01*
X-14500Y38000D01*
G01X-3840Y46560D02*
Y35060D01*
X-6900Y32000D01*
G01X-23620Y32300D02*
Y36120D01*
X-25500Y38000D01*
G01X-1280Y46560D02*
Y42860D01*
X-70Y41650D01*
X6000D01*
G01X-7000Y48150D02*
Y50510D01*
X-6010Y51500D01*
X40D01*
X1280Y50260D01*
Y46560D01*
G01X24200Y-8200D02*
X28000Y-12000D01*
G01X25000Y-15000D02*
X28000Y-12000D01*
G01D02*
X31000Y-9000D01*
G01X28000Y-12000D02*
X31000Y-15000D01*
G01X2500Y2500D02*
X5320Y5320D01*
G01X2500Y2500D02*
X5320Y-320D01*
G01X12000Y38060D02*
Y40420D01*
X5860Y46560D01*
X3840D01*
G01X2500Y12500D02*
X11500Y21500D01*
X12500D01*
G01X3840Y28440D02*
Y25060D01*
X3000Y24220D01*
X2000D01*
X1280Y24940D01*
Y28440D01*
G54D19*
G01X-55000Y120000D02*
X-56000Y119670D01*
X-56750Y118830D01*
X-57250Y117830D01*
X-57630Y116500D01*
X-57750Y115000D01*
X-57630Y113500D01*
X-57250Y112170D01*
X-56750Y111170D01*
X-56000Y110330D01*
X-55000Y110000D01*
X-54000Y110330D01*
X-53250Y111170D01*
X-52750Y112170D01*
X-52370Y113500D01*
X-52250Y115000D01*
X-52370Y116500D01*
X-52750Y117830D01*
X-53250Y118830D01*
X-54000Y119670D01*
X-55000Y120000D01*
G01X-45000Y110000D02*
X-44130Y110170D01*
X-43130Y110670D01*
X-42500Y111500D01*
X-42250Y112670D01*
X-42500Y113830D01*
X-43250Y114830D01*
X-44380Y115330D01*
X-45620D01*
X-46380Y115670D01*
X-47000Y116500D01*
X-47250Y117670D01*
X-46870Y118830D01*
X-46000Y119670D01*
X-45000Y120000D01*
X-44000Y119670D01*
X-43130Y118830D01*
X-42750Y117670D01*
X-43000Y116500D01*
X-43620Y115670D01*
X-44380Y115330D01*
X-45620D01*
X-46750Y114830D01*
X-47500Y113830D01*
X-47750Y112670D01*
X-47500Y111500D01*
X-46870Y110670D01*
X-45870Y110170D01*
X-45000Y110000D01*
G01X-36620Y113330D02*
X-33380D01*
G01X33380D02*
X36620D01*
G01X45000Y120000D02*
X44000Y119670D01*
X43250Y118830D01*
X42750Y117830D01*
X42370Y116500D01*
X42250Y115000D01*
X42370Y113500D01*
X42750Y112170D01*
X43250Y111170D01*
X44000Y110330D01*
X45000Y110000D01*
X46000Y110330D01*
X46750Y111170D01*
X47250Y112170D01*
X47630Y113500D01*
X47750Y115000D01*
X47630Y116500D01*
X47250Y117830D01*
X46750Y118830D01*
X46000Y119670D01*
X45000Y120000D01*
G01X52620Y118330D02*
X53380Y119330D01*
X54250Y119830D01*
X55250Y120000D01*
X56500Y119670D01*
X57380Y118830D01*
X57630Y117830D01*
X57500Y116830D01*
X57000Y116000D01*
X54500Y114330D01*
X53380Y113170D01*
X52620Y111500D01*
X52370Y110000D01*
X57630D01*
G01X-57500Y140000D02*
Y130000D01*
X-52500D01*
G01X-47380Y138330D02*
X-46620Y139330D01*
X-45750Y139830D01*
X-44750Y140000D01*
X-43500Y139670D01*
X-42620Y138830D01*
X-42370Y137830D01*
X-42500Y136830D01*
X-43000Y136000D01*
X-45500Y134330D01*
X-46620Y133170D01*
X-47380Y131500D01*
X-47630Y130000D01*
X-42370D01*
G01X-27630Y131330D02*
X-26620Y130500D01*
X-25500Y130000D01*
X-24500D01*
X-23500Y130500D01*
X-22750Y131330D01*
X-22370Y132500D01*
X-22620Y133670D01*
X-23250Y134670D01*
X-24380Y135330D01*
X-25870Y135670D01*
X-26750Y136330D01*
X-27130Y137500D01*
X-26870Y138670D01*
X-26250Y139500D01*
X-25380Y140000D01*
X-24500D01*
X-23620Y139670D01*
X-22870Y138830D01*
G01X-12500Y130000D02*
X-17500D01*
Y140000D01*
X-12500D01*
G01X-14500Y135170D02*
X-17500D01*
G01X-2250Y139170D02*
X-3000Y139670D01*
X-3870Y140000D01*
X-4870D01*
X-6000Y139500D01*
X-6870Y138670D01*
X-7500Y137670D01*
X-8000Y136000D01*
X-8130Y134500D01*
X-7870Y133000D01*
X-7500Y132000D01*
X-6750Y131000D01*
X-5870Y130330D01*
X-5000Y130000D01*
X-4130D01*
X-3250Y130330D01*
X-2500Y130830D01*
X-1870Y131500D01*
G01X5000Y130000D02*
X4000Y130170D01*
X3130Y130830D01*
X2370Y131830D01*
X1870Y133000D01*
X1620Y134330D01*
Y135670D01*
X1870Y137000D01*
X2370Y138170D01*
X3130Y139170D01*
X4000Y139830D01*
X5000Y140000D01*
X6000Y139830D01*
X6870Y139170D01*
X7630Y138170D01*
X8130Y137000D01*
X8380Y135670D01*
Y134330D01*
X8130Y133000D01*
X7630Y131830D01*
X6870Y130830D01*
X6000Y130170D01*
X5000Y130000D01*
G01X12130D02*
Y140000D01*
X17870Y130000D01*
Y140000D01*
G01X22250Y130000D02*
Y140000D01*
X24750D01*
X25750Y139500D01*
X26500Y138830D01*
X27130Y137830D01*
X27630Y136670D01*
X27750Y135000D01*
X27630Y133330D01*
X27130Y132170D01*
X26500Y131170D01*
X25750Y130500D01*
X24750Y130000D01*
X22250D01*
G01X31870D02*
X35000Y140000D01*
X38130Y130000D01*
G01X37000Y133500D02*
X33000D01*
G01X42500Y130000D02*
Y140000D01*
X45620D01*
X46620Y139500D01*
X47250Y138830D01*
X47500Y137500D01*
X47250Y136170D01*
X46500Y135330D01*
X45620Y134830D01*
X42500D01*
G01X45620D02*
X47500Y130000D01*
G01X55000D02*
Y134500D01*
X52500Y140000D01*
G01X57500D02*
X55000Y134500D01*
G01X-22500Y90000D02*
Y100000D01*
X-19380D01*
X-18380Y99500D01*
X-17750Y98830D01*
X-17500Y97500D01*
X-17750Y96170D01*
X-18500Y95330D01*
X-19380Y94830D01*
X-22500D01*
G01X-19380D02*
X-17500Y90000D01*
G01X-7500D02*
X-12500D01*
Y100000D01*
X-7500D01*
G01X-9500Y95170D02*
X-12500D01*
G01X-3130Y100000D02*
X0Y90000D01*
X3130Y100000D01*
G01X21000Y95330D02*
X21500Y95830D01*
X21870Y96670D01*
X22130Y97830D01*
X21870Y98830D01*
X21380Y99500D01*
X20500Y100000D01*
X17130D01*
Y90000D01*
X21250D01*
X22130Y90670D01*
X22630Y91670D01*
X22870Y92830D01*
X22630Y94000D01*
X21870Y95000D01*
X21000Y95330D01*
X17130D01*
G01X-25000Y120000D02*
X-26000Y119670D01*
X-26750Y118830D01*
X-27250Y117830D01*
X-27630Y116500D01*
X-27750Y115000D01*
X-27630Y113500D01*
X-27250Y112170D01*
X-26750Y111170D01*
X-26000Y110330D01*
X-25000Y110000D01*
X-24000Y110330D01*
X-23250Y111170D01*
X-22750Y112170D01*
X-22370Y113500D01*
X-22250Y115000D01*
X-22370Y116500D01*
X-22750Y117830D01*
X-23250Y118830D01*
X-24000Y119670D01*
X-25000Y120000D01*
G01X-17750Y112000D02*
X-17000Y110830D01*
X-16000Y110170D01*
X-14870Y110000D01*
X-13870Y110170D01*
X-12870Y111000D01*
X-12250Y112000D01*
X-12130Y113000D01*
X-12370Y114170D01*
X-13250Y115000D01*
X-14130Y115330D01*
X-15250D01*
G01X-14130D02*
X-13380Y115830D01*
X-12750Y116670D01*
X-12500Y117670D01*
X-12750Y118670D01*
X-13380Y119500D01*
X-14500Y120000D01*
X-15620Y119830D01*
X-16750Y119170D01*
G01X-3500Y110000D02*
Y120000D01*
X-8130Y112830D01*
X-1870D01*
G01X2870Y111170D02*
X3750Y110330D01*
X4750Y110000D01*
X5750Y110330D01*
X6620Y111330D01*
X7250Y112830D01*
X7500Y114330D01*
Y116170D01*
X7250Y117670D01*
X6620Y119000D01*
X5870Y119670D01*
X5000Y120000D01*
X4000Y119670D01*
X3250Y119000D01*
X2750Y118000D01*
X2500Y116670D01*
X2750Y115500D01*
X3380Y114330D01*
X4130Y113670D01*
X5000Y113500D01*
X6000Y113830D01*
X6750Y114670D01*
X7500Y116170D01*
G01X15000Y120000D02*
X14000Y119670D01*
X13250Y118830D01*
X12750Y117830D01*
X12370Y116500D01*
X12250Y115000D01*
X12370Y113500D01*
X12750Y112170D01*
X13250Y111170D01*
X14000Y110330D01*
X15000Y110000D01*
X16000Y110330D01*
X16750Y111170D01*
X17250Y112170D01*
X17630Y113500D01*
X17750Y115000D01*
X17630Y116500D01*
X17250Y117830D01*
X16750Y118830D01*
X16000Y119670D01*
X15000Y120000D01*
G01X25000Y110000D02*
Y120000D01*
X23500Y118000D01*
G01Y110000D02*
X26500D01*
M02*
