G04 ================== begin FILE IDENTIFICATION RECORD ==================*
G04 Layout Name:  C:/tmp/20_034901b/worklib/02_034901b_top/physical/08_034901b.brd*
G04 Film Name:    mask_sec*
G04 File Format:  Gerber RS274X*
G04 File Origin:  Cadence Allegro 16.5-S031*
G04 Origin Date:  Fri Mar 21 04:56:11 2014*
G04 *
G04 Layer:  VIA CLASS/SOLDERMASK_BOTTOM*
G04 Layer:  PIN/SOLDERMASK_BOTTOM*
G04 Layer:  PACKAGE GEOMETRY/SOLDERMASK_BOTTOM*
G04 Layer:  BOARD GEOMETRY/TOOLING_CORNERS*
G04 Layer:  BOARD GEOMETRY/SOLDERMASK_BOTTOM*
G04 Layer:  BOARD GEOMETRY/ROOT_NUMBER*
G04 *
G04 Offset:    (0.0 0.0)*
G04 Mirror:    No*
G04 Mode:      Positive*
G04 Rotation:  0*
G04 FullContactRelief:  No*
G04 UndefLineWidth:     8.0*
G04 ================== end FILE IDENTIFICATION RECORD ====================*
%FSLAX55Y55*MOIN*%
%IR0*IPPOS*OFA0.00000B0.00000*MIA0B0*SFA1.00000B1.00000*%
%ADD10C,.145*%
%ADD12C,.07*%
%ADD11C,.08*%
%ADD13C,.065*%
%ADD16R,.017X.057*%
%ADD15R,.068X.084*%
%ADD14R,.065X.065*%
%ADD17C,.05*%
%ADD18C,.008*%
G75*
%LPD*%
G75*
G54D10*
X-40000Y-50000D03*
X40000D03*
G54D11*
X-40000Y-35000D03*
X40000D03*
Y50000D03*
G54D12*
X-30000Y-13000D03*
X-31500Y9000D03*
X-15000Y-25000D03*
X9000D03*
X28000Y-12000D03*
Y10000D03*
G54D13*
X2500Y12500D03*
X-7500Y2500D03*
Y-7500D03*
X2500D03*
Y2500D03*
G54D14*
X-7500Y12500D03*
G54D15*
X-25500Y38000D03*
X-14500D03*
G54D16*
X-3840Y28440D03*
X-1280D03*
X1280D03*
Y46560D03*
X-3840D03*
X-1280D03*
X3840Y28440D03*
Y46560D03*
G54D17*
G01X-62500Y-62500D02*
X-27500D01*
G01X-62500Y62500D02*
X-27500D01*
G01X-52500Y-72500D02*
Y-37500D01*
G01Y72500D02*
Y37500D01*
G01X62500Y-62500D02*
X27500D01*
G01X62500Y62500D02*
X27500D01*
G01X52500Y-72500D02*
Y-37500D01*
G01Y72500D02*
Y37500D01*
G54D18*
G01X-97630Y131330D02*
X-96620Y130500D01*
X-95500Y130000D01*
X-94500D01*
X-93500Y130500D01*
X-92750Y131330D01*
X-92370Y132500D01*
X-92620Y133670D01*
X-93250Y134670D01*
X-94380Y135330D01*
X-95870Y135670D01*
X-96750Y136330D01*
X-97130Y137500D01*
X-96870Y138670D01*
X-96250Y139500D01*
X-95380Y140000D01*
X-94500D01*
X-93620Y139670D01*
X-92870Y138830D01*
G01X-85000Y130000D02*
X-86000Y130170D01*
X-86870Y130830D01*
X-87630Y131830D01*
X-88130Y133000D01*
X-88380Y134330D01*
Y135670D01*
X-88130Y137000D01*
X-87630Y138170D01*
X-86870Y139170D01*
X-86000Y139830D01*
X-85000Y140000D01*
X-84000Y139830D01*
X-83130Y139170D01*
X-82370Y138170D01*
X-81870Y137000D01*
X-81620Y135670D01*
Y134330D01*
X-81870Y133000D01*
X-82370Y131830D01*
X-83130Y130830D01*
X-84000Y130170D01*
X-85000Y130000D01*
G01X-77500Y140000D02*
Y130000D01*
X-72500D01*
G01X-67750D02*
Y140000D01*
X-65250D01*
X-64250Y139500D01*
X-63500Y138830D01*
X-62870Y137830D01*
X-62370Y136670D01*
X-62250Y135000D01*
X-62370Y133330D01*
X-62870Y132170D01*
X-63500Y131170D01*
X-64250Y130500D01*
X-65250Y130000D01*
X-67750D01*
G01X-52500D02*
X-57500D01*
Y140000D01*
X-52500D01*
G01X-54500Y135170D02*
X-57500D01*
G01X-47500Y130000D02*
Y140000D01*
X-44380D01*
X-43380Y139500D01*
X-42750Y138830D01*
X-42500Y137500D01*
X-42750Y136170D01*
X-43500Y135330D01*
X-44380Y134830D01*
X-47500D01*
G01X-44380D02*
X-42500Y130000D01*
G01X-38250D02*
Y140000D01*
X-35000Y131670D01*
X-31750Y140000D01*
Y130000D01*
G01X-28130D02*
X-25000Y140000D01*
X-21870Y130000D01*
G01X-23000Y133500D02*
X-27000D01*
G01X-17630Y131330D02*
X-16620Y130500D01*
X-15500Y130000D01*
X-14500D01*
X-13500Y130500D01*
X-12750Y131330D01*
X-12370Y132500D01*
X-12620Y133670D01*
X-13250Y134670D01*
X-14380Y135330D01*
X-15870Y135670D01*
X-16750Y136330D01*
X-17130Y137500D01*
X-16870Y138670D01*
X-16250Y139500D01*
X-15380Y140000D01*
X-14500D01*
X-13620Y139670D01*
X-12870Y138830D01*
G01X-7750Y130000D02*
Y140000D01*
G01X-3000D02*
X-7750Y133830D01*
G01X-2250Y130000D02*
X-5620Y136670D01*
G01X12370Y131330D02*
X13380Y130500D01*
X14500Y130000D01*
X15500D01*
X16500Y130500D01*
X17250Y131330D01*
X17630Y132500D01*
X17380Y133670D01*
X16750Y134670D01*
X15620Y135330D01*
X14130Y135670D01*
X13250Y136330D01*
X12870Y137500D01*
X13130Y138670D01*
X13750Y139500D01*
X14620Y140000D01*
X15500D01*
X16380Y139670D01*
X17130Y138830D01*
G01X27500Y130000D02*
X22500D01*
Y140000D01*
X27500D01*
G01X25500Y135170D02*
X22500D01*
G01X37750Y139170D02*
X37000Y139670D01*
X36130Y140000D01*
X35130D01*
X34000Y139500D01*
X33130Y138670D01*
X32500Y137670D01*
X32000Y136000D01*
X31870Y134500D01*
X32130Y133000D01*
X32500Y132000D01*
X33250Y131000D01*
X34130Y130330D01*
X35000Y130000D01*
X35870D01*
X36750Y130330D01*
X37500Y130830D01*
X38130Y131500D01*
G01X45000Y130000D02*
X44000Y130170D01*
X43130Y130830D01*
X42370Y131830D01*
X41870Y133000D01*
X41620Y134330D01*
Y135670D01*
X41870Y137000D01*
X42370Y138170D01*
X43130Y139170D01*
X44000Y139830D01*
X45000Y140000D01*
X46000Y139830D01*
X46870Y139170D01*
X47630Y138170D01*
X48130Y137000D01*
X48380Y135670D01*
Y134330D01*
X48130Y133000D01*
X47630Y131830D01*
X46870Y130830D01*
X46000Y130170D01*
X45000Y130000D01*
G01X52130D02*
Y140000D01*
X57870Y130000D01*
Y140000D01*
G01X62250Y130000D02*
Y140000D01*
X64750D01*
X65750Y139500D01*
X66500Y138830D01*
X67130Y137830D01*
X67630Y136670D01*
X67750Y135000D01*
X67630Y133330D01*
X67130Y132170D01*
X66500Y131170D01*
X65750Y130500D01*
X64750Y130000D01*
X62250D01*
G01X71870D02*
X75000Y140000D01*
X78130Y130000D01*
G01X77000Y133500D02*
X73000D01*
G01X82500Y130000D02*
Y140000D01*
X85620D01*
X86620Y139500D01*
X87250Y138830D01*
X87500Y137500D01*
X87250Y136170D01*
X86500Y135330D01*
X85620Y134830D01*
X82500D01*
G01X85620D02*
X87500Y130000D01*
G01X95000D02*
Y134500D01*
X92500Y140000D01*
G01X97500D02*
X95000Y134500D01*
G01X-55000Y120000D02*
X-56000Y119670D01*
X-56750Y118830D01*
X-57250Y117830D01*
X-57630Y116500D01*
X-57750Y115000D01*
X-57630Y113500D01*
X-57250Y112170D01*
X-56750Y111170D01*
X-56000Y110330D01*
X-55000Y110000D01*
X-54000Y110330D01*
X-53250Y111170D01*
X-52750Y112170D01*
X-52370Y113500D01*
X-52250Y115000D01*
X-52370Y116500D01*
X-52750Y117830D01*
X-53250Y118830D01*
X-54000Y119670D01*
X-55000Y120000D01*
G01X-45000Y110000D02*
X-44130Y110170D01*
X-43130Y110670D01*
X-42500Y111500D01*
X-42250Y112670D01*
X-42500Y113830D01*
X-43250Y114830D01*
X-44380Y115330D01*
X-45620D01*
X-46380Y115670D01*
X-47000Y116500D01*
X-47250Y117670D01*
X-46870Y118830D01*
X-46000Y119670D01*
X-45000Y120000D01*
X-44000Y119670D01*
X-43130Y118830D01*
X-42750Y117670D01*
X-43000Y116500D01*
X-43620Y115670D01*
X-44380Y115330D01*
X-45620D01*
X-46750Y114830D01*
X-47500Y113830D01*
X-47750Y112670D01*
X-47500Y111500D01*
X-46870Y110670D01*
X-45870Y110170D01*
X-45000Y110000D01*
G01X-36620Y113330D02*
X-33380D01*
G01X33380D02*
X36620D01*
G01X45000Y120000D02*
X44000Y119670D01*
X43250Y118830D01*
X42750Y117830D01*
X42370Y116500D01*
X42250Y115000D01*
X42370Y113500D01*
X42750Y112170D01*
X43250Y111170D01*
X44000Y110330D01*
X45000Y110000D01*
X46000Y110330D01*
X46750Y111170D01*
X47250Y112170D01*
X47630Y113500D01*
X47750Y115000D01*
X47630Y116500D01*
X47250Y117830D01*
X46750Y118830D01*
X46000Y119670D01*
X45000Y120000D01*
G01X52620Y114170D02*
X53500Y115330D01*
X54250Y116000D01*
X55250Y116330D01*
X56130Y116000D01*
X56750Y115330D01*
X57250Y114330D01*
X57380Y113170D01*
X57250Y112170D01*
X56750Y111170D01*
X56000Y110330D01*
X55130Y110000D01*
X54130Y110330D01*
X53250Y111330D01*
X52750Y112830D01*
X52620Y114500D01*
X52870Y116670D01*
X53250Y117830D01*
X53870Y119000D01*
X54750Y119830D01*
X55620Y120000D01*
X56500Y119670D01*
X57130Y118830D01*
G01X-22500Y90000D02*
Y100000D01*
X-19380D01*
X-18380Y99500D01*
X-17750Y98830D01*
X-17500Y97500D01*
X-17750Y96170D01*
X-18500Y95330D01*
X-19380Y94830D01*
X-22500D01*
G01X-19380D02*
X-17500Y90000D01*
G01X-7500D02*
X-12500D01*
Y100000D01*
X-7500D01*
G01X-9500Y95170D02*
X-12500D01*
G01X-3130Y100000D02*
X0Y90000D01*
X3130Y100000D01*
G01X21000Y95330D02*
X21500Y95830D01*
X21870Y96670D01*
X22130Y97830D01*
X21870Y98830D01*
X21380Y99500D01*
X20500Y100000D01*
X17130D01*
Y90000D01*
X21250D01*
X22130Y90670D01*
X22630Y91670D01*
X22870Y92830D01*
X22630Y94000D01*
X21870Y95000D01*
X21000Y95330D01*
X17130D01*
G01X-25000Y120000D02*
X-26000Y119670D01*
X-26750Y118830D01*
X-27250Y117830D01*
X-27630Y116500D01*
X-27750Y115000D01*
X-27630Y113500D01*
X-27250Y112170D01*
X-26750Y111170D01*
X-26000Y110330D01*
X-25000Y110000D01*
X-24000Y110330D01*
X-23250Y111170D01*
X-22750Y112170D01*
X-22370Y113500D01*
X-22250Y115000D01*
X-22370Y116500D01*
X-22750Y117830D01*
X-23250Y118830D01*
X-24000Y119670D01*
X-25000Y120000D01*
G01X-17750Y112000D02*
X-17000Y110830D01*
X-16000Y110170D01*
X-14870Y110000D01*
X-13870Y110170D01*
X-12870Y111000D01*
X-12250Y112000D01*
X-12130Y113000D01*
X-12370Y114170D01*
X-13250Y115000D01*
X-14130Y115330D01*
X-15250D01*
G01X-14130D02*
X-13380Y115830D01*
X-12750Y116670D01*
X-12500Y117670D01*
X-12750Y118670D01*
X-13380Y119500D01*
X-14500Y120000D01*
X-15620Y119830D01*
X-16750Y119170D01*
G01X-3500Y110000D02*
Y120000D01*
X-8130Y112830D01*
X-1870D01*
G01X2870Y111170D02*
X3750Y110330D01*
X4750Y110000D01*
X5750Y110330D01*
X6620Y111330D01*
X7250Y112830D01*
X7500Y114330D01*
Y116170D01*
X7250Y117670D01*
X6620Y119000D01*
X5870Y119670D01*
X5000Y120000D01*
X4000Y119670D01*
X3250Y119000D01*
X2750Y118000D01*
X2500Y116670D01*
X2750Y115500D01*
X3380Y114330D01*
X4130Y113670D01*
X5000Y113500D01*
X6000Y113830D01*
X6750Y114670D01*
X7500Y116170D01*
G01X15000Y120000D02*
X14000Y119670D01*
X13250Y118830D01*
X12750Y117830D01*
X12370Y116500D01*
X12250Y115000D01*
X12370Y113500D01*
X12750Y112170D01*
X13250Y111170D01*
X14000Y110330D01*
X15000Y110000D01*
X16000Y110330D01*
X16750Y111170D01*
X17250Y112170D01*
X17630Y113500D01*
X17750Y115000D01*
X17630Y116500D01*
X17250Y117830D01*
X16750Y118830D01*
X16000Y119670D01*
X15000Y120000D01*
G01X25000Y110000D02*
Y120000D01*
X23500Y118000D01*
G01Y110000D02*
X26500D01*
M02*
