G04 ================== begin FILE IDENTIFICATION RECORD ==================*
G04 Layout Name:  C:/tmp/20_034901b/worklib/02_034901b_top/physical/08_034901b.brd*
G04 Film Name:    paste_prm*
G04 File Format:  Gerber RS274X*
G04 File Origin:  Cadence Allegro 16.5-S031*
G04 Origin Date:  Fri Mar 21 04:56:11 2014*
G04 *
G04 Layer:  VIA CLASS/PASTEMASK_TOP*
G04 Layer:  PIN/PASTEMASK_TOP*
G04 Layer:  PACKAGE GEOMETRY/PASTEMASK_TOP*
G04 Layer:  BOARD GEOMETRY/TOOLING_CORNERS*
G04 Layer:  BOARD GEOMETRY/PASTEMASK_TOP*
G04 Layer:  BOARD GEOMETRY/ROOT_NUMBER*
G04 *
G04 Offset:    (0.0 0.0)*
G04 Mirror:    No*
G04 Mode:      Positive*
G04 Rotation:  0*
G04 FullContactRelief:  No*
G04 UndefLineWidth:     8.0*
G04 ================== end FILE IDENTIFICATION RECORD ====================*
%FSLAX55Y55*MOIN*%
%IR0*IPPOS*OFA0.00000B0.00000*MIA0B0*SFA1.00000B1.00000*%
%ADD10C,.04*%
%ADD11R,.047X.043*%
%ADD12R,.043X.047*%
%ADD14R,.086X.024*%
%ADD13R,.063X.079*%
%ADD15C,.008*%
%ADD16C,.05*%
G75*
%LPD*%
G75*
G54D10*
X-40000Y-35000D03*
X40000D03*
Y50000D03*
G54D11*
X-28500Y29650D03*
Y36350D03*
X-36500D03*
Y29650D03*
X-18500Y8150D03*
Y14850D03*
X-14000Y43650D03*
Y50350D03*
X500Y46150D03*
Y52850D03*
X31000Y41350D03*
Y34650D03*
G54D12*
X-28850Y55000D03*
X-20350Y36000D03*
X-13650D03*
X-22150Y55000D03*
X14850Y54500D03*
X8150D03*
X14850Y46500D03*
X8150D03*
G54D13*
X-34000Y45500D03*
X-23000D03*
G54D14*
X0Y23500D03*
Y28500D03*
Y33500D03*
Y38500D03*
X20000Y23500D03*
Y28500D03*
Y33500D03*
Y38500D03*
G54D15*
G01X-82500Y130000D02*
Y140000D01*
X-79500D01*
X-78500Y139500D01*
X-77750Y138330D01*
X-77500Y137000D01*
X-77750Y135670D01*
X-78380Y134670D01*
X-79500Y134170D01*
X-82500D01*
G01X-73130Y130000D02*
X-70000Y140000D01*
X-66870Y130000D01*
G01X-68000Y133500D02*
X-72000D01*
G01X-62630Y131330D02*
X-61620Y130500D01*
X-60500Y130000D01*
X-59500D01*
X-58500Y130500D01*
X-57750Y131330D01*
X-57370Y132500D01*
X-57620Y133670D01*
X-58250Y134670D01*
X-59380Y135330D01*
X-60870Y135670D01*
X-61750Y136330D01*
X-62130Y137500D01*
X-61870Y138670D01*
X-61250Y139500D01*
X-60380Y140000D01*
X-59500D01*
X-58620Y139670D01*
X-57870Y138830D01*
G01X-50000Y140000D02*
Y130000D01*
G01X-52870Y140000D02*
X-47130D01*
G01X-37500Y130000D02*
X-42500D01*
Y140000D01*
X-37500D01*
G01X-39500Y135170D02*
X-42500D01*
G01X-33250Y130000D02*
Y140000D01*
X-30000Y131670D01*
X-26750Y140000D01*
Y130000D01*
G01X-23130D02*
X-20000Y140000D01*
X-16870Y130000D01*
G01X-18000Y133500D02*
X-22000D01*
G01X-12630Y131330D02*
X-11620Y130500D01*
X-10500Y130000D01*
X-9500D01*
X-8500Y130500D01*
X-7750Y131330D01*
X-7370Y132500D01*
X-7620Y133670D01*
X-8250Y134670D01*
X-9380Y135330D01*
X-10870Y135670D01*
X-11750Y136330D01*
X-12130Y137500D01*
X-11870Y138670D01*
X-11250Y139500D01*
X-10380Y140000D01*
X-9500D01*
X-8620Y139670D01*
X-7870Y138830D01*
G01X-2750Y130000D02*
Y140000D01*
G01X2000D02*
X-2750Y133830D01*
G01X2750Y130000D02*
X-620Y136670D01*
G01X17500Y130000D02*
Y140000D01*
X20500D01*
X21500Y139500D01*
X22250Y138330D01*
X22500Y137000D01*
X22250Y135670D01*
X21620Y134670D01*
X20500Y134170D01*
X17500D01*
G01X27500Y130000D02*
Y140000D01*
X30620D01*
X31620Y139500D01*
X32250Y138830D01*
X32500Y137500D01*
X32250Y136170D01*
X31500Y135330D01*
X30620Y134830D01*
X27500D01*
G01X30620D02*
X32500Y130000D01*
G01X38500Y140000D02*
X41500D01*
G01X40000D02*
Y130000D01*
G01X38500D02*
X41500D01*
G01X46750D02*
Y140000D01*
X50000Y131670D01*
X53250Y140000D01*
Y130000D01*
G01X56870D02*
X60000Y140000D01*
X63130Y130000D01*
G01X62000Y133500D02*
X58000D01*
G01X67500Y130000D02*
Y140000D01*
X70620D01*
X71620Y139500D01*
X72250Y138830D01*
X72500Y137500D01*
X72250Y136170D01*
X71500Y135330D01*
X70620Y134830D01*
X67500D01*
G01X70620D02*
X72500Y130000D01*
G01X80000D02*
Y134500D01*
X77500Y140000D01*
G01X82500D02*
X80000Y134500D01*
G01X-55000Y120000D02*
X-56000Y119670D01*
X-56750Y118830D01*
X-57250Y117830D01*
X-57630Y116500D01*
X-57750Y115000D01*
X-57630Y113500D01*
X-57250Y112170D01*
X-56750Y111170D01*
X-56000Y110330D01*
X-55000Y110000D01*
X-54000Y110330D01*
X-53250Y111170D01*
X-52750Y112170D01*
X-52370Y113500D01*
X-52250Y115000D01*
X-52370Y116500D01*
X-52750Y117830D01*
X-53250Y118830D01*
X-54000Y119670D01*
X-55000Y120000D01*
G01X-45000Y110000D02*
X-44130Y110170D01*
X-43130Y110670D01*
X-42500Y111500D01*
X-42250Y112670D01*
X-42500Y113830D01*
X-43250Y114830D01*
X-44380Y115330D01*
X-45620D01*
X-46380Y115670D01*
X-47000Y116500D01*
X-47250Y117670D01*
X-46870Y118830D01*
X-46000Y119670D01*
X-45000Y120000D01*
X-44000Y119670D01*
X-43130Y118830D01*
X-42750Y117670D01*
X-43000Y116500D01*
X-43620Y115670D01*
X-44380Y115330D01*
X-45620D01*
X-46750Y114830D01*
X-47500Y113830D01*
X-47750Y112670D01*
X-47500Y111500D01*
X-46870Y110670D01*
X-45870Y110170D01*
X-45000Y110000D01*
G01X-36620Y113330D02*
X-33380D01*
G01X33380D02*
X36620D01*
G01X45000Y120000D02*
X44000Y119670D01*
X43250Y118830D01*
X42750Y117830D01*
X42370Y116500D01*
X42250Y115000D01*
X42370Y113500D01*
X42750Y112170D01*
X43250Y111170D01*
X44000Y110330D01*
X45000Y110000D01*
X46000Y110330D01*
X46750Y111170D01*
X47250Y112170D01*
X47630Y113500D01*
X47750Y115000D01*
X47630Y116500D01*
X47250Y117830D01*
X46750Y118830D01*
X46000Y119670D01*
X45000Y120000D01*
G01X54750Y110000D02*
X55000Y112170D01*
X55380Y114000D01*
X55870Y115670D01*
X56500Y117500D01*
X57500Y120000D01*
X52500D01*
G01X-22500Y90000D02*
Y100000D01*
X-19380D01*
X-18380Y99500D01*
X-17750Y98830D01*
X-17500Y97500D01*
X-17750Y96170D01*
X-18500Y95330D01*
X-19380Y94830D01*
X-22500D01*
G01X-19380D02*
X-17500Y90000D01*
G01X-7500D02*
X-12500D01*
Y100000D01*
X-7500D01*
G01X-9500Y95170D02*
X-12500D01*
G01X-3130Y100000D02*
X0Y90000D01*
X3130Y100000D01*
G01X21000Y95330D02*
X21500Y95830D01*
X21870Y96670D01*
X22130Y97830D01*
X21870Y98830D01*
X21380Y99500D01*
X20500Y100000D01*
X17130D01*
Y90000D01*
X21250D01*
X22130Y90670D01*
X22630Y91670D01*
X22870Y92830D01*
X22630Y94000D01*
X21870Y95000D01*
X21000Y95330D01*
X17130D01*
G01X-25000Y120000D02*
X-26000Y119670D01*
X-26750Y118830D01*
X-27250Y117830D01*
X-27630Y116500D01*
X-27750Y115000D01*
X-27630Y113500D01*
X-27250Y112170D01*
X-26750Y111170D01*
X-26000Y110330D01*
X-25000Y110000D01*
X-24000Y110330D01*
X-23250Y111170D01*
X-22750Y112170D01*
X-22370Y113500D01*
X-22250Y115000D01*
X-22370Y116500D01*
X-22750Y117830D01*
X-23250Y118830D01*
X-24000Y119670D01*
X-25000Y120000D01*
G01X-17750Y112000D02*
X-17000Y110830D01*
X-16000Y110170D01*
X-14870Y110000D01*
X-13870Y110170D01*
X-12870Y111000D01*
X-12250Y112000D01*
X-12130Y113000D01*
X-12370Y114170D01*
X-13250Y115000D01*
X-14130Y115330D01*
X-15250D01*
G01X-14130D02*
X-13380Y115830D01*
X-12750Y116670D01*
X-12500Y117670D01*
X-12750Y118670D01*
X-13380Y119500D01*
X-14500Y120000D01*
X-15620Y119830D01*
X-16750Y119170D01*
G01X-3500Y110000D02*
Y120000D01*
X-8130Y112830D01*
X-1870D01*
G01X2870Y111170D02*
X3750Y110330D01*
X4750Y110000D01*
X5750Y110330D01*
X6620Y111330D01*
X7250Y112830D01*
X7500Y114330D01*
Y116170D01*
X7250Y117670D01*
X6620Y119000D01*
X5870Y119670D01*
X5000Y120000D01*
X4000Y119670D01*
X3250Y119000D01*
X2750Y118000D01*
X2500Y116670D01*
X2750Y115500D01*
X3380Y114330D01*
X4130Y113670D01*
X5000Y113500D01*
X6000Y113830D01*
X6750Y114670D01*
X7500Y116170D01*
G01X15000Y120000D02*
X14000Y119670D01*
X13250Y118830D01*
X12750Y117830D01*
X12370Y116500D01*
X12250Y115000D01*
X12370Y113500D01*
X12750Y112170D01*
X13250Y111170D01*
X14000Y110330D01*
X15000Y110000D01*
X16000Y110330D01*
X16750Y111170D01*
X17250Y112170D01*
X17630Y113500D01*
X17750Y115000D01*
X17630Y116500D01*
X17250Y117830D01*
X16750Y118830D01*
X16000Y119670D01*
X15000Y120000D01*
G01X25000Y110000D02*
Y120000D01*
X23500Y118000D01*
G01Y110000D02*
X26500D01*
G54D16*
G01X-62500Y-62500D02*
X-27500D01*
G01X-62500Y62500D02*
X-27500D01*
G01X-52500Y-72500D02*
Y-37500D01*
G01Y72500D02*
Y37500D01*
G01X62500Y-62500D02*
X27500D01*
G01X62500Y62500D02*
X27500D01*
G01X52500Y-72500D02*
Y-37500D01*
G01Y72500D02*
Y37500D01*
M02*
