G04 ================== begin FILE IDENTIFICATION RECORD ==================*
G04 Layout Name:  C:/tmp/20_034901b/worklib/02_034901b_top/physical/08_034901b.brd*
G04 Film Name:    silk_prm*
G04 File Format:  Gerber RS274X*
G04 File Origin:  Cadence Allegro 16.5-S031*
G04 Origin Date:  Fri Mar 21 04:56:11 2014*
G04 *
G04 Layer:  REF DES/SILKSCREEN_TOP*
G04 Layer:  PACKAGE GEOMETRY/SILKSCREEN_TOP*
G04 Layer:  BOARD GEOMETRY/TOOLING_CORNERS*
G04 Layer:  BOARD GEOMETRY/SILKSCREEN_TOP*
G04 Layer:  BOARD GEOMETRY/ROOT_NUMBER*
G04 *
G04 Offset:    (0.0 0.0)*
G04 Mirror:    No*
G04 Mode:      Positive*
G04 Rotation:  0*
G04 FullContactRelief:  No*
G04 UndefLineWidth:     8.0*
G04 ================== end FILE IDENTIFICATION RECORD ====================*
%FSLAX55Y55*MOIN*%
%IR0*IPPOS*OFA0.00000B0.00000*MIA0B0*SFA1.00000B1.00000*%
%ADD10C,.005*%
%ADD11C,.006*%
%ADD12C,.008*%
%ADD13C,.05*%
G75*
%LPD*%
G75*
G36*
G01X-22500Y-42500D02*
X-12500D01*
Y-32500D01*
X-22500D01*
Y-42500D01*
G37*
G36*
G01X500Y41700D02*
G02I-1500J0D01*
G37*
%LPC*%
G75*
G36*
G01X-20500Y-33900D02*
X-14100Y-37500D01*
X-20500Y-40900D01*
Y-33900D01*
G37*
%LPD*%
G75*
G54D10*
G01X-38500Y-31000D02*
G03X-41510I-1505J-3999D01*
G01X-41500Y-39000D02*
G03X-38480Y-38990I1497J4000D01*
G01X-36000Y-33500D02*
G02X-35870Y-36090I-4000J-1499D01*
G01X-44000Y-33500D02*
G03Y-36490I4001J-1495D01*
G01X36000Y-33500D02*
G03Y-36490I4001J-1495D01*
G01X44000Y-33500D02*
G02X44130Y-36090I-4000J-1499D01*
G01X38500Y-39000D02*
G03X41520Y-38990I1497J4000D01*
G01X41500Y-31000D02*
G03X38490I-1505J-3999D01*
G01X36000Y51500D02*
G03Y48510I4001J-1495D01*
G01X44000Y51500D02*
G02X44130Y48910I-4000J-1499D01*
G01X38500Y46000D02*
G03X41520Y46010I1497J4000D01*
G01X41500Y54000D02*
G03X38490I-1505J-3999D01*
G54D11*
G01X-29100Y-55370D02*
X-28900Y-55170D01*
X-28750Y-54830D01*
X-28650Y-54370D01*
X-28750Y-53970D01*
X-28950Y-53700D01*
X-29300Y-53500D01*
X-30650D01*
Y-57500D01*
X-29000D01*
X-28650Y-57230D01*
X-28450Y-56830D01*
X-28350Y-56370D01*
X-28450Y-55900D01*
X-28750Y-55500D01*
X-29100Y-55370D01*
X-30650D01*
G01X-25000Y-57500D02*
Y-54830D01*
G01Y-55300D02*
X-25200Y-55030D01*
X-25500Y-54900D01*
X-25850Y-54830D01*
X-26200Y-54970D01*
X-26500Y-55230D01*
X-26700Y-55630D01*
X-26800Y-56170D01*
X-26700Y-56700D01*
X-26500Y-57100D01*
X-26200Y-57370D01*
X-25850Y-57500D01*
X-25500Y-57430D01*
X-25200Y-57230D01*
X-25000Y-56970D01*
G01X-23150Y-57500D02*
Y-54830D01*
G01Y-55500D02*
X-22950Y-55170D01*
X-22650Y-54900D01*
X-22250Y-54830D01*
X-21900Y-54900D01*
X-21600Y-55170D01*
X-21450Y-55630D01*
Y-57500D01*
G01X-17800Y-53500D02*
Y-57500D01*
G01Y-56900D02*
X-18000Y-57230D01*
X-18300Y-57430D01*
X-18650Y-57500D01*
X-19050Y-57370D01*
X-19350Y-57030D01*
X-19550Y-56630D01*
X-19600Y-56170D01*
X-19550Y-55700D01*
X-19350Y-55300D01*
X-19050Y-54970D01*
X-18650Y-54830D01*
X-18300Y-54900D01*
X-18050Y-55030D01*
X-17800Y-55300D01*
G01X-15750Y-56170D02*
X-14450D01*
G01X-12500Y-57500D02*
Y-53500D01*
X-11300D01*
X-10900Y-53700D01*
X-10600Y-54170D01*
X-10500Y-54700D01*
X-10600Y-55230D01*
X-10850Y-55630D01*
X-11300Y-55830D01*
X-12500D01*
G01X-7000Y-57500D02*
Y-54830D01*
G01Y-55300D02*
X-7200Y-55030D01*
X-7500Y-54900D01*
X-7850Y-54830D01*
X-8200Y-54970D01*
X-8500Y-55230D01*
X-8700Y-55630D01*
X-8800Y-56170D01*
X-8700Y-56700D01*
X-8500Y-57100D01*
X-8200Y-57370D01*
X-7850Y-57500D01*
X-7500Y-57430D01*
X-7200Y-57230D01*
X-7000Y-56970D01*
G01X-5050Y-57030D02*
X-4800Y-57300D01*
X-4450Y-57500D01*
X-4150D01*
X-3850Y-57370D01*
X-3650Y-57170D01*
X-3550Y-56900D01*
X-3600Y-56500D01*
X-3800Y-56300D01*
X-4700Y-55900D01*
X-4900Y-55430D01*
X-4800Y-55100D01*
X-4600Y-54900D01*
X-4300Y-54830D01*
X-4000Y-54900D01*
X-3700Y-55100D01*
G01X-1450Y-57030D02*
X-1200Y-57300D01*
X-850Y-57500D01*
X-550D01*
X-250Y-57370D01*
X-50Y-57170D01*
X50Y-56900D01*
X0Y-56500D01*
X-200Y-56300D01*
X-1100Y-55900D01*
X-1300Y-55430D01*
X-1200Y-55100D01*
X-1000Y-54900D01*
X-700Y-54830D01*
X-400Y-54900D01*
X-100Y-55100D01*
G01X5400Y-57500D02*
Y-53500D01*
X6400D01*
X6800Y-53700D01*
X7100Y-53970D01*
X7350Y-54370D01*
X7550Y-54830D01*
X7600Y-55500D01*
X7550Y-56170D01*
X7350Y-56630D01*
X7100Y-57030D01*
X6800Y-57300D01*
X6400Y-57500D01*
X5400D01*
G01X9250Y-54830D02*
Y-56700D01*
X9450Y-57170D01*
X9750Y-57430D01*
X10100Y-57500D01*
X10450Y-57430D01*
X10750Y-57170D01*
X10950Y-56700D01*
G01Y-57500D02*
Y-54830D01*
G01X14600Y-57500D02*
Y-54830D01*
G01Y-55300D02*
X14400Y-55030D01*
X14100Y-54900D01*
X13750Y-54830D01*
X13400Y-54970D01*
X13100Y-55230D01*
X12900Y-55630D01*
X12800Y-56170D01*
X12900Y-56700D01*
X13100Y-57100D01*
X13400Y-57370D01*
X13750Y-57500D01*
X14100Y-57430D01*
X14400Y-57230D01*
X14600Y-56970D01*
G01X17300Y-57500D02*
Y-53500D01*
G01X23550D02*
X25450D01*
X23550Y-57500D01*
X25450D01*
G01X-35900Y-5000D02*
Y-1000D01*
X-34650D01*
X-34250Y-1200D01*
X-34000Y-1470D01*
X-33900Y-2000D01*
X-34000Y-2530D01*
X-34300Y-2870D01*
X-34650Y-3070D01*
X-35900D01*
G01X-34650D02*
X-33900Y-5000D01*
G01X-30300D02*
X-32300D01*
Y-1000D01*
X-30300D01*
G01X-31100Y-2930D02*
X-32300D01*
G01X-28650Y-5000D02*
Y-1000D01*
X-26750D01*
G01X-27450Y-2930D02*
X-28650D01*
G01X-24100Y-5000D02*
Y-1000D01*
X-24700Y-1800D01*
G01Y-5000D02*
X-23500D01*
G01X-45900Y10500D02*
X-44700D01*
G01X-45300D02*
Y6500D01*
G01X-45900D02*
X-44700D01*
G01X-42850D02*
Y10500D01*
X-40550Y6500D01*
Y10500D01*
G01X-26500Y20200D02*
X-30500D01*
Y21450D01*
X-30300Y21850D01*
X-30030Y22100D01*
X-29500Y22200D01*
X-28970Y22100D01*
X-28630Y21800D01*
X-28430Y21450D01*
Y20200D01*
G01Y21450D02*
X-26500Y22200D01*
G01X-29830Y23850D02*
X-30230Y24150D01*
X-30430Y24500D01*
X-30500Y24900D01*
X-30370Y25400D01*
X-30030Y25750D01*
X-29630Y25850D01*
X-29230Y25800D01*
X-28900Y25600D01*
X-28230Y24600D01*
X-27770Y24150D01*
X-27100Y23850D01*
X-26500Y23750D01*
Y25850D01*
G01X-35000Y20200D02*
X-39000D01*
Y21450D01*
X-38800Y21850D01*
X-38530Y22100D01*
X-38000Y22200D01*
X-37470Y22100D01*
X-37130Y21800D01*
X-36930Y21450D01*
Y20200D01*
G01Y21450D02*
X-35000Y22200D01*
G01Y24800D02*
X-39000D01*
X-38200Y24200D01*
G01X-35000D02*
Y25400D01*
G01X-36200Y56670D02*
X-36500Y56870D01*
X-36850Y57000D01*
X-37250D01*
X-37700Y56800D01*
X-38050Y56470D01*
X-38300Y56070D01*
X-38500Y55400D01*
X-38550Y54800D01*
X-38450Y54200D01*
X-38300Y53800D01*
X-38000Y53400D01*
X-37650Y53130D01*
X-37300Y53000D01*
X-36950D01*
X-36600Y53130D01*
X-36300Y53330D01*
X-36050Y53600D01*
G01X-33700Y53000D02*
Y57000D01*
X-34300Y56200D01*
G01Y53000D02*
X-33100D01*
G01X-43700Y47170D02*
X-44000Y47370D01*
X-44350Y47500D01*
X-44750D01*
X-45200Y47300D01*
X-45550Y46970D01*
X-45800Y46570D01*
X-46000Y45900D01*
X-46050Y45300D01*
X-45950Y44700D01*
X-45800Y44300D01*
X-45500Y43900D01*
X-45150Y43630D01*
X-44800Y43500D01*
X-44450D01*
X-44100Y43630D01*
X-43800Y43830D01*
X-43550Y44100D01*
G01X-42300D02*
X-42000Y43770D01*
X-41650Y43570D01*
X-41200Y43500D01*
X-40750Y43630D01*
X-40400Y43900D01*
X-40150Y44370D01*
X-40100Y44900D01*
X-40200Y45430D01*
X-40450Y45770D01*
X-40800Y46030D01*
X-41150Y46100D01*
X-41500Y46030D01*
X-41950Y45770D01*
X-41800Y47500D01*
X-40450D01*
G01X-21800Y-50000D02*
Y-46000D01*
X-20500Y-49330D01*
X-19200Y-46000D01*
Y-50000D01*
G01X-17750Y-47330D02*
Y-49200D01*
X-17550Y-49670D01*
X-17250Y-49930D01*
X-16900Y-50000D01*
X-16550Y-49930D01*
X-16250Y-49670D01*
X-16050Y-49200D01*
G01Y-50000D02*
Y-47330D01*
G01X-13300Y-50000D02*
Y-46000D01*
G01X-9700D02*
Y-50000D01*
G01X-10400Y-47330D02*
X-9000D01*
G01X-6100D02*
Y-50000D01*
G01Y-46270D02*
X-6200Y-46200D01*
Y-46070D01*
X-6100Y-46000D01*
X-6000Y-46070D01*
Y-46200D01*
X-6100Y-46270D01*
G01X-3400Y-51330D02*
Y-47330D01*
G01Y-47930D02*
X-3150Y-47600D01*
X-2900Y-47400D01*
X-2500Y-47330D01*
X-2150Y-47400D01*
X-1800Y-47730D01*
X-1650Y-48200D01*
X-1600Y-48670D01*
X-1650Y-49130D01*
X-1800Y-49600D01*
X-2100Y-49870D01*
X-2500Y-50000D01*
X-2850Y-49930D01*
X-3200Y-49730D01*
X-3400Y-49470D01*
G01X1100Y-50000D02*
Y-46000D01*
G01X3950Y-48200D02*
X5550D01*
X5400Y-47730D01*
X5150Y-47470D01*
X4800Y-47330D01*
X4450Y-47400D01*
X4150Y-47600D01*
X3950Y-48070D01*
X3850Y-48470D01*
Y-48870D01*
X3950Y-49270D01*
X4200Y-49670D01*
X4500Y-49930D01*
X4850Y-50000D01*
X5200Y-49870D01*
X5550Y-49470D01*
G01X10950Y-50000D02*
Y-46000D01*
X12850D01*
G01X12150Y-47930D02*
X10950D01*
G01X15900Y-47870D02*
X16100Y-47670D01*
X16250Y-47330D01*
X16350Y-46870D01*
X16250Y-46470D01*
X16050Y-46200D01*
X15700Y-46000D01*
X14350D01*
Y-50000D01*
X16000D01*
X16350Y-49730D01*
X16550Y-49330D01*
X16650Y-48870D01*
X16550Y-48400D01*
X16250Y-48000D01*
X15900Y-47870D01*
X14350D01*
G01X-8860Y-38300D02*
X-9900D01*
G01X-8460Y-38500D02*
X-8860Y-38300D01*
G01X-8180Y-38740D02*
X-8460Y-38500D01*
G01Y-42100D02*
X-8180Y-41820D01*
G01X-8860Y-42300D02*
X-8460Y-42100D01*
G01X-9900Y-42300D02*
X-8860D01*
G01X-9900Y-38300D02*
Y-42300D01*
G01X-9380Y-35340D02*
X-7660D01*
G01X-9940Y-36740D02*
X-8540Y-32740D01*
G01D02*
X-7140Y-36740D01*
G01X-5940Y-42300D02*
X-3900D01*
G01X-5940Y-38300D02*
Y-42300D01*
G01X-3900Y-38300D02*
X-5940D01*
G01Y-40220D02*
X-4700D01*
G01X-2780Y-36740D02*
Y-32740D01*
G01X-5340D02*
X-2780Y-36740D01*
G01X-5340D02*
Y-32740D01*
G01X-1100Y-42300D02*
X180Y-38300D01*
G01X-2380D02*
X-1100Y-42300D01*
G01X-980Y-36740D02*
X420Y-32740D01*
G01X-420Y-35340D02*
X1300D01*
G01X-7900Y-39180D02*
X-8180Y-38740D01*
G01X-7700Y-39620D02*
X-7900Y-39180D01*
G01X-7660Y-40300D02*
X-7700Y-39620D01*
G01Y-40940D02*
X-7660Y-40300D01*
G01X-7900Y-41420D02*
X-7700Y-40940D01*
G01X-8180Y-41820D02*
X-7900Y-41420D01*
G01X-20670Y800D02*
X-20870Y500D01*
X-21000Y150D01*
Y-250D01*
X-20800Y-700D01*
X-20470Y-1050D01*
X-20070Y-1300D01*
X-19400Y-1500D01*
X-18800Y-1550D01*
X-18200Y-1450D01*
X-17800Y-1300D01*
X-17400Y-1000D01*
X-17130Y-650D01*
X-17000Y-300D01*
Y50D01*
X-17130Y400D01*
X-17330Y700D01*
X-17600Y950D01*
G01X-21000Y3300D02*
X-20870Y2900D01*
X-20530Y2600D01*
X-20130Y2400D01*
X-19600Y2250D01*
X-19000Y2200D01*
X-18400Y2250D01*
X-17870Y2400D01*
X-17470Y2600D01*
X-17130Y2900D01*
X-17000Y3300D01*
X-17130Y3700D01*
X-17470Y4000D01*
X-17870Y4200D01*
X-18400Y4350D01*
X-19000Y4400D01*
X-19600Y4350D01*
X-20130Y4200D01*
X-20530Y4000D01*
X-20870Y3700D01*
X-21000Y3300D01*
G01X-20150Y-15670D02*
X-18950D01*
G01X-19600Y-14800D02*
Y-16530D01*
G01X-17250Y-13000D02*
X-16000Y-17000D01*
X-14750Y-13000D01*
G01X-13450Y-16470D02*
X-13050Y-16800D01*
X-12600Y-17000D01*
X-12200D01*
X-11800Y-16800D01*
X-11500Y-16470D01*
X-11350Y-16000D01*
X-11450Y-15530D01*
X-11700Y-15130D01*
X-12150Y-14870D01*
X-12750Y-14730D01*
X-13100Y-14470D01*
X-13250Y-14000D01*
X-13150Y-13530D01*
X-12900Y-13200D01*
X-12550Y-13000D01*
X-12200D01*
X-11850Y-13130D01*
X-11550Y-13470D01*
G01X-17300Y-6700D02*
X-17050Y-7100D01*
X-16750Y-7370D01*
X-16400Y-7500D01*
X-16000Y-7370D01*
X-15700Y-7100D01*
X-15400Y-6700D01*
X-15300Y-6170D01*
Y-3500D01*
G01X-12700Y-7500D02*
Y-3500D01*
X-13300Y-4300D01*
G01Y-7500D02*
X-12100D01*
G01X-17700Y31670D02*
X-18000Y31870D01*
X-18350Y32000D01*
X-18750D01*
X-19200Y31800D01*
X-19550Y31470D01*
X-19800Y31070D01*
X-20000Y30400D01*
X-20050Y29800D01*
X-19950Y29200D01*
X-19800Y28800D01*
X-19500Y28400D01*
X-19150Y28130D01*
X-18800Y28000D01*
X-18450D01*
X-18100Y28130D01*
X-17800Y28330D01*
X-17550Y28600D01*
G01X-16150Y31330D02*
X-15850Y31730D01*
X-15500Y31930D01*
X-15100Y32000D01*
X-14600Y31870D01*
X-14250Y31530D01*
X-14150Y31130D01*
X-14200Y30730D01*
X-14400Y30400D01*
X-15400Y29730D01*
X-15850Y29270D01*
X-16150Y28600D01*
X-16250Y28000D01*
X-14150D01*
G01X-10000Y18500D02*
X-14000D01*
X-13200Y17900D01*
G01X-10000D02*
Y19100D01*
G01X-12000Y53700D02*
X-16000D01*
Y54950D01*
X-15800Y55350D01*
X-15530Y55600D01*
X-15000Y55700D01*
X-14470Y55600D01*
X-14130Y55300D01*
X-13930Y54950D01*
Y53700D01*
G01Y54950D02*
X-12000Y55700D01*
G01X-12600Y57200D02*
X-12270Y57500D01*
X-12070Y57850D01*
X-12000Y58300D01*
X-12130Y58750D01*
X-12400Y59100D01*
X-12870Y59350D01*
X-13400Y59400D01*
X-13930Y59300D01*
X-14270Y59050D01*
X-14530Y58700D01*
X-14600Y58350D01*
X-14530Y58000D01*
X-14270Y57550D01*
X-16000Y57700D01*
Y59050D01*
G01X-3000Y48700D02*
X-7000D01*
Y49950D01*
X-6800Y50350D01*
X-6530Y50600D01*
X-6000Y50700D01*
X-5470Y50600D01*
X-5130Y50300D01*
X-4930Y49950D01*
Y48700D01*
G01Y49950D02*
X-3000Y50700D01*
G01X-4670Y52350D02*
X-5130Y52700D01*
X-5400Y53000D01*
X-5530Y53400D01*
X-5400Y53750D01*
X-5130Y54000D01*
X-4730Y54200D01*
X-4270Y54250D01*
X-3870Y54200D01*
X-3470Y54000D01*
X-3130Y53700D01*
X-3000Y53350D01*
X-3130Y52950D01*
X-3530Y52600D01*
X-4130Y52400D01*
X-4800Y52350D01*
X-5670Y52450D01*
X-6130Y52600D01*
X-6600Y52850D01*
X-6930Y53200D01*
X-7000Y53550D01*
X-6870Y53900D01*
X-6530Y54150D01*
G01X420Y-32740D02*
X1820Y-36740D01*
G01X2140Y-42300D02*
X3340D01*
G01X2740Y-38300D02*
Y-42300D01*
G01X2140Y-38300D02*
X3340D01*
G01X7580Y-41980D02*
X7860Y-41700D01*
G01X7260Y-42180D02*
X7580Y-41980D01*
G01X6940Y-42300D02*
X7260Y-42180D01*
G01X6580Y-42300D02*
X6940D01*
G01X6220Y-42180D02*
X6580Y-42300D01*
G01X5860Y-41900D02*
X6220Y-42180D01*
G01X5580Y-41500D02*
X5860Y-41900D01*
G01X5420Y-41100D02*
X5580Y-41500D01*
G01Y-39220D02*
X5380Y-39860D01*
G01X5820Y-38820D02*
X5580Y-39220D01*
G01X6180Y-38500D02*
X5820Y-38820D01*
G01X6620Y-38300D02*
X6180Y-38500D01*
G01X7020Y-38300D02*
X6620D01*
G01X7380Y-38420D02*
X7020Y-38300D01*
G01X7700Y-38620D02*
X7380Y-38420D01*
G01X9420Y-40220D02*
X10660D01*
G01X9420Y-42300D02*
X11460D01*
G01X9420Y-38300D02*
Y-42300D01*
G01X11460Y-38300D02*
X9420D01*
G01X7980Y-35540D02*
X7860Y-35020D01*
G01X8180Y-35980D02*
X7980Y-35540D01*
G01X8540Y-36420D02*
X8180Y-35980D01*
G01X8900Y-36660D02*
X8540Y-36420D01*
G01X9380Y-36740D02*
X8900Y-36660D01*
G01X9860D02*
X9380Y-36740D01*
G01X10220Y-36420D02*
X9860Y-36660D01*
G01X10540Y-36020D02*
X10220Y-36420D01*
G01X10780Y-35540D02*
X10540Y-36020D01*
G01X10900Y-35020D02*
X10780Y-35540D01*
G01X10900Y-34460D02*
Y-35020D01*
G01X10780Y-33940D02*
X10900Y-34460D01*
G01X7860D02*
X7980Y-33940D01*
G01X7860Y-35020D02*
Y-34460D01*
G01X13620Y-42100D02*
X13220Y-41780D01*
G01X14060Y-42300D02*
X13620Y-42100D01*
G01X14460Y-42300D02*
X14060D01*
G01X14860Y-42100D02*
X14460Y-42300D01*
G01X15180Y-41780D02*
X14860Y-42100D01*
G01X15340Y-41300D02*
X15180Y-41780D01*
G01X15220Y-40820D02*
X15340Y-41300D01*
G01X14980Y-40420D02*
X15220Y-40820D01*
G01X14540Y-40180D02*
X14980Y-40420D01*
G01X13900Y-40020D02*
X14540Y-40180D01*
G01X13540Y-39780D02*
X13900Y-40020D01*
G01X13420Y-39300D02*
X13540Y-39780D01*
G01X13500Y-38820D02*
X13420Y-39300D01*
G01X13740Y-38500D02*
X13500Y-38820D01*
G01X14100Y-38300D02*
X13740Y-38500D01*
G01X14460Y-38300D02*
X14100D01*
G01X14820Y-38420D02*
X14460Y-38300D01*
G01X15140Y-38780D02*
X14820Y-38420D01*
G01X15300Y-34740D02*
X14180D01*
G01X15300Y-35940D02*
Y-34740D01*
G01X14980Y-36340D02*
X15300Y-35940D01*
G01X14580Y-36620D02*
X14980Y-36340D01*
G01X14020Y-36740D02*
X14580Y-36620D01*
G01X13420Y-36580D02*
X14020Y-36740D01*
G01X13060Y-36340D02*
X13420Y-36580D01*
G01X12740Y-35940D02*
X13060Y-36340D01*
G01X12500Y-35460D02*
X12740Y-35940D01*
G01X12420Y-34940D02*
X12500Y-35460D01*
G01X12420Y-34460D02*
Y-34940D01*
G01X12540Y-34020D02*
X12420Y-34460D01*
G01X10540Y-33460D02*
X10780Y-33940D01*
G01X10220Y-33060D02*
X10540Y-33460D01*
G01X9860Y-32820D02*
X10220Y-33060D01*
G01X9380Y-32740D02*
X9860Y-32820D01*
G01X8900D02*
X9380Y-32740D01*
G01X8540Y-33060D02*
X8900Y-32820D01*
G01X8220Y-33460D02*
X8540Y-33060D01*
G01X7980Y-33940D02*
X8220Y-33460D01*
G01X12740Y-33620D02*
X12540Y-34020D01*
G01X13060Y-33220D02*
X12740Y-33620D01*
G01X13420Y-32940D02*
X13060Y-33220D01*
G01X13860Y-32740D02*
X13420Y-32940D01*
G01X14260Y-32740D02*
X13860D01*
G01X14700Y-32860D02*
X14260Y-32740D01*
G01X15020Y-33140D02*
X14700Y-32860D01*
G01X3780Y-36740D02*
X6020D01*
G01X3780Y-32740D02*
Y-36740D01*
G01X5300Y-40500D02*
X5420Y-41100D01*
G01X5380Y-39860D02*
X5300Y-40500D01*
G01X21600Y-3500D02*
Y500D01*
X22850D01*
X23250Y300D01*
X23500Y30D01*
X23600Y-500D01*
X23500Y-1030D01*
X23200Y-1370D01*
X22850Y-1570D01*
X21600D01*
G01X22850D02*
X23600Y-3500D01*
G01X27200D02*
X25200D01*
Y500D01*
X27200D01*
G01X26400Y-1430D02*
X25200D01*
G01X28850Y-3500D02*
Y500D01*
X30750D01*
G01X30050Y-1430D02*
X28850D01*
G01X32450Y-170D02*
X32750Y230D01*
X33100Y430D01*
X33500Y500D01*
X34000Y370D01*
X34350Y30D01*
X34450Y-370D01*
X34400Y-770D01*
X34200Y-1100D01*
X33200Y-1770D01*
X32750Y-2230D01*
X32450Y-2900D01*
X32350Y-3500D01*
X34450D01*
G01X4250Y-15170D02*
X5550D01*
G01X7250Y-12500D02*
X8500Y-16500D01*
X9750Y-12500D01*
G01X11050Y-15970D02*
X11450Y-16300D01*
X11900Y-16500D01*
X12300D01*
X12700Y-16300D01*
X13000Y-15970D01*
X13150Y-15500D01*
X13050Y-15030D01*
X12800Y-14630D01*
X12350Y-14370D01*
X11750Y-14230D01*
X11400Y-13970D01*
X11250Y-13500D01*
X11350Y-13030D01*
X11600Y-12700D01*
X11950Y-12500D01*
X12300D01*
X12650Y-12630D01*
X12950Y-12970D01*
G01X9830Y-8950D02*
X9370Y-8600D01*
X9100Y-8300D01*
X8970Y-7900D01*
X9100Y-7550D01*
X9370Y-7300D01*
X9770Y-7100D01*
X10230Y-7050D01*
X10630Y-7100D01*
X11030Y-7300D01*
X11370Y-7600D01*
X11500Y-7950D01*
X11370Y-8350D01*
X10970Y-8700D01*
X10370Y-8900D01*
X9700Y-8950D01*
X8830Y-8850D01*
X8370Y-8700D01*
X7900Y-8450D01*
X7570Y-8100D01*
X7500Y-7750D01*
X7630Y-7400D01*
X7970Y-7150D01*
G01X25600Y29000D02*
Y26130D01*
X25800Y25530D01*
X26200Y25130D01*
X26700Y25000D01*
X27200Y25130D01*
X27600Y25530D01*
X27800Y26130D01*
Y29000D01*
G01X30300Y25000D02*
Y29000D01*
X29700Y28200D01*
G01Y25000D02*
X30900D01*
G01X26900Y18500D02*
X26500Y18570D01*
X26150Y18830D01*
X25850Y19230D01*
X25650Y19700D01*
X25550Y20230D01*
Y20770D01*
X25650Y21300D01*
X25850Y21770D01*
X26150Y22170D01*
X26500Y22430D01*
X26900Y22500D01*
X27300Y22430D01*
X27650Y22170D01*
X27950Y21770D01*
X28150Y21300D01*
X28250Y20770D01*
Y20230D01*
X28150Y19700D01*
X27950Y19230D01*
X27650Y18830D01*
X27300Y18570D01*
X26900Y18500D01*
G01X29400Y22500D02*
Y19630D01*
X29600Y19030D01*
X30000Y18630D01*
X30500Y18500D01*
X31000Y18630D01*
X31400Y19030D01*
X31600Y19630D01*
Y22500D01*
G01X34100D02*
Y18500D01*
G01X32950Y22500D02*
X35250D01*
G01X19200Y52500D02*
Y56500D01*
X20450D01*
X20850Y56300D01*
X21100Y56030D01*
X21200Y55500D01*
X21100Y54970D01*
X20800Y54630D01*
X20450Y54430D01*
X19200D01*
G01X20450D02*
X21200Y52500D01*
G01X24400D02*
Y56500D01*
X22550Y53630D01*
X25050D01*
G01X18700Y44000D02*
Y48000D01*
X19950D01*
X20350Y47800D01*
X20600Y47530D01*
X20700Y47000D01*
X20600Y46470D01*
X20300Y46130D01*
X19950Y45930D01*
X18700D01*
G01X19950D02*
X20700Y44000D01*
G01X22200Y44800D02*
X22500Y44330D01*
X22900Y44070D01*
X23350Y44000D01*
X23750Y44070D01*
X24150Y44400D01*
X24400Y44800D01*
X24450Y45200D01*
X24350Y45670D01*
X24000Y46000D01*
X23650Y46130D01*
X23200D01*
G01X23650D02*
X23950Y46330D01*
X24200Y46670D01*
X24300Y47070D01*
X24200Y47470D01*
X23950Y47800D01*
X23500Y48000D01*
X23050Y47930D01*
X22600Y47670D01*
G01X41000Y-19800D02*
X41130Y-20200D01*
X41470Y-20500D01*
X41870Y-20700D01*
X42400Y-20850D01*
X43000Y-20900D01*
X43600Y-20850D01*
X44130Y-20700D01*
X44530Y-20500D01*
X44870Y-20200D01*
X45000Y-19800D01*
X44870Y-19400D01*
X44530Y-19100D01*
X44130Y-18900D01*
X43600Y-18750D01*
X43000Y-18700D01*
X42400Y-18750D01*
X41870Y-18900D01*
X41470Y-19100D01*
X41130Y-19400D01*
X41000Y-19800D01*
G01X44200Y-17300D02*
X44670Y-17000D01*
X44930Y-16600D01*
X45000Y-16150D01*
X44930Y-15750D01*
X44600Y-15350D01*
X44200Y-15100D01*
X43800Y-15050D01*
X43330Y-15150D01*
X43000Y-15500D01*
X42870Y-15850D01*
Y-16300D01*
G01Y-15850D02*
X42670Y-15550D01*
X42330Y-15300D01*
X41930Y-15200D01*
X41530Y-15300D01*
X41200Y-15550D01*
X41000Y-16000D01*
X41070Y-16450D01*
X41330Y-16900D01*
G01X45000Y-12000D02*
X41000D01*
X43870Y-13850D01*
Y-11350D01*
G01X44530Y-9850D02*
X44870Y-9500D01*
X45000Y-9100D01*
X44870Y-8700D01*
X44470Y-8350D01*
X43870Y-8100D01*
X43270Y-8000D01*
X42530D01*
X41930Y-8100D01*
X41400Y-8350D01*
X41130Y-8650D01*
X41000Y-9000D01*
X41130Y-9400D01*
X41400Y-9700D01*
X41800Y-9900D01*
X42330Y-10000D01*
X42800Y-9900D01*
X43270Y-9650D01*
X43530Y-9350D01*
X43600Y-9000D01*
X43470Y-8600D01*
X43130Y-8300D01*
X42530Y-8000D01*
G01X41000Y-5400D02*
X41130Y-5800D01*
X41470Y-6100D01*
X41870Y-6300D01*
X42400Y-6450D01*
X43000Y-6500D01*
X43600Y-6450D01*
X44130Y-6300D01*
X44530Y-6100D01*
X44870Y-5800D01*
X45000Y-5400D01*
X44870Y-5000D01*
X44530Y-4700D01*
X44130Y-4500D01*
X43600Y-4350D01*
X43000Y-4300D01*
X42400Y-4350D01*
X41870Y-4500D01*
X41470Y-4700D01*
X41130Y-5000D01*
X41000Y-5400D01*
G01X45000Y-1800D02*
X41000D01*
X41800Y-2400D01*
G01X45000D02*
Y-1200D01*
G01Y4400D02*
X41000D01*
Y5650D01*
X41200Y6050D01*
X41470Y6300D01*
X42000Y6400D01*
X42530Y6300D01*
X42870Y6000D01*
X43070Y5650D01*
Y4400D01*
G01Y5650D02*
X45000Y6400D01*
G01Y10000D02*
Y8000D01*
X41000D01*
Y10000D01*
G01X42930Y9200D02*
Y8000D01*
G01X41000Y11350D02*
X45000Y12600D01*
X41000Y13850D01*
G01X42870Y20200D02*
X42670Y20400D01*
X42330Y20550D01*
X41870Y20650D01*
X41470Y20550D01*
X41200Y20350D01*
X41000Y20000D01*
Y18650D01*
X45000D01*
Y20300D01*
X44730Y20650D01*
X44330Y20850D01*
X43870Y20950D01*
X43400Y20850D01*
X43000Y20550D01*
X42870Y20200D01*
Y18650D01*
G01X35330Y37300D02*
X35130Y37000D01*
X35000Y36650D01*
Y36250D01*
X35200Y35800D01*
X35530Y35450D01*
X35930Y35200D01*
X36600Y35000D01*
X37200Y34950D01*
X37800Y35050D01*
X38200Y35200D01*
X38600Y35500D01*
X38870Y35850D01*
X39000Y36200D01*
Y36550D01*
X38870Y36900D01*
X38670Y37200D01*
X38400Y37450D01*
G01X38530Y38950D02*
X38870Y39300D01*
X39000Y39700D01*
X38870Y40100D01*
X38470Y40450D01*
X37870Y40700D01*
X37270Y40800D01*
X36530D01*
X35930Y40700D01*
X35400Y40450D01*
X35130Y40150D01*
X35000Y39800D01*
X35130Y39400D01*
X35400Y39100D01*
X35800Y38900D01*
X36330Y38800D01*
X36800Y38900D01*
X37270Y39150D01*
X37530Y39450D01*
X37600Y39800D01*
X37470Y40200D01*
X37130Y40500D01*
X36530Y40800D01*
G54D12*
G01X-87630Y131330D02*
X-86620Y130500D01*
X-85500Y130000D01*
X-84500D01*
X-83500Y130500D01*
X-82750Y131330D01*
X-82370Y132500D01*
X-82620Y133670D01*
X-83250Y134670D01*
X-84380Y135330D01*
X-85870Y135670D01*
X-86750Y136330D01*
X-87130Y137500D01*
X-86870Y138670D01*
X-86250Y139500D01*
X-85380Y140000D01*
X-84500D01*
X-83620Y139670D01*
X-82870Y138830D01*
G01X-76500Y140000D02*
X-73500D01*
G01X-75000D02*
Y130000D01*
G01X-76500D02*
X-73500D01*
G01X-67500Y140000D02*
Y130000D01*
X-62500D01*
G01X-57750D02*
Y140000D01*
G01X-53000D02*
X-57750Y133830D01*
G01X-52250Y130000D02*
X-55620Y136670D01*
G01X-47630Y131330D02*
X-46620Y130500D01*
X-45500Y130000D01*
X-44500D01*
X-43500Y130500D01*
X-42750Y131330D01*
X-42370Y132500D01*
X-42620Y133670D01*
X-43250Y134670D01*
X-44380Y135330D01*
X-45870Y135670D01*
X-46750Y136330D01*
X-47130Y137500D01*
X-46870Y138670D01*
X-46250Y139500D01*
X-45380Y140000D01*
X-44500D01*
X-43620Y139670D01*
X-42870Y138830D01*
G01X-32250Y139170D02*
X-33000Y139670D01*
X-33870Y140000D01*
X-34870D01*
X-36000Y139500D01*
X-36870Y138670D01*
X-37500Y137670D01*
X-38000Y136000D01*
X-38130Y134500D01*
X-37870Y133000D01*
X-37500Y132000D01*
X-36750Y131000D01*
X-35870Y130330D01*
X-35000Y130000D01*
X-34130D01*
X-33250Y130330D01*
X-32500Y130830D01*
X-31870Y131500D01*
G01X-27500Y130000D02*
Y140000D01*
X-24380D01*
X-23380Y139500D01*
X-22750Y138830D01*
X-22500Y137500D01*
X-22750Y136170D01*
X-23500Y135330D01*
X-24380Y134830D01*
X-27500D01*
G01X-24380D02*
X-22500Y130000D01*
G01X-12500D02*
X-17500D01*
Y140000D01*
X-12500D01*
G01X-14500Y135170D02*
X-17500D01*
G01X-2500Y130000D02*
X-7500D01*
Y140000D01*
X-2500D01*
G01X-4500Y135170D02*
X-7500D01*
G01X2130Y130000D02*
Y140000D01*
X7870Y130000D01*
Y140000D01*
G01X22500Y130000D02*
Y140000D01*
X25500D01*
X26500Y139500D01*
X27250Y138330D01*
X27500Y137000D01*
X27250Y135670D01*
X26620Y134670D01*
X25500Y134170D01*
X22500D01*
G01X32500Y130000D02*
Y140000D01*
X35620D01*
X36620Y139500D01*
X37250Y138830D01*
X37500Y137500D01*
X37250Y136170D01*
X36500Y135330D01*
X35620Y134830D01*
X32500D01*
G01X35620D02*
X37500Y130000D01*
G01X43500Y140000D02*
X46500D01*
G01X45000D02*
Y130000D01*
G01X43500D02*
X46500D01*
G01X51750D02*
Y140000D01*
X55000Y131670D01*
X58250Y140000D01*
Y130000D01*
G01X61870D02*
X65000Y140000D01*
X68130Y130000D01*
G01X67000Y133500D02*
X63000D01*
G01X72500Y130000D02*
Y140000D01*
X75620D01*
X76620Y139500D01*
X77250Y138830D01*
X77500Y137500D01*
X77250Y136170D01*
X76500Y135330D01*
X75620Y134830D01*
X72500D01*
G01X75620D02*
X77500Y130000D01*
G01X85000D02*
Y134500D01*
X82500Y140000D01*
G01X87500D02*
X85000Y134500D01*
G01X-22930Y-13000D02*
G03I-7070J0D01*
G01X-24430Y9000D02*
G03I-7070J0D01*
G01X-30500Y33500D02*
X-31000D01*
Y32500D01*
X-26000D01*
Y33500D01*
X-31000D01*
G01X-34500Y32500D02*
X-34000D01*
Y33500D01*
X-39000D01*
Y32500D01*
X-34000D01*
G01X-55000Y120000D02*
X-56000Y119670D01*
X-56750Y118830D01*
X-57250Y117830D01*
X-57630Y116500D01*
X-57750Y115000D01*
X-57630Y113500D01*
X-57250Y112170D01*
X-56750Y111170D01*
X-56000Y110330D01*
X-55000Y110000D01*
X-54000Y110330D01*
X-53250Y111170D01*
X-52750Y112170D01*
X-52370Y113500D01*
X-52250Y115000D01*
X-52370Y116500D01*
X-52750Y117830D01*
X-53250Y118830D01*
X-54000Y119670D01*
X-55000Y120000D01*
G01X-45000Y110000D02*
X-44130Y110170D01*
X-43130Y110670D01*
X-42500Y111500D01*
X-42250Y112670D01*
X-42500Y113830D01*
X-43250Y114830D01*
X-44380Y115330D01*
X-45620D01*
X-46380Y115670D01*
X-47000Y116500D01*
X-47250Y117670D01*
X-46870Y118830D01*
X-46000Y119670D01*
X-45000Y120000D01*
X-44000Y119670D01*
X-43130Y118830D01*
X-42750Y117670D01*
X-43000Y116500D01*
X-43620Y115670D01*
X-44380Y115330D01*
X-45620D01*
X-46750Y114830D01*
X-47500Y113830D01*
X-47750Y112670D01*
X-47500Y111500D01*
X-46870Y110670D01*
X-45870Y110170D01*
X-45000Y110000D01*
G01X-36620Y113330D02*
X-33380D01*
G01X33380D02*
X36620D01*
G01X45000Y120000D02*
X44000Y119670D01*
X43250Y118830D01*
X42750Y117830D01*
X42370Y116500D01*
X42250Y115000D01*
X42370Y113500D01*
X42750Y112170D01*
X43250Y111170D01*
X44000Y110330D01*
X45000Y110000D01*
X46000Y110330D01*
X46750Y111170D01*
X47250Y112170D01*
X47630Y113500D01*
X47750Y115000D01*
X47630Y116500D01*
X47250Y117830D01*
X46750Y118830D01*
X46000Y119670D01*
X45000Y120000D01*
G01X52250Y112000D02*
X53000Y110830D01*
X54000Y110170D01*
X55130Y110000D01*
X56130Y110170D01*
X57130Y111000D01*
X57750Y112000D01*
X57870Y113000D01*
X57630Y114170D01*
X56750Y115000D01*
X55870Y115330D01*
X54750D01*
G01X55870D02*
X56620Y115830D01*
X57250Y116670D01*
X57500Y117670D01*
X57250Y118670D01*
X56620Y119500D01*
X55500Y120000D01*
X54380Y119830D01*
X53250Y119170D01*
G01X-7930Y-25000D02*
G03I-7070J0D01*
G01X-18100Y11500D02*
G03I-400J0D01*
G01X-16600Y36000D02*
G03I-400J0D01*
G01X-25100Y55000D02*
G03I-400J0D01*
G01X-27100Y45500D02*
G03I-1400J0D01*
G01X-16000Y47500D02*
X-16500D01*
Y46500D01*
X-11500D01*
Y47500D01*
X-16500D01*
G01X-1500Y50000D02*
X-2000D01*
Y49000D01*
X3000D01*
Y50000D01*
X-2000D01*
G01X-22500Y90000D02*
Y100000D01*
X-19380D01*
X-18380Y99500D01*
X-17750Y98830D01*
X-17500Y97500D01*
X-17750Y96170D01*
X-18500Y95330D01*
X-19380Y94830D01*
X-22500D01*
G01X-19380D02*
X-17500Y90000D01*
G01X-7500D02*
X-12500D01*
Y100000D01*
X-7500D01*
G01X-9500Y95170D02*
X-12500D01*
G01X-3130Y100000D02*
X0Y90000D01*
X3130Y100000D01*
G01X21000Y95330D02*
X21500Y95830D01*
X21870Y96670D01*
X22130Y97830D01*
X21870Y98830D01*
X21380Y99500D01*
X20500Y100000D01*
X17130D01*
Y90000D01*
X21250D01*
X22130Y90670D01*
X22630Y91670D01*
X22870Y92830D01*
X22630Y94000D01*
X21870Y95000D01*
X21000Y95330D01*
X17130D01*
G01X-25000Y120000D02*
X-26000Y119670D01*
X-26750Y118830D01*
X-27250Y117830D01*
X-27630Y116500D01*
X-27750Y115000D01*
X-27630Y113500D01*
X-27250Y112170D01*
X-26750Y111170D01*
X-26000Y110330D01*
X-25000Y110000D01*
X-24000Y110330D01*
X-23250Y111170D01*
X-22750Y112170D01*
X-22370Y113500D01*
X-22250Y115000D01*
X-22370Y116500D01*
X-22750Y117830D01*
X-23250Y118830D01*
X-24000Y119670D01*
X-25000Y120000D01*
G01X-17750Y112000D02*
X-17000Y110830D01*
X-16000Y110170D01*
X-14870Y110000D01*
X-13870Y110170D01*
X-12870Y111000D01*
X-12250Y112000D01*
X-12130Y113000D01*
X-12370Y114170D01*
X-13250Y115000D01*
X-14130Y115330D01*
X-15250D01*
G01X-14130D02*
X-13380Y115830D01*
X-12750Y116670D01*
X-12500Y117670D01*
X-12750Y118670D01*
X-13380Y119500D01*
X-14500Y120000D01*
X-15620Y119830D01*
X-16750Y119170D01*
G01X-3500Y110000D02*
Y120000D01*
X-8130Y112830D01*
X-1870D01*
G01X2870Y111170D02*
X3750Y110330D01*
X4750Y110000D01*
X5750Y110330D01*
X6620Y111330D01*
X7250Y112830D01*
X7500Y114330D01*
Y116170D01*
X7250Y117670D01*
X6620Y119000D01*
X5870Y119670D01*
X5000Y120000D01*
X4000Y119670D01*
X3250Y119000D01*
X2750Y118000D01*
X2500Y116670D01*
X2750Y115500D01*
X3380Y114330D01*
X4130Y113670D01*
X5000Y113500D01*
X6000Y113830D01*
X6750Y114670D01*
X7500Y116170D01*
G01X15000Y120000D02*
X14000Y119670D01*
X13250Y118830D01*
X12750Y117830D01*
X12370Y116500D01*
X12250Y115000D01*
X12370Y113500D01*
X12750Y112170D01*
X13250Y111170D01*
X14000Y110330D01*
X15000Y110000D01*
X16000Y110330D01*
X16750Y111170D01*
X17250Y112170D01*
X17630Y113500D01*
X17750Y115000D01*
X17630Y116500D01*
X17250Y117830D01*
X16750Y118830D01*
X16000Y119670D01*
X15000Y120000D01*
G01X25000Y110000D02*
Y120000D01*
X23500Y118000D01*
G01Y110000D02*
X26500D01*
G01X16070Y-25000D02*
G03I-7070J0D01*
G01X35070Y-12000D02*
G03I-7070J0D01*
G01Y10000D02*
G03I-7070J0D01*
G01X19000Y20800D02*
Y20000D01*
X1000D01*
Y20800D01*
G01X19000Y41200D02*
Y42000D01*
X12000D01*
X10000Y40000D01*
X8000Y42000D01*
X1000D01*
Y41200D01*
G01X11000Y52500D02*
Y52000D01*
X12000D01*
Y57000D01*
X11000D01*
Y52000D01*
G01Y44500D02*
Y44000D01*
X12000D01*
Y49000D01*
X11000D01*
Y44000D01*
G01X31400Y38000D02*
G03I-400J0D01*
G54D13*
G01X-62500Y-62500D02*
X-27500D01*
G01X-62500Y62500D02*
X-27500D01*
G01X-52500Y-72500D02*
Y-37500D01*
G01Y72500D02*
Y37500D01*
G01X62500Y-62500D02*
X27500D01*
G01X62500Y62500D02*
X27500D01*
G01X52500Y-72500D02*
Y-37500D01*
G01Y72500D02*
Y37500D01*
M02*
