G04 ================== begin FILE IDENTIFICATION RECORD ==================*
G04 Layout Name:  C:/tmp/20_034901b/worklib/02_034901b_top/physical/08_034901b.brd*
G04 Film Name:    silk_sec*
G04 File Format:  Gerber RS274X*
G04 File Origin:  Cadence Allegro 16.5-S031*
G04 Origin Date:  Fri Mar 21 04:56:11 2014*
G04 *
G04 Layer:  REF DES/SILKSCREEN_BOTTOM*
G04 Layer:  PACKAGE GEOMETRY/SILKSCREEN_BOTTOM*
G04 Layer:  BOARD GEOMETRY/TOOLING_CORNERS*
G04 Layer:  BOARD GEOMETRY/SILKSCREEN_BOTTOM*
G04 Layer:  BOARD GEOMETRY/ROOT_NUMBER*
G04 *
G04 Offset:    (0.0 0.0)*
G04 Mirror:    No*
G04 Mode:      Positive*
G04 Rotation:  0*
G04 FullContactRelief:  No*
G04 UndefLineWidth:     8.0*
G04 ================== end FILE IDENTIFICATION RECORD ====================*
%FSLAX55Y55*MOIN*%
%IR0*IPPOS*OFA0.00000B0.00000*MIA0B0*SFA1.00000B1.00000*%
%ADD10C,.005*%
%ADD11C,.006*%
%ADD12C,.008*%
%ADD13C,.05*%
%ADD14C,.06*%
%ADD15C,.0224*%
G75*
%LPD*%
G75*
G36*
G01X-1950Y-35500D02*
G03I-2550J0D01*
G37*
G36*
G01X-6750Y-49500D02*
Y-48500D01*
X-5000D01*
Y-49500D01*
X-6750D01*
G37*
G36*
G01X20300Y-34500D02*
G03I-1800J0D01*
G37*
G36*
G01X18500Y-48500D02*
X22500D01*
Y-47000D01*
X18500D01*
Y-48500D01*
G37*
G36*
G01X12000Y-46000D02*
X10000D01*
Y-39000D01*
X12000D01*
Y-46000D01*
G37*
G36*
G01X8940Y28640D02*
G02I-1501J2D01*
G37*
G36*
G01X33000Y30200D02*
X20800D01*
G02X21590Y27890I7696J1342D01*
G01X21690Y27990D01*
G03X33000Y30200I5037J4267D01*
G37*
G36*
G01X11500Y31500D02*
X8500D01*
X14200Y36700D01*
X14300Y36800D01*
X20000Y31500D01*
X17000D01*
G03X39500Y27800I11544J-62D01*
G01X42700Y24500D01*
X44700Y26700D01*
G02X11500Y31500I-16260J4750D01*
G37*
G36*
G01X45500D02*
X48500D01*
X42800Y26300D01*
X42700Y26200D01*
X37000Y31500D01*
X40000D01*
G03X17500Y35200I-11544J62D01*
G01X14300Y38500D01*
X12300Y36300D01*
G02X45500Y31500I16260J-4749D01*
G37*
%LPC*%
G75*
G36*
G01X24000Y32700D02*
X33000D01*
G03X24000I-4500J-1011D01*
G37*
G54D15*
X-4500Y-35500D03*
%LPD*%
G75*
G54D10*
G01X-36000Y-33500D02*
G02Y-36490I-4001J-1495D01*
G01X-44000Y-33500D02*
G03X-44130Y-36090I4000J-1499D01*
G01X-38500Y-39000D02*
G02X-41520Y-38990I-1497J4000D01*
G01X-41500Y-31000D02*
G02X-38490I1505J-3999D01*
G01X44000Y-33500D02*
G02Y-36490I-4001J-1495D01*
G01X36000Y-33500D02*
G03X35870Y-36090I4000J-1499D01*
G01X41500Y-39000D02*
G02X38480Y-38990I-1497J4000D01*
G01X38500Y-31000D02*
G02X41510I1505J-3999D01*
G01X44000Y51500D02*
G02Y48510I-4001J-1495D01*
G01X36000Y51500D02*
G03X35870Y48910I4000J-1499D01*
G01X41500Y46000D02*
G02X38480Y46010I-1497J4000D01*
G01X38500Y54000D02*
G02X41510I1505J-3999D01*
G54D11*
G01X-35100Y-15500D02*
Y-11500D01*
X-36350D01*
X-36750Y-11700D01*
X-37000Y-11970D01*
X-37100Y-12500D01*
X-37000Y-13030D01*
X-36700Y-13370D01*
X-36350Y-13570D01*
X-35100D01*
G01X-36350D02*
X-37100Y-15500D01*
G01X-40700D02*
X-38700D01*
Y-11500D01*
X-40700D01*
G01X-39900Y-13430D02*
X-38700D01*
G01X-42350Y-15500D02*
Y-11500D01*
X-44250D01*
G01X-43550Y-13430D02*
X-42350D01*
G01X-46900Y-15500D02*
Y-11500D01*
X-46300Y-12300D01*
G01Y-15500D02*
X-47500D01*
G01X-36600Y11000D02*
X-37800D01*
G01X-37200D02*
Y7000D01*
G01X-36600D02*
X-37800D01*
G01X-39650D02*
Y11000D01*
X-41950Y7000D01*
Y11000D01*
G01X-20350Y-25170D02*
X-21550D01*
G01X-20900Y-24300D02*
Y-26030D01*
G01X-23250Y-22500D02*
X-24500Y-26500D01*
X-25750Y-22500D01*
G01X-27050Y-25970D02*
X-27450Y-26300D01*
X-27900Y-26500D01*
X-28300D01*
X-28700Y-26300D01*
X-29000Y-25970D01*
X-29150Y-25500D01*
X-29050Y-25030D01*
X-28800Y-24630D01*
X-28350Y-24370D01*
X-27750Y-24230D01*
X-27400Y-23970D01*
X-27250Y-23500D01*
X-27350Y-23030D01*
X-27600Y-22700D01*
X-27950Y-22500D01*
X-28300D01*
X-28650Y-22630D01*
X-28950Y-22970D01*
G01X300Y-18700D02*
X50Y-19100D01*
X-250Y-19370D01*
X-600Y-19500D01*
X-1000Y-19370D01*
X-1300Y-19100D01*
X-1600Y-18700D01*
X-1700Y-18170D01*
Y-15500D01*
G01X-4300Y-19500D02*
Y-15500D01*
X-3700Y-16300D01*
G01Y-19500D02*
X-4900D01*
G01X-19000Y13500D02*
X-15000D01*
X-15800Y12900D01*
G01X-19000D02*
Y14100D01*
G01X-19300Y47670D02*
X-19000Y47870D01*
X-18650Y48000D01*
X-18250D01*
X-17800Y47800D01*
X-17450Y47470D01*
X-17200Y47070D01*
X-17000Y46400D01*
X-16950Y45800D01*
X-17050Y45200D01*
X-17200Y44800D01*
X-17500Y44400D01*
X-17850Y44130D01*
X-18200Y44000D01*
X-18550D01*
X-18900Y44130D01*
X-19200Y44330D01*
X-19450Y44600D01*
G01X-20850Y45670D02*
X-21200Y46130D01*
X-21500Y46400D01*
X-21900Y46530D01*
X-22250Y46400D01*
X-22500Y46130D01*
X-22700Y45730D01*
X-22750Y45270D01*
X-22700Y44870D01*
X-22500Y44470D01*
X-22200Y44130D01*
X-21850Y44000D01*
X-21450Y44130D01*
X-21100Y44530D01*
X-20900Y45130D01*
X-20850Y45800D01*
X-20950Y46670D01*
X-21100Y47130D01*
X-21350Y47600D01*
X-21700Y47930D01*
X-22050Y48000D01*
X-22400Y47870D01*
X-22650Y47530D01*
G01X2900Y55580D02*
Y52710D01*
X2700Y52110D01*
X2300Y51710D01*
X1800Y51580D01*
X1300Y51710D01*
X900Y52110D01*
X700Y52710D01*
Y55580D01*
G01X-850Y54910D02*
X-1150Y55310D01*
X-1500Y55510D01*
X-1900Y55580D01*
X-2400Y55450D01*
X-2750Y55110D01*
X-2850Y54710D01*
X-2800Y54310D01*
X-2600Y53980D01*
X-1600Y53310D01*
X-1150Y52850D01*
X-850Y52180D01*
X-750Y51580D01*
X-2850D01*
G01X23250Y-25670D02*
X21950D01*
G01X20250Y-23000D02*
X19000Y-27000D01*
X17750Y-23000D01*
G01X16450Y-26470D02*
X16050Y-26800D01*
X15600Y-27000D01*
X15200D01*
X14800Y-26800D01*
X14500Y-26470D01*
X14350Y-26000D01*
X14450Y-25530D01*
X14700Y-25130D01*
X15150Y-24870D01*
X15750Y-24730D01*
X16100Y-24470D01*
X16250Y-24000D01*
X16150Y-23530D01*
X15900Y-23200D01*
X15550Y-23000D01*
X15200D01*
X14850Y-23130D01*
X14550Y-23470D01*
G01X11670Y-8450D02*
X12130Y-8100D01*
X12400Y-7800D01*
X12530Y-7400D01*
X12400Y-7050D01*
X12130Y-6800D01*
X11730Y-6600D01*
X11270Y-6550D01*
X10870Y-6600D01*
X10470Y-6800D01*
X10130Y-7100D01*
X10000Y-7450D01*
X10130Y-7850D01*
X10530Y-8200D01*
X11130Y-8400D01*
X11800Y-8450D01*
X12670Y-8350D01*
X13130Y-8200D01*
X13600Y-7950D01*
X13930Y-7600D01*
X14000Y-7250D01*
X13870Y-6900D01*
X13530Y-6650D01*
G01X46900Y-13500D02*
Y-9500D01*
X45650D01*
X45250Y-9700D01*
X45000Y-9970D01*
X44900Y-10500D01*
X45000Y-11030D01*
X45300Y-11370D01*
X45650Y-11570D01*
X46900D01*
G01X45650D02*
X44900Y-13500D01*
G01X41300D02*
X43300D01*
Y-9500D01*
X41300D01*
G01X42100Y-11430D02*
X43300D01*
G01X39650Y-13500D02*
Y-9500D01*
X37750D01*
G01X38450Y-11430D02*
X39650D01*
G01X36050Y-10170D02*
X35750Y-9770D01*
X35400Y-9570D01*
X35000Y-9500D01*
X34500Y-9630D01*
X34150Y-9970D01*
X34050Y-10370D01*
X34100Y-10770D01*
X34300Y-11100D01*
X35300Y-11770D01*
X35750Y-12230D01*
X36050Y-12900D01*
X36150Y-13500D01*
X34050D01*
G01X42100Y8000D02*
X42500Y8070D01*
X42850Y8330D01*
X43150Y8730D01*
X43350Y9200D01*
X43450Y9730D01*
Y10270D01*
X43350Y10800D01*
X43150Y11270D01*
X42850Y11670D01*
X42500Y11930D01*
X42100Y12000D01*
X41700Y11930D01*
X41350Y11670D01*
X41050Y11270D01*
X40850Y10800D01*
X40750Y10270D01*
Y9730D01*
X40850Y9200D01*
X41050Y8730D01*
X41350Y8330D01*
X41700Y8070D01*
X42100Y8000D01*
G01X39600Y12000D02*
Y9130D01*
X39400Y8530D01*
X39000Y8130D01*
X38500Y8000D01*
X38000Y8130D01*
X37600Y8530D01*
X37400Y9130D01*
Y12000D01*
G01X34900D02*
Y8000D01*
G01X36050Y12000D02*
X33750D01*
G54D12*
G01X-5000Y-37500D02*
Y-50000D01*
X18500Y-50500D01*
G03Y-34500I-5055J8000D01*
G01X-3000Y-35000D01*
G01X-10000Y-57000D02*
X26500Y-28000D01*
G01X-10000D02*
X26500Y-57000D01*
G01X18500Y-52500D02*
Y-32500D01*
G01X15000Y-35000D02*
X11000D01*
Y-32000D01*
X15000D01*
Y-35000D01*
X14000D01*
G01X23000Y-45500D02*
Y-39500D01*
X20500D01*
Y-45500D01*
X23000D01*
Y-44500D01*
G01X-97630Y131330D02*
X-96620Y130500D01*
X-95500Y130000D01*
X-94500D01*
X-93500Y130500D01*
X-92750Y131330D01*
X-92370Y132500D01*
X-92620Y133670D01*
X-93250Y134670D01*
X-94380Y135330D01*
X-95870Y135670D01*
X-96750Y136330D01*
X-97130Y137500D01*
X-96870Y138670D01*
X-96250Y139500D01*
X-95380Y140000D01*
X-94500D01*
X-93620Y139670D01*
X-92870Y138830D01*
G01X-86500Y140000D02*
X-83500D01*
G01X-85000D02*
Y130000D01*
G01X-86500D02*
X-83500D01*
G01X-77500Y140000D02*
Y130000D01*
X-72500D01*
G01X-67750D02*
Y140000D01*
G01X-63000D02*
X-67750Y133830D01*
G01X-62250Y130000D02*
X-65620Y136670D01*
G01X-57630Y131330D02*
X-56620Y130500D01*
X-55500Y130000D01*
X-54500D01*
X-53500Y130500D01*
X-52750Y131330D01*
X-52370Y132500D01*
X-52620Y133670D01*
X-53250Y134670D01*
X-54380Y135330D01*
X-55870Y135670D01*
X-56750Y136330D01*
X-57130Y137500D01*
X-56870Y138670D01*
X-56250Y139500D01*
X-55380Y140000D01*
X-54500D01*
X-53620Y139670D01*
X-52870Y138830D01*
G01X-42250Y139170D02*
X-43000Y139670D01*
X-43870Y140000D01*
X-44870D01*
X-46000Y139500D01*
X-46870Y138670D01*
X-47500Y137670D01*
X-48000Y136000D01*
X-48130Y134500D01*
X-47870Y133000D01*
X-47500Y132000D01*
X-46750Y131000D01*
X-45870Y130330D01*
X-45000Y130000D01*
X-44130D01*
X-43250Y130330D01*
X-42500Y130830D01*
X-41870Y131500D01*
G01X-37500Y130000D02*
Y140000D01*
X-34380D01*
X-33380Y139500D01*
X-32750Y138830D01*
X-32500Y137500D01*
X-32750Y136170D01*
X-33500Y135330D01*
X-34380Y134830D01*
X-37500D01*
G01X-34380D02*
X-32500Y130000D01*
G01X-22500D02*
X-27500D01*
Y140000D01*
X-22500D01*
G01X-24500Y135170D02*
X-27500D01*
G01X-12500Y130000D02*
X-17500D01*
Y140000D01*
X-12500D01*
G01X-14500Y135170D02*
X-17500D01*
G01X-7870Y130000D02*
Y140000D01*
X-2130Y130000D01*
Y140000D01*
G01X12370Y131330D02*
X13380Y130500D01*
X14500Y130000D01*
X15500D01*
X16500Y130500D01*
X17250Y131330D01*
X17630Y132500D01*
X17380Y133670D01*
X16750Y134670D01*
X15620Y135330D01*
X14130Y135670D01*
X13250Y136330D01*
X12870Y137500D01*
X13130Y138670D01*
X13750Y139500D01*
X14620Y140000D01*
X15500D01*
X16380Y139670D01*
X17130Y138830D01*
G01X27500Y130000D02*
X22500D01*
Y140000D01*
X27500D01*
G01X25500Y135170D02*
X22500D01*
G01X37750Y139170D02*
X37000Y139670D01*
X36130Y140000D01*
X35130D01*
X34000Y139500D01*
X33130Y138670D01*
X32500Y137670D01*
X32000Y136000D01*
X31870Y134500D01*
X32130Y133000D01*
X32500Y132000D01*
X33250Y131000D01*
X34130Y130330D01*
X35000Y130000D01*
X35870D01*
X36750Y130330D01*
X37500Y130830D01*
X38130Y131500D01*
G01X45000Y130000D02*
X44000Y130170D01*
X43130Y130830D01*
X42370Y131830D01*
X41870Y133000D01*
X41620Y134330D01*
Y135670D01*
X41870Y137000D01*
X42370Y138170D01*
X43130Y139170D01*
X44000Y139830D01*
X45000Y140000D01*
X46000Y139830D01*
X46870Y139170D01*
X47630Y138170D01*
X48130Y137000D01*
X48380Y135670D01*
Y134330D01*
X48130Y133000D01*
X47630Y131830D01*
X46870Y130830D01*
X46000Y130170D01*
X45000Y130000D01*
G01X52130D02*
Y140000D01*
X57870Y130000D01*
Y140000D01*
G01X62250Y130000D02*
Y140000D01*
X64750D01*
X65750Y139500D01*
X66500Y138830D01*
X67130Y137830D01*
X67630Y136670D01*
X67750Y135000D01*
X67630Y133330D01*
X67130Y132170D01*
X66500Y131170D01*
X65750Y130500D01*
X64750Y130000D01*
X62250D01*
G01X71870D02*
X75000Y140000D01*
X78130Y130000D01*
G01X77000Y133500D02*
X73000D01*
G01X82500Y130000D02*
Y140000D01*
X85620D01*
X86620Y139500D01*
X87250Y138830D01*
X87500Y137500D01*
X87250Y136170D01*
X86500Y135330D01*
X85620Y134830D01*
X82500D01*
G01X85620D02*
X87500Y130000D01*
G01X95000D02*
Y134500D01*
X92500Y140000D01*
G01X97500D02*
X95000Y134500D01*
G01X-55000Y120000D02*
X-56000Y119670D01*
X-56750Y118830D01*
X-57250Y117830D01*
X-57630Y116500D01*
X-57750Y115000D01*
X-57630Y113500D01*
X-57250Y112170D01*
X-56750Y111170D01*
X-56000Y110330D01*
X-55000Y110000D01*
X-54000Y110330D01*
X-53250Y111170D01*
X-52750Y112170D01*
X-52370Y113500D01*
X-52250Y115000D01*
X-52370Y116500D01*
X-52750Y117830D01*
X-53250Y118830D01*
X-54000Y119670D01*
X-55000Y120000D01*
G01X-45000Y110000D02*
X-44130Y110170D01*
X-43130Y110670D01*
X-42500Y111500D01*
X-42250Y112670D01*
X-42500Y113830D01*
X-43250Y114830D01*
X-44380Y115330D01*
X-45620D01*
X-46380Y115670D01*
X-47000Y116500D01*
X-47250Y117670D01*
X-46870Y118830D01*
X-46000Y119670D01*
X-45000Y120000D01*
X-44000Y119670D01*
X-43130Y118830D01*
X-42750Y117670D01*
X-43000Y116500D01*
X-43620Y115670D01*
X-44380Y115330D01*
X-45620D01*
X-46750Y114830D01*
X-47500Y113830D01*
X-47750Y112670D01*
X-47500Y111500D01*
X-46870Y110670D01*
X-45870Y110170D01*
X-45000Y110000D01*
G01X-36620Y113330D02*
X-33380D01*
G01X33380D02*
X36620D01*
G01X45000Y120000D02*
X44000Y119670D01*
X43250Y118830D01*
X42750Y117830D01*
X42370Y116500D01*
X42250Y115000D01*
X42370Y113500D01*
X42750Y112170D01*
X43250Y111170D01*
X44000Y110330D01*
X45000Y110000D01*
X46000Y110330D01*
X46750Y111170D01*
X47250Y112170D01*
X47630Y113500D01*
X47750Y115000D01*
X47630Y116500D01*
X47250Y117830D01*
X46750Y118830D01*
X46000Y119670D01*
X45000Y120000D01*
G01X52250Y111500D02*
X53000Y110670D01*
X53870Y110170D01*
X55000Y110000D01*
X56130Y110330D01*
X57000Y111000D01*
X57630Y112170D01*
X57750Y113500D01*
X57500Y114830D01*
X56870Y115670D01*
X56000Y116330D01*
X55130Y116500D01*
X54250Y116330D01*
X53130Y115670D01*
X53500Y120000D01*
X56870D01*
G01X-13500Y-13500D02*
X8500D01*
Y18500D01*
X-13500D01*
Y-13500D01*
G01X-18600Y38000D02*
G03I-1400J0D01*
G01X-5940Y30590D02*
X-6910D01*
Y44410D01*
X-5940D01*
G01X-22500Y90000D02*
Y100000D01*
X-19380D01*
X-18380Y99500D01*
X-17750Y98830D01*
X-17500Y97500D01*
X-17750Y96170D01*
X-18500Y95330D01*
X-19380Y94830D01*
X-22500D01*
G01X-19380D02*
X-17500Y90000D01*
G01X-7500D02*
X-12500D01*
Y100000D01*
X-7500D01*
G01X-9500Y95170D02*
X-12500D01*
G01X-3130Y100000D02*
X0Y90000D01*
X3130Y100000D01*
G01X21000Y95330D02*
X21500Y95830D01*
X21870Y96670D01*
X22130Y97830D01*
X21870Y98830D01*
X21380Y99500D01*
X20500Y100000D01*
X17130D01*
Y90000D01*
X21250D01*
X22130Y90670D01*
X22630Y91670D01*
X22870Y92830D01*
X22630Y94000D01*
X21870Y95000D01*
X21000Y95330D01*
X17130D01*
G01X-25000Y120000D02*
X-26000Y119670D01*
X-26750Y118830D01*
X-27250Y117830D01*
X-27630Y116500D01*
X-27750Y115000D01*
X-27630Y113500D01*
X-27250Y112170D01*
X-26750Y111170D01*
X-26000Y110330D01*
X-25000Y110000D01*
X-24000Y110330D01*
X-23250Y111170D01*
X-22750Y112170D01*
X-22370Y113500D01*
X-22250Y115000D01*
X-22370Y116500D01*
X-22750Y117830D01*
X-23250Y118830D01*
X-24000Y119670D01*
X-25000Y120000D01*
G01X-17750Y112000D02*
X-17000Y110830D01*
X-16000Y110170D01*
X-14870Y110000D01*
X-13870Y110170D01*
X-12870Y111000D01*
X-12250Y112000D01*
X-12130Y113000D01*
X-12370Y114170D01*
X-13250Y115000D01*
X-14130Y115330D01*
X-15250D01*
G01X-14130D02*
X-13380Y115830D01*
X-12750Y116670D01*
X-12500Y117670D01*
X-12750Y118670D01*
X-13380Y119500D01*
X-14500Y120000D01*
X-15620Y119830D01*
X-16750Y119170D01*
G01X-3500Y110000D02*
Y120000D01*
X-8130Y112830D01*
X-1870D01*
G01X2870Y111170D02*
X3750Y110330D01*
X4750Y110000D01*
X5750Y110330D01*
X6620Y111330D01*
X7250Y112830D01*
X7500Y114330D01*
Y116170D01*
X7250Y117670D01*
X6620Y119000D01*
X5870Y119670D01*
X5000Y120000D01*
X4000Y119670D01*
X3250Y119000D01*
X2750Y118000D01*
X2500Y116670D01*
X2750Y115500D01*
X3380Y114330D01*
X4130Y113670D01*
X5000Y113500D01*
X6000Y113830D01*
X6750Y114670D01*
X7500Y116170D01*
G01X15000Y120000D02*
X14000Y119670D01*
X13250Y118830D01*
X12750Y117830D01*
X12370Y116500D01*
X12250Y115000D01*
X12370Y113500D01*
X12750Y112170D01*
X13250Y111170D01*
X14000Y110330D01*
X15000Y110000D01*
X16000Y110330D01*
X16750Y111170D01*
X17250Y112170D01*
X17630Y113500D01*
X17750Y115000D01*
X17630Y116500D01*
X17250Y117830D01*
X16750Y118830D01*
X16000Y119670D01*
X15000Y120000D01*
G01X25000Y110000D02*
Y120000D01*
X23500Y118000D01*
G01Y110000D02*
X26500D01*
G01X5940Y44410D02*
X6910D01*
Y38500D01*
X5910Y37500D01*
X6910Y36500D01*
Y30590D01*
X5940D01*
G54D13*
G01X-62500Y-62500D02*
X-27500D01*
G01X-62500Y62500D02*
X-27500D01*
G01X-52500Y-72500D02*
Y-37500D01*
G01Y72500D02*
Y37500D01*
G01X62500Y-62500D02*
X27500D01*
G01X62500Y62500D02*
X27500D01*
G01X52500Y-72500D02*
Y-37500D01*
G01Y72500D02*
Y37500D01*
G54D14*
G01X-22500Y-54500D02*
Y-30500D01*
M02*
