<?xml version="1.0" standalone="no"?>
 <!DOCTYPE svg PUBLIC "-//W3C//DTD SVG 1.1//EN" 
 "http://www.w3.org/Graphics/SVG/1.1/DTD/svg11.dtd"> 
<svg xmlns="http://www.w3.org/2000/svg" version="1.1" 
    width="29.7002cm" height="21.0007cm" viewBox="0 0 116930 82680 ">
<title>SVG Picture created as surge-protection.svg date 2017/08/18 12:55:49 </title>
  <desc>Picture generated by Eeschema-SVG </desc>
<g style="fill:#000000; fill-opacity:1;stroke:#000000; stroke-opacity:1;
stroke-linecap:round; stroke-linejoin:round; "
 transform="translate(0 0) scale(1 1)">
</g>
<g style="fill:#000000; fill-opacity:0.0; 
stroke:#000000; stroke-width:100; stroke-opacity:1; 
stroke-linecap:round; stroke-linejoin:round;">
</g>
<g style="fill:#840084; fill-opacity:0.0; 
stroke:#840084; stroke-width:100; stroke-opacity:1; 
stroke-linecap:round; stroke-linejoin:round;">
<path d="M30000 6900
L47000 6900
L47000 18900
L30000 18900
L30000 6900
" />
</g>
<g style="fill:#008484; fill-opacity:0.0; 
stroke:#008484; stroke-width:100; stroke-opacity:1; 
stroke-linecap:round; stroke-linejoin:round;">
<path d="M30110 6800
L30170 6830
L30290 6830
L30340 6800
L30370 6750
L30370 6720
L30340 6660
L30290 6630
L30200 6630
L30140 6600
L30110 6550
L30110 6520
L30140 6460
L30200 6430
L30290 6430
L30340 6460
" />
<path d="M30890 6430
L30890 6830
" />
<path d="M30630 6430
L30630 6750
L30660 6800
L30720 6830
L30800 6830
L30860 6800
L30890 6770
" />
<path d="M31170 6830
L31170 6430
" />
<path d="M31170 6550
L31200 6490
L31230 6460
L31290 6430
L31340 6430
" />
<path d="M31800 6430
L31800 6920
L31770 6970
L31740 7000
L31690 7030
L31600 7030
L31540 7000
" />
<path d="M31800 6800
L31740 6830
L31630 6830
L31570 6800
L31540 6770
L31510 6720
L31510 6550
L31540 6490
L31570 6460
L31630 6430
L31740 6430
L31800 6460
" />
<path d="M32310 6800
L32250 6830
L32140 6830
L32080 6800
L32050 6750
L32050 6520
L32080 6460
L32140 6430
L32250 6430
L32310 6460
L32340 6520
L32340 6570
L32050 6630
" />
<path d="M32590 6600
L33050 6600
" />
<path d="M33330 6430
L33330 7030
" />
<path d="M33330 6460
L33390 6430
L33500 6430
L33560 6460
L33590 6490
L33620 6550
L33620 6720
L33590 6770
L33560 6800
L33500 6830
L33390 6830
L33330 6800
" />
<path d="M33870 6830
L33870 6430
" />
<path d="M33870 6550
L33900 6490
L33930 6460
L33990 6430
L34040 6430
" />
<path d="M34330 6830
L34270 6800
L34240 6770
L34210 6720
L34210 6550
L34240 6490
L34270 6460
L34330 6430
L34410 6430
L34470 6460
L34500 6490
L34530 6550
L34530 6720
L34500 6770
L34470 6800
L34410 6830
L34330 6830
" />
<path d="M34700 6430
L34930 6430
" />
<path d="M34780 6230
L34780 6750
L34810 6800
L34870 6830
L34930 6830
" />
<path d="M35350 6800
L35290 6830
L35180 6830
L35120 6800
L35090 6750
L35090 6520
L35120 6460
L35180 6430
L35290 6430
L35350 6460
L35380 6520
L35380 6570
L35090 6630
" />
<path d="M35890 6800
L35830 6830
L35720 6830
L35660 6800
L35630 6770
L35600 6720
L35600 6550
L35630 6490
L35660 6460
L35720 6430
L35830 6430
L35890 6460
" />
<path d="M36060 6430
L36290 6430
" />
<path d="M36140 6230
L36140 6750
L36170 6800
L36230 6830
L36290 6830
" />
<path d="M36340 6890
L36800 6890
" />
<path d="M37200 6800
L37140 6830
L37030 6830
L36970 6800
L36940 6770
L36910 6720
L36910 6550
L36940 6490
L36970 6460
L37030 6430
L37140 6430
L37200 6460
" />
<path d="M37540 6830
L37480 6800
L37450 6770
L37420 6720
L37420 6550
L37450 6490
L37480 6460
L37540 6430
L37620 6430
L37680 6460
L37710 6490
L37740 6550
L37740 6720
L37710 6770
L37680 6800
L37620 6830
L37540 6830
" />
<path d="M37990 6830
L37990 6430
" />
<path d="M37990 6490
L38020 6460
L38080 6430
L38160 6430
L38220 6460
L38250 6520
L38250 6830
" />
<path d="M38250 6520
L38280 6460
L38340 6430
L38420 6430
L38480 6460
L38510 6520
L38510 6830
" />
<path d="M38790 6830
L38790 6430
" />
<path d="M38790 6490
L38820 6460
L38880 6430
L38960 6430
L39020 6460
L39050 6520
L39050 6830
" />
<path d="M39050 6520
L39080 6460
L39140 6430
L39220 6430
L39280 6460
L39310 6520
L39310 6830
" />
<path d="M39560 6800
L39620 6830
L39740 6830
L39790 6800
L39820 6750
L39820 6720
L39790 6660
L39740 6630
L39650 6630
L39590 6600
L39560 6550
L39560 6520
L39590 6460
L39650 6430
L39740 6430
L39790 6460
" />
</g>
<g style="fill:#848400; fill-opacity:0.0; 
stroke:#848400; stroke-width:100; stroke-opacity:1; 
stroke-linecap:round; stroke-linejoin:round;">
<path d="M30110 19480
L30170 19510
L30290 19510
L30340 19480
L30370 19430
L30370 19400
L30340 19340
L30290 19310
L30200 19310
L30140 19280
L30110 19230
L30110 19200
L30140 19140
L30200 19110
L30290 19110
L30340 19140
" />
<path d="M30890 19110
L30890 19510
" />
<path d="M30630 19110
L30630 19430
L30660 19480
L30720 19510
L30800 19510
L30860 19480
L30890 19450
" />
<path d="M31170 19510
L31170 19110
" />
<path d="M31170 19230
L31200 19170
L31230 19140
L31290 19110
L31340 19110
" />
<path d="M31800 19110
L31800 19600
L31770 19650
L31740 19680
L31690 19710
L31600 19710
L31540 19680
" />
<path d="M31800 19480
L31740 19510
L31630 19510
L31570 19480
L31540 19450
L31510 19400
L31510 19230
L31540 19170
L31570 19140
L31630 19110
L31740 19110
L31800 19140
" />
<path d="M32310 19480
L32250 19510
L32140 19510
L32080 19480
L32050 19430
L32050 19200
L32080 19140
L32140 19110
L32250 19110
L32310 19140
L32340 19200
L32340 19250
L32050 19310
" />
<path d="M32590 19280
L33050 19280
" />
<path d="M33330 19110
L33330 19710
" />
<path d="M33330 19140
L33390 19110
L33500 19110
L33560 19140
L33590 19170
L33620 19230
L33620 19400
L33590 19450
L33560 19480
L33500 19510
L33390 19510
L33330 19480
" />
<path d="M33870 19510
L33870 19110
" />
<path d="M33870 19230
L33900 19170
L33930 19140
L33990 19110
L34040 19110
" />
<path d="M34330 19510
L34270 19480
L34240 19450
L34210 19400
L34210 19230
L34240 19170
L34270 19140
L34330 19110
L34410 19110
L34470 19140
L34500 19170
L34530 19230
L34530 19400
L34500 19450
L34470 19480
L34410 19510
L34330 19510
" />
<path d="M34700 19110
L34930 19110
" />
<path d="M34780 18910
L34780 19430
L34810 19480
L34870 19510
L34930 19510
" />
<path d="M35350 19480
L35290 19510
L35180 19510
L35120 19480
L35090 19430
L35090 19200
L35120 19140
L35180 19110
L35290 19110
L35350 19140
L35380 19200
L35380 19250
L35090 19310
" />
<path d="M35890 19480
L35830 19510
L35720 19510
L35660 19480
L35630 19450
L35600 19400
L35600 19230
L35630 19170
L35660 19140
L35720 19110
L35830 19110
L35890 19140
" />
<path d="M36060 19110
L36290 19110
" />
<path d="M36140 18910
L36140 19430
L36170 19480
L36230 19510
L36290 19510
" />
<path d="M36340 19570
L36800 19570
" />
<path d="M37200 19480
L37140 19510
L37030 19510
L36970 19480
L36940 19450
L36910 19400
L36910 19230
L36940 19170
L36970 19140
L37030 19110
L37140 19110
L37200 19140
" />
<path d="M37540 19510
L37480 19480
L37450 19450
L37420 19400
L37420 19230
L37450 19170
L37480 19140
L37540 19110
L37620 19110
L37680 19140
L37710 19170
L37740 19230
L37740 19400
L37710 19450
L37680 19480
L37620 19510
L37540 19510
" />
<path d="M37990 19510
L37990 19110
" />
<path d="M37990 19170
L38020 19140
L38080 19110
L38160 19110
L38220 19140
L38250 19200
L38250 19510
" />
<path d="M38250 19200
L38280 19140
L38340 19110
L38420 19110
L38480 19140
L38510 19200
L38510 19510
" />
<path d="M38790 19510
L38790 19110
" />
<path d="M38790 19170
L38820 19140
L38880 19110
L38960 19110
L39020 19140
L39050 19200
L39050 19510
" />
<path d="M39050 19200
L39080 19140
L39140 19110
L39220 19110
L39280 19140
L39310 19200
L39310 19510
" />
<path d="M39560 19480
L39620 19510
L39740 19510
L39790 19480
L39820 19430
L39820 19400
L39790 19340
L39740 19310
L39650 19310
L39590 19280
L39560 19230
L39560 19200
L39590 19140
L39650 19110
L39740 19110
L39790 19140
" />
<path d="M40080 19450
L40110 19480
L40080 19510
L40050 19480
L40080 19450
L40080 19510
" />
<path d="M40340 19480
L40400 19510
L40520 19510
L40570 19480
L40600 19430
L40600 19400
L40570 19340
L40520 19310
L40430 19310
L40370 19280
L40340 19230
L40340 19200
L40370 19140
L40430 19110
L40520 19110
L40570 19140
" />
<path d="M41120 19480
L41060 19510
L40950 19510
L40890 19480
L40860 19450
L40830 19400
L40830 19230
L40860 19170
L40890 19140
L40950 19110
L41060 19110
L41120 19140
" />
<path d="M41370 19510
L41370 18910
" />
<path d="M41630 19510
L41630 19200
L41600 19140
L41540 19110
L41460 19110
L41400 19140
L41370 19170
" />
</g>
<g style="fill:#840084; fill-opacity:0.0; 
stroke:#840084; stroke-width:100; stroke-opacity:1; 
stroke-linecap:round; stroke-linejoin:round;">
<path d="M7200 6800
L24200 6800
L24200 18800
L7200 18800
L7200 6800
" />
</g>
<g style="fill:#008484; fill-opacity:0.0; 
stroke:#008484; stroke-width:100; stroke-opacity:1; 
stroke-linecap:round; stroke-linejoin:round;">
<path d="M7310 6700
L7370 6730
L7490 6730
L7540 6700
L7570 6650
L7570 6620
L7540 6560
L7490 6530
L7400 6530
L7340 6500
L7310 6450
L7310 6420
L7340 6360
L7400 6330
L7490 6330
L7540 6360
" />
<path d="M8090 6330
L8090 6730
" />
<path d="M7830 6330
L7830 6650
L7860 6700
L7920 6730
L8000 6730
L8060 6700
L8090 6670
" />
<path d="M8370 6730
L8370 6330
" />
<path d="M8370 6450
L8400 6390
L8430 6360
L8490 6330
L8540 6330
" />
<path d="M9000 6330
L9000 6820
L8970 6870
L8940 6900
L8890 6930
L8800 6930
L8740 6900
" />
<path d="M9000 6700
L8940 6730
L8830 6730
L8770 6700
L8740 6670
L8710 6620
L8710 6450
L8740 6390
L8770 6360
L8830 6330
L8940 6330
L9000 6360
" />
<path d="M9510 6700
L9450 6730
L9340 6730
L9280 6700
L9250 6650
L9250 6420
L9280 6360
L9340 6330
L9450 6330
L9510 6360
L9540 6420
L9540 6470
L9250 6530
" />
<path d="M9790 6500
L10250 6500
" />
<path d="M10530 6330
L10530 6930
" />
<path d="M10530 6360
L10590 6330
L10700 6330
L10760 6360
L10790 6390
L10820 6450
L10820 6620
L10790 6670
L10760 6700
L10700 6730
L10590 6730
L10530 6700
" />
<path d="M11070 6730
L11070 6330
" />
<path d="M11070 6450
L11100 6390
L11130 6360
L11190 6330
L11240 6330
" />
<path d="M11530 6730
L11470 6700
L11440 6670
L11410 6620
L11410 6450
L11440 6390
L11470 6360
L11530 6330
L11610 6330
L11670 6360
L11700 6390
L11730 6450
L11730 6620
L11700 6670
L11670 6700
L11610 6730
L11530 6730
" />
<path d="M11900 6330
L12130 6330
" />
<path d="M11980 6130
L11980 6650
L12010 6700
L12070 6730
L12130 6730
" />
<path d="M12550 6700
L12490 6730
L12380 6730
L12320 6700
L12290 6650
L12290 6420
L12320 6360
L12380 6330
L12490 6330
L12550 6360
L12580 6420
L12580 6470
L12290 6530
" />
<path d="M13090 6700
L13030 6730
L12920 6730
L12860 6700
L12830 6670
L12800 6620
L12800 6450
L12830 6390
L12860 6360
L12920 6330
L13030 6330
L13090 6360
" />
<path d="M13260 6330
L13490 6330
" />
<path d="M13340 6130
L13340 6650
L13370 6700
L13430 6730
L13490 6730
" />
<path d="M13540 6790
L14000 6790
" />
<path d="M14140 6330
L14140 6930
" />
<path d="M14140 6360
L14200 6330
L14310 6330
L14370 6360
L14400 6390
L14430 6450
L14430 6620
L14400 6670
L14370 6700
L14310 6730
L14200 6730
L14140 6700
" />
<path d="M14770 6730
L14710 6700
L14680 6670
L14650 6620
L14650 6450
L14680 6390
L14710 6360
L14770 6330
L14850 6330
L14910 6360
L14940 6390
L14970 6450
L14970 6620
L14940 6670
L14910 6700
L14850 6730
L14770 6730
" />
<path d="M15170 6330
L15280 6730
L15390 6450
L15510 6730
L15620 6330
" />
<path d="M16080 6700
L16020 6730
L15910 6730
L15850 6700
L15820 6650
L15820 6420
L15850 6360
L15910 6330
L16020 6330
L16080 6360
L16110 6420
L16110 6470
L15820 6530
" />
<path d="M16360 6730
L16360 6330
" />
<path d="M16360 6450
L16390 6390
L16420 6360
L16480 6330
L16530 6330
" />
<path d="M16730 6500
L17190 6500
" />
<path d="M17440 6700
L17500 6730
L17620 6730
L17670 6700
L17700 6650
L17700 6620
L17670 6560
L17620 6530
L17530 6530
L17470 6500
L17440 6450
L17440 6420
L17470 6360
L17530 6330
L17620 6330
L17670 6360
" />
<path d="M18220 6330
L18220 6730
" />
<path d="M17960 6330
L17960 6650
L17990 6700
L18050 6730
L18130 6730
L18190 6700
L18220 6670
" />
<path d="M18500 6330
L18500 6930
" />
<path d="M18500 6360
L18560 6330
L18670 6330
L18730 6360
L18760 6390
L18790 6450
L18790 6620
L18760 6670
L18730 6700
L18670 6730
L18560 6730
L18500 6700
" />
<path d="M19040 6330
L19040 6930
" />
<path d="M19040 6360
L19100 6330
L19210 6330
L19270 6360
L19300 6390
L19330 6450
L19330 6620
L19300 6670
L19270 6700
L19210 6730
L19100 6730
L19040 6700
" />
<path d="M19670 6730
L19610 6700
L19580 6650
L19580 6130
" />
<path d="M19840 6330
L19980 6730
" />
<path d="M20120 6330
L19980 6730
L19920 6870
L19890 6900
L19840 6930
" />
<path d="M20210 6790
L20670 6790
" />
<path d="M20810 6730
L20810 6330
" />
<path d="M20810 6390
L20840 6360
L20900 6330
L20980 6330
L21040 6360
L21070 6420
L21070 6730
" />
<path d="M21070 6420
L21100 6360
L21160 6330
L21240 6330
L21300 6360
L21330 6420
L21330 6730
" />
<path d="M21870 6730
L21870 6420
L21840 6360
L21780 6330
L21670 6330
L21610 6360
" />
<path d="M21870 6700
L21810 6730
L21670 6730
L21610 6700
L21580 6650
L21580 6590
L21610 6530
L21670 6500
L21810 6500
L21870 6470
" />
<path d="M22150 6730
L22150 6330
" />
<path d="M22150 6130
L22120 6160
L22150 6190
L22180 6160
L22150 6130
L22150 6190
" />
<path d="M22440 6330
L22440 6730
" />
<path d="M22440 6390
L22470 6360
L22530 6330
L22610 6330
L22670 6360
L22700 6420
L22700 6730
" />
<path d="M22950 6700
L23010 6730
L23130 6730
L23180 6700
L23210 6650
L23210 6620
L23180 6560
L23130 6530
L23040 6530
L22980 6500
L22950 6450
L22950 6420
L22980 6360
L23040 6330
L23130 6330
L23180 6360
" />
</g>
<g style="fill:#848400; fill-opacity:0.0; 
stroke:#848400; stroke-width:100; stroke-opacity:1; 
stroke-linecap:round; stroke-linejoin:round;">
<path d="M7310 19380
L7370 19410
L7490 19410
L7540 19380
L7570 19330
L7570 19300
L7540 19240
L7490 19210
L7400 19210
L7340 19180
L7310 19130
L7310 19100
L7340 19040
L7400 19010
L7490 19010
L7540 19040
" />
<path d="M8090 19010
L8090 19410
" />
<path d="M7830 19010
L7830 19330
L7860 19380
L7920 19410
L8000 19410
L8060 19380
L8090 19350
" />
<path d="M8370 19410
L8370 19010
" />
<path d="M8370 19130
L8400 19070
L8430 19040
L8490 19010
L8540 19010
" />
<path d="M9000 19010
L9000 19500
L8970 19550
L8940 19580
L8890 19610
L8800 19610
L8740 19580
" />
<path d="M9000 19380
L8940 19410
L8830 19410
L8770 19380
L8740 19350
L8710 19300
L8710 19130
L8740 19070
L8770 19040
L8830 19010
L8940 19010
L9000 19040
" />
<path d="M9510 19380
L9450 19410
L9340 19410
L9280 19380
L9250 19330
L9250 19100
L9280 19040
L9340 19010
L9450 19010
L9510 19040
L9540 19100
L9540 19150
L9250 19210
" />
<path d="M9790 19180
L10250 19180
" />
<path d="M10530 19010
L10530 19610
" />
<path d="M10530 19040
L10590 19010
L10700 19010
L10760 19040
L10790 19070
L10820 19130
L10820 19300
L10790 19350
L10760 19380
L10700 19410
L10590 19410
L10530 19380
" />
<path d="M11070 19410
L11070 19010
" />
<path d="M11070 19130
L11100 19070
L11130 19040
L11190 19010
L11240 19010
" />
<path d="M11530 19410
L11470 19380
L11440 19350
L11410 19300
L11410 19130
L11440 19070
L11470 19040
L11530 19010
L11610 19010
L11670 19040
L11700 19070
L11730 19130
L11730 19300
L11700 19350
L11670 19380
L11610 19410
L11530 19410
" />
<path d="M11900 19010
L12130 19010
" />
<path d="M11980 18810
L11980 19330
L12010 19380
L12070 19410
L12130 19410
" />
<path d="M12550 19380
L12490 19410
L12380 19410
L12320 19380
L12290 19330
L12290 19100
L12320 19040
L12380 19010
L12490 19010
L12550 19040
L12580 19100
L12580 19150
L12290 19210
" />
<path d="M13090 19380
L13030 19410
L12920 19410
L12860 19380
L12830 19350
L12800 19300
L12800 19130
L12830 19070
L12860 19040
L12920 19010
L13030 19010
L13090 19040
" />
<path d="M13260 19010
L13490 19010
" />
<path d="M13340 18810
L13340 19330
L13370 19380
L13430 19410
L13490 19410
" />
<path d="M13540 19470
L14000 19470
" />
<path d="M14140 19010
L14140 19610
" />
<path d="M14140 19040
L14200 19010
L14310 19010
L14370 19040
L14400 19070
L14430 19130
L14430 19300
L14400 19350
L14370 19380
L14310 19410
L14200 19410
L14140 19380
" />
<path d="M14770 19410
L14710 19380
L14680 19350
L14650 19300
L14650 19130
L14680 19070
L14710 19040
L14770 19010
L14850 19010
L14910 19040
L14940 19070
L14970 19130
L14970 19300
L14940 19350
L14910 19380
L14850 19410
L14770 19410
" />
<path d="M15170 19010
L15280 19410
L15390 19130
L15510 19410
L15620 19010
" />
<path d="M16080 19380
L16020 19410
L15910 19410
L15850 19380
L15820 19330
L15820 19100
L15850 19040
L15910 19010
L16020 19010
L16080 19040
L16110 19100
L16110 19150
L15820 19210
" />
<path d="M16360 19410
L16360 19010
" />
<path d="M16360 19130
L16390 19070
L16420 19040
L16480 19010
L16530 19010
" />
<path d="M16730 19180
L17190 19180
" />
<path d="M17440 19380
L17500 19410
L17620 19410
L17670 19380
L17700 19330
L17700 19300
L17670 19240
L17620 19210
L17530 19210
L17470 19180
L17440 19130
L17440 19100
L17470 19040
L17530 19010
L17620 19010
L17670 19040
" />
<path d="M18220 19010
L18220 19410
" />
<path d="M17960 19010
L17960 19330
L17990 19380
L18050 19410
L18130 19410
L18190 19380
L18220 19350
" />
<path d="M18500 19010
L18500 19610
" />
<path d="M18500 19040
L18560 19010
L18670 19010
L18730 19040
L18760 19070
L18790 19130
L18790 19300
L18760 19350
L18730 19380
L18670 19410
L18560 19410
L18500 19380
" />
<path d="M19040 19010
L19040 19610
" />
<path d="M19040 19040
L19100 19010
L19210 19010
L19270 19040
L19300 19070
L19330 19130
L19330 19300
L19300 19350
L19270 19380
L19210 19410
L19100 19410
L19040 19380
" />
<path d="M19670 19410
L19610 19380
L19580 19330
L19580 18810
" />
<path d="M19840 19010
L19980 19410
" />
<path d="M20120 19010
L19980 19410
L19920 19550
L19890 19580
L19840 19610
" />
<path d="M20210 19470
L20670 19470
" />
<path d="M20810 19410
L20810 19010
" />
<path d="M20810 19070
L20840 19040
L20900 19010
L20980 19010
L21040 19040
L21070 19100
L21070 19410
" />
<path d="M21070 19100
L21100 19040
L21160 19010
L21240 19010
L21300 19040
L21330 19100
L21330 19410
" />
<path d="M21870 19410
L21870 19100
L21840 19040
L21780 19010
L21670 19010
L21610 19040
" />
<path d="M21870 19380
L21810 19410
L21670 19410
L21610 19380
L21580 19330
L21580 19270
L21610 19210
L21670 19180
L21810 19180
L21870 19150
" />
<path d="M22150 19410
L22150 19010
" />
<path d="M22150 18810
L22120 18840
L22150 18870
L22180 18840
L22150 18810
L22150 18870
" />
<path d="M22440 19010
L22440 19410
" />
<path d="M22440 19070
L22470 19040
L22530 19010
L22610 19010
L22670 19040
L22700 19100
L22700 19410
" />
<path d="M22950 19380
L23010 19410
L23130 19410
L23180 19380
L23210 19330
L23210 19300
L23180 19240
L23130 19210
L23040 19210
L22980 19180
L22950 19130
L22950 19100
L22980 19040
L23040 19010
L23130 19010
L23180 19040
" />
<path d="M23470 19350
L23500 19380
L23470 19410
L23440 19380
L23470 19350
L23470 19410
" />
<path d="M23730 19380
L23790 19410
L23910 19410
L23960 19380
L23990 19330
L23990 19300
L23960 19240
L23910 19210
L23820 19210
L23760 19180
L23730 19130
L23730 19100
L23760 19040
L23820 19010
L23910 19010
L23960 19040
" />
<path d="M24510 19380
L24450 19410
L24340 19410
L24280 19380
L24250 19350
L24220 19300
L24220 19130
L24250 19070
L24280 19040
L24340 19010
L24450 19010
L24510 19040
" />
<path d="M24760 19410
L24760 18810
" />
<path d="M25020 19410
L25020 19100
L24990 19040
L24930 19010
L24850 19010
L24790 19040
L24760 19070
" />
</g>
<g style="fill:#840084; fill-opacity:0.0; 
stroke:#840084; stroke-width:100; stroke-opacity:1; 
stroke-linecap:round; stroke-linejoin:round;">
<path d="M50400 6900
L65100 6900
L65100 18900
L50400 18900
L50400 6900
" />
</g>
<g style="fill:#008484; fill-opacity:0.0; 
stroke:#008484; stroke-width:100; stroke-opacity:1; 
stroke-linecap:round; stroke-linejoin:round;">
<path d="M50510 6800
L50570 6830
L50690 6830
L50740 6800
L50770 6750
L50770 6720
L50740 6660
L50690 6630
L50600 6630
L50540 6600
L50510 6550
L50510 6520
L50540 6460
L50600 6430
L50690 6430
L50740 6460
" />
<path d="M51290 6430
L51290 6830
" />
<path d="M51030 6430
L51030 6750
L51060 6800
L51120 6830
L51200 6830
L51260 6800
L51290 6770
" />
<path d="M51570 6830
L51570 6430
" />
<path d="M51570 6550
L51600 6490
L51630 6460
L51690 6430
L51740 6430
" />
<path d="M52200 6430
L52200 6920
L52170 6970
L52140 7000
L52090 7030
L52000 7030
L51940 7000
" />
<path d="M52200 6800
L52140 6830
L52030 6830
L51970 6800
L51940 6770
L51910 6720
L51910 6550
L51940 6490
L51970 6460
L52030 6430
L52140 6430
L52200 6460
" />
<path d="M52710 6800
L52650 6830
L52540 6830
L52480 6800
L52450 6750
L52450 6520
L52480 6460
L52540 6430
L52650 6430
L52710 6460
L52740 6520
L52740 6570
L52450 6630
" />
<path d="M52990 6600
L53450 6600
" />
<path d="M53730 6430
L53730 7030
" />
<path d="M53730 6460
L53790 6430
L53900 6430
L53960 6460
L53990 6490
L54020 6550
L54020 6720
L53990 6770
L53960 6800
L53900 6830
L53790 6830
L53730 6800
" />
<path d="M54270 6830
L54270 6430
" />
<path d="M54270 6550
L54300 6490
L54330 6460
L54390 6430
L54440 6430
" />
<path d="M54730 6830
L54670 6800
L54640 6770
L54610 6720
L54610 6550
L54640 6490
L54670 6460
L54730 6430
L54810 6430
L54870 6460
L54900 6490
L54930 6550
L54930 6720
L54900 6770
L54870 6800
L54810 6830
L54730 6830
" />
<path d="M55100 6430
L55330 6430
" />
<path d="M55180 6230
L55180 6750
L55210 6800
L55270 6830
L55330 6830
" />
<path d="M55750 6800
L55690 6830
L55580 6830
L55520 6800
L55490 6750
L55490 6520
L55520 6460
L55580 6430
L55690 6430
L55750 6460
L55780 6520
L55780 6570
L55490 6630
" />
<path d="M56290 6800
L56230 6830
L56120 6830
L56060 6800
L56030 6770
L56000 6720
L56000 6550
L56030 6490
L56060 6460
L56120 6430
L56230 6430
L56290 6460
" />
<path d="M56460 6430
L56690 6430
" />
<path d="M56540 6230
L56540 6750
L56570 6800
L56630 6830
L56690 6830
" />
<path d="M56740 6890
L57200 6890
" />
<path d="M57340 6430
L57340 7030
" />
<path d="M57340 6460
L57400 6430
L57510 6430
L57570 6460
L57600 6490
L57630 6550
L57630 6720
L57600 6770
L57570 6800
L57510 6830
L57400 6830
L57340 6800
" />
<path d="M57970 6830
L57910 6800
L57880 6770
L57850 6720
L57850 6550
L57880 6490
L57910 6460
L57970 6430
L58050 6430
L58110 6460
L58140 6490
L58170 6550
L58170 6720
L58140 6770
L58110 6800
L58050 6830
L57970 6830
" />
<path d="M58370 6430
L58480 6830
L58590 6550
L58710 6830
L58820 6430
" />
<path d="M59280 6800
L59220 6830
L59110 6830
L59050 6800
L59020 6750
L59020 6520
L59050 6460
L59110 6430
L59220 6430
L59280 6460
L59310 6520
L59310 6570
L59020 6630
" />
<path d="M59560 6830
L59560 6430
" />
<path d="M59560 6550
L59590 6490
L59620 6460
L59680 6430
L59730 6430
" />
<path d="M59930 6600
L60390 6600
" />
<path d="M60640 6800
L60700 6830
L60820 6830
L60870 6800
L60900 6750
L60900 6720
L60870 6660
L60820 6630
L60730 6630
L60670 6600
L60640 6550
L60640 6520
L60670 6460
L60730 6430
L60820 6430
L60870 6460
" />
<path d="M61420 6430
L61420 6830
" />
<path d="M61160 6430
L61160 6750
L61190 6800
L61250 6830
L61330 6830
L61390 6800
L61420 6770
" />
<path d="M61700 6430
L61700 7030
" />
<path d="M61700 6460
L61760 6430
L61870 6430
L61930 6460
L61960 6490
L61990 6550
L61990 6720
L61960 6770
L61930 6800
L61870 6830
L61760 6830
L61700 6800
" />
<path d="M62240 6430
L62240 7030
" />
<path d="M62240 6460
L62300 6430
L62410 6430
L62470 6460
L62500 6490
L62530 6550
L62530 6720
L62500 6770
L62470 6800
L62410 6830
L62300 6830
L62240 6800
" />
<path d="M62870 6830
L62810 6800
L62780 6750
L62780 6230
" />
<path d="M63040 6430
L63180 6830
" />
<path d="M63320 6430
L63180 6830
L63120 6970
L63090 7000
L63040 7030
" />
<path d="M63410 6890
L63870 6890
" />
<path d="M64010 6430
L64010 7030
" />
<path d="M64010 6460
L64070 6430
L64180 6430
L64240 6460
L64270 6490
L64300 6550
L64300 6720
L64270 6770
L64240 6800
L64180 6830
L64070 6830
L64010 6800
" />
<path d="M64780 6800
L64720 6830
L64610 6830
L64550 6800
L64520 6750
L64520 6520
L64550 6460
L64610 6430
L64720 6430
L64780 6460
L64810 6520
L64810 6570
L64520 6630
" />
<path d="M65060 6830
L65060 6430
" />
<path d="M65060 6550
L65090 6490
L65120 6460
L65180 6430
L65230 6430
" />
<path d="M65430 6830
L65430 6430
" />
<path d="M65430 6230
L65400 6260
L65430 6290
L65460 6260
L65430 6230
L65430 6290
" />
<path d="M65720 6430
L65720 7030
" />
<path d="M65720 6460
L65780 6430
L65890 6430
L65950 6460
L65980 6490
L66010 6550
L66010 6720
L65980 6770
L65950 6800
L65890 6830
L65780 6830
L65720 6800
" />
<path d="M66260 6830
L66260 6230
" />
<path d="M66520 6830
L66520 6520
L66490 6460
L66430 6430
L66350 6430
L66290 6460
L66260 6490
" />
<path d="M67030 6800
L66970 6830
L66860 6830
L66800 6800
L66770 6750
L66770 6520
L66800 6460
L66860 6430
L66970 6430
L67030 6460
L67060 6520
L67060 6570
L66770 6630
" />
<path d="M67310 6830
L67310 6430
" />
<path d="M67310 6550
L67340 6490
L67370 6460
L67430 6430
L67480 6430
" />
<path d="M67630 6430
L67770 6830
" />
<path d="M67910 6430
L67770 6830
L67710 6970
L67680 7000
L67630 7030
" />
</g>
<g style="fill:#848400; fill-opacity:0.0; 
stroke:#848400; stroke-width:100; stroke-opacity:1; 
stroke-linecap:round; stroke-linejoin:round;">
<path d="M50510 19480
L50570 19510
L50690 19510
L50740 19480
L50770 19430
L50770 19400
L50740 19340
L50690 19310
L50600 19310
L50540 19280
L50510 19230
L50510 19200
L50540 19140
L50600 19110
L50690 19110
L50740 19140
" />
<path d="M51290 19110
L51290 19510
" />
<path d="M51030 19110
L51030 19430
L51060 19480
L51120 19510
L51200 19510
L51260 19480
L51290 19450
" />
<path d="M51570 19510
L51570 19110
" />
<path d="M51570 19230
L51600 19170
L51630 19140
L51690 19110
L51740 19110
" />
<path d="M52200 19110
L52200 19600
L52170 19650
L52140 19680
L52090 19710
L52000 19710
L51940 19680
" />
<path d="M52200 19480
L52140 19510
L52030 19510
L51970 19480
L51940 19450
L51910 19400
L51910 19230
L51940 19170
L51970 19140
L52030 19110
L52140 19110
L52200 19140
" />
<path d="M52710 19480
L52650 19510
L52540 19510
L52480 19480
L52450 19430
L52450 19200
L52480 19140
L52540 19110
L52650 19110
L52710 19140
L52740 19200
L52740 19250
L52450 19310
" />
<path d="M52990 19280
L53450 19280
" />
<path d="M53730 19110
L53730 19710
" />
<path d="M53730 19140
L53790 19110
L53900 19110
L53960 19140
L53990 19170
L54020 19230
L54020 19400
L53990 19450
L53960 19480
L53900 19510
L53790 19510
L53730 19480
" />
<path d="M54270 19510
L54270 19110
" />
<path d="M54270 19230
L54300 19170
L54330 19140
L54390 19110
L54440 19110
" />
<path d="M54730 19510
L54670 19480
L54640 19450
L54610 19400
L54610 19230
L54640 19170
L54670 19140
L54730 19110
L54810 19110
L54870 19140
L54900 19170
L54930 19230
L54930 19400
L54900 19450
L54870 19480
L54810 19510
L54730 19510
" />
<path d="M55100 19110
L55330 19110
" />
<path d="M55180 18910
L55180 19430
L55210 19480
L55270 19510
L55330 19510
" />
<path d="M55750 19480
L55690 19510
L55580 19510
L55520 19480
L55490 19430
L55490 19200
L55520 19140
L55580 19110
L55690 19110
L55750 19140
L55780 19200
L55780 19250
L55490 19310
" />
<path d="M56290 19480
L56230 19510
L56120 19510
L56060 19480
L56030 19450
L56000 19400
L56000 19230
L56030 19170
L56060 19140
L56120 19110
L56230 19110
L56290 19140
" />
<path d="M56460 19110
L56690 19110
" />
<path d="M56540 18910
L56540 19430
L56570 19480
L56630 19510
L56690 19510
" />
<path d="M56740 19570
L57200 19570
" />
<path d="M57340 19110
L57340 19710
" />
<path d="M57340 19140
L57400 19110
L57510 19110
L57570 19140
L57600 19170
L57630 19230
L57630 19400
L57600 19450
L57570 19480
L57510 19510
L57400 19510
L57340 19480
" />
<path d="M57970 19510
L57910 19480
L57880 19450
L57850 19400
L57850 19230
L57880 19170
L57910 19140
L57970 19110
L58050 19110
L58110 19140
L58140 19170
L58170 19230
L58170 19400
L58140 19450
L58110 19480
L58050 19510
L57970 19510
" />
<path d="M58370 19110
L58480 19510
L58590 19230
L58710 19510
L58820 19110
" />
<path d="M59280 19480
L59220 19510
L59110 19510
L59050 19480
L59020 19430
L59020 19200
L59050 19140
L59110 19110
L59220 19110
L59280 19140
L59310 19200
L59310 19250
L59020 19310
" />
<path d="M59560 19510
L59560 19110
" />
<path d="M59560 19230
L59590 19170
L59620 19140
L59680 19110
L59730 19110
" />
<path d="M59930 19280
L60390 19280
" />
<path d="M60640 19480
L60700 19510
L60820 19510
L60870 19480
L60900 19430
L60900 19400
L60870 19340
L60820 19310
L60730 19310
L60670 19280
L60640 19230
L60640 19200
L60670 19140
L60730 19110
L60820 19110
L60870 19140
" />
<path d="M61420 19110
L61420 19510
" />
<path d="M61160 19110
L61160 19430
L61190 19480
L61250 19510
L61330 19510
L61390 19480
L61420 19450
" />
<path d="M61700 19110
L61700 19710
" />
<path d="M61700 19140
L61760 19110
L61870 19110
L61930 19140
L61960 19170
L61990 19230
L61990 19400
L61960 19450
L61930 19480
L61870 19510
L61760 19510
L61700 19480
" />
<path d="M62240 19110
L62240 19710
" />
<path d="M62240 19140
L62300 19110
L62410 19110
L62470 19140
L62500 19170
L62530 19230
L62530 19400
L62500 19450
L62470 19480
L62410 19510
L62300 19510
L62240 19480
" />
<path d="M62870 19510
L62810 19480
L62780 19430
L62780 18910
" />
<path d="M63040 19110
L63180 19510
" />
<path d="M63320 19110
L63180 19510
L63120 19650
L63090 19680
L63040 19710
" />
<path d="M63410 19570
L63870 19570
" />
<path d="M64010 19110
L64010 19710
" />
<path d="M64010 19140
L64070 19110
L64180 19110
L64240 19140
L64270 19170
L64300 19230
L64300 19400
L64270 19450
L64240 19480
L64180 19510
L64070 19510
L64010 19480
" />
<path d="M64780 19480
L64720 19510
L64610 19510
L64550 19480
L64520 19430
L64520 19200
L64550 19140
L64610 19110
L64720 19110
L64780 19140
L64810 19200
L64810 19250
L64520 19310
" />
<path d="M65060 19510
L65060 19110
" />
<path d="M65060 19230
L65090 19170
L65120 19140
L65180 19110
L65230 19110
" />
<path d="M65430 19510
L65430 19110
" />
<path d="M65430 18910
L65400 18940
L65430 18970
L65460 18940
L65430 18910
L65430 18970
" />
<path d="M65720 19110
L65720 19710
" />
<path d="M65720 19140
L65780 19110
L65890 19110
L65950 19140
L65980 19170
L66010 19230
L66010 19400
L65980 19450
L65950 19480
L65890 19510
L65780 19510
L65720 19480
" />
<path d="M66260 19510
L66260 18910
" />
<path d="M66520 19510
L66520 19200
L66490 19140
L66430 19110
L66350 19110
L66290 19140
L66260 19170
" />
<path d="M67030 19480
L66970 19510
L66860 19510
L66800 19480
L66770 19430
L66770 19200
L66800 19140
L66860 19110
L66970 19110
L67030 19140
L67060 19200
L67060 19250
L66770 19310
" />
<path d="M67310 19510
L67310 19110
" />
<path d="M67310 19230
L67340 19170
L67370 19140
L67430 19110
L67480 19110
" />
<path d="M67630 19110
L67770 19510
" />
<path d="M67910 19110
L67770 19510
L67710 19650
L67680 19680
L67630 19710
" />
<path d="M68140 19450
L68170 19480
L68140 19510
L68110 19480
L68140 19450
L68140 19510
" />
<path d="M68400 19480
L68460 19510
L68580 19510
L68630 19480
L68660 19430
L68660 19400
L68630 19340
L68580 19310
L68490 19310
L68430 19280
L68400 19230
L68400 19200
L68430 19140
L68490 19110
L68580 19110
L68630 19140
" />
<path d="M69180 19480
L69120 19510
L69010 19510
L68950 19480
L68920 19450
L68890 19400
L68890 19230
L68920 19170
L68950 19140
L69010 19110
L69120 19110
L69180 19140
" />
<path d="M69430 19510
L69430 18910
" />
<path d="M69690 19510
L69690 19200
L69660 19140
L69600 19110
L69520 19110
L69460 19140
L69430 19170
" />
</g>
<g style="fill:#840084; fill-opacity:0.0; 
stroke:#840084; stroke-width:100; stroke-opacity:1; 
stroke-linecap:round; stroke-linejoin:round;">
</g> 
</svg>
