<?xml version="1.0" standalone="no"?>
 <!DOCTYPE svg PUBLIC "-//W3C//DTD SVG 1.1//EN" 
 "http://www.w3.org/Graphics/SVG/1.1/DTD/svg11.dtd"> 
<svg xmlns="http://www.w3.org/2000/svg" version="1.1" 
    width="29.7002cm" height="21.0007cm" viewBox="0 0 116930 82680 ">
<title>SVG Picture created as surge-protect_power-supply_mains-surge-protect_power-supply_mains.svg date 2017/08/17 19:08:13 </title>
  <desc>Picture generated by Eeschema-SVG </desc>
<g style="fill:#000000; fill-opacity:1;stroke:#000000; stroke-opacity:1;
stroke-linecap:round; stroke-linejoin:round; "
 transform="translate(0 0) scale(1 1)">
</g>
<g style="fill:#000000; fill-opacity:0.0; 
stroke:#000000; stroke-width:0; stroke-opacity:1; 
stroke-linecap:round; stroke-linejoin:round;">
</g>
<g style="fill:#840000; fill-opacity:0.0; 
stroke:#840000; stroke-width:0; stroke-opacity:1; 
stroke-linecap:round; stroke-linejoin:round;">
</g>
<g style="fill:#840000; fill-opacity:0.0; 
stroke:#840000; stroke-width:80; stroke-opacity:1; 
stroke-linecap:round; stroke-linejoin:round;">
<path d="M51160 39660
L51160 40060
L51180 40110
L51210 40130
L51250 40160
L51350 40160
L51400 40130
L51420 40110
L51440 40060
L51440 39660
" />
</g>
<g style="fill:#840000; fill-opacity:0.0; 
stroke:#840000; stroke-width:100; stroke-opacity:1; 
stroke-linecap:round; stroke-linejoin:round;">
<rect x="50200" y="38100" width="800" height="2000" rx="0" />
<polyline fill="none;"
points="51350,38100
51350,38600
49850,39600
" /> 
<path d="M50600 38100
L50600 37600
" />
<path d="M50600 40100
L50600 40600
" />
</g>
<g style="fill:#008484; fill-opacity:0.0; 
stroke:#008484; stroke-width:100; stroke-opacity:1; 
stroke-linecap:round; stroke-linejoin:round;">
</g>
<g style="fill:#008484; fill-opacity:0.0; 
stroke:#008484; stroke-width:80; stroke-opacity:1; 
stroke-linecap:round; stroke-linejoin:round;">
<path d="M52320 40400
L52300 40380
L52280 40330
L52280 40210
L52300 40170
L52320 40140
L52370 40120
L52420 40120
L52490 40140
L52780 40430
L52780 40120
" />
<path d="M52280 39950
L52280 39620
L52780 39830
" />
<path d="M52280 39180
L52280 39420
L52510 39440
L52490 39420
L52470 39370
L52470 39250
L52490 39210
L52510 39180
L52560 39160
L52680 39160
L52730 39180
L52750 39210
L52780 39250
L52780 39370
L52750 39420
L52730 39440
" />
<path d="M52280 39010
L52780 38850
L52280 38680
" />
<path d="M52630 38530
L52630 38300
" />
<path d="M52780 38580
L52280 38420
L52780 38250
" />
<path d="M52730 37800
L52750 37820
L52780 37890
L52780 37940
L52750 38010
L52700 38060
L52660 38080
L52560 38100
L52490 38100
L52400 38080
L52350 38060
L52300 38010
L52280 37940
L52280 37890
L52300 37820
L52320 37800
" />
</g>
<g style="fill:#008484; fill-opacity:0.0; 
stroke:#008484; stroke-width:0; stroke-opacity:1; 
stroke-linecap:round; stroke-linejoin:round;">
</g>
<g style="fill:#840000; fill-opacity:0.0; 
stroke:#840000; stroke-width:0; stroke-opacity:1; 
stroke-linecap:round; stroke-linejoin:round;">
</g>
<g style="fill:#840000; fill-opacity:0.0; 
stroke:#840000; stroke-width:100; stroke-opacity:1; 
stroke-linecap:round; stroke-linejoin:round;">
<rect x="36700" y="29600" width="2000" height="600" rx="0" />
<polyline fill="none;"
points="36700,29900
38700,29900
" /> 
<path d="M36700 29900
L36200 29900
" />
<path d="M38700 29900
L39200 29900
" />
</g>
<g style="fill:#008484; fill-opacity:0.0; 
stroke:#008484; stroke-width:100; stroke-opacity:1; 
stroke-linecap:round; stroke-linejoin:round;">
</g>
<g style="fill:#008484; fill-opacity:0.0; 
stroke:#008484; stroke-width:80; stroke-opacity:1; 
stroke-linecap:round; stroke-linejoin:round;">
<path d="M36790 30370
L36810 30350
L36860 30330
L36980 30330
L37020 30350
L37050 30370
L37070 30420
L37070 30470
L37050 30540
L36760 30830
L37070 30830
" />
<path d="M37290 30780
L37310 30800
L37290 30830
L37270 30800
L37290 30780
L37290 30830
" />
<path d="M37770 30330
L37530 30330
L37510 30560
L37530 30540
L37580 30520
L37700 30520
L37740 30540
L37770 30560
L37790 30610
L37790 30730
L37770 30780
L37740 30800
L37700 30830
L37580 30830
L37530 30800
L37510 30780
" />
<path d="M37990 30680
L38220 30680
" />
<path d="M37940 30830
L38100 30330
L38270 30830
" />
<path d="M38370 30330
L38650 30330
" />
<path d="M38510 30830
L38510 30330
" />
</g>
<g style="fill:#008484; fill-opacity:0.0; 
stroke:#008484; stroke-width:0; stroke-opacity:1; 
stroke-linecap:round; stroke-linejoin:round;">
</g>
<g style="fill:#840000; fill-opacity:0.0; 
stroke:#840000; stroke-width:0; stroke-opacity:1; 
stroke-linecap:round; stroke-linejoin:round;">
</g>
<g style="fill:#840000; fill-opacity:0.0; 
stroke:#840000; stroke-width:100; stroke-opacity:1; 
stroke-linecap:round; stroke-linejoin:round;">
<polyline fill="none;"
points="27050,52850
27550,52850
" /> 
<polyline fill="none;"
points="27250,53100
27350,53100
" /> 
<polyline fill="none;"
points="27300,52600
27300,52100
" /> 
<polyline fill="none;"
points="27800,52600
26800,52600
" /> 
</g>
<g style="fill:#0000C2; fill-opacity:0.0; 
stroke:#0000C2; stroke-width:100; stroke-opacity:1; 
stroke-linecap:round; stroke-linejoin:round;">
<path d="M48270 42350
L48210 42380
L48100 42380
L48040 42350
L48010 42300
L48010 42070
L48040 42020
L48100 41990
L48210 41990
L48270 42020
L48290 42070
L48290 42130
L48010 42190
" />
<path d="M48550 42330
L48580 42350
L48550 42380
L48520 42350
L48550 42330
L48550 42380
" />
<path d="M49080 41990
L49080 42470
L49060 42520
L49030 42550
L48970 42580
L48890 42580
L48830 42550
" />
<path d="M49080 42350
L49030 42380
L48910 42380
L48860 42350
L48830 42330
L48800 42270
L48800 42100
L48830 42040
L48860 42020
L48910 41990
L49030 41990
L49080 42020
" />
<path d="M49360 42330
L49390 42350
L49360 42380
L49330 42350
L49360 42330
L49360 42380
" />
<path d="M50370 42380
L50090 42380
L50090 41790
" />
<path d="M50570 42380
L50570 41990
" />
<path d="M50570 41790
L50540 41820
L50570 41850
L50600 41820
L50570 41790
L50570 41850
" />
<path d="M50770 41990
L50990 41990
" />
<path d="M50850 41790
L50850 42300
L50880 42350
L50930 42380
L50990 42380
" />
<path d="M51110 41990
L51330 41990
" />
<path d="M51190 41790
L51190 42300
L51220 42350
L51270 42380
L51330 42380
" />
<path d="M51760 42350
L51700 42380
L51590 42380
L51530 42350
L51500 42300
L51500 42070
L51530 42020
L51590 41990
L51700 41990
L51760 42020
L51780 42070
L51780 42130
L51500 42190
" />
<path d="M52120 42380
L52070 42350
L52040 42300
L52040 41790
" />
<path d="M52270 41990
L52490 41990
" />
<path d="M52350 42380
L52350 41880
L52380 41820
L52430 41790
L52490 41790
" />
<path d="M52940 41990
L52940 42380
" />
<path d="M52690 41990
L52690 42300
L52720 42350
L52770 42380
L52860 42380
L52920 42350
L52940 42330
" />
<path d="M53190 42350
L53250 42380
L53360 42380
L53420 42350
L53450 42300
L53450 42270
L53420 42210
L53360 42190
L53280 42190
L53220 42160
L53190 42100
L53190 42070
L53220 42020
L53280 41990
L53360 41990
L53420 42020
" />
<path d="M53930 42350
L53870 42380
L53760 42380
L53700 42350
L53670 42300
L53670 42070
L53700 42020
L53760 41990
L53870 41990
L53930 42020
L53950 42070
L53950 42130
L53670 42190
" />
<path d="M47960 42680
L48150 43270
L48350 42680
" />
<path d="M48520 42740
L48550 42710
L48610 42680
L48750 42680
L48800 42710
L48830 42740
L48860 42790
L48860 42850
L48830 42930
L48490 43270
L48860 43270
" />
<path d="M49220 42680
L49280 42680
L49340 42710
L49360 42740
L49390 42790
L49420 42910
L49420 43050
L49390 43160
L49360 43220
L49340 43240
L49280 43270
L49220 43270
L49170 43240
L49140 43220
L49110 43160
L49080 43050
L49080 42910
L49110 42790
L49140 42740
L49170 42710
L49220 42680
" />
<path d="M49670 43270
L49670 42680
" />
<path d="M49670 42960
L50010 42960
" />
<path d="M50010 43270
L50010 42680
" />
<path d="M50260 42740
L50290 42710
L50350 42680
L50490 42680
L50540 42710
L50570 42740
L50600 42790
L50600 42850
L50570 42930
L50230 43270
L50600 43270
" />
<path d="M50790 42680
L51190 42680
L50930 43270
" />
<path d="M51690 42680
L51410 42680
L51380 42960
L51410 42930
L51470 42910
L51610 42910
L51660 42930
L51690 42960
L51720 43020
L51720 43160
L51690 43220
L51660 43240
L51610 43270
L51470 43270
L51410 43240
L51380 43220
" />
<path d="M51970 43270
L51970 42680
L52200 42680
L52250 42710
L52280 42740
L52310 42790
L52310 42880
L52280 42930
L52250 42960
L52200 42990
L51970 42990
" />
<path d="M17330 38470
L17040 38470
L17040 37870
" />
<path d="M17040 42260
L17240 42260
" />
<path d="M17330 42570
L17040 42570
L17040 41970
L17330 41970
" />
<path d="M17040 40470
L17040 39870
L17390 40470
L17390 39870
" />
</g>
<g style="fill:#0000C2; fill-opacity:0.0; 
stroke:#0000C2; stroke-width:0; stroke-opacity:1; 
stroke-linecap:round; stroke-linejoin:round;">
</g>
<g style="fill:#840000; fill-opacity:0.0; 
stroke:#840000; stroke-width:0; stroke-opacity:1; 
stroke-linecap:round; stroke-linejoin:round;">
</g>
<g style="fill:#840000; fill-opacity:1.0; 
stroke:#840000; stroke-width:100; stroke-opacity:1; 
stroke-linecap:round; stroke-linejoin:round;">
<rect x="18100" y="39850" width="2000" height="500" rx="0" />
</g>
<g style="fill:#840000; fill-opacity:0.0; 
stroke:#840000; stroke-width:100; stroke-opacity:1; 
stroke-linecap:round; stroke-linejoin:round;">
<line x1="18100" y1="37850" x2="18100" y2="37850" />
</g>
<g style="fill:#840000; fill-opacity:1.0; 
stroke:#840000; stroke-width:100; stroke-opacity:1; 
stroke-linecap:round; stroke-linejoin:round;">
<rect x="18100" y="41850" width="2000" height="500" rx="0" />
<rect x="18100" y="37850" width="2000" height="500" rx="0" />
</g>
<g style="fill:#840000; fill-opacity:0.0; 
stroke:#840000; stroke-width:100; stroke-opacity:1; 
stroke-linecap:round; stroke-linejoin:round;">
<path d="M20100 38100
L22100 38100
" />
</g>
<g style="fill:#840000; fill-opacity:0.0; 
stroke:#840000; stroke-width:80; stroke-opacity:1; 
stroke-linecap:round; stroke-linejoin:round;">
<path d="M21240 37980
L20960 37980
" />
<path d="M21100 37980
L21100 37480
L21050 37550
L21000 37600
L20960 37620
" />
</g>
<g style="fill:#840000; fill-opacity:0.0; 
stroke:#840000; stroke-width:100; stroke-opacity:1; 
stroke-linecap:round; stroke-linejoin:round;">
<path d="M20100 40100
L22100 40100
" />
</g>
<g style="fill:#840000; fill-opacity:0.0; 
stroke:#840000; stroke-width:80; stroke-opacity:1; 
stroke-linecap:round; stroke-linejoin:round;">
<path d="M20960 39520
L20980 39500
L21030 39480
L21150 39480
L21190 39500
L21220 39520
L21240 39570
L21240 39620
L21220 39690
L20930 39980
L21240 39980
" />
</g>
<g style="fill:#840000; fill-opacity:0.0; 
stroke:#840000; stroke-width:100; stroke-opacity:1; 
stroke-linecap:round; stroke-linejoin:round;">
<path d="M20100 42100
L22100 42100
" />
</g>
<g style="fill:#840000; fill-opacity:0.0; 
stroke:#840000; stroke-width:80; stroke-opacity:1; 
stroke-linecap:round; stroke-linejoin:round;">
<path d="M20930 41480
L21240 41480
L21070 41670
L21150 41670
L21190 41690
L21220 41710
L21240 41760
L21240 41880
L21220 41930
L21190 41950
L21150 41980
L21000 41980
L20960 41950
L20930 41930
" />
</g>
<g style="fill:#840000; fill-opacity:0.0; 
stroke:#840000; stroke-width:100; stroke-opacity:1; 
stroke-linecap:round; stroke-linejoin:round;">
</g>
<g style="fill:#840000; fill-opacity:0.0; 
stroke:#840000; stroke-width:0; stroke-opacity:1; 
stroke-linecap:round; stroke-linejoin:round;">
</g>
<g style="fill:#840000; fill-opacity:0.0; 
stroke:#840000; stroke-width:100; stroke-opacity:1; 
stroke-linecap:round; stroke-linejoin:round;">
<path d="M45800.9 40600 A500 500 0.0 0 0 45800.9 39600 " />
<path d="M45800.9 38600 A500 500 0.0 0 0 45800.9 37600 " />
<path d="M46300 38100
L48300 38100
" />
</g>
<g style="fill:#840000; fill-opacity:0.0; 
stroke:#840000; stroke-width:80; stroke-opacity:1; 
stroke-linecap:round; stroke-linejoin:round;">
<path d="M47440 37980
L47160 37980
" />
<path d="M47300 37980
L47300 37480
L47250 37550
L47200 37600
L47160 37620
" />
</g>
<g style="fill:#840000; fill-opacity:0.0; 
stroke:#840000; stroke-width:100; stroke-opacity:1; 
stroke-linecap:round; stroke-linejoin:round;">
<path d="M46300 40100
L48300 40100
" />
</g>
<g style="fill:#840000; fill-opacity:0.0; 
stroke:#840000; stroke-width:80; stroke-opacity:1; 
stroke-linecap:round; stroke-linejoin:round;">
<path d="M47160 39520
L47180 39500
L47230 39480
L47350 39480
L47390 39500
L47420 39520
L47440 39570
L47440 39620
L47420 39690
L47130 39980
L47440 39980
" />
</g>
<g style="fill:#840000; fill-opacity:0.0; 
stroke:#840000; stroke-width:100; stroke-opacity:1; 
stroke-linecap:round; stroke-linejoin:round;">
</g>
<g style="fill:#840000; fill-opacity:0.0; 
stroke:#840000; stroke-width:0; stroke-opacity:1; 
stroke-linecap:round; stroke-linejoin:round;">
</g>
<g style="fill:#840000; fill-opacity:1.0; 
stroke:#840000; stroke-width:100; stroke-opacity:1; 
stroke-linecap:round; stroke-linejoin:round;">
<rect x="43900" y="39850" width="2000" height="500" rx="0" />
</g>
<g style="fill:#840000; fill-opacity:0.0; 
stroke:#840000; stroke-width:100; stroke-opacity:1; 
stroke-linecap:round; stroke-linejoin:round;">
<line x1="45900" y1="37850" x2="45900" y2="37850" />
</g>
<g style="fill:#840000; fill-opacity:1.0; 
stroke:#840000; stroke-width:100; stroke-opacity:1; 
stroke-linecap:round; stroke-linejoin:round;">
<rect x="43900" y="37850" width="2000" height="500" rx="0" />
</g>
<g style="fill:#840000; fill-opacity:0.0; 
stroke:#840000; stroke-width:100; stroke-opacity:1; 
stroke-linecap:round; stroke-linejoin:round;">
<path d="M43900 38100
L41900 38100
" />
</g>
<g style="fill:#840000; fill-opacity:0.0; 
stroke:#840000; stroke-width:80; stroke-opacity:1; 
stroke-linecap:round; stroke-linejoin:round;">
<path d="M43040 37980
L42760 37980
" />
<path d="M42900 37980
L42900 37480
L42850 37550
L42800 37600
L42760 37620
" />
</g>
<g style="fill:#840000; fill-opacity:0.0; 
stroke:#840000; stroke-width:100; stroke-opacity:1; 
stroke-linecap:round; stroke-linejoin:round;">
<path d="M43900 40100
L41900 40100
" />
</g>
<g style="fill:#840000; fill-opacity:0.0; 
stroke:#840000; stroke-width:80; stroke-opacity:1; 
stroke-linecap:round; stroke-linejoin:round;">
<path d="M42760 39520
L42780 39500
L42830 39480
L42950 39480
L42990 39500
L43020 39520
L43040 39570
L43040 39620
L43020 39690
L42730 39980
L43040 39980
" />
</g>
<g style="fill:#840000; fill-opacity:0.0; 
stroke:#840000; stroke-width:100; stroke-opacity:1; 
stroke-linecap:round; stroke-linejoin:round;">
</g>
<g style="fill:#840000; fill-opacity:0.0; 
stroke:#840000; stroke-width:0; stroke-opacity:1; 
stroke-linecap:round; stroke-linejoin:round;">
</g>
<g style="fill:#840000; fill-opacity:0.0; 
stroke:#840000; stroke-width:100; stroke-opacity:1; 
stroke-linecap:round; stroke-linejoin:round;">
<polyline fill="none;"
points="80900,35100
80900,34100
" /> 
</g>
<g style="fill:#840000; fill-opacity:0.0; 
stroke:#840000; stroke-width:80; stroke-opacity:1; 
stroke-linecap:round; stroke-linejoin:round;">
<polyline fill="none;"
points="81400,33600
80900,34600
80400,33600
81400,33600
" /> 
<polyline fill="none;"
points="80400,34800
80400,34600
81400,34600
81400,34400
" /> 
<polyline fill="none;"
points="80400,35600
81400,35600
80900,34600
80400,35600
" /> 
</g>
<g style="fill:#840000; fill-opacity:0.0; 
stroke:#840000; stroke-width:100; stroke-opacity:1; 
stroke-linecap:round; stroke-linejoin:round;">
<path d="M80900 34100
L80900 33100
" />
<path d="M80900 35100
L80900 36100
" />
</g>
<g style="fill:#008484; fill-opacity:0.0; 
stroke:#008484; stroke-width:100; stroke-opacity:1; 
stroke-linecap:round; stroke-linejoin:round;">
</g>
<g style="fill:#008484; fill-opacity:0.0; 
stroke:#008484; stroke-width:80; stroke-opacity:1; 
stroke-linecap:round; stroke-linejoin:round;">
<path d="M79630 35410
L79780 35790
L79920 35410
" />
<path d="M79700 35170
L79700 34790
" />
<path d="M79850 34790
L79850 35170
" />
<path d="M79510 34570
L79490 34550
L79470 34500
L79470 34380
L79490 34340
L79510 34310
L79560 34290
L79610 34290
L79680 34310
L79970 34600
L79970 34290
" />
<path d="M79470 34120
L79470 33810
L79660 33980
L79660 33900
L79680 33860
L79700 33830
L79750 33810
L79870 33810
L79920 33830
L79940 33860
L79970 33900
L79970 34050
L79940 34090
L79920 34120
" />
<path d="M79470 33660
L79970 33500
L79470 33330
" />
</g>
<g style="fill:#008484; fill-opacity:0.0; 
stroke:#008484; stroke-width:0; stroke-opacity:1; 
stroke-linecap:round; stroke-linejoin:round;">
</g>
<g style="fill:#840000; fill-opacity:0.0; 
stroke:#840000; stroke-width:0; stroke-opacity:1; 
stroke-linecap:round; stroke-linejoin:round;">
</g>
<g style="fill:#840000; fill-opacity:0.0; 
stroke:#840000; stroke-width:100; stroke-opacity:1; 
stroke-linecap:round; stroke-linejoin:round;">
<polyline fill="none;"
points="80900,44100
80900,43100
" /> 
</g>
<g style="fill:#840000; fill-opacity:0.0; 
stroke:#840000; stroke-width:80; stroke-opacity:1; 
stroke-linecap:round; stroke-linejoin:round;">
<polyline fill="none;"
points="81400,42600
80900,43600
80400,42600
81400,42600
" /> 
<polyline fill="none;"
points="80400,43800
80400,43600
81400,43600
81400,43400
" /> 
<polyline fill="none;"
points="80400,44600
81400,44600
80900,43600
80400,44600
" /> 
</g>
<g style="fill:#840000; fill-opacity:0.0; 
stroke:#840000; stroke-width:100; stroke-opacity:1; 
stroke-linecap:round; stroke-linejoin:round;">
<path d="M80900 43100
L80900 42100
" />
<path d="M80900 44100
L80900 45100
" />
</g>
<g style="fill:#008484; fill-opacity:0.0; 
stroke:#008484; stroke-width:100; stroke-opacity:1; 
stroke-linecap:round; stroke-linejoin:round;">
</g>
<g style="fill:#008484; fill-opacity:0.0; 
stroke:#008484; stroke-width:80; stroke-opacity:1; 
stroke-linecap:round; stroke-linejoin:round;">
<path d="M79630 44510
L79780 44890
L79920 44510
" />
<path d="M79700 44270
L79700 43890
" />
<path d="M79850 43890
L79850 44270
" />
<path d="M79510 43670
L79490 43650
L79470 43600
L79470 43480
L79490 43440
L79510 43410
L79560 43390
L79610 43390
L79680 43410
L79970 43700
L79970 43390
" />
<path d="M79470 43220
L79470 42910
L79660 43080
L79660 43000
L79680 42960
L79700 42930
L79750 42910
L79870 42910
L79920 42930
L79940 42960
L79970 43000
L79970 43150
L79940 43190
L79920 43220
" />
<path d="M79470 42760
L79970 42600
L79470 42430
" />
</g>
<g style="fill:#008484; fill-opacity:0.0; 
stroke:#008484; stroke-width:0; stroke-opacity:1; 
stroke-linecap:round; stroke-linejoin:round;">
</g>
<g style="fill:#840000; fill-opacity:0.0; 
stroke:#840000; stroke-width:0; stroke-opacity:1; 
stroke-linecap:round; stroke-linejoin:round;">
</g>
<g style="fill:#840000; fill-opacity:0.0; 
stroke:#840000; stroke-width:100; stroke-opacity:1; 
stroke-linecap:round; stroke-linejoin:round;">
<rect x="72300" y="29600" width="2000" height="600" rx="0" />
<polyline fill="none;"
points="72300,29900
74300,29900
" /> 
<path d="M72300 29900
L71800 29900
" />
<path d="M74300 29900
L74800 29900
" />
</g>
<g style="fill:#008484; fill-opacity:0.0; 
stroke:#008484; stroke-width:100; stroke-opacity:1; 
stroke-linecap:round; stroke-linejoin:round;">
</g>
<g style="fill:#008484; fill-opacity:0.0; 
stroke:#008484; stroke-width:80; stroke-opacity:1; 
stroke-linecap:round; stroke-linejoin:round;">
<path d="M73030 30830
L72750 30830
" />
<path d="M72890 30830
L72890 30330
L72840 30400
L72790 30450
L72750 30470
" />
<path d="M73230 30680
L73460 30680
" />
<path d="M73180 30830
L73340 30330
L73510 30830
" />
<path d="M73610 30330
L73890 30330
" />
<path d="M73750 30830
L73750 30330
" />
</g>
<g style="fill:#008484; fill-opacity:0.0; 
stroke:#008484; stroke-width:0; stroke-opacity:1; 
stroke-linecap:round; stroke-linejoin:round;">
</g>
<g style="fill:#840000; fill-opacity:0.0; 
stroke:#840000; stroke-width:0; stroke-opacity:1; 
stroke-linecap:round; stroke-linejoin:round;">
</g>
<g style="fill:#840000; fill-opacity:0.0; 
stroke:#840000; stroke-width:100; stroke-opacity:1; 
stroke-linecap:round; stroke-linejoin:round;">
<rect x="72300" y="48500" width="2000" height="600" rx="0" />
<polyline fill="none;"
points="72300,48800
74300,48800
" /> 
<path d="M72300 48800
L71800 48800
" />
<path d="M74300 48800
L74800 48800
" />
</g>
<g style="fill:#008484; fill-opacity:0.0; 
stroke:#008484; stroke-width:100; stroke-opacity:1; 
stroke-linecap:round; stroke-linejoin:round;">
</g>
<g style="fill:#008484; fill-opacity:0.0; 
stroke:#008484; stroke-width:80; stroke-opacity:1; 
stroke-linecap:round; stroke-linejoin:round;">
<path d="M73030 49730
L72750 49730
" />
<path d="M72890 49730
L72890 49230
L72840 49300
L72790 49350
L72750 49370
" />
<path d="M73230 49580
L73460 49580
" />
<path d="M73180 49730
L73340 49230
L73510 49730
" />
<path d="M73610 49230
L73890 49230
" />
<path d="M73750 49730
L73750 49230
" />
</g>
<g style="fill:#008484; fill-opacity:0.0; 
stroke:#008484; stroke-width:0; stroke-opacity:1; 
stroke-linecap:round; stroke-linejoin:round;">
</g>
<g style="fill:#840000; fill-opacity:0.0; 
stroke:#840000; stroke-width:0; stroke-opacity:1; 
stroke-linecap:round; stroke-linejoin:round;">
</g>
<g style="fill:#840000; fill-opacity:0.0; 
stroke:#840000; stroke-width:100; stroke-opacity:1; 
stroke-linecap:round; stroke-linejoin:round;">
<polyline fill="none;"
points="92900,40900
92900,41400
93400,41400
92900,41900
92400,41400
92900,41400
" /> 
</g>
<g style="fill:#008484; fill-opacity:0.0; 
stroke:#008484; stroke-width:100; stroke-opacity:1; 
stroke-linecap:round; stroke-linejoin:round;">
</g>
<g style="fill:#008484; fill-opacity:0.0; 
stroke:#008484; stroke-width:80; stroke-opacity:1; 
stroke-linecap:round; stroke-linejoin:round;">
<path d="M92520 42190
L92470 42170
L92400 42170
L92330 42190
L92280 42240
L92260 42290
L92240 42380
L92240 42450
L92260 42550
L92280 42590
L92330 42640
L92400 42670
L92450 42670
L92520 42640
L92540 42620
L92540 42450
L92450 42450
" />
<path d="M92760 42670
L92760 42170
L93040 42670
L93040 42170
" />
<path d="M93280 42670
L93280 42170
L93400 42170
L93470 42190
L93520 42240
L93540 42290
L93560 42380
L93560 42450
L93540 42550
L93520 42590
L93470 42640
L93400 42670
L93280 42670
" />
</g>
<g style="fill:#008484; fill-opacity:0.0; 
stroke:#008484; stroke-width:100; stroke-opacity:1; 
stroke-linecap:round; stroke-linejoin:round;">
</g>
<g style="fill:#0000C2; fill-opacity:0.0; 
stroke:#0000C2; stroke-width:100; stroke-opacity:1; 
stroke-linecap:round; stroke-linejoin:round;">
<path d="M59610 39130
L59640 39100
L59700 39070
L59840 39070
L59900 39100
L59930 39130
L59960 39190
L59960 39240
L59930 39330
L59590 39670
L59960 39670
" />
<path d="M60470 39270
L60470 39670
" />
<path d="M60330 39040
L60180 39470
L60560 39470
" />
<path d="M60900 39070
L60950 39070
L61010 39100
L61040 39130
L61070 39190
L61100 39300
L61100 39440
L61070 39560
L61040 39610
L61010 39640
L60950 39670
L60900 39670
L60840 39640
L60810 39610
L60780 39560
L60750 39440
L60750 39300
L60780 39190
L60810 39130
L60840 39100
L60900 39070
" />
<path d="M61270 39070
L61470 39670
L61670 39070
" />
<path d="M61830 39500
L62120 39500
" />
<path d="M61780 39670
L61980 39070
L62180 39670
" />
<path d="M62720 39610
L62690 39640
L62600 39670
L62540 39670
L62460 39640
L62400 39590
L62370 39530
L62340 39410
L62340 39330
L62370 39210
L62400 39160
L62460 39100
L62540 39070
L62600 39070
L62690 39100
L62720 39130
" />
<path d="M65960 37070
L65610 37070
" />
<path d="M65790 37070
L65790 36470
L65730 36560
L65670 36610
L65610 36640
" />
<path d="M66500 36470
L66210 36470
L66180 36760
L66210 36730
L66270 36700
L66410 36700
L66470 36730
L66500 36760
L66530 36810
L66530 36960
L66500 37010
L66470 37040
L66410 37070
L66270 37070
L66210 37040
L66180 37010
" />
<path d="M66700 36470
L66900 37070
L67100 36470
" />
<path d="M67260 36900
L67550 36900
" />
<path d="M67210 37070
L67410 36470
L67610 37070
" />
<path d="M68150 37010
L68120 37040
L68030 37070
L67970 37070
L67890 37040
L67830 36990
L67800 36930
L67770 36810
L67770 36730
L67800 36610
L67830 36560
L67890 36500
L67970 36470
L68030 36470
L68120 36500
L68150 36530
" />
<path d="M65960 42170
L65610 42170
" />
<path d="M65790 42170
L65790 41570
L65730 41660
L65670 41710
L65610 41740
" />
<path d="M66500 41570
L66210 41570
L66180 41860
L66210 41830
L66270 41800
L66410 41800
L66470 41830
L66500 41860
L66530 41910
L66530 42060
L66500 42110
L66470 42140
L66410 42170
L66270 42170
L66210 42140
L66180 42110
" />
<path d="M66700 41570
L66900 42170
L67100 41570
" />
<path d="M67260 42000
L67550 42000
" />
<path d="M67210 42170
L67410 41570
L67610 42170
" />
<path d="M68150 42110
L68120 42140
L68030 42170
L67970 42170
L67890 42140
L67830 42090
L67800 42030
L67770 41910
L67770 41830
L67800 41710
L67830 41660
L67890 41600
L67970 41570
L68030 41570
L68120 41600
L68150 41630
" />
</g>
<g style="fill:#008400; fill-opacity:0.0; 
stroke:#008400; stroke-width:100; stroke-opacity:1; 
stroke-linecap:round; stroke-linejoin:round;">
<path d="M22100 42100
L27300 42100
" />
<path d="M27300 42100
L27300 52100
" />
</g>
<g style="fill:#0000C2; fill-opacity:0.0; 
stroke:#0000C2; stroke-width:100; stroke-opacity:1; 
stroke-linecap:round; stroke-linejoin:round;">
</g>
<g style="fill:#0000C2; fill-opacity:0.0; 
stroke:#0000C2; stroke-width:100; stroke-opacity:1; 
stroke-linecap:round; stroke-linejoin:round;stroke-dasharray:96.8504,198.425;">
<path d="M47900 36900
L53600 36900
" />
</g>
<g style="fill:#0000C2; fill-opacity:0.0; 
stroke:#0000C2; stroke-width:100; stroke-opacity:1; 
stroke-linecap:round; stroke-linejoin:round;">
</g>
<g style="fill:#0000C2; fill-opacity:0.0; 
stroke:#0000C2; stroke-width:100; stroke-opacity:1; 
stroke-linecap:round; stroke-linejoin:round;stroke-dasharray:96.8504,198.425;">
<path d="M53600 36900
L53600 41300
" />
</g>
<g style="fill:#0000C2; fill-opacity:0.0; 
stroke:#0000C2; stroke-width:100; stroke-opacity:1; 
stroke-linecap:round; stroke-linejoin:round;">
</g>
<g style="fill:#0000C2; fill-opacity:0.0; 
stroke:#0000C2; stroke-width:100; stroke-opacity:1; 
stroke-linecap:round; stroke-linejoin:round;stroke-dasharray:96.8504,198.425;">
<path d="M53600 41300
L47900 41300
" />
</g>
<g style="fill:#0000C2; fill-opacity:0.0; 
stroke:#0000C2; stroke-width:100; stroke-opacity:1; 
stroke-linecap:round; stroke-linejoin:round;">
</g>
<g style="fill:#0000C2; fill-opacity:0.0; 
stroke:#0000C2; stroke-width:100; stroke-opacity:1; 
stroke-linecap:round; stroke-linejoin:round;stroke-dasharray:96.8504,198.425;">
<path d="M47900 41300
L47900 36900
" />
</g>
<g style="fill:#0000C2; fill-opacity:0.0; 
stroke:#0000C2; stroke-width:100; stroke-opacity:1; 
stroke-linecap:round; stroke-linejoin:round;">
</g>
<g style="fill:#008400; fill-opacity:0.0; 
stroke:#008400; stroke-width:100; stroke-opacity:1; 
stroke-linecap:round; stroke-linejoin:round;">
<path d="M48300 38100
L49200 38100
" />
<path d="M49200 38100
L49200 37200
" />
<path d="M49200 37200
L50600 37200
" />
<path d="M50600 37200
L50600 37600
" />
<path d="M48300 40100
L49200 40100
" />
<path d="M49200 40100
L49200 41000
" />
<path d="M49200 41000
L50600 41000
" />
<path d="M50600 41000
L50600 40600
" />
<path d="M22100 38100
L33700 38100
" />
<path d="M33700 38100
L33700 29900
" />
<path d="M33700 29900
L36200 29900
" />
<path d="M22100 40100
L33700 40100
" />
<path d="M33700 40100
L33700 48800
" />
<path d="M33700 48800
L59000 48800
" />
<path d="M39200 29900
L59000 29900
" />
<path d="M41900 29900
L41900 38100
" />
<path d="M41900 48800
L41900 40100
" />
</g>
<g style="fill:#008400; fill-opacity:0.0; 
stroke:#008400; stroke-width:0; stroke-opacity:1; 
stroke-linecap:round; stroke-linejoin:round;">
</g>
<g style="fill:#008400; fill-opacity:1.0; 
stroke:#008400; stroke-width:100; stroke-opacity:1; 
stroke-linecap:round; stroke-linejoin:round;">
<circle cx="41900" cy="48800" r="200" /> 
</g>
<g style="fill:#008400; fill-opacity:0.0; 
stroke:#008400; stroke-width:100; stroke-opacity:1; 
stroke-linecap:round; stroke-linejoin:round;">
<path d="M80900 36100
L80900 42100
" />
</g>
<g style="fill:#008400; fill-opacity:0.0; 
stroke:#008400; stroke-width:0; stroke-opacity:1; 
stroke-linecap:round; stroke-linejoin:round;">
</g>
<g style="fill:#008400; fill-opacity:1.0; 
stroke:#008400; stroke-width:100; stroke-opacity:1; 
stroke-linecap:round; stroke-linejoin:round;">
<circle cx="80900" cy="39300" r="200" /> 
</g>
<g style="fill:#008400; fill-opacity:1.0; 
stroke:#008400; stroke-width:0; stroke-opacity:1; 
stroke-linecap:round; stroke-linejoin:round;">
</g>
<g style="fill:#008400; fill-opacity:1.0; 
stroke:#008400; stroke-width:100; stroke-opacity:1; 
stroke-linecap:round; stroke-linejoin:round;">
<circle cx="41900" cy="29900" r="200" /> 
</g>
<g style="fill:#008400; fill-opacity:0.0; 
stroke:#008400; stroke-width:100; stroke-opacity:1; 
stroke-linecap:round; stroke-linejoin:round;">
<path d="M74800 29900
L92900 29900
" />
<path d="M80900 29900
L80900 33100
" />
<path d="M74800 48800
L92900 48800
" />
<path d="M80900 48800
L80900 45100
" />
</g>
<g style="fill:#008400; fill-opacity:0.0; 
stroke:#008400; stroke-width:0; stroke-opacity:1; 
stroke-linecap:round; stroke-linejoin:round;">
</g>
<g style="fill:#008400; fill-opacity:1.0; 
stroke:#008400; stroke-width:100; stroke-opacity:1; 
stroke-linecap:round; stroke-linejoin:round;">
<circle cx="80900" cy="29900" r="200" /> 
</g>
<g style="fill:#008400; fill-opacity:1.0; 
stroke:#008400; stroke-width:0; stroke-opacity:1; 
stroke-linecap:round; stroke-linejoin:round;">
</g>
<g style="fill:#008400; fill-opacity:1.0; 
stroke:#008400; stroke-width:100; stroke-opacity:1; 
stroke-linecap:round; stroke-linejoin:round;">
<circle cx="80900" cy="48800" r="200" /> 
</g>
<g style="fill:#008400; fill-opacity:0.0; 
stroke:#008400; stroke-width:100; stroke-opacity:1; 
stroke-linecap:round; stroke-linejoin:round;">
<path d="M69000 39300
L92900 39300
" />
<path d="M92900 39300
L92900 40900
" />
</g>
<g style="fill:#0000C2; fill-opacity:0.0; 
stroke:#0000C2; stroke-width:100; stroke-opacity:1; 
stroke-linecap:round; stroke-linejoin:round;">
<path d="M83270 34940
L83210 34970
L83100 34970
L83040 34940
L83010 34890
L83010 34660
L83040 34610
L83100 34580
L83210 34580
L83270 34610
L83290 34660
L83290 34720
L83010 34780
" />
<path d="M83550 34920
L83580 34940
L83550 34970
L83520 34940
L83550 34920
L83550 34970
" />
<path d="M84080 34580
L84080 35060
L84060 35110
L84030 35140
L83970 35170
L83890 35170
L83830 35140
" />
<path d="M84080 34940
L84030 34970
L83910 34970
L83860 34940
L83830 34920
L83800 34860
L83800 34690
L83830 34630
L83860 34610
L83910 34580
L84030 34580
L84080 34610
" />
<path d="M84360 34920
L84390 34940
L84360 34970
L84330 34940
L84360 34920
L84360 34970
" />
<path d="M85400 34970
L85060 34970
" />
<path d="M85230 34970
L85230 34380
L85170 34470
L85120 34520
L85060 34550
" />
<path d="M85650 34920
L85680 34940
L85650 34970
L85620 34940
L85650 34920
L85650 34970
" />
<path d="M86210 34380
L85930 34380
L85900 34660
L85930 34630
L85990 34610
L86130 34610
L86180 34630
L86210 34660
L86240 34720
L86240 34860
L86210 34920
L86180 34940
L86130 34970
L85990 34970
L85930 34940
L85900 34920
" />
<path d="M86830 34920
L86800 34940
L86720 34970
L86660 34970
L86570 34940
L86520 34890
L86490 34830
L86460 34720
L86460 34630
L86490 34520
L86520 34470
L86570 34410
L86660 34380
L86720 34380
L86800 34410
L86830 34440
" />
<path d="M87080 34660
L87280 34660
" />
<path d="M87360 34970
L87080 34970
L87080 34380
L87360 34380
" />
<path d="M87580 34440
L87610 34410
L87670 34380
L87810 34380
L87860 34410
L87890 34440
L87920 34490
L87920 34550
L87890 34630
L87550 34970
L87920 34970
" />
<path d="M88110 34380
L88510 34380
L88250 34970
" />
<path d="M89070 34920
L89040 34940
L88960 34970
L88900 34970
L88810 34940
L88760 34890
L88730 34830
L88700 34720
L88700 34630
L88730 34520
L88760 34470
L88810 34410
L88900 34380
L88960 34380
L89040 34410
L89070 34440
" />
<path d="M89290 34800
L89570 34800
" />
<path d="M89240 34970
L89430 34380
L89630 34970
" />
<path d="M83270 43840
L83210 43870
L83100 43870
L83040 43840
L83010 43790
L83010 43560
L83040 43510
L83100 43480
L83210 43480
L83270 43510
L83290 43560
L83290 43620
L83010 43680
" />
<path d="M83550 43820
L83580 43840
L83550 43870
L83520 43840
L83550 43820
L83550 43870
" />
<path d="M84080 43480
L84080 43960
L84060 44010
L84030 44040
L83970 44070
L83890 44070
L83830 44040
" />
<path d="M84080 43840
L84030 43870
L83910 43870
L83860 43840
L83830 43820
L83800 43760
L83800 43590
L83830 43530
L83860 43510
L83910 43480
L84030 43480
L84080 43510
" />
<path d="M84360 43820
L84390 43840
L84360 43870
L84330 43840
L84360 43820
L84360 43870
" />
<path d="M85400 43870
L85060 43870
" />
<path d="M85230 43870
L85230 43280
L85170 43370
L85120 43420
L85060 43450
" />
<path d="M85650 43820
L85680 43840
L85650 43870
L85620 43840
L85650 43820
L85650 43870
" />
<path d="M86210 43280
L85930 43280
L85900 43560
L85930 43530
L85990 43510
L86130 43510
L86180 43530
L86210 43560
L86240 43620
L86240 43760
L86210 43820
L86180 43840
L86130 43870
L85990 43870
L85930 43840
L85900 43820
" />
<path d="M86830 43820
L86800 43840
L86720 43870
L86660 43870
L86570 43840
L86520 43790
L86490 43730
L86460 43620
L86460 43530
L86490 43420
L86520 43370
L86570 43310
L86660 43280
L86720 43280
L86800 43310
L86830 43340
" />
<path d="M87080 43560
L87280 43560
" />
<path d="M87360 43870
L87080 43870
L87080 43280
L87360 43280
" />
<path d="M87580 43340
L87610 43310
L87670 43280
L87810 43280
L87860 43310
L87890 43340
L87920 43390
L87920 43450
L87890 43530
L87550 43870
L87920 43870
" />
<path d="M88110 43280
L88510 43280
L88250 43870
" />
<path d="M89070 43820
L89040 43840
L88960 43870
L88900 43870
L88810 43840
L88760 43790
L88730 43730
L88700 43620
L88700 43530
L88730 43420
L88760 43370
L88810 43310
L88900 43280
L88960 43280
L89040 43310
L89070 43340
" />
<path d="M89290 43700
L89570 43700
" />
<path d="M89240 43870
L89430 43280
L89630 43870
" />
<path d="M93540 29940
L94000 29940
" />
<path d="M93770 30170
L93770 29710
" />
<path d="M94600 30170
L94250 30170
" />
<path d="M94430 30170
L94430 29570
L94370 29660
L94310 29710
L94250 29740
" />
<path d="M95140 29570
L94850 29570
L94820 29860
L94850 29830
L94910 29800
L95050 29800
L95110 29830
L95140 29860
L95170 29910
L95170 30060
L95140 30110
L95110 30140
L95050 30170
L94910 30170
L94850 30140
L94820 30110
" />
<path d="M95340 29570
L95540 30170
L95740 29570
" />
<path d="M96360 30140
L96420 30170
L96540 30170
L96590 30140
L96620 30090
L96620 30060
L96590 30000
L96540 29970
L96450 29970
L96390 29940
L96360 29890
L96360 29860
L96390 29800
L96450 29770
L96540 29770
L96590 29800
" />
<path d="M97140 29770
L97140 30170
" />
<path d="M96880 29770
L96880 30090
L96910 30140
L96970 30170
L97050 30170
L97110 30140
L97140 30110
" />
<path d="M97420 29770
L97420 30370
" />
<path d="M97420 29800
L97480 29770
L97590 29770
L97650 29800
L97680 29830
L97710 29890
L97710 30060
L97680 30110
L97650 30140
L97590 30170
L97480 30170
L97420 30140
" />
<path d="M97960 29770
L97960 30370
" />
<path d="M97960 29800
L98020 29770
L98130 29770
L98190 29800
L98220 29830
L98250 29890
L98250 30060
L98220 30110
L98190 30140
L98130 30170
L98020 30170
L97960 30140
" />
<path d="M98590 30170
L98530 30140
L98500 30090
L98500 29570
" />
<path d="M98760 29770
L98900 30170
" />
<path d="M99040 29770
L98900 30170
L98840 30310
L98810 30340
L98760 30370
" />
<path d="M93540 48840
L94000 48840
" />
<path d="M94600 49070
L94250 49070
" />
<path d="M94430 49070
L94430 48470
L94370 48560
L94310 48610
L94250 48640
" />
<path d="M95140 48470
L94850 48470
L94820 48760
L94850 48730
L94910 48700
L95050 48700
L95110 48730
L95140 48760
L95170 48810
L95170 48960
L95140 49010
L95110 49040
L95050 49070
L94910 49070
L94850 49040
L94820 49010
" />
<path d="M95340 48470
L95540 49070
L95740 48470
" />
<path d="M96360 49040
L96420 49070
L96540 49070
L96590 49040
L96620 48990
L96620 48960
L96590 48900
L96540 48870
L96450 48870
L96390 48840
L96360 48790
L96360 48760
L96390 48700
L96450 48670
L96540 48670
L96590 48700
" />
<path d="M97140 48670
L97140 49070
" />
<path d="M96880 48670
L96880 48990
L96910 49040
L96970 49070
L97050 49070
L97110 49040
L97140 49010
" />
<path d="M97420 48670
L97420 49270
" />
<path d="M97420 48700
L97480 48670
L97590 48670
L97650 48700
L97680 48730
L97710 48790
L97710 48960
L97680 49010
L97650 49040
L97590 49070
L97480 49070
L97420 49040
" />
<path d="M97960 48670
L97960 49270
" />
<path d="M97960 48700
L98020 48670
L98130 48670
L98190 48700
L98220 48730
L98250 48790
L98250 48960
L98220 49010
L98190 49040
L98130 49070
L98020 49070
L97960 49040
" />
<path d="M98590 49070
L98530 49040
L98500 48990
L98500 48470
" />
<path d="M98760 48670
L98900 49070
" />
<path d="M99040 48670
L98900 49070
L98840 49210
L98810 49240
L98760 49270
" />
</g>
<g style="fill:#0000C2; fill-opacity:0.0; 
stroke:#0000C2; stroke-width:0; stroke-opacity:1; 
stroke-linecap:round; stroke-linejoin:round;">
</g>
<g style="fill:#840000; fill-opacity:0.0; 
stroke:#840000; stroke-width:0; stroke-opacity:1; 
stroke-linecap:round; stroke-linejoin:round;">
</g>
<g style="fill:#840000; fill-opacity:0.0; 
stroke:#840000; stroke-width:200; stroke-opacity:1; 
stroke-linecap:round; stroke-linejoin:round;">
<polyline fill="none;"
points="76400,34900
78000,34900
" /> 
<polyline fill="none;"
points="76400,34300
78000,34300
" /> 
</g>
<g style="fill:#840000; fill-opacity:0.0; 
stroke:#840000; stroke-width:100; stroke-opacity:1; 
stroke-linecap:round; stroke-linejoin:round;">
<path d="M77200 34200
L77200 33100
" />
<path d="M77200 35000
L77200 36100
" />
</g>
<g style="fill:#840000; fill-opacity:0.0; 
stroke:#840000; stroke-width:0; stroke-opacity:1; 
stroke-linecap:round; stroke-linejoin:round;">
</g>
<g style="fill:#840000; fill-opacity:0.0; 
stroke:#840000; stroke-width:200; stroke-opacity:1; 
stroke-linecap:round; stroke-linejoin:round;">
<polyline fill="none;"
points="76400,43900
78000,43900
" /> 
<polyline fill="none;"
points="76400,43300
78000,43300
" /> 
</g>
<g style="fill:#840000; fill-opacity:0.0; 
stroke:#840000; stroke-width:100; stroke-opacity:1; 
stroke-linecap:round; stroke-linejoin:round;">
<path d="M77200 43200
L77200 42100
" />
<path d="M77200 44000
L77200 45100
" />
</g>
<g style="fill:#008400; fill-opacity:0.0; 
stroke:#008400; stroke-width:100; stroke-opacity:1; 
stroke-linecap:round; stroke-linejoin:round;">
<path d="M77200 33100
L77200 29900
" />
</g>
<g style="fill:#008400; fill-opacity:0.0; 
stroke:#008400; stroke-width:0; stroke-opacity:1; 
stroke-linecap:round; stroke-linejoin:round;">
</g>
<g style="fill:#008400; fill-opacity:1.0; 
stroke:#008400; stroke-width:100; stroke-opacity:1; 
stroke-linecap:round; stroke-linejoin:round;">
<circle cx="77200" cy="29900" r="200" /> 
</g>
<g style="fill:#008400; fill-opacity:0.0; 
stroke:#008400; stroke-width:100; stroke-opacity:1; 
stroke-linecap:round; stroke-linejoin:round;">
<path d="M77200 36100
L77200 42100
" />
</g>
<g style="fill:#008400; fill-opacity:0.0; 
stroke:#008400; stroke-width:0; stroke-opacity:1; 
stroke-linecap:round; stroke-linejoin:round;">
</g>
<g style="fill:#008400; fill-opacity:1.0; 
stroke:#008400; stroke-width:100; stroke-opacity:1; 
stroke-linecap:round; stroke-linejoin:round;">
<circle cx="77200" cy="39300" r="200" /> 
</g>
<g style="fill:#008400; fill-opacity:0.0; 
stroke:#008400; stroke-width:100; stroke-opacity:1; 
stroke-linecap:round; stroke-linejoin:round;">
<path d="M77200 45100
L77200 48800
" />
</g>
<g style="fill:#008400; fill-opacity:0.0; 
stroke:#008400; stroke-width:0; stroke-opacity:1; 
stroke-linecap:round; stroke-linejoin:round;">
</g>
<g style="fill:#008400; fill-opacity:1.0; 
stroke:#008400; stroke-width:100; stroke-opacity:1; 
stroke-linecap:round; stroke-linejoin:round;">
<circle cx="77200" cy="48800" r="200" /> 
</g>
<g style="fill:#0000C2; fill-opacity:0.0; 
stroke:#0000C2; stroke-width:100; stroke-opacity:1; 
stroke-linecap:round; stroke-linejoin:round;">
<path d="M74670 34060
L74610 34090
L74500 34090
L74440 34060
L74410 34010
L74410 33780
L74440 33730
L74500 33700
L74610 33700
L74670 33730
L74690 33780
L74690 33840
L74410 33900
" />
<path d="M74950 34040
L74980 34060
L74950 34090
L74920 34060
L74950 34040
L74950 34090
" />
<path d="M75480 33700
L75480 34180
L75460 34230
L75430 34260
L75370 34290
L75290 34290
L75230 34260
" />
<path d="M75480 34060
L75430 34090
L75310 34090
L75260 34060
L75230 34040
L75200 33980
L75200 33810
L75230 33750
L75260 33730
L75310 33700
L75430 33700
L75480 33730
" />
<path d="M75760 34040
L75790 34060
L75760 34090
L75730 34060
L75760 34040
L75760 34090
" />
<path d="M73060 34390
L72950 34390
L72890 34420
L72870 34450
L72810 34530
L72780 34640
L72780 34870
L72810 34930
L72840 34950
L72890 34980
L73010 34980
L73060 34950
L73090 34930
L73120 34870
L73120 34730
L73090 34670
L73060 34640
L73010 34620
L72890 34620
L72840 34640
L72810 34670
L72780 34730
" />
<path d="M73450 34640
L73400 34620
L73370 34590
L73340 34530
L73340 34500
L73370 34450
L73400 34420
L73450 34390
L73570 34390
L73620 34420
L73650 34450
L73680 34500
L73680 34530
L73650 34590
L73620 34620
L73570 34640
L73450 34640
L73400 34670
L73370 34700
L73340 34760
L73340 34870
L73370 34930
L73400 34950
L73450 34980
L73570 34980
L73620 34950
L73650 34930
L73680 34870
L73680 34760
L73650 34700
L73620 34670
L73570 34640
" />
<path d="M73930 34590
L73930 34980
" />
<path d="M73930 34640
L73960 34620
L74010 34590
L74100 34590
L74160 34620
L74180 34670
L74180 34980
" />
<path d="M74660 34670
L74460 34670
" />
<path d="M74460 34980
L74460 34390
L74740 34390
" />
<path d="M75840 34360
L75340 35120
" />
<path d="M72640 35340
L72670 35310
L72730 35280
L72870 35280
L72920 35310
L72950 35340
L72980 35390
L72980 35450
L72950 35530
L72610 35870
L72980 35870
" />
<path d="M73510 35280
L73230 35280
L73200 35560
L73230 35530
L73290 35510
L73430 35510
L73480 35530
L73510 35560
L73540 35620
L73540 35760
L73510 35820
L73480 35840
L73430 35870
L73290 35870
L73230 35840
L73200 35820
" />
<path d="M73900 35280
L73960 35280
L74020 35310
L74040 35340
L74070 35390
L74100 35510
L74100 35650
L74070 35760
L74040 35820
L74020 35840
L73960 35870
L73900 35870
L73850 35840
L73820 35820
L73790 35760
L73760 35650
L73760 35510
L73790 35390
L73820 35340
L73850 35310
L73900 35280
" />
<path d="M74270 35280
L74460 35870
L74660 35280
" />
<path d="M74860 35870
L74860 35280
L75000 35280
L75090 35310
L75140 35370
L75170 35420
L75200 35530
L75200 35620
L75170 35730
L75140 35790
L75090 35840
L75000 35870
L74860 35870
" />
<path d="M75790 35820
L75760 35840
L75680 35870
L75620 35870
L75530 35840
L75480 35790
L75450 35730
L75420 35620
L75420 35530
L75450 35420
L75480 35370
L75530 35310
L75620 35280
L75680 35280
L75760 35310
L75790 35340
" />
<path d="M74670 43060
L74610 43090
L74500 43090
L74440 43060
L74410 43010
L74410 42780
L74440 42730
L74500 42700
L74610 42700
L74670 42730
L74690 42780
L74690 42840
L74410 42900
" />
<path d="M74950 43040
L74980 43060
L74950 43090
L74920 43060
L74950 43040
L74950 43090
" />
<path d="M75480 42700
L75480 43180
L75460 43230
L75430 43260
L75370 43290
L75290 43290
L75230 43260
" />
<path d="M75480 43060
L75430 43090
L75310 43090
L75260 43060
L75230 43040
L75200 42980
L75200 42810
L75230 42750
L75260 42730
L75310 42700
L75430 42700
L75480 42730
" />
<path d="M75760 43040
L75790 43060
L75760 43090
L75730 43060
L75760 43040
L75760 43090
" />
<path d="M73060 43390
L72950 43390
L72890 43420
L72870 43450
L72810 43530
L72780 43640
L72780 43870
L72810 43930
L72840 43950
L72890 43980
L73010 43980
L73060 43950
L73090 43930
L73120 43870
L73120 43730
L73090 43670
L73060 43640
L73010 43620
L72890 43620
L72840 43640
L72810 43670
L72780 43730
" />
<path d="M73450 43640
L73400 43620
L73370 43590
L73340 43530
L73340 43500
L73370 43450
L73400 43420
L73450 43390
L73570 43390
L73620 43420
L73650 43450
L73680 43500
L73680 43530
L73650 43590
L73620 43620
L73570 43640
L73450 43640
L73400 43670
L73370 43700
L73340 43760
L73340 43870
L73370 43930
L73400 43950
L73450 43980
L73570 43980
L73620 43950
L73650 43930
L73680 43870
L73680 43760
L73650 43700
L73620 43670
L73570 43640
" />
<path d="M73930 43590
L73930 43980
" />
<path d="M73930 43640
L73960 43620
L74010 43590
L74100 43590
L74160 43620
L74180 43670
L74180 43980
" />
<path d="M74660 43670
L74460 43670
" />
<path d="M74460 43980
L74460 43390
L74740 43390
" />
<path d="M75840 43360
L75340 44120
" />
<path d="M72640 44340
L72670 44310
L72730 44280
L72870 44280
L72920 44310
L72950 44340
L72980 44390
L72980 44450
L72950 44530
L72610 44870
L72980 44870
" />
<path d="M73510 44280
L73230 44280
L73200 44560
L73230 44530
L73290 44510
L73430 44510
L73480 44530
L73510 44560
L73540 44620
L73540 44760
L73510 44820
L73480 44840
L73430 44870
L73290 44870
L73230 44840
L73200 44820
" />
<path d="M73900 44280
L73960 44280
L74020 44310
L74040 44340
L74070 44390
L74100 44510
L74100 44650
L74070 44760
L74040 44820
L74020 44840
L73960 44870
L73900 44870
L73850 44840
L73820 44820
L73790 44760
L73760 44650
L73760 44510
L73790 44390
L73820 44340
L73850 44310
L73900 44280
" />
<path d="M74270 44280
L74460 44870
L74660 44280
" />
<path d="M74860 44870
L74860 44280
L75000 44280
L75090 44310
L75140 44370
L75170 44420
L75200 44530
L75200 44620
L75170 44730
L75140 44790
L75090 44840
L75000 44870
L74860 44870
" />
<path d="M75790 44820
L75760 44840
L75680 44870
L75620 44870
L75530 44840
L75480 44790
L75450 44730
L75420 44620
L75420 44530
L75450 44420
L75480 44370
L75530 44310
L75620 44280
L75680 44280
L75760 44310
L75790 44340
" />
<path d="M41580 26240
L41580 25060
L42030 25060
L42140 25120
L42200 25180
L42260 25290
L42260 25460
L42200 25570
L42140 25630
L42030 25680
L41580 25680
" />
<path d="M42760 26240
L42760 25460
" />
<path d="M42760 25680
L42820 25570
L42870 25510
L42990 25460
L43100 25460
" />
<path d="M43490 26240
L43490 25460
" />
<path d="M43490 25060
L43430 25120
L43490 25180
L43550 25120
L43490 25060
L43490 25180
" />
<path d="M44050 26240
L44050 25460
" />
<path d="M44050 25570
L44110 25510
L44220 25460
L44390 25460
L44500 25510
L44560 25630
L44560 26240
" />
<path d="M44560 25630
L44610 25510
L44730 25460
L44890 25460
L45010 25510
L45060 25630
L45060 26240
" />
<path d="M46130 26240
L46130 25630
L46070 25510
L45960 25460
L45730 25460
L45620 25510
" />
<path d="M46130 26190
L46010 26240
L45730 26240
L45620 26190
L45560 26080
L45560 25960
L45620 25850
L45730 25790
L46010 25790
L46130 25740
" />
<path d="M46690 26240
L46690 25460
" />
<path d="M46690 25680
L46750 25570
L46800 25510
L46920 25460
L47030 25460
" />
<path d="M47310 25460
L47590 26240
" />
<path d="M47870 25460
L47590 26240
L47480 26520
L47420 26580
L47310 26640
" />
<path d="M49160 26190
L49280 26240
L49500 26240
L49610 26190
L49670 26080
L49670 26020
L49610 25910
L49500 25850
L49330 25850
L49220 25790
L49160 25680
L49160 25630
L49220 25510
L49330 25460
L49500 25460
L49610 25510
" />
<path d="M50180 26240
L50180 25460
" />
<path d="M50180 25060
L50120 25120
L50180 25180
L50240 25120
L50180 25060
L50180 25180
" />
<path d="M51250 26240
L51250 25060
" />
<path d="M51250 26190
L51130 26240
L50910 26240
L50800 26190
L50740 26130
L50680 26020
L50680 25680
L50740 25570
L50800 25510
L50910 25460
L51130 25460
L51250 25510
" />
<path d="M52260 26190
L52150 26240
L51920 26240
L51810 26190
L51750 26080
L51750 25630
L51810 25510
L51920 25460
L52150 25460
L52260 25510
L52320 25630
L52320 25740
L51750 25850
" />
<path d="M71820 26190
L71990 26240
L72270 26240
L72390 26190
L72440 26130
L72500 26020
L72500 25910
L72440 25790
L72390 25740
L72270 25680
L72050 25630
L71940 25570
L71880 25510
L71820 25400
L71820 25290
L71880 25180
L71940 25120
L72050 25060
L72330 25060
L72500 25120
" />
<path d="M73450 26190
L73340 26240
L73110 26240
L73000 26190
L72940 26080
L72940 25630
L73000 25510
L73110 25460
L73340 25460
L73450 25510
L73510 25630
L73510 25740
L72940 25850
" />
<path d="M74520 26190
L74400 26240
L74180 26240
L74070 26190
L74010 26130
L73950 26020
L73950 25680
L74010 25570
L74070 25510
L74180 25460
L74400 25460
L74520 25510
" />
<path d="M75190 26240
L75080 26190
L75020 26130
L74960 26020
L74960 25680
L75020 25570
L75080 25510
L75190 25460
L75360 25460
L75470 25510
L75530 25570
L75580 25680
L75580 26020
L75530 26130
L75470 26190
L75360 26240
L75190 26240
" />
<path d="M76090 25460
L76090 26240
" />
<path d="M76090 25570
L76150 25510
L76260 25460
L76430 25460
L76540 25510
L76600 25630
L76600 26240
" />
<path d="M77670 26240
L77670 25060
" />
<path d="M77670 26190
L77550 26240
L77330 26240
L77220 26190
L77160 26130
L77100 26020
L77100 25680
L77160 25570
L77220 25510
L77330 25460
L77550 25460
L77670 25510
" />
<path d="M78740 26240
L78740 25630
L78680 25510
L78570 25460
L78340 25460
L78230 25510
" />
<path d="M78740 26190
L78620 26240
L78340 26240
L78230 26190
L78170 26080
L78170 25960
L78230 25850
L78340 25790
L78620 25790
L78740 25740
" />
<path d="M79300 26240
L79300 25460
" />
<path d="M79300 25680
L79360 25570
L79410 25510
L79530 25460
L79640 25460
" />
<path d="M79920 25460
L80200 26240
" />
<path d="M80480 25460
L80200 26240
L80090 26520
L80030 26580
L79920 26640
" />
<path d="M81770 26190
L81890 26240
L82110 26240
L82220 26190
L82280 26080
L82280 26020
L82220 25910
L82110 25850
L81940 25850
L81830 25790
L81770 25680
L81770 25630
L81830 25510
L81940 25460
L82110 25460
L82220 25510
" />
<path d="M82790 26240
L82790 25460
" />
<path d="M82790 25060
L82730 25120
L82790 25180
L82850 25120
L82790 25060
L82790 25180
" />
<path d="M83860 26240
L83860 25060
" />
<path d="M83860 26190
L83740 26240
L83520 26240
L83410 26190
L83350 26130
L83290 26020
L83290 25680
L83350 25570
L83410 25510
L83520 25460
L83740 25460
L83860 25510
" />
<path d="M84870 26190
L84760 26240
L84530 26240
L84420 26190
L84360 26080
L84360 25630
L84420 25510
L84530 25460
L84760 25460
L84870 25510
L84930 25630
L84930 25740
L84360 25850
" />
</g>
<g style="fill:#0000C2; fill-opacity:0.0; 
stroke:#0000C2; stroke-width:100; stroke-opacity:1; 
stroke-linecap:round; stroke-linejoin:round;stroke-dasharray:96.8504,198.425;">
<path d="M64100 23000
L64100 34800
" />
</g>
<g style="fill:#0000C2; fill-opacity:0.0; 
stroke:#0000C2; stroke-width:100; stroke-opacity:1; 
stroke-linecap:round; stroke-linejoin:round;">
</g>
<g style="fill:#0000C2; fill-opacity:0.0; 
stroke:#0000C2; stroke-width:100; stroke-opacity:1; 
stroke-linecap:round; stroke-linejoin:round;stroke-dasharray:96.8504,198.425;">
<path d="M64100 43900
L64100 53900
" />
</g>
<g style="fill:#0000C2; fill-opacity:0.0; 
stroke:#0000C2; stroke-width:100; stroke-opacity:1; 
stroke-linecap:round; stroke-linejoin:round;">
</g>
<g style="fill:#0000C2; fill-opacity:0.0; 
stroke:#0000C2; stroke-width:0; stroke-opacity:1; 
stroke-linecap:round; stroke-linejoin:round;">
</g>
<g style="fill:#840000; fill-opacity:0.0; 
stroke:#840000; stroke-width:0; stroke-opacity:1; 
stroke-linecap:round; stroke-linejoin:round;">
</g>
<g style="fill:#840000; fill-opacity:0.0; 
stroke:#840000; stroke-width:100; stroke-opacity:1; 
stroke-linecap:round; stroke-linejoin:round;">
<path d="M63600 40799.1 A500 500 0.0 0 0 63100.9 40300 " />
<path d="M63100.9 41300 A500 500 0.0 0 0 63600 40800.9 " />
<path d="M63600 39799.1 A500 500 0.0 0 0 63100.9 39300 " />
<path d="M63100.9 40300 A500 500 0.0 0 0 63600 39800.9 " />
<path d="M63600 38799.1 A500 500 0.0 0 0 63100.9 38300 " />
<path d="M63100.9 39300 A500 500 0.0 0 0 63600 38800.9 " />
<path d="M63600 37799.1 A500 500 0.0 0 0 63100.9 37300 " />
<path d="M63100.9 38300 A500 500 0.0 0 0 63600 37800.9 " />
<path d="M65100.9 42300 A500 500 0.0 0 0 64600 42800.9 " />
<path d="M64600 42799.1 A500 500 0.0 0 0 65100.9 43300 " />
<path d="M65100.9 41300 A500 500 0.0 0 0 64600 41800.9 " />
<path d="M64600 41799.1 A500 500 0.0 0 0 65100.9 42300 " />
<path d="M65100.9 40300 A500 500 0.0 0 0 64600 40800.9 " />
<path d="M64600 40799.1 A500 500 0.0 0 0 65100.9 41300 " />
<path d="M65100.9 37300 A500 500 0.0 0 0 64600 37800.9 " />
<path d="M64600 37799.1 A500 500 0.0 0 0 65100.9 38300 " />
<path d="M65100.9 36300 A500 500 0.0 0 0 64600 36800.9 " />
<path d="M64600 36799.1 A500 500 0.0 0 0 65100.9 37300 " />
<path d="M65100.9 35300 A500 500 0.0 0 0 64600 35800.9 " />
<path d="M64600 35799.1 A500 500 0.0 0 0 65100.9 36300 " />
<polyline fill="none;"
points="63900,43300
63900,35300
" /> 
<polyline fill="none;"
points="64300,35300
64300,43300
" /> 
<path d="M63100 37300
L60100 37300
" />
</g>
<g style="fill:#840000; fill-opacity:0.0; 
stroke:#840000; stroke-width:80; stroke-opacity:1; 
stroke-linecap:round; stroke-linejoin:round;">
<path d="M61740 37180
L61460 37180
" />
<path d="M61600 37180
L61600 36680
L61550 36750
L61500 36800
L61460 36820
" />
</g>
<g style="fill:#840000; fill-opacity:0.0; 
stroke:#840000; stroke-width:100; stroke-opacity:1; 
stroke-linecap:round; stroke-linejoin:round;">
<path d="M63100 41300
L60100 41300
" />
</g>
<g style="fill:#840000; fill-opacity:0.0; 
stroke:#840000; stroke-width:80; stroke-opacity:1; 
stroke-linecap:round; stroke-linejoin:round;">
<path d="M61460 40720
L61480 40700
L61530 40680
L61650 40680
L61690 40700
L61720 40720
L61740 40770
L61740 40820
L61720 40890
L61430 41180
L61740 41180
" />
</g>
<g style="fill:#840000; fill-opacity:0.0; 
stroke:#840000; stroke-width:100; stroke-opacity:1; 
stroke-linecap:round; stroke-linejoin:round;">
<path d="M65100 35300
L68100 35300
" />
</g>
<g style="fill:#840000; fill-opacity:0.0; 
stroke:#840000; stroke-width:80; stroke-opacity:1; 
stroke-linecap:round; stroke-linejoin:round;">
<path d="M66430 34680
L66740 34680
L66570 34870
L66650 34870
L66690 34890
L66720 34910
L66740 34960
L66740 35080
L66720 35130
L66690 35150
L66650 35180
L66500 35180
L66460 35150
L66430 35130
" />
</g>
<g style="fill:#840000; fill-opacity:0.0; 
stroke:#840000; stroke-width:100; stroke-opacity:1; 
stroke-linecap:round; stroke-linejoin:round;">
<path d="M65100 38300
L68100 38300
" />
</g>
<g style="fill:#840000; fill-opacity:0.0; 
stroke:#840000; stroke-width:80; stroke-opacity:1; 
stroke-linecap:round; stroke-linejoin:round;">
<path d="M66690 37840
L66690 38180
" />
<path d="M66570 37650
L66460 38010
L66760 38010
" />
</g>
<g style="fill:#840000; fill-opacity:0.0; 
stroke:#840000; stroke-width:100; stroke-opacity:1; 
stroke-linecap:round; stroke-linejoin:round;">
<path d="M65100 40300
L68100 40300
" />
</g>
<g style="fill:#840000; fill-opacity:0.0; 
stroke:#840000; stroke-width:80; stroke-opacity:1; 
stroke-linecap:round; stroke-linejoin:round;">
<path d="M66720 39680
L66480 39680
L66460 39910
L66480 39890
L66530 39870
L66650 39870
L66690 39890
L66720 39910
L66740 39960
L66740 40080
L66720 40130
L66690 40150
L66650 40180
L66530 40180
L66480 40150
L66460 40130
" />
</g>
<g style="fill:#840000; fill-opacity:0.0; 
stroke:#840000; stroke-width:100; stroke-opacity:1; 
stroke-linecap:round; stroke-linejoin:round;">
<path d="M65100 43300
L68100 43300
" />
</g>
<g style="fill:#840000; fill-opacity:0.0; 
stroke:#840000; stroke-width:80; stroke-opacity:1; 
stroke-linecap:round; stroke-linejoin:round;">
<path d="M66690 42680
L66600 42680
L66550 42700
L66530 42720
L66480 42800
L66460 42890
L66460 43080
L66480 43130
L66500 43150
L66550 43180
L66650 43180
L66690 43150
L66720 43130
L66740 43080
L66740 42960
L66720 42910
L66690 42890
L66650 42870
L66550 42870
L66500 42890
L66480 42910
L66460 42960
" />
</g>
<g style="fill:#840000; fill-opacity:0.0; 
stroke:#840000; stroke-width:100; stroke-opacity:1; 
stroke-linecap:round; stroke-linejoin:round;">
</g>
<g style="fill:#008400; fill-opacity:0.0; 
stroke:#008400; stroke-width:100; stroke-opacity:1; 
stroke-linecap:round; stroke-linejoin:round;">
<path d="M71800 29900
L69000 29900
" />
<path d="M69000 29900
L69000 35300
" />
<path d="M69000 35300
L68100 35300
" />
<path d="M68100 43300
L69000 43300
" />
<path d="M69000 43300
L69000 48800
" />
<path d="M69000 48800
L71800 48800
" />
<path d="M68100 38300
L69000 38300
" />
<path d="M69000 38300
L69000 40300
" />
<path d="M69000 40300
L68100 40300
" />
<path d="M59000 29900
L59000 37300
" />
<path d="M59000 37300
L60100 37300
" />
<path d="M59000 48800
L59000 41300
" />
<path d="M59000 41300
L60100 41300
" />
</g>
<g style="fill:#008400; fill-opacity:0.0; 
stroke:#008400; stroke-width:0; stroke-opacity:1; 
stroke-linecap:round; stroke-linejoin:round;">
</g>
<g style="fill:#008400; fill-opacity:1.0; 
stroke:#008400; stroke-width:100; stroke-opacity:1; 
stroke-linecap:round; stroke-linejoin:round;">
<circle cx="69000" cy="39300" r="200" /> 
</g> 
</svg>
