<?xml version="1.0" standalone="no"?>
 <!DOCTYPE svg PUBLIC "-//W3C//DTD SVG 1.1//EN" 
 "http://www.w3.org/Graphics/SVG/1.1/DTD/svg11.dtd"> 
<svg xmlns="http://www.w3.org/2000/svg" version="1.1" 
    width="41.9989cm" height="29.7002cm" viewBox="0 0 165350 116930 ">
<title>SVG Picture created as surge-protect_comms-surge-protect_comms.svg date 2017/08/18 12:55:49 </title>
  <desc>Picture generated by Eeschema-SVG </desc>
<g style="fill:#000000; fill-opacity:1;stroke:#000000; stroke-opacity:1;
stroke-linecap:round; stroke-linejoin:round; "
 transform="translate(0 0) scale(1 1)">
</g>
<g style="fill:#000000; fill-opacity:0.0; 
stroke:#000000; stroke-width:0; stroke-opacity:1; 
stroke-linecap:round; stroke-linejoin:round;">
</g>
<g style="fill:#840000; fill-opacity:0.0; 
stroke:#840000; stroke-width:0; stroke-opacity:1; 
stroke-linecap:round; stroke-linejoin:round;">
</g>
<g style="fill:#840000; fill-opacity:0.0; 
stroke:#840000; stroke-width:100; stroke-opacity:1; 
stroke-linecap:round; stroke-linejoin:round;">
<polyline fill="none;"
points="60000,51500
60000,50500
" /> 
</g>
<g style="fill:#840000; fill-opacity:0.0; 
stroke:#840000; stroke-width:80; stroke-opacity:1; 
stroke-linecap:round; stroke-linejoin:round;">
<polyline fill="none;"
points="60500,50000
60000,51000
59500,50000
60500,50000
" /> 
<polyline fill="none;"
points="59500,51200
59500,51000
60500,51000
60500,50800
" /> 
<polyline fill="none;"
points="59500,52000
60500,52000
60000,51000
59500,52000
" /> 
</g>
<g style="fill:#840000; fill-opacity:0.0; 
stroke:#840000; stroke-width:100; stroke-opacity:1; 
stroke-linecap:round; stroke-linejoin:round;">
<path d="M60000 50500
L60000 49500
" />
<path d="M60000 51500
L60000 52500
" />
</g>
<g style="fill:#840000; fill-opacity:0.0; 
stroke:#840000; stroke-width:0; stroke-opacity:1; 
stroke-linecap:round; stroke-linejoin:round;">
</g>
<g style="fill:#840000; fill-opacity:0.0; 
stroke:#840000; stroke-width:100; stroke-opacity:1; 
stroke-linecap:round; stroke-linejoin:round;">
<polyline fill="none;"
points="60000,60500
60000,59500
" /> 
</g>
<g style="fill:#840000; fill-opacity:0.0; 
stroke:#840000; stroke-width:80; stroke-opacity:1; 
stroke-linecap:round; stroke-linejoin:round;">
<polyline fill="none;"
points="60500,59000
60000,60000
59500,59000
60500,59000
" /> 
<polyline fill="none;"
points="59500,60200
59500,60000
60500,60000
60500,59800
" /> 
<polyline fill="none;"
points="59500,61000
60500,61000
60000,60000
59500,61000
" /> 
</g>
<g style="fill:#840000; fill-opacity:0.0; 
stroke:#840000; stroke-width:100; stroke-opacity:1; 
stroke-linecap:round; stroke-linejoin:round;">
<path d="M60000 59500
L60000 58500
" />
<path d="M60000 60500
L60000 61500
" />
</g>
<g style="fill:#840000; fill-opacity:0.0; 
stroke:#840000; stroke-width:0; stroke-opacity:1; 
stroke-linecap:round; stroke-linejoin:round;">
</g>
<g style="fill:#840000; fill-opacity:0.0; 
stroke:#840000; stroke-width:100; stroke-opacity:1; 
stroke-linecap:round; stroke-linejoin:round;">
<polyline fill="none;"
points="55000,56000
55000,55000
" /> 
</g>
<g style="fill:#840000; fill-opacity:0.0; 
stroke:#840000; stroke-width:80; stroke-opacity:1; 
stroke-linecap:round; stroke-linejoin:round;">
<polyline fill="none;"
points="55500,54500
55000,55500
54500,54500
55500,54500
" /> 
<polyline fill="none;"
points="54500,55700
54500,55500
55500,55500
55500,55300
" /> 
<polyline fill="none;"
points="54500,56500
55500,56500
55000,55500
54500,56500
" /> 
</g>
<g style="fill:#840000; fill-opacity:0.0; 
stroke:#840000; stroke-width:100; stroke-opacity:1; 
stroke-linecap:round; stroke-linejoin:round;">
<path d="M55000 55000
L55000 54000
" />
<path d="M55000 56000
L55000 57000
" />
</g>
<g style="fill:#840000; fill-opacity:0.0; 
stroke:#840000; stroke-width:0; stroke-opacity:1; 
stroke-linecap:round; stroke-linejoin:round;">
</g>
<g style="fill:#840000; fill-opacity:0.0; 
stroke:#840000; stroke-width:100; stroke-opacity:1; 
stroke-linecap:round; stroke-linejoin:round;">
<rect x="65500" y="47100" width="2000" height="800" rx="0" />
<path d="M67500 47500
L68000 47500
" />
<path d="M65500 47500
L65000 47500
" />
</g>
<g style="fill:#008484; fill-opacity:0.0; 
stroke:#008484; stroke-width:100; stroke-opacity:1; 
stroke-linecap:round; stroke-linejoin:round;">
</g>
<g style="fill:#008484; fill-opacity:0.0; 
stroke:#008484; stroke-width:80; stroke-opacity:1; 
stroke-linecap:round; stroke-linejoin:round;">
<path d="M65070 48340
L65070 48680
" />
<path d="M64950 48150
L64840 48510
L65140 48510
" />
<path d="M65340 48630
L65360 48650
L65340 48680
L65320 48650
L65340 48630
L65340 48680
" />
<path d="M65530 48180
L65860 48180
L65650 48680
" />
<path d="M66800 48150
L66370 48800
" />
<path d="M67320 48220
L67340 48200
L67390 48180
L67510 48180
L67550 48200
L67580 48220
L67600 48270
L67600 48320
L67580 48390
L67290 48680
L67600 48680
" />
<path d="M67770 48180
L67890 48680
L67990 48320
L68080 48680
L68200 48180
" />
</g>
<g style="fill:#008484; fill-opacity:0.0; 
stroke:#008484; stroke-width:0; stroke-opacity:1; 
stroke-linecap:round; stroke-linejoin:round;">
</g>
<g style="fill:#840000; fill-opacity:0.0; 
stroke:#840000; stroke-width:0; stroke-opacity:1; 
stroke-linecap:round; stroke-linejoin:round;">
</g>
<g style="fill:#840000; fill-opacity:0.0; 
stroke:#840000; stroke-width:100; stroke-opacity:1; 
stroke-linecap:round; stroke-linejoin:round;">
<rect x="65500" y="63100" width="2000" height="800" rx="0" />
<path d="M67500 63500
L68000 63500
" />
<path d="M65500 63500
L65000 63500
" />
</g>
<g style="fill:#008484; fill-opacity:0.0; 
stroke:#008484; stroke-width:100; stroke-opacity:1; 
stroke-linecap:round; stroke-linejoin:round;">
</g>
<g style="fill:#008484; fill-opacity:0.0; 
stroke:#008484; stroke-width:80; stroke-opacity:1; 
stroke-linecap:round; stroke-linejoin:round;">
<path d="M65070 64340
L65070 64680
" />
<path d="M64950 64150
L64840 64510
L65140 64510
" />
<path d="M65340 64630
L65360 64650
L65340 64680
L65320 64650
L65340 64630
L65340 64680
" />
<path d="M65530 64180
L65860 64180
L65650 64680
" />
<path d="M66800 64150
L66370 64800
" />
<path d="M67320 64220
L67340 64200
L67390 64180
L67510 64180
L67550 64200
L67580 64220
L67600 64270
L67600 64320
L67580 64390
L67290 64680
L67600 64680
" />
<path d="M67770 64180
L67890 64680
L67990 64320
L68080 64680
L68200 64180
" />
</g>
<g style="fill:#008484; fill-opacity:0.0; 
stroke:#008484; stroke-width:0; stroke-opacity:1; 
stroke-linecap:round; stroke-linejoin:round;">
</g>
<g style="fill:#840000; fill-opacity:0.0; 
stroke:#840000; stroke-width:0; stroke-opacity:1; 
stroke-linecap:round; stroke-linejoin:round;">
</g>
<g style="fill:#840000; fill-opacity:1.0; 
stroke:#840000; stroke-width:100; stroke-opacity:1; 
stroke-linecap:round; stroke-linejoin:round;">
<circle cx="78600" cy="55500" r="100" /> 
</g>
<g style="fill:#840000; fill-opacity:0.0; 
stroke:#840000; stroke-width:100; stroke-opacity:1; 
stroke-linecap:round; stroke-linejoin:round;">
<circle cx="78000" cy="55500" r="1410" /> 
</g>
<g style="fill:#840000; fill-opacity:1.0; 
stroke:#840000; stroke-width:100; stroke-opacity:1; 
stroke-linecap:round; stroke-linejoin:round;">
<polyline style="fill-rule:evenodd;"
points="78500,54500
77500,54500
78000,55000
78500,54500
" /> 
<polyline style="fill-rule:evenodd;"
points="77500,56500
78000,56000
78500,56500
77500,56500
" /> 
<polyline style="fill-rule:evenodd;"
points="77000,55000
77000,56000
77500,55500
77000,55000
" /> 
</g>
<g style="fill:#840000; fill-opacity:0.0; 
stroke:#840000; stroke-width:100; stroke-opacity:1; 
stroke-linecap:round; stroke-linejoin:round;">
<path d="M78000 54500
L78000 52500
" />
</g>
<g style="fill:#840000; fill-opacity:0.0; 
stroke:#840000; stroke-width:80; stroke-opacity:1; 
stroke-linecap:round; stroke-linejoin:round;">
<path d="M77880 53360
L77880 53640
" />
<path d="M77880 53500
L77380 53500
L77450 53550
L77500 53600
L77520 53640
" />
</g>
<g style="fill:#840000; fill-opacity:0.0; 
stroke:#840000; stroke-width:100; stroke-opacity:1; 
stroke-linecap:round; stroke-linejoin:round;">
<path d="M77000 55500
L75000 55500
" />
</g>
<g style="fill:#840000; fill-opacity:0.0; 
stroke:#840000; stroke-width:80; stroke-opacity:1; 
stroke-linecap:round; stroke-linejoin:round;">
<path d="M75860 54920
L75880 54900
L75930 54880
L76050 54880
L76090 54900
L76120 54920
L76140 54970
L76140 55020
L76120 55090
L75830 55380
L76140 55380
" />
</g>
<g style="fill:#840000; fill-opacity:0.0; 
stroke:#840000; stroke-width:100; stroke-opacity:1; 
stroke-linecap:round; stroke-linejoin:round;">
<path d="M78000 56500
L78000 58500
" />
</g>
<g style="fill:#840000; fill-opacity:0.0; 
stroke:#840000; stroke-width:80; stroke-opacity:1; 
stroke-linecap:round; stroke-linejoin:round;">
<path d="M77380 57670
L77380 57360
L77570 57530
L77570 57450
L77590 57410
L77610 57380
L77660 57360
L77780 57360
L77830 57380
L77850 57410
L77880 57450
L77880 57600
L77850 57640
L77830 57670
" />
</g>
<g style="fill:#840000; fill-opacity:0.0; 
stroke:#840000; stroke-width:100; stroke-opacity:1; 
stroke-linecap:round; stroke-linejoin:round;">
</g>
<g style="fill:#840000; fill-opacity:0.0; 
stroke:#840000; stroke-width:0; stroke-opacity:1; 
stroke-linecap:round; stroke-linejoin:round;">
</g>
<g style="fill:#840000; fill-opacity:0.0; 
stroke:#840000; stroke-width:100; stroke-opacity:1; 
stroke-linecap:round; stroke-linejoin:round;">
<rect x="83500" y="47200" width="2000" height="600" rx="0" />
<polyline fill="none;"
points="85500,47500
83500,47500
" /> 
<path d="M85500 47500
L86000 47500
" />
<path d="M83500 47500
L83000 47500
" />
</g>
<g style="fill:#008484; fill-opacity:0.0; 
stroke:#008484; stroke-width:100; stroke-opacity:1; 
stroke-linecap:round; stroke-linejoin:round;">
</g>
<g style="fill:#008484; fill-opacity:0.0; 
stroke:#008484; stroke-width:80; stroke-opacity:1; 
stroke-linecap:round; stroke-linejoin:round;">
<path d="M83620 47930
L83380 47930
L83360 48160
L83380 48140
L83430 48120
L83550 48120
L83590 48140
L83620 48160
L83640 48210
L83640 48330
L83620 48380
L83590 48400
L83550 48430
L83430 48430
L83380 48400
L83360 48380
" />
<path d="M83950 47930
L84000 47930
L84050 47950
L84070 47970
L84100 48020
L84120 48120
L84120 48240
L84100 48330
L84070 48380
L84050 48400
L84000 48430
L83950 48430
L83910 48400
L83880 48380
L83860 48330
L83840 48240
L83840 48120
L83860 48020
L83880 47970
L83910 47950
L83950 47930
" />
<path d="M84340 48430
L84340 48090
" />
<path d="M84340 48140
L84360 48120
L84410 48090
L84480 48090
L84530 48120
L84550 48160
L84550 48430
" />
<path d="M84550 48160
L84580 48120
L84620 48090
L84700 48090
L84740 48120
L84770 48160
L84770 48430
" />
<path d="M84990 48280
L85220 48280
" />
<path d="M84940 48430
L85100 47930
L85270 48430
" />
<path d="M85610 48160
L85440 48160
" />
<path d="M85440 48430
L85440 47930
L85680 47930
" />
</g>
<g style="fill:#008484; fill-opacity:0.0; 
stroke:#008484; stroke-width:0; stroke-opacity:1; 
stroke-linecap:round; stroke-linejoin:round;">
</g>
<g style="fill:#840000; fill-opacity:0.0; 
stroke:#840000; stroke-width:0; stroke-opacity:1; 
stroke-linecap:round; stroke-linejoin:round;">
</g>
<g style="fill:#840000; fill-opacity:0.0; 
stroke:#840000; stroke-width:100; stroke-opacity:1; 
stroke-linecap:round; stroke-linejoin:round;">
<rect x="83500" y="63200" width="2000" height="600" rx="0" />
<polyline fill="none;"
points="85500,63500
83500,63500
" /> 
<path d="M85500 63500
L86000 63500
" />
<path d="M83500 63500
L83000 63500
" />
</g>
<g style="fill:#008484; fill-opacity:0.0; 
stroke:#008484; stroke-width:100; stroke-opacity:1; 
stroke-linecap:round; stroke-linejoin:round;">
</g>
<g style="fill:#008484; fill-opacity:0.0; 
stroke:#008484; stroke-width:80; stroke-opacity:1; 
stroke-linecap:round; stroke-linejoin:round;">
<path d="M83620 63930
L83380 63930
L83360 64160
L83380 64140
L83430 64120
L83550 64120
L83590 64140
L83620 64160
L83640 64210
L83640 64330
L83620 64380
L83590 64400
L83550 64430
L83430 64430
L83380 64400
L83360 64380
" />
<path d="M83950 63930
L84000 63930
L84050 63950
L84070 63970
L84100 64020
L84120 64120
L84120 64240
L84100 64330
L84070 64380
L84050 64400
L84000 64430
L83950 64430
L83910 64400
L83880 64380
L83860 64330
L83840 64240
L83840 64120
L83860 64020
L83880 63970
L83910 63950
L83950 63930
" />
<path d="M84340 64430
L84340 64090
" />
<path d="M84340 64140
L84360 64120
L84410 64090
L84480 64090
L84530 64120
L84550 64160
L84550 64430
" />
<path d="M84550 64160
L84580 64120
L84620 64090
L84700 64090
L84740 64120
L84770 64160
L84770 64430
" />
<path d="M84990 64280
L85220 64280
" />
<path d="M84940 64430
L85100 63930
L85270 64430
" />
<path d="M85610 64160
L85440 64160
" />
<path d="M85440 64430
L85440 63930
L85680 63930
" />
</g>
<g style="fill:#008484; fill-opacity:0.0; 
stroke:#008484; stroke-width:100; stroke-opacity:1; 
stroke-linecap:round; stroke-linejoin:round;">
</g>
<g style="fill:#0000C2; fill-opacity:0.0; 
stroke:#0000C2; stroke-width:100; stroke-opacity:1; 
stroke-linecap:round; stroke-linejoin:round;">
</g>
<g style="fill:#0000C2; fill-opacity:0.0; 
stroke:#0000C2; stroke-width:100; stroke-opacity:1; 
stroke-linecap:round; stroke-linejoin:round;stroke-dasharray:96.8504,198.425;">
<path d="M96500 69500
L96500 41000
" />
</g>
<g style="fill:#0000C2; fill-opacity:0.0; 
stroke:#0000C2; stroke-width:100; stroke-opacity:1; 
stroke-linecap:round; stroke-linejoin:round;">
</g>
<g style="fill:#0000C2; fill-opacity:0.0; 
stroke:#0000C2; stroke-width:0; stroke-opacity:1; 
stroke-linecap:round; stroke-linejoin:round;">
</g>
<g style="fill:#840000; fill-opacity:0.0; 
stroke:#840000; stroke-width:0; stroke-opacity:1; 
stroke-linecap:round; stroke-linejoin:round;">
</g>
<g style="fill:#840000; fill-opacity:0.0; 
stroke:#840000; stroke-width:100; stroke-opacity:1; 
stroke-linecap:round; stroke-linejoin:round;">
<polyline fill="none;"
points="71250,74250
71750,74250
" /> 
<polyline fill="none;"
points="71450,74500
71550,74500
" /> 
<polyline fill="none;"
points="71500,74000
71500,73500
" /> 
<polyline fill="none;"
points="72000,74000
71000,74000
" /> 
</g>
<g style="fill:#840000; fill-opacity:0.0; 
stroke:#840000; stroke-width:0; stroke-opacity:1; 
stroke-linecap:round; stroke-linejoin:round;">
</g>
<g style="fill:#840000; fill-opacity:1.0; 
stroke:#840000; stroke-width:100; stroke-opacity:1; 
stroke-linecap:round; stroke-linejoin:round;">
<rect x="17000" y="56250" width="2000" height="500" rx="0" />
</g>
<g style="fill:#840000; fill-opacity:0.0; 
stroke:#840000; stroke-width:100; stroke-opacity:1; 
stroke-linecap:round; stroke-linejoin:round;">
<line x1="17000" y1="54250" x2="17000" y2="54250" />
</g>
<g style="fill:#840000; fill-opacity:1.0; 
stroke:#840000; stroke-width:100; stroke-opacity:1; 
stroke-linecap:round; stroke-linejoin:round;">
<rect x="17000" y="54250" width="2000" height="500" rx="0" />
</g>
<g style="fill:#840000; fill-opacity:0.0; 
stroke:#840000; stroke-width:100; stroke-opacity:1; 
stroke-linecap:round; stroke-linejoin:round;">
<path d="M19000 54500
L21000 54500
" />
</g>
<g style="fill:#840000; fill-opacity:0.0; 
stroke:#840000; stroke-width:80; stroke-opacity:1; 
stroke-linecap:round; stroke-linejoin:round;">
<path d="M20140 54380
L19860 54380
" />
<path d="M20000 54380
L20000 53880
L19950 53950
L19900 54000
L19860 54020
" />
</g>
<g style="fill:#840000; fill-opacity:0.0; 
stroke:#840000; stroke-width:100; stroke-opacity:1; 
stroke-linecap:round; stroke-linejoin:round;">
<path d="M19000 56500
L21000 56500
" />
</g>
<g style="fill:#840000; fill-opacity:0.0; 
stroke:#840000; stroke-width:80; stroke-opacity:1; 
stroke-linecap:round; stroke-linejoin:round;">
<path d="M19860 55920
L19880 55900
L19930 55880
L20050 55880
L20090 55900
L20120 55920
L20140 55970
L20140 56020
L20120 56090
L19830 56380
L20140 56380
" />
</g>
<g style="fill:#840000; fill-opacity:0.0; 
stroke:#840000; stroke-width:100; stroke-opacity:1; 
stroke-linecap:round; stroke-linejoin:round;">
</g>
<g style="fill:#840000; fill-opacity:0.0; 
stroke:#840000; stroke-width:0; stroke-opacity:1; 
stroke-linecap:round; stroke-linejoin:round;">
</g>
<g style="fill:#840000; fill-opacity:1.0; 
stroke:#840000; stroke-width:100; stroke-opacity:1; 
stroke-linecap:round; stroke-linejoin:round;">
<rect x="145000" y="56250" width="2000" height="500" rx="0" />
</g>
<g style="fill:#840000; fill-opacity:0.0; 
stroke:#840000; stroke-width:100; stroke-opacity:1; 
stroke-linecap:round; stroke-linejoin:round;">
<line x1="147000" y1="54250" x2="147000" y2="54250" />
</g>
<g style="fill:#840000; fill-opacity:1.0; 
stroke:#840000; stroke-width:100; stroke-opacity:1; 
stroke-linecap:round; stroke-linejoin:round;">
<rect x="145000" y="54250" width="2000" height="500" rx="0" />
</g>
<g style="fill:#840000; fill-opacity:0.0; 
stroke:#840000; stroke-width:100; stroke-opacity:1; 
stroke-linecap:round; stroke-linejoin:round;">
<path d="M145000 54500
L143000 54500
" />
</g>
<g style="fill:#840000; fill-opacity:0.0; 
stroke:#840000; stroke-width:80; stroke-opacity:1; 
stroke-linecap:round; stroke-linejoin:round;">
<path d="M144140 54380
L143860 54380
" />
<path d="M144000 54380
L144000 53880
L143950 53950
L143900 54000
L143860 54020
" />
</g>
<g style="fill:#840000; fill-opacity:0.0; 
stroke:#840000; stroke-width:100; stroke-opacity:1; 
stroke-linecap:round; stroke-linejoin:round;">
<path d="M145000 56500
L143000 56500
" />
</g>
<g style="fill:#840000; fill-opacity:0.0; 
stroke:#840000; stroke-width:80; stroke-opacity:1; 
stroke-linecap:round; stroke-linejoin:round;">
<path d="M143860 55920
L143880 55900
L143930 55880
L144050 55880
L144090 55900
L144120 55920
L144140 55970
L144140 56020
L144120 56090
L143830 56380
L144140 56380
" />
</g>
<g style="fill:#840000; fill-opacity:0.0; 
stroke:#840000; stroke-width:100; stroke-opacity:1; 
stroke-linecap:round; stroke-linejoin:round;">
</g>
<g style="fill:#008484; fill-opacity:0.0; 
stroke:#008484; stroke-width:100; stroke-opacity:1; 
stroke-linecap:round; stroke-linejoin:round;">
</g>
<g style="fill:#008484; fill-opacity:0.0; 
stroke:#008484; stroke-width:80; stroke-opacity:1; 
stroke-linecap:round; stroke-linejoin:round;">
<path d="M145850 53520
L145850 53870
L145830 53940
L145780 53990
L145710 54020
L145660 54020
" />
<path d="M146160 53970
L146180 53990
L146160 54020
L146140 53990
L146160 53970
L146160 54020
" />
<path d="M146070 53540
L146110 53520
L146230 53520
L146280 53540
L146300 53590
L146300 53640
L146280 53680
L146260 53710
L146210 53730
L146180 53750
L146160 53800
L146160 53830
" />
</g>
<g style="fill:#008484; fill-opacity:0.0; 
stroke:#008484; stroke-width:100; stroke-opacity:1; 
stroke-linecap:round; stroke-linejoin:round;">
</g>
<g style="fill:#008400; fill-opacity:0.0; 
stroke:#008400; stroke-width:100; stroke-opacity:1; 
stroke-linecap:round; stroke-linejoin:round;">
<path d="M68000 47500
L78000 47500
" />
<path d="M78000 47500
L83000 47500
" />
<path d="M68000 63500
L78000 63500
" />
<path d="M78000 63500
L83000 63500
" />
<path d="M78000 52500
L78000 47500
" />
</g>
<g style="fill:#008400; fill-opacity:0.0; 
stroke:#008400; stroke-width:0; stroke-opacity:1; 
stroke-linecap:round; stroke-linejoin:round;">
</g>
<g style="fill:#008400; fill-opacity:1.0; 
stroke:#008400; stroke-width:100; stroke-opacity:1; 
stroke-linecap:round; stroke-linejoin:round;">
<circle cx="78000" cy="47500" r="200" /> 
</g>
<g style="fill:#008400; fill-opacity:0.0; 
stroke:#008400; stroke-width:100; stroke-opacity:1; 
stroke-linecap:round; stroke-linejoin:round;">
<path d="M78000 58500
L78000 63500
" />
</g>
<g style="fill:#008400; fill-opacity:0.0; 
stroke:#008400; stroke-width:0; stroke-opacity:1; 
stroke-linecap:round; stroke-linejoin:round;">
</g>
<g style="fill:#008400; fill-opacity:1.0; 
stroke:#008400; stroke-width:100; stroke-opacity:1; 
stroke-linecap:round; stroke-linejoin:round;">
<circle cx="78000" cy="63500" r="200" /> 
</g>
<g style="fill:#008400; fill-opacity:0.0; 
stroke:#008400; stroke-width:100; stroke-opacity:1; 
stroke-linecap:round; stroke-linejoin:round;">
<path d="M60000 52500
L60000 55500
" />
<path d="M60000 55500
L60000 58500
" />
<path d="M60000 55500
L71500 55500
" />
<path d="M71500 55500
L75000 55500
" />
</g>
<g style="fill:#008400; fill-opacity:0.0; 
stroke:#008400; stroke-width:0; stroke-opacity:1; 
stroke-linecap:round; stroke-linejoin:round;">
</g>
<g style="fill:#008400; fill-opacity:1.0; 
stroke:#008400; stroke-width:100; stroke-opacity:1; 
stroke-linecap:round; stroke-linejoin:round;">
<circle cx="60000" cy="55500" r="200" /> 
</g>
<g style="fill:#008400; fill-opacity:0.0; 
stroke:#008400; stroke-width:100; stroke-opacity:1; 
stroke-linecap:round; stroke-linejoin:round;">
<path d="M60000 47500
L60000 49500
" />
<path d="M49000 47500
L55000 47500
" />
<path d="M55000 47500
L60000 47500
" />
<path d="M60000 47500
L65000 47500
" />
<path d="M60000 63500
L60000 61500
" />
<path d="M49000 63500
L55000 63500
" />
<path d="M55000 63500
L60000 63500
" />
<path d="M60000 63500
L65000 63500
" />
<path d="M55000 54000
L55000 47500
" />
</g>
<g style="fill:#008400; fill-opacity:0.0; 
stroke:#008400; stroke-width:0; stroke-opacity:1; 
stroke-linecap:round; stroke-linejoin:round;">
</g>
<g style="fill:#008400; fill-opacity:1.0; 
stroke:#008400; stroke-width:100; stroke-opacity:1; 
stroke-linecap:round; stroke-linejoin:round;">
<circle cx="60000" cy="47500" r="200" /> 
</g>
<g style="fill:#008400; fill-opacity:0.0; 
stroke:#008400; stroke-width:100; stroke-opacity:1; 
stroke-linecap:round; stroke-linejoin:round;">
<path d="M55000 57000
L55000 63500
" />
</g>
<g style="fill:#008400; fill-opacity:0.0; 
stroke:#008400; stroke-width:0; stroke-opacity:1; 
stroke-linecap:round; stroke-linejoin:round;">
</g>
<g style="fill:#008400; fill-opacity:1.0; 
stroke:#008400; stroke-width:100; stroke-opacity:1; 
stroke-linecap:round; stroke-linejoin:round;">
<circle cx="60000" cy="63500" r="200" /> 
</g>
<g style="fill:#008400; fill-opacity:0.0; 
stroke:#008400; stroke-width:100; stroke-opacity:1; 
stroke-linecap:round; stroke-linejoin:round;">
<path d="M71500 55500
L71500 69000
" />
<path d="M71500 69000
L71500 71500
" />
<path d="M71500 71500
L71500 73500
" />
</g>
<g style="fill:#008400; fill-opacity:0.0; 
stroke:#008400; stroke-width:0; stroke-opacity:1; 
stroke-linecap:round; stroke-linejoin:round;">
</g>
<g style="fill:#008400; fill-opacity:1.0; 
stroke:#008400; stroke-width:100; stroke-opacity:1; 
stroke-linecap:round; stroke-linejoin:round;">
<circle cx="71500" cy="55500" r="200" /> 
</g>
<g style="fill:#008400; fill-opacity:0.0; 
stroke:#008400; stroke-width:100; stroke-opacity:1; 
stroke-linecap:round; stroke-linejoin:round;">
<path d="M49000 53500
L49000 47500
" />
</g>
<g style="fill:#008400; fill-opacity:0.0; 
stroke:#008400; stroke-width:0; stroke-opacity:1; 
stroke-linecap:round; stroke-linejoin:round;">
</g>
<g style="fill:#008400; fill-opacity:1.0; 
stroke:#008400; stroke-width:100; stroke-opacity:1; 
stroke-linecap:round; stroke-linejoin:round;">
<circle cx="55000" cy="47500" r="200" /> 
</g>
<g style="fill:#008400; fill-opacity:0.0; 
stroke:#008400; stroke-width:100; stroke-opacity:1; 
stroke-linecap:round; stroke-linejoin:round;">
<path d="M49000 57500
L49000 63500
" />
</g>
<g style="fill:#008400; fill-opacity:0.0; 
stroke:#008400; stroke-width:0; stroke-opacity:1; 
stroke-linecap:round; stroke-linejoin:round;">
</g>
<g style="fill:#008400; fill-opacity:1.0; 
stroke:#008400; stroke-width:100; stroke-opacity:1; 
stroke-linecap:round; stroke-linejoin:round;">
<circle cx="55000" cy="63500" r="200" /> 
</g>
<g style="fill:#008400; fill-opacity:0.0; 
stroke:#008400; stroke-width:100; stroke-opacity:1; 
stroke-linecap:round; stroke-linejoin:round;">
<path d="M86000 47500
L91500 47500
" />
<path d="M91500 47500
L91500 53500
" />
<path d="M91500 53500
L120500 53500
" />
<path d="M86000 63500
L91500 63500
" />
<path d="M91500 63500
L91500 57500
" />
<path d="M91500 57500
L120500 57500
" />
</g>
<g style="fill:#008400; fill-opacity:0.0; 
stroke:#008400; stroke-width:0; stroke-opacity:1; 
stroke-linecap:round; stroke-linejoin:round;">
</g>
<g style="fill:#840000; fill-opacity:0.0; 
stroke:#840000; stroke-width:0; stroke-opacity:1; 
stroke-linecap:round; stroke-linejoin:round;">
</g>
<g style="fill:#840000; fill-opacity:0.0; 
stroke:#840000; stroke-width:100; stroke-opacity:1; 
stroke-linecap:round; stroke-linejoin:round;">
<path d="M124000 56999.1 A500 500 0.0 0 0 123501 56500 " />
<path d="M123501 57500 A500 500 0.0 0 0 124000 57000.9 " />
<path d="M124000 55999.1 A500 500 0.0 0 0 123501 55500 " />
<path d="M123501 56500 A500 500 0.0 0 0 124000 56000.9 " />
<path d="M124000 54999.1 A500 500 0.0 0 0 123501 54500 " />
<path d="M123501 55500 A500 500 0.0 0 0 124000 55000.9 " />
<path d="M124000 53999.1 A500 500 0.0 0 0 123501 53500 " />
<path d="M123501 54500 A500 500 0.0 0 0 124000 54000.9 " />
<path d="M125501 55500 A500 500 0.0 0 0 125000 56000.9 " />
<path d="M125000 55999.1 A500 500 0.0 0 0 125501 56500 " />
<path d="M125501 54500 A500 500 0.0 0 0 125000 55000.9 " />
<path d="M125000 54999.1 A500 500 0.0 0 0 125501 55500 " />
<path d="M125501 53500 A500 500 0.0 0 0 125000 54000.9 " />
<path d="M125000 53999.1 A500 500 0.0 0 0 125501 54500 " />
<path d="M125501 56500.1 A500 500 0.0 0 0 125010 57000.9 " />
<path d="M125010 57000.9 A500 500 0.0 0 0 125500 57499.9 " />
<polyline fill="none;"
points="124250,53500
124250,57500
" /> 
<polyline fill="none;"
points="124750,57500
124750,53500
" /> 
<path d="M123500 53500
L120500 53500
" />
</g>
<g style="fill:#840000; fill-opacity:0.0; 
stroke:#840000; stroke-width:80; stroke-opacity:1; 
stroke-linecap:round; stroke-linejoin:round;">
<path d="M122140 53380
L121860 53380
" />
<path d="M122000 53380
L122000 52880
L121950 52950
L121900 53000
L121860 53020
" />
</g>
<g style="fill:#840000; fill-opacity:0.0; 
stroke:#840000; stroke-width:100; stroke-opacity:1; 
stroke-linecap:round; stroke-linejoin:round;">
<path d="M123500 57500
L120500 57500
" />
</g>
<g style="fill:#840000; fill-opacity:0.0; 
stroke:#840000; stroke-width:80; stroke-opacity:1; 
stroke-linecap:round; stroke-linejoin:round;">
<path d="M121860 56920
L121880 56900
L121930 56880
L122050 56880
L122090 56900
L122120 56920
L122140 56970
L122140 57020
L122120 57090
L121830 57380
L122140 57380
" />
</g>
<g style="fill:#840000; fill-opacity:0.0; 
stroke:#840000; stroke-width:100; stroke-opacity:1; 
stroke-linecap:round; stroke-linejoin:round;">
<path d="M125500 57500
L128500 57500
" />
</g>
<g style="fill:#840000; fill-opacity:0.0; 
stroke:#840000; stroke-width:80; stroke-opacity:1; 
stroke-linecap:round; stroke-linejoin:round;">
<path d="M126830 56880
L127140 56880
L126970 57070
L127050 57070
L127090 57090
L127120 57110
L127140 57160
L127140 57280
L127120 57330
L127090 57350
L127050 57380
L126900 57380
L126860 57350
L126830 57330
" />
</g>
<g style="fill:#840000; fill-opacity:0.0; 
stroke:#840000; stroke-width:100; stroke-opacity:1; 
stroke-linecap:round; stroke-linejoin:round;">
<path d="M125500 53500
L128500 53500
" />
</g>
<g style="fill:#840000; fill-opacity:0.0; 
stroke:#840000; stroke-width:80; stroke-opacity:1; 
stroke-linecap:round; stroke-linejoin:round;">
<path d="M127090 53040
L127090 53380
" />
<path d="M126970 52850
L126860 53210
L127160 53210
" />
</g>
<g style="fill:#840000; fill-opacity:0.0; 
stroke:#840000; stroke-width:100; stroke-opacity:1; 
stroke-linecap:round; stroke-linejoin:round;">
</g>
<g style="fill:#840000; fill-opacity:0.0; 
stroke:#840000; stroke-width:0; stroke-opacity:1; 
stroke-linecap:round; stroke-linejoin:round;">
</g>
<g style="fill:#840000; fill-opacity:0.0; 
stroke:#840000; stroke-width:100; stroke-opacity:1; 
stroke-linecap:round; stroke-linejoin:round;">
<path d="M34500 56999.1 A500 500 0.0 0 0 34000.9 56500 " />
<path d="M34000.9 57500 A500 500 0.0 0 0 34500 57000.9 " />
<path d="M34500 55999.1 A500 500 0.0 0 0 34000.9 55500 " />
<path d="M34000.9 56500 A500 500 0.0 0 0 34500 56000.9 " />
<path d="M34500 54999.1 A500 500 0.0 0 0 34000.9 54500 " />
<path d="M34000.9 55500 A500 500 0.0 0 0 34500 55000.9 " />
<path d="M34500 53999.1 A500 500 0.0 0 0 34000.9 53500 " />
<path d="M34000.9 54500 A500 500 0.0 0 0 34500 54000.9 " />
<path d="M36000.9 55500 A500 500 0.0 0 0 35500 56000.9 " />
<path d="M35500 55999.1 A500 500 0.0 0 0 36000.9 56500 " />
<path d="M36000.9 54500 A500 500 0.0 0 0 35500 55000.9 " />
<path d="M35500 54999.1 A500 500 0.0 0 0 36000.9 55500 " />
<path d="M36000.9 53500 A500 500 0.0 0 0 35500 54000.9 " />
<path d="M35500 53999.1 A500 500 0.0 0 0 36000.9 54500 " />
<path d="M36001.3 56500.1 A500 500 0.0 0 0 35510 57000.9 " />
<path d="M35510 57000.9 A500 500 0.0 0 0 35999.5 57499.9 " />
<polyline fill="none;"
points="34750,53500
34750,57500
" /> 
<polyline fill="none;"
points="35250,57500
35250,53500
" /> 
<path d="M34000 53500
L31000 53500
" />
</g>
<g style="fill:#840000; fill-opacity:0.0; 
stroke:#840000; stroke-width:80; stroke-opacity:1; 
stroke-linecap:round; stroke-linejoin:round;">
<path d="M32640 53380
L32360 53380
" />
<path d="M32500 53380
L32500 52880
L32450 52950
L32400 53000
L32360 53020
" />
</g>
<g style="fill:#840000; fill-opacity:0.0; 
stroke:#840000; stroke-width:100; stroke-opacity:1; 
stroke-linecap:round; stroke-linejoin:round;">
<path d="M34000 57500
L31000 57500
" />
</g>
<g style="fill:#840000; fill-opacity:0.0; 
stroke:#840000; stroke-width:80; stroke-opacity:1; 
stroke-linecap:round; stroke-linejoin:round;">
<path d="M32360 56920
L32380 56900
L32430 56880
L32550 56880
L32590 56900
L32620 56920
L32640 56970
L32640 57020
L32620 57090
L32330 57380
L32640 57380
" />
</g>
<g style="fill:#840000; fill-opacity:0.0; 
stroke:#840000; stroke-width:100; stroke-opacity:1; 
stroke-linecap:round; stroke-linejoin:round;">
<path d="M36000 57500
L39000 57500
" />
</g>
<g style="fill:#840000; fill-opacity:0.0; 
stroke:#840000; stroke-width:80; stroke-opacity:1; 
stroke-linecap:round; stroke-linejoin:round;">
<path d="M37330 56880
L37640 56880
L37470 57070
L37550 57070
L37590 57090
L37620 57110
L37640 57160
L37640 57280
L37620 57330
L37590 57350
L37550 57380
L37400 57380
L37360 57350
L37330 57330
" />
</g>
<g style="fill:#840000; fill-opacity:0.0; 
stroke:#840000; stroke-width:100; stroke-opacity:1; 
stroke-linecap:round; stroke-linejoin:round;">
<path d="M36000 53500
L39000 53500
" />
</g>
<g style="fill:#840000; fill-opacity:0.0; 
stroke:#840000; stroke-width:80; stroke-opacity:1; 
stroke-linecap:round; stroke-linejoin:round;">
<path d="M37590 53040
L37590 53380
" />
<path d="M37470 52850
L37360 53210
L37660 53210
" />
</g>
<g style="fill:#840000; fill-opacity:0.0; 
stroke:#840000; stroke-width:100; stroke-opacity:1; 
stroke-linecap:round; stroke-linejoin:round;">
</g>
<g style="fill:#008400; fill-opacity:0.0; 
stroke:#008400; stroke-width:100; stroke-opacity:1; 
stroke-linecap:round; stroke-linejoin:round;">
<path d="M39000 53500
L49000 53500
" />
<path d="M39000 57500
L49000 57500
" />
<path d="M21000 54500
L23000 54500
" />
<path d="M23000 54500
L23000 53500
" />
<path d="M23000 53500
L25900 53500
" />
<path d="M25900 53500
L27100 53500
" />
<path d="M21000 56500
L23000 56500
" />
<path d="M23000 56500
L23000 57500
" />
<path d="M23000 57500
L25900 57500
" />
<path d="M25900 57500
L31000 57500
" />
<path d="M128500 57500
L133800 57500
" />
<path d="M133800 57500
L141000 57500
" />
<path d="M141000 57500
L141000 56500
" />
<path d="M141000 56500
L143000 56500
" />
</g>
<g style="fill:#008400; fill-opacity:0.0; 
stroke:#008400; stroke-width:0; stroke-opacity:1; 
stroke-linecap:round; stroke-linejoin:round;">
</g>
<g style="fill:#840000; fill-opacity:0.0; 
stroke:#840000; stroke-width:0; stroke-opacity:1; 
stroke-linecap:round; stroke-linejoin:round;">
</g>
<g style="fill:#840000; fill-opacity:0.0; 
stroke:#840000; stroke-width:100; stroke-opacity:1; 
stroke-linecap:round; stroke-linejoin:round;">
<polyline fill="none;"
points="133800,56000
133800,55000
" /> 
</g>
<g style="fill:#840000; fill-opacity:0.0; 
stroke:#840000; stroke-width:80; stroke-opacity:1; 
stroke-linecap:round; stroke-linejoin:round;">
<polyline fill="none;"
points="134300,54500
133800,55500
133300,54500
134300,54500
" /> 
<polyline fill="none;"
points="133300,55700
133300,55500
134300,55500
134300,55300
" /> 
<polyline fill="none;"
points="133300,56500
134300,56500
133800,55500
133300,56500
" /> 
</g>
<g style="fill:#840000; fill-opacity:0.0; 
stroke:#840000; stroke-width:100; stroke-opacity:1; 
stroke-linecap:round; stroke-linejoin:round;">
<path d="M133800 55000
L133800 54000
" />
<path d="M133800 56000
L133800 57000
" />
</g>
<g style="fill:#008400; fill-opacity:0.0; 
stroke:#008400; stroke-width:100; stroke-opacity:1; 
stroke-linecap:round; stroke-linejoin:round;">
<path d="M133800 57000
L133800 57500
" />
</g>
<g style="fill:#008400; fill-opacity:0.0; 
stroke:#008400; stroke-width:0; stroke-opacity:1; 
stroke-linecap:round; stroke-linejoin:round;">
</g>
<g style="fill:#008400; fill-opacity:1.0; 
stroke:#008400; stroke-width:100; stroke-opacity:1; 
stroke-linecap:round; stroke-linejoin:round;">
<circle cx="133800" cy="57500" r="200" /> 
</g>
<g style="fill:#008400; fill-opacity:1.0; 
stroke:#008400; stroke-width:0; stroke-opacity:1; 
stroke-linecap:round; stroke-linejoin:round;">
</g>
<g style="fill:#840000; fill-opacity:1.0; 
stroke:#840000; stroke-width:0; stroke-opacity:1; 
stroke-linecap:round; stroke-linejoin:round;">
</g>
<g style="fill:#840000; fill-opacity:0.0; 
stroke:#840000; stroke-width:100; stroke-opacity:1; 
stroke-linecap:round; stroke-linejoin:round;">
<polyline fill="none;"
points="102500,57500
102500,56500
" /> 
<polyline fill="none;"
points="102500,56000
102500,55000
" /> 
<polyline fill="none;"
points="102500,54500
102500,53500
" /> 
<polyline fill="none;"
points="103500,52500
104500,52500
" /> 
<polyline fill="none;"
points="104500,58500
103500,58500
" /> 
<polyline fill="none;"
points="106000,58500
105000,58500
" /> 
<polyline fill="none;"
points="106000,52500
105000,52500
" /> 
<polyline fill="none;"
points="107500,58500
106500,58500
" /> 
<polyline fill="none;"
points="107500,52500
106500,52500
" /> 
<polyline fill="none;"
points="108000,58500
109000,58500
" /> 
<polyline fill="none;"
points="109000,52500
108000,52500
" /> 
<polyline fill="none;"
points="109500,58500
110500,58500
" /> 
<polyline fill="none;"
points="110500,52500
109500,52500
" /> 
<polyline fill="none;"
points="111000,58500
112000,58500
" /> 
<polyline fill="none;"
points="112000,52500
111000,52500
" /> 
<polyline fill="none;"
points="112500,58500
113500,58500
" /> 
<polyline fill="none;"
points="113500,52500
112500,52500
" /> 
<polyline fill="none;"
points="114500,57500
114500,56500
" /> 
<polyline fill="none;"
points="114500,56000
114500,55000
" /> 
<polyline fill="none;"
points="114500,54500
114500,53500
" /> 
<polyline fill="none;"
points="102500,53000
102500,52500
103000,52500
" /> 
<polyline fill="none;"
points="103000,58500
102500,58500
102500,58000
" /> 
<polyline fill="none;"
points="114000,58500
114500,58500
114500,58000
" /> 
<polyline fill="none;"
points="114500,53000
114500,52500
114000,52500
" /> 
<path d="M108500 58500
L108500 59500
" />
</g>
<g style="fill:#008484; fill-opacity:0.0; 
stroke:#008484; stroke-width:100; stroke-opacity:1; 
stroke-linecap:round; stroke-linejoin:round;">
</g>
<g style="fill:#008484; fill-opacity:0.0; 
stroke:#008484; stroke-width:80; stroke-opacity:1; 
stroke-linecap:round; stroke-linejoin:round;">
<path d="M108700 58000
L108730 57930
L108730 57810
L108700 57770
L108680 57740
L108630 57720
L108580 57720
L108540 57740
L108510 57770
L108490 57810
L108460 57910
L108440 57960
L108420 57980
L108370 58000
L108320 58000
L108270 57980
L108250 57960
L108230 57910
L108230 57790
L108250 57720
" />
<path d="M108730 57500
L108230 57500
" />
<path d="M108730 57290
L108460 57290
L108420 57310
L108390 57360
L108390 57430
L108420 57480
L108440 57500
" />
<path d="M108730 57050
L108390 57050
" />
<path d="M108230 57050
L108250 57070
L108270 57050
L108250 57030
L108230 57050
L108270 57050
" />
<path d="M108700 56620
L108730 56670
L108730 56760
L108700 56810
L108650 56830
L108460 56830
L108420 56810
L108390 56760
L108390 56670
L108420 56620
L108460 56600
L108510 56600
L108560 56830
" />
<path d="M108730 56310
L108700 56360
L108650 56380
L108230 56380
" />
<path d="M108730 55910
L108230 55910
" />
<path d="M108700 55910
L108730 55950
L108730 56050
L108700 56100
L108680 56120
L108630 56140
L108490 56140
L108440 56120
L108420 56100
L108390 56050
L108390 55950
L108420 55910
" />
</g>
<g style="fill:#008484; fill-opacity:0.0; 
stroke:#008484; stroke-width:100; stroke-opacity:1; 
stroke-linecap:round; stroke-linejoin:round;">
</g>
<g style="fill:#840000; fill-opacity:0.0; 
stroke:#840000; stroke-width:100; stroke-opacity:1; 
stroke-linecap:round; stroke-linejoin:round;">
</g>
<g style="fill:#840000; fill-opacity:0.0; 
stroke:#840000; stroke-width:80; stroke-opacity:1; 
stroke-linecap:round; stroke-linejoin:round;">
<path d="M108380 58860
L108380 59140
" />
<path d="M108380 59000
L107880 59000
L107950 59050
L108000 59100
L108020 59140
" />
</g>
<g style="fill:#840000; fill-opacity:0.0; 
stroke:#840000; stroke-width:100; stroke-opacity:1; 
stroke-linecap:round; stroke-linejoin:round;">
</g>
<g style="fill:#008400; fill-opacity:0.0; 
stroke:#008400; stroke-width:100; stroke-opacity:1; 
stroke-linecap:round; stroke-linejoin:round;">
<path d="M71500 71500
L108500 71500
" />
<path d="M108500 71500
L108500 59500
" />
</g>
<g style="fill:#008400; fill-opacity:0.0; 
stroke:#008400; stroke-width:0; stroke-opacity:1; 
stroke-linecap:round; stroke-linejoin:round;">
</g>
<g style="fill:#008400; fill-opacity:1.0; 
stroke:#008400; stroke-width:100; stroke-opacity:1; 
stroke-linecap:round; stroke-linejoin:round;">
<circle cx="71500" cy="71500" r="200" /> 
</g>
<g style="fill:#0000C2; fill-opacity:0.0; 
stroke:#0000C2; stroke-width:100; stroke-opacity:1; 
stroke-linecap:round; stroke-linejoin:round;">
<path d="M149170 59220
L147990 59220
L147990 58770
L148050 58660
L148110 58600
L148220 58540
L148390 58540
L148500 58600
L148560 58660
L148610 58770
L148610 59220
" />
<path d="M149120 57590
L149170 57700
L149170 57930
L149120 58040
L149010 58100
L148560 58100
L148440 58040
L148390 57930
L148390 57700
L148440 57590
L148560 57530
L148670 57530
L148780 58100
" />
<path d="M149170 57030
L148390 57030
" />
<path d="M148610 57030
L148500 56970
L148440 56920
L148390 56800
L148390 56690
" />
<path d="M149170 56300
L148390 56300
" />
<path d="M147990 56300
L148050 56360
L148110 56300
L148050 56240
L147990 56300
L148110 56300
" />
<path d="M148390 55740
L149570 55740
" />
<path d="M148440 55740
L148390 55630
L148390 55400
L148440 55290
L148500 55230
L148610 55180
L148950 55180
L149060 55230
L149120 55290
L149170 55400
L149170 55630
L149120 55740
" />
<path d="M149170 54670
L147990 54670
" />
<path d="M149170 54160
L148560 54160
L148440 54220
L148390 54330
L148390 54500
L148440 54610
L148500 54670
" />
<path d="M149120 53150
L149170 53260
L149170 53490
L149120 53600
L149010 53660
L148560 53660
L148440 53600
L148390 53490
L148390 53260
L148440 53150
L148560 53090
L148670 53090
L148780 53660
" />
<path d="M149170 52590
L148390 52590
" />
<path d="M148610 52590
L148500 52530
L148440 52480
L148390 52360
L148390 52250
" />
<path d="M149170 51350
L148560 51350
L148440 51410
L148390 51520
L148390 51750
L148440 51860
" />
<path d="M149120 51350
L149170 51470
L149170 51750
L149120 51860
L149010 51920
L148890 51920
L148780 51860
L148720 51750
L148720 51470
L148670 51350
" />
<path d="M149170 50620
L149120 50730
L149010 50790
L147990 50790
" />
<path d="M150940 58710
L149760 58710
" />
<path d="M150890 58710
L150940 58830
L150940 59050
L150890 59160
L150830 59220
L150720 59280
L150380 59280
L150270 59220
L150210 59160
L150160 59050
L150160 58830
L150210 58710
" />
<path d="M150890 57700
L150940 57810
L150940 58040
L150890 58150
L150780 58210
L150330 58210
L150210 58150
L150160 58040
L150160 57810
L150210 57700
L150330 57640
L150440 57640
L150550 58210
" />
<path d="M150160 57250
L150940 56970
L150160 56690
" />
<path d="M150940 56240
L150160 56240
" />
<path d="M149760 56240
L149820 56300
L149880 56240
L149820 56180
L149760 56240
L149880 56240
" />
<path d="M150890 55170
L150940 55290
L150940 55510
L150890 55620
L150830 55680
L150720 55740
L150380 55740
L150270 55680
L150210 55620
L150160 55510
L150160 55290
L150210 55170
" />
<path d="M150890 54220
L150940 54330
L150940 54560
L150890 54670
L150780 54730
L150330 54730
L150210 54670
L150160 54560
L150160 54330
L150210 54220
L150330 54160
L150440 54160
L150550 54730
" />
<path d="M15330 58540
L15390 58600
L15440 58770
L15440 58880
L15390 59050
L15280 59160
L15160 59220
L14940 59280
L14770 59280
L14540 59220
L14430 59160
L14320 59050
L14260 58880
L14260 58770
L14320 58600
L14380 58540
" />
<path d="M15440 57870
L15390 57980
L15330 58040
L15220 58100
L14880 58100
L14770 58040
L14710 57980
L14660 57870
L14660 57700
L14710 57590
L14770 57530
L14880 57480
L15220 57480
L15330 57530
L15390 57590
L15440 57700
L15440 57870
" />
<path d="M14660 56970
L15440 56970
" />
<path d="M14770 56970
L14710 56910
L14660 56800
L14660 56630
L14710 56520
L14830 56460
L15440 56460
" />
<path d="M14660 56070
L14660 55620
" />
<path d="M14260 55900
L15280 55900
L15390 55840
L15440 55730
L15440 55620
" />
<path d="M15440 55230
L14660 55230
" />
<path d="M14880 55230
L14770 55170
L14710 55120
L14660 55000
L14660 54890
" />
<path d="M15440 54330
L15390 54440
L15330 54500
L15220 54560
L14880 54560
L14770 54500
L14710 54440
L14660 54330
L14660 54160
L14710 54050
L14770 53990
L14880 53940
L15220 53940
L15330 53990
L15390 54050
L15440 54160
L15440 54330
" />
<path d="M15440 53260
L15390 53370
L15280 53430
L14260 53430
" />
<path d="M15440 52640
L15390 52750
L15280 52810
L14260 52810
" />
<path d="M15390 51740
L15440 51850
L15440 52080
L15390 52190
L15280 52250
L14830 52250
L14710 52190
L14660 52080
L14660 51850
L14710 51740
L14830 51680
L14940 51680
L15050 52250
" />
<path d="M15440 51180
L14660 51180
" />
<path d="M14880 51180
L14770 51120
L14710 51070
L14660 50950
L14660 50840
" />
</g>
<g style="fill:#0000C2; fill-opacity:0.0; 
stroke:#0000C2; stroke-width:0; stroke-opacity:1; 
stroke-linecap:round; stroke-linejoin:round;">
</g>
<g style="fill:#840000; fill-opacity:0.0; 
stroke:#840000; stroke-width:0; stroke-opacity:1; 
stroke-linecap:round; stroke-linejoin:round;">
</g>
<g style="fill:#840000; fill-opacity:0.0; 
stroke:#840000; stroke-width:100; stroke-opacity:1; 
stroke-linecap:round; stroke-linejoin:round;">
<polyline fill="none;"
points="25900,56000
25900,55000
" /> 
</g>
<g style="fill:#840000; fill-opacity:0.0; 
stroke:#840000; stroke-width:80; stroke-opacity:1; 
stroke-linecap:round; stroke-linejoin:round;">
<polyline fill="none;"
points="26400,54500
25900,55500
25400,54500
26400,54500
" /> 
<polyline fill="none;"
points="25400,55700
25400,55500
26400,55500
26400,55300
" /> 
<polyline fill="none;"
points="25400,56500
26400,56500
25900,55500
25400,56500
" /> 
</g>
<g style="fill:#840000; fill-opacity:0.0; 
stroke:#840000; stroke-width:100; stroke-opacity:1; 
stroke-linecap:round; stroke-linejoin:round;">
<path d="M25900 55000
L25900 54000
" />
<path d="M25900 56000
L25900 57000
" />
</g>
<g style="fill:#008400; fill-opacity:0.0; 
stroke:#008400; stroke-width:100; stroke-opacity:1; 
stroke-linecap:round; stroke-linejoin:round;">
<path d="M25900 53500
L25900 54000
" />
<path d="M25900 57000
L25900 57500
" />
</g>
<g style="fill:#008400; fill-opacity:0.0; 
stroke:#008400; stroke-width:0; stroke-opacity:1; 
stroke-linecap:round; stroke-linejoin:round;">
</g>
<g style="fill:#008400; fill-opacity:1.0; 
stroke:#008400; stroke-width:100; stroke-opacity:1; 
stroke-linecap:round; stroke-linejoin:round;">
<circle cx="25900" cy="57500" r="200" /> 
</g>
<g style="fill:#0000C2; fill-opacity:1.0; 
stroke:#0000C2; stroke-width:100; stroke-opacity:1; 
stroke-linecap:round; stroke-linejoin:round;">
</g>
<g style="fill:#0000C2; fill-opacity:1.0; 
stroke:#0000C2; stroke-width:100; stroke-opacity:1; 
stroke-linecap:round; stroke-linejoin:round;stroke-dasharray:96.8504,198.425;">
</g>
<g style="fill:#0000C2; fill-opacity:0.0; 
stroke:#0000C2; stroke-width:100; stroke-opacity:1; 
stroke-linecap:round; stroke-linejoin:round;stroke-dasharray:96.8504,198.425;">
<path d="M96500 41000
L10500 41000
" />
</g>
<g style="fill:#0000C2; fill-opacity:0.0; 
stroke:#0000C2; stroke-width:100; stroke-opacity:1; 
stroke-linecap:round; stroke-linejoin:round;">
</g>
<g style="fill:#0000C2; fill-opacity:0.0; 
stroke:#0000C2; stroke-width:100; stroke-opacity:1; 
stroke-linecap:round; stroke-linejoin:round;stroke-dasharray:96.8504,198.425;">
<path d="M10500 69500
L96500 69500
" />
</g>
<g style="fill:#0000C2; fill-opacity:0.0; 
stroke:#0000C2; stroke-width:100; stroke-opacity:1; 
stroke-linecap:round; stroke-linejoin:round;">
<path d="M52940 65270
L52940 64670
L53090 64670
L53170 64700
L53230 64760
L53260 64810
L53290 64930
L53290 65010
L53260 65130
L53230 65190
L53170 65240
L53090 65270
L52940 65270
" />
<path d="M53540 65270
L53540 64870
" />
<path d="M53540 64670
L53510 64700
L53540 64730
L53570 64700
L53540 64670
L53540 64730
" />
<path d="M53920 65270
L53860 65240
L53830 65210
L53800 65160
L53800 64990
L53830 64930
L53860 64900
L53920 64870
L54000 64870
L54060 64900
L54090 64930
L54120 64990
L54120 65160
L54090 65210
L54060 65240
L54000 65270
L53920 65270
" />
<path d="M54630 65270
L54630 64670
" />
<path d="M54630 65240
L54570 65270
L54460 65270
L54400 65240
L54370 65210
L54340 65160
L54340 64990
L54370 64930
L54400 64900
L54460 64870
L54570 64870
L54630 64900
" />
<path d="M55140 65240
L55080 65270
L54970 65270
L54910 65240
L54880 65190
L54880 64960
L54910 64900
L54970 64870
L55080 64870
L55140 64900
L55170 64960
L55170 65010
L54880 65070
" />
<path d="M55390 65240
L55450 65270
L55570 65270
L55620 65240
L55650 65190
L55650 65160
L55620 65100
L55570 65070
L55480 65070
L55420 65040
L55390 64990
L55390 64960
L55420 64900
L55480 64870
L55570 64870
L55620 64900
" />
<path d="M55910 65210
L55940 65240
L55910 65270
L55880 65240
L55910 65210
L55910 65270
" />
<path d="M55910 64900
L55940 64930
L55910 64960
L55880 64930
L55910 64900
L55910 64960
" />
<path d="M56890 65240
L56830 65270
L56720 65270
L56660 65240
L56630 65190
L56630 64960
L56660 64900
L56720 64870
L56830 64870
L56890 64900
L56920 64960
L56920 65010
L56630 65070
" />
<path d="M57170 65210
L57200 65240
L57170 65270
L57140 65240
L57170 65210
L57170 65270
" />
<path d="M57720 64870
L57720 65360
L57690 65410
L57660 65440
L57610 65470
L57520 65470
L57460 65440
" />
<path d="M57720 65240
L57660 65270
L57550 65270
L57490 65240
L57460 65210
L57430 65160
L57430 64990
L57460 64930
L57490 64900
L57550 64870
L57660 64870
L57720 64900
" />
<path d="M58000 65210
L58030 65240
L58000 65270
L57970 65240
L58000 65210
L58000 65270
" />
<path d="M53260 66170
L52910 66170
" />
<path d="M53090 66170
L53090 65570
L53030 65660
L52970 65710
L52910 65740
" />
<path d="M53510 66110
L53540 66140
L53510 66170
L53480 66140
L53510 66110
L53510 66170
" />
<path d="M54090 65570
L53800 65570
L53770 65860
L53800 65830
L53860 65800
L54000 65800
L54060 65830
L54090 65860
L54120 65910
L54120 66060
L54090 66110
L54060 66140
L54000 66170
L53860 66170
L53800 66140
L53770 66110
" />
<path d="M54370 66170
L54370 65570
" />
<path d="M54720 66170
L54460 65830
" />
<path d="M54720 65570
L54370 65910
" />
<path d="M54970 65860
L55170 65860
" />
<path d="M55260 66170
L54970 66170
L54970 65570
L55260 65570
" />
<path d="M55830 66170
L55480 66170
" />
<path d="M55660 66170
L55660 65570
L55600 65660
L55540 65710
L55480 65740
" />
<path d="M56200 65570
L56250 65570
L56310 65600
L56340 65630
L56370 65690
L56400 65800
L56400 65940
L56370 66060
L56340 66110
L56310 66140
L56250 66170
L56200 66170
L56140 66140
L56110 66110
L56080 66060
L56050 65940
L56050 65800
L56080 65690
L56110 65630
L56140 65600
L56200 65570
" />
<path d="M56770 65570
L56820 65570
L56880 65600
L56910 65630
L56940 65690
L56970 65800
L56970 65940
L56940 66060
L56910 66110
L56880 66140
L56820 66170
L56770 66170
L56710 66140
L56680 66110
L56650 66060
L56620 65940
L56620 65800
L56650 65690
L56680 65630
L56710 65600
L56770 65570
" />
<path d="M57570 66110
L57540 66140
L57450 66170
L57390 66170
L57310 66140
L57250 66090
L57220 66030
L57190 65910
L57190 65830
L57220 65710
L57250 65660
L57310 65600
L57390 65570
L57450 65570
L57540 65600
L57570 65630
" />
<path d="M57790 66000
L58080 66000
" />
<path d="M57740 66170
L57940 65570
L58140 66170
" />
<path d="M58330 66110
L58360 66140
L58330 66170
L58300 66140
L58330 66110
L58330 66170
" />
<path d="M58330 65800
L58360 65830
L58330 65860
L58300 65830
L58330 65800
L58330 65860
" />
<path d="M54870 66730
L54810 66700
L54780 66670
L54750 66610
L54750 66590
L54780 66530
L54810 66500
L54870 66470
L54980 66470
L55040 66500
L55070 66530
L55100 66590
L55100 66610
L55070 66670
L55040 66700
L54980 66730
L54870 66730
L54810 66760
L54780 66790
L54750 66840
L54750 66960
L54780 67010
L54810 67040
L54870 67070
L54980 67070
L55040 67040
L55070 67010
L55100 66960
L55100 66840
L55070 66790
L55040 66760
L54980 66730
" />
<path d="M55640 66470
L55350 66470
L55320 66760
L55350 66730
L55410 66700
L55550 66700
L55610 66730
L55640 66760
L55670 66810
L55670 66960
L55640 67010
L55610 67040
L55550 67070
L55410 67070
L55350 67040
L55320 67010
" />
<path d="M55920 67010
L55950 67040
L55920 67070
L55890 67040
L55920 67010
L55920 67070
" />
<path d="M56500 66470
L56210 66470
L56180 66760
L56210 66730
L56270 66700
L56410 66700
L56470 66730
L56500 66760
L56530 66810
L56530 66960
L56500 67010
L56470 67040
L56410 67070
L56270 67070
L56210 67040
L56180 67010
" />
<path d="M56700 66470
L56900 67070
L57100 66470
" />
<path d="M57920 67300
L57900 67270
L57840 67190
L57810 67130
L57780 67040
L57750 66900
L57750 66790
L57780 66640
L57810 66560
L57840 66500
L57900 66410
L57920 66390
" />
<path d="M58120 67040
L58210 67070
L58350 67070
L58410 67040
L58440 67010
L58470 66960
L58470 66900
L58440 66840
L58410 66810
L58350 66790
L58240 66760
L58180 66730
L58150 66700
L58120 66640
L58120 66590
L58150 66530
L58180 66500
L58240 66470
L58380 66470
L58470 66500
" />
<path d="M58640 66670
L58870 66670
" />
<path d="M58720 66470
L58720 66990
L58750 67040
L58810 67070
L58870 67070
" />
<path d="M59320 67070
L59320 66760
L59290 66700
L59230 66670
L59120 66670
L59060 66700
" />
<path d="M59320 67040
L59260 67070
L59120 67070
L59060 67040
L59030 66990
L59030 66930
L59060 66870
L59120 66840
L59260 66840
L59320 66810
" />
<path d="M59600 66670
L59600 67070
" />
<path d="M59600 66730
L59630 66700
L59690 66670
L59770 66670
L59830 66700
L59860 66760
L59860 67070
" />
<path d="M60400 67070
L60400 66470
" />
<path d="M60400 67040
L60340 67070
L60230 67070
L60170 67040
L60140 67010
L60110 66960
L60110 66790
L60140 66730
L60170 66700
L60230 66670
L60340 66670
L60400 66700
" />
<path d="M60770 67070
L60710 67040
L60680 67010
L60650 66960
L60650 66790
L60680 66730
L60710 66700
L60770 66670
L60850 66670
L60910 66700
L60940 66730
L60970 66790
L60970 66960
L60940 67010
L60910 67040
L60850 67070
L60770 67070
" />
<path d="M61140 66670
L61370 66670
" />
<path d="M61220 67070
L61220 66560
L61250 66500
L61310 66470
L61370 66470
" />
<path d="M61480 66670
L61710 66670
" />
<path d="M61560 67070
L61560 66560
L61590 66500
L61650 66470
L61710 66470
" />
<path d="M61850 67300
L61870 67270
L61930 67190
L61960 67130
L61990 67040
L62020 66900
L62020 66790
L61990 66640
L61960 66560
L61930 66500
L61870 66410
L61850 66390
" />
<path d="M62330 67040
L62330 67070
L62300 67130
L62270 67160
" />
<path d="M54810 67970
L54930 67970
L54980 67940
L55010 67910
L55070 67830
L55100 67710
L55100 67490
L55070 67430
L55040 67400
L54980 67370
L54870 67370
L54810 67400
L54780 67430
L54750 67490
L54750 67630
L54780 67690
L54810 67710
L54870 67740
L54980 67740
L55040 67710
L55070 67690
L55100 67630
" />
<path d="M55640 67370
L55350 67370
L55320 67660
L55350 67630
L55410 67600
L55550 67600
L55610 67630
L55640 67660
L55670 67710
L55670 67860
L55640 67910
L55610 67940
L55550 67970
L55410 67970
L55350 67940
L55320 67910
" />
<path d="M55920 67910
L55950 67940
L55920 67970
L55890 67940
L55920 67910
L55920 67970
" />
<path d="M56330 67370
L56380 67370
L56440 67400
L56470 67430
L56500 67490
L56530 67600
L56530 67740
L56500 67860
L56470 67910
L56440 67940
L56380 67970
L56330 67970
L56270 67940
L56240 67910
L56210 67860
L56180 67740
L56180 67600
L56210 67490
L56240 67430
L56270 67400
L56330 67370
" />
<path d="M56700 67370
L56900 67970
L57100 67370
" />
<path d="M57920 68200
L57900 68170
L57840 68090
L57810 68030
L57780 67940
L57750 67800
L57750 67690
L57780 67540
L57810 67460
L57840 67400
L57900 67310
L57920 67290
" />
<path d="M58350 67660
L58440 67690
L58470 67710
L58500 67770
L58500 67860
L58470 67910
L58440 67940
L58380 67970
L58150 67970
L58150 67370
L58350 67370
L58410 67400
L58440 67430
L58470 67490
L58470 67540
L58440 67600
L58410 67630
L58350 67660
L58150 67660
" />
<path d="M58750 67970
L58750 67570
" />
<path d="M58750 67690
L58780 67630
L58810 67600
L58870 67570
L58920 67570
" />
<path d="M59350 67940
L59290 67970
L59180 67970
L59120 67940
L59090 67890
L59090 67660
L59120 67600
L59180 67570
L59290 67570
L59350 67600
L59380 67660
L59380 67710
L59090 67770
" />
<path d="M59890 67970
L59890 67660
L59860 67600
L59800 67570
L59690 67570
L59630 67600
" />
<path d="M59890 67940
L59830 67970
L59690 67970
L59630 67940
L59600 67890
L59600 67830
L59630 67770
L59690 67740
L59830 67740
L59890 67710
" />
<path d="M60170 67970
L60170 67370
" />
<path d="M60230 67740
L60400 67970
" />
<path d="M60400 67570
L60170 67800
" />
<path d="M60920 67970
L60920 67370
" />
<path d="M60920 67940
L60860 67970
L60750 67970
L60690 67940
L60660 67910
L60630 67860
L60630 67690
L60660 67630
L60690 67600
L60750 67570
L60860 67570
L60920 67600
" />
<path d="M61290 67970
L61230 67940
L61200 67910
L61170 67860
L61170 67690
L61200 67630
L61230 67600
L61290 67570
L61370 67570
L61430 67600
L61460 67630
L61490 67690
L61490 67860
L61460 67910
L61430 67940
L61370 67970
L61290 67970
" />
<path d="M61690 67570
L61800 67970
L61910 67690
L62030 67970
L62140 67570
" />
<path d="M62370 67570
L62370 67970
" />
<path d="M62370 67630
L62400 67600
L62460 67570
L62540 67570
L62600 67600
L62630 67660
L62630 67970
" />
<path d="M62860 68200
L62880 68170
L62940 68090
L62970 68030
L63000 67940
L63030 67800
L63030 67690
L63000 67540
L62970 67460
L62940 67400
L62880 67310
L62860 67290
" />
<path d="M23940 59270
L23940 58670
L24090 58670
L24170 58700
L24230 58760
L24260 58810
L24290 58930
L24290 59010
L24260 59130
L24230 59190
L24170 59240
L24090 59270
L23940 59270
" />
<path d="M24540 59270
L24540 58870
" />
<path d="M24540 58670
L24510 58700
L24540 58730
L24570 58700
L24540 58670
L24540 58730
" />
<path d="M24920 59270
L24860 59240
L24830 59210
L24800 59160
L24800 58990
L24830 58930
L24860 58900
L24920 58870
L25000 58870
L25060 58900
L25090 58930
L25120 58990
L25120 59160
L25090 59210
L25060 59240
L25000 59270
L24920 59270
" />
<path d="M25630 59270
L25630 58670
" />
<path d="M25630 59240
L25570 59270
L25460 59270
L25400 59240
L25370 59210
L25340 59160
L25340 58990
L25370 58930
L25400 58900
L25460 58870
L25570 58870
L25630 58900
" />
<path d="M26140 59240
L26080 59270
L25970 59270
L25910 59240
L25880 59190
L25880 58960
L25910 58900
L25970 58870
L26080 58870
L26140 58900
L26170 58960
L26170 59010
L25880 59070
" />
<path d="M26420 59210
L26450 59240
L26420 59270
L26390 59240
L26420 59210
L26420 59270
" />
<path d="M26420 58900
L26450 58930
L26420 58960
L26390 58930
L26420 58900
L26420 58960
" />
<path d="M27400 59240
L27340 59270
L27230 59270
L27170 59240
L27140 59190
L27140 58960
L27170 58900
L27230 58870
L27340 58870
L27400 58900
L27430 58960
L27430 59010
L27140 59070
" />
<path d="M27680 59210
L27710 59240
L27680 59270
L27650 59240
L27680 59210
L27680 59270
" />
<path d="M28230 58870
L28230 59360
L28200 59410
L28170 59440
L28120 59470
L28030 59470
L27970 59440
" />
<path d="M28230 59240
L28170 59270
L28060 59270
L28000 59240
L27970 59210
L27940 59160
L27940 58990
L27970 58930
L28000 58900
L28060 58870
L28170 58870
L28230 58900
" />
<path d="M28510 59210
L28540 59240
L28510 59270
L28480 59240
L28510 59210
L28510 59270
" />
<path d="M24260 60170
L23910 60170
" />
<path d="M24090 60170
L24090 59570
L24030 59660
L23970 59710
L23910 59740
" />
<path d="M24510 60110
L24540 60140
L24510 60170
L24480 60140
L24510 60110
L24510 60170
" />
<path d="M25090 59570
L24800 59570
L24770 59860
L24800 59830
L24860 59800
L25000 59800
L25060 59830
L25090 59860
L25120 59910
L25120 60060
L25090 60110
L25060 60140
L25000 60170
L24860 60170
L24800 60140
L24770 60110
" />
<path d="M25370 60170
L25370 59570
" />
<path d="M25720 60170
L25460 59830
" />
<path d="M25720 59570
L25370 59910
" />
<path d="M25970 59860
L26170 59860
" />
<path d="M26260 60170
L25970 60170
L25970 59570
L26260 59570
" />
<path d="M26830 60170
L26480 60170
" />
<path d="M26660 60170
L26660 59570
L26600 59660
L26540 59710
L26480 59740
" />
<path d="M27170 59830
L27110 59800
L27080 59770
L27050 59710
L27050 59690
L27080 59630
L27110 59600
L27170 59570
L27280 59570
L27340 59600
L27370 59630
L27400 59690
L27400 59710
L27370 59770
L27340 59800
L27280 59830
L27170 59830
L27110 59860
L27080 59890
L27050 59940
L27050 60060
L27080 60110
L27110 60140
L27170 60170
L27280 60170
L27340 60140
L27370 60110
L27400 60060
L27400 59940
L27370 59890
L27340 59860
L27280 59830
" />
<path d="M28000 60110
L27970 60140
L27880 60170
L27820 60170
L27740 60140
L27680 60090
L27650 60030
L27620 59910
L27620 59830
L27650 59710
L27680 59660
L27740 59600
L27820 59570
L27880 59570
L27970 59600
L28000 59630
" />
<path d="M28220 60000
L28510 60000
" />
<path d="M28170 60170
L28370 59570
L28570 60170
" />
<path d="M28760 60110
L28790 60140
L28760 60170
L28730 60140
L28760 60110
L28760 60170
" />
<path d="M28760 59800
L28790 59830
L28760 59860
L28730 59830
L28760 59800
L28760 59860
" />
<path d="M26100 61070
L25750 61070
" />
<path d="M25930 61070
L25930 60470
L25870 60560
L25810 60610
L25750 60640
" />
<path d="M26640 60470
L26350 60470
L26320 60760
L26350 60730
L26410 60700
L26550 60700
L26610 60730
L26640 60760
L26670 60810
L26670 60960
L26640 61010
L26610 61040
L26550 61070
L26410 61070
L26350 61040
L26320 61010
" />
<path d="M26920 61010
L26950 61040
L26920 61070
L26890 61040
L26920 61010
L26920 61070
" />
<path d="M27160 60470
L27530 60470
L27330 60700
L27410 60700
L27470 60730
L27500 60760
L27530 60810
L27530 60960
L27500 61010
L27470 61040
L27410 61070
L27240 61070
L27180 61040
L27160 61010
" />
<path d="M27700 60470
L27900 61070
L28100 60470
" />
<path d="M28920 61300
L28900 61270
L28840 61190
L28810 61130
L28780 61040
L28750 60900
L28750 60790
L28780 60640
L28810 60560
L28840 60500
L28900 60410
L28920 60390
" />
<path d="M29120 61040
L29210 61070
L29350 61070
L29410 61040
L29440 61010
L29470 60960
L29470 60900
L29440 60840
L29410 60810
L29350 60790
L29240 60760
L29180 60730
L29150 60700
L29120 60640
L29120 60590
L29150 60530
L29180 60500
L29240 60470
L29380 60470
L29470 60500
" />
<path d="M29640 60670
L29870 60670
" />
<path d="M29720 60470
L29720 60990
L29750 61040
L29810 61070
L29870 61070
" />
<path d="M30320 61070
L30320 60760
L30290 60700
L30230 60670
L30120 60670
L30060 60700
" />
<path d="M30320 61040
L30260 61070
L30120 61070
L30060 61040
L30030 60990
L30030 60930
L30060 60870
L30120 60840
L30260 60840
L30320 60810
" />
<path d="M30600 60670
L30600 61070
" />
<path d="M30600 60730
L30630 60700
L30690 60670
L30770 60670
L30830 60700
L30860 60760
L30860 61070
" />
<path d="M31400 61070
L31400 60470
" />
<path d="M31400 61040
L31340 61070
L31230 61070
L31170 61040
L31140 61010
L31110 60960
L31110 60790
L31140 60730
L31170 60700
L31230 60670
L31340 60670
L31400 60700
" />
<path d="M31770 61070
L31710 61040
L31680 61010
L31650 60960
L31650 60790
L31680 60730
L31710 60700
L31770 60670
L31850 60670
L31910 60700
L31940 60730
L31970 60790
L31970 60960
L31940 61010
L31910 61040
L31850 61070
L31770 61070
" />
<path d="M32140 60670
L32370 60670
" />
<path d="M32220 61070
L32220 60560
L32250 60500
L32310 60470
L32370 60470
" />
<path d="M32480 60670
L32710 60670
" />
<path d="M32560 61070
L32560 60560
L32590 60500
L32650 60470
L32710 60470
" />
<path d="M32850 61300
L32870 61270
L32930 61190
L32960 61130
L32990 61040
L33020 60900
L33020 60790
L32990 60640
L32960 60560
L32930 60500
L32870 60410
L32850 60390
" />
<path d="M33330 61040
L33330 61070
L33300 61130
L33270 61160
" />
<path d="M26100 61970
L25750 61970
" />
<path d="M25930 61970
L25930 61370
L25870 61460
L25810 61510
L25750 61540
" />
<path d="M26300 61370
L26700 61370
L26440 61970
" />
<path d="M26920 61910
L26950 61940
L26920 61970
L26890 61940
L26920 61910
L26920 61970
" />
<path d="M27530 61970
L27180 61970
" />
<path d="M27360 61970
L27360 61370
L27300 61460
L27240 61510
L27180 61540
" />
<path d="M27700 61370
L27900 61970
L28100 61370
" />
<path d="M28920 62200
L28900 62170
L28840 62090
L28810 62030
L28780 61940
L28750 61800
L28750 61690
L28780 61540
L28810 61460
L28840 61400
L28900 61310
L28920 61290
" />
<path d="M29350 61660
L29440 61690
L29470 61710
L29500 61770
L29500 61860
L29470 61910
L29440 61940
L29380 61970
L29150 61970
L29150 61370
L29350 61370
L29410 61400
L29440 61430
L29470 61490
L29470 61540
L29440 61600
L29410 61630
L29350 61660
L29150 61660
" />
<path d="M29750 61970
L29750 61570
" />
<path d="M29750 61690
L29780 61630
L29810 61600
L29870 61570
L29920 61570
" />
<path d="M30350 61940
L30290 61970
L30180 61970
L30120 61940
L30090 61890
L30090 61660
L30120 61600
L30180 61570
L30290 61570
L30350 61600
L30380 61660
L30380 61710
L30090 61770
" />
<path d="M30890 61970
L30890 61660
L30860 61600
L30800 61570
L30690 61570
L30630 61600
" />
<path d="M30890 61940
L30830 61970
L30690 61970
L30630 61940
L30600 61890
L30600 61830
L30630 61770
L30690 61740
L30830 61740
L30890 61710
" />
<path d="M31170 61970
L31170 61370
" />
<path d="M31230 61740
L31400 61970
" />
<path d="M31400 61570
L31170 61800
" />
<path d="M31920 61970
L31920 61370
" />
<path d="M31920 61940
L31860 61970
L31750 61970
L31690 61940
L31660 61910
L31630 61860
L31630 61690
L31660 61630
L31690 61600
L31750 61570
L31860 61570
L31920 61600
" />
<path d="M32290 61970
L32230 61940
L32200 61910
L32170 61860
L32170 61690
L32200 61630
L32230 61600
L32290 61570
L32370 61570
L32430 61600
L32460 61630
L32490 61690
L32490 61860
L32460 61910
L32430 61940
L32370 61970
L32290 61970
" />
<path d="M32690 61570
L32800 61970
L32910 61690
L33030 61970
L33140 61570
" />
<path d="M33370 61570
L33370 61970
" />
<path d="M33370 61630
L33400 61600
L33460 61570
L33540 61570
L33600 61600
L33630 61660
L33630 61970
" />
<path d="M33860 62200
L33880 62170
L33940 62090
L33970 62030
L34000 61940
L34030 61800
L34030 61690
L34000 61540
L33970 61460
L33940 61400
L33880 61310
L33860 61290
" />
</g>
<g style="fill:#0000C2; fill-opacity:0.0; 
stroke:#0000C2; stroke-width:0; stroke-opacity:1; 
stroke-linecap:round; stroke-linejoin:round;">
</g>
<g style="fill:#840000; fill-opacity:0.0; 
stroke:#840000; stroke-width:0; stroke-opacity:1; 
stroke-linecap:round; stroke-linejoin:round;">
</g>
<g style="fill:#840000; fill-opacity:0.0; 
stroke:#840000; stroke-width:100; stroke-opacity:1; 
stroke-linecap:round; stroke-linejoin:round;">
<rect x="27600" y="53200" width="2000" height="600" rx="0" />
<polyline fill="none;"
points="29600,53500
27600,53500
" /> 
<path d="M29600 53500
L30100 53500
" />
<path d="M27600 53500
L27100 53500
" />
</g>
<g style="fill:#008484; fill-opacity:0.0; 
stroke:#008484; stroke-width:100; stroke-opacity:1; 
stroke-linecap:round; stroke-linejoin:round;">
</g>
<g style="fill:#008484; fill-opacity:0.0; 
stroke:#008484; stroke-width:80; stroke-opacity:1; 
stroke-linecap:round; stroke-linejoin:round;">
<path d="M27720 53930
L27480 53930
L27460 54160
L27480 54140
L27530 54120
L27650 54120
L27690 54140
L27720 54160
L27740 54210
L27740 54330
L27720 54380
L27690 54400
L27650 54430
L27530 54430
L27480 54400
L27460 54380
" />
<path d="M28050 53930
L28100 53930
L28150 53950
L28170 53970
L28200 54020
L28220 54120
L28220 54240
L28200 54330
L28170 54380
L28150 54400
L28100 54430
L28050 54430
L28010 54400
L27980 54380
L27960 54330
L27940 54240
L27940 54120
L27960 54020
L27980 53970
L28010 53950
L28050 53930
" />
<path d="M28440 54430
L28440 54090
" />
<path d="M28440 54140
L28460 54120
L28510 54090
L28580 54090
L28630 54120
L28650 54160
L28650 54430
" />
<path d="M28650 54160
L28680 54120
L28720 54090
L28800 54090
L28840 54120
L28870 54160
L28870 54430
" />
<path d="M29090 54280
L29320 54280
" />
<path d="M29040 54430
L29200 53930
L29370 54430
" />
<path d="M29710 54160
L29540 54160
" />
<path d="M29540 54430
L29540 53930
L29780 53930
" />
</g>
<g style="fill:#008484; fill-opacity:0.0; 
stroke:#008484; stroke-width:0; stroke-opacity:1; 
stroke-linecap:round; stroke-linejoin:round;">
</g>
<g style="fill:#008400; fill-opacity:0.0; 
stroke:#008400; stroke-width:0; stroke-opacity:1; 
stroke-linecap:round; stroke-linejoin:round;">
</g>
<g style="fill:#008400; fill-opacity:1.0; 
stroke:#008400; stroke-width:100; stroke-opacity:1; 
stroke-linecap:round; stroke-linejoin:round;">
<circle cx="25900" cy="53500" r="200" /> 
</g>
<g style="fill:#008400; fill-opacity:0.0; 
stroke:#008400; stroke-width:100; stroke-opacity:1; 
stroke-linecap:round; stroke-linejoin:round;">
<path d="M30100 53500
L31000 53500
" />
</g>
<g style="fill:#008400; fill-opacity:0.0; 
stroke:#008400; stroke-width:0; stroke-opacity:1; 
stroke-linecap:round; stroke-linejoin:round;">
</g>
<g style="fill:#840000; fill-opacity:0.0; 
stroke:#840000; stroke-width:0; stroke-opacity:1; 
stroke-linecap:round; stroke-linejoin:round;">
</g>
<g style="fill:#840000; fill-opacity:0.0; 
stroke:#840000; stroke-width:100; stroke-opacity:1; 
stroke-linecap:round; stroke-linejoin:round;">
<rect x="130100" y="53200" width="2000" height="600" rx="0" />
<polyline fill="none;"
points="132100,53500
130100,53500
" /> 
<path d="M132100 53500
L132600 53500
" />
<path d="M130100 53500
L129600 53500
" />
</g>
<g style="fill:#008484; fill-opacity:0.0; 
stroke:#008484; stroke-width:100; stroke-opacity:1; 
stroke-linecap:round; stroke-linejoin:round;">
</g>
<g style="fill:#008484; fill-opacity:0.0; 
stroke:#008484; stroke-width:80; stroke-opacity:1; 
stroke-linecap:round; stroke-linejoin:round;">
<path d="M130220 53930
L129980 53930
L129960 54160
L129980 54140
L130030 54120
L130150 54120
L130190 54140
L130220 54160
L130240 54210
L130240 54330
L130220 54380
L130190 54400
L130150 54430
L130030 54430
L129980 54400
L129960 54380
" />
<path d="M130550 53930
L130600 53930
L130650 53950
L130670 53970
L130700 54020
L130720 54120
L130720 54240
L130700 54330
L130670 54380
L130650 54400
L130600 54430
L130550 54430
L130510 54400
L130480 54380
L130460 54330
L130440 54240
L130440 54120
L130460 54020
L130480 53970
L130510 53950
L130550 53930
" />
<path d="M130940 54430
L130940 54090
" />
<path d="M130940 54140
L130960 54120
L131010 54090
L131080 54090
L131130 54120
L131150 54160
L131150 54430
" />
<path d="M131150 54160
L131180 54120
L131220 54090
L131300 54090
L131340 54120
L131370 54160
L131370 54430
" />
<path d="M131590 54280
L131820 54280
" />
<path d="M131540 54430
L131700 53930
L131870 54430
" />
<path d="M132210 54160
L132040 54160
" />
<path d="M132040 54430
L132040 53930
L132280 53930
" />
</g>
<g style="fill:#008484; fill-opacity:0.0; 
stroke:#008484; stroke-width:100; stroke-opacity:1; 
stroke-linecap:round; stroke-linejoin:round;">
</g>
<g style="fill:#008400; fill-opacity:0.0; 
stroke:#008400; stroke-width:100; stroke-opacity:1; 
stroke-linecap:round; stroke-linejoin:round;">
<path d="M128500 53500
L129600 53500
" />
<path d="M132600 53500
L133800 53500
" />
<path d="M133800 53500
L141000 53500
" />
<path d="M133800 53500
L133800 54000
" />
<path d="M143000 54500
L141000 54500
" />
<path d="M141000 54500
L141000 53500
" />
</g>
<g style="fill:#008400; fill-opacity:0.0; 
stroke:#008400; stroke-width:0; stroke-opacity:1; 
stroke-linecap:round; stroke-linejoin:round;">
</g>
<g style="fill:#008400; fill-opacity:1.0; 
stroke:#008400; stroke-width:100; stroke-opacity:1; 
stroke-linecap:round; stroke-linejoin:round;">
<circle cx="133800" cy="53500" r="200" /> 
</g>
<g style="fill:#0000C2; fill-opacity:0.0; 
stroke:#0000C2; stroke-width:100; stroke-opacity:1; 
stroke-linecap:round; stroke-linejoin:round;">
<path d="M133040 59170
L133040 58570
L133190 58570
L133270 58600
L133330 58660
L133360 58710
L133390 58830
L133390 58910
L133360 59030
L133330 59090
L133270 59140
L133190 59170
L133040 59170
" />
<path d="M133640 59170
L133640 58770
" />
<path d="M133640 58570
L133610 58600
L133640 58630
L133670 58600
L133640 58570
L133640 58630
" />
<path d="M134020 59170
L133960 59140
L133930 59110
L133900 59060
L133900 58890
L133930 58830
L133960 58800
L134020 58770
L134100 58770
L134160 58800
L134190 58830
L134220 58890
L134220 59060
L134190 59110
L134160 59140
L134100 59170
L134020 59170
" />
<path d="M134730 59170
L134730 58570
" />
<path d="M134730 59140
L134670 59170
L134560 59170
L134500 59140
L134470 59110
L134440 59060
L134440 58890
L134470 58830
L134500 58800
L134560 58770
L134670 58770
L134730 58800
" />
<path d="M135240 59140
L135180 59170
L135070 59170
L135010 59140
L134980 59090
L134980 58860
L135010 58800
L135070 58770
L135180 58770
L135240 58800
L135270 58860
L135270 58910
L134980 58970
" />
<path d="M135520 59110
L135550 59140
L135520 59170
L135490 59140
L135520 59110
L135520 59170
" />
<path d="M135520 58800
L135550 58830
L135520 58860
L135490 58830
L135520 58800
L135520 58860
" />
<path d="M136500 59140
L136440 59170
L136330 59170
L136270 59140
L136240 59090
L136240 58860
L136270 58800
L136330 58770
L136440 58770
L136500 58800
L136530 58860
L136530 58910
L136240 58970
" />
<path d="M136780 59110
L136810 59140
L136780 59170
L136750 59140
L136780 59110
L136780 59170
" />
<path d="M137330 58770
L137330 59260
L137300 59310
L137270 59340
L137220 59370
L137130 59370
L137070 59340
" />
<path d="M137330 59140
L137270 59170
L137160 59170
L137100 59140
L137070 59110
L137040 59060
L137040 58890
L137070 58830
L137100 58800
L137160 58770
L137270 58770
L137330 58800
" />
<path d="M137610 59110
L137640 59140
L137610 59170
L137580 59140
L137610 59110
L137610 59170
" />
<path d="M133360 60070
L133010 60070
" />
<path d="M133190 60070
L133190 59470
L133130 59560
L133070 59610
L133010 59640
" />
<path d="M133610 60010
L133640 60040
L133610 60070
L133580 60040
L133610 60010
L133610 60070
" />
<path d="M134190 59470
L133900 59470
L133870 59760
L133900 59730
L133960 59700
L134100 59700
L134160 59730
L134190 59760
L134220 59810
L134220 59960
L134190 60010
L134160 60040
L134100 60070
L133960 60070
L133900 60040
L133870 60010
" />
<path d="M134470 60070
L134470 59470
" />
<path d="M134820 60070
L134560 59730
" />
<path d="M134820 59470
L134470 59810
" />
<path d="M135070 59760
L135270 59760
" />
<path d="M135360 60070
L135070 60070
L135070 59470
L135360 59470
" />
<path d="M135930 60070
L135580 60070
" />
<path d="M135760 60070
L135760 59470
L135700 59560
L135640 59610
L135580 59640
" />
<path d="M136270 59730
L136210 59700
L136180 59670
L136150 59610
L136150 59590
L136180 59530
L136210 59500
L136270 59470
L136380 59470
L136440 59500
L136470 59530
L136500 59590
L136500 59610
L136470 59670
L136440 59700
L136380 59730
L136270 59730
L136210 59760
L136180 59790
L136150 59840
L136150 59960
L136180 60010
L136210 60040
L136270 60070
L136380 60070
L136440 60040
L136470 60010
L136500 59960
L136500 59840
L136470 59790
L136440 59760
L136380 59730
" />
<path d="M137100 60010
L137070 60040
L136980 60070
L136920 60070
L136840 60040
L136780 59990
L136750 59930
L136720 59810
L136720 59730
L136750 59610
L136780 59560
L136840 59500
L136920 59470
L136980 59470
L137070 59500
L137100 59530
" />
<path d="M137320 59900
L137610 59900
" />
<path d="M137270 60070
L137470 59470
L137670 60070
" />
<path d="M137860 60010
L137890 60040
L137860 60070
L137830 60040
L137860 60010
L137860 60070
" />
<path d="M137860 59700
L137890 59730
L137860 59760
L137830 59730
L137860 59700
L137860 59760
" />
<path d="M135200 60970
L134850 60970
" />
<path d="M135030 60970
L135030 60370
L134970 60460
L134910 60510
L134850 60540
" />
<path d="M135740 60370
L135450 60370
L135420 60660
L135450 60630
L135510 60600
L135650 60600
L135710 60630
L135740 60660
L135770 60710
L135770 60860
L135740 60910
L135710 60940
L135650 60970
L135510 60970
L135450 60940
L135420 60910
" />
<path d="M136020 60910
L136050 60940
L136020 60970
L135990 60940
L136020 60910
L136020 60970
" />
<path d="M136260 60370
L136630 60370
L136430 60600
L136510 60600
L136570 60630
L136600 60660
L136630 60710
L136630 60860
L136600 60910
L136570 60940
L136510 60970
L136340 60970
L136280 60940
L136260 60910
" />
<path d="M136800 60370
L137000 60970
L137200 60370
" />
<path d="M138020 61200
L138000 61170
L137940 61090
L137910 61030
L137880 60940
L137850 60800
L137850 60690
L137880 60540
L137910 60460
L137940 60400
L138000 60310
L138020 60290
" />
<path d="M138220 60940
L138310 60970
L138450 60970
L138510 60940
L138540 60910
L138570 60860
L138570 60800
L138540 60740
L138510 60710
L138450 60690
L138340 60660
L138280 60630
L138250 60600
L138220 60540
L138220 60490
L138250 60430
L138280 60400
L138340 60370
L138480 60370
L138570 60400
" />
<path d="M138740 60570
L138970 60570
" />
<path d="M138820 60370
L138820 60890
L138850 60940
L138910 60970
L138970 60970
" />
<path d="M139420 60970
L139420 60660
L139390 60600
L139330 60570
L139220 60570
L139160 60600
" />
<path d="M139420 60940
L139360 60970
L139220 60970
L139160 60940
L139130 60890
L139130 60830
L139160 60770
L139220 60740
L139360 60740
L139420 60710
" />
<path d="M139700 60570
L139700 60970
" />
<path d="M139700 60630
L139730 60600
L139790 60570
L139870 60570
L139930 60600
L139960 60660
L139960 60970
" />
<path d="M140500 60970
L140500 60370
" />
<path d="M140500 60940
L140440 60970
L140330 60970
L140270 60940
L140240 60910
L140210 60860
L140210 60690
L140240 60630
L140270 60600
L140330 60570
L140440 60570
L140500 60600
" />
<path d="M140870 60970
L140810 60940
L140780 60910
L140750 60860
L140750 60690
L140780 60630
L140810 60600
L140870 60570
L140950 60570
L141010 60600
L141040 60630
L141070 60690
L141070 60860
L141040 60910
L141010 60940
L140950 60970
L140870 60970
" />
<path d="M141240 60570
L141470 60570
" />
<path d="M141320 60970
L141320 60460
L141350 60400
L141410 60370
L141470 60370
" />
<path d="M141580 60570
L141810 60570
" />
<path d="M141660 60970
L141660 60460
L141690 60400
L141750 60370
L141810 60370
" />
<path d="M141950 61200
L141970 61170
L142030 61090
L142060 61030
L142090 60940
L142120 60800
L142120 60690
L142090 60540
L142060 60460
L142030 60400
L141970 60310
L141950 60290
" />
<path d="M142430 60940
L142430 60970
L142400 61030
L142370 61060
" />
<path d="M135200 61870
L134850 61870
" />
<path d="M135030 61870
L135030 61270
L134970 61360
L134910 61410
L134850 61440
" />
<path d="M135400 61270
L135800 61270
L135540 61870
" />
<path d="M136020 61810
L136050 61840
L136020 61870
L135990 61840
L136020 61810
L136020 61870
" />
<path d="M136630 61870
L136280 61870
" />
<path d="M136460 61870
L136460 61270
L136400 61360
L136340 61410
L136280 61440
" />
<path d="M136800 61270
L137000 61870
L137200 61270
" />
<path d="M138020 62100
L138000 62070
L137940 61990
L137910 61930
L137880 61840
L137850 61700
L137850 61590
L137880 61440
L137910 61360
L137940 61300
L138000 61210
L138020 61190
" />
<path d="M138450 61560
L138540 61590
L138570 61610
L138600 61670
L138600 61760
L138570 61810
L138540 61840
L138480 61870
L138250 61870
L138250 61270
L138450 61270
L138510 61300
L138540 61330
L138570 61390
L138570 61440
L138540 61500
L138510 61530
L138450 61560
L138250 61560
" />
<path d="M138850 61870
L138850 61470
" />
<path d="M138850 61590
L138880 61530
L138910 61500
L138970 61470
L139020 61470
" />
<path d="M139450 61840
L139390 61870
L139280 61870
L139220 61840
L139190 61790
L139190 61560
L139220 61500
L139280 61470
L139390 61470
L139450 61500
L139480 61560
L139480 61610
L139190 61670
" />
<path d="M139990 61870
L139990 61560
L139960 61500
L139900 61470
L139790 61470
L139730 61500
" />
<path d="M139990 61840
L139930 61870
L139790 61870
L139730 61840
L139700 61790
L139700 61730
L139730 61670
L139790 61640
L139930 61640
L139990 61610
" />
<path d="M140270 61870
L140270 61270
" />
<path d="M140330 61640
L140500 61870
" />
<path d="M140500 61470
L140270 61700
" />
<path d="M141020 61870
L141020 61270
" />
<path d="M141020 61840
L140960 61870
L140850 61870
L140790 61840
L140760 61810
L140730 61760
L140730 61590
L140760 61530
L140790 61500
L140850 61470
L140960 61470
L141020 61500
" />
<path d="M141390 61870
L141330 61840
L141300 61810
L141270 61760
L141270 61590
L141300 61530
L141330 61500
L141390 61470
L141470 61470
L141530 61500
L141560 61530
L141590 61590
L141590 61760
L141560 61810
L141530 61840
L141470 61870
L141390 61870
" />
<path d="M141790 61470
L141900 61870
L142010 61590
L142130 61870
L142240 61470
" />
<path d="M142470 61470
L142470 61870
" />
<path d="M142470 61530
L142500 61500
L142560 61470
L142640 61470
L142700 61500
L142730 61560
L142730 61870
" />
<path d="M142960 62100
L142980 62070
L143040 61990
L143070 61930
L143100 61840
L143130 61700
L143130 61590
L143100 61440
L143070 61360
L143040 61300
L142980 61210
L142960 61190
" />
<path d="M99460 48460
L99400 48520
L99230 48570
L99120 48570
L98950 48520
L98840 48410
L98780 48290
L98720 48070
L98720 47900
L98780 47670
L98840 47560
L98950 47450
L99120 47390
L99230 47390
L99400 47450
L99460 47510
" />
<path d="M100470 48570
L100470 47960
L100410 47840
L100300 47790
L100070 47790
L99960 47840
" />
<path d="M100470 48520
L100350 48570
L100070 48570
L99960 48520
L99900 48410
L99900 48290
L99960 48180
L100070 48120
L100350 48120
L100470 48070
" />
<path d="M101030 48570
L101030 47390
" />
<path d="M101030 47840
L101140 47790
L101370 47790
L101480 47840
L101540 47900
L101590 48010
L101590 48350
L101540 48460
L101480 48520
L101370 48570
L101140 48570
L101030 48520
" />
<path d="M102270 48570
L102160 48520
L102100 48410
L102100 47390
" />
<path d="M103170 48520
L103060 48570
L102830 48570
L102720 48520
L102660 48410
L102660 47960
L102720 47840
L102830 47790
L103060 47790
L103170 47840
L103230 47960
L103230 48070
L102660 48180
" />
<path d="M104460 47790
L104910 47790
" />
<path d="M104630 47390
L104630 48410
L104690 48520
L104800 48570
L104910 48570
" />
<path d="M105470 48570
L105360 48520
L105300 48460
L105240 48350
L105240 48010
L105300 47900
L105360 47840
L105470 47790
L105640 47790
L105750 47840
L105810 47900
L105860 48010
L105860 48350
L105810 48460
L105750 48520
L105640 48570
L105470 48570
" />
<path d="M107270 47790
L107270 48970
" />
<path d="M107270 47840
L107380 47790
L107610 47790
L107720 47840
L107780 47900
L107830 48010
L107830 48350
L107780 48460
L107720 48520
L107610 48570
L107380 48570
L107270 48520
" />
<path d="M108790 48520
L108680 48570
L108450 48570
L108340 48520
L108280 48410
L108280 47960
L108340 47840
L108450 47790
L108680 47790
L108790 47840
L108850 47960
L108850 48070
L108280 48180
" />
<path d="M109350 48570
L109350 47790
" />
<path d="M109350 48010
L109410 47900
L109460 47840
L109580 47790
L109690 47790
" />
<path d="M110080 48570
L110080 47790
" />
<path d="M110080 47390
L110020 47450
L110080 47510
L110140 47450
L110080 47390
L110080 47510
" />
<path d="M110640 47790
L110640 48970
" />
<path d="M110640 47840
L110750 47790
L110980 47790
L111090 47840
L111150 47900
L111200 48010
L111200 48350
L111150 48460
L111090 48520
L110980 48570
L110750 48570
L110640 48520
" />
<path d="M111710 48570
L111710 47390
" />
<path d="M112220 48570
L112220 47960
L112160 47840
L112050 47790
L111880 47790
L111770 47840
L111710 47900
" />
<path d="M113230 48520
L113120 48570
L112890 48570
L112780 48520
L112720 48410
L112720 47960
L112780 47840
L112890 47790
L113120 47790
L113230 47840
L113290 47960
L113290 48070
L112720 48180
" />
<path d="M113790 48570
L113790 47790
" />
<path d="M113790 48010
L113850 47900
L113900 47840
L114020 47790
L114130 47790
" />
<path d="M115030 48570
L115030 47960
L114970 47840
L114860 47790
L114630 47790
L114520 47840
" />
<path d="M115030 48520
L114910 48570
L114630 48570
L114520 48520
L114460 48410
L114460 48290
L114520 48180
L114630 48120
L114910 48120
L115030 48070
" />
<path d="M115760 48570
L115650 48520
L115590 48410
L115590 47390
" />
<path d="M99120 50790
L99060 50740
L98950 50570
L98890 50460
L98840 50290
L98780 50010
L98780 49780
L98840 49500
L98890 49330
L98950 49220
L99060 49050
L99120 49000
" />
<path d="M99570 50340
L99570 49160
" />
<path d="M99570 49610
L99680 49560
L99910 49560
L100020 49610
L100080 49670
L100130 49780
L100130 50120
L100080 50230
L100020 50290
L99910 50340
L99680 50340
L99570 50290
" />
<path d="M101090 50290
L100980 50340
L100750 50340
L100640 50290
L100580 50180
L100580 49730
L100640 49610
L100750 49560
L100980 49560
L101090 49610
L101150 49730
L101150 49840
L100580 49950
" />
<path d="M101480 49560
L101930 49560
" />
<path d="M101650 49160
L101650 50180
L101710 50290
L101820 50340
L101930 50340
" />
<path d="M102210 49560
L102430 50340
L102660 49780
L102880 50340
L103110 49560
" />
<path d="M104010 50290
L103900 50340
L103670 50340
L103560 50290
L103500 50180
L103500 49730
L103560 49610
L103670 49560
L103900 49560
L104010 49610
L104070 49730
L104070 49840
L103500 49950
" />
<path d="M105020 50290
L104910 50340
L104680 50340
L104570 50290
L104510 50180
L104510 49730
L104570 49610
L104680 49560
L104910 49560
L105020 49610
L105080 49730
L105080 49840
L104510 49950
" />
<path d="M105580 49560
L105580 50340
" />
<path d="M105580 49670
L105640 49610
L105750 49560
L105920 49560
L106030 49610
L106090 49730
L106090 50340
" />
<path d="M108170 50340
L107490 50340
" />
<path d="M107830 50340
L107830 49160
L107720 49330
L107610 49440
L107490 49500
" />
<path d="M108670 50340
L108670 49560
" />
<path d="M108670 49670
L108730 49610
L108840 49560
L109010 49560
L109120 49610
L109180 49730
L109180 50340
" />
<path d="M109180 49730
L109230 49610
L109350 49560
L109510 49560
L109630 49610
L109680 49730
L109680 50340
" />
<path d="M111650 50340
L111650 49730
L111590 49610
L111480 49560
L111250 49560
L111140 49610
" />
<path d="M111650 50290
L111530 50340
L111250 50340
L111140 50290
L111080 50180
L111080 50060
L111140 49950
L111250 49890
L111530 49890
L111650 49840
" />
<path d="M112210 49560
L112210 50340
" />
<path d="M112210 49670
L112270 49610
L112380 49560
L112550 49560
L112660 49610
L112720 49730
L112720 50340
" />
<path d="M113790 50340
L113790 49160
" />
<path d="M113790 50290
L113670 50340
L113450 50340
L113340 50290
L113280 50230
L113220 50120
L113220 49780
L113280 49670
L113340 49610
L113450 49560
L113670 49560
L113790 49610
" />
<path d="M115870 50340
L115190 50340
" />
<path d="M115530 50340
L115530 49160
L115420 49330
L115310 49440
L115190 49500
" />
<path d="M116930 49160
L116370 49160
L116310 49730
L116370 49670
L116480 49610
L116760 49610
L116880 49670
L116930 49730
L116990 49840
L116990 50120
L116930 50230
L116880 50290
L116760 50340
L116480 50340
L116370 50290
L116310 50230
" />
<path d="M117490 50340
L117490 49560
" />
<path d="M117490 49670
L117550 49610
L117660 49560
L117830 49560
L117940 49610
L118000 49730
L118000 50340
" />
<path d="M118000 49730
L118050 49610
L118170 49560
L118330 49560
L118450 49610
L118500 49730
L118500 50340
" />
<path d="M118950 50790
L119000 50740
L119120 50570
L119170 50460
L119230 50290
L119290 50010
L119290 49780
L119230 49500
L119170 49330
L119120 49220
L119000 49050
L118950 49000
" />
<path d="M80260 54200
L80200 54170
L80110 54170
L80030 54200
L79970 54260
L79940 54310
L79910 54430
L79910 54510
L79940 54630
L79970 54690
L80030 54740
L80110 54770
L80170 54770
L80260 54740
L80290 54710
L80290 54510
L80170 54510
" />
<path d="M80800 54770
L80800 54460
L80770 54400
L80710 54370
L80600 54370
L80540 54400
" />
<path d="M80800 54740
L80740 54770
L80600 54770
L80540 54740
L80510 54690
L80510 54630
L80540 54570
L80600 54540
L80740 54540
L80800 54510
" />
<path d="M81050 54740
L81110 54770
L81230 54770
L81280 54740
L81310 54690
L81310 54660
L81280 54600
L81230 54570
L81140 54570
L81080 54540
L81050 54490
L81050 54460
L81080 54400
L81140 54370
L81230 54370
L81280 54400
" />
<path d="M82290 54770
L82290 54170
" />
<path d="M82290 54740
L82230 54770
L82120 54770
L82060 54740
L82030 54710
L82000 54660
L82000 54490
L82030 54430
L82060 54400
L82120 54370
L82230 54370
L82290 54400
" />
<path d="M82570 54770
L82570 54370
" />
<path d="M82570 54170
L82540 54200
L82570 54230
L82600 54200
L82570 54170
L82570 54230
" />
<path d="M82830 54740
L82890 54770
L83010 54770
L83060 54740
L83090 54690
L83090 54660
L83060 54600
L83010 54570
L82920 54570
L82860 54540
L82830 54490
L82830 54460
L82860 54400
L82920 54370
L83010 54370
L83060 54400
" />
<path d="M83610 54740
L83550 54770
L83440 54770
L83380 54740
L83350 54710
L83320 54660
L83320 54490
L83350 54430
L83380 54400
L83440 54370
L83550 54370
L83610 54400
" />
<path d="M83860 54770
L83860 54170
" />
<path d="M84120 54770
L84120 54460
L84090 54400
L84030 54370
L83950 54370
L83890 54400
L83860 54430
" />
<path d="M84660 54770
L84660 54460
L84630 54400
L84570 54370
L84460 54370
L84400 54400
" />
<path d="M84660 54740
L84600 54770
L84460 54770
L84400 54740
L84370 54690
L84370 54630
L84400 54570
L84460 54540
L84600 54540
L84660 54510
" />
<path d="M84940 54770
L84940 54370
" />
<path d="M84940 54490
L84970 54430
L85000 54400
L85060 54370
L85110 54370
" />
<path d="M85570 54370
L85570 54860
L85540 54910
L85510 54940
L85460 54970
L85370 54970
L85310 54940
" />
<path d="M85570 54740
L85510 54770
L85400 54770
L85340 54740
L85310 54710
L85280 54660
L85280 54490
L85310 54430
L85340 54400
L85400 54370
L85510 54370
L85570 54400
" />
<path d="M86080 54740
L86020 54770
L85910 54770
L85850 54740
L85820 54690
L85820 54460
L85850 54400
L85910 54370
L86020 54370
L86080 54400
L86110 54460
L86110 54510
L85820 54570
" />
<path d="M86740 54370
L86970 54370
" />
<path d="M86820 54170
L86820 54690
L86850 54740
L86910 54770
L86970 54770
" />
<path d="M87420 54370
L87420 54770
" />
<path d="M87160 54370
L87160 54690
L87190 54740
L87250 54770
L87330 54770
L87390 54740
L87420 54710
" />
<path d="M87700 54770
L87700 54170
" />
<path d="M87700 54400
L87760 54370
L87870 54370
L87930 54400
L87960 54430
L87990 54490
L87990 54660
L87960 54710
L87930 54740
L87870 54770
L87760 54770
L87700 54740
" />
<path d="M88470 54740
L88410 54770
L88300 54770
L88240 54740
L88210 54690
L88210 54460
L88240 54400
L88300 54370
L88410 54370
L88470 54400
L88500 54460
L88500 54510
L88210 54570
" />
<path d="M88750 54710
L88780 54740
L88750 54770
L88720 54740
L88750 54710
L88750 54770
" />
<path d="M88750 54400
L88780 54430
L88750 54460
L88720 54430
L88750 54400
L88750 54460
" />
<path d="M89730 54740
L89670 54770
L89560 54770
L89500 54740
L89470 54690
L89470 54460
L89500 54400
L89560 54370
L89670 54370
L89730 54400
L89760 54460
L89760 54510
L89470 54570
" />
<path d="M90010 54710
L90040 54740
L90010 54770
L89980 54740
L90010 54710
L90010 54770
" />
<path d="M90560 54370
L90560 54860
L90530 54910
L90500 54940
L90450 54970
L90360 54970
L90300 54940
" />
<path d="M90560 54740
L90500 54770
L90390 54770
L90330 54740
L90300 54710
L90270 54660
L90270 54490
L90300 54430
L90330 54400
L90390 54370
L90500 54370
L90560 54400
" />
<path d="M90840 54710
L90870 54740
L90840 54770
L90810 54740
L90840 54710
L90840 54770
" />
<path d="M79940 55360
L80140 55360
" />
<path d="M80230 55670
L79940 55670
L79940 55070
L80230 55070
" />
<path d="M80480 55270
L80480 55870
" />
<path d="M80480 55300
L80540 55270
L80650 55270
L80710 55300
L80740 55330
L80770 55390
L80770 55560
L80740 55610
L80710 55640
L80650 55670
L80540 55670
L80480 55640
" />
<path d="M81280 55640
L81220 55670
L81110 55670
L81050 55640
L81020 55610
L80990 55560
L80990 55390
L81020 55330
L81050 55300
L81110 55270
L81220 55270
L81280 55300
" />
<path d="M81620 55670
L81560 55640
L81530 55610
L81500 55560
L81500 55390
L81530 55330
L81560 55300
L81620 55270
L81700 55270
L81760 55300
L81790 55330
L81820 55390
L81820 55560
L81790 55610
L81760 55640
L81700 55670
L81620 55670
" />
<path d="M82040 55640
L82100 55670
L82220 55670
L82270 55640
L82300 55590
L82300 55560
L82270 55500
L82220 55470
L82130 55470
L82070 55440
L82040 55390
L82040 55360
L82070 55300
L82130 55270
L82220 55270
L82270 55300
" />
<path d="M82940 55070
L83280 55070
" />
<path d="M83110 55670
L83110 55070
" />
<path d="M83570 55330
L83510 55300
L83480 55270
L83450 55210
L83450 55190
L83480 55130
L83510 55100
L83570 55070
L83680 55070
L83740 55100
L83770 55130
L83800 55190
L83800 55210
L83770 55270
L83740 55300
L83680 55330
L83570 55330
L83510 55360
L83480 55390
L83450 55440
L83450 55560
L83480 55610
L83510 55640
L83570 55670
L83680 55670
L83740 55640
L83770 55610
L83800 55560
L83800 55440
L83770 55390
L83740 55360
L83680 55330
" />
<path d="M84000 55070
L84370 55070
L84170 55300
L84250 55300
L84310 55330
L84340 55360
L84370 55410
L84370 55560
L84340 55610
L84310 55640
L84250 55670
L84080 55670
L84020 55640
L84000 55610
" />
<path d="M84620 55440
L85080 55440
" />
<path d="M85330 55500
L85620 55500
" />
<path d="M85280 55670
L85480 55070
L85680 55670
" />
<path d="M85900 55670
L86020 55670
L86070 55640
L86100 55610
L86160 55530
L86190 55410
L86190 55190
L86160 55130
L86130 55100
L86070 55070
L85960 55070
L85900 55100
L85870 55130
L85840 55190
L85840 55330
L85870 55390
L85900 55410
L85960 55440
L86070 55440
L86130 55410
L86160 55390
L86190 55330
" />
<path d="M86560 55070
L86610 55070
L86670 55100
L86700 55130
L86730 55190
L86760 55300
L86760 55440
L86730 55560
L86700 55610
L86670 55640
L86610 55670
L86560 55670
L86500 55640
L86470 55610
L86440 55560
L86410 55440
L86410 55300
L86440 55190
L86470 55130
L86500 55100
L86560 55070
" />
<path d="M86960 55070
L87360 55670
" />
<path d="M87360 55070
L86960 55670
" />
<path d="M87580 55610
L87610 55640
L87580 55670
L87550 55640
L87580 55610
L87580 55670
" />
<path d="M87580 55300
L87610 55330
L87580 55360
L87550 55330
L87580 55300
L87580 55360
" />
<path d="M81810 56570
L81930 56570
L81980 56540
L82010 56510
L82070 56430
L82100 56310
L82100 56090
L82070 56030
L82040 56000
L81980 55970
L81870 55970
L81810 56000
L81780 56030
L81750 56090
L81750 56230
L81780 56290
L81810 56310
L81870 56340
L81980 56340
L82040 56310
L82070 56290
L82100 56230
" />
<path d="M82470 55970
L82520 55970
L82580 56000
L82610 56030
L82640 56090
L82670 56200
L82670 56340
L82640 56460
L82610 56510
L82580 56540
L82520 56570
L82470 56570
L82410 56540
L82380 56510
L82350 56460
L82320 56340
L82320 56200
L82350 56090
L82380 56030
L82410 56000
L82470 55970
" />
<path d="M82840 55970
L83040 56570
L83240 55970
" />
<path d="M84060 56800
L84040 56770
L83980 56690
L83950 56630
L83920 56540
L83890 56400
L83890 56290
L83920 56140
L83950 56060
L83980 56000
L84040 55910
L84060 55890
" />
<path d="M84290 56570
L84290 55970
L84440 55970
L84520 56000
L84580 56060
L84610 56110
L84640 56230
L84640 56310
L84610 56430
L84580 56490
L84520 56540
L84440 56570
L84290 56570
" />
<path d="M84890 56570
L84890 56170
" />
<path d="M84890 55970
L84860 56000
L84890 56030
L84920 56000
L84890 55970
L84890 56030
" />
<path d="M85150 56540
L85210 56570
L85330 56570
L85380 56540
L85410 56490
L85410 56460
L85380 56400
L85330 56370
L85240 56370
L85180 56340
L85150 56290
L85150 56260
L85180 56200
L85240 56170
L85330 56170
L85380 56200
" />
<path d="M85930 56540
L85870 56570
L85760 56570
L85700 56540
L85670 56510
L85640 56460
L85640 56290
L85670 56230
L85700 56200
L85760 56170
L85870 56170
L85930 56200
" />
<path d="M86180 56570
L86180 55970
" />
<path d="M86440 56570
L86440 56260
L86410 56200
L86350 56170
L86270 56170
L86210 56200
L86180 56230
" />
<path d="M86980 56570
L86980 56260
L86950 56200
L86890 56170
L86780 56170
L86720 56200
" />
<path d="M86980 56540
L86920 56570
L86780 56570
L86720 56540
L86690 56490
L86690 56430
L86720 56370
L86780 56340
L86920 56340
L86980 56310
" />
<path d="M87260 56570
L87260 56170
" />
<path d="M87260 56290
L87290 56230
L87320 56200
L87380 56170
L87430 56170
" />
<path d="M87890 56170
L87890 56660
L87860 56710
L87830 56740
L87780 56770
L87690 56770
L87630 56740
" />
<path d="M87890 56540
L87830 56570
L87720 56570
L87660 56540
L87630 56510
L87600 56460
L87600 56290
L87630 56230
L87660 56200
L87720 56170
L87830 56170
L87890 56200
" />
<path d="M88400 56540
L88340 56570
L88230 56570
L88170 56540
L88140 56490
L88140 56260
L88170 56200
L88230 56170
L88340 56170
L88400 56200
L88430 56260
L88430 56310
L88140 56370
" />
<path d="M88630 56800
L88650 56770
L88710 56690
L88740 56630
L88770 56540
L88800 56400
L88800 56290
L88770 56140
L88740 56060
L88710 56000
L88650 55910
L88630 55890
" />
</g>
<g style="fill:#0000C2; fill-opacity:0.0; 
stroke:#0000C2; stroke-width:0; stroke-opacity:1; 
stroke-linecap:round; stroke-linejoin:round;">
</g>
<g style="fill:#008400; fill-opacity:0.0; 
stroke:#008400; stroke-width:0; stroke-opacity:1; 
stroke-linecap:round; stroke-linejoin:round;">
</g>
<g style="fill:#008400; fill-opacity:1.0; 
stroke:#008400; stroke-width:100; stroke-opacity:1; 
stroke-linecap:round; stroke-linejoin:round;">
<circle cx="71500" cy="69000" r="200" /> 
</g>
<g style="fill:#008400; fill-opacity:0.0; 
stroke:#008400; stroke-width:100; stroke-opacity:1; 
stroke-linecap:round; stroke-linejoin:round;">
<path d="M71500 69000
L10500 69000
" />
<path d="M96000 69000
L71500 69000
" />
<path d="M96000 41500
L96000 69000
" />
<path d="M10500 41500
L96000 41500
" />
</g>
<g style="fill:#0000C2; fill-opacity:0.0; 
stroke:#0000C2; stroke-width:100; stroke-opacity:1; 
stroke-linecap:round; stroke-linejoin:round;">
<path d="M10650 71920
L10760 71960
L10950 71960
L11030 71920
L11060 71890
L11100 71810
L11100 71740
L11060 71660
L11030 71620
L10950 71590
L10800 71550
L10730 71510
L10690 71470
L10650 71400
L10650 71320
L10690 71250
L10730 71210
L10800 71170
L10990 71170
L11100 71210
" />
<path d="M11440 71960
L11440 71170
" />
<path d="M11780 71960
L11780 71550
L11740 71470
L11660 71440
L11550 71440
L11480 71470
L11440 71510
" />
<path d="M12150 71960
L12150 71440
" />
<path d="M12150 71170
L12110 71210
L12150 71250
L12190 71210
L12150 71170
L12150 71250
" />
<path d="M12830 71920
L12750 71960
L12600 71960
L12530 71920
L12490 71850
L12490 71550
L12530 71470
L12600 71440
L12750 71440
L12830 71470
L12870 71550
L12870 71620
L12490 71700
" />
<path d="M13320 71960
L13250 71920
L13210 71850
L13210 71170
" />
<path d="M13960 71960
L13960 71170
" />
<path d="M13960 71920
L13880 71960
L13730 71960
L13660 71920
L13620 71890
L13580 71810
L13580 71590
L13620 71510
L13660 71470
L13730 71440
L13880 71440
L13960 71470
" />
<path d="M14330 71960
L14330 71440
" />
<path d="M14330 71170
L14290 71210
L14330 71250
L14370 71210
L14330 71170
L14330 71250
" />
<path d="M14710 71440
L14710 71960
" />
<path d="M14710 71510
L14750 71470
L14820 71440
L14930 71440
L15010 71470
L15050 71550
L15050 71960
" />
<path d="M15760 71440
L15760 72080
L15720 72150
L15680 72190
L15610 72230
L15490 72230
L15420 72190
" />
<path d="M15760 71920
L15680 71960
L15530 71960
L15460 71920
L15420 71890
L15380 71810
L15380 71590
L15420 71510
L15460 71470
L15530 71440
L15680 71440
L15760 71470
" />
</g> 
</svg>
