<?xml version="1.0" standalone="no"?>
 <!DOCTYPE svg PUBLIC "-//W3C//DTD SVG 1.1//EN" 
 "http://www.w3.org/Graphics/SVG/1.1/DTD/svg11.dtd"> 
<svg xmlns="http://www.w3.org/2000/svg" version="1.1" 
    width="29.7002cm" height="21.0007cm" viewBox="0 0 116930 82680 ">
<title>SVG Picture created as surge-protect_power-supply_mains-surge-protect_power-supply_mains.svg date 2017/08/18 12:55:49 </title>
  <desc>Picture generated by Eeschema-SVG </desc>
<g style="fill:#000000; fill-opacity:1;stroke:#000000; stroke-opacity:1;
stroke-linecap:round; stroke-linejoin:round; "
 transform="translate(0 0) scale(1 1)">
</g>
<g style="fill:#000000; fill-opacity:0.0; 
stroke:#000000; stroke-width:0; stroke-opacity:1; 
stroke-linecap:round; stroke-linejoin:round;">
</g>
<g style="fill:#840000; fill-opacity:0.0; 
stroke:#840000; stroke-width:0; stroke-opacity:1; 
stroke-linecap:round; stroke-linejoin:round;">
</g>
<g style="fill:#840000; fill-opacity:0.0; 
stroke:#840000; stroke-width:80; stroke-opacity:1; 
stroke-linecap:round; stroke-linejoin:round;">
<path d="M51160 39660
L51160 40060
L51180 40110
L51210 40130
L51250 40160
L51350 40160
L51400 40130
L51420 40110
L51440 40060
L51440 39660
" />
</g>
<g style="fill:#840000; fill-opacity:0.0; 
stroke:#840000; stroke-width:100; stroke-opacity:1; 
stroke-linecap:round; stroke-linejoin:round;">
<rect x="50200" y="38100" width="800" height="2000" rx="0" />
<polyline fill="none;"
points="51350,38100
51350,38600
49850,39600
" /> 
<path d="M50600 38100
L50600 37600
" />
<path d="M50600 40100
L50600 40600
" />
</g>
<g style="fill:#008484; fill-opacity:0.0; 
stroke:#008484; stroke-width:100; stroke-opacity:1; 
stroke-linecap:round; stroke-linejoin:round;">
</g>
<g style="fill:#008484; fill-opacity:0.0; 
stroke:#008484; stroke-width:80; stroke-opacity:1; 
stroke-linecap:round; stroke-linejoin:round;">
<path d="M52320 40400
L52300 40380
L52280 40330
L52280 40210
L52300 40170
L52320 40140
L52370 40120
L52420 40120
L52490 40140
L52780 40430
L52780 40120
" />
<path d="M52280 39950
L52280 39620
L52780 39830
" />
<path d="M52280 39180
L52280 39420
L52510 39440
L52490 39420
L52470 39370
L52470 39250
L52490 39210
L52510 39180
L52560 39160
L52680 39160
L52730 39180
L52750 39210
L52780 39250
L52780 39370
L52750 39420
L52730 39440
" />
<path d="M52280 39010
L52780 38850
L52280 38680
" />
<path d="M52630 38530
L52630 38300
" />
<path d="M52780 38580
L52280 38420
L52780 38250
" />
<path d="M52730 37800
L52750 37820
L52780 37890
L52780 37940
L52750 38010
L52700 38060
L52660 38080
L52560 38100
L52490 38100
L52400 38080
L52350 38060
L52300 38010
L52280 37940
L52280 37890
L52300 37820
L52320 37800
" />
</g>
<g style="fill:#008484; fill-opacity:0.0; 
stroke:#008484; stroke-width:0; stroke-opacity:1; 
stroke-linecap:round; stroke-linejoin:round;">
</g>
<g style="fill:#840000; fill-opacity:0.0; 
stroke:#840000; stroke-width:0; stroke-opacity:1; 
stroke-linecap:round; stroke-linejoin:round;">
</g>
<g style="fill:#840000; fill-opacity:0.0; 
stroke:#840000; stroke-width:100; stroke-opacity:1; 
stroke-linecap:round; stroke-linejoin:round;">
<rect x="36700" y="29600" width="2000" height="600" rx="0" />
<polyline fill="none;"
points="36700,29900
38700,29900
" /> 
<path d="M36700 29900
L36200 29900
" />
<path d="M38700 29900
L39200 29900
" />
</g>
<g style="fill:#008484; fill-opacity:0.0; 
stroke:#008484; stroke-width:100; stroke-opacity:1; 
stroke-linecap:round; stroke-linejoin:round;">
</g>
<g style="fill:#008484; fill-opacity:0.0; 
stroke:#008484; stroke-width:80; stroke-opacity:1; 
stroke-linecap:round; stroke-linejoin:round;">
<path d="M36790 30370
L36810 30350
L36860 30330
L36980 30330
L37020 30350
L37050 30370
L37070 30420
L37070 30470
L37050 30540
L36760 30830
L37070 30830
" />
<path d="M37290 30780
L37310 30800
L37290 30830
L37270 30800
L37290 30780
L37290 30830
" />
<path d="M37770 30330
L37530 30330
L37510 30560
L37530 30540
L37580 30520
L37700 30520
L37740 30540
L37770 30560
L37790 30610
L37790 30730
L37770 30780
L37740 30800
L37700 30830
L37580 30830
L37530 30800
L37510 30780
" />
<path d="M37990 30680
L38220 30680
" />
<path d="M37940 30830
L38100 30330
L38270 30830
" />
<path d="M38370 30330
L38650 30330
" />
<path d="M38510 30830
L38510 30330
" />
</g>
<g style="fill:#008484; fill-opacity:0.0; 
stroke:#008484; stroke-width:0; stroke-opacity:1; 
stroke-linecap:round; stroke-linejoin:round;">
</g>
<g style="fill:#840000; fill-opacity:0.0; 
stroke:#840000; stroke-width:0; stroke-opacity:1; 
stroke-linecap:round; stroke-linejoin:round;">
</g>
<g style="fill:#840000; fill-opacity:0.0; 
stroke:#840000; stroke-width:100; stroke-opacity:1; 
stroke-linecap:round; stroke-linejoin:round;">
<polyline fill="none;"
points="23750,64350
24250,64350
" /> 
<polyline fill="none;"
points="23950,64600
24050,64600
" /> 
<polyline fill="none;"
points="24000,64100
24000,63600
" /> 
<polyline fill="none;"
points="24500,64100
23500,64100
" /> 
</g>
<g style="fill:#0000C2; fill-opacity:0.0; 
stroke:#0000C2; stroke-width:100; stroke-opacity:1; 
stroke-linecap:round; stroke-linejoin:round;">
<path d="M47370 41990
L47560 42580
L47760 41990
" />
<path d="M48210 42580
L48210 42270
L48190 42220
L48130 42190
L48020 42190
L47960 42220
" />
<path d="M48210 42550
L48160 42580
L48020 42580
L47960 42550
L47930 42500
L47930 42440
L47960 42390
L48020 42360
L48160 42360
L48210 42330
" />
<path d="M48490 42580
L48490 42190
" />
<path d="M48490 42300
L48520 42240
L48550 42220
L48600 42190
L48660 42190
" />
<path d="M48860 42580
L48860 42190
" />
<path d="M48860 41990
L48830 42020
L48860 42050
L48890 42020
L48860 41990
L48860 42050
" />
<path d="M49110 42550
L49170 42580
L49280 42580
L49340 42550
L49370 42500
L49370 42470
L49340 42410
L49280 42390
L49200 42390
L49140 42360
L49110 42300
L49110 42270
L49140 42220
L49200 42190
L49280 42190
L49340 42220
" />
<path d="M49540 42190
L49760 42190
" />
<path d="M49620 41990
L49620 42500
L49650 42550
L49700 42580
L49760 42580
" />
<path d="M50040 42580
L49990 42550
L49960 42530
L49930 42470
L49930 42300
L49960 42240
L49990 42220
L50040 42190
L50130 42190
L50190 42220
L50210 42240
L50240 42300
L50240 42470
L50210 42530
L50190 42550
L50130 42580
L50040 42580
" />
<path d="M50490 42580
L50490 42190
" />
<path d="M50490 42300
L50520 42240
L50550 42220
L50600 42190
L50660 42190
" />
<path d="M50860 42530
L50890 42550
L50860 42580
L50830 42550
L50860 42530
L50860 42580
" />
<path d="M50860 42220
L50890 42240
L50860 42270
L50830 42240
L50860 42220
L50860 42270
" />
<path d="M51820 42550
L51760 42580
L51650 42580
L51590 42550
L51560 42500
L51560 42270
L51590 42220
L51650 42190
L51760 42190
L51820 42220
L51840 42270
L51840 42330
L51560 42390
" />
<path d="M52100 42530
L52130 42550
L52100 42580
L52070 42550
L52100 42530
L52100 42580
" />
<path d="M52630 42190
L52630 42670
L52610 42720
L52580 42750
L52520 42780
L52440 42780
L52380 42750
" />
<path d="M52630 42550
L52580 42580
L52460 42580
L52410 42550
L52380 42530
L52350 42470
L52350 42300
L52380 42240
L52410 42220
L52460 42190
L52580 42190
L52630 42220
" />
<path d="M52910 42530
L52940 42550
L52910 42580
L52880 42550
L52910 42530
L52910 42580
" />
<path d="M44830 43470
L44550 43470
L44550 42880
" />
<path d="M45030 43470
L45030 43080
" />
<path d="M45030 42880
L45000 42910
L45030 42940
L45060 42910
L45030 42880
L45030 42940
" />
<path d="M45230 43080
L45450 43080
" />
<path d="M45310 42880
L45310 43390
L45340 43440
L45390 43470
L45450 43470
" />
<path d="M45570 43080
L45790 43080
" />
<path d="M45650 42880
L45650 43390
L45680 43440
L45730 43470
L45790 43470
" />
<path d="M46220 43440
L46160 43470
L46050 43470
L45990 43440
L45960 43390
L45960 43160
L45990 43110
L46050 43080
L46160 43080
L46220 43110
L46240 43160
L46240 43220
L45960 43280
" />
<path d="M46580 43470
L46530 43440
L46500 43390
L46500 42880
" />
<path d="M46730 43080
L46950 43080
" />
<path d="M46810 43470
L46810 42970
L46840 42910
L46890 42880
L46950 42880
" />
<path d="M47400 43080
L47400 43470
" />
<path d="M47150 43080
L47150 43390
L47180 43440
L47230 43470
L47320 43470
L47380 43440
L47400 43420
" />
<path d="M47650 43440
L47710 43470
L47820 43470
L47880 43440
L47910 43390
L47910 43360
L47880 43300
L47820 43280
L47740 43280
L47680 43250
L47650 43190
L47650 43160
L47680 43110
L47740 43080
L47820 43080
L47880 43110
" />
<path d="M48390 43440
L48330 43470
L48220 43470
L48160 43440
L48130 43390
L48130 43160
L48160 43110
L48220 43080
L48330 43080
L48390 43110
L48410 43160
L48410 43220
L48130 43280
" />
<path d="M49040 42880
L49230 43470
L49430 42880
" />
<path d="M49600 42940
L49630 42910
L49690 42880
L49830 42880
L49880 42910
L49910 42940
L49940 42990
L49940 43050
L49910 43130
L49570 43470
L49940 43470
" />
<path d="M50300 42880
L50360 42880
L50420 42910
L50440 42940
L50470 42990
L50500 43110
L50500 43250
L50470 43360
L50440 43420
L50420 43440
L50360 43470
L50300 43470
L50250 43440
L50220 43420
L50190 43360
L50160 43250
L50160 43110
L50190 42990
L50220 42940
L50250 42910
L50300 42880
" />
<path d="M50750 43470
L50750 42880
" />
<path d="M50750 43160
L51090 43160
" />
<path d="M51090 43470
L51090 42880
" />
<path d="M51340 42940
L51370 42910
L51430 42880
L51570 42880
L51620 42910
L51650 42940
L51680 42990
L51680 43050
L51650 43130
L51310 43470
L51680 43470
" />
<path d="M51870 42880
L52270 42880
L52010 43470
" />
<path d="M52770 42880
L52490 42880
L52460 43160
L52490 43130
L52550 43110
L52690 43110
L52740 43130
L52770 43160
L52800 43220
L52800 43360
L52770 43420
L52740 43440
L52690 43470
L52550 43470
L52490 43440
L52460 43420
" />
<path d="M53050 43470
L53050 42880
L53280 42880
L53330 42910
L53360 42940
L53390 42990
L53390 43080
L53360 43130
L53330 43160
L53280 43190
L53050 43190
" />
<path d="M17330 38470
L17040 38470
L17040 37870
" />
<path d="M17040 42260
L17240 42260
" />
<path d="M17330 42570
L17040 42570
L17040 41970
L17330 41970
" />
<path d="M17040 40470
L17040 39870
L17390 40470
L17390 39870
" />
</g>
<g style="fill:#0000C2; fill-opacity:0.0; 
stroke:#0000C2; stroke-width:0; stroke-opacity:1; 
stroke-linecap:round; stroke-linejoin:round;">
</g>
<g style="fill:#840000; fill-opacity:0.0; 
stroke:#840000; stroke-width:0; stroke-opacity:1; 
stroke-linecap:round; stroke-linejoin:round;">
</g>
<g style="fill:#840000; fill-opacity:1.0; 
stroke:#840000; stroke-width:100; stroke-opacity:1; 
stroke-linecap:round; stroke-linejoin:round;">
<rect x="18100" y="39850" width="2000" height="500" rx="0" />
</g>
<g style="fill:#840000; fill-opacity:0.0; 
stroke:#840000; stroke-width:100; stroke-opacity:1; 
stroke-linecap:round; stroke-linejoin:round;">
<line x1="18100" y1="37850" x2="18100" y2="37850" />
</g>
<g style="fill:#840000; fill-opacity:1.0; 
stroke:#840000; stroke-width:100; stroke-opacity:1; 
stroke-linecap:round; stroke-linejoin:round;">
<rect x="18100" y="41850" width="2000" height="500" rx="0" />
<rect x="18100" y="37850" width="2000" height="500" rx="0" />
</g>
<g style="fill:#840000; fill-opacity:0.0; 
stroke:#840000; stroke-width:100; stroke-opacity:1; 
stroke-linecap:round; stroke-linejoin:round;">
<path d="M20100 38100
L22100 38100
" />
</g>
<g style="fill:#840000; fill-opacity:0.0; 
stroke:#840000; stroke-width:80; stroke-opacity:1; 
stroke-linecap:round; stroke-linejoin:round;">
<path d="M21240 37980
L20960 37980
" />
<path d="M21100 37980
L21100 37480
L21050 37550
L21000 37600
L20960 37620
" />
</g>
<g style="fill:#840000; fill-opacity:0.0; 
stroke:#840000; stroke-width:100; stroke-opacity:1; 
stroke-linecap:round; stroke-linejoin:round;">
<path d="M20100 40100
L22100 40100
" />
</g>
<g style="fill:#840000; fill-opacity:0.0; 
stroke:#840000; stroke-width:80; stroke-opacity:1; 
stroke-linecap:round; stroke-linejoin:round;">
<path d="M20960 39520
L20980 39500
L21030 39480
L21150 39480
L21190 39500
L21220 39520
L21240 39570
L21240 39620
L21220 39690
L20930 39980
L21240 39980
" />
</g>
<g style="fill:#840000; fill-opacity:0.0; 
stroke:#840000; stroke-width:100; stroke-opacity:1; 
stroke-linecap:round; stroke-linejoin:round;">
<path d="M20100 42100
L22100 42100
" />
</g>
<g style="fill:#840000; fill-opacity:0.0; 
stroke:#840000; stroke-width:80; stroke-opacity:1; 
stroke-linecap:round; stroke-linejoin:round;">
<path d="M20930 41480
L21240 41480
L21070 41670
L21150 41670
L21190 41690
L21220 41710
L21240 41760
L21240 41880
L21220 41930
L21190 41950
L21150 41980
L21000 41980
L20960 41950
L20930 41930
" />
</g>
<g style="fill:#840000; fill-opacity:0.0; 
stroke:#840000; stroke-width:100; stroke-opacity:1; 
stroke-linecap:round; stroke-linejoin:round;">
</g>
<g style="fill:#840000; fill-opacity:0.0; 
stroke:#840000; stroke-width:0; stroke-opacity:1; 
stroke-linecap:round; stroke-linejoin:round;">
</g>
<g style="fill:#840000; fill-opacity:0.0; 
stroke:#840000; stroke-width:100; stroke-opacity:1; 
stroke-linecap:round; stroke-linejoin:round;">
<path d="M45800.9 40600 A500 500 0.0 0 0 45800.9 39600 " />
<path d="M45800.9 38600 A500 500 0.0 0 0 45800.9 37600 " />
<path d="M46300 38100
L48300 38100
" />
</g>
<g style="fill:#840000; fill-opacity:0.0; 
stroke:#840000; stroke-width:80; stroke-opacity:1; 
stroke-linecap:round; stroke-linejoin:round;">
<path d="M47440 37980
L47160 37980
" />
<path d="M47300 37980
L47300 37480
L47250 37550
L47200 37600
L47160 37620
" />
</g>
<g style="fill:#840000; fill-opacity:0.0; 
stroke:#840000; stroke-width:100; stroke-opacity:1; 
stroke-linecap:round; stroke-linejoin:round;">
<path d="M46300 40100
L48300 40100
" />
</g>
<g style="fill:#840000; fill-opacity:0.0; 
stroke:#840000; stroke-width:80; stroke-opacity:1; 
stroke-linecap:round; stroke-linejoin:round;">
<path d="M47160 39520
L47180 39500
L47230 39480
L47350 39480
L47390 39500
L47420 39520
L47440 39570
L47440 39620
L47420 39690
L47130 39980
L47440 39980
" />
</g>
<g style="fill:#840000; fill-opacity:0.0; 
stroke:#840000; stroke-width:100; stroke-opacity:1; 
stroke-linecap:round; stroke-linejoin:round;">
</g>
<g style="fill:#840000; fill-opacity:0.0; 
stroke:#840000; stroke-width:0; stroke-opacity:1; 
stroke-linecap:round; stroke-linejoin:round;">
</g>
<g style="fill:#840000; fill-opacity:1.0; 
stroke:#840000; stroke-width:100; stroke-opacity:1; 
stroke-linecap:round; stroke-linejoin:round;">
<rect x="43900" y="39850" width="2000" height="500" rx="0" />
</g>
<g style="fill:#840000; fill-opacity:0.0; 
stroke:#840000; stroke-width:100; stroke-opacity:1; 
stroke-linecap:round; stroke-linejoin:round;">
<line x1="45900" y1="37850" x2="45900" y2="37850" />
</g>
<g style="fill:#840000; fill-opacity:1.0; 
stroke:#840000; stroke-width:100; stroke-opacity:1; 
stroke-linecap:round; stroke-linejoin:round;">
<rect x="43900" y="37850" width="2000" height="500" rx="0" />
</g>
<g style="fill:#840000; fill-opacity:0.0; 
stroke:#840000; stroke-width:100; stroke-opacity:1; 
stroke-linecap:round; stroke-linejoin:round;">
<path d="M43900 38100
L41900 38100
" />
</g>
<g style="fill:#840000; fill-opacity:0.0; 
stroke:#840000; stroke-width:80; stroke-opacity:1; 
stroke-linecap:round; stroke-linejoin:round;">
<path d="M43040 37980
L42760 37980
" />
<path d="M42900 37980
L42900 37480
L42850 37550
L42800 37600
L42760 37620
" />
</g>
<g style="fill:#840000; fill-opacity:0.0; 
stroke:#840000; stroke-width:100; stroke-opacity:1; 
stroke-linecap:round; stroke-linejoin:round;">
<path d="M43900 40100
L41900 40100
" />
</g>
<g style="fill:#840000; fill-opacity:0.0; 
stroke:#840000; stroke-width:80; stroke-opacity:1; 
stroke-linecap:round; stroke-linejoin:round;">
<path d="M42760 39520
L42780 39500
L42830 39480
L42950 39480
L42990 39500
L43020 39520
L43040 39570
L43040 39620
L43020 39690
L42730 39980
L43040 39980
" />
</g>
<g style="fill:#840000; fill-opacity:0.0; 
stroke:#840000; stroke-width:100; stroke-opacity:1; 
stroke-linecap:round; stroke-linejoin:round;">
</g>
<g style="fill:#840000; fill-opacity:0.0; 
stroke:#840000; stroke-width:0; stroke-opacity:1; 
stroke-linecap:round; stroke-linejoin:round;">
</g>
<g style="fill:#840000; fill-opacity:0.0; 
stroke:#840000; stroke-width:100; stroke-opacity:1; 
stroke-linecap:round; stroke-linejoin:round;">
<polyline fill="none;"
points="80900,35100
80900,34100
" /> 
</g>
<g style="fill:#840000; fill-opacity:0.0; 
stroke:#840000; stroke-width:80; stroke-opacity:1; 
stroke-linecap:round; stroke-linejoin:round;">
<polyline fill="none;"
points="81400,33600
80900,34600
80400,33600
81400,33600
" /> 
<polyline fill="none;"
points="80400,34800
80400,34600
81400,34600
81400,34400
" /> 
<polyline fill="none;"
points="80400,35600
81400,35600
80900,34600
80400,35600
" /> 
</g>
<g style="fill:#840000; fill-opacity:0.0; 
stroke:#840000; stroke-width:100; stroke-opacity:1; 
stroke-linecap:round; stroke-linejoin:round;">
<path d="M80900 34100
L80900 33100
" />
<path d="M80900 35100
L80900 36100
" />
</g>
<g style="fill:#840000; fill-opacity:0.0; 
stroke:#840000; stroke-width:0; stroke-opacity:1; 
stroke-linecap:round; stroke-linejoin:round;">
</g>
<g style="fill:#840000; fill-opacity:0.0; 
stroke:#840000; stroke-width:100; stroke-opacity:1; 
stroke-linecap:round; stroke-linejoin:round;">
<polyline fill="none;"
points="80900,44100
80900,43100
" /> 
</g>
<g style="fill:#840000; fill-opacity:0.0; 
stroke:#840000; stroke-width:80; stroke-opacity:1; 
stroke-linecap:round; stroke-linejoin:round;">
<polyline fill="none;"
points="81400,42600
80900,43600
80400,42600
81400,42600
" /> 
<polyline fill="none;"
points="80400,43800
80400,43600
81400,43600
81400,43400
" /> 
<polyline fill="none;"
points="80400,44600
81400,44600
80900,43600
80400,44600
" /> 
</g>
<g style="fill:#840000; fill-opacity:0.0; 
stroke:#840000; stroke-width:100; stroke-opacity:1; 
stroke-linecap:round; stroke-linejoin:round;">
<path d="M80900 43100
L80900 42100
" />
<path d="M80900 44100
L80900 45100
" />
</g>
<g style="fill:#840000; fill-opacity:0.0; 
stroke:#840000; stroke-width:0; stroke-opacity:1; 
stroke-linecap:round; stroke-linejoin:round;">
</g>
<g style="fill:#840000; fill-opacity:0.0; 
stroke:#840000; stroke-width:100; stroke-opacity:1; 
stroke-linecap:round; stroke-linejoin:round;">
<rect x="72300" y="29600" width="2000" height="600" rx="0" />
<polyline fill="none;"
points="72300,29900
74300,29900
" /> 
<path d="M72300 29900
L71800 29900
" />
<path d="M74300 29900
L74800 29900
" />
</g>
<g style="fill:#008484; fill-opacity:0.0; 
stroke:#008484; stroke-width:100; stroke-opacity:1; 
stroke-linecap:round; stroke-linejoin:round;">
</g>
<g style="fill:#008484; fill-opacity:0.0; 
stroke:#008484; stroke-width:80; stroke-opacity:1; 
stroke-linecap:round; stroke-linejoin:round;">
<path d="M73030 30830
L72750 30830
" />
<path d="M72890 30830
L72890 30330
L72840 30400
L72790 30450
L72750 30470
" />
<path d="M73230 30680
L73460 30680
" />
<path d="M73180 30830
L73340 30330
L73510 30830
" />
<path d="M73610 30330
L73890 30330
" />
<path d="M73750 30830
L73750 30330
" />
</g>
<g style="fill:#008484; fill-opacity:0.0; 
stroke:#008484; stroke-width:0; stroke-opacity:1; 
stroke-linecap:round; stroke-linejoin:round;">
</g>
<g style="fill:#840000; fill-opacity:0.0; 
stroke:#840000; stroke-width:0; stroke-opacity:1; 
stroke-linecap:round; stroke-linejoin:round;">
</g>
<g style="fill:#840000; fill-opacity:0.0; 
stroke:#840000; stroke-width:100; stroke-opacity:1; 
stroke-linecap:round; stroke-linejoin:round;">
<rect x="72300" y="48500" width="2000" height="600" rx="0" />
<polyline fill="none;"
points="72300,48800
74300,48800
" /> 
<path d="M72300 48800
L71800 48800
" />
<path d="M74300 48800
L74800 48800
" />
</g>
<g style="fill:#008484; fill-opacity:0.0; 
stroke:#008484; stroke-width:100; stroke-opacity:1; 
stroke-linecap:round; stroke-linejoin:round;">
</g>
<g style="fill:#008484; fill-opacity:0.0; 
stroke:#008484; stroke-width:80; stroke-opacity:1; 
stroke-linecap:round; stroke-linejoin:round;">
<path d="M73030 49730
L72750 49730
" />
<path d="M72890 49730
L72890 49230
L72840 49300
L72790 49350
L72750 49370
" />
<path d="M73230 49580
L73460 49580
" />
<path d="M73180 49730
L73340 49230
L73510 49730
" />
<path d="M73610 49230
L73890 49230
" />
<path d="M73750 49730
L73750 49230
" />
</g>
<g style="fill:#008484; fill-opacity:0.0; 
stroke:#008484; stroke-width:0; stroke-opacity:1; 
stroke-linecap:round; stroke-linejoin:round;">
</g>
<g style="fill:#840000; fill-opacity:0.0; 
stroke:#840000; stroke-width:0; stroke-opacity:1; 
stroke-linecap:round; stroke-linejoin:round;">
</g>
<g style="fill:#840000; fill-opacity:0.0; 
stroke:#840000; stroke-width:100; stroke-opacity:1; 
stroke-linecap:round; stroke-linejoin:round;">
<polyline fill="none;"
points="92900,40900
92900,41400
93400,41400
92900,41900
92400,41400
92900,41400
" /> 
</g>
<g style="fill:#008484; fill-opacity:0.0; 
stroke:#008484; stroke-width:100; stroke-opacity:1; 
stroke-linecap:round; stroke-linejoin:round;">
</g>
<g style="fill:#008484; fill-opacity:0.0; 
stroke:#008484; stroke-width:80; stroke-opacity:1; 
stroke-linecap:round; stroke-linejoin:round;">
<path d="M92520 42190
L92470 42170
L92400 42170
L92330 42190
L92280 42240
L92260 42290
L92240 42380
L92240 42450
L92260 42550
L92280 42590
L92330 42640
L92400 42670
L92450 42670
L92520 42640
L92540 42620
L92540 42450
L92450 42450
" />
<path d="M92760 42670
L92760 42170
L93040 42670
L93040 42170
" />
<path d="M93280 42670
L93280 42170
L93400 42170
L93470 42190
L93520 42240
L93540 42290
L93560 42380
L93560 42450
L93540 42550
L93520 42590
L93470 42640
L93400 42670
L93280 42670
" />
</g>
<g style="fill:#008484; fill-opacity:0.0; 
stroke:#008484; stroke-width:100; stroke-opacity:1; 
stroke-linecap:round; stroke-linejoin:round;">
</g>
<g style="fill:#0000C2; fill-opacity:0.0; 
stroke:#0000C2; stroke-width:100; stroke-opacity:1; 
stroke-linecap:round; stroke-linejoin:round;">
<path d="M59610 39130
L59640 39100
L59700 39070
L59840 39070
L59900 39100
L59930 39130
L59960 39190
L59960 39240
L59930 39330
L59590 39670
L59960 39670
" />
<path d="M60470 39270
L60470 39670
" />
<path d="M60330 39040
L60180 39470
L60560 39470
" />
<path d="M60900 39070
L60950 39070
L61010 39100
L61040 39130
L61070 39190
L61100 39300
L61100 39440
L61070 39560
L61040 39610
L61010 39640
L60950 39670
L60900 39670
L60840 39640
L60810 39610
L60780 39560
L60750 39440
L60750 39300
L60780 39190
L60810 39130
L60840 39100
L60900 39070
" />
<path d="M61270 39070
L61470 39670
L61670 39070
" />
<path d="M61830 39500
L62120 39500
" />
<path d="M61780 39670
L61980 39070
L62180 39670
" />
<path d="M62720 39610
L62690 39640
L62600 39670
L62540 39670
L62460 39640
L62400 39590
L62370 39530
L62340 39410
L62340 39330
L62370 39210
L62400 39160
L62460 39100
L62540 39070
L62600 39070
L62690 39100
L62720 39130
" />
<path d="M65960 37070
L65610 37070
" />
<path d="M65790 37070
L65790 36470
L65730 36560
L65670 36610
L65610 36640
" />
<path d="M66500 36470
L66210 36470
L66180 36760
L66210 36730
L66270 36700
L66410 36700
L66470 36730
L66500 36760
L66530 36810
L66530 36960
L66500 37010
L66470 37040
L66410 37070
L66270 37070
L66210 37040
L66180 37010
" />
<path d="M66700 36470
L66900 37070
L67100 36470
" />
<path d="M67260 36900
L67550 36900
" />
<path d="M67210 37070
L67410 36470
L67610 37070
" />
<path d="M68150 37010
L68120 37040
L68030 37070
L67970 37070
L67890 37040
L67830 36990
L67800 36930
L67770 36810
L67770 36730
L67800 36610
L67830 36560
L67890 36500
L67970 36470
L68030 36470
L68120 36500
L68150 36530
" />
<path d="M65960 42170
L65610 42170
" />
<path d="M65790 42170
L65790 41570
L65730 41660
L65670 41710
L65610 41740
" />
<path d="M66500 41570
L66210 41570
L66180 41860
L66210 41830
L66270 41800
L66410 41800
L66470 41830
L66500 41860
L66530 41910
L66530 42060
L66500 42110
L66470 42140
L66410 42170
L66270 42170
L66210 42140
L66180 42110
" />
<path d="M66700 41570
L66900 42170
L67100 41570
" />
<path d="M67260 42000
L67550 42000
" />
<path d="M67210 42170
L67410 41570
L67610 42170
" />
<path d="M68150 42110
L68120 42140
L68030 42170
L67970 42170
L67890 42140
L67830 42090
L67800 42030
L67770 41910
L67770 41830
L67800 41710
L67830 41660
L67890 41600
L67970 41570
L68030 41570
L68120 41600
L68150 41630
" />
</g>
<g style="fill:#008400; fill-opacity:0.0; 
stroke:#008400; stroke-width:100; stroke-opacity:1; 
stroke-linecap:round; stroke-linejoin:round;">
<path d="M22100 42100
L24000 42100
" />
<path d="M24000 42100
L24000 63600
" />
</g>
<g style="fill:#0000C2; fill-opacity:0.0; 
stroke:#0000C2; stroke-width:100; stroke-opacity:1; 
stroke-linecap:round; stroke-linejoin:round;">
</g>
<g style="fill:#0000C2; fill-opacity:0.0; 
stroke:#0000C2; stroke-width:100; stroke-opacity:1; 
stroke-linecap:round; stroke-linejoin:round;stroke-dasharray:96.8504,198.425;">
<path d="M47900 36900
L53600 36900
" />
</g>
<g style="fill:#0000C2; fill-opacity:0.0; 
stroke:#0000C2; stroke-width:100; stroke-opacity:1; 
stroke-linecap:round; stroke-linejoin:round;">
</g>
<g style="fill:#0000C2; fill-opacity:0.0; 
stroke:#0000C2; stroke-width:100; stroke-opacity:1; 
stroke-linecap:round; stroke-linejoin:round;stroke-dasharray:96.8504,198.425;">
<path d="M53600 36900
L53600 41300
" />
</g>
<g style="fill:#0000C2; fill-opacity:0.0; 
stroke:#0000C2; stroke-width:100; stroke-opacity:1; 
stroke-linecap:round; stroke-linejoin:round;">
</g>
<g style="fill:#0000C2; fill-opacity:0.0; 
stroke:#0000C2; stroke-width:100; stroke-opacity:1; 
stroke-linecap:round; stroke-linejoin:round;stroke-dasharray:96.8504,198.425;">
<path d="M53600 41300
L47900 41300
" />
</g>
<g style="fill:#0000C2; fill-opacity:0.0; 
stroke:#0000C2; stroke-width:100; stroke-opacity:1; 
stroke-linecap:round; stroke-linejoin:round;">
</g>
<g style="fill:#0000C2; fill-opacity:0.0; 
stroke:#0000C2; stroke-width:100; stroke-opacity:1; 
stroke-linecap:round; stroke-linejoin:round;stroke-dasharray:96.8504,198.425;">
<path d="M47900 41300
L47900 36900
" />
</g>
<g style="fill:#0000C2; fill-opacity:0.0; 
stroke:#0000C2; stroke-width:100; stroke-opacity:1; 
stroke-linecap:round; stroke-linejoin:round;">
</g>
<g style="fill:#008400; fill-opacity:0.0; 
stroke:#008400; stroke-width:100; stroke-opacity:1; 
stroke-linecap:round; stroke-linejoin:round;">
<path d="M48300 38100
L49200 38100
" />
<path d="M49200 38100
L49200 37200
" />
<path d="M49200 37200
L50600 37200
" />
<path d="M50600 37200
L50600 37600
" />
<path d="M48300 40100
L49200 40100
" />
<path d="M49200 40100
L49200 41000
" />
<path d="M49200 41000
L50600 41000
" />
<path d="M50600 41000
L50600 40600
" />
<path d="M22100 38100
L33700 38100
" />
<path d="M33700 38100
L33700 29900
" />
<path d="M33700 29900
L36200 29900
" />
<path d="M22100 40100
L33700 40100
" />
<path d="M33700 40100
L33700 48800
" />
<path d="M33700 48800
L59000 48800
" />
<path d="M39200 29900
L59000 29900
" />
<path d="M41900 29900
L41900 38100
" />
<path d="M41900 48800
L41900 40100
" />
</g>
<g style="fill:#008400; fill-opacity:0.0; 
stroke:#008400; stroke-width:0; stroke-opacity:1; 
stroke-linecap:round; stroke-linejoin:round;">
</g>
<g style="fill:#008400; fill-opacity:1.0; 
stroke:#008400; stroke-width:100; stroke-opacity:1; 
stroke-linecap:round; stroke-linejoin:round;">
<circle cx="41900" cy="48800" r="200" /> 
</g>
<g style="fill:#008400; fill-opacity:0.0; 
stroke:#008400; stroke-width:100; stroke-opacity:1; 
stroke-linecap:round; stroke-linejoin:round;">
<path d="M80900 36100
L80900 42100
" />
</g>
<g style="fill:#008400; fill-opacity:0.0; 
stroke:#008400; stroke-width:0; stroke-opacity:1; 
stroke-linecap:round; stroke-linejoin:round;">
</g>
<g style="fill:#008400; fill-opacity:1.0; 
stroke:#008400; stroke-width:100; stroke-opacity:1; 
stroke-linecap:round; stroke-linejoin:round;">
<circle cx="80900" cy="39300" r="200" /> 
</g>
<g style="fill:#008400; fill-opacity:1.0; 
stroke:#008400; stroke-width:0; stroke-opacity:1; 
stroke-linecap:round; stroke-linejoin:round;">
</g>
<g style="fill:#008400; fill-opacity:1.0; 
stroke:#008400; stroke-width:100; stroke-opacity:1; 
stroke-linecap:round; stroke-linejoin:round;">
<circle cx="41900" cy="29900" r="200" /> 
</g>
<g style="fill:#008400; fill-opacity:0.0; 
stroke:#008400; stroke-width:100; stroke-opacity:1; 
stroke-linecap:round; stroke-linejoin:round;">
<path d="M74800 29900
L92900 29900
" />
<path d="M80900 29900
L80900 33100
" />
<path d="M74800 48800
L92900 48800
" />
<path d="M80900 48800
L80900 45100
" />
</g>
<g style="fill:#008400; fill-opacity:0.0; 
stroke:#008400; stroke-width:0; stroke-opacity:1; 
stroke-linecap:round; stroke-linejoin:round;">
</g>
<g style="fill:#008400; fill-opacity:1.0; 
stroke:#008400; stroke-width:100; stroke-opacity:1; 
stroke-linecap:round; stroke-linejoin:round;">
<circle cx="80900" cy="29900" r="200" /> 
</g>
<g style="fill:#008400; fill-opacity:1.0; 
stroke:#008400; stroke-width:0; stroke-opacity:1; 
stroke-linecap:round; stroke-linejoin:round;">
</g>
<g style="fill:#008400; fill-opacity:1.0; 
stroke:#008400; stroke-width:100; stroke-opacity:1; 
stroke-linecap:round; stroke-linejoin:round;">
<circle cx="80900" cy="48800" r="200" /> 
</g>
<g style="fill:#008400; fill-opacity:0.0; 
stroke:#008400; stroke-width:100; stroke-opacity:1; 
stroke-linecap:round; stroke-linejoin:round;">
<path d="M69000 39300
L92900 39300
" />
<path d="M92900 39300
L92900 40900
" />
</g>
<g style="fill:#0000C2; fill-opacity:0.0; 
stroke:#0000C2; stroke-width:100; stroke-opacity:1; 
stroke-linecap:round; stroke-linejoin:round;">
<path d="M93540 29940
L94000 29940
" />
<path d="M93770 30170
L93770 29710
" />
<path d="M94600 30170
L94250 30170
" />
<path d="M94430 30170
L94430 29570
L94370 29660
L94310 29710
L94250 29740
" />
<path d="M95140 29570
L94850 29570
L94820 29860
L94850 29830
L94910 29800
L95050 29800
L95110 29830
L95140 29860
L95170 29910
L95170 30060
L95140 30110
L95110 30140
L95050 30170
L94910 30170
L94850 30140
L94820 30110
" />
<path d="M95340 29570
L95540 30170
L95740 29570
" />
<path d="M96360 30140
L96420 30170
L96540 30170
L96590 30140
L96620 30090
L96620 30060
L96590 30000
L96540 29970
L96450 29970
L96390 29940
L96360 29890
L96360 29860
L96390 29800
L96450 29770
L96540 29770
L96590 29800
" />
<path d="M97140 29770
L97140 30170
" />
<path d="M96880 29770
L96880 30090
L96910 30140
L96970 30170
L97050 30170
L97110 30140
L97140 30110
" />
<path d="M97420 29770
L97420 30370
" />
<path d="M97420 29800
L97480 29770
L97590 29770
L97650 29800
L97680 29830
L97710 29890
L97710 30060
L97680 30110
L97650 30140
L97590 30170
L97480 30170
L97420 30140
" />
<path d="M97960 29770
L97960 30370
" />
<path d="M97960 29800
L98020 29770
L98130 29770
L98190 29800
L98220 29830
L98250 29890
L98250 30060
L98220 30110
L98190 30140
L98130 30170
L98020 30170
L97960 30140
" />
<path d="M98590 30170
L98530 30140
L98500 30090
L98500 29570
" />
<path d="M98760 29770
L98900 30170
" />
<path d="M99040 29770
L98900 30170
L98840 30310
L98810 30340
L98760 30370
" />
<path d="M93540 48840
L94000 48840
" />
<path d="M94600 49070
L94250 49070
" />
<path d="M94430 49070
L94430 48470
L94370 48560
L94310 48610
L94250 48640
" />
<path d="M95140 48470
L94850 48470
L94820 48760
L94850 48730
L94910 48700
L95050 48700
L95110 48730
L95140 48760
L95170 48810
L95170 48960
L95140 49010
L95110 49040
L95050 49070
L94910 49070
L94850 49040
L94820 49010
" />
<path d="M95340 48470
L95540 49070
L95740 48470
" />
<path d="M96360 49040
L96420 49070
L96540 49070
L96590 49040
L96620 48990
L96620 48960
L96590 48900
L96540 48870
L96450 48870
L96390 48840
L96360 48790
L96360 48760
L96390 48700
L96450 48670
L96540 48670
L96590 48700
" />
<path d="M97140 48670
L97140 49070
" />
<path d="M96880 48670
L96880 48990
L96910 49040
L96970 49070
L97050 49070
L97110 49040
L97140 49010
" />
<path d="M97420 48670
L97420 49270
" />
<path d="M97420 48700
L97480 48670
L97590 48670
L97650 48700
L97680 48730
L97710 48790
L97710 48960
L97680 49010
L97650 49040
L97590 49070
L97480 49070
L97420 49040
" />
<path d="M97960 48670
L97960 49270
" />
<path d="M97960 48700
L98020 48670
L98130 48670
L98190 48700
L98220 48730
L98250 48790
L98250 48960
L98220 49010
L98190 49040
L98130 49070
L98020 49070
L97960 49040
" />
<path d="M98590 49070
L98530 49040
L98500 48990
L98500 48470
" />
<path d="M98760 48670
L98900 49070
" />
<path d="M99040 48670
L98900 49070
L98840 49210
L98810 49240
L98760 49270
" />
<path d="M41580 26240
L41580 25060
L42030 25060
L42140 25120
L42200 25180
L42260 25290
L42260 25460
L42200 25570
L42140 25630
L42030 25680
L41580 25680
" />
<path d="M42760 26240
L42760 25460
" />
<path d="M42760 25680
L42820 25570
L42870 25510
L42990 25460
L43100 25460
" />
<path d="M43490 26240
L43490 25460
" />
<path d="M43490 25060
L43430 25120
L43490 25180
L43550 25120
L43490 25060
L43490 25180
" />
<path d="M44050 26240
L44050 25460
" />
<path d="M44050 25570
L44110 25510
L44220 25460
L44390 25460
L44500 25510
L44560 25630
L44560 26240
" />
<path d="M44560 25630
L44610 25510
L44730 25460
L44890 25460
L45010 25510
L45060 25630
L45060 26240
" />
<path d="M46130 26240
L46130 25630
L46070 25510
L45960 25460
L45730 25460
L45620 25510
" />
<path d="M46130 26190
L46010 26240
L45730 26240
L45620 26190
L45560 26080
L45560 25960
L45620 25850
L45730 25790
L46010 25790
L46130 25740
" />
<path d="M46690 26240
L46690 25460
" />
<path d="M46690 25680
L46750 25570
L46800 25510
L46920 25460
L47030 25460
" />
<path d="M47310 25460
L47590 26240
" />
<path d="M47870 25460
L47590 26240
L47480 26520
L47420 26580
L47310 26640
" />
<path d="M49160 26190
L49280 26240
L49500 26240
L49610 26190
L49670 26080
L49670 26020
L49610 25910
L49500 25850
L49330 25850
L49220 25790
L49160 25680
L49160 25630
L49220 25510
L49330 25460
L49500 25460
L49610 25510
" />
<path d="M50180 26240
L50180 25460
" />
<path d="M50180 25060
L50120 25120
L50180 25180
L50240 25120
L50180 25060
L50180 25180
" />
<path d="M51250 26240
L51250 25060
" />
<path d="M51250 26190
L51130 26240
L50910 26240
L50800 26190
L50740 26130
L50680 26020
L50680 25680
L50740 25570
L50800 25510
L50910 25460
L51130 25460
L51250 25510
" />
<path d="M52260 26190
L52150 26240
L51920 26240
L51810 26190
L51750 26080
L51750 25630
L51810 25510
L51920 25460
L52150 25460
L52260 25510
L52320 25630
L52320 25740
L51750 25850
" />
<path d="M71820 26190
L71990 26240
L72270 26240
L72390 26190
L72440 26130
L72500 26020
L72500 25910
L72440 25790
L72390 25740
L72270 25680
L72050 25630
L71940 25570
L71880 25510
L71820 25400
L71820 25290
L71880 25180
L71940 25120
L72050 25060
L72330 25060
L72500 25120
" />
<path d="M73450 26190
L73340 26240
L73110 26240
L73000 26190
L72940 26080
L72940 25630
L73000 25510
L73110 25460
L73340 25460
L73450 25510
L73510 25630
L73510 25740
L72940 25850
" />
<path d="M74520 26190
L74400 26240
L74180 26240
L74070 26190
L74010 26130
L73950 26020
L73950 25680
L74010 25570
L74070 25510
L74180 25460
L74400 25460
L74520 25510
" />
<path d="M75190 26240
L75080 26190
L75020 26130
L74960 26020
L74960 25680
L75020 25570
L75080 25510
L75190 25460
L75360 25460
L75470 25510
L75530 25570
L75580 25680
L75580 26020
L75530 26130
L75470 26190
L75360 26240
L75190 26240
" />
<path d="M76090 25460
L76090 26240
" />
<path d="M76090 25570
L76150 25510
L76260 25460
L76430 25460
L76540 25510
L76600 25630
L76600 26240
" />
<path d="M77670 26240
L77670 25060
" />
<path d="M77670 26190
L77550 26240
L77330 26240
L77220 26190
L77160 26130
L77100 26020
L77100 25680
L77160 25570
L77220 25510
L77330 25460
L77550 25460
L77670 25510
" />
<path d="M78740 26240
L78740 25630
L78680 25510
L78570 25460
L78340 25460
L78230 25510
" />
<path d="M78740 26190
L78620 26240
L78340 26240
L78230 26190
L78170 26080
L78170 25960
L78230 25850
L78340 25790
L78620 25790
L78740 25740
" />
<path d="M79300 26240
L79300 25460
" />
<path d="M79300 25680
L79360 25570
L79410 25510
L79530 25460
L79640 25460
" />
<path d="M79920 25460
L80200 26240
" />
<path d="M80480 25460
L80200 26240
L80090 26520
L80030 26580
L79920 26640
" />
<path d="M81770 26190
L81890 26240
L82110 26240
L82220 26190
L82280 26080
L82280 26020
L82220 25910
L82110 25850
L81940 25850
L81830 25790
L81770 25680
L81770 25630
L81830 25510
L81940 25460
L82110 25460
L82220 25510
" />
<path d="M82790 26240
L82790 25460
" />
<path d="M82790 25060
L82730 25120
L82790 25180
L82850 25120
L82790 25060
L82790 25180
" />
<path d="M83860 26240
L83860 25060
" />
<path d="M83860 26190
L83740 26240
L83520 26240
L83410 26190
L83350 26130
L83290 26020
L83290 25680
L83350 25570
L83410 25510
L83520 25460
L83740 25460
L83860 25510
" />
<path d="M84870 26190
L84760 26240
L84530 26240
L84420 26190
L84360 26080
L84360 25630
L84420 25510
L84530 25460
L84760 25460
L84870 25510
L84930 25630
L84930 25740
L84360 25850
" />
</g>
<g style="fill:#0000C2; fill-opacity:0.0; 
stroke:#0000C2; stroke-width:0; stroke-opacity:1; 
stroke-linecap:round; stroke-linejoin:round;">
</g>
<g style="fill:#840000; fill-opacity:0.0; 
stroke:#840000; stroke-width:0; stroke-opacity:1; 
stroke-linecap:round; stroke-linejoin:round;">
</g>
<g style="fill:#840000; fill-opacity:0.0; 
stroke:#840000; stroke-width:100; stroke-opacity:1; 
stroke-linecap:round; stroke-linejoin:round;">
<path d="M63600 40799.1 A500 500 0.0 0 0 63100.9 40300 " />
<path d="M63100.9 41300 A500 500 0.0 0 0 63600 40800.9 " />
<path d="M63600 39799.1 A500 500 0.0 0 0 63100.9 39300 " />
<path d="M63100.9 40300 A500 500 0.0 0 0 63600 39800.9 " />
<path d="M63600 38799.1 A500 500 0.0 0 0 63100.9 38300 " />
<path d="M63100.9 39300 A500 500 0.0 0 0 63600 38800.9 " />
<path d="M63600 37799.1 A500 500 0.0 0 0 63100.9 37300 " />
<path d="M63100.9 38300 A500 500 0.0 0 0 63600 37800.9 " />
<path d="M65100.9 42300 A500 500 0.0 0 0 64600 42800.9 " />
<path d="M64600 42799.1 A500 500 0.0 0 0 65100.9 43300 " />
<path d="M65100.9 41300 A500 500 0.0 0 0 64600 41800.9 " />
<path d="M64600 41799.1 A500 500 0.0 0 0 65100.9 42300 " />
<path d="M65100.9 40300 A500 500 0.0 0 0 64600 40800.9 " />
<path d="M64600 40799.1 A500 500 0.0 0 0 65100.9 41300 " />
<path d="M65100.9 37300 A500 500 0.0 0 0 64600 37800.9 " />
<path d="M64600 37799.1 A500 500 0.0 0 0 65100.9 38300 " />
<path d="M65100.9 36300 A500 500 0.0 0 0 64600 36800.9 " />
<path d="M64600 36799.1 A500 500 0.0 0 0 65100.9 37300 " />
<path d="M65100.9 35300 A500 500 0.0 0 0 64600 35800.9 " />
<path d="M64600 35799.1 A500 500 0.0 0 0 65100.9 36300 " />
<polyline fill="none;"
points="63900,43300
63900,35300
" /> 
<polyline fill="none;"
points="64300,35300
64300,43300
" /> 
<path d="M63100 37300
L60100 37300
" />
</g>
<g style="fill:#840000; fill-opacity:0.0; 
stroke:#840000; stroke-width:80; stroke-opacity:1; 
stroke-linecap:round; stroke-linejoin:round;">
<path d="M61740 37180
L61460 37180
" />
<path d="M61600 37180
L61600 36680
L61550 36750
L61500 36800
L61460 36820
" />
</g>
<g style="fill:#840000; fill-opacity:0.0; 
stroke:#840000; stroke-width:100; stroke-opacity:1; 
stroke-linecap:round; stroke-linejoin:round;">
<path d="M63100 41300
L60100 41300
" />
</g>
<g style="fill:#840000; fill-opacity:0.0; 
stroke:#840000; stroke-width:80; stroke-opacity:1; 
stroke-linecap:round; stroke-linejoin:round;">
<path d="M61460 40720
L61480 40700
L61530 40680
L61650 40680
L61690 40700
L61720 40720
L61740 40770
L61740 40820
L61720 40890
L61430 41180
L61740 41180
" />
</g>
<g style="fill:#840000; fill-opacity:0.0; 
stroke:#840000; stroke-width:100; stroke-opacity:1; 
stroke-linecap:round; stroke-linejoin:round;">
<path d="M65100 35300
L68100 35300
" />
</g>
<g style="fill:#840000; fill-opacity:0.0; 
stroke:#840000; stroke-width:80; stroke-opacity:1; 
stroke-linecap:round; stroke-linejoin:round;">
<path d="M66430 34680
L66740 34680
L66570 34870
L66650 34870
L66690 34890
L66720 34910
L66740 34960
L66740 35080
L66720 35130
L66690 35150
L66650 35180
L66500 35180
L66460 35150
L66430 35130
" />
</g>
<g style="fill:#840000; fill-opacity:0.0; 
stroke:#840000; stroke-width:100; stroke-opacity:1; 
stroke-linecap:round; stroke-linejoin:round;">
<path d="M65100 38300
L68100 38300
" />
</g>
<g style="fill:#840000; fill-opacity:0.0; 
stroke:#840000; stroke-width:80; stroke-opacity:1; 
stroke-linecap:round; stroke-linejoin:round;">
<path d="M66690 37840
L66690 38180
" />
<path d="M66570 37650
L66460 38010
L66760 38010
" />
</g>
<g style="fill:#840000; fill-opacity:0.0; 
stroke:#840000; stroke-width:100; stroke-opacity:1; 
stroke-linecap:round; stroke-linejoin:round;">
<path d="M65100 40300
L68100 40300
" />
</g>
<g style="fill:#840000; fill-opacity:0.0; 
stroke:#840000; stroke-width:80; stroke-opacity:1; 
stroke-linecap:round; stroke-linejoin:round;">
<path d="M66720 39680
L66480 39680
L66460 39910
L66480 39890
L66530 39870
L66650 39870
L66690 39890
L66720 39910
L66740 39960
L66740 40080
L66720 40130
L66690 40150
L66650 40180
L66530 40180
L66480 40150
L66460 40130
" />
</g>
<g style="fill:#840000; fill-opacity:0.0; 
stroke:#840000; stroke-width:100; stroke-opacity:1; 
stroke-linecap:round; stroke-linejoin:round;">
<path d="M65100 43300
L68100 43300
" />
</g>
<g style="fill:#840000; fill-opacity:0.0; 
stroke:#840000; stroke-width:80; stroke-opacity:1; 
stroke-linecap:round; stroke-linejoin:round;">
<path d="M66690 42680
L66600 42680
L66550 42700
L66530 42720
L66480 42800
L66460 42890
L66460 43080
L66480 43130
L66500 43150
L66550 43180
L66650 43180
L66690 43150
L66720 43130
L66740 43080
L66740 42960
L66720 42910
L66690 42890
L66650 42870
L66550 42870
L66500 42890
L66480 42910
L66460 42960
" />
</g>
<g style="fill:#840000; fill-opacity:0.0; 
stroke:#840000; stroke-width:100; stroke-opacity:1; 
stroke-linecap:round; stroke-linejoin:round;">
</g>
<g style="fill:#008400; fill-opacity:0.0; 
stroke:#008400; stroke-width:100; stroke-opacity:1; 
stroke-linecap:round; stroke-linejoin:round;">
<path d="M71800 29900
L69000 29900
" />
<path d="M69000 29900
L69000 35300
" />
<path d="M69000 35300
L68100 35300
" />
<path d="M68100 43300
L69000 43300
" />
<path d="M69000 43300
L69000 48800
" />
<path d="M69000 48800
L71800 48800
" />
<path d="M68100 38300
L69000 38300
" />
<path d="M69000 38300
L69000 40300
" />
<path d="M69000 40300
L68100 40300
" />
<path d="M59000 29900
L59000 37300
" />
<path d="M59000 37300
L60100 37300
" />
<path d="M59000 48800
L59000 41300
" />
<path d="M59000 41300
L60100 41300
" />
</g>
<g style="fill:#008400; fill-opacity:0.0; 
stroke:#008400; stroke-width:0; stroke-opacity:1; 
stroke-linecap:round; stroke-linejoin:round;">
</g>
<g style="fill:#008400; fill-opacity:1.0; 
stroke:#008400; stroke-width:100; stroke-opacity:1; 
stroke-linecap:round; stroke-linejoin:round;">
<circle cx="69000" cy="39300" r="200" /> 
</g>
<g style="fill:#0000C2; fill-opacity:0.0; 
stroke:#0000C2; stroke-width:100; stroke-opacity:1; 
stroke-linecap:round; stroke-linejoin:round;">
<path d="M70040 34270
L70040 33670
L70190 33670
L70270 33700
L70330 33760
L70360 33810
L70390 33930
L70390 34010
L70360 34130
L70330 34190
L70270 34240
L70190 34270
L70040 34270
" />
<path d="M70640 34270
L70640 33870
" />
<path d="M70640 33670
L70610 33700
L70640 33730
L70670 33700
L70640 33670
L70640 33730
" />
<path d="M71020 34270
L70960 34240
L70930 34210
L70900 34160
L70900 33990
L70930 33930
L70960 33900
L71020 33870
L71100 33870
L71160 33900
L71190 33930
L71220 33990
L71220 34160
L71190 34210
L71160 34240
L71100 34270
L71020 34270
" />
<path d="M71730 34270
L71730 33670
" />
<path d="M71730 34240
L71670 34270
L71560 34270
L71500 34240
L71470 34210
L71440 34160
L71440 33990
L71470 33930
L71500 33900
L71560 33870
L71670 33870
L71730 33900
" />
<path d="M72240 34240
L72180 34270
L72070 34270
L72010 34240
L71980 34190
L71980 33960
L72010 33900
L72070 33870
L72180 33870
L72240 33900
L72270 33960
L72270 34010
L71980 34070
" />
<path d="M72520 34210
L72550 34240
L72520 34270
L72490 34240
L72520 34210
L72520 34270
" />
<path d="M72520 33900
L72550 33930
L72520 33960
L72490 33930
L72520 33900
L72520 33960
" />
<path d="M73500 34240
L73440 34270
L73330 34270
L73270 34240
L73240 34190
L73240 33960
L73270 33900
L73330 33870
L73440 33870
L73500 33900
L73530 33960
L73530 34010
L73240 34070
" />
<path d="M73780 34210
L73810 34240
L73780 34270
L73750 34240
L73780 34210
L73780 34270
" />
<path d="M74330 33870
L74330 34360
L74300 34410
L74270 34440
L74220 34470
L74130 34470
L74070 34440
" />
<path d="M74330 34240
L74270 34270
L74160 34270
L74100 34240
L74070 34210
L74040 34160
L74040 33990
L74070 33930
L74100 33900
L74160 33870
L74270 33870
L74330 33900
" />
<path d="M74610 34210
L74640 34240
L74610 34270
L74580 34240
L74610 34210
L74610 34270
" />
<path d="M70360 35170
L70010 35170
" />
<path d="M70190 35170
L70190 34570
L70130 34660
L70070 34710
L70010 34740
" />
<path d="M70610 35110
L70640 35140
L70610 35170
L70580 35140
L70610 35110
L70610 35170
" />
<path d="M71190 34570
L70900 34570
L70870 34860
L70900 34830
L70960 34800
L71100 34800
L71160 34830
L71190 34860
L71220 34910
L71220 35060
L71190 35110
L71160 35140
L71100 35170
L70960 35170
L70900 35140
L70870 35110
" />
<path d="M71470 35170
L71470 34570
" />
<path d="M71820 35170
L71560 34830
" />
<path d="M71820 34570
L71470 34910
" />
<path d="M72070 34860
L72270 34860
" />
<path d="M72360 35170
L72070 35170
L72070 34570
L72360 34570
" />
<path d="M72580 34630
L72610 34600
L72670 34570
L72810 34570
L72870 34600
L72900 34630
L72930 34690
L72930 34740
L72900 34830
L72560 35170
L72930 35170
" />
<path d="M73130 34570
L73530 34570
L73270 35170
" />
<path d="M74100 35110
L74070 35140
L73980 35170
L73920 35170
L73840 35140
L73780 35090
L73750 35030
L73720 34910
L73720 34830
L73750 34710
L73780 34660
L73840 34600
L73920 34570
L73980 34570
L74070 34600
L74100 34630
" />
<path d="M74320 35000
L74610 35000
" />
<path d="M74270 35170
L74470 34570
L74670 35170
" />
<path d="M74860 35110
L74890 35140
L74860 35170
L74830 35140
L74860 35110
L74860 35170
" />
<path d="M74860 34800
L74890 34830
L74860 34860
L74830 34830
L74860 34800
L74860 34860
" />
<path d="M71850 35530
L71880 35500
L71940 35470
L72080 35470
L72140 35500
L72170 35530
L72200 35590
L72200 35640
L72170 35730
L71830 36070
L72200 36070
" />
<path d="M72400 35470
L72770 35470
L72570 35700
L72650 35700
L72710 35730
L72740 35760
L72770 35810
L72770 35960
L72740 36010
L72710 36040
L72650 36070
L72480 36070
L72420 36040
L72400 36010
" />
<path d="M73020 36010
L73050 36040
L73020 36070
L72990 36040
L73020 36010
L73020 36070
" />
<path d="M73630 36070
L73280 36070
" />
<path d="M73460 36070
L73460 35470
L73400 35560
L73340 35610
L73280 35640
" />
<path d="M73800 35470
L74000 36070
L74200 35470
" />
<path d="M75020 36300
L75000 36270
L74940 36190
L74910 36130
L74880 36040
L74850 35900
L74850 35790
L74880 35640
L74910 35560
L74940 35500
L75000 35410
L75020 35390
" />
<path d="M75220 36040
L75310 36070
L75450 36070
L75510 36040
L75540 36010
L75570 35960
L75570 35900
L75540 35840
L75510 35810
L75450 35790
L75340 35760
L75280 35730
L75250 35700
L75220 35640
L75220 35590
L75250 35530
L75280 35500
L75340 35470
L75480 35470
L75570 35500
" />
<path d="M75740 35670
L75970 35670
" />
<path d="M75820 35470
L75820 35990
L75850 36040
L75910 36070
L75970 36070
" />
<path d="M76420 36070
L76420 35760
L76390 35700
L76330 35670
L76220 35670
L76160 35700
" />
<path d="M76420 36040
L76360 36070
L76220 36070
L76160 36040
L76130 35990
L76130 35930
L76160 35870
L76220 35840
L76360 35840
L76420 35810
" />
<path d="M76700 35670
L76700 36070
" />
<path d="M76700 35730
L76730 35700
L76790 35670
L76870 35670
L76930 35700
L76960 35760
L76960 36070
" />
<path d="M77500 36070
L77500 35470
" />
<path d="M77500 36040
L77440 36070
L77330 36070
L77270 36040
L77240 36010
L77210 35960
L77210 35790
L77240 35730
L77270 35700
L77330 35670
L77440 35670
L77500 35700
" />
<path d="M77870 36070
L77810 36040
L77780 36010
L77750 35960
L77750 35790
L77780 35730
L77810 35700
L77870 35670
L77950 35670
L78010 35700
L78040 35730
L78070 35790
L78070 35960
L78040 36010
L78010 36040
L77950 36070
L77870 36070
" />
<path d="M78240 35670
L78470 35670
" />
<path d="M78320 36070
L78320 35560
L78350 35500
L78410 35470
L78470 35470
" />
<path d="M78580 35670
L78810 35670
" />
<path d="M78660 36070
L78660 35560
L78690 35500
L78750 35470
L78810 35470
" />
<path d="M78950 36300
L78970 36270
L79030 36190
L79060 36130
L79090 36040
L79120 35900
L79120 35790
L79090 35640
L79060 35560
L79030 35500
L78970 35410
L78950 35390
" />
<path d="M79430 36040
L79430 36070
L79400 36130
L79370 36160
" />
<path d="M71850 36430
L71880 36400
L71940 36370
L72080 36370
L72140 36400
L72170 36430
L72200 36490
L72200 36540
L72170 36630
L71830 36970
L72200 36970
" />
<path d="M72740 36370
L72450 36370
L72420 36660
L72450 36630
L72510 36600
L72650 36600
L72710 36630
L72740 36660
L72770 36710
L72770 36860
L72740 36910
L72710 36940
L72650 36970
L72510 36970
L72450 36940
L72420 36910
" />
<path d="M73020 36910
L73050 36940
L73020 36970
L72990 36940
L73020 36910
L73020 36970
" />
<path d="M73260 36370
L73660 36370
L73400 36970
" />
<path d="M73800 36370
L74000 36970
L74200 36370
" />
<path d="M75020 37200
L75000 37170
L74940 37090
L74910 37030
L74880 36940
L74850 36800
L74850 36690
L74880 36540
L74910 36460
L74940 36400
L75000 36310
L75020 36290
" />
<path d="M75450 36660
L75540 36690
L75570 36710
L75600 36770
L75600 36860
L75570 36910
L75540 36940
L75480 36970
L75250 36970
L75250 36370
L75450 36370
L75510 36400
L75540 36430
L75570 36490
L75570 36540
L75540 36600
L75510 36630
L75450 36660
L75250 36660
" />
<path d="M75850 36970
L75850 36570
" />
<path d="M75850 36690
L75880 36630
L75910 36600
L75970 36570
L76020 36570
" />
<path d="M76450 36940
L76390 36970
L76280 36970
L76220 36940
L76190 36890
L76190 36660
L76220 36600
L76280 36570
L76390 36570
L76450 36600
L76480 36660
L76480 36710
L76190 36770
" />
<path d="M76990 36970
L76990 36660
L76960 36600
L76900 36570
L76790 36570
L76730 36600
" />
<path d="M76990 36940
L76930 36970
L76790 36970
L76730 36940
L76700 36890
L76700 36830
L76730 36770
L76790 36740
L76930 36740
L76990 36710
" />
<path d="M77270 36970
L77270 36370
" />
<path d="M77330 36740
L77500 36970
" />
<path d="M77500 36570
L77270 36800
" />
<path d="M78020 36970
L78020 36370
" />
<path d="M78020 36940
L77960 36970
L77850 36970
L77790 36940
L77760 36910
L77730 36860
L77730 36690
L77760 36630
L77790 36600
L77850 36570
L77960 36570
L78020 36600
" />
<path d="M78390 36970
L78330 36940
L78300 36910
L78270 36860
L78270 36690
L78300 36630
L78330 36600
L78390 36570
L78470 36570
L78530 36600
L78560 36630
L78590 36690
L78590 36860
L78560 36910
L78530 36940
L78470 36970
L78390 36970
" />
<path d="M78790 36570
L78900 36970
L79010 36690
L79130 36970
L79240 36570
" />
<path d="M79470 36570
L79470 36970
" />
<path d="M79470 36630
L79500 36600
L79560 36570
L79640 36570
L79700 36600
L79730 36660
L79730 36970
" />
<path d="M79960 37200
L79980 37170
L80040 37090
L80070 37030
L80100 36940
L80130 36800
L80130 36690
L80100 36540
L80070 36460
L80040 36400
L79980 36310
L79960 36290
" />
</g>
<g style="fill:#0000C2; fill-opacity:0.0; 
stroke:#0000C2; stroke-width:0; stroke-opacity:1; 
stroke-linecap:round; stroke-linejoin:round;">
</g>
<g style="fill:#840000; fill-opacity:0.0; 
stroke:#840000; stroke-width:0; stroke-opacity:1; 
stroke-linecap:round; stroke-linejoin:round;">
</g>
<g style="fill:#840000; fill-opacity:0.0; 
stroke:#840000; stroke-width:100; stroke-opacity:1; 
stroke-linecap:round; stroke-linejoin:round;">
<polyline fill="none;"
points="86000,35100
86000,34100
" /> 
</g>
<g style="fill:#840000; fill-opacity:0.0; 
stroke:#840000; stroke-width:80; stroke-opacity:1; 
stroke-linecap:round; stroke-linejoin:round;">
<polyline fill="none;"
points="86500,33600
86000,34600
85500,33600
86500,33600
" /> 
<polyline fill="none;"
points="85500,34800
85500,34600
86500,34600
86500,34400
" /> 
<polyline fill="none;"
points="85500,35600
86500,35600
86000,34600
85500,35600
" /> 
</g>
<g style="fill:#840000; fill-opacity:0.0; 
stroke:#840000; stroke-width:100; stroke-opacity:1; 
stroke-linecap:round; stroke-linejoin:round;">
<path d="M86000 34100
L86000 33100
" />
<path d="M86000 35100
L86000 36100
" />
</g>
<g style="fill:#0000C2; fill-opacity:0.0; 
stroke:#0000C2; stroke-width:100; stroke-opacity:1; 
stroke-linecap:round; stroke-linejoin:round;">
<path d="M87440 33770
L87440 33170
L87590 33170
L87670 33200
L87730 33260
L87760 33310
L87790 33430
L87790 33510
L87760 33630
L87730 33690
L87670 33740
L87590 33770
L87440 33770
" />
<path d="M88040 33770
L88040 33370
" />
<path d="M88040 33170
L88010 33200
L88040 33230
L88070 33200
L88040 33170
L88040 33230
" />
<path d="M88420 33770
L88360 33740
L88330 33710
L88300 33660
L88300 33490
L88330 33430
L88360 33400
L88420 33370
L88500 33370
L88560 33400
L88590 33430
L88620 33490
L88620 33660
L88590 33710
L88560 33740
L88500 33770
L88420 33770
" />
<path d="M89130 33770
L89130 33170
" />
<path d="M89130 33740
L89070 33770
L88960 33770
L88900 33740
L88870 33710
L88840 33660
L88840 33490
L88870 33430
L88900 33400
L88960 33370
L89070 33370
L89130 33400
" />
<path d="M89640 33740
L89580 33770
L89470 33770
L89410 33740
L89380 33690
L89380 33460
L89410 33400
L89470 33370
L89580 33370
L89640 33400
L89670 33460
L89670 33510
L89380 33570
" />
<path d="M89920 33710
L89950 33740
L89920 33770
L89890 33740
L89920 33710
L89920 33770
" />
<path d="M89920 33400
L89950 33430
L89920 33460
L89890 33430
L89920 33400
L89920 33460
" />
<path d="M90900 33740
L90840 33770
L90730 33770
L90670 33740
L90640 33690
L90640 33460
L90670 33400
L90730 33370
L90840 33370
L90900 33400
L90930 33460
L90930 33510
L90640 33570
" />
<path d="M91180 33710
L91210 33740
L91180 33770
L91150 33740
L91180 33710
L91180 33770
" />
<path d="M91730 33370
L91730 33860
L91700 33910
L91670 33940
L91620 33970
L91530 33970
L91470 33940
" />
<path d="M91730 33740
L91670 33770
L91560 33770
L91500 33740
L91470 33710
L91440 33660
L91440 33490
L91470 33430
L91500 33400
L91560 33370
L91670 33370
L91730 33400
" />
<path d="M92010 33710
L92040 33740
L92010 33770
L91980 33740
L92010 33710
L92010 33770
" />
<path d="M87760 34670
L87410 34670
" />
<path d="M87590 34670
L87590 34070
L87530 34160
L87470 34210
L87410 34240
" />
<path d="M88010 34610
L88040 34640
L88010 34670
L87980 34640
L88010 34610
L88010 34670
" />
<path d="M88590 34070
L88300 34070
L88270 34360
L88300 34330
L88360 34300
L88500 34300
L88560 34330
L88590 34360
L88620 34410
L88620 34560
L88590 34610
L88560 34640
L88500 34670
L88360 34670
L88300 34640
L88270 34610
" />
<path d="M88870 34670
L88870 34070
" />
<path d="M89220 34670
L88960 34330
" />
<path d="M89220 34070
L88870 34410
" />
<path d="M89470 34360
L89670 34360
" />
<path d="M89760 34670
L89470 34670
L89470 34070
L89760 34070
" />
<path d="M90300 34070
L90010 34070
L89980 34360
L90010 34330
L90070 34300
L90210 34300
L90270 34330
L90300 34360
L90330 34410
L90330 34560
L90300 34610
L90270 34640
L90210 34670
L90070 34670
L90010 34640
L89980 34610
" />
<path d="M90840 34070
L90730 34070
L90670 34100
L90640 34130
L90580 34210
L90550 34330
L90550 34560
L90580 34610
L90610 34640
L90670 34670
L90780 34670
L90840 34640
L90870 34610
L90900 34560
L90900 34410
L90870 34360
L90840 34330
L90780 34300
L90670 34300
L90610 34330
L90580 34360
L90550 34410
" />
<path d="M91500 34610
L91470 34640
L91380 34670
L91320 34670
L91240 34640
L91180 34590
L91150 34530
L91120 34410
L91120 34330
L91150 34210
L91180 34160
L91240 34100
L91320 34070
L91380 34070
L91470 34100
L91500 34130
" />
<path d="M91720 34500
L92010 34500
" />
<path d="M91670 34670
L91870 34070
L92070 34670
" />
<path d="M92260 34610
L92290 34640
L92260 34670
L92230 34640
L92260 34610
L92260 34670
" />
<path d="M92260 34300
L92290 34330
L92260 34360
L92230 34330
L92260 34300
L92260 34360
" />
<path d="M89540 35170
L89540 35570
" />
<path d="M89400 34940
L89250 35370
L89630 35370
" />
<path d="M89800 34970
L90200 34970
L89940 35570
" />
<path d="M90420 35510
L90450 35540
L90420 35570
L90390 35540
L90420 35510
L90420 35570
" />
<path d="M90800 35230
L90740 35200
L90710 35170
L90680 35110
L90680 35090
L90710 35030
L90740 35000
L90800 34970
L90910 34970
L90970 35000
L91000 35030
L91030 35090
L91030 35110
L91000 35170
L90970 35200
L90910 35230
L90800 35230
L90740 35260
L90710 35290
L90680 35340
L90680 35460
L90710 35510
L90740 35540
L90800 35570
L90910 35570
L90970 35540
L91000 35510
L91030 35460
L91030 35340
L91000 35290
L90970 35260
L90910 35230
" />
<path d="M91200 34970
L91400 35570
L91600 34970
" />
<path d="M92420 35800
L92400 35770
L92340 35690
L92310 35630
L92280 35540
L92250 35400
L92250 35290
L92280 35140
L92310 35060
L92340 35000
L92400 34910
L92420 34890
" />
<path d="M92620 35540
L92710 35570
L92850 35570
L92910 35540
L92940 35510
L92970 35460
L92970 35400
L92940 35340
L92910 35310
L92850 35290
L92740 35260
L92680 35230
L92650 35200
L92620 35140
L92620 35090
L92650 35030
L92680 35000
L92740 34970
L92880 34970
L92970 35000
" />
<path d="M93140 35170
L93370 35170
" />
<path d="M93220 34970
L93220 35490
L93250 35540
L93310 35570
L93370 35570
" />
<path d="M93820 35570
L93820 35260
L93790 35200
L93730 35170
L93620 35170
L93560 35200
" />
<path d="M93820 35540
L93760 35570
L93620 35570
L93560 35540
L93530 35490
L93530 35430
L93560 35370
L93620 35340
L93760 35340
L93820 35310
" />
<path d="M94100 35170
L94100 35570
" />
<path d="M94100 35230
L94130 35200
L94190 35170
L94270 35170
L94330 35200
L94360 35260
L94360 35570
" />
<path d="M94900 35570
L94900 34970
" />
<path d="M94900 35540
L94840 35570
L94730 35570
L94670 35540
L94640 35510
L94610 35460
L94610 35290
L94640 35230
L94670 35200
L94730 35170
L94840 35170
L94900 35200
" />
<path d="M95270 35570
L95210 35540
L95180 35510
L95150 35460
L95150 35290
L95180 35230
L95210 35200
L95270 35170
L95350 35170
L95410 35200
L95440 35230
L95470 35290
L95470 35460
L95440 35510
L95410 35540
L95350 35570
L95270 35570
" />
<path d="M95640 35170
L95870 35170
" />
<path d="M95720 35570
L95720 35060
L95750 35000
L95810 34970
L95870 34970
" />
<path d="M95980 35170
L96210 35170
" />
<path d="M96060 35570
L96060 35060
L96090 35000
L96150 34970
L96210 34970
" />
<path d="M96350 35800
L96370 35770
L96430 35690
L96460 35630
L96490 35540
L96520 35400
L96520 35290
L96490 35140
L96460 35060
L96430 35000
L96370 34910
L96350 34890
" />
<path d="M96830 35540
L96830 35570
L96800 35630
L96770 35660
" />
<path d="M89570 35870
L89280 35870
L89250 36160
L89280 36130
L89340 36100
L89480 36100
L89540 36130
L89570 36160
L89600 36210
L89600 36360
L89570 36410
L89540 36440
L89480 36470
L89340 36470
L89280 36440
L89250 36410
" />
<path d="M89800 35870
L90170 35870
L89970 36100
L90050 36100
L90110 36130
L90140 36160
L90170 36210
L90170 36360
L90140 36410
L90110 36440
L90050 36470
L89880 36470
L89820 36440
L89800 36410
" />
<path d="M90420 36410
L90450 36440
L90420 36470
L90390 36440
L90420 36410
L90420 36470
" />
<path d="M90680 35930
L90710 35900
L90770 35870
L90910 35870
L90970 35900
L91000 35930
L91030 35990
L91030 36040
L91000 36130
L90660 36470
L91030 36470
" />
<path d="M91200 35870
L91400 36470
L91600 35870
" />
<path d="M92420 36700
L92400 36670
L92340 36590
L92310 36530
L92280 36440
L92250 36300
L92250 36190
L92280 36040
L92310 35960
L92340 35900
L92400 35810
L92420 35790
" />
<path d="M92850 36160
L92940 36190
L92970 36210
L93000 36270
L93000 36360
L92970 36410
L92940 36440
L92880 36470
L92650 36470
L92650 35870
L92850 35870
L92910 35900
L92940 35930
L92970 35990
L92970 36040
L92940 36100
L92910 36130
L92850 36160
L92650 36160
" />
<path d="M93250 36470
L93250 36070
" />
<path d="M93250 36190
L93280 36130
L93310 36100
L93370 36070
L93420 36070
" />
<path d="M93850 36440
L93790 36470
L93680 36470
L93620 36440
L93590 36390
L93590 36160
L93620 36100
L93680 36070
L93790 36070
L93850 36100
L93880 36160
L93880 36210
L93590 36270
" />
<path d="M94390 36470
L94390 36160
L94360 36100
L94300 36070
L94190 36070
L94130 36100
" />
<path d="M94390 36440
L94330 36470
L94190 36470
L94130 36440
L94100 36390
L94100 36330
L94130 36270
L94190 36240
L94330 36240
L94390 36210
" />
<path d="M94670 36470
L94670 35870
" />
<path d="M94730 36240
L94900 36470
" />
<path d="M94900 36070
L94670 36300
" />
<path d="M95420 36470
L95420 35870
" />
<path d="M95420 36440
L95360 36470
L95250 36470
L95190 36440
L95160 36410
L95130 36360
L95130 36190
L95160 36130
L95190 36100
L95250 36070
L95360 36070
L95420 36100
" />
<path d="M95790 36470
L95730 36440
L95700 36410
L95670 36360
L95670 36190
L95700 36130
L95730 36100
L95790 36070
L95870 36070
L95930 36100
L95960 36130
L95990 36190
L95990 36360
L95960 36410
L95930 36440
L95870 36470
L95790 36470
" />
<path d="M96190 36070
L96300 36470
L96410 36190
L96530 36470
L96640 36070
" />
<path d="M96870 36070
L96870 36470
" />
<path d="M96870 36130
L96900 36100
L96960 36070
L97040 36070
L97100 36100
L97130 36160
L97130 36470
" />
<path d="M97360 36700
L97380 36670
L97440 36590
L97470 36530
L97500 36440
L97530 36300
L97530 36190
L97500 36040
L97470 35960
L97440 35900
L97380 35810
L97360 35790
" />
</g>
<g style="fill:#008400; fill-opacity:0.0; 
stroke:#008400; stroke-width:100; stroke-opacity:1; 
stroke-linecap:round; stroke-linejoin:round;">
<path d="M86000 33100
L86000 29900
" />
</g>
<g style="fill:#008400; fill-opacity:0.0; 
stroke:#008400; stroke-width:0; stroke-opacity:1; 
stroke-linecap:round; stroke-linejoin:round;">
</g>
<g style="fill:#008400; fill-opacity:1.0; 
stroke:#008400; stroke-width:100; stroke-opacity:1; 
stroke-linecap:round; stroke-linejoin:round;">
<circle cx="86000" cy="29900" r="200" /> 
</g>
<g style="fill:#008400; fill-opacity:0.0; 
stroke:#008400; stroke-width:100; stroke-opacity:1; 
stroke-linecap:round; stroke-linejoin:round;">
<path d="M86000 36100
L86000 48800
" />
</g>
<g style="fill:#008400; fill-opacity:0.0; 
stroke:#008400; stroke-width:0; stroke-opacity:1; 
stroke-linecap:round; stroke-linejoin:round;">
</g>
<g style="fill:#008400; fill-opacity:1.0; 
stroke:#008400; stroke-width:100; stroke-opacity:1; 
stroke-linecap:round; stroke-linejoin:round;">
<circle cx="86000" cy="48800" r="200" /> 
</g>
<g style="fill:#0000C2; fill-opacity:0.0; 
stroke:#0000C2; stroke-width:100; stroke-opacity:1; 
stroke-linecap:round; stroke-linejoin:round;">
<path d="M70040 43670
L70040 43070
L70190 43070
L70270 43100
L70330 43160
L70360 43210
L70390 43330
L70390 43410
L70360 43530
L70330 43590
L70270 43640
L70190 43670
L70040 43670
" />
<path d="M70640 43670
L70640 43270
" />
<path d="M70640 43070
L70610 43100
L70640 43130
L70670 43100
L70640 43070
L70640 43130
" />
<path d="M71020 43670
L70960 43640
L70930 43610
L70900 43560
L70900 43390
L70930 43330
L70960 43300
L71020 43270
L71100 43270
L71160 43300
L71190 43330
L71220 43390
L71220 43560
L71190 43610
L71160 43640
L71100 43670
L71020 43670
" />
<path d="M71730 43670
L71730 43070
" />
<path d="M71730 43640
L71670 43670
L71560 43670
L71500 43640
L71470 43610
L71440 43560
L71440 43390
L71470 43330
L71500 43300
L71560 43270
L71670 43270
L71730 43300
" />
<path d="M72240 43640
L72180 43670
L72070 43670
L72010 43640
L71980 43590
L71980 43360
L72010 43300
L72070 43270
L72180 43270
L72240 43300
L72270 43360
L72270 43410
L71980 43470
" />
<path d="M72520 43610
L72550 43640
L72520 43670
L72490 43640
L72520 43610
L72520 43670
" />
<path d="M72520 43300
L72550 43330
L72520 43360
L72490 43330
L72520 43300
L72520 43360
" />
<path d="M73500 43640
L73440 43670
L73330 43670
L73270 43640
L73240 43590
L73240 43360
L73270 43300
L73330 43270
L73440 43270
L73500 43300
L73530 43360
L73530 43410
L73240 43470
" />
<path d="M73780 43610
L73810 43640
L73780 43670
L73750 43640
L73780 43610
L73780 43670
" />
<path d="M74330 43270
L74330 43760
L74300 43810
L74270 43840
L74220 43870
L74130 43870
L74070 43840
" />
<path d="M74330 43640
L74270 43670
L74160 43670
L74100 43640
L74070 43610
L74040 43560
L74040 43390
L74070 43330
L74100 43300
L74160 43270
L74270 43270
L74330 43300
" />
<path d="M74610 43610
L74640 43640
L74610 43670
L74580 43640
L74610 43610
L74610 43670
" />
<path d="M70360 44570
L70010 44570
" />
<path d="M70190 44570
L70190 43970
L70130 44060
L70070 44110
L70010 44140
" />
<path d="M70610 44510
L70640 44540
L70610 44570
L70580 44540
L70610 44510
L70610 44570
" />
<path d="M71190 43970
L70900 43970
L70870 44260
L70900 44230
L70960 44200
L71100 44200
L71160 44230
L71190 44260
L71220 44310
L71220 44460
L71190 44510
L71160 44540
L71100 44570
L70960 44570
L70900 44540
L70870 44510
" />
<path d="M71470 44570
L71470 43970
" />
<path d="M71820 44570
L71560 44230
" />
<path d="M71820 43970
L71470 44310
" />
<path d="M72070 44260
L72270 44260
" />
<path d="M72360 44570
L72070 44570
L72070 43970
L72360 43970
" />
<path d="M72580 44030
L72610 44000
L72670 43970
L72810 43970
L72870 44000
L72900 44030
L72930 44090
L72930 44140
L72900 44230
L72560 44570
L72930 44570
" />
<path d="M73130 43970
L73530 43970
L73270 44570
" />
<path d="M74100 44510
L74070 44540
L73980 44570
L73920 44570
L73840 44540
L73780 44490
L73750 44430
L73720 44310
L73720 44230
L73750 44110
L73780 44060
L73840 44000
L73920 43970
L73980 43970
L74070 44000
L74100 44030
" />
<path d="M74320 44400
L74610 44400
" />
<path d="M74270 44570
L74470 43970
L74670 44570
" />
<path d="M74860 44510
L74890 44540
L74860 44570
L74830 44540
L74860 44510
L74860 44570
" />
<path d="M74860 44200
L74890 44230
L74860 44260
L74830 44230
L74860 44200
L74860 44260
" />
<path d="M71850 44930
L71880 44900
L71940 44870
L72080 44870
L72140 44900
L72170 44930
L72200 44990
L72200 45040
L72170 45130
L71830 45470
L72200 45470
" />
<path d="M72400 44870
L72770 44870
L72570 45100
L72650 45100
L72710 45130
L72740 45160
L72770 45210
L72770 45360
L72740 45410
L72710 45440
L72650 45470
L72480 45470
L72420 45440
L72400 45410
" />
<path d="M73020 45410
L73050 45440
L73020 45470
L72990 45440
L73020 45410
L73020 45470
" />
<path d="M73630 45470
L73280 45470
" />
<path d="M73460 45470
L73460 44870
L73400 44960
L73340 45010
L73280 45040
" />
<path d="M73800 44870
L74000 45470
L74200 44870
" />
<path d="M75020 45700
L75000 45670
L74940 45590
L74910 45530
L74880 45440
L74850 45300
L74850 45190
L74880 45040
L74910 44960
L74940 44900
L75000 44810
L75020 44790
" />
<path d="M75220 45440
L75310 45470
L75450 45470
L75510 45440
L75540 45410
L75570 45360
L75570 45300
L75540 45240
L75510 45210
L75450 45190
L75340 45160
L75280 45130
L75250 45100
L75220 45040
L75220 44990
L75250 44930
L75280 44900
L75340 44870
L75480 44870
L75570 44900
" />
<path d="M75740 45070
L75970 45070
" />
<path d="M75820 44870
L75820 45390
L75850 45440
L75910 45470
L75970 45470
" />
<path d="M76420 45470
L76420 45160
L76390 45100
L76330 45070
L76220 45070
L76160 45100
" />
<path d="M76420 45440
L76360 45470
L76220 45470
L76160 45440
L76130 45390
L76130 45330
L76160 45270
L76220 45240
L76360 45240
L76420 45210
" />
<path d="M76700 45070
L76700 45470
" />
<path d="M76700 45130
L76730 45100
L76790 45070
L76870 45070
L76930 45100
L76960 45160
L76960 45470
" />
<path d="M77500 45470
L77500 44870
" />
<path d="M77500 45440
L77440 45470
L77330 45470
L77270 45440
L77240 45410
L77210 45360
L77210 45190
L77240 45130
L77270 45100
L77330 45070
L77440 45070
L77500 45100
" />
<path d="M77870 45470
L77810 45440
L77780 45410
L77750 45360
L77750 45190
L77780 45130
L77810 45100
L77870 45070
L77950 45070
L78010 45100
L78040 45130
L78070 45190
L78070 45360
L78040 45410
L78010 45440
L77950 45470
L77870 45470
" />
<path d="M78240 45070
L78470 45070
" />
<path d="M78320 45470
L78320 44960
L78350 44900
L78410 44870
L78470 44870
" />
<path d="M78580 45070
L78810 45070
" />
<path d="M78660 45470
L78660 44960
L78690 44900
L78750 44870
L78810 44870
" />
<path d="M78950 45700
L78970 45670
L79030 45590
L79060 45530
L79090 45440
L79120 45300
L79120 45190
L79090 45040
L79060 44960
L79030 44900
L78970 44810
L78950 44790
" />
<path d="M79430 45440
L79430 45470
L79400 45530
L79370 45560
" />
<path d="M71850 45830
L71880 45800
L71940 45770
L72080 45770
L72140 45800
L72170 45830
L72200 45890
L72200 45940
L72170 46030
L71830 46370
L72200 46370
" />
<path d="M72740 45770
L72450 45770
L72420 46060
L72450 46030
L72510 46000
L72650 46000
L72710 46030
L72740 46060
L72770 46110
L72770 46260
L72740 46310
L72710 46340
L72650 46370
L72510 46370
L72450 46340
L72420 46310
" />
<path d="M73020 46310
L73050 46340
L73020 46370
L72990 46340
L73020 46310
L73020 46370
" />
<path d="M73260 45770
L73660 45770
L73400 46370
" />
<path d="M73800 45770
L74000 46370
L74200 45770
" />
<path d="M75020 46600
L75000 46570
L74940 46490
L74910 46430
L74880 46340
L74850 46200
L74850 46090
L74880 45940
L74910 45860
L74940 45800
L75000 45710
L75020 45690
" />
<path d="M75450 46060
L75540 46090
L75570 46110
L75600 46170
L75600 46260
L75570 46310
L75540 46340
L75480 46370
L75250 46370
L75250 45770
L75450 45770
L75510 45800
L75540 45830
L75570 45890
L75570 45940
L75540 46000
L75510 46030
L75450 46060
L75250 46060
" />
<path d="M75850 46370
L75850 45970
" />
<path d="M75850 46090
L75880 46030
L75910 46000
L75970 45970
L76020 45970
" />
<path d="M76450 46340
L76390 46370
L76280 46370
L76220 46340
L76190 46290
L76190 46060
L76220 46000
L76280 45970
L76390 45970
L76450 46000
L76480 46060
L76480 46110
L76190 46170
" />
<path d="M76990 46370
L76990 46060
L76960 46000
L76900 45970
L76790 45970
L76730 46000
" />
<path d="M76990 46340
L76930 46370
L76790 46370
L76730 46340
L76700 46290
L76700 46230
L76730 46170
L76790 46140
L76930 46140
L76990 46110
" />
<path d="M77270 46370
L77270 45770
" />
<path d="M77330 46140
L77500 46370
" />
<path d="M77500 45970
L77270 46200
" />
<path d="M78020 46370
L78020 45770
" />
<path d="M78020 46340
L77960 46370
L77850 46370
L77790 46340
L77760 46310
L77730 46260
L77730 46090
L77760 46030
L77790 46000
L77850 45970
L77960 45970
L78020 46000
" />
<path d="M78390 46370
L78330 46340
L78300 46310
L78270 46260
L78270 46090
L78300 46030
L78330 46000
L78390 45970
L78470 45970
L78530 46000
L78560 46030
L78590 46090
L78590 46260
L78560 46310
L78530 46340
L78470 46370
L78390 46370
" />
<path d="M78790 45970
L78900 46370
L79010 46090
L79130 46370
L79240 45970
" />
<path d="M79470 45970
L79470 46370
" />
<path d="M79470 46030
L79500 46000
L79560 45970
L79640 45970
L79700 46000
L79730 46060
L79730 46370
" />
<path d="M79960 46600
L79980 46570
L80040 46490
L80070 46430
L80100 46340
L80130 46200
L80130 46090
L80100 45940
L80070 45860
L80040 45800
L79980 45710
L79960 45690
" />
</g>
<g style="fill:#0000C2; fill-opacity:0.0; 
stroke:#0000C2; stroke-width:100; stroke-opacity:1; 
stroke-linecap:round; stroke-linejoin:round;stroke-dasharray:96.8504,198.425;">
<path d="M56000 16000
L107000 16000
" />
</g>
<g style="fill:#0000C2; fill-opacity:0.0; 
stroke:#0000C2; stroke-width:100; stroke-opacity:1; 
stroke-linecap:round; stroke-linejoin:round;">
</g>
<g style="fill:#0000C2; fill-opacity:0.0; 
stroke:#0000C2; stroke-width:100; stroke-opacity:1; 
stroke-linecap:round; stroke-linejoin:round;stroke-dasharray:96.8504,198.425;">
<path d="M107000 60000
L56000 60000
" />
</g>
<g style="fill:#0000C2; fill-opacity:0.0; 
stroke:#0000C2; stroke-width:100; stroke-opacity:1; 
stroke-linecap:round; stroke-linejoin:round;">
</g>
<g style="fill:#0000C2; fill-opacity:0.0; 
stroke:#0000C2; stroke-width:100; stroke-opacity:1; 
stroke-linecap:round; stroke-linejoin:round;stroke-dasharray:96.8504,198.425;">
<path d="M56000 60000
L56000 16000
" />
</g>
<g style="fill:#0000C2; fill-opacity:0.0; 
stroke:#0000C2; stroke-width:100; stroke-opacity:1; 
stroke-linecap:round; stroke-linejoin:round;">
</g>
<g style="fill:#008400; fill-opacity:0.0; 
stroke:#008400; stroke-width:100; stroke-opacity:1; 
stroke-linecap:round; stroke-linejoin:round;">
<path d="M24000 59500
L107000 59500
" />
<path d="M56500 59500
L56500 16500
" />
<path d="M56500 16500
L107000 16500
" />
</g>
<g style="fill:#008400; fill-opacity:0.0; 
stroke:#008400; stroke-width:0; stroke-opacity:1; 
stroke-linecap:round; stroke-linejoin:round;">
</g>
<g style="fill:#008400; fill-opacity:1.0; 
stroke:#008400; stroke-width:100; stroke-opacity:1; 
stroke-linecap:round; stroke-linejoin:round;">
<circle cx="24000" cy="59500" r="200" /> 
</g>
<g style="fill:#008400; fill-opacity:1.0; 
stroke:#008400; stroke-width:0; stroke-opacity:1; 
stroke-linecap:round; stroke-linejoin:round;">
</g>
<g style="fill:#008400; fill-opacity:1.0; 
stroke:#008400; stroke-width:100; stroke-opacity:1; 
stroke-linecap:round; stroke-linejoin:round;">
<circle cx="56500" cy="59500" r="200" /> 
</g>
<g style="fill:#0000C2; fill-opacity:0.0; 
stroke:#0000C2; stroke-width:100; stroke-opacity:1; 
stroke-linecap:round; stroke-linejoin:round;">
<path d="M56650 61920
L56760 61960
L56950 61960
L57030 61920
L57060 61890
L57100 61810
L57100 61740
L57060 61660
L57030 61620
L56950 61590
L56800 61550
L56730 61510
L56690 61470
L56650 61400
L56650 61320
L56690 61250
L56730 61210
L56800 61170
L56990 61170
L57100 61210
" />
<path d="M57440 61960
L57440 61170
" />
<path d="M57780 61960
L57780 61550
L57740 61470
L57660 61440
L57550 61440
L57480 61470
L57440 61510
" />
<path d="M58150 61960
L58150 61440
" />
<path d="M58150 61170
L58110 61210
L58150 61250
L58190 61210
L58150 61170
L58150 61250
" />
<path d="M58830 61920
L58750 61960
L58600 61960
L58530 61920
L58490 61850
L58490 61550
L58530 61470
L58600 61440
L58750 61440
L58830 61470
L58870 61550
L58870 61620
L58490 61700
" />
<path d="M59320 61960
L59250 61920
L59210 61850
L59210 61170
" />
<path d="M59960 61960
L59960 61170
" />
<path d="M59960 61920
L59880 61960
L59730 61960
L59660 61920
L59620 61890
L59580 61810
L59580 61590
L59620 61510
L59660 61470
L59730 61440
L59880 61440
L59960 61470
" />
<path d="M60330 61960
L60330 61440
" />
<path d="M60330 61170
L60290 61210
L60330 61250
L60370 61210
L60330 61170
L60330 61250
" />
<path d="M60710 61440
L60710 61960
" />
<path d="M60710 61510
L60750 61470
L60820 61440
L60930 61440
L61010 61470
L61050 61550
L61050 61960
" />
<path d="M61760 61440
L61760 62080
L61720 62150
L61680 62190
L61610 62230
L61490 62230
L61420 62190
" />
<path d="M61760 61920
L61680 61960
L61530 61960
L61460 61920
L61420 61890
L61380 61810
L61380 61590
L61420 61510
L61460 61470
L61530 61440
L61680 61440
L61760 61470
" />
</g> 
</svg>
