<?xml version="1.0" standalone="no"?>
 <!DOCTYPE svg PUBLIC "-//W3C//DTD SVG 1.1//EN" 
 "http://www.w3.org/Graphics/SVG/1.1/DTD/svg11.dtd"> 
<svg xmlns="http://www.w3.org/2000/svg" version="1.1" 
    width="41.9989cm" height="29.7002cm" viewBox="0 0 165350 116930 ">
<title>SVG Picture created as surge-protect_power-supply_periphery-surge-protect_power-supply_periphery.svg date 2017/08/18 12:55:49 </title>
  <desc>Picture generated by Eeschema-SVG </desc>
<g style="fill:#000000; fill-opacity:1;stroke:#000000; stroke-opacity:1;
stroke-linecap:round; stroke-linejoin:round; "
 transform="translate(0 0) scale(1 1)">
</g>
<g style="fill:#000000; fill-opacity:0.0; 
stroke:#000000; stroke-width:0; stroke-opacity:1; 
stroke-linecap:round; stroke-linejoin:round;">
</g>
<g style="fill:#840000; fill-opacity:0.0; 
stroke:#840000; stroke-width:0; stroke-opacity:1; 
stroke-linecap:round; stroke-linejoin:round;">
</g>
<g style="fill:#840000; fill-opacity:0.0; 
stroke:#840000; stroke-width:100; stroke-opacity:1; 
stroke-linecap:round; stroke-linejoin:round;">
<polyline fill="none;"
points="62700,47800
62700,46800
" /> 
</g>
<g style="fill:#840000; fill-opacity:0.0; 
stroke:#840000; stroke-width:80; stroke-opacity:1; 
stroke-linecap:round; stroke-linejoin:round;">
<polyline fill="none;"
points="63200,46300
62700,47300
62200,46300
63200,46300
" /> 
<polyline fill="none;"
points="62200,47500
62200,47300
63200,47300
63200,47100
" /> 
<polyline fill="none;"
points="62200,48300
63200,48300
62700,47300
62200,48300
" /> 
</g>
<g style="fill:#840000; fill-opacity:0.0; 
stroke:#840000; stroke-width:100; stroke-opacity:1; 
stroke-linecap:round; stroke-linejoin:round;">
<path d="M62700 46800
L62700 45800
" />
<path d="M62700 47800
L62700 48800
" />
</g>
<g style="fill:#840000; fill-opacity:0.0; 
stroke:#840000; stroke-width:0; stroke-opacity:1; 
stroke-linecap:round; stroke-linejoin:round;">
</g>
<g style="fill:#840000; fill-opacity:0.0; 
stroke:#840000; stroke-width:100; stroke-opacity:1; 
stroke-linecap:round; stroke-linejoin:round;">
<polyline fill="none;"
points="62700,56800
62700,55800
" /> 
</g>
<g style="fill:#840000; fill-opacity:0.0; 
stroke:#840000; stroke-width:80; stroke-opacity:1; 
stroke-linecap:round; stroke-linejoin:round;">
<polyline fill="none;"
points="63200,55300
62700,56300
62200,55300
63200,55300
" /> 
<polyline fill="none;"
points="62200,56500
62200,56300
63200,56300
63200,56100
" /> 
<polyline fill="none;"
points="62200,57300
63200,57300
62700,56300
62200,57300
" /> 
</g>
<g style="fill:#840000; fill-opacity:0.0; 
stroke:#840000; stroke-width:100; stroke-opacity:1; 
stroke-linecap:round; stroke-linejoin:round;">
<path d="M62700 55800
L62700 54800
" />
<path d="M62700 56800
L62700 57800
" />
</g>
<g style="fill:#840000; fill-opacity:0.0; 
stroke:#840000; stroke-width:0; stroke-opacity:1; 
stroke-linecap:round; stroke-linejoin:round;">
</g>
<g style="fill:#840000; fill-opacity:0.0; 
stroke:#840000; stroke-width:100; stroke-opacity:1; 
stroke-linecap:round; stroke-linejoin:round;">
<polyline fill="none;"
points="57700,52300
57700,51300
" /> 
</g>
<g style="fill:#840000; fill-opacity:0.0; 
stroke:#840000; stroke-width:80; stroke-opacity:1; 
stroke-linecap:round; stroke-linejoin:round;">
<polyline fill="none;"
points="58200,50800
57700,51800
57200,50800
58200,50800
" /> 
<polyline fill="none;"
points="57200,52000
57200,51800
58200,51800
58200,51600
" /> 
<polyline fill="none;"
points="57200,52800
58200,52800
57700,51800
57200,52800
" /> 
</g>
<g style="fill:#840000; fill-opacity:0.0; 
stroke:#840000; stroke-width:100; stroke-opacity:1; 
stroke-linecap:round; stroke-linejoin:round;">
<path d="M57700 51300
L57700 50300
" />
<path d="M57700 52300
L57700 53300
" />
</g>
<g style="fill:#840000; fill-opacity:0.0; 
stroke:#840000; stroke-width:0; stroke-opacity:1; 
stroke-linecap:round; stroke-linejoin:round;">
</g>
<g style="fill:#840000; fill-opacity:0.0; 
stroke:#840000; stroke-width:100; stroke-opacity:1; 
stroke-linecap:round; stroke-linejoin:round;">
<rect x="68200" y="43400" width="2000" height="800" rx="0" />
<path d="M70200 43800
L70700 43800
" />
<path d="M68200 43800
L67700 43800
" />
</g>
<g style="fill:#008484; fill-opacity:0.0; 
stroke:#008484; stroke-width:100; stroke-opacity:1; 
stroke-linecap:round; stroke-linejoin:round;">
</g>
<g style="fill:#008484; fill-opacity:0.0; 
stroke:#008484; stroke-width:80; stroke-opacity:1; 
stroke-linecap:round; stroke-linejoin:round;">
<path d="M67770 44640
L67770 44980
" />
<path d="M67650 44450
L67540 44810
L67840 44810
" />
<path d="M68040 44930
L68060 44950
L68040 44980
L68020 44950
L68040 44930
L68040 44980
" />
<path d="M68230 44480
L68560 44480
L68350 44980
" />
<path d="M69500 44450
L69070 45100
" />
<path d="M70020 44520
L70040 44500
L70090 44480
L70210 44480
L70250 44500
L70280 44520
L70300 44570
L70300 44620
L70280 44690
L69990 44980
L70300 44980
" />
<path d="M70470 44480
L70590 44980
L70690 44620
L70780 44980
L70900 44480
" />
</g>
<g style="fill:#008484; fill-opacity:0.0; 
stroke:#008484; stroke-width:0; stroke-opacity:1; 
stroke-linecap:round; stroke-linejoin:round;">
</g>
<g style="fill:#840000; fill-opacity:0.0; 
stroke:#840000; stroke-width:0; stroke-opacity:1; 
stroke-linecap:round; stroke-linejoin:round;">
</g>
<g style="fill:#840000; fill-opacity:0.0; 
stroke:#840000; stroke-width:100; stroke-opacity:1; 
stroke-linecap:round; stroke-linejoin:round;">
<rect x="68200" y="59400" width="2000" height="800" rx="0" />
<path d="M70200 59800
L70700 59800
" />
<path d="M68200 59800
L67700 59800
" />
</g>
<g style="fill:#008484; fill-opacity:0.0; 
stroke:#008484; stroke-width:100; stroke-opacity:1; 
stroke-linecap:round; stroke-linejoin:round;">
</g>
<g style="fill:#008484; fill-opacity:0.0; 
stroke:#008484; stroke-width:80; stroke-opacity:1; 
stroke-linecap:round; stroke-linejoin:round;">
<path d="M67770 60640
L67770 60980
" />
<path d="M67650 60450
L67540 60810
L67840 60810
" />
<path d="M68040 60930
L68060 60950
L68040 60980
L68020 60950
L68040 60930
L68040 60980
" />
<path d="M68230 60480
L68560 60480
L68350 60980
" />
<path d="M69500 60450
L69070 61100
" />
<path d="M70020 60520
L70040 60500
L70090 60480
L70210 60480
L70250 60500
L70280 60520
L70300 60570
L70300 60620
L70280 60690
L69990 60980
L70300 60980
" />
<path d="M70470 60480
L70590 60980
L70690 60620
L70780 60980
L70900 60480
" />
</g>
<g style="fill:#008484; fill-opacity:0.0; 
stroke:#008484; stroke-width:0; stroke-opacity:1; 
stroke-linecap:round; stroke-linejoin:round;">
</g>
<g style="fill:#840000; fill-opacity:0.0; 
stroke:#840000; stroke-width:0; stroke-opacity:1; 
stroke-linecap:round; stroke-linejoin:round;">
</g>
<g style="fill:#840000; fill-opacity:1.0; 
stroke:#840000; stroke-width:100; stroke-opacity:1; 
stroke-linecap:round; stroke-linejoin:round;">
<circle cx="81300" cy="51800" r="100" /> 
</g>
<g style="fill:#840000; fill-opacity:0.0; 
stroke:#840000; stroke-width:100; stroke-opacity:1; 
stroke-linecap:round; stroke-linejoin:round;">
<circle cx="80700" cy="51800" r="1410" /> 
</g>
<g style="fill:#840000; fill-opacity:1.0; 
stroke:#840000; stroke-width:100; stroke-opacity:1; 
stroke-linecap:round; stroke-linejoin:round;">
<polyline style="fill-rule:evenodd;"
points="81200,50800
80200,50800
80700,51300
81200,50800
" /> 
<polyline style="fill-rule:evenodd;"
points="80200,52800
80700,52300
81200,52800
80200,52800
" /> 
<polyline style="fill-rule:evenodd;"
points="79700,51300
79700,52300
80200,51800
79700,51300
" /> 
</g>
<g style="fill:#840000; fill-opacity:0.0; 
stroke:#840000; stroke-width:100; stroke-opacity:1; 
stroke-linecap:round; stroke-linejoin:round;">
<path d="M80700 50800
L80700 48800
" />
</g>
<g style="fill:#840000; fill-opacity:0.0; 
stroke:#840000; stroke-width:80; stroke-opacity:1; 
stroke-linecap:round; stroke-linejoin:round;">
<path d="M80580 49660
L80580 49940
" />
<path d="M80580 49800
L80080 49800
L80150 49850
L80200 49900
L80220 49940
" />
</g>
<g style="fill:#840000; fill-opacity:0.0; 
stroke:#840000; stroke-width:100; stroke-opacity:1; 
stroke-linecap:round; stroke-linejoin:round;">
<path d="M79700 51800
L77700 51800
" />
</g>
<g style="fill:#840000; fill-opacity:0.0; 
stroke:#840000; stroke-width:80; stroke-opacity:1; 
stroke-linecap:round; stroke-linejoin:round;">
<path d="M78560 51220
L78580 51200
L78630 51180
L78750 51180
L78790 51200
L78820 51220
L78840 51270
L78840 51320
L78820 51390
L78530 51680
L78840 51680
" />
</g>
<g style="fill:#840000; fill-opacity:0.0; 
stroke:#840000; stroke-width:100; stroke-opacity:1; 
stroke-linecap:round; stroke-linejoin:round;">
<path d="M80700 52800
L80700 54800
" />
</g>
<g style="fill:#840000; fill-opacity:0.0; 
stroke:#840000; stroke-width:80; stroke-opacity:1; 
stroke-linecap:round; stroke-linejoin:round;">
<path d="M80080 53970
L80080 53660
L80270 53830
L80270 53750
L80290 53710
L80310 53680
L80360 53660
L80480 53660
L80530 53680
L80550 53710
L80580 53750
L80580 53900
L80550 53940
L80530 53970
" />
</g>
<g style="fill:#840000; fill-opacity:0.0; 
stroke:#840000; stroke-width:100; stroke-opacity:1; 
stroke-linecap:round; stroke-linejoin:round;">
</g>
<g style="fill:#840000; fill-opacity:0.0; 
stroke:#840000; stroke-width:0; stroke-opacity:1; 
stroke-linecap:round; stroke-linejoin:round;">
</g>
<g style="fill:#840000; fill-opacity:0.0; 
stroke:#840000; stroke-width:100; stroke-opacity:1; 
stroke-linecap:round; stroke-linejoin:round;">
<rect x="86200" y="43500" width="2000" height="600" rx="0" />
<polyline fill="none;"
points="88200,43800
86200,43800
" /> 
<path d="M88200 43800
L88700 43800
" />
<path d="M86200 43800
L85700 43800
" />
</g>
<g style="fill:#008484; fill-opacity:0.0; 
stroke:#008484; stroke-width:100; stroke-opacity:1; 
stroke-linecap:round; stroke-linejoin:round;">
</g>
<g style="fill:#008484; fill-opacity:0.0; 
stroke:#008484; stroke-width:80; stroke-opacity:1; 
stroke-linecap:round; stroke-linejoin:round;">
<path d="M85820 44270
L85840 44250
L85890 44230
L86010 44230
L86050 44250
L86080 44270
L86100 44320
L86100 44370
L86080 44440
L85790 44730
L86100 44730
" />
<path d="M86410 44230
L86460 44230
L86510 44250
L86530 44270
L86560 44320
L86580 44420
L86580 44540
L86560 44630
L86530 44680
L86510 44700
L86460 44730
L86410 44730
L86370 44700
L86340 44680
L86320 44630
L86300 44540
L86300 44420
L86320 44320
L86340 44270
L86370 44250
L86410 44230
" />
<path d="M86890 44230
L86940 44230
L86990 44250
L87010 44270
L87040 44320
L87060 44420
L87060 44540
L87040 44630
L87010 44680
L86990 44700
L86940 44730
L86890 44730
L86850 44700
L86820 44680
L86800 44630
L86780 44540
L86780 44420
L86800 44320
L86820 44270
L86850 44250
L86890 44230
" />
<path d="M87280 44730
L87280 44390
" />
<path d="M87280 44440
L87300 44420
L87350 44390
L87420 44390
L87470 44420
L87490 44460
L87490 44730
" />
<path d="M87490 44460
L87520 44420
L87560 44390
L87640 44390
L87680 44420
L87710 44460
L87710 44730
" />
<path d="M87930 44580
L88160 44580
" />
<path d="M87880 44730
L88040 44230
L88210 44730
" />
<path d="M88550 44460
L88380 44460
" />
<path d="M88380 44730
L88380 44230
L88620 44230
" />
</g>
<g style="fill:#008484; fill-opacity:0.0; 
stroke:#008484; stroke-width:0; stroke-opacity:1; 
stroke-linecap:round; stroke-linejoin:round;">
</g>
<g style="fill:#840000; fill-opacity:0.0; 
stroke:#840000; stroke-width:0; stroke-opacity:1; 
stroke-linecap:round; stroke-linejoin:round;">
</g>
<g style="fill:#840000; fill-opacity:0.0; 
stroke:#840000; stroke-width:100; stroke-opacity:1; 
stroke-linecap:round; stroke-linejoin:round;">
<rect x="86200" y="59500" width="2000" height="600" rx="0" />
<polyline fill="none;"
points="88200,59800
86200,59800
" /> 
<path d="M88200 59800
L88700 59800
" />
<path d="M86200 59800
L85700 59800
" />
</g>
<g style="fill:#008484; fill-opacity:0.0; 
stroke:#008484; stroke-width:100; stroke-opacity:1; 
stroke-linecap:round; stroke-linejoin:round;">
</g>
<g style="fill:#008484; fill-opacity:0.0; 
stroke:#008484; stroke-width:80; stroke-opacity:1; 
stroke-linecap:round; stroke-linejoin:round;">
<path d="M85820 60270
L85840 60250
L85890 60230
L86010 60230
L86050 60250
L86080 60270
L86100 60320
L86100 60370
L86080 60440
L85790 60730
L86100 60730
" />
<path d="M86410 60230
L86460 60230
L86510 60250
L86530 60270
L86560 60320
L86580 60420
L86580 60540
L86560 60630
L86530 60680
L86510 60700
L86460 60730
L86410 60730
L86370 60700
L86340 60680
L86320 60630
L86300 60540
L86300 60420
L86320 60320
L86340 60270
L86370 60250
L86410 60230
" />
<path d="M86890 60230
L86940 60230
L86990 60250
L87010 60270
L87040 60320
L87060 60420
L87060 60540
L87040 60630
L87010 60680
L86990 60700
L86940 60730
L86890 60730
L86850 60700
L86820 60680
L86800 60630
L86780 60540
L86780 60420
L86800 60320
L86820 60270
L86850 60250
L86890 60230
" />
<path d="M87280 60730
L87280 60390
" />
<path d="M87280 60440
L87300 60420
L87350 60390
L87420 60390
L87470 60420
L87490 60460
L87490 60730
" />
<path d="M87490 60460
L87520 60420
L87560 60390
L87640 60390
L87680 60420
L87710 60460
L87710 60730
" />
<path d="M87930 60580
L88160 60580
" />
<path d="M87880 60730
L88040 60230
L88210 60730
" />
<path d="M88550 60460
L88380 60460
" />
<path d="M88380 60730
L88380 60230
L88620 60230
" />
</g>
<g style="fill:#008484; fill-opacity:0.0; 
stroke:#008484; stroke-width:100; stroke-opacity:1; 
stroke-linecap:round; stroke-linejoin:round;">
</g>
<g style="fill:#0000C2; fill-opacity:0.0; 
stroke:#0000C2; stroke-width:100; stroke-opacity:1; 
stroke-linecap:round; stroke-linejoin:round;">
</g>
<g style="fill:#0000C2; fill-opacity:0.0; 
stroke:#0000C2; stroke-width:100; stroke-opacity:1; 
stroke-linecap:round; stroke-linejoin:round;stroke-dasharray:96.8504,198.425;">
<path d="M99200 65800
L99200 37300
" />
</g>
<g style="fill:#0000C2; fill-opacity:0.0; 
stroke:#0000C2; stroke-width:100; stroke-opacity:1; 
stroke-linecap:round; stroke-linejoin:round;">
</g>
<g style="fill:#008400; fill-opacity:0.0; 
stroke:#008400; stroke-width:100; stroke-opacity:1; 
stroke-linecap:round; stroke-linejoin:round;">
<path d="M15500 37800
L98700 37800
" />
<path d="M98700 37800
L98700 65300
" />
<path d="M98700 65300
L74200 65300
" />
<path d="M74200 65300
L15600 65300
" />
</g>
<g style="fill:#008400; fill-opacity:0.0; 
stroke:#008400; stroke-width:0; stroke-opacity:1; 
stroke-linecap:round; stroke-linejoin:round;">
</g>
<g style="fill:#840000; fill-opacity:0.0; 
stroke:#840000; stroke-width:0; stroke-opacity:1; 
stroke-linecap:round; stroke-linejoin:round;">
</g>
<g style="fill:#840000; fill-opacity:0.0; 
stroke:#840000; stroke-width:100; stroke-opacity:1; 
stroke-linecap:round; stroke-linejoin:round;">
<polyline fill="none;"
points="73950,70550
74450,70550
" /> 
<polyline fill="none;"
points="74150,70800
74250,70800
" /> 
<polyline fill="none;"
points="74200,70300
74200,69800
" /> 
<polyline fill="none;"
points="74700,70300
73700,70300
" /> 
</g>
<g style="fill:#840000; fill-opacity:0.0; 
stroke:#840000; stroke-width:0; stroke-opacity:1; 
stroke-linecap:round; stroke-linejoin:round;">
</g>
<g style="fill:#840000; fill-opacity:1.0; 
stroke:#840000; stroke-width:100; stroke-opacity:1; 
stroke-linecap:round; stroke-linejoin:round;">
<rect x="19700" y="52550" width="2000" height="500" rx="0" />
</g>
<g style="fill:#840000; fill-opacity:0.0; 
stroke:#840000; stroke-width:100; stroke-opacity:1; 
stroke-linecap:round; stroke-linejoin:round;">
<line x1="19700" y1="50550" x2="19700" y2="50550" />
</g>
<g style="fill:#840000; fill-opacity:1.0; 
stroke:#840000; stroke-width:100; stroke-opacity:1; 
stroke-linecap:round; stroke-linejoin:round;">
<rect x="19700" y="50550" width="2000" height="500" rx="0" />
</g>
<g style="fill:#840000; fill-opacity:0.0; 
stroke:#840000; stroke-width:100; stroke-opacity:1; 
stroke-linecap:round; stroke-linejoin:round;">
<path d="M21700 50800
L23700 50800
" />
</g>
<g style="fill:#840000; fill-opacity:0.0; 
stroke:#840000; stroke-width:80; stroke-opacity:1; 
stroke-linecap:round; stroke-linejoin:round;">
<path d="M22840 50680
L22560 50680
" />
<path d="M22700 50680
L22700 50180
L22650 50250
L22600 50300
L22560 50320
" />
</g>
<g style="fill:#840000; fill-opacity:0.0; 
stroke:#840000; stroke-width:100; stroke-opacity:1; 
stroke-linecap:round; stroke-linejoin:round;">
<path d="M21700 52800
L23700 52800
" />
</g>
<g style="fill:#840000; fill-opacity:0.0; 
stroke:#840000; stroke-width:80; stroke-opacity:1; 
stroke-linecap:round; stroke-linejoin:round;">
<path d="M22560 52220
L22580 52200
L22630 52180
L22750 52180
L22790 52200
L22820 52220
L22840 52270
L22840 52320
L22820 52390
L22530 52680
L22840 52680
" />
</g>
<g style="fill:#840000; fill-opacity:0.0; 
stroke:#840000; stroke-width:100; stroke-opacity:1; 
stroke-linecap:round; stroke-linejoin:round;">
</g>
<g style="fill:#840000; fill-opacity:0.0; 
stroke:#840000; stroke-width:0; stroke-opacity:1; 
stroke-linecap:round; stroke-linejoin:round;">
</g>
<g style="fill:#840000; fill-opacity:1.0; 
stroke:#840000; stroke-width:100; stroke-opacity:1; 
stroke-linecap:round; stroke-linejoin:round;">
<rect x="147700" y="52550" width="2000" height="500" rx="0" />
</g>
<g style="fill:#840000; fill-opacity:0.0; 
stroke:#840000; stroke-width:100; stroke-opacity:1; 
stroke-linecap:round; stroke-linejoin:round;">
<line x1="149700" y1="50550" x2="149700" y2="50550" />
</g>
<g style="fill:#840000; fill-opacity:1.0; 
stroke:#840000; stroke-width:100; stroke-opacity:1; 
stroke-linecap:round; stroke-linejoin:round;">
<rect x="147700" y="50550" width="2000" height="500" rx="0" />
</g>
<g style="fill:#840000; fill-opacity:0.0; 
stroke:#840000; stroke-width:100; stroke-opacity:1; 
stroke-linecap:round; stroke-linejoin:round;">
<path d="M147700 50800
L145700 50800
" />
</g>
<g style="fill:#840000; fill-opacity:0.0; 
stroke:#840000; stroke-width:80; stroke-opacity:1; 
stroke-linecap:round; stroke-linejoin:round;">
<path d="M146840 50680
L146560 50680
" />
<path d="M146700 50680
L146700 50180
L146650 50250
L146600 50300
L146560 50320
" />
</g>
<g style="fill:#840000; fill-opacity:0.0; 
stroke:#840000; stroke-width:100; stroke-opacity:1; 
stroke-linecap:round; stroke-linejoin:round;">
<path d="M147700 52800
L145700 52800
" />
</g>
<g style="fill:#840000; fill-opacity:0.0; 
stroke:#840000; stroke-width:80; stroke-opacity:1; 
stroke-linecap:round; stroke-linejoin:round;">
<path d="M146560 52220
L146580 52200
L146630 52180
L146750 52180
L146790 52200
L146820 52220
L146840 52270
L146840 52320
L146820 52390
L146530 52680
L146840 52680
" />
</g>
<g style="fill:#840000; fill-opacity:0.0; 
stroke:#840000; stroke-width:100; stroke-opacity:1; 
stroke-linecap:round; stroke-linejoin:round;">
</g>
<g style="fill:#008484; fill-opacity:0.0; 
stroke:#008484; stroke-width:100; stroke-opacity:1; 
stroke-linecap:round; stroke-linejoin:round;">
</g>
<g style="fill:#008484; fill-opacity:0.0; 
stroke:#008484; stroke-width:80; stroke-opacity:1; 
stroke-linecap:round; stroke-linejoin:round;">
<path d="M148550 49820
L148550 50170
L148530 50240
L148480 50290
L148410 50320
L148360 50320
" />
<path d="M148860 50270
L148880 50290
L148860 50320
L148840 50290
L148860 50270
L148860 50320
" />
<path d="M148770 49840
L148810 49820
L148930 49820
L148980 49840
L149000 49890
L149000 49940
L148980 49980
L148960 50010
L148910 50030
L148880 50050
L148860 50100
L148860 50130
" />
</g>
<g style="fill:#008484; fill-opacity:0.0; 
stroke:#008484; stroke-width:100; stroke-opacity:1; 
stroke-linecap:round; stroke-linejoin:round;">
</g>
<g style="fill:#008400; fill-opacity:0.0; 
stroke:#008400; stroke-width:100; stroke-opacity:1; 
stroke-linecap:round; stroke-linejoin:round;">
<path d="M70700 43800
L80700 43800
" />
<path d="M80700 43800
L85700 43800
" />
<path d="M70700 59800
L80700 59800
" />
<path d="M80700 59800
L85700 59800
" />
<path d="M80700 48800
L80700 43800
" />
</g>
<g style="fill:#008400; fill-opacity:0.0; 
stroke:#008400; stroke-width:0; stroke-opacity:1; 
stroke-linecap:round; stroke-linejoin:round;">
</g>
<g style="fill:#008400; fill-opacity:1.0; 
stroke:#008400; stroke-width:100; stroke-opacity:1; 
stroke-linecap:round; stroke-linejoin:round;">
<circle cx="80700" cy="43800" r="200" /> 
</g>
<g style="fill:#008400; fill-opacity:0.0; 
stroke:#008400; stroke-width:100; stroke-opacity:1; 
stroke-linecap:round; stroke-linejoin:round;">
<path d="M80700 54800
L80700 59800
" />
</g>
<g style="fill:#008400; fill-opacity:0.0; 
stroke:#008400; stroke-width:0; stroke-opacity:1; 
stroke-linecap:round; stroke-linejoin:round;">
</g>
<g style="fill:#008400; fill-opacity:1.0; 
stroke:#008400; stroke-width:100; stroke-opacity:1; 
stroke-linecap:round; stroke-linejoin:round;">
<circle cx="80700" cy="59800" r="200" /> 
</g>
<g style="fill:#008400; fill-opacity:0.0; 
stroke:#008400; stroke-width:100; stroke-opacity:1; 
stroke-linecap:round; stroke-linejoin:round;">
<path d="M62700 48800
L62700 51800
" />
<path d="M62700 51800
L62700 54800
" />
<path d="M62700 51800
L74200 51800
" />
<path d="M74200 51800
L77700 51800
" />
</g>
<g style="fill:#008400; fill-opacity:0.0; 
stroke:#008400; stroke-width:0; stroke-opacity:1; 
stroke-linecap:round; stroke-linejoin:round;">
</g>
<g style="fill:#008400; fill-opacity:1.0; 
stroke:#008400; stroke-width:100; stroke-opacity:1; 
stroke-linecap:round; stroke-linejoin:round;">
<circle cx="62700" cy="51800" r="200" /> 
</g>
<g style="fill:#008400; fill-opacity:0.0; 
stroke:#008400; stroke-width:100; stroke-opacity:1; 
stroke-linecap:round; stroke-linejoin:round;">
<path d="M62700 43800
L62700 45800
" />
<path d="M62700 59800
L62700 57800
" />
<path d="M50700 59800
L57700 59800
" />
<path d="M57700 59800
L62700 59800
" />
<path d="M62700 59800
L67700 59800
" />
<path d="M57700 50300
L57700 43800
" />
</g>
<g style="fill:#008400; fill-opacity:0.0; 
stroke:#008400; stroke-width:0; stroke-opacity:1; 
stroke-linecap:round; stroke-linejoin:round;">
</g>
<g style="fill:#008400; fill-opacity:1.0; 
stroke:#008400; stroke-width:100; stroke-opacity:1; 
stroke-linecap:round; stroke-linejoin:round;">
<circle cx="62700" cy="43800" r="200" /> 
</g>
<g style="fill:#008400; fill-opacity:0.0; 
stroke:#008400; stroke-width:100; stroke-opacity:1; 
stroke-linecap:round; stroke-linejoin:round;">
<path d="M57700 53300
L57700 59800
" />
</g>
<g style="fill:#008400; fill-opacity:0.0; 
stroke:#008400; stroke-width:0; stroke-opacity:1; 
stroke-linecap:round; stroke-linejoin:round;">
</g>
<g style="fill:#008400; fill-opacity:1.0; 
stroke:#008400; stroke-width:100; stroke-opacity:1; 
stroke-linecap:round; stroke-linejoin:round;">
<circle cx="62700" cy="59800" r="200" /> 
</g>
<g style="fill:#008400; fill-opacity:0.0; 
stroke:#008400; stroke-width:100; stroke-opacity:1; 
stroke-linecap:round; stroke-linejoin:round;">
<path d="M74200 51800
L74200 65300
" />
<path d="M74200 65300
L74200 67800
" />
<path d="M74200 67800
L74200 69800
" />
</g>
<g style="fill:#008400; fill-opacity:0.0; 
stroke:#008400; stroke-width:0; stroke-opacity:1; 
stroke-linecap:round; stroke-linejoin:round;">
</g>
<g style="fill:#008400; fill-opacity:1.0; 
stroke:#008400; stroke-width:100; stroke-opacity:1; 
stroke-linecap:round; stroke-linejoin:round;">
<circle cx="74200" cy="65300" r="200" /> 
</g>
<g style="fill:#008400; fill-opacity:1.0; 
stroke:#008400; stroke-width:0; stroke-opacity:1; 
stroke-linecap:round; stroke-linejoin:round;">
</g>
<g style="fill:#008400; fill-opacity:1.0; 
stroke:#008400; stroke-width:100; stroke-opacity:1; 
stroke-linecap:round; stroke-linejoin:round;">
<circle cx="74200" cy="51800" r="200" /> 
</g>
<g style="fill:#008400; fill-opacity:0.0; 
stroke:#008400; stroke-width:100; stroke-opacity:1; 
stroke-linecap:round; stroke-linejoin:round;">
<path d="M88700 43800
L94200 43800
" />
<path d="M94200 43800
L94200 49800
" />
<path d="M94200 49800
L123200 49800
" />
<path d="M88700 59800
L94200 59800
" />
<path d="M94200 59800
L94200 53800
" />
<path d="M94200 53800
L123200 53800
" />
</g>
<g style="fill:#008400; fill-opacity:0.0; 
stroke:#008400; stroke-width:0; stroke-opacity:1; 
stroke-linecap:round; stroke-linejoin:round;">
</g>
<g style="fill:#840000; fill-opacity:0.0; 
stroke:#840000; stroke-width:0; stroke-opacity:1; 
stroke-linecap:round; stroke-linejoin:round;">
</g>
<g style="fill:#840000; fill-opacity:0.0; 
stroke:#840000; stroke-width:100; stroke-opacity:1; 
stroke-linecap:round; stroke-linejoin:round;">
<path d="M126700 53299.1 A500 500 0.0 0 0 126201 52800 " />
<path d="M126201 53800 A500 500 0.0 0 0 126700 53300.9 " />
<path d="M126700 52299.1 A500 500 0.0 0 0 126201 51800 " />
<path d="M126201 52800 A500 500 0.0 0 0 126700 52300.9 " />
<path d="M126700 51299.1 A500 500 0.0 0 0 126201 50800 " />
<path d="M126201 51800 A500 500 0.0 0 0 126700 51300.9 " />
<path d="M126700 50299.1 A500 500 0.0 0 0 126201 49800 " />
<path d="M126201 50800 A500 500 0.0 0 0 126700 50300.9 " />
<path d="M128201 51800 A500 500 0.0 0 0 127700 52300.9 " />
<path d="M127700 52299.1 A500 500 0.0 0 0 128201 52800 " />
<path d="M128201 50800 A500 500 0.0 0 0 127700 51300.9 " />
<path d="M127700 51299.1 A500 500 0.0 0 0 128201 51800 " />
<path d="M128201 49800 A500 500 0.0 0 0 127700 50300.9 " />
<path d="M127700 50299.1 A500 500 0.0 0 0 128201 50800 " />
<path d="M128201 52800.1 A500 500 0.0 0 0 127710 53300.9 " />
<path d="M127710 53300.9 A500 500 0.0 0 0 128200 53799.9 " />
<polyline fill="none;"
points="126950,49800
126950,53800
" /> 
<polyline fill="none;"
points="127450,53800
127450,49800
" /> 
<path d="M126200 49800
L123200 49800
" />
</g>
<g style="fill:#840000; fill-opacity:0.0; 
stroke:#840000; stroke-width:80; stroke-opacity:1; 
stroke-linecap:round; stroke-linejoin:round;">
<path d="M124840 49680
L124560 49680
" />
<path d="M124700 49680
L124700 49180
L124650 49250
L124600 49300
L124560 49320
" />
</g>
<g style="fill:#840000; fill-opacity:0.0; 
stroke:#840000; stroke-width:100; stroke-opacity:1; 
stroke-linecap:round; stroke-linejoin:round;">
<path d="M126200 53800
L123200 53800
" />
</g>
<g style="fill:#840000; fill-opacity:0.0; 
stroke:#840000; stroke-width:80; stroke-opacity:1; 
stroke-linecap:round; stroke-linejoin:round;">
<path d="M124560 53220
L124580 53200
L124630 53180
L124750 53180
L124790 53200
L124820 53220
L124840 53270
L124840 53320
L124820 53390
L124530 53680
L124840 53680
" />
</g>
<g style="fill:#840000; fill-opacity:0.0; 
stroke:#840000; stroke-width:100; stroke-opacity:1; 
stroke-linecap:round; stroke-linejoin:round;">
<path d="M128200 53800
L131200 53800
" />
</g>
<g style="fill:#840000; fill-opacity:0.0; 
stroke:#840000; stroke-width:80; stroke-opacity:1; 
stroke-linecap:round; stroke-linejoin:round;">
<path d="M129530 53180
L129840 53180
L129670 53370
L129750 53370
L129790 53390
L129820 53410
L129840 53460
L129840 53580
L129820 53630
L129790 53650
L129750 53680
L129600 53680
L129560 53650
L129530 53630
" />
</g>
<g style="fill:#840000; fill-opacity:0.0; 
stroke:#840000; stroke-width:100; stroke-opacity:1; 
stroke-linecap:round; stroke-linejoin:round;">
<path d="M128200 49800
L131200 49800
" />
</g>
<g style="fill:#840000; fill-opacity:0.0; 
stroke:#840000; stroke-width:80; stroke-opacity:1; 
stroke-linecap:round; stroke-linejoin:round;">
<path d="M129790 49340
L129790 49680
" />
<path d="M129670 49150
L129560 49510
L129860 49510
" />
</g>
<g style="fill:#840000; fill-opacity:0.0; 
stroke:#840000; stroke-width:100; stroke-opacity:1; 
stroke-linecap:round; stroke-linejoin:round;">
</g>
<g style="fill:#008400; fill-opacity:0.0; 
stroke:#008400; stroke-width:100; stroke-opacity:1; 
stroke-linecap:round; stroke-linejoin:round;">
<path d="M23700 50800
L25700 50800
" />
<path d="M25700 50800
L25700 49800
" />
<path d="M25700 49800
L28600 49800
" />
<path d="M28600 49800
L29800 49800
" />
<path d="M23700 52800
L25700 52800
" />
<path d="M25700 52800
L25700 53800
" />
<path d="M131200 53800
L136500 53800
" />
<path d="M136500 53800
L143700 53800
" />
<path d="M143700 53800
L143700 52800
" />
<path d="M143700 52800
L145700 52800
" />
</g>
<g style="fill:#008400; fill-opacity:0.0; 
stroke:#008400; stroke-width:0; stroke-opacity:1; 
stroke-linecap:round; stroke-linejoin:round;">
</g>
<g style="fill:#840000; fill-opacity:0.0; 
stroke:#840000; stroke-width:0; stroke-opacity:1; 
stroke-linecap:round; stroke-linejoin:round;">
</g>
<g style="fill:#840000; fill-opacity:0.0; 
stroke:#840000; stroke-width:100; stroke-opacity:1; 
stroke-linecap:round; stroke-linejoin:round;">
<polyline fill="none;"
points="136500,52300
136500,51300
" /> 
</g>
<g style="fill:#840000; fill-opacity:0.0; 
stroke:#840000; stroke-width:80; stroke-opacity:1; 
stroke-linecap:round; stroke-linejoin:round;">
<polyline fill="none;"
points="137000,50800
136500,51800
136000,50800
137000,50800
" /> 
<polyline fill="none;"
points="136000,52000
136000,51800
137000,51800
137000,51600
" /> 
<polyline fill="none;"
points="136000,52800
137000,52800
136500,51800
136000,52800
" /> 
</g>
<g style="fill:#840000; fill-opacity:0.0; 
stroke:#840000; stroke-width:100; stroke-opacity:1; 
stroke-linecap:round; stroke-linejoin:round;">
<path d="M136500 51300
L136500 50300
" />
<path d="M136500 52300
L136500 53300
" />
</g>
<g style="fill:#008400; fill-opacity:0.0; 
stroke:#008400; stroke-width:100; stroke-opacity:1; 
stroke-linecap:round; stroke-linejoin:round;">
<path d="M136500 53300
L136500 53800
" />
</g>
<g style="fill:#008400; fill-opacity:0.0; 
stroke:#008400; stroke-width:0; stroke-opacity:1; 
stroke-linecap:round; stroke-linejoin:round;">
</g>
<g style="fill:#008400; fill-opacity:1.0; 
stroke:#008400; stroke-width:100; stroke-opacity:1; 
stroke-linecap:round; stroke-linejoin:round;">
<circle cx="136500" cy="53800" r="200" /> 
</g>
<g style="fill:#008400; fill-opacity:1.0; 
stroke:#008400; stroke-width:0; stroke-opacity:1; 
stroke-linecap:round; stroke-linejoin:round;">
</g>
<g style="fill:#840000; fill-opacity:1.0; 
stroke:#840000; stroke-width:0; stroke-opacity:1; 
stroke-linecap:round; stroke-linejoin:round;">
</g>
<g style="fill:#840000; fill-opacity:0.0; 
stroke:#840000; stroke-width:100; stroke-opacity:1; 
stroke-linecap:round; stroke-linejoin:round;">
<polyline fill="none;"
points="105200,53800
105200,52800
" /> 
<polyline fill="none;"
points="105200,52300
105200,51300
" /> 
<polyline fill="none;"
points="105200,50800
105200,49800
" /> 
<polyline fill="none;"
points="106200,48800
107200,48800
" /> 
<polyline fill="none;"
points="107200,54800
106200,54800
" /> 
<polyline fill="none;"
points="108700,54800
107700,54800
" /> 
<polyline fill="none;"
points="108700,48800
107700,48800
" /> 
<polyline fill="none;"
points="110200,54800
109200,54800
" /> 
<polyline fill="none;"
points="110200,48800
109200,48800
" /> 
<polyline fill="none;"
points="110700,54800
111700,54800
" /> 
<polyline fill="none;"
points="111700,48800
110700,48800
" /> 
<polyline fill="none;"
points="112200,54800
113200,54800
" /> 
<polyline fill="none;"
points="113200,48800
112200,48800
" /> 
<polyline fill="none;"
points="113700,54800
114700,54800
" /> 
<polyline fill="none;"
points="114700,48800
113700,48800
" /> 
<polyline fill="none;"
points="115200,54800
116200,54800
" /> 
<polyline fill="none;"
points="116200,48800
115200,48800
" /> 
<polyline fill="none;"
points="117200,53800
117200,52800
" /> 
<polyline fill="none;"
points="117200,52300
117200,51300
" /> 
<polyline fill="none;"
points="117200,50800
117200,49800
" /> 
<polyline fill="none;"
points="105200,49300
105200,48800
105700,48800
" /> 
<polyline fill="none;"
points="105700,54800
105200,54800
105200,54300
" /> 
<polyline fill="none;"
points="116700,54800
117200,54800
117200,54300
" /> 
<polyline fill="none;"
points="117200,49300
117200,48800
116700,48800
" /> 
<path d="M111200 54800
L111200 55800
" />
</g>
<g style="fill:#008484; fill-opacity:0.0; 
stroke:#008484; stroke-width:100; stroke-opacity:1; 
stroke-linecap:round; stroke-linejoin:round;">
</g>
<g style="fill:#008484; fill-opacity:0.0; 
stroke:#008484; stroke-width:80; stroke-opacity:1; 
stroke-linecap:round; stroke-linejoin:round;">
<path d="M111400 54300
L111430 54230
L111430 54110
L111400 54070
L111380 54040
L111330 54020
L111280 54020
L111240 54040
L111210 54070
L111190 54110
L111160 54210
L111140 54260
L111120 54280
L111070 54300
L111020 54300
L110970 54280
L110950 54260
L110930 54210
L110930 54090
L110950 54020
" />
<path d="M111430 53800
L110930 53800
" />
<path d="M111430 53590
L111160 53590
L111120 53610
L111090 53660
L111090 53730
L111120 53780
L111140 53800
" />
<path d="M111430 53350
L111090 53350
" />
<path d="M110930 53350
L110950 53370
L110970 53350
L110950 53330
L110930 53350
L110970 53350
" />
<path d="M111400 52920
L111430 52970
L111430 53060
L111400 53110
L111350 53130
L111160 53130
L111120 53110
L111090 53060
L111090 52970
L111120 52920
L111160 52900
L111210 52900
L111260 53130
" />
<path d="M111430 52610
L111400 52660
L111350 52680
L110930 52680
" />
<path d="M111430 52210
L110930 52210
" />
<path d="M111400 52210
L111430 52250
L111430 52350
L111400 52400
L111380 52420
L111330 52440
L111190 52440
L111140 52420
L111120 52400
L111090 52350
L111090 52250
L111120 52210
" />
</g>
<g style="fill:#008484; fill-opacity:0.0; 
stroke:#008484; stroke-width:100; stroke-opacity:1; 
stroke-linecap:round; stroke-linejoin:round;">
</g>
<g style="fill:#840000; fill-opacity:0.0; 
stroke:#840000; stroke-width:100; stroke-opacity:1; 
stroke-linecap:round; stroke-linejoin:round;">
</g>
<g style="fill:#840000; fill-opacity:0.0; 
stroke:#840000; stroke-width:80; stroke-opacity:1; 
stroke-linecap:round; stroke-linejoin:round;">
<path d="M111080 55160
L111080 55440
" />
<path d="M111080 55300
L110580 55300
L110650 55350
L110700 55400
L110720 55440
" />
</g>
<g style="fill:#840000; fill-opacity:0.0; 
stroke:#840000; stroke-width:100; stroke-opacity:1; 
stroke-linecap:round; stroke-linejoin:round;">
</g>
<g style="fill:#008484; fill-opacity:0.0; 
stroke:#008484; stroke-width:100; stroke-opacity:1; 
stroke-linecap:round; stroke-linejoin:round;">
</g>
<g style="fill:#008484; fill-opacity:0.0; 
stroke:#008484; stroke-width:80; stroke-opacity:1; 
stroke-linecap:round; stroke-linejoin:round;">
<path d="M111060 47570
L111060 47920
L111040 47990
L110990 48040
L110920 48070
L110870 48070
" />
<path d="M111370 48020
L111390 48040
L111370 48070
L111350 48040
L111370 48020
L111370 48070
" />
<path d="M111280 47590
L111320 47570
L111440 47570
L111490 47590
L111510 47640
L111510 47690
L111490 47730
L111470 47760
L111420 47780
L111390 47800
L111370 47850
L111370 47880
" />
</g>
<g style="fill:#008484; fill-opacity:0.0; 
stroke:#008484; stroke-width:100; stroke-opacity:1; 
stroke-linecap:round; stroke-linejoin:round;">
</g>
<g style="fill:#008400; fill-opacity:0.0; 
stroke:#008400; stroke-width:100; stroke-opacity:1; 
stroke-linecap:round; stroke-linejoin:round;">
<path d="M74200 67800
L111200 67800
" />
<path d="M111200 67800
L111200 55800
" />
</g>
<g style="fill:#008400; fill-opacity:0.0; 
stroke:#008400; stroke-width:0; stroke-opacity:1; 
stroke-linecap:round; stroke-linejoin:round;">
</g>
<g style="fill:#008400; fill-opacity:1.0; 
stroke:#008400; stroke-width:100; stroke-opacity:1; 
stroke-linecap:round; stroke-linejoin:round;">
<circle cx="74200" cy="67800" r="200" /> 
</g>
<g style="fill:#0000C2; fill-opacity:0.0; 
stroke:#0000C2; stroke-width:100; stroke-opacity:1; 
stroke-linecap:round; stroke-linejoin:round;">
<path d="M151870 55520
L150690 55520
L150690 55070
L150750 54960
L150810 54900
L150920 54840
L151090 54840
L151200 54900
L151260 54960
L151310 55070
L151310 55520
" />
<path d="M151820 53890
L151870 54000
L151870 54230
L151820 54340
L151710 54400
L151260 54400
L151140 54340
L151090 54230
L151090 54000
L151140 53890
L151260 53830
L151370 53830
L151480 54400
" />
<path d="M151870 53330
L151090 53330
" />
<path d="M151310 53330
L151200 53270
L151140 53220
L151090 53100
L151090 52990
" />
<path d="M151870 52600
L151090 52600
" />
<path d="M150690 52600
L150750 52660
L150810 52600
L150750 52540
L150690 52600
L150810 52600
" />
<path d="M151090 52040
L152270 52040
" />
<path d="M151140 52040
L151090 51930
L151090 51700
L151140 51590
L151200 51530
L151310 51480
L151650 51480
L151760 51530
L151820 51590
L151870 51700
L151870 51930
L151820 52040
" />
<path d="M151870 50970
L150690 50970
" />
<path d="M151870 50460
L151260 50460
L151140 50520
L151090 50630
L151090 50800
L151140 50910
L151200 50970
" />
<path d="M151820 49450
L151870 49560
L151870 49790
L151820 49900
L151710 49960
L151260 49960
L151140 49900
L151090 49790
L151090 49560
L151140 49450
L151260 49390
L151370 49390
L151480 49960
" />
<path d="M151870 48890
L151090 48890
" />
<path d="M151310 48890
L151200 48830
L151140 48780
L151090 48660
L151090 48550
" />
<path d="M151870 47650
L151260 47650
L151140 47710
L151090 47820
L151090 48050
L151140 48160
" />
<path d="M151820 47650
L151870 47770
L151870 48050
L151820 48160
L151710 48220
L151590 48220
L151480 48160
L151420 48050
L151420 47770
L151370 47650
" />
<path d="M151870 46920
L151820 47030
L151710 47090
L150690 47090
" />
<path d="M153640 55010
L152460 55010
" />
<path d="M153590 55010
L153640 55130
L153640 55350
L153590 55460
L153530 55520
L153420 55580
L153080 55580
L152970 55520
L152910 55460
L152860 55350
L152860 55130
L152910 55010
" />
<path d="M153590 54000
L153640 54110
L153640 54340
L153590 54450
L153480 54510
L153030 54510
L152910 54450
L152860 54340
L152860 54110
L152910 54000
L153030 53940
L153140 53940
L153250 54510
" />
<path d="M152860 53550
L153640 53270
L152860 52990
" />
<path d="M153640 52540
L152860 52540
" />
<path d="M152460 52540
L152520 52600
L152580 52540
L152520 52480
L152460 52540
L152580 52540
" />
<path d="M153590 51470
L153640 51590
L153640 51810
L153590 51920
L153530 51980
L153420 52040
L153080 52040
L152970 51980
L152910 51920
L152860 51810
L152860 51590
L152910 51470
" />
<path d="M153590 50520
L153640 50630
L153640 50860
L153590 50970
L153480 51030
L153030 51030
L152910 50970
L152860 50860
L152860 50630
L152910 50520
L153030 50460
L153140 50460
L153250 51030
" />
<path d="M18030 54840
L18090 54900
L18140 55070
L18140 55180
L18090 55350
L17980 55460
L17860 55520
L17640 55580
L17470 55580
L17240 55520
L17130 55460
L17020 55350
L16960 55180
L16960 55070
L17020 54900
L17080 54840
" />
<path d="M18140 54170
L18090 54280
L18030 54340
L17920 54400
L17580 54400
L17470 54340
L17410 54280
L17360 54170
L17360 54000
L17410 53890
L17470 53830
L17580 53780
L17920 53780
L18030 53830
L18090 53890
L18140 54000
L18140 54170
" />
<path d="M17360 53270
L18140 53270
" />
<path d="M17470 53270
L17410 53210
L17360 53100
L17360 52930
L17410 52820
L17530 52760
L18140 52760
" />
<path d="M17360 52370
L17360 51920
" />
<path d="M16960 52200
L17980 52200
L18090 52140
L18140 52030
L18140 51920
" />
<path d="M18140 51530
L17360 51530
" />
<path d="M17580 51530
L17470 51470
L17410 51420
L17360 51300
L17360 51190
" />
<path d="M18140 50630
L18090 50740
L18030 50800
L17920 50860
L17580 50860
L17470 50800
L17410 50740
L17360 50630
L17360 50460
L17410 50350
L17470 50290
L17580 50240
L17920 50240
L18030 50290
L18090 50350
L18140 50460
L18140 50630
" />
<path d="M18140 49560
L18090 49670
L17980 49730
L16960 49730
" />
<path d="M18140 48940
L18090 49050
L17980 49110
L16960 49110
" />
<path d="M18090 48040
L18140 48150
L18140 48380
L18090 48490
L17980 48550
L17530 48550
L17410 48490
L17360 48380
L17360 48150
L17410 48040
L17530 47980
L17640 47980
L17750 48550
" />
<path d="M18140 47480
L17360 47480
" />
<path d="M17580 47480
L17470 47420
L17410 47370
L17360 47250
L17360 47140
" />
</g>
<g style="fill:#0000C2; fill-opacity:0.0; 
stroke:#0000C2; stroke-width:0; stroke-opacity:1; 
stroke-linecap:round; stroke-linejoin:round;">
</g>
<g style="fill:#840000; fill-opacity:0.0; 
stroke:#840000; stroke-width:0; stroke-opacity:1; 
stroke-linecap:round; stroke-linejoin:round;">
</g>
<g style="fill:#840000; fill-opacity:0.0; 
stroke:#840000; stroke-width:100; stroke-opacity:1; 
stroke-linecap:round; stroke-linejoin:round;">
<polyline fill="none;"
points="28600,52300
28600,51300
" /> 
</g>
<g style="fill:#840000; fill-opacity:0.0; 
stroke:#840000; stroke-width:80; stroke-opacity:1; 
stroke-linecap:round; stroke-linejoin:round;">
<polyline fill="none;"
points="29100,50800
28600,51800
28100,50800
29100,50800
" /> 
<polyline fill="none;"
points="28100,52000
28100,51800
29100,51800
29100,51600
" /> 
<polyline fill="none;"
points="28100,52800
29100,52800
28600,51800
28100,52800
" /> 
</g>
<g style="fill:#840000; fill-opacity:0.0; 
stroke:#840000; stroke-width:100; stroke-opacity:1; 
stroke-linecap:round; stroke-linejoin:round;">
<path d="M28600 51300
L28600 50300
" />
<path d="M28600 52300
L28600 53300
" />
</g>
<g style="fill:#008400; fill-opacity:0.0; 
stroke:#008400; stroke-width:100; stroke-opacity:1; 
stroke-linecap:round; stroke-linejoin:round;">
<path d="M28600 49800
L28600 50300
" />
<path d="M28600 53800
L28600 53300
" />
</g>
<g style="fill:#0000C2; fill-opacity:0.0; 
stroke:#0000C2; stroke-width:100; stroke-opacity:1; 
stroke-linecap:round; stroke-linejoin:round;">
</g>
<g style="fill:#0000C2; fill-opacity:0.0; 
stroke:#0000C2; stroke-width:100; stroke-opacity:1; 
stroke-linecap:round; stroke-linejoin:round;stroke-dasharray:96.8504,198.425;">
<path d="M99200 37300
L15600 37300
" />
</g>
<g style="fill:#0000C2; fill-opacity:0.0; 
stroke:#0000C2; stroke-width:100; stroke-opacity:1; 
stroke-linecap:round; stroke-linejoin:round;">
</g>
<g style="fill:#0000C2; fill-opacity:0.0; 
stroke:#0000C2; stroke-width:100; stroke-opacity:1; 
stroke-linecap:round; stroke-linejoin:round;stroke-dasharray:96.8504,198.425;">
<path d="M15600 65800
L99200 65800
" />
</g>
<g style="fill:#0000C2; fill-opacity:0.0; 
stroke:#0000C2; stroke-width:100; stroke-opacity:1; 
stroke-linecap:round; stroke-linejoin:round;">
<path d="M55640 61570
L55640 60970
L55790 60970
L55870 61000
L55930 61060
L55960 61110
L55990 61230
L55990 61310
L55960 61430
L55930 61490
L55870 61540
L55790 61570
L55640 61570
" />
<path d="M56240 61570
L56240 61170
" />
<path d="M56240 60970
L56210 61000
L56240 61030
L56270 61000
L56240 60970
L56240 61030
" />
<path d="M56620 61570
L56560 61540
L56530 61510
L56500 61460
L56500 61290
L56530 61230
L56560 61200
L56620 61170
L56700 61170
L56760 61200
L56790 61230
L56820 61290
L56820 61460
L56790 61510
L56760 61540
L56700 61570
L56620 61570
" />
<path d="M57330 61570
L57330 60970
" />
<path d="M57330 61540
L57270 61570
L57160 61570
L57100 61540
L57070 61510
L57040 61460
L57040 61290
L57070 61230
L57100 61200
L57160 61170
L57270 61170
L57330 61200
" />
<path d="M57840 61540
L57780 61570
L57670 61570
L57610 61540
L57580 61490
L57580 61260
L57610 61200
L57670 61170
L57780 61170
L57840 61200
L57870 61260
L57870 61310
L57580 61370
" />
<path d="M58090 61540
L58150 61570
L58270 61570
L58320 61540
L58350 61490
L58350 61460
L58320 61400
L58270 61370
L58180 61370
L58120 61340
L58090 61290
L58090 61260
L58120 61200
L58180 61170
L58270 61170
L58320 61200
" />
<path d="M58610 61510
L58640 61540
L58610 61570
L58580 61540
L58610 61510
L58610 61570
" />
<path d="M58610 61200
L58640 61230
L58610 61260
L58580 61230
L58610 61200
L58610 61260
" />
<path d="M59590 61540
L59530 61570
L59420 61570
L59360 61540
L59330 61490
L59330 61260
L59360 61200
L59420 61170
L59530 61170
L59590 61200
L59620 61260
L59620 61310
L59330 61370
" />
<path d="M59870 61510
L59900 61540
L59870 61570
L59840 61540
L59870 61510
L59870 61570
" />
<path d="M60420 61170
L60420 61660
L60390 61710
L60360 61740
L60310 61770
L60220 61770
L60160 61740
" />
<path d="M60420 61540
L60360 61570
L60250 61570
L60190 61540
L60160 61510
L60130 61460
L60130 61290
L60160 61230
L60190 61200
L60250 61170
L60360 61170
L60420 61200
" />
<path d="M60700 61510
L60730 61540
L60700 61570
L60670 61540
L60700 61510
L60700 61570
" />
<path d="M55960 62470
L55610 62470
" />
<path d="M55790 62470
L55790 61870
L55730 61960
L55670 62010
L55610 62040
" />
<path d="M56210 62410
L56240 62440
L56210 62470
L56180 62440
L56210 62410
L56210 62470
" />
<path d="M56790 61870
L56500 61870
L56470 62160
L56500 62130
L56560 62100
L56700 62100
L56760 62130
L56790 62160
L56820 62210
L56820 62360
L56790 62410
L56760 62440
L56700 62470
L56560 62470
L56500 62440
L56470 62410
" />
<path d="M57070 62470
L57070 61870
" />
<path d="M57420 62470
L57160 62130
" />
<path d="M57420 61870
L57070 62210
" />
<path d="M57670 62160
L57870 62160
" />
<path d="M57960 62470
L57670 62470
L57670 61870
L57960 61870
" />
<path d="M58530 62470
L58180 62470
" />
<path d="M58360 62470
L58360 61870
L58300 61960
L58240 62010
L58180 62040
" />
<path d="M58900 61870
L58950 61870
L59010 61900
L59040 61930
L59070 61990
L59100 62100
L59100 62240
L59070 62360
L59040 62410
L59010 62440
L58950 62470
L58900 62470
L58840 62440
L58810 62410
L58780 62360
L58750 62240
L58750 62100
L58780 61990
L58810 61930
L58840 61900
L58900 61870
" />
<path d="M59470 61870
L59520 61870
L59580 61900
L59610 61930
L59640 61990
L59670 62100
L59670 62240
L59640 62360
L59610 62410
L59580 62440
L59520 62470
L59470 62470
L59410 62440
L59380 62410
L59350 62360
L59320 62240
L59320 62100
L59350 61990
L59380 61930
L59410 61900
L59470 61870
" />
<path d="M60270 62410
L60240 62440
L60150 62470
L60090 62470
L60010 62440
L59950 62390
L59920 62330
L59890 62210
L59890 62130
L59920 62010
L59950 61960
L60010 61900
L60090 61870
L60150 61870
L60240 61900
L60270 61930
" />
<path d="M60490 62300
L60780 62300
" />
<path d="M60440 62470
L60640 61870
L60840 62470
" />
<path d="M61030 62410
L61060 62440
L61030 62470
L61000 62440
L61030 62410
L61030 62470
" />
<path d="M61030 62100
L61060 62130
L61030 62160
L61000 62130
L61030 62100
L61030 62160
" />
<path d="M57570 63030
L57510 63000
L57480 62970
L57450 62910
L57450 62890
L57480 62830
L57510 62800
L57570 62770
L57680 62770
L57740 62800
L57770 62830
L57800 62890
L57800 62910
L57770 62970
L57740 63000
L57680 63030
L57570 63030
L57510 63060
L57480 63090
L57450 63140
L57450 63260
L57480 63310
L57510 63340
L57570 63370
L57680 63370
L57740 63340
L57770 63310
L57800 63260
L57800 63140
L57770 63090
L57740 63060
L57680 63030
" />
<path d="M58340 62770
L58050 62770
L58020 63060
L58050 63030
L58110 63000
L58250 63000
L58310 63030
L58340 63060
L58370 63110
L58370 63260
L58340 63310
L58310 63340
L58250 63370
L58110 63370
L58050 63340
L58020 63310
" />
<path d="M58620 63310
L58650 63340
L58620 63370
L58590 63340
L58620 63310
L58620 63370
" />
<path d="M59200 62770
L58910 62770
L58880 63060
L58910 63030
L58970 63000
L59110 63000
L59170 63030
L59200 63060
L59230 63110
L59230 63260
L59200 63310
L59170 63340
L59110 63370
L58970 63370
L58910 63340
L58880 63310
" />
<path d="M59400 62770
L59600 63370
L59800 62770
" />
<path d="M60620 63600
L60600 63570
L60540 63490
L60510 63430
L60480 63340
L60450 63200
L60450 63090
L60480 62940
L60510 62860
L60540 62800
L60600 62710
L60620 62690
" />
<path d="M60820 63340
L60910 63370
L61050 63370
L61110 63340
L61140 63310
L61170 63260
L61170 63200
L61140 63140
L61110 63110
L61050 63090
L60940 63060
L60880 63030
L60850 63000
L60820 62940
L60820 62890
L60850 62830
L60880 62800
L60940 62770
L61080 62770
L61170 62800
" />
<path d="M61340 62970
L61570 62970
" />
<path d="M61420 62770
L61420 63290
L61450 63340
L61510 63370
L61570 63370
" />
<path d="M62020 63370
L62020 63060
L61990 63000
L61930 62970
L61820 62970
L61760 63000
" />
<path d="M62020 63340
L61960 63370
L61820 63370
L61760 63340
L61730 63290
L61730 63230
L61760 63170
L61820 63140
L61960 63140
L62020 63110
" />
<path d="M62300 62970
L62300 63370
" />
<path d="M62300 63030
L62330 63000
L62390 62970
L62470 62970
L62530 63000
L62560 63060
L62560 63370
" />
<path d="M63100 63370
L63100 62770
" />
<path d="M63100 63340
L63040 63370
L62930 63370
L62870 63340
L62840 63310
L62810 63260
L62810 63090
L62840 63030
L62870 63000
L62930 62970
L63040 62970
L63100 63000
" />
<path d="M63470 63370
L63410 63340
L63380 63310
L63350 63260
L63350 63090
L63380 63030
L63410 63000
L63470 62970
L63550 62970
L63610 63000
L63640 63030
L63670 63090
L63670 63260
L63640 63310
L63610 63340
L63550 63370
L63470 63370
" />
<path d="M63840 62970
L64070 62970
" />
<path d="M63920 63370
L63920 62860
L63950 62800
L64010 62770
L64070 62770
" />
<path d="M64180 62970
L64410 62970
" />
<path d="M64260 63370
L64260 62860
L64290 62800
L64350 62770
L64410 62770
" />
<path d="M64550 63600
L64570 63570
L64630 63490
L64660 63430
L64690 63340
L64720 63200
L64720 63090
L64690 62940
L64660 62860
L64630 62800
L64570 62710
L64550 62690
" />
<path d="M65030 63340
L65030 63370
L65000 63430
L64970 63460
" />
<path d="M57510 64270
L57630 64270
L57680 64240
L57710 64210
L57770 64130
L57800 64010
L57800 63790
L57770 63730
L57740 63700
L57680 63670
L57570 63670
L57510 63700
L57480 63730
L57450 63790
L57450 63930
L57480 63990
L57510 64010
L57570 64040
L57680 64040
L57740 64010
L57770 63990
L57800 63930
" />
<path d="M58340 63670
L58050 63670
L58020 63960
L58050 63930
L58110 63900
L58250 63900
L58310 63930
L58340 63960
L58370 64010
L58370 64160
L58340 64210
L58310 64240
L58250 64270
L58110 64270
L58050 64240
L58020 64210
" />
<path d="M58620 64210
L58650 64240
L58620 64270
L58590 64240
L58620 64210
L58620 64270
" />
<path d="M59030 63670
L59080 63670
L59140 63700
L59170 63730
L59200 63790
L59230 63900
L59230 64040
L59200 64160
L59170 64210
L59140 64240
L59080 64270
L59030 64270
L58970 64240
L58940 64210
L58910 64160
L58880 64040
L58880 63900
L58910 63790
L58940 63730
L58970 63700
L59030 63670
" />
<path d="M59400 63670
L59600 64270
L59800 63670
" />
<path d="M60620 64500
L60600 64470
L60540 64390
L60510 64330
L60480 64240
L60450 64100
L60450 63990
L60480 63840
L60510 63760
L60540 63700
L60600 63610
L60620 63590
" />
<path d="M61050 63960
L61140 63990
L61170 64010
L61200 64070
L61200 64160
L61170 64210
L61140 64240
L61080 64270
L60850 64270
L60850 63670
L61050 63670
L61110 63700
L61140 63730
L61170 63790
L61170 63840
L61140 63900
L61110 63930
L61050 63960
L60850 63960
" />
<path d="M61450 64270
L61450 63870
" />
<path d="M61450 63990
L61480 63930
L61510 63900
L61570 63870
L61620 63870
" />
<path d="M62050 64240
L61990 64270
L61880 64270
L61820 64240
L61790 64190
L61790 63960
L61820 63900
L61880 63870
L61990 63870
L62050 63900
L62080 63960
L62080 64010
L61790 64070
" />
<path d="M62590 64270
L62590 63960
L62560 63900
L62500 63870
L62390 63870
L62330 63900
" />
<path d="M62590 64240
L62530 64270
L62390 64270
L62330 64240
L62300 64190
L62300 64130
L62330 64070
L62390 64040
L62530 64040
L62590 64010
" />
<path d="M62870 64270
L62870 63670
" />
<path d="M62930 64040
L63100 64270
" />
<path d="M63100 63870
L62870 64100
" />
<path d="M63620 64270
L63620 63670
" />
<path d="M63620 64240
L63560 64270
L63450 64270
L63390 64240
L63360 64210
L63330 64160
L63330 63990
L63360 63930
L63390 63900
L63450 63870
L63560 63870
L63620 63900
" />
<path d="M63990 64270
L63930 64240
L63900 64210
L63870 64160
L63870 63990
L63900 63930
L63930 63900
L63990 63870
L64070 63870
L64130 63900
L64160 63930
L64190 63990
L64190 64160
L64160 64210
L64130 64240
L64070 64270
L63990 64270
" />
<path d="M64390 63870
L64500 64270
L64610 63990
L64730 64270
L64840 63870
" />
<path d="M65070 63870
L65070 64270
" />
<path d="M65070 63930
L65100 63900
L65160 63870
L65240 63870
L65300 63900
L65330 63960
L65330 64270
" />
<path d="M65560 64500
L65580 64470
L65640 64390
L65670 64330
L65700 64240
L65730 64100
L65730 63990
L65700 63840
L65670 63760
L65640 63700
L65580 63610
L65560 63590
" />
<path d="M83160 50500
L83100 50470
L83010 50470
L82930 50500
L82870 50560
L82840 50610
L82810 50730
L82810 50810
L82840 50930
L82870 50990
L82930 51040
L83010 51070
L83070 51070
L83160 51040
L83190 51010
L83190 50810
L83070 50810
" />
<path d="M83700 51070
L83700 50760
L83670 50700
L83610 50670
L83500 50670
L83440 50700
" />
<path d="M83700 51040
L83640 51070
L83500 51070
L83440 51040
L83410 50990
L83410 50930
L83440 50870
L83500 50840
L83640 50840
L83700 50810
" />
<path d="M83950 51040
L84010 51070
L84130 51070
L84180 51040
L84210 50990
L84210 50960
L84180 50900
L84130 50870
L84040 50870
L83980 50840
L83950 50790
L83950 50760
L83980 50700
L84040 50670
L84130 50670
L84180 50700
" />
<path d="M85190 51070
L85190 50470
" />
<path d="M85190 51040
L85130 51070
L85020 51070
L84960 51040
L84930 51010
L84900 50960
L84900 50790
L84930 50730
L84960 50700
L85020 50670
L85130 50670
L85190 50700
" />
<path d="M85470 51070
L85470 50670
" />
<path d="M85470 50470
L85440 50500
L85470 50530
L85500 50500
L85470 50470
L85470 50530
" />
<path d="M85730 51040
L85790 51070
L85910 51070
L85960 51040
L85990 50990
L85990 50960
L85960 50900
L85910 50870
L85820 50870
L85760 50840
L85730 50790
L85730 50760
L85760 50700
L85820 50670
L85910 50670
L85960 50700
" />
<path d="M86510 51040
L86450 51070
L86340 51070
L86280 51040
L86250 51010
L86220 50960
L86220 50790
L86250 50730
L86280 50700
L86340 50670
L86450 50670
L86510 50700
" />
<path d="M86760 51070
L86760 50470
" />
<path d="M87020 51070
L87020 50760
L86990 50700
L86930 50670
L86850 50670
L86790 50700
L86760 50730
" />
<path d="M87560 51070
L87560 50760
L87530 50700
L87470 50670
L87360 50670
L87300 50700
" />
<path d="M87560 51040
L87500 51070
L87360 51070
L87300 51040
L87270 50990
L87270 50930
L87300 50870
L87360 50840
L87500 50840
L87560 50810
" />
<path d="M87840 51070
L87840 50670
" />
<path d="M87840 50790
L87870 50730
L87900 50700
L87960 50670
L88010 50670
" />
<path d="M88470 50670
L88470 51160
L88440 51210
L88410 51240
L88360 51270
L88270 51270
L88210 51240
" />
<path d="M88470 51040
L88410 51070
L88300 51070
L88240 51040
L88210 51010
L88180 50960
L88180 50790
L88210 50730
L88240 50700
L88300 50670
L88410 50670
L88470 50700
" />
<path d="M88980 51040
L88920 51070
L88810 51070
L88750 51040
L88720 50990
L88720 50760
L88750 50700
L88810 50670
L88920 50670
L88980 50700
L89010 50760
L89010 50810
L88720 50870
" />
<path d="M89640 50670
L89870 50670
" />
<path d="M89720 50470
L89720 50990
L89750 51040
L89810 51070
L89870 51070
" />
<path d="M90320 50670
L90320 51070
" />
<path d="M90060 50670
L90060 50990
L90090 51040
L90150 51070
L90230 51070
L90290 51040
L90320 51010
" />
<path d="M90600 51070
L90600 50470
" />
<path d="M90600 50700
L90660 50670
L90770 50670
L90830 50700
L90860 50730
L90890 50790
L90890 50960
L90860 51010
L90830 51040
L90770 51070
L90660 51070
L90600 51040
" />
<path d="M91370 51040
L91310 51070
L91200 51070
L91140 51040
L91110 50990
L91110 50760
L91140 50700
L91200 50670
L91310 50670
L91370 50700
L91400 50760
L91400 50810
L91110 50870
" />
<path d="M91650 51010
L91680 51040
L91650 51070
L91620 51040
L91650 51010
L91650 51070
" />
<path d="M91650 50700
L91680 50730
L91650 50760
L91620 50730
L91650 50700
L91650 50760
" />
<path d="M92630 51040
L92570 51070
L92460 51070
L92400 51040
L92370 50990
L92370 50760
L92400 50700
L92460 50670
L92570 50670
L92630 50700
L92660 50760
L92660 50810
L92370 50870
" />
<path d="M92910 51010
L92940 51040
L92910 51070
L92880 51040
L92910 51010
L92910 51070
" />
<path d="M93460 50670
L93460 51160
L93430 51210
L93400 51240
L93350 51270
L93260 51270
L93200 51240
" />
<path d="M93460 51040
L93400 51070
L93290 51070
L93230 51040
L93200 51010
L93170 50960
L93170 50790
L93200 50730
L93230 50700
L93290 50670
L93400 50670
L93460 50700
" />
<path d="M93740 51010
L93770 51040
L93740 51070
L93710 51040
L93740 51010
L93740 51070
" />
<path d="M82840 51660
L83040 51660
" />
<path d="M83130 51970
L82840 51970
L82840 51370
L83130 51370
" />
<path d="M83380 51570
L83380 52170
" />
<path d="M83380 51600
L83440 51570
L83550 51570
L83610 51600
L83640 51630
L83670 51690
L83670 51860
L83640 51910
L83610 51940
L83550 51970
L83440 51970
L83380 51940
" />
<path d="M84180 51940
L84120 51970
L84010 51970
L83950 51940
L83920 51910
L83890 51860
L83890 51690
L83920 51630
L83950 51600
L84010 51570
L84120 51570
L84180 51600
" />
<path d="M84520 51970
L84460 51940
L84430 51910
L84400 51860
L84400 51690
L84430 51630
L84460 51600
L84520 51570
L84600 51570
L84660 51600
L84690 51630
L84720 51690
L84720 51860
L84690 51910
L84660 51940
L84600 51970
L84520 51970
" />
<path d="M84940 51940
L85000 51970
L85120 51970
L85170 51940
L85200 51890
L85200 51860
L85170 51800
L85120 51770
L85030 51770
L84970 51740
L84940 51690
L84940 51660
L84970 51600
L85030 51570
L85120 51570
L85170 51600
" />
<path d="M85840 51370
L86180 51370
" />
<path d="M86010 51970
L86010 51370
" />
<path d="M86470 51630
L86410 51600
L86380 51570
L86350 51510
L86350 51490
L86380 51430
L86410 51400
L86470 51370
L86580 51370
L86640 51400
L86670 51430
L86700 51490
L86700 51510
L86670 51570
L86640 51600
L86580 51630
L86470 51630
L86410 51660
L86380 51690
L86350 51740
L86350 51860
L86380 51910
L86410 51940
L86470 51970
L86580 51970
L86640 51940
L86670 51910
L86700 51860
L86700 51740
L86670 51690
L86640 51660
L86580 51630
" />
<path d="M86900 51370
L87270 51370
L87070 51600
L87150 51600
L87210 51630
L87240 51660
L87270 51710
L87270 51860
L87240 51910
L87210 51940
L87150 51970
L86980 51970
L86920 51940
L86900 51910
" />
<path d="M87520 51740
L87980 51740
" />
<path d="M88230 51800
L88520 51800
" />
<path d="M88180 51970
L88380 51370
L88580 51970
" />
<path d="M88800 51970
L88920 51970
L88970 51940
L89000 51910
L89060 51830
L89090 51710
L89090 51490
L89060 51430
L89030 51400
L88970 51370
L88860 51370
L88800 51400
L88770 51430
L88740 51490
L88740 51630
L88770 51690
L88800 51710
L88860 51740
L88970 51740
L89030 51710
L89060 51690
L89090 51630
" />
<path d="M89460 51370
L89510 51370
L89570 51400
L89600 51430
L89630 51490
L89660 51600
L89660 51740
L89630 51860
L89600 51910
L89570 51940
L89510 51970
L89460 51970
L89400 51940
L89370 51910
L89340 51860
L89310 51740
L89310 51600
L89340 51490
L89370 51430
L89400 51400
L89460 51370
" />
<path d="M89860 51370
L90260 51970
" />
<path d="M90260 51370
L89860 51970
" />
<path d="M90480 51910
L90510 51940
L90480 51970
L90450 51940
L90480 51910
L90480 51970
" />
<path d="M90480 51600
L90510 51630
L90480 51660
L90450 51630
L90480 51600
L90480 51660
" />
<path d="M84710 52870
L84830 52870
L84880 52840
L84910 52810
L84970 52730
L85000 52610
L85000 52390
L84970 52330
L84940 52300
L84880 52270
L84770 52270
L84710 52300
L84680 52330
L84650 52390
L84650 52530
L84680 52590
L84710 52610
L84770 52640
L84880 52640
L84940 52610
L84970 52590
L85000 52530
" />
<path d="M85370 52270
L85420 52270
L85480 52300
L85510 52330
L85540 52390
L85570 52500
L85570 52640
L85540 52760
L85510 52810
L85480 52840
L85420 52870
L85370 52870
L85310 52840
L85280 52810
L85250 52760
L85220 52640
L85220 52500
L85250 52390
L85280 52330
L85310 52300
L85370 52270
" />
<path d="M85740 52270
L85940 52870
L86140 52270
" />
<path d="M86960 53100
L86940 53070
L86880 52990
L86850 52930
L86820 52840
L86790 52700
L86790 52590
L86820 52440
L86850 52360
L86880 52300
L86940 52210
L86960 52190
" />
<path d="M87190 52870
L87190 52270
L87340 52270
L87420 52300
L87480 52360
L87510 52410
L87540 52530
L87540 52610
L87510 52730
L87480 52790
L87420 52840
L87340 52870
L87190 52870
" />
<path d="M87790 52870
L87790 52470
" />
<path d="M87790 52270
L87760 52300
L87790 52330
L87820 52300
L87790 52270
L87790 52330
" />
<path d="M88050 52840
L88110 52870
L88230 52870
L88280 52840
L88310 52790
L88310 52760
L88280 52700
L88230 52670
L88140 52670
L88080 52640
L88050 52590
L88050 52560
L88080 52500
L88140 52470
L88230 52470
L88280 52500
" />
<path d="M88830 52840
L88770 52870
L88660 52870
L88600 52840
L88570 52810
L88540 52760
L88540 52590
L88570 52530
L88600 52500
L88660 52470
L88770 52470
L88830 52500
" />
<path d="M89080 52870
L89080 52270
" />
<path d="M89340 52870
L89340 52560
L89310 52500
L89250 52470
L89170 52470
L89110 52500
L89080 52530
" />
<path d="M89880 52870
L89880 52560
L89850 52500
L89790 52470
L89680 52470
L89620 52500
" />
<path d="M89880 52840
L89820 52870
L89680 52870
L89620 52840
L89590 52790
L89590 52730
L89620 52670
L89680 52640
L89820 52640
L89880 52610
" />
<path d="M90160 52870
L90160 52470
" />
<path d="M90160 52590
L90190 52530
L90220 52500
L90280 52470
L90330 52470
" />
<path d="M90790 52470
L90790 52960
L90760 53010
L90730 53040
L90680 53070
L90590 53070
L90530 53040
" />
<path d="M90790 52840
L90730 52870
L90620 52870
L90560 52840
L90530 52810
L90500 52760
L90500 52590
L90530 52530
L90560 52500
L90620 52470
L90730 52470
L90790 52500
" />
<path d="M91300 52840
L91240 52870
L91130 52870
L91070 52840
L91040 52790
L91040 52560
L91070 52500
L91130 52470
L91240 52470
L91300 52500
L91330 52560
L91330 52610
L91040 52670
" />
<path d="M91530 53100
L91550 53070
L91610 52990
L91640 52930
L91670 52840
L91700 52700
L91700 52590
L91670 52440
L91640 52360
L91610 52300
L91550 52210
L91530 52190
" />
<path d="M23740 55270
L23740 54670
L23890 54670
L23970 54700
L24030 54760
L24060 54810
L24090 54930
L24090 55010
L24060 55130
L24030 55190
L23970 55240
L23890 55270
L23740 55270
" />
<path d="M24340 55270
L24340 54870
" />
<path d="M24340 54670
L24310 54700
L24340 54730
L24370 54700
L24340 54670
L24340 54730
" />
<path d="M24720 55270
L24660 55240
L24630 55210
L24600 55160
L24600 54990
L24630 54930
L24660 54900
L24720 54870
L24800 54870
L24860 54900
L24890 54930
L24920 54990
L24920 55160
L24890 55210
L24860 55240
L24800 55270
L24720 55270
" />
<path d="M25430 55270
L25430 54670
" />
<path d="M25430 55240
L25370 55270
L25260 55270
L25200 55240
L25170 55210
L25140 55160
L25140 54990
L25170 54930
L25200 54900
L25260 54870
L25370 54870
L25430 54900
" />
<path d="M25940 55240
L25880 55270
L25770 55270
L25710 55240
L25680 55190
L25680 54960
L25710 54900
L25770 54870
L25880 54870
L25940 54900
L25970 54960
L25970 55010
L25680 55070
" />
<path d="M26220 55210
L26250 55240
L26220 55270
L26190 55240
L26220 55210
L26220 55270
" />
<path d="M26220 54900
L26250 54930
L26220 54960
L26190 54930
L26220 54900
L26220 54960
" />
<path d="M27200 55240
L27140 55270
L27030 55270
L26970 55240
L26940 55190
L26940 54960
L26970 54900
L27030 54870
L27140 54870
L27200 54900
L27230 54960
L27230 55010
L26940 55070
" />
<path d="M27480 55210
L27510 55240
L27480 55270
L27450 55240
L27480 55210
L27480 55270
" />
<path d="M28030 54870
L28030 55360
L28000 55410
L27970 55440
L27920 55470
L27830 55470
L27770 55440
" />
<path d="M28030 55240
L27970 55270
L27860 55270
L27800 55240
L27770 55210
L27740 55160
L27740 54990
L27770 54930
L27800 54900
L27860 54870
L27970 54870
L28030 54900
" />
<path d="M28310 55210
L28340 55240
L28310 55270
L28280 55240
L28310 55210
L28310 55270
" />
<path d="M24060 56170
L23710 56170
" />
<path d="M23890 56170
L23890 55570
L23830 55660
L23770 55710
L23710 55740
" />
<path d="M24310 56110
L24340 56140
L24310 56170
L24280 56140
L24310 56110
L24310 56170
" />
<path d="M24890 55570
L24600 55570
L24570 55860
L24600 55830
L24660 55800
L24800 55800
L24860 55830
L24890 55860
L24920 55910
L24920 56060
L24890 56110
L24860 56140
L24800 56170
L24660 56170
L24600 56140
L24570 56110
" />
<path d="M25170 56170
L25170 55570
" />
<path d="M25520 56170
L25260 55830
" />
<path d="M25520 55570
L25170 55910
" />
<path d="M25770 55860
L25970 55860
" />
<path d="M26060 56170
L25770 56170
L25770 55570
L26060 55570
" />
<path d="M26260 55570
L26630 55570
L26430 55800
L26510 55800
L26570 55830
L26600 55860
L26630 55910
L26630 56060
L26600 56110
L26570 56140
L26510 56170
L26340 56170
L26280 56140
L26260 56110
" />
<path d="M27140 55570
L27030 55570
L26970 55600
L26940 55630
L26880 55710
L26850 55830
L26850 56060
L26880 56110
L26910 56140
L26970 56170
L27080 56170
L27140 56140
L27170 56110
L27200 56060
L27200 55910
L27170 55860
L27140 55830
L27080 55800
L26970 55800
L26910 55830
L26880 55860
L26850 55910
" />
<path d="M27800 56110
L27770 56140
L27680 56170
L27620 56170
L27540 56140
L27480 56090
L27450 56030
L27420 55910
L27420 55830
L27450 55710
L27480 55660
L27540 55600
L27620 55570
L27680 55570
L27770 55600
L27800 55630
" />
<path d="M28020 56000
L28310 56000
" />
<path d="M27970 56170
L28170 55570
L28370 56170
" />
<path d="M28560 56110
L28590 56140
L28560 56170
L28530 56140
L28560 56110
L28560 56170
" />
<path d="M28560 55800
L28590 55830
L28560 55860
L28530 55830
L28560 55800
L28560 55860
" />
<path d="M25530 56470
L25900 56470
L25700 56700
L25780 56700
L25840 56730
L25870 56760
L25900 56810
L25900 56960
L25870 57010
L25840 57040
L25780 57070
L25610 57070
L25550 57040
L25530 57010
" />
<path d="M26270 56470
L26320 56470
L26380 56500
L26410 56530
L26440 56590
L26470 56700
L26470 56840
L26440 56960
L26410 57010
L26380 57040
L26320 57070
L26270 57070
L26210 57040
L26180 57010
L26150 56960
L26120 56840
L26120 56700
L26150 56590
L26180 56530
L26210 56500
L26270 56470
" />
<path d="M26720 57010
L26750 57040
L26720 57070
L26690 57040
L26720 57010
L26720 57070
" />
<path d="M27100 56730
L27040 56700
L27010 56670
L26980 56610
L26980 56590
L27010 56530
L27040 56500
L27100 56470
L27210 56470
L27270 56500
L27300 56530
L27330 56590
L27330 56610
L27300 56670
L27270 56700
L27210 56730
L27100 56730
L27040 56760
L27010 56790
L26980 56840
L26980 56960
L27010 57010
L27040 57040
L27100 57070
L27210 57070
L27270 57040
L27300 57010
L27330 56960
L27330 56840
L27300 56790
L27270 56760
L27210 56730
" />
<path d="M27500 56470
L27700 57070
L27900 56470
" />
<path d="M28720 57300
L28700 57270
L28640 57190
L28610 57130
L28580 57040
L28550 56900
L28550 56790
L28580 56640
L28610 56560
L28640 56500
L28700 56410
L28720 56390
" />
<path d="M28920 57040
L29010 57070
L29150 57070
L29210 57040
L29240 57010
L29270 56960
L29270 56900
L29240 56840
L29210 56810
L29150 56790
L29040 56760
L28980 56730
L28950 56700
L28920 56640
L28920 56590
L28950 56530
L28980 56500
L29040 56470
L29180 56470
L29270 56500
" />
<path d="M29440 56670
L29670 56670
" />
<path d="M29520 56470
L29520 56990
L29550 57040
L29610 57070
L29670 57070
" />
<path d="M30120 57070
L30120 56760
L30090 56700
L30030 56670
L29920 56670
L29860 56700
" />
<path d="M30120 57040
L30060 57070
L29920 57070
L29860 57040
L29830 56990
L29830 56930
L29860 56870
L29920 56840
L30060 56840
L30120 56810
" />
<path d="M30400 56670
L30400 57070
" />
<path d="M30400 56730
L30430 56700
L30490 56670
L30570 56670
L30630 56700
L30660 56760
L30660 57070
" />
<path d="M31200 57070
L31200 56470
" />
<path d="M31200 57040
L31140 57070
L31030 57070
L30970 57040
L30940 57010
L30910 56960
L30910 56790
L30940 56730
L30970 56700
L31030 56670
L31140 56670
L31200 56700
" />
<path d="M31570 57070
L31510 57040
L31480 57010
L31450 56960
L31450 56790
L31480 56730
L31510 56700
L31570 56670
L31650 56670
L31710 56700
L31740 56730
L31770 56790
L31770 56960
L31740 57010
L31710 57040
L31650 57070
L31570 57070
" />
<path d="M31940 56670
L32170 56670
" />
<path d="M32020 57070
L32020 56560
L32050 56500
L32110 56470
L32170 56470
" />
<path d="M32280 56670
L32510 56670
" />
<path d="M32360 57070
L32360 56560
L32390 56500
L32450 56470
L32510 56470
" />
<path d="M32650 57300
L32670 57270
L32730 57190
L32760 57130
L32790 57040
L32820 56900
L32820 56790
L32790 56640
L32760 56560
L32730 56500
L32670 56410
L32650 56390
" />
<path d="M33130 57040
L33130 57070
L33100 57130
L33070 57160
" />
<path d="M25530 57370
L25900 57370
L25700 57600
L25780 57600
L25840 57630
L25870 57660
L25900 57710
L25900 57860
L25870 57910
L25840 57940
L25780 57970
L25610 57970
L25550 57940
L25530 57910
" />
<path d="M26410 57570
L26410 57970
" />
<path d="M26270 57340
L26120 57770
L26500 57770
" />
<path d="M26720 57910
L26750 57940
L26720 57970
L26690 57940
L26720 57910
L26720 57970
" />
<path d="M26980 57430
L27010 57400
L27070 57370
L27210 57370
L27270 57400
L27300 57430
L27330 57490
L27330 57540
L27300 57630
L26960 57970
L27330 57970
" />
<path d="M27500 57370
L27700 57970
L27900 57370
" />
<path d="M28720 58200
L28700 58170
L28640 58090
L28610 58030
L28580 57940
L28550 57800
L28550 57690
L28580 57540
L28610 57460
L28640 57400
L28700 57310
L28720 57290
" />
<path d="M29150 57660
L29240 57690
L29270 57710
L29300 57770
L29300 57860
L29270 57910
L29240 57940
L29180 57970
L28950 57970
L28950 57370
L29150 57370
L29210 57400
L29240 57430
L29270 57490
L29270 57540
L29240 57600
L29210 57630
L29150 57660
L28950 57660
" />
<path d="M29550 57970
L29550 57570
" />
<path d="M29550 57690
L29580 57630
L29610 57600
L29670 57570
L29720 57570
" />
<path d="M30150 57940
L30090 57970
L29980 57970
L29920 57940
L29890 57890
L29890 57660
L29920 57600
L29980 57570
L30090 57570
L30150 57600
L30180 57660
L30180 57710
L29890 57770
" />
<path d="M30690 57970
L30690 57660
L30660 57600
L30600 57570
L30490 57570
L30430 57600
" />
<path d="M30690 57940
L30630 57970
L30490 57970
L30430 57940
L30400 57890
L30400 57830
L30430 57770
L30490 57740
L30630 57740
L30690 57710
" />
<path d="M30970 57970
L30970 57370
" />
<path d="M31030 57740
L31200 57970
" />
<path d="M31200 57570
L30970 57800
" />
<path d="M31720 57970
L31720 57370
" />
<path d="M31720 57940
L31660 57970
L31550 57970
L31490 57940
L31460 57910
L31430 57860
L31430 57690
L31460 57630
L31490 57600
L31550 57570
L31660 57570
L31720 57600
" />
<path d="M32090 57970
L32030 57940
L32000 57910
L31970 57860
L31970 57690
L32000 57630
L32030 57600
L32090 57570
L32170 57570
L32230 57600
L32260 57630
L32290 57690
L32290 57860
L32260 57910
L32230 57940
L32170 57970
L32090 57970
" />
<path d="M32490 57570
L32600 57970
L32710 57690
L32830 57970
L32940 57570
" />
<path d="M33170 57570
L33170 57970
" />
<path d="M33170 57630
L33200 57600
L33260 57570
L33340 57570
L33400 57600
L33430 57660
L33430 57970
" />
<path d="M33660 58200
L33680 58170
L33740 58090
L33770 58030
L33800 57940
L33830 57800
L33830 57690
L33800 57540
L33770 57460
L33740 57400
L33680 57310
L33660 57290
" />
</g>
<g style="fill:#0000C2; fill-opacity:0.0; 
stroke:#0000C2; stroke-width:0; stroke-opacity:1; 
stroke-linecap:round; stroke-linejoin:round;">
</g>
<g style="fill:#840000; fill-opacity:0.0; 
stroke:#840000; stroke-width:0; stroke-opacity:1; 
stroke-linecap:round; stroke-linejoin:round;">
</g>
<g style="fill:#840000; fill-opacity:0.0; 
stroke:#840000; stroke-width:100; stroke-opacity:1; 
stroke-linecap:round; stroke-linejoin:round;">
<rect x="30300" y="49500" width="2000" height="600" rx="0" />
<polyline fill="none;"
points="32300,49800
30300,49800
" /> 
<path d="M32300 49800
L32800 49800
" />
<path d="M30300 49800
L29800 49800
" />
</g>
<g style="fill:#008484; fill-opacity:0.0; 
stroke:#008484; stroke-width:100; stroke-opacity:1; 
stroke-linecap:round; stroke-linejoin:round;">
</g>
<g style="fill:#008484; fill-opacity:0.0; 
stroke:#008484; stroke-width:80; stroke-opacity:1; 
stroke-linecap:round; stroke-linejoin:round;">
<path d="M29920 50270
L29940 50250
L29990 50230
L30110 50230
L30150 50250
L30180 50270
L30200 50320
L30200 50370
L30180 50440
L29890 50730
L30200 50730
" />
<path d="M30510 50230
L30560 50230
L30610 50250
L30630 50270
L30660 50320
L30680 50420
L30680 50540
L30660 50630
L30630 50680
L30610 50700
L30560 50730
L30510 50730
L30470 50700
L30440 50680
L30420 50630
L30400 50540
L30400 50420
L30420 50320
L30440 50270
L30470 50250
L30510 50230
" />
<path d="M30990 50230
L31040 50230
L31090 50250
L31110 50270
L31140 50320
L31160 50420
L31160 50540
L31140 50630
L31110 50680
L31090 50700
L31040 50730
L30990 50730
L30950 50700
L30920 50680
L30900 50630
L30880 50540
L30880 50420
L30900 50320
L30920 50270
L30950 50250
L30990 50230
" />
<path d="M31380 50730
L31380 50390
" />
<path d="M31380 50440
L31400 50420
L31450 50390
L31520 50390
L31570 50420
L31590 50460
L31590 50730
" />
<path d="M31590 50460
L31620 50420
L31660 50390
L31740 50390
L31780 50420
L31810 50460
L31810 50730
" />
<path d="M32030 50580
L32260 50580
" />
<path d="M31980 50730
L32140 50230
L32310 50730
" />
<path d="M32650 50460
L32480 50460
" />
<path d="M32480 50730
L32480 50230
L32720 50230
" />
</g>
<g style="fill:#008484; fill-opacity:0.0; 
stroke:#008484; stroke-width:0; stroke-opacity:1; 
stroke-linecap:round; stroke-linejoin:round;">
</g>
<g style="fill:#008400; fill-opacity:0.0; 
stroke:#008400; stroke-width:0; stroke-opacity:1; 
stroke-linecap:round; stroke-linejoin:round;">
</g>
<g style="fill:#008400; fill-opacity:1.0; 
stroke:#008400; stroke-width:100; stroke-opacity:1; 
stroke-linecap:round; stroke-linejoin:round;">
<circle cx="28600" cy="49800" r="200" /> 
</g>
<g style="fill:#008400; fill-opacity:1.0; 
stroke:#008400; stroke-width:0; stroke-opacity:1; 
stroke-linecap:round; stroke-linejoin:round;">
</g>
<g style="fill:#840000; fill-opacity:1.0; 
stroke:#840000; stroke-width:0; stroke-opacity:1; 
stroke-linecap:round; stroke-linejoin:round;">
</g>
<g style="fill:#840000; fill-opacity:0.0; 
stroke:#840000; stroke-width:100; stroke-opacity:1; 
stroke-linecap:round; stroke-linejoin:round;">
<rect x="132800" y="49500" width="2000" height="600" rx="0" />
<polyline fill="none;"
points="134800,49800
132800,49800
" /> 
<path d="M134800 49800
L135300 49800
" />
<path d="M132800 49800
L132300 49800
" />
</g>
<g style="fill:#008484; fill-opacity:0.0; 
stroke:#008484; stroke-width:100; stroke-opacity:1; 
stroke-linecap:round; stroke-linejoin:round;">
</g>
<g style="fill:#008484; fill-opacity:0.0; 
stroke:#008484; stroke-width:80; stroke-opacity:1; 
stroke-linecap:round; stroke-linejoin:round;">
<path d="M132700 50730
L132420 50730
" />
<path d="M132560 50730
L132560 50230
L132510 50300
L132460 50350
L132420 50370
" />
<path d="M133160 50230
L132920 50230
L132900 50460
L132920 50440
L132970 50420
L133090 50420
L133130 50440
L133160 50460
L133180 50510
L133180 50630
L133160 50680
L133130 50700
L133090 50730
L132970 50730
L132920 50700
L132900 50680
" />
<path d="M133490 50230
L133540 50230
L133590 50250
L133610 50270
L133640 50320
L133660 50420
L133660 50540
L133640 50630
L133610 50680
L133590 50700
L133540 50730
L133490 50730
L133450 50700
L133420 50680
L133400 50630
L133380 50540
L133380 50420
L133400 50320
L133420 50270
L133450 50250
L133490 50230
" />
<path d="M133880 50730
L133880 50390
" />
<path d="M133880 50440
L133900 50420
L133950 50390
L134020 50390
L134070 50420
L134090 50460
L134090 50730
" />
<path d="M134090 50460
L134120 50420
L134160 50390
L134240 50390
L134280 50420
L134310 50460
L134310 50730
" />
<path d="M134530 50580
L134760 50580
" />
<path d="M134480 50730
L134640 50230
L134810 50730
" />
<path d="M135150 50460
L134980 50460
" />
<path d="M134980 50730
L134980 50230
L135220 50230
" />
</g>
<g style="fill:#008484; fill-opacity:0.0; 
stroke:#008484; stroke-width:100; stroke-opacity:1; 
stroke-linecap:round; stroke-linejoin:round;">
</g>
<g style="fill:#008400; fill-opacity:0.0; 
stroke:#008400; stroke-width:100; stroke-opacity:1; 
stroke-linecap:round; stroke-linejoin:round;">
<path d="M131200 49800
L132300 49800
" />
<path d="M135300 49800
L136500 49800
" />
<path d="M136500 49800
L143700 49800
" />
<path d="M136500 49800
L136500 50300
" />
<path d="M145700 50800
L143700 50800
" />
<path d="M143700 50800
L143700 49800
" />
</g>
<g style="fill:#008400; fill-opacity:0.0; 
stroke:#008400; stroke-width:0; stroke-opacity:1; 
stroke-linecap:round; stroke-linejoin:round;">
</g>
<g style="fill:#008400; fill-opacity:1.0; 
stroke:#008400; stroke-width:100; stroke-opacity:1; 
stroke-linecap:round; stroke-linejoin:round;">
<circle cx="136500" cy="49800" r="200" /> 
</g>
<g style="fill:#0000C2; fill-opacity:0.0; 
stroke:#0000C2; stroke-width:100; stroke-opacity:1; 
stroke-linecap:round; stroke-linejoin:round;">
<path d="M134940 55470
L134940 54870
L135090 54870
L135170 54900
L135230 54960
L135260 55010
L135290 55130
L135290 55210
L135260 55330
L135230 55390
L135170 55440
L135090 55470
L134940 55470
" />
<path d="M135540 55470
L135540 55070
" />
<path d="M135540 54870
L135510 54900
L135540 54930
L135570 54900
L135540 54870
L135540 54930
" />
<path d="M135920 55470
L135860 55440
L135830 55410
L135800 55360
L135800 55190
L135830 55130
L135860 55100
L135920 55070
L136000 55070
L136060 55100
L136090 55130
L136120 55190
L136120 55360
L136090 55410
L136060 55440
L136000 55470
L135920 55470
" />
<path d="M136630 55470
L136630 54870
" />
<path d="M136630 55440
L136570 55470
L136460 55470
L136400 55440
L136370 55410
L136340 55360
L136340 55190
L136370 55130
L136400 55100
L136460 55070
L136570 55070
L136630 55100
" />
<path d="M137140 55440
L137080 55470
L136970 55470
L136910 55440
L136880 55390
L136880 55160
L136910 55100
L136970 55070
L137080 55070
L137140 55100
L137170 55160
L137170 55210
L136880 55270
" />
<path d="M137420 55410
L137450 55440
L137420 55470
L137390 55440
L137420 55410
L137420 55470
" />
<path d="M137420 55100
L137450 55130
L137420 55160
L137390 55130
L137420 55100
L137420 55160
" />
<path d="M138400 55440
L138340 55470
L138230 55470
L138170 55440
L138140 55390
L138140 55160
L138170 55100
L138230 55070
L138340 55070
L138400 55100
L138430 55160
L138430 55210
L138140 55270
" />
<path d="M138680 55410
L138710 55440
L138680 55470
L138650 55440
L138680 55410
L138680 55470
" />
<path d="M139230 55070
L139230 55560
L139200 55610
L139170 55640
L139120 55670
L139030 55670
L138970 55640
" />
<path d="M139230 55440
L139170 55470
L139060 55470
L139000 55440
L138970 55410
L138940 55360
L138940 55190
L138970 55130
L139000 55100
L139060 55070
L139170 55070
L139230 55100
" />
<path d="M139510 55410
L139540 55440
L139510 55470
L139480 55440
L139510 55410
L139510 55470
" />
<path d="M135260 56370
L134910 56370
" />
<path d="M135090 56370
L135090 55770
L135030 55860
L134970 55910
L134910 55940
" />
<path d="M135510 56310
L135540 56340
L135510 56370
L135480 56340
L135510 56310
L135510 56370
" />
<path d="M136090 55770
L135800 55770
L135770 56060
L135800 56030
L135860 56000
L136000 56000
L136060 56030
L136090 56060
L136120 56110
L136120 56260
L136090 56310
L136060 56340
L136000 56370
L135860 56370
L135800 56340
L135770 56310
" />
<path d="M136370 56370
L136370 55770
" />
<path d="M136720 56370
L136460 56030
" />
<path d="M136720 55770
L136370 56110
" />
<path d="M136970 56060
L137170 56060
" />
<path d="M137260 56370
L136970 56370
L136970 55770
L137260 55770
" />
<path d="M137460 55770
L137830 55770
L137630 56000
L137710 56000
L137770 56030
L137800 56060
L137830 56110
L137830 56260
L137800 56310
L137770 56340
L137710 56370
L137540 56370
L137480 56340
L137460 56310
" />
<path d="M138340 55770
L138230 55770
L138170 55800
L138140 55830
L138080 55910
L138050 56030
L138050 56260
L138080 56310
L138110 56340
L138170 56370
L138280 56370
L138340 56340
L138370 56310
L138400 56260
L138400 56110
L138370 56060
L138340 56030
L138280 56000
L138170 56000
L138110 56030
L138080 56060
L138050 56110
" />
<path d="M139000 56310
L138970 56340
L138880 56370
L138820 56370
L138740 56340
L138680 56290
L138650 56230
L138620 56110
L138620 56030
L138650 55910
L138680 55860
L138740 55800
L138820 55770
L138880 55770
L138970 55800
L139000 55830
" />
<path d="M139220 56200
L139510 56200
" />
<path d="M139170 56370
L139370 55770
L139570 56370
" />
<path d="M139760 56310
L139790 56340
L139760 56370
L139730 56340
L139760 56310
L139760 56370
" />
<path d="M139760 56000
L139790 56030
L139760 56060
L139730 56030
L139760 56000
L139760 56060
" />
<path d="M136730 56670
L137100 56670
L136900 56900
L136980 56900
L137040 56930
L137070 56960
L137100 57010
L137100 57160
L137070 57210
L137040 57240
L136980 57270
L136810 57270
L136750 57240
L136730 57210
" />
<path d="M137470 56670
L137520 56670
L137580 56700
L137610 56730
L137640 56790
L137670 56900
L137670 57040
L137640 57160
L137610 57210
L137580 57240
L137520 57270
L137470 57270
L137410 57240
L137380 57210
L137350 57160
L137320 57040
L137320 56900
L137350 56790
L137380 56730
L137410 56700
L137470 56670
" />
<path d="M137920 57210
L137950 57240
L137920 57270
L137890 57240
L137920 57210
L137920 57270
" />
<path d="M138300 56930
L138240 56900
L138210 56870
L138180 56810
L138180 56790
L138210 56730
L138240 56700
L138300 56670
L138410 56670
L138470 56700
L138500 56730
L138530 56790
L138530 56810
L138500 56870
L138470 56900
L138410 56930
L138300 56930
L138240 56960
L138210 56990
L138180 57040
L138180 57160
L138210 57210
L138240 57240
L138300 57270
L138410 57270
L138470 57240
L138500 57210
L138530 57160
L138530 57040
L138500 56990
L138470 56960
L138410 56930
" />
<path d="M138700 56670
L138900 57270
L139100 56670
" />
<path d="M139920 57500
L139900 57470
L139840 57390
L139810 57330
L139780 57240
L139750 57100
L139750 56990
L139780 56840
L139810 56760
L139840 56700
L139900 56610
L139920 56590
" />
<path d="M140120 57240
L140210 57270
L140350 57270
L140410 57240
L140440 57210
L140470 57160
L140470 57100
L140440 57040
L140410 57010
L140350 56990
L140240 56960
L140180 56930
L140150 56900
L140120 56840
L140120 56790
L140150 56730
L140180 56700
L140240 56670
L140380 56670
L140470 56700
" />
<path d="M140640 56870
L140870 56870
" />
<path d="M140720 56670
L140720 57190
L140750 57240
L140810 57270
L140870 57270
" />
<path d="M141320 57270
L141320 56960
L141290 56900
L141230 56870
L141120 56870
L141060 56900
" />
<path d="M141320 57240
L141260 57270
L141120 57270
L141060 57240
L141030 57190
L141030 57130
L141060 57070
L141120 57040
L141260 57040
L141320 57010
" />
<path d="M141600 56870
L141600 57270
" />
<path d="M141600 56930
L141630 56900
L141690 56870
L141770 56870
L141830 56900
L141860 56960
L141860 57270
" />
<path d="M142400 57270
L142400 56670
" />
<path d="M142400 57240
L142340 57270
L142230 57270
L142170 57240
L142140 57210
L142110 57160
L142110 56990
L142140 56930
L142170 56900
L142230 56870
L142340 56870
L142400 56900
" />
<path d="M142770 57270
L142710 57240
L142680 57210
L142650 57160
L142650 56990
L142680 56930
L142710 56900
L142770 56870
L142850 56870
L142910 56900
L142940 56930
L142970 56990
L142970 57160
L142940 57210
L142910 57240
L142850 57270
L142770 57270
" />
<path d="M143140 56870
L143370 56870
" />
<path d="M143220 57270
L143220 56760
L143250 56700
L143310 56670
L143370 56670
" />
<path d="M143480 56870
L143710 56870
" />
<path d="M143560 57270
L143560 56760
L143590 56700
L143650 56670
L143710 56670
" />
<path d="M143850 57500
L143870 57470
L143930 57390
L143960 57330
L143990 57240
L144020 57100
L144020 56990
L143990 56840
L143960 56760
L143930 56700
L143870 56610
L143850 56590
" />
<path d="M144330 57240
L144330 57270
L144300 57330
L144270 57360
" />
<path d="M136730 57570
L137100 57570
L136900 57800
L136980 57800
L137040 57830
L137070 57860
L137100 57910
L137100 58060
L137070 58110
L137040 58140
L136980 58170
L136810 58170
L136750 58140
L136730 58110
" />
<path d="M137610 57770
L137610 58170
" />
<path d="M137470 57540
L137320 57970
L137700 57970
" />
<path d="M137920 58110
L137950 58140
L137920 58170
L137890 58140
L137920 58110
L137920 58170
" />
<path d="M138180 57630
L138210 57600
L138270 57570
L138410 57570
L138470 57600
L138500 57630
L138530 57690
L138530 57740
L138500 57830
L138160 58170
L138530 58170
" />
<path d="M138700 57570
L138900 58170
L139100 57570
" />
<path d="M139920 58400
L139900 58370
L139840 58290
L139810 58230
L139780 58140
L139750 58000
L139750 57890
L139780 57740
L139810 57660
L139840 57600
L139900 57510
L139920 57490
" />
<path d="M140350 57860
L140440 57890
L140470 57910
L140500 57970
L140500 58060
L140470 58110
L140440 58140
L140380 58170
L140150 58170
L140150 57570
L140350 57570
L140410 57600
L140440 57630
L140470 57690
L140470 57740
L140440 57800
L140410 57830
L140350 57860
L140150 57860
" />
<path d="M140750 58170
L140750 57770
" />
<path d="M140750 57890
L140780 57830
L140810 57800
L140870 57770
L140920 57770
" />
<path d="M141350 58140
L141290 58170
L141180 58170
L141120 58140
L141090 58090
L141090 57860
L141120 57800
L141180 57770
L141290 57770
L141350 57800
L141380 57860
L141380 57910
L141090 57970
" />
<path d="M141890 58170
L141890 57860
L141860 57800
L141800 57770
L141690 57770
L141630 57800
" />
<path d="M141890 58140
L141830 58170
L141690 58170
L141630 58140
L141600 58090
L141600 58030
L141630 57970
L141690 57940
L141830 57940
L141890 57910
" />
<path d="M142170 58170
L142170 57570
" />
<path d="M142230 57940
L142400 58170
" />
<path d="M142400 57770
L142170 58000
" />
<path d="M142920 58170
L142920 57570
" />
<path d="M142920 58140
L142860 58170
L142750 58170
L142690 58140
L142660 58110
L142630 58060
L142630 57890
L142660 57830
L142690 57800
L142750 57770
L142860 57770
L142920 57800
" />
<path d="M143290 58170
L143230 58140
L143200 58110
L143170 58060
L143170 57890
L143200 57830
L143230 57800
L143290 57770
L143370 57770
L143430 57800
L143460 57830
L143490 57890
L143490 58060
L143460 58110
L143430 58140
L143370 58170
L143290 58170
" />
<path d="M143690 57770
L143800 58170
L143910 57890
L144030 58170
L144140 57770
" />
<path d="M144370 57770
L144370 58170
" />
<path d="M144370 57830
L144400 57800
L144460 57770
L144540 57770
L144600 57800
L144630 57860
L144630 58170
" />
<path d="M144860 58400
L144880 58370
L144940 58290
L144970 58230
L145000 58140
L145030 58000
L145030 57890
L145000 57740
L144970 57660
L144940 57600
L144880 57510
L144860 57490
" />
</g>
<g style="fill:#008400; fill-opacity:0.0; 
stroke:#008400; stroke-width:100; stroke-opacity:1; 
stroke-linecap:round; stroke-linejoin:round;">
<path d="M50700 43800
L57700 43800
" />
<path d="M57700 43800
L62700 43800
" />
<path d="M62700 43800
L67700 43800
" />
</g>
<g style="fill:#008400; fill-opacity:0.0; 
stroke:#008400; stroke-width:0; stroke-opacity:1; 
stroke-linecap:round; stroke-linejoin:round;">
</g>
<g style="fill:#840000; fill-opacity:0.0; 
stroke:#840000; stroke-width:0; stroke-opacity:1; 
stroke-linecap:round; stroke-linejoin:round;">
</g>
<g style="fill:#840000; fill-opacity:0.0; 
stroke:#840000; stroke-width:100; stroke-opacity:1; 
stroke-linecap:round; stroke-linejoin:round;">
<path d="M38200 53299.1 A500 500 0.0 0 0 37700.9 52800 " />
<path d="M37700.9 53800 A500 500 0.0 0 0 38200 53300.9 " />
<path d="M38200 52299.1 A500 500 0.0 0 0 37700.9 51800 " />
<path d="M37700.9 52800 A500 500 0.0 0 0 38200 52300.9 " />
<path d="M38200 51299.1 A500 500 0.0 0 0 37700.9 50800 " />
<path d="M37700.9 51800 A500 500 0.0 0 0 38200 51300.9 " />
<path d="M38200 50299.1 A500 500 0.0 0 0 37700.9 49800 " />
<path d="M37700.9 50800 A500 500 0.0 0 0 38200 50300.9 " />
<path d="M39700.9 51800 A500 500 0.0 0 0 39200 52300.9 " />
<path d="M39200 52299.1 A500 500 0.0 0 0 39700.9 52800 " />
<path d="M39700.9 50800 A500 500 0.0 0 0 39200 51300.9 " />
<path d="M39200 51299.1 A500 500 0.0 0 0 39700.9 51800 " />
<path d="M39700.9 49800 A500 500 0.0 0 0 39200 50300.9 " />
<path d="M39200 50299.1 A500 500 0.0 0 0 39700.9 50800 " />
<path d="M39701.3 52800.1 A500 500 0.0 0 0 39210 53300.9 " />
<path d="M39210 53300.9 A500 500 0.0 0 0 39699.5 53799.9 " />
<polyline fill="none;"
points="38450,49800
38450,53800
" /> 
<polyline fill="none;"
points="38950,53800
38950,49800
" /> 
<path d="M37700 49800
L34700 49800
" />
</g>
<g style="fill:#840000; fill-opacity:0.0; 
stroke:#840000; stroke-width:80; stroke-opacity:1; 
stroke-linecap:round; stroke-linejoin:round;">
<path d="M36340 49680
L36060 49680
" />
<path d="M36200 49680
L36200 49180
L36150 49250
L36100 49300
L36060 49320
" />
</g>
<g style="fill:#840000; fill-opacity:0.0; 
stroke:#840000; stroke-width:100; stroke-opacity:1; 
stroke-linecap:round; stroke-linejoin:round;">
<path d="M37700 53800
L34700 53800
" />
</g>
<g style="fill:#840000; fill-opacity:0.0; 
stroke:#840000; stroke-width:80; stroke-opacity:1; 
stroke-linecap:round; stroke-linejoin:round;">
<path d="M36060 53220
L36080 53200
L36130 53180
L36250 53180
L36290 53200
L36320 53220
L36340 53270
L36340 53320
L36320 53390
L36030 53680
L36340 53680
" />
</g>
<g style="fill:#840000; fill-opacity:0.0; 
stroke:#840000; stroke-width:100; stroke-opacity:1; 
stroke-linecap:round; stroke-linejoin:round;">
<path d="M39700 53800
L42700 53800
" />
</g>
<g style="fill:#840000; fill-opacity:0.0; 
stroke:#840000; stroke-width:80; stroke-opacity:1; 
stroke-linecap:round; stroke-linejoin:round;">
<path d="M41030 53180
L41340 53180
L41170 53370
L41250 53370
L41290 53390
L41320 53410
L41340 53460
L41340 53580
L41320 53630
L41290 53650
L41250 53680
L41100 53680
L41060 53650
L41030 53630
" />
</g>
<g style="fill:#840000; fill-opacity:0.0; 
stroke:#840000; stroke-width:100; stroke-opacity:1; 
stroke-linecap:round; stroke-linejoin:round;">
<path d="M39700 49800
L42700 49800
" />
</g>
<g style="fill:#840000; fill-opacity:0.0; 
stroke:#840000; stroke-width:80; stroke-opacity:1; 
stroke-linecap:round; stroke-linejoin:round;">
<path d="M41290 49340
L41290 49680
" />
<path d="M41170 49150
L41060 49510
L41360 49510
" />
</g>
<g style="fill:#840000; fill-opacity:0.0; 
stroke:#840000; stroke-width:100; stroke-opacity:1; 
stroke-linecap:round; stroke-linejoin:round;">
</g>
<g style="fill:#008400; fill-opacity:0.0; 
stroke:#008400; stroke-width:100; stroke-opacity:1; 
stroke-linecap:round; stroke-linejoin:round;">
<path d="M32800 49800
L34700 49800
" />
<path d="M25700 53800
L28600 53800
" />
<path d="M28600 53800
L34700 53800
" />
</g>
<g style="fill:#008400; fill-opacity:0.0; 
stroke:#008400; stroke-width:0; stroke-opacity:1; 
stroke-linecap:round; stroke-linejoin:round;">
</g>
<g style="fill:#008400; fill-opacity:1.0; 
stroke:#008400; stroke-width:100; stroke-opacity:1; 
stroke-linecap:round; stroke-linejoin:round;">
<circle cx="28600" cy="53800" r="200" /> 
</g>
<g style="fill:#008400; fill-opacity:0.0; 
stroke:#008400; stroke-width:100; stroke-opacity:1; 
stroke-linecap:round; stroke-linejoin:round;">
<path d="M42700 49800
L50700 49800
" />
<path d="M50700 49800
L50700 43800
" />
</g>
<g style="fill:#008400; fill-opacity:0.0; 
stroke:#008400; stroke-width:0; stroke-opacity:1; 
stroke-linecap:round; stroke-linejoin:round;">
</g>
<g style="fill:#008400; fill-opacity:1.0; 
stroke:#008400; stroke-width:100; stroke-opacity:1; 
stroke-linecap:round; stroke-linejoin:round;">
<circle cx="57700" cy="43800" r="200" /> 
</g>
<g style="fill:#008400; fill-opacity:0.0; 
stroke:#008400; stroke-width:100; stroke-opacity:1; 
stroke-linecap:round; stroke-linejoin:round;">
<path d="M42700 53800
L50700 53800
" />
<path d="M50700 53800
L50700 59800
" />
</g>
<g style="fill:#008400; fill-opacity:0.0; 
stroke:#008400; stroke-width:0; stroke-opacity:1; 
stroke-linecap:round; stroke-linejoin:round;">
</g>
<g style="fill:#008400; fill-opacity:1.0; 
stroke:#008400; stroke-width:100; stroke-opacity:1; 
stroke-linecap:round; stroke-linejoin:round;">
<circle cx="57700" cy="59800" r="200" /> 
</g>
<g style="fill:#0000C2; fill-opacity:0.0; 
stroke:#0000C2; stroke-width:100; stroke-opacity:1; 
stroke-linecap:round; stroke-linejoin:round;">
<path d="M102760 45360
L102700 45420
L102530 45470
L102420 45470
L102250 45420
L102140 45310
L102080 45190
L102020 44970
L102020 44800
L102080 44570
L102140 44460
L102250 44350
L102420 44290
L102530 44290
L102700 44350
L102760 44410
" />
<path d="M103770 45470
L103770 44860
L103710 44740
L103600 44690
L103370 44690
L103260 44740
" />
<path d="M103770 45420
L103650 45470
L103370 45470
L103260 45420
L103200 45310
L103200 45190
L103260 45080
L103370 45020
L103650 45020
L103770 44970
" />
<path d="M104330 45470
L104330 44290
" />
<path d="M104330 44740
L104440 44690
L104670 44690
L104780 44740
L104840 44800
L104890 44910
L104890 45250
L104840 45360
L104780 45420
L104670 45470
L104440 45470
L104330 45420
" />
<path d="M105570 45470
L105460 45420
L105400 45310
L105400 44290
" />
<path d="M106470 45420
L106360 45470
L106130 45470
L106020 45420
L105960 45310
L105960 44860
L106020 44740
L106130 44690
L106360 44690
L106470 44740
L106530 44860
L106530 44970
L105960 45080
" />
<path d="M107760 44690
L108210 44690
" />
<path d="M107930 44290
L107930 45310
L107990 45420
L108100 45470
L108210 45470
" />
<path d="M108770 45470
L108660 45420
L108600 45360
L108540 45250
L108540 44910
L108600 44800
L108660 44740
L108770 44690
L108940 44690
L109050 44740
L109110 44800
L109160 44910
L109160 45250
L109110 45360
L109050 45420
L108940 45470
L108770 45470
" />
<path d="M110570 44690
L110570 45870
" />
<path d="M110570 44740
L110680 44690
L110910 44690
L111020 44740
L111080 44800
L111130 44910
L111130 45250
L111080 45360
L111020 45420
L110910 45470
L110680 45470
L110570 45420
" />
<path d="M112090 45420
L111980 45470
L111750 45470
L111640 45420
L111580 45310
L111580 44860
L111640 44740
L111750 44690
L111980 44690
L112090 44740
L112150 44860
L112150 44970
L111580 45080
" />
<path d="M112650 45470
L112650 44690
" />
<path d="M112650 44910
L112710 44800
L112760 44740
L112880 44690
L112990 44690
" />
<path d="M113380 45470
L113380 44690
" />
<path d="M113380 44290
L113320 44350
L113380 44410
L113440 44350
L113380 44290
L113380 44410
" />
<path d="M113940 44690
L113940 45870
" />
<path d="M113940 44740
L114050 44690
L114280 44690
L114390 44740
L114450 44800
L114500 44910
L114500 45250
L114450 45360
L114390 45420
L114280 45470
L114050 45470
L113940 45420
" />
<path d="M115010 45470
L115010 44290
" />
<path d="M115520 45470
L115520 44860
L115460 44740
L115350 44690
L115180 44690
L115070 44740
L115010 44800
" />
<path d="M116530 45420
L116420 45470
L116190 45470
L116080 45420
L116020 45310
L116020 44860
L116080 44740
L116190 44690
L116420 44690
L116530 44740
L116590 44860
L116590 44970
L116020 45080
" />
<path d="M117090 45470
L117090 44690
" />
<path d="M117090 44910
L117150 44800
L117200 44740
L117320 44690
L117430 44690
" />
<path d="M118330 45470
L118330 44860
L118270 44740
L118160 44690
L117930 44690
L117820 44740
" />
<path d="M118330 45420
L118210 45470
L117930 45470
L117820 45420
L117760 45310
L117760 45190
L117820 45080
L117930 45020
L118210 45020
L118330 44970
" />
<path d="M119060 45470
L118950 45420
L118890 45310
L118890 44290
" />
<path d="M102420 47690
L102360 47640
L102250 47470
L102190 47360
L102140 47190
L102080 46910
L102080 46680
L102140 46400
L102190 46230
L102250 46120
L102360 45950
L102420 45900
" />
<path d="M102870 47240
L102870 46060
" />
<path d="M102870 46510
L102980 46460
L103210 46460
L103320 46510
L103380 46570
L103430 46680
L103430 47020
L103380 47130
L103320 47190
L103210 47240
L102980 47240
L102870 47190
" />
<path d="M104390 47190
L104280 47240
L104050 47240
L103940 47190
L103880 47080
L103880 46630
L103940 46510
L104050 46460
L104280 46460
L104390 46510
L104450 46630
L104450 46740
L103880 46850
" />
<path d="M104780 46460
L105230 46460
" />
<path d="M104950 46060
L104950 47080
L105010 47190
L105120 47240
L105230 47240
" />
<path d="M105510 46460
L105730 47240
L105960 46680
L106180 47240
L106410 46460
" />
<path d="M107310 47190
L107200 47240
L106970 47240
L106860 47190
L106800 47080
L106800 46630
L106860 46510
L106970 46460
L107200 46460
L107310 46510
L107370 46630
L107370 46740
L106800 46850
" />
<path d="M108320 47190
L108210 47240
L107980 47240
L107870 47190
L107810 47080
L107810 46630
L107870 46510
L107980 46460
L108210 46460
L108320 46510
L108380 46630
L108380 46740
L107810 46850
" />
<path d="M108880 46460
L108880 47240
" />
<path d="M108880 46570
L108940 46510
L109050 46460
L109220 46460
L109330 46510
L109390 46630
L109390 47240
" />
<path d="M111470 47240
L110790 47240
" />
<path d="M111130 47240
L111130 46060
L111020 46230
L110910 46340
L110790 46400
" />
<path d="M111970 47240
L111970 46460
" />
<path d="M111970 46570
L112030 46510
L112140 46460
L112310 46460
L112420 46510
L112480 46630
L112480 47240
" />
<path d="M112480 46630
L112530 46510
L112650 46460
L112810 46460
L112930 46510
L112980 46630
L112980 47240
" />
<path d="M114950 47240
L114950 46630
L114890 46510
L114780 46460
L114550 46460
L114440 46510
" />
<path d="M114950 47190
L114830 47240
L114550 47240
L114440 47190
L114380 47080
L114380 46960
L114440 46850
L114550 46790
L114830 46790
L114950 46740
" />
<path d="M115510 46460
L115510 47240
" />
<path d="M115510 46570
L115570 46510
L115680 46460
L115850 46460
L115960 46510
L116020 46630
L116020 47240
" />
<path d="M117090 47240
L117090 46060
" />
<path d="M117090 47190
L116970 47240
L116750 47240
L116640 47190
L116580 47130
L116520 47020
L116520 46680
L116580 46570
L116640 46510
L116750 46460
L116970 46460
L117090 46510
" />
<path d="M119170 47240
L118490 47240
" />
<path d="M118830 47240
L118830 46060
L118720 46230
L118610 46340
L118490 46400
" />
<path d="M120230 46060
L119670 46060
L119610 46630
L119670 46570
L119780 46510
L120060 46510
L120180 46570
L120230 46630
L120290 46740
L120290 47020
L120230 47130
L120180 47190
L120060 47240
L119780 47240
L119670 47190
L119610 47130
" />
<path d="M120790 47240
L120790 46460
" />
<path d="M120790 46570
L120850 46510
L120960 46460
L121130 46460
L121240 46510
L121300 46630
L121300 47240
" />
<path d="M121300 46630
L121350 46510
L121470 46460
L121630 46460
L121750 46510
L121800 46630
L121800 47240
" />
<path d="M122250 47690
L122300 47640
L122420 47470
L122470 47360
L122530 47190
L122590 46910
L122590 46680
L122530 46400
L122470 46230
L122420 46120
L122300 45950
L122250 45900
" />
<path d="M15550 67620
L15660 67660
L15850 67660
L15930 67620
L15960 67590
L16000 67510
L16000 67440
L15960 67360
L15930 67320
L15850 67290
L15700 67250
L15630 67210
L15590 67170
L15550 67100
L15550 67020
L15590 66950
L15630 66910
L15700 66870
L15890 66870
L16000 66910
" />
<path d="M16340 67660
L16340 66870
" />
<path d="M16680 67660
L16680 67250
L16640 67170
L16560 67140
L16450 67140
L16380 67170
L16340 67210
" />
<path d="M17050 67660
L17050 67140
" />
<path d="M17050 66870
L17010 66910
L17050 66950
L17090 66910
L17050 66870
L17050 66950
" />
<path d="M17730 67620
L17650 67660
L17500 67660
L17430 67620
L17390 67550
L17390 67250
L17430 67170
L17500 67140
L17650 67140
L17730 67170
L17770 67250
L17770 67320
L17390 67400
" />
<path d="M18220 67660
L18150 67620
L18110 67550
L18110 66870
" />
<path d="M18860 67660
L18860 66870
" />
<path d="M18860 67620
L18780 67660
L18630 67660
L18560 67620
L18520 67590
L18480 67510
L18480 67290
L18520 67210
L18560 67170
L18630 67140
L18780 67140
L18860 67170
" />
<path d="M19230 67660
L19230 67140
" />
<path d="M19230 66870
L19190 66910
L19230 66950
L19270 66910
L19230 66870
L19230 66950
" />
<path d="M19610 67140
L19610 67660
" />
<path d="M19610 67210
L19650 67170
L19720 67140
L19830 67140
L19910 67170
L19950 67250
L19950 67660
" />
<path d="M20660 67140
L20660 67780
L20620 67850
L20580 67890
L20510 67930
L20390 67930
L20320 67890
" />
<path d="M20660 67620
L20580 67660
L20430 67660
L20360 67620
L20320 67590
L20280 67510
L20280 67290
L20320 67210
L20360 67170
L20430 67140
L20580 67140
L20660 67170
" />
</g> 
</svg>
