<?xml version="1.0" standalone="no"?>
 <!DOCTYPE svg PUBLIC "-//W3C//DTD SVG 1.1//EN" 
 "http://www.w3.org/Graphics/SVG/1.1/DTD/svg11.dtd"> 
<svg xmlns="http://www.w3.org/2000/svg" version="1.1" 
    width="41.9989cm" height="29.7002cm" viewBox="0 0 165350 116930 ">
<title>SVG Picture created as surge-protect_comms-surge-protect_comms.svg date 2017/08/17 19:08:13 </title>
  <desc>Picture generated by Eeschema-SVG </desc>
<g style="fill:#000000; fill-opacity:1;stroke:#000000; stroke-opacity:1;
stroke-linecap:round; stroke-linejoin:round; "
 transform="translate(0 0) scale(1 1)">
</g>
<g style="fill:#000000; fill-opacity:0.0; 
stroke:#000000; stroke-width:0; stroke-opacity:1; 
stroke-linecap:round; stroke-linejoin:round;">
</g>
<g style="fill:#840000; fill-opacity:0.0; 
stroke:#840000; stroke-width:0; stroke-opacity:1; 
stroke-linecap:round; stroke-linejoin:round;">
</g>
<g style="fill:#840000; fill-opacity:0.0; 
stroke:#840000; stroke-width:100; stroke-opacity:1; 
stroke-linecap:round; stroke-linejoin:round;">
<polyline fill="none;"
points="60000,51500
60000,50500
" /> 
</g>
<g style="fill:#840000; fill-opacity:0.0; 
stroke:#840000; stroke-width:80; stroke-opacity:1; 
stroke-linecap:round; stroke-linejoin:round;">
<polyline fill="none;"
points="60500,50000
60000,51000
59500,50000
60500,50000
" /> 
<polyline fill="none;"
points="59500,51200
59500,51000
60500,51000
60500,50800
" /> 
<polyline fill="none;"
points="59500,52000
60500,52000
60000,51000
59500,52000
" /> 
</g>
<g style="fill:#840000; fill-opacity:0.0; 
stroke:#840000; stroke-width:100; stroke-opacity:1; 
stroke-linecap:round; stroke-linejoin:round;">
<path d="M60000 50500
L60000 49500
" />
<path d="M60000 51500
L60000 52500
" />
</g>
<g style="fill:#008484; fill-opacity:0.0; 
stroke:#008484; stroke-width:100; stroke-opacity:1; 
stroke-linecap:round; stroke-linejoin:round;">
</g>
<g style="fill:#008484; fill-opacity:0.0; 
stroke:#008484; stroke-width:80; stroke-opacity:1; 
stroke-linecap:round; stroke-linejoin:round;">
<path d="M59270 51340
L58770 51340
L58770 51220
L58790 51150
L58840 51100
L58890 51080
L58980 51060
L59050 51060
L59150 51080
L59190 51100
L59240 51150
L59270 51220
L59270 51340
" />
<path d="M59220 50770
L59240 50750
L59270 50770
L59240 50790
L59220 50770
L59270 50770
" />
<path d="M58790 50860
L58770 50820
L58770 50700
L58790 50650
L58840 50630
L58890 50630
L58930 50650
L58960 50670
L58980 50720
L59000 50750
L59050 50770
L59080 50770
" />
<path d="M60980 51500
L60960 51550
L60930 51570
L60890 51590
L60860 51590
L60810 51570
L60790 51550
L60770 51500
L60770 51400
L60790 51360
L60810 51330
L60860 51310
L60890 51310
L60930 51330
L60960 51360
L60980 51400
L60980 51500
L61000 51550
L61030 51570
L61080 51590
L61170 51590
L61220 51570
L61240 51550
L61270 51500
L61270 51400
L61240 51360
L61220 51330
L61170 51310
L61080 51310
L61030 51330
L61000 51360
L60980 51400
" />
<path d="M60810 51110
L60790 51090
L60770 51040
L60770 50920
L60790 50880
L60810 50850
L60860 50830
L60910 50830
L60980 50850
L61270 51140
L61270 50830
" />
<path d="M60770 50680
L61270 50520
L60770 50350
" />
</g>
<g style="fill:#008484; fill-opacity:0.0; 
stroke:#008484; stroke-width:0; stroke-opacity:1; 
stroke-linecap:round; stroke-linejoin:round;">
</g>
<g style="fill:#840000; fill-opacity:0.0; 
stroke:#840000; stroke-width:0; stroke-opacity:1; 
stroke-linecap:round; stroke-linejoin:round;">
</g>
<g style="fill:#840000; fill-opacity:0.0; 
stroke:#840000; stroke-width:100; stroke-opacity:1; 
stroke-linecap:round; stroke-linejoin:round;">
<polyline fill="none;"
points="60000,60500
60000,59500
" /> 
</g>
<g style="fill:#840000; fill-opacity:0.0; 
stroke:#840000; stroke-width:80; stroke-opacity:1; 
stroke-linecap:round; stroke-linejoin:round;">
<polyline fill="none;"
points="60500,59000
60000,60000
59500,59000
60500,59000
" /> 
<polyline fill="none;"
points="59500,60200
59500,60000
60500,60000
60500,59800
" /> 
<polyline fill="none;"
points="59500,61000
60500,61000
60000,60000
59500,61000
" /> 
</g>
<g style="fill:#840000; fill-opacity:0.0; 
stroke:#840000; stroke-width:100; stroke-opacity:1; 
stroke-linecap:round; stroke-linejoin:round;">
<path d="M60000 59500
L60000 58500
" />
<path d="M60000 60500
L60000 61500
" />
</g>
<g style="fill:#008484; fill-opacity:0.0; 
stroke:#008484; stroke-width:100; stroke-opacity:1; 
stroke-linecap:round; stroke-linejoin:round;">
</g>
<g style="fill:#008484; fill-opacity:0.0; 
stroke:#008484; stroke-width:80; stroke-opacity:1; 
stroke-linecap:round; stroke-linejoin:round;">
<path d="M59270 60340
L58770 60340
L58770 60220
L58790 60150
L58840 60100
L58890 60080
L58980 60060
L59050 60060
L59150 60080
L59190 60100
L59240 60150
L59270 60220
L59270 60340
" />
<path d="M59220 59770
L59240 59750
L59270 59770
L59240 59790
L59220 59770
L59270 59770
" />
<path d="M58790 59860
L58770 59820
L58770 59700
L58790 59650
L58840 59630
L58890 59630
L58930 59650
L58960 59670
L58980 59720
L59000 59750
L59050 59770
L59080 59770
" />
<path d="M60980 60500
L60960 60550
L60930 60570
L60890 60590
L60860 60590
L60810 60570
L60790 60550
L60770 60500
L60770 60400
L60790 60360
L60810 60330
L60860 60310
L60890 60310
L60930 60330
L60960 60360
L60980 60400
L60980 60500
L61000 60550
L61030 60570
L61080 60590
L61170 60590
L61220 60570
L61240 60550
L61270 60500
L61270 60400
L61240 60360
L61220 60330
L61170 60310
L61080 60310
L61030 60330
L61000 60360
L60980 60400
" />
<path d="M60810 60110
L60790 60090
L60770 60040
L60770 59920
L60790 59880
L60810 59850
L60860 59830
L60910 59830
L60980 59850
L61270 60140
L61270 59830
" />
<path d="M60770 59680
L61270 59520
L60770 59350
" />
</g>
<g style="fill:#008484; fill-opacity:0.0; 
stroke:#008484; stroke-width:0; stroke-opacity:1; 
stroke-linecap:round; stroke-linejoin:round;">
</g>
<g style="fill:#840000; fill-opacity:0.0; 
stroke:#840000; stroke-width:0; stroke-opacity:1; 
stroke-linecap:round; stroke-linejoin:round;">
</g>
<g style="fill:#840000; fill-opacity:0.0; 
stroke:#840000; stroke-width:100; stroke-opacity:1; 
stroke-linecap:round; stroke-linejoin:round;">
<polyline fill="none;"
points="55000,56000
55000,55000
" /> 
</g>
<g style="fill:#840000; fill-opacity:0.0; 
stroke:#840000; stroke-width:80; stroke-opacity:1; 
stroke-linecap:round; stroke-linejoin:round;">
<polyline fill="none;"
points="55500,54500
55000,55500
54500,54500
55500,54500
" /> 
<polyline fill="none;"
points="54500,55700
54500,55500
55500,55500
55500,55300
" /> 
<polyline fill="none;"
points="54500,56500
55500,56500
55000,55500
54500,56500
" /> 
</g>
<g style="fill:#840000; fill-opacity:0.0; 
stroke:#840000; stroke-width:100; stroke-opacity:1; 
stroke-linecap:round; stroke-linejoin:round;">
<path d="M55000 55000
L55000 54000
" />
<path d="M55000 56000
L55000 57000
" />
</g>
<g style="fill:#008484; fill-opacity:0.0; 
stroke:#008484; stroke-width:100; stroke-opacity:1; 
stroke-linecap:round; stroke-linejoin:round;">
</g>
<g style="fill:#008484; fill-opacity:0.0; 
stroke:#008484; stroke-width:80; stroke-opacity:1; 
stroke-linecap:round; stroke-linejoin:round;">
<path d="M54270 55840
L53770 55840
L53770 55720
L53790 55650
L53840 55600
L53890 55580
L53980 55560
L54050 55560
L54150 55580
L54190 55600
L54240 55650
L54270 55720
L54270 55840
" />
<path d="M54220 55270
L54240 55250
L54270 55270
L54240 55290
L54220 55270
L54270 55270
" />
<path d="M53790 55360
L53770 55320
L53770 55200
L53790 55150
L53840 55130
L53890 55130
L53930 55150
L53960 55170
L53980 55220
L54000 55250
L54050 55270
L54080 55270
" />
<path d="M55980 56000
L55960 56050
L55930 56070
L55890 56090
L55860 56090
L55810 56070
L55790 56050
L55770 56000
L55770 55900
L55790 55860
L55810 55830
L55860 55810
L55890 55810
L55930 55830
L55960 55860
L55980 55900
L55980 56000
L56000 56050
L56030 56070
L56080 56090
L56170 56090
L56220 56070
L56240 56050
L56270 56000
L56270 55900
L56240 55860
L56220 55830
L56170 55810
L56080 55810
L56030 55830
L56000 55860
L55980 55900
" />
<path d="M55810 55610
L55790 55590
L55770 55540
L55770 55420
L55790 55380
L55810 55350
L55860 55330
L55910 55330
L55980 55350
L56270 55640
L56270 55330
" />
<path d="M55770 55180
L56270 55020
L55770 54850
" />
</g>
<g style="fill:#008484; fill-opacity:0.0; 
stroke:#008484; stroke-width:0; stroke-opacity:1; 
stroke-linecap:round; stroke-linejoin:round;">
</g>
<g style="fill:#840000; fill-opacity:0.0; 
stroke:#840000; stroke-width:0; stroke-opacity:1; 
stroke-linecap:round; stroke-linejoin:round;">
</g>
<g style="fill:#840000; fill-opacity:0.0; 
stroke:#840000; stroke-width:100; stroke-opacity:1; 
stroke-linecap:round; stroke-linejoin:round;">
<rect x="65500" y="47100" width="2000" height="800" rx="0" />
<path d="M67500 47500
L68000 47500
" />
<path d="M65500 47500
L65000 47500
" />
</g>
<g style="fill:#008484; fill-opacity:0.0; 
stroke:#008484; stroke-width:100; stroke-opacity:1; 
stroke-linecap:round; stroke-linejoin:round;">
</g>
<g style="fill:#008484; fill-opacity:0.0; 
stroke:#008484; stroke-width:80; stroke-opacity:1; 
stroke-linecap:round; stroke-linejoin:round;">
<path d="M66440 46880
L66280 46640
" />
<path d="M66160 46880
L66160 46380
L66350 46380
L66400 46400
L66420 46420
L66440 46470
L66440 46540
L66420 46590
L66400 46610
L66350 46640
L66160 46640
" />
<path d="M66730 46830
L66750 46850
L66730 46880
L66710 46850
L66730 46830
L66730 46880
" />
<path d="M66640 46400
L66680 46380
L66800 46380
L66850 46400
L66870 46450
L66870 46500
L66850 46540
L66830 46570
L66780 46590
L66750 46610
L66730 46660
L66730 46690
" />
<path d="M66230 48340
L66230 48680
" />
<path d="M66110 48150
L66000 48510
L66300 48510
" />
<path d="M66500 48630
L66520 48650
L66500 48680
L66480 48650
L66500 48630
L66500 48680
" />
<path d="M66690 48180
L67020 48180
L66810 48680
" />
</g>
<g style="fill:#008484; fill-opacity:0.0; 
stroke:#008484; stroke-width:0; stroke-opacity:1; 
stroke-linecap:round; stroke-linejoin:round;">
</g>
<g style="fill:#840000; fill-opacity:0.0; 
stroke:#840000; stroke-width:0; stroke-opacity:1; 
stroke-linecap:round; stroke-linejoin:round;">
</g>
<g style="fill:#840000; fill-opacity:0.0; 
stroke:#840000; stroke-width:100; stroke-opacity:1; 
stroke-linecap:round; stroke-linejoin:round;">
<rect x="65500" y="63100" width="2000" height="800" rx="0" />
<path d="M67500 63500
L68000 63500
" />
<path d="M65500 63500
L65000 63500
" />
</g>
<g style="fill:#008484; fill-opacity:0.0; 
stroke:#008484; stroke-width:100; stroke-opacity:1; 
stroke-linecap:round; stroke-linejoin:round;">
</g>
<g style="fill:#008484; fill-opacity:0.0; 
stroke:#008484; stroke-width:80; stroke-opacity:1; 
stroke-linecap:round; stroke-linejoin:round;">
<path d="M66440 62880
L66280 62640
" />
<path d="M66160 62880
L66160 62380
L66350 62380
L66400 62400
L66420 62420
L66440 62470
L66440 62540
L66420 62590
L66400 62610
L66350 62640
L66160 62640
" />
<path d="M66730 62830
L66750 62850
L66730 62880
L66710 62850
L66730 62830
L66730 62880
" />
<path d="M66640 62400
L66680 62380
L66800 62380
L66850 62400
L66870 62450
L66870 62500
L66850 62540
L66830 62570
L66780 62590
L66750 62610
L66730 62660
L66730 62690
" />
<path d="M66230 64340
L66230 64680
" />
<path d="M66110 64150
L66000 64510
L66300 64510
" />
<path d="M66500 64630
L66520 64650
L66500 64680
L66480 64650
L66500 64630
L66500 64680
" />
<path d="M66690 64180
L67020 64180
L66810 64680
" />
</g>
<g style="fill:#008484; fill-opacity:0.0; 
stroke:#008484; stroke-width:0; stroke-opacity:1; 
stroke-linecap:round; stroke-linejoin:round;">
</g>
<g style="fill:#840000; fill-opacity:0.0; 
stroke:#840000; stroke-width:0; stroke-opacity:1; 
stroke-linecap:round; stroke-linejoin:round;">
</g>
<g style="fill:#840000; fill-opacity:1.0; 
stroke:#840000; stroke-width:100; stroke-opacity:1; 
stroke-linecap:round; stroke-linejoin:round;">
<circle cx="78600" cy="55500" r="100" /> 
</g>
<g style="fill:#840000; fill-opacity:0.0; 
stroke:#840000; stroke-width:100; stroke-opacity:1; 
stroke-linecap:round; stroke-linejoin:round;">
<circle cx="78000" cy="55500" r="1410" /> 
</g>
<g style="fill:#840000; fill-opacity:1.0; 
stroke:#840000; stroke-width:100; stroke-opacity:1; 
stroke-linecap:round; stroke-linejoin:round;">
<polyline style="fill-rule:evenodd;"
points="78500,54500
77500,54500
78000,55000
78500,54500
" /> 
<polyline style="fill-rule:evenodd;"
points="77500,56500
78000,56000
78500,56500
77500,56500
" /> 
<polyline style="fill-rule:evenodd;"
points="77000,55000
77000,56000
77500,55500
77000,55000
" /> 
</g>
<g style="fill:#840000; fill-opacity:0.0; 
stroke:#840000; stroke-width:100; stroke-opacity:1; 
stroke-linecap:round; stroke-linejoin:round;">
<path d="M78000 54500
L78000 52500
" />
</g>
<g style="fill:#840000; fill-opacity:0.0; 
stroke:#840000; stroke-width:80; stroke-opacity:1; 
stroke-linecap:round; stroke-linejoin:round;">
<path d="M77880 53360
L77880 53640
" />
<path d="M77880 53500
L77380 53500
L77450 53550
L77500 53600
L77520 53640
" />
</g>
<g style="fill:#840000; fill-opacity:0.0; 
stroke:#840000; stroke-width:100; stroke-opacity:1; 
stroke-linecap:round; stroke-linejoin:round;">
<path d="M77000 55500
L75000 55500
" />
</g>
<g style="fill:#840000; fill-opacity:0.0; 
stroke:#840000; stroke-width:80; stroke-opacity:1; 
stroke-linecap:round; stroke-linejoin:round;">
<path d="M75860 54920
L75880 54900
L75930 54880
L76050 54880
L76090 54900
L76120 54920
L76140 54970
L76140 55020
L76120 55090
L75830 55380
L76140 55380
" />
</g>
<g style="fill:#840000; fill-opacity:0.0; 
stroke:#840000; stroke-width:100; stroke-opacity:1; 
stroke-linecap:round; stroke-linejoin:round;">
<path d="M78000 56500
L78000 58500
" />
</g>
<g style="fill:#840000; fill-opacity:0.0; 
stroke:#840000; stroke-width:80; stroke-opacity:1; 
stroke-linecap:round; stroke-linejoin:round;">
<path d="M77380 57670
L77380 57360
L77570 57530
L77570 57450
L77590 57410
L77610 57380
L77660 57360
L77780 57360
L77830 57380
L77850 57410
L77880 57450
L77880 57600
L77850 57640
L77830 57670
" />
</g>
<g style="fill:#840000; fill-opacity:0.0; 
stroke:#840000; stroke-width:100; stroke-opacity:1; 
stroke-linecap:round; stroke-linejoin:round;">
</g>
<g style="fill:#008484; fill-opacity:0.0; 
stroke:#008484; stroke-width:100; stroke-opacity:1; 
stroke-linecap:round; stroke-linejoin:round;">
<path d="M80400 55250
L80340 55220
L80250 55220
L80170 55250
L80110 55310
L80080 55360
L80050 55480
L80050 55560
L80080 55680
L80110 55740
L80170 55790
L80250 55820
L80310 55820
L80400 55790
L80430 55760
L80430 55560
L80310 55560
" />
<path d="M80770 55760
L80800 55790
L80770 55820
L80740 55790
L80770 55760
L80770 55820
" />
<path d="M80650 55250
L80710 55220
L80850 55220
L80910 55250
L80940 55310
L80940 55360
L80910 55420
L80880 55450
L80830 55480
L80800 55510
L80770 55560
L80770 55590
" />
<path d="M80170 54420
L80170 54910
L80140 54960
L80110 54990
L80060 55020
L79970 55020
L79910 54990
" />
<path d="M80170 54790
L80110 54820
L80000 54820
L79940 54790
L79910 54760
L79880 54710
L79880 54540
L79910 54480
L79940 54450
L80000 54420
L80110 54420
L80170 54450
" />
<path d="M80710 54820
L80710 54220
" />
<path d="M80710 54790
L80650 54820
L80540 54820
L80480 54790
L80450 54760
L80420 54710
L80420 54540
L80450 54480
L80480 54450
L80540 54420
L80650 54420
L80710 54450
" />
<path d="M80910 54420
L81140 54420
" />
<path d="M80990 54220
L80990 54740
L81020 54790
L81080 54820
L81140 54820
" />
<path d="M81190 54880
L81650 54880
" />
<path d="M81740 54220
L82110 54220
L81910 54450
L81990 54450
L82050 54480
L82080 54510
L82110 54560
L82110 54710
L82080 54760
L82050 54790
L81990 54820
L81820 54820
L81760 54790
L81740 54760
" />
</g>
<g style="fill:#008484; fill-opacity:0.0; 
stroke:#008484; stroke-width:0; stroke-opacity:1; 
stroke-linecap:round; stroke-linejoin:round;">
</g>
<g style="fill:#840000; fill-opacity:0.0; 
stroke:#840000; stroke-width:0; stroke-opacity:1; 
stroke-linecap:round; stroke-linejoin:round;">
</g>
<g style="fill:#840000; fill-opacity:0.0; 
stroke:#840000; stroke-width:100; stroke-opacity:1; 
stroke-linecap:round; stroke-linejoin:round;">
<rect x="83500" y="47200" width="2000" height="600" rx="0" />
<polyline fill="none;"
points="85500,47500
83500,47500
" /> 
<path d="M85500 47500
L86000 47500
" />
<path d="M83500 47500
L83000 47500
" />
</g>
<g style="fill:#008484; fill-opacity:0.0; 
stroke:#008484; stroke-width:100; stroke-opacity:1; 
stroke-linecap:round; stroke-linejoin:round;">
</g>
<g style="fill:#008484; fill-opacity:0.0; 
stroke:#008484; stroke-width:80; stroke-opacity:1; 
stroke-linecap:round; stroke-linejoin:round;">
<path d="M84360 46610
L84190 46610
" />
<path d="M84190 46880
L84190 46380
L84430 46380
" />
<path d="M84690 46830
L84710 46850
L84690 46880
L84670 46850
L84690 46830
L84690 46880
" />
<path d="M84600 46400
L84640 46380
L84760 46380
L84810 46400
L84830 46450
L84830 46500
L84810 46540
L84790 46570
L84740 46590
L84710 46610
L84690 46660
L84690 46690
" />
<path d="M83400 48430
L83120 48430
" />
<path d="M83260 48430
L83260 47930
L83210 48000
L83160 48050
L83120 48070
" />
<path d="M83860 47930
L83620 47930
L83600 48160
L83620 48140
L83670 48120
L83790 48120
L83830 48140
L83860 48160
L83880 48210
L83880 48330
L83860 48380
L83830 48400
L83790 48430
L83670 48430
L83620 48400
L83600 48380
" />
<path d="M84190 47930
L84240 47930
L84290 47950
L84310 47970
L84340 48020
L84360 48120
L84360 48240
L84340 48330
L84310 48380
L84290 48400
L84240 48430
L84190 48430
L84150 48400
L84120 48380
L84100 48330
L84080 48240
L84080 48120
L84100 48020
L84120 47970
L84150 47950
L84190 47930
" />
<path d="M84580 48430
L84580 48090
" />
<path d="M84580 48140
L84600 48120
L84650 48090
L84720 48090
L84770 48120
L84790 48160
L84790 48430
" />
<path d="M84790 48160
L84820 48120
L84860 48090
L84940 48090
L84980 48120
L85010 48160
L85010 48430
" />
<path d="M85230 48280
L85460 48280
" />
<path d="M85180 48430
L85340 47930
L85510 48430
" />
<path d="M85850 48160
L85680 48160
" />
<path d="M85680 48430
L85680 47930
L85920 47930
" />
</g>
<g style="fill:#008484; fill-opacity:0.0; 
stroke:#008484; stroke-width:0; stroke-opacity:1; 
stroke-linecap:round; stroke-linejoin:round;">
</g>
<g style="fill:#840000; fill-opacity:0.0; 
stroke:#840000; stroke-width:0; stroke-opacity:1; 
stroke-linecap:round; stroke-linejoin:round;">
</g>
<g style="fill:#840000; fill-opacity:0.0; 
stroke:#840000; stroke-width:100; stroke-opacity:1; 
stroke-linecap:round; stroke-linejoin:round;">
<rect x="83500" y="63200" width="2000" height="600" rx="0" />
<polyline fill="none;"
points="85500,63500
83500,63500
" /> 
<path d="M85500 63500
L86000 63500
" />
<path d="M83500 63500
L83000 63500
" />
</g>
<g style="fill:#008484; fill-opacity:0.0; 
stroke:#008484; stroke-width:100; stroke-opacity:1; 
stroke-linecap:round; stroke-linejoin:round;">
</g>
<g style="fill:#008484; fill-opacity:0.0; 
stroke:#008484; stroke-width:80; stroke-opacity:1; 
stroke-linecap:round; stroke-linejoin:round;">
<path d="M84360 62610
L84190 62610
" />
<path d="M84190 62880
L84190 62380
L84430 62380
" />
<path d="M84690 62830
L84710 62850
L84690 62880
L84670 62850
L84690 62830
L84690 62880
" />
<path d="M84600 62400
L84640 62380
L84760 62380
L84810 62400
L84830 62450
L84830 62500
L84810 62540
L84790 62570
L84740 62590
L84710 62610
L84690 62660
L84690 62690
" />
<path d="M83400 64430
L83120 64430
" />
<path d="M83260 64430
L83260 63930
L83210 64000
L83160 64050
L83120 64070
" />
<path d="M83860 63930
L83620 63930
L83600 64160
L83620 64140
L83670 64120
L83790 64120
L83830 64140
L83860 64160
L83880 64210
L83880 64330
L83860 64380
L83830 64400
L83790 64430
L83670 64430
L83620 64400
L83600 64380
" />
<path d="M84190 63930
L84240 63930
L84290 63950
L84310 63970
L84340 64020
L84360 64120
L84360 64240
L84340 64330
L84310 64380
L84290 64400
L84240 64430
L84190 64430
L84150 64400
L84120 64380
L84100 64330
L84080 64240
L84080 64120
L84100 64020
L84120 63970
L84150 63950
L84190 63930
" />
<path d="M84580 64430
L84580 64090
" />
<path d="M84580 64140
L84600 64120
L84650 64090
L84720 64090
L84770 64120
L84790 64160
L84790 64430
" />
<path d="M84790 64160
L84820 64120
L84860 64090
L84940 64090
L84980 64120
L85010 64160
L85010 64430
" />
<path d="M85230 64280
L85460 64280
" />
<path d="M85180 64430
L85340 63930
L85510 64430
" />
<path d="M85850 64160
L85680 64160
" />
<path d="M85680 64430
L85680 63930
L85920 63930
" />
</g>
<g style="fill:#008484; fill-opacity:0.0; 
stroke:#008484; stroke-width:100; stroke-opacity:1; 
stroke-linecap:round; stroke-linejoin:round;">
</g>
<g style="fill:#0000C2; fill-opacity:0.0; 
stroke:#0000C2; stroke-width:100; stroke-opacity:1; 
stroke-linecap:round; stroke-linejoin:round;">
</g>
<g style="fill:#0000C2; fill-opacity:0.0; 
stroke:#0000C2; stroke-width:100; stroke-opacity:1; 
stroke-linecap:round; stroke-linejoin:round;stroke-dasharray:96.8504,198.425;">
<path d="M42000 41000
L42000 69500
" />
</g>
<g style="fill:#0000C2; fill-opacity:0.0; 
stroke:#0000C2; stroke-width:100; stroke-opacity:1; 
stroke-linecap:round; stroke-linejoin:round;">
</g>
<g style="fill:#0000C2; fill-opacity:0.0; 
stroke:#0000C2; stroke-width:100; stroke-opacity:1; 
stroke-linecap:round; stroke-linejoin:round;stroke-dasharray:96.8504,198.425;">
<path d="M96500 69500
L96500 41000
" />
</g>
<g style="fill:#0000C2; fill-opacity:0.0; 
stroke:#0000C2; stroke-width:100; stroke-opacity:1; 
stroke-linecap:round; stroke-linejoin:round;">
</g>
<g style="fill:#008400; fill-opacity:0.0; 
stroke:#008400; stroke-width:100; stroke-opacity:1; 
stroke-linecap:round; stroke-linejoin:round;">
<path d="M42500 41500
L96000 41500
" />
<path d="M96000 41500
L96000 69000
" />
<path d="M96000 69000
L71500 69000
" />
<path d="M71500 69000
L42500 69000
" />
<path d="M42500 69000
L42500 41500
" />
</g>
<g style="fill:#008400; fill-opacity:0.0; 
stroke:#008400; stroke-width:0; stroke-opacity:1; 
stroke-linecap:round; stroke-linejoin:round;">
</g>
<g style="fill:#840000; fill-opacity:0.0; 
stroke:#840000; stroke-width:0; stroke-opacity:1; 
stroke-linecap:round; stroke-linejoin:round;">
</g>
<g style="fill:#840000; fill-opacity:0.0; 
stroke:#840000; stroke-width:100; stroke-opacity:1; 
stroke-linecap:round; stroke-linejoin:round;">
<polyline fill="none;"
points="71250,74250
71750,74250
" /> 
<polyline fill="none;"
points="71450,74500
71550,74500
" /> 
<polyline fill="none;"
points="71500,74000
71500,73500
" /> 
<polyline fill="none;"
points="72000,74000
71000,74000
" /> 
</g>
<g style="fill:#840000; fill-opacity:0.0; 
stroke:#840000; stroke-width:0; stroke-opacity:1; 
stroke-linecap:round; stroke-linejoin:round;">
</g>
<g style="fill:#840000; fill-opacity:1.0; 
stroke:#840000; stroke-width:100; stroke-opacity:1; 
stroke-linecap:round; stroke-linejoin:round;">
<rect x="17000" y="56250" width="2000" height="500" rx="0" />
</g>
<g style="fill:#840000; fill-opacity:0.0; 
stroke:#840000; stroke-width:100; stroke-opacity:1; 
stroke-linecap:round; stroke-linejoin:round;">
<line x1="17000" y1="54250" x2="17000" y2="54250" />
</g>
<g style="fill:#840000; fill-opacity:1.0; 
stroke:#840000; stroke-width:100; stroke-opacity:1; 
stroke-linecap:round; stroke-linejoin:round;">
<rect x="17000" y="54250" width="2000" height="500" rx="0" />
</g>
<g style="fill:#840000; fill-opacity:0.0; 
stroke:#840000; stroke-width:100; stroke-opacity:1; 
stroke-linecap:round; stroke-linejoin:round;">
<path d="M19000 54500
L21000 54500
" />
</g>
<g style="fill:#840000; fill-opacity:0.0; 
stroke:#840000; stroke-width:80; stroke-opacity:1; 
stroke-linecap:round; stroke-linejoin:round;">
<path d="M20140 54380
L19860 54380
" />
<path d="M20000 54380
L20000 53880
L19950 53950
L19900 54000
L19860 54020
" />
</g>
<g style="fill:#840000; fill-opacity:0.0; 
stroke:#840000; stroke-width:100; stroke-opacity:1; 
stroke-linecap:round; stroke-linejoin:round;">
<path d="M19000 56500
L21000 56500
" />
</g>
<g style="fill:#840000; fill-opacity:0.0; 
stroke:#840000; stroke-width:80; stroke-opacity:1; 
stroke-linecap:round; stroke-linejoin:round;">
<path d="M19860 55920
L19880 55900
L19930 55880
L20050 55880
L20090 55900
L20120 55920
L20140 55970
L20140 56020
L20120 56090
L19830 56380
L20140 56380
" />
</g>
<g style="fill:#840000; fill-opacity:0.0; 
stroke:#840000; stroke-width:100; stroke-opacity:1; 
stroke-linecap:round; stroke-linejoin:round;">
</g>
<g style="fill:#008484; fill-opacity:0.0; 
stroke:#008484; stroke-width:100; stroke-opacity:1; 
stroke-linecap:round; stroke-linejoin:round;">
</g>
<g style="fill:#008484; fill-opacity:0.0; 
stroke:#008484; stroke-width:80; stroke-opacity:1; 
stroke-linecap:round; stroke-linejoin:round;">
<path d="M17860 53520
L17860 53870
L17840 53940
L17790 53990
L17720 54020
L17670 54020
" />
<path d="M18170 53970
L18190 53990
L18170 54020
L18150 53990
L18170 53970
L18170 54020
" />
<path d="M18080 53540
L18120 53520
L18240 53520
L18290 53540
L18310 53590
L18310 53640
L18290 53680
L18270 53710
L18220 53730
L18190 53750
L18170 53800
L18170 53830
" />
</g>
<g style="fill:#008484; fill-opacity:0.0; 
stroke:#008484; stroke-width:0; stroke-opacity:1; 
stroke-linecap:round; stroke-linejoin:round;">
</g>
<g style="fill:#840000; fill-opacity:0.0; 
stroke:#840000; stroke-width:0; stroke-opacity:1; 
stroke-linecap:round; stroke-linejoin:round;">
</g>
<g style="fill:#840000; fill-opacity:1.0; 
stroke:#840000; stroke-width:100; stroke-opacity:1; 
stroke-linecap:round; stroke-linejoin:round;">
<rect x="145000" y="56250" width="2000" height="500" rx="0" />
</g>
<g style="fill:#840000; fill-opacity:0.0; 
stroke:#840000; stroke-width:100; stroke-opacity:1; 
stroke-linecap:round; stroke-linejoin:round;">
<line x1="147000" y1="54250" x2="147000" y2="54250" />
</g>
<g style="fill:#840000; fill-opacity:1.0; 
stroke:#840000; stroke-width:100; stroke-opacity:1; 
stroke-linecap:round; stroke-linejoin:round;">
<rect x="145000" y="54250" width="2000" height="500" rx="0" />
</g>
<g style="fill:#840000; fill-opacity:0.0; 
stroke:#840000; stroke-width:100; stroke-opacity:1; 
stroke-linecap:round; stroke-linejoin:round;">
<path d="M145000 54500
L143000 54500
" />
</g>
<g style="fill:#840000; fill-opacity:0.0; 
stroke:#840000; stroke-width:80; stroke-opacity:1; 
stroke-linecap:round; stroke-linejoin:round;">
<path d="M144140 54380
L143860 54380
" />
<path d="M144000 54380
L144000 53880
L143950 53950
L143900 54000
L143860 54020
" />
</g>
<g style="fill:#840000; fill-opacity:0.0; 
stroke:#840000; stroke-width:100; stroke-opacity:1; 
stroke-linecap:round; stroke-linejoin:round;">
<path d="M145000 56500
L143000 56500
" />
</g>
<g style="fill:#840000; fill-opacity:0.0; 
stroke:#840000; stroke-width:80; stroke-opacity:1; 
stroke-linecap:round; stroke-linejoin:round;">
<path d="M143860 55920
L143880 55900
L143930 55880
L144050 55880
L144090 55900
L144120 55920
L144140 55970
L144140 56020
L144120 56090
L143830 56380
L144140 56380
" />
</g>
<g style="fill:#840000; fill-opacity:0.0; 
stroke:#840000; stroke-width:100; stroke-opacity:1; 
stroke-linecap:round; stroke-linejoin:round;">
</g>
<g style="fill:#008484; fill-opacity:0.0; 
stroke:#008484; stroke-width:100; stroke-opacity:1; 
stroke-linecap:round; stroke-linejoin:round;">
</g>
<g style="fill:#008484; fill-opacity:0.0; 
stroke:#008484; stroke-width:80; stroke-opacity:1; 
stroke-linecap:round; stroke-linejoin:round;">
<path d="M145850 53520
L145850 53870
L145830 53940
L145780 53990
L145710 54020
L145660 54020
" />
<path d="M146160 53970
L146180 53990
L146160 54020
L146140 53990
L146160 53970
L146160 54020
" />
<path d="M146070 53540
L146110 53520
L146230 53520
L146280 53540
L146300 53590
L146300 53640
L146280 53680
L146260 53710
L146210 53730
L146180 53750
L146160 53800
L146160 53830
" />
</g>
<g style="fill:#008484; fill-opacity:0.0; 
stroke:#008484; stroke-width:100; stroke-opacity:1; 
stroke-linecap:round; stroke-linejoin:round;">
</g>
<g style="fill:#008400; fill-opacity:0.0; 
stroke:#008400; stroke-width:100; stroke-opacity:1; 
stroke-linecap:round; stroke-linejoin:round;">
<path d="M68000 47500
L78000 47500
" />
<path d="M78000 47500
L83000 47500
" />
<path d="M68000 63500
L78000 63500
" />
<path d="M78000 63500
L83000 63500
" />
<path d="M78000 52500
L78000 47500
" />
</g>
<g style="fill:#008400; fill-opacity:0.0; 
stroke:#008400; stroke-width:0; stroke-opacity:1; 
stroke-linecap:round; stroke-linejoin:round;">
</g>
<g style="fill:#008400; fill-opacity:1.0; 
stroke:#008400; stroke-width:100; stroke-opacity:1; 
stroke-linecap:round; stroke-linejoin:round;">
<circle cx="78000" cy="47500" r="200" /> 
</g>
<g style="fill:#008400; fill-opacity:0.0; 
stroke:#008400; stroke-width:100; stroke-opacity:1; 
stroke-linecap:round; stroke-linejoin:round;">
<path d="M78000 58500
L78000 63500
" />
</g>
<g style="fill:#008400; fill-opacity:0.0; 
stroke:#008400; stroke-width:0; stroke-opacity:1; 
stroke-linecap:round; stroke-linejoin:round;">
</g>
<g style="fill:#008400; fill-opacity:1.0; 
stroke:#008400; stroke-width:100; stroke-opacity:1; 
stroke-linecap:round; stroke-linejoin:round;">
<circle cx="78000" cy="63500" r="200" /> 
</g>
<g style="fill:#008400; fill-opacity:0.0; 
stroke:#008400; stroke-width:100; stroke-opacity:1; 
stroke-linecap:round; stroke-linejoin:round;">
<path d="M60000 52500
L60000 55500
" />
<path d="M60000 55500
L60000 58500
" />
<path d="M60000 55500
L71500 55500
" />
<path d="M71500 55500
L75000 55500
" />
</g>
<g style="fill:#008400; fill-opacity:0.0; 
stroke:#008400; stroke-width:0; stroke-opacity:1; 
stroke-linecap:round; stroke-linejoin:round;">
</g>
<g style="fill:#008400; fill-opacity:1.0; 
stroke:#008400; stroke-width:100; stroke-opacity:1; 
stroke-linecap:round; stroke-linejoin:round;">
<circle cx="60000" cy="55500" r="200" /> 
</g>
<g style="fill:#008400; fill-opacity:0.0; 
stroke:#008400; stroke-width:100; stroke-opacity:1; 
stroke-linecap:round; stroke-linejoin:round;">
<path d="M60000 47500
L60000 49500
" />
<path d="M49000 47500
L55000 47500
" />
<path d="M55000 47500
L60000 47500
" />
<path d="M60000 47500
L65000 47500
" />
<path d="M60000 63500
L60000 61500
" />
<path d="M49000 63500
L55000 63500
" />
<path d="M55000 63500
L60000 63500
" />
<path d="M60000 63500
L65000 63500
" />
<path d="M55000 54000
L55000 47500
" />
</g>
<g style="fill:#008400; fill-opacity:0.0; 
stroke:#008400; stroke-width:0; stroke-opacity:1; 
stroke-linecap:round; stroke-linejoin:round;">
</g>
<g style="fill:#008400; fill-opacity:1.0; 
stroke:#008400; stroke-width:100; stroke-opacity:1; 
stroke-linecap:round; stroke-linejoin:round;">
<circle cx="60000" cy="47500" r="200" /> 
</g>
<g style="fill:#008400; fill-opacity:0.0; 
stroke:#008400; stroke-width:100; stroke-opacity:1; 
stroke-linecap:round; stroke-linejoin:round;">
<path d="M55000 57000
L55000 63500
" />
</g>
<g style="fill:#008400; fill-opacity:0.0; 
stroke:#008400; stroke-width:0; stroke-opacity:1; 
stroke-linecap:round; stroke-linejoin:round;">
</g>
<g style="fill:#008400; fill-opacity:1.0; 
stroke:#008400; stroke-width:100; stroke-opacity:1; 
stroke-linecap:round; stroke-linejoin:round;">
<circle cx="60000" cy="63500" r="200" /> 
</g>
<g style="fill:#008400; fill-opacity:0.0; 
stroke:#008400; stroke-width:100; stroke-opacity:1; 
stroke-linecap:round; stroke-linejoin:round;">
<path d="M71500 55500
L71500 69000
" />
<path d="M71500 69000
L71500 71500
" />
<path d="M71500 71500
L71500 73500
" />
</g>
<g style="fill:#008400; fill-opacity:0.0; 
stroke:#008400; stroke-width:0; stroke-opacity:1; 
stroke-linecap:round; stroke-linejoin:round;">
</g>
<g style="fill:#008400; fill-opacity:1.0; 
stroke:#008400; stroke-width:100; stroke-opacity:1; 
stroke-linecap:round; stroke-linejoin:round;">
<circle cx="71500" cy="69000" r="200" /> 
</g>
<g style="fill:#008400; fill-opacity:1.0; 
stroke:#008400; stroke-width:0; stroke-opacity:1; 
stroke-linecap:round; stroke-linejoin:round;">
</g>
<g style="fill:#008400; fill-opacity:1.0; 
stroke:#008400; stroke-width:100; stroke-opacity:1; 
stroke-linecap:round; stroke-linejoin:round;">
<circle cx="71500" cy="55500" r="200" /> 
</g>
<g style="fill:#008400; fill-opacity:0.0; 
stroke:#008400; stroke-width:100; stroke-opacity:1; 
stroke-linecap:round; stroke-linejoin:round;">
<path d="M49000 53500
L49000 47500
" />
</g>
<g style="fill:#008400; fill-opacity:0.0; 
stroke:#008400; stroke-width:0; stroke-opacity:1; 
stroke-linecap:round; stroke-linejoin:round;">
</g>
<g style="fill:#008400; fill-opacity:1.0; 
stroke:#008400; stroke-width:100; stroke-opacity:1; 
stroke-linecap:round; stroke-linejoin:round;">
<circle cx="55000" cy="47500" r="200" /> 
</g>
<g style="fill:#008400; fill-opacity:0.0; 
stroke:#008400; stroke-width:100; stroke-opacity:1; 
stroke-linecap:round; stroke-linejoin:round;">
<path d="M49000 57500
L49000 63500
" />
</g>
<g style="fill:#008400; fill-opacity:0.0; 
stroke:#008400; stroke-width:0; stroke-opacity:1; 
stroke-linecap:round; stroke-linejoin:round;">
</g>
<g style="fill:#008400; fill-opacity:1.0; 
stroke:#008400; stroke-width:100; stroke-opacity:1; 
stroke-linecap:round; stroke-linejoin:round;">
<circle cx="55000" cy="63500" r="200" /> 
</g>
<g style="fill:#008400; fill-opacity:0.0; 
stroke:#008400; stroke-width:100; stroke-opacity:1; 
stroke-linecap:round; stroke-linejoin:round;">
<path d="M86000 47500
L91500 47500
" />
<path d="M91500 47500
L91500 53500
" />
<path d="M91500 53500
L120500 53500
" />
<path d="M86000 63500
L91500 63500
" />
<path d="M91500 63500
L91500 57500
" />
<path d="M91500 57500
L120500 57500
" />
</g>
<g style="fill:#008400; fill-opacity:0.0; 
stroke:#008400; stroke-width:0; stroke-opacity:1; 
stroke-linecap:round; stroke-linejoin:round;">
</g>
<g style="fill:#840000; fill-opacity:0.0; 
stroke:#840000; stroke-width:0; stroke-opacity:1; 
stroke-linecap:round; stroke-linejoin:round;">
</g>
<g style="fill:#840000; fill-opacity:0.0; 
stroke:#840000; stroke-width:100; stroke-opacity:1; 
stroke-linecap:round; stroke-linejoin:round;">
<path d="M124000 56999.1 A500 500 0.0 0 0 123501 56500 " />
<path d="M123501 57500 A500 500 0.0 0 0 124000 57000.9 " />
<path d="M124000 55999.1 A500 500 0.0 0 0 123501 55500 " />
<path d="M123501 56500 A500 500 0.0 0 0 124000 56000.9 " />
<path d="M124000 54999.1 A500 500 0.0 0 0 123501 54500 " />
<path d="M123501 55500 A500 500 0.0 0 0 124000 55000.9 " />
<path d="M124000 53999.1 A500 500 0.0 0 0 123501 53500 " />
<path d="M123501 54500 A500 500 0.0 0 0 124000 54000.9 " />
<path d="M125501 55500 A500 500 0.0 0 0 125000 56000.9 " />
<path d="M125000 55999.1 A500 500 0.0 0 0 125501 56500 " />
<path d="M125501 54500 A500 500 0.0 0 0 125000 55000.9 " />
<path d="M125000 54999.1 A500 500 0.0 0 0 125501 55500 " />
<path d="M125501 53500 A500 500 0.0 0 0 125000 54000.9 " />
<path d="M125000 53999.1 A500 500 0.0 0 0 125501 54500 " />
<path d="M125501 56500.1 A500 500 0.0 0 0 125010 57000.9 " />
<path d="M125010 57000.9 A500 500 0.0 0 0 125500 57499.9 " />
<polyline fill="none;"
points="124250,53500
124250,57500
" /> 
<polyline fill="none;"
points="124750,57500
124750,53500
" /> 
<path d="M123500 53500
L120500 53500
" />
</g>
<g style="fill:#840000; fill-opacity:0.0; 
stroke:#840000; stroke-width:80; stroke-opacity:1; 
stroke-linecap:round; stroke-linejoin:round;">
<path d="M122140 53380
L121860 53380
" />
<path d="M122000 53380
L122000 52880
L121950 52950
L121900 53000
L121860 53020
" />
</g>
<g style="fill:#840000; fill-opacity:0.0; 
stroke:#840000; stroke-width:100; stroke-opacity:1; 
stroke-linecap:round; stroke-linejoin:round;">
<path d="M123500 57500
L120500 57500
" />
</g>
<g style="fill:#840000; fill-opacity:0.0; 
stroke:#840000; stroke-width:80; stroke-opacity:1; 
stroke-linecap:round; stroke-linejoin:round;">
<path d="M121860 56920
L121880 56900
L121930 56880
L122050 56880
L122090 56900
L122120 56920
L122140 56970
L122140 57020
L122120 57090
L121830 57380
L122140 57380
" />
</g>
<g style="fill:#840000; fill-opacity:0.0; 
stroke:#840000; stroke-width:100; stroke-opacity:1; 
stroke-linecap:round; stroke-linejoin:round;">
<path d="M125500 57500
L128500 57500
" />
</g>
<g style="fill:#840000; fill-opacity:0.0; 
stroke:#840000; stroke-width:80; stroke-opacity:1; 
stroke-linecap:round; stroke-linejoin:round;">
<path d="M126830 56880
L127140 56880
L126970 57070
L127050 57070
L127090 57090
L127120 57110
L127140 57160
L127140 57280
L127120 57330
L127090 57350
L127050 57380
L126900 57380
L126860 57350
L126830 57330
" />
</g>
<g style="fill:#840000; fill-opacity:0.0; 
stroke:#840000; stroke-width:100; stroke-opacity:1; 
stroke-linecap:round; stroke-linejoin:round;">
<path d="M125500 53500
L128500 53500
" />
</g>
<g style="fill:#840000; fill-opacity:0.0; 
stroke:#840000; stroke-width:80; stroke-opacity:1; 
stroke-linecap:round; stroke-linejoin:round;">
<path d="M127090 53040
L127090 53380
" />
<path d="M126970 52850
L126860 53210
L127160 53210
" />
</g>
<g style="fill:#840000; fill-opacity:0.0; 
stroke:#840000; stroke-width:100; stroke-opacity:1; 
stroke-linecap:round; stroke-linejoin:round;">
</g>
<g style="fill:#008484; fill-opacity:0.0; 
stroke:#008484; stroke-width:100; stroke-opacity:1; 
stroke-linecap:round; stroke-linejoin:round;">
</g>
<g style="fill:#008484; fill-opacity:0.0; 
stroke:#008484; stroke-width:80; stroke-opacity:1; 
stroke-linecap:round; stroke-linejoin:round;">
<path d="M124150 52770
L124430 52770
" />
<path d="M124290 53270
L124290 52770
" />
<path d="M124670 53220
L124690 53240
L124670 53270
L124650 53240
L124670 53220
L124670 53270
" />
<path d="M124580 52790
L124620 52770
L124740 52770
L124790 52790
L124810 52840
L124810 52890
L124790 52930
L124770 52960
L124720 52980
L124690 53000
L124670 53050
L124670 53080
" />
<path d="M124000 58310
L124020 58290
L124070 58270
L124190 58270
L124230 58290
L124260 58310
L124280 58360
L124280 58410
L124260 58480
L123970 58770
L124280 58770
" />
<path d="M124500 58720
L124520 58740
L124500 58770
L124480 58740
L124500 58720
L124500 58770
" />
<path d="M124500 58460
L124520 58480
L124500 58500
L124480 58480
L124500 58460
L124500 58500
" />
<path d="M125000 58770
L124720 58770
" />
<path d="M124860 58770
L124860 58270
L124810 58340
L124760 58390
L124720 58410
" />
</g>
<g style="fill:#008484; fill-opacity:0.0; 
stroke:#008484; stroke-width:0; stroke-opacity:1; 
stroke-linecap:round; stroke-linejoin:round;">
</g>
<g style="fill:#840000; fill-opacity:0.0; 
stroke:#840000; stroke-width:0; stroke-opacity:1; 
stroke-linecap:round; stroke-linejoin:round;">
</g>
<g style="fill:#840000; fill-opacity:0.0; 
stroke:#840000; stroke-width:100; stroke-opacity:1; 
stroke-linecap:round; stroke-linejoin:round;">
<path d="M34500 56999.1 A500 500 0.0 0 0 34000.9 56500 " />
<path d="M34000.9 57500 A500 500 0.0 0 0 34500 57000.9 " />
<path d="M34500 55999.1 A500 500 0.0 0 0 34000.9 55500 " />
<path d="M34000.9 56500 A500 500 0.0 0 0 34500 56000.9 " />
<path d="M34500 54999.1 A500 500 0.0 0 0 34000.9 54500 " />
<path d="M34000.9 55500 A500 500 0.0 0 0 34500 55000.9 " />
<path d="M34500 53999.1 A500 500 0.0 0 0 34000.9 53500 " />
<path d="M34000.9 54500 A500 500 0.0 0 0 34500 54000.9 " />
<path d="M36000.9 55500 A500 500 0.0 0 0 35500 56000.9 " />
<path d="M35500 55999.1 A500 500 0.0 0 0 36000.9 56500 " />
<path d="M36000.9 54500 A500 500 0.0 0 0 35500 55000.9 " />
<path d="M35500 54999.1 A500 500 0.0 0 0 36000.9 55500 " />
<path d="M36000.9 53500 A500 500 0.0 0 0 35500 54000.9 " />
<path d="M35500 53999.1 A500 500 0.0 0 0 36000.9 54500 " />
<path d="M36001.3 56500.1 A500 500 0.0 0 0 35510 57000.9 " />
<path d="M35510 57000.9 A500 500 0.0 0 0 35999.5 57499.9 " />
<polyline fill="none;"
points="34750,53500
34750,57500
" /> 
<polyline fill="none;"
points="35250,57500
35250,53500
" /> 
<path d="M34000 53500
L31000 53500
" />
</g>
<g style="fill:#840000; fill-opacity:0.0; 
stroke:#840000; stroke-width:80; stroke-opacity:1; 
stroke-linecap:round; stroke-linejoin:round;">
<path d="M32640 53380
L32360 53380
" />
<path d="M32500 53380
L32500 52880
L32450 52950
L32400 53000
L32360 53020
" />
</g>
<g style="fill:#840000; fill-opacity:0.0; 
stroke:#840000; stroke-width:100; stroke-opacity:1; 
stroke-linecap:round; stroke-linejoin:round;">
<path d="M34000 57500
L31000 57500
" />
</g>
<g style="fill:#840000; fill-opacity:0.0; 
stroke:#840000; stroke-width:80; stroke-opacity:1; 
stroke-linecap:round; stroke-linejoin:round;">
<path d="M32360 56920
L32380 56900
L32430 56880
L32550 56880
L32590 56900
L32620 56920
L32640 56970
L32640 57020
L32620 57090
L32330 57380
L32640 57380
" />
</g>
<g style="fill:#840000; fill-opacity:0.0; 
stroke:#840000; stroke-width:100; stroke-opacity:1; 
stroke-linecap:round; stroke-linejoin:round;">
<path d="M36000 57500
L39000 57500
" />
</g>
<g style="fill:#840000; fill-opacity:0.0; 
stroke:#840000; stroke-width:80; stroke-opacity:1; 
stroke-linecap:round; stroke-linejoin:round;">
<path d="M37330 56880
L37640 56880
L37470 57070
L37550 57070
L37590 57090
L37620 57110
L37640 57160
L37640 57280
L37620 57330
L37590 57350
L37550 57380
L37400 57380
L37360 57350
L37330 57330
" />
</g>
<g style="fill:#840000; fill-opacity:0.0; 
stroke:#840000; stroke-width:100; stroke-opacity:1; 
stroke-linecap:round; stroke-linejoin:round;">
<path d="M36000 53500
L39000 53500
" />
</g>
<g style="fill:#840000; fill-opacity:0.0; 
stroke:#840000; stroke-width:80; stroke-opacity:1; 
stroke-linecap:round; stroke-linejoin:round;">
<path d="M37590 53040
L37590 53380
" />
<path d="M37470 52850
L37360 53210
L37660 53210
" />
</g>
<g style="fill:#840000; fill-opacity:0.0; 
stroke:#840000; stroke-width:100; stroke-opacity:1; 
stroke-linecap:round; stroke-linejoin:round;">
</g>
<g style="fill:#008484; fill-opacity:0.0; 
stroke:#008484; stroke-width:100; stroke-opacity:1; 
stroke-linecap:round; stroke-linejoin:round;">
</g>
<g style="fill:#008484; fill-opacity:0.0; 
stroke:#008484; stroke-width:80; stroke-opacity:1; 
stroke-linecap:round; stroke-linejoin:round;">
<path d="M34650 52770
L34930 52770
" />
<path d="M34790 53270
L34790 52770
" />
<path d="M35170 53220
L35190 53240
L35170 53270
L35150 53240
L35170 53220
L35170 53270
" />
<path d="M35080 52790
L35120 52770
L35240 52770
L35290 52790
L35310 52840
L35310 52890
L35290 52930
L35270 52960
L35220 52980
L35190 53000
L35170 53050
L35170 53080
" />
<path d="M34780 58770
L34500 58770
" />
<path d="M34640 58770
L34640 58270
L34590 58340
L34540 58390
L34500 58410
" />
<path d="M35000 58720
L35020 58740
L35000 58770
L34980 58740
L35000 58720
L35000 58770
" />
<path d="M35000 58460
L35020 58480
L35000 58500
L34980 58480
L35000 58460
L35000 58500
" />
<path d="M35220 58310
L35240 58290
L35290 58270
L35410 58270
L35450 58290
L35480 58310
L35500 58360
L35500 58410
L35480 58480
L35190 58770
L35500 58770
" />
</g>
<g style="fill:#008484; fill-opacity:0.0; 
stroke:#008484; stroke-width:100; stroke-opacity:1; 
stroke-linecap:round; stroke-linejoin:round;">
</g>
<g style="fill:#008400; fill-opacity:0.0; 
stroke:#008400; stroke-width:100; stroke-opacity:1; 
stroke-linecap:round; stroke-linejoin:round;">
<path d="M39000 53500
L49000 53500
" />
<path d="M39000 57500
L49000 57500
" />
<path d="M21000 54500
L23000 54500
" />
<path d="M23000 54500
L23000 53500
" />
<path d="M23000 53500
L29500 53500
" />
<path d="M29500 53500
L31000 53500
" />
<path d="M21000 56500
L23000 56500
" />
<path d="M23000 56500
L23000 57500
" />
<path d="M23000 57500
L29500 57500
" />
<path d="M29500 57500
L31000 57500
" />
<path d="M128500 53500
L130000 53500
" />
<path d="M130000 53500
L141000 53500
" />
<path d="M141000 53500
L141000 54500
" />
<path d="M141000 54500
L143000 54500
" />
<path d="M128500 57500
L130000 57500
" />
<path d="M130000 57500
L141000 57500
" />
<path d="M141000 57500
L141000 56500
" />
<path d="M141000 56500
L143000 56500
" />
</g>
<g style="fill:#008400; fill-opacity:0.0; 
stroke:#008400; stroke-width:0; stroke-opacity:1; 
stroke-linecap:round; stroke-linejoin:round;">
</g>
<g style="fill:#840000; fill-opacity:0.0; 
stroke:#840000; stroke-width:0; stroke-opacity:1; 
stroke-linecap:round; stroke-linejoin:round;">
</g>
<g style="fill:#840000; fill-opacity:0.0; 
stroke:#840000; stroke-width:100; stroke-opacity:1; 
stroke-linecap:round; stroke-linejoin:round;">
<polyline fill="none;"
points="130000,56000
130000,55000
" /> 
</g>
<g style="fill:#840000; fill-opacity:0.0; 
stroke:#840000; stroke-width:80; stroke-opacity:1; 
stroke-linecap:round; stroke-linejoin:round;">
<polyline fill="none;"
points="130500,54500
130000,55500
129500,54500
130500,54500
" /> 
<polyline fill="none;"
points="129500,55700
129500,55500
130500,55500
130500,55300
" /> 
<polyline fill="none;"
points="129500,56500
130500,56500
130000,55500
129500,56500
" /> 
</g>
<g style="fill:#840000; fill-opacity:0.0; 
stroke:#840000; stroke-width:100; stroke-opacity:1; 
stroke-linecap:round; stroke-linejoin:round;">
<path d="M130000 55000
L130000 54000
" />
<path d="M130000 56000
L130000 57000
" />
</g>
<g style="fill:#008484; fill-opacity:0.0; 
stroke:#008484; stroke-width:100; stroke-opacity:1; 
stroke-linecap:round; stroke-linejoin:round;">
</g>
<g style="fill:#008484; fill-opacity:0.0; 
stroke:#008484; stroke-width:80; stroke-opacity:1; 
stroke-linecap:round; stroke-linejoin:round;">
<path d="M129270 55840
L128770 55840
L128770 55720
L128790 55650
L128840 55600
L128890 55580
L128980 55560
L129050 55560
L129150 55580
L129190 55600
L129240 55650
L129270 55720
L129270 55840
" />
<path d="M129220 55270
L129240 55250
L129270 55270
L129240 55290
L129220 55270
L129270 55270
" />
<path d="M128790 55360
L128770 55320
L128770 55200
L128790 55150
L128840 55130
L128890 55130
L128930 55150
L128960 55170
L128980 55220
L129000 55250
L129050 55270
L129080 55270
" />
<path d="M130810 56090
L130790 56070
L130770 56020
L130770 55900
L130790 55860
L130810 55830
L130860 55810
L130910 55810
L130980 55830
L131270 56120
L131270 55810
" />
<path d="M130770 55500
L130770 55450
L130790 55400
L130810 55380
L130860 55350
L130960 55330
L131080 55330
L131170 55350
L131220 55380
L131240 55400
L131270 55450
L131270 55500
L131240 55540
L131220 55570
L131170 55590
L131080 55610
L130960 55610
L130860 55590
L130810 55570
L130790 55540
L130770 55500
" />
<path d="M130770 55180
L131270 55020
L130770 54850
" />
</g>
<g style="fill:#008484; fill-opacity:0.0; 
stroke:#008484; stroke-width:100; stroke-opacity:1; 
stroke-linecap:round; stroke-linejoin:round;">
</g>
<g style="fill:#008400; fill-opacity:0.0; 
stroke:#008400; stroke-width:100; stroke-opacity:1; 
stroke-linecap:round; stroke-linejoin:round;">
<path d="M130000 54000
L130000 53500
" />
</g>
<g style="fill:#008400; fill-opacity:0.0; 
stroke:#008400; stroke-width:0; stroke-opacity:1; 
stroke-linecap:round; stroke-linejoin:round;">
</g>
<g style="fill:#008400; fill-opacity:1.0; 
stroke:#008400; stroke-width:100; stroke-opacity:1; 
stroke-linecap:round; stroke-linejoin:round;">
<circle cx="130000" cy="53500" r="200" /> 
</g>
<g style="fill:#008400; fill-opacity:0.0; 
stroke:#008400; stroke-width:100; stroke-opacity:1; 
stroke-linecap:round; stroke-linejoin:round;">
<path d="M130000 57000
L130000 57500
" />
</g>
<g style="fill:#008400; fill-opacity:0.0; 
stroke:#008400; stroke-width:0; stroke-opacity:1; 
stroke-linecap:round; stroke-linejoin:round;">
</g>
<g style="fill:#008400; fill-opacity:1.0; 
stroke:#008400; stroke-width:100; stroke-opacity:1; 
stroke-linecap:round; stroke-linejoin:round;">
<circle cx="130000" cy="57500" r="200" /> 
</g>
<g style="fill:#008400; fill-opacity:1.0; 
stroke:#008400; stroke-width:0; stroke-opacity:1; 
stroke-linecap:round; stroke-linejoin:round;">
</g>
<g style="fill:#840000; fill-opacity:1.0; 
stroke:#840000; stroke-width:0; stroke-opacity:1; 
stroke-linecap:round; stroke-linejoin:round;">
</g>
<g style="fill:#840000; fill-opacity:0.0; 
stroke:#840000; stroke-width:100; stroke-opacity:1; 
stroke-linecap:round; stroke-linejoin:round;">
<polyline fill="none;"
points="102500,57500
102500,56500
" /> 
<polyline fill="none;"
points="102500,56000
102500,55000
" /> 
<polyline fill="none;"
points="102500,54500
102500,53500
" /> 
<polyline fill="none;"
points="103500,52500
104500,52500
" /> 
<polyline fill="none;"
points="104500,58500
103500,58500
" /> 
<polyline fill="none;"
points="106000,58500
105000,58500
" /> 
<polyline fill="none;"
points="106000,52500
105000,52500
" /> 
<polyline fill="none;"
points="107500,58500
106500,58500
" /> 
<polyline fill="none;"
points="107500,52500
106500,52500
" /> 
<polyline fill="none;"
points="108000,58500
109000,58500
" /> 
<polyline fill="none;"
points="109000,52500
108000,52500
" /> 
<polyline fill="none;"
points="109500,58500
110500,58500
" /> 
<polyline fill="none;"
points="110500,52500
109500,52500
" /> 
<polyline fill="none;"
points="111000,58500
112000,58500
" /> 
<polyline fill="none;"
points="112000,52500
111000,52500
" /> 
<polyline fill="none;"
points="112500,58500
113500,58500
" /> 
<polyline fill="none;"
points="113500,52500
112500,52500
" /> 
<polyline fill="none;"
points="114500,57500
114500,56500
" /> 
<polyline fill="none;"
points="114500,56000
114500,55000
" /> 
<polyline fill="none;"
points="114500,54500
114500,53500
" /> 
<polyline fill="none;"
points="102500,53000
102500,52500
103000,52500
" /> 
<polyline fill="none;"
points="103000,58500
102500,58500
102500,58000
" /> 
<polyline fill="none;"
points="114000,58500
114500,58500
114500,58000
" /> 
<polyline fill="none;"
points="114500,53000
114500,52500
114000,52500
" /> 
<path d="M108500 58500
L108500 59500
" />
</g>
<g style="fill:#008484; fill-opacity:0.0; 
stroke:#008484; stroke-width:100; stroke-opacity:1; 
stroke-linecap:round; stroke-linejoin:round;">
</g>
<g style="fill:#008484; fill-opacity:0.0; 
stroke:#008484; stroke-width:80; stroke-opacity:1; 
stroke-linecap:round; stroke-linejoin:round;">
<path d="M108700 58000
L108730 57930
L108730 57810
L108700 57770
L108680 57740
L108630 57720
L108580 57720
L108540 57740
L108510 57770
L108490 57810
L108460 57910
L108440 57960
L108420 57980
L108370 58000
L108320 58000
L108270 57980
L108250 57960
L108230 57910
L108230 57790
L108250 57720
" />
<path d="M108730 57500
L108230 57500
" />
<path d="M108730 57290
L108460 57290
L108420 57310
L108390 57360
L108390 57430
L108420 57480
L108440 57500
" />
<path d="M108730 57050
L108390 57050
" />
<path d="M108230 57050
L108250 57070
L108270 57050
L108250 57030
L108230 57050
L108270 57050
" />
<path d="M108700 56620
L108730 56670
L108730 56760
L108700 56810
L108650 56830
L108460 56830
L108420 56810
L108390 56760
L108390 56670
L108420 56620
L108460 56600
L108510 56600
L108560 56830
" />
<path d="M108730 56310
L108700 56360
L108650 56380
L108230 56380
" />
<path d="M108730 55910
L108230 55910
" />
<path d="M108700 55910
L108730 55950
L108730 56050
L108700 56100
L108680 56120
L108630 56140
L108490 56140
L108440 56120
L108420 56100
L108390 56050
L108390 55950
L108420 55910
" />
</g>
<g style="fill:#008484; fill-opacity:0.0; 
stroke:#008484; stroke-width:100; stroke-opacity:1; 
stroke-linecap:round; stroke-linejoin:round;">
</g>
<g style="fill:#840000; fill-opacity:0.0; 
stroke:#840000; stroke-width:100; stroke-opacity:1; 
stroke-linecap:round; stroke-linejoin:round;">
</g>
<g style="fill:#840000; fill-opacity:0.0; 
stroke:#840000; stroke-width:80; stroke-opacity:1; 
stroke-linecap:round; stroke-linejoin:round;">
<path d="M108380 58860
L108380 59140
" />
<path d="M108380 59000
L107880 59000
L107950 59050
L108000 59100
L108020 59140
" />
</g>
<g style="fill:#840000; fill-opacity:0.0; 
stroke:#840000; stroke-width:100; stroke-opacity:1; 
stroke-linecap:round; stroke-linejoin:round;">
</g>
<g style="fill:#008484; fill-opacity:0.0; 
stroke:#008484; stroke-width:100; stroke-opacity:1; 
stroke-linecap:round; stroke-linejoin:round;">
</g>
<g style="fill:#008484; fill-opacity:0.0; 
stroke:#008484; stroke-width:80; stroke-opacity:1; 
stroke-linecap:round; stroke-linejoin:round;">
<path d="M108360 51270
L108360 51620
L108340 51690
L108290 51740
L108220 51770
L108170 51770
" />
<path d="M108670 51720
L108690 51740
L108670 51770
L108650 51740
L108670 51720
L108670 51770
" />
<path d="M108580 51290
L108620 51270
L108740 51270
L108790 51290
L108810 51340
L108810 51390
L108790 51430
L108770 51460
L108720 51480
L108690 51500
L108670 51550
L108670 51580
" />
</g>
<g style="fill:#008484; fill-opacity:0.0; 
stroke:#008484; stroke-width:100; stroke-opacity:1; 
stroke-linecap:round; stroke-linejoin:round;">
</g>
<g style="fill:#008400; fill-opacity:0.0; 
stroke:#008400; stroke-width:100; stroke-opacity:1; 
stroke-linecap:round; stroke-linejoin:round;">
<path d="M71500 71500
L108500 71500
" />
<path d="M108500 71500
L108500 59500
" />
</g>
<g style="fill:#008400; fill-opacity:0.0; 
stroke:#008400; stroke-width:0; stroke-opacity:1; 
stroke-linecap:round; stroke-linejoin:round;">
</g>
<g style="fill:#008400; fill-opacity:1.0; 
stroke:#008400; stroke-width:100; stroke-opacity:1; 
stroke-linecap:round; stroke-linejoin:round;">
<circle cx="71500" cy="71500" r="200" /> 
</g>
<g style="fill:#0000C2; fill-opacity:0.0; 
stroke:#0000C2; stroke-width:100; stroke-opacity:1; 
stroke-linecap:round; stroke-linejoin:round;">
<path d="M149170 59220
L147990 59220
L147990 58770
L148050 58660
L148110 58600
L148220 58540
L148390 58540
L148500 58600
L148560 58660
L148610 58770
L148610 59220
" />
<path d="M149120 57590
L149170 57700
L149170 57930
L149120 58040
L149010 58100
L148560 58100
L148440 58040
L148390 57930
L148390 57700
L148440 57590
L148560 57530
L148670 57530
L148780 58100
" />
<path d="M149170 57030
L148390 57030
" />
<path d="M148610 57030
L148500 56970
L148440 56920
L148390 56800
L148390 56690
" />
<path d="M149170 56300
L148390 56300
" />
<path d="M147990 56300
L148050 56360
L148110 56300
L148050 56240
L147990 56300
L148110 56300
" />
<path d="M148390 55740
L149570 55740
" />
<path d="M148440 55740
L148390 55630
L148390 55400
L148440 55290
L148500 55230
L148610 55180
L148950 55180
L149060 55230
L149120 55290
L149170 55400
L149170 55630
L149120 55740
" />
<path d="M149170 54670
L147990 54670
" />
<path d="M149170 54160
L148560 54160
L148440 54220
L148390 54330
L148390 54500
L148440 54610
L148500 54670
" />
<path d="M149120 53150
L149170 53260
L149170 53490
L149120 53600
L149010 53660
L148560 53660
L148440 53600
L148390 53490
L148390 53260
L148440 53150
L148560 53090
L148670 53090
L148780 53660
" />
<path d="M149170 52590
L148390 52590
" />
<path d="M148610 52590
L148500 52530
L148440 52480
L148390 52360
L148390 52250
" />
<path d="M149170 51350
L148560 51350
L148440 51410
L148390 51520
L148390 51750
L148440 51860
" />
<path d="M149120 51350
L149170 51470
L149170 51750
L149120 51860
L149010 51920
L148890 51920
L148780 51860
L148720 51750
L148720 51470
L148670 51350
" />
<path d="M149170 50620
L149120 50730
L149010 50790
L147990 50790
" />
<path d="M150940 58710
L149760 58710
" />
<path d="M150890 58710
L150940 58830
L150940 59050
L150890 59160
L150830 59220
L150720 59280
L150380 59280
L150270 59220
L150210 59160
L150160 59050
L150160 58830
L150210 58710
" />
<path d="M150890 57700
L150940 57810
L150940 58040
L150890 58150
L150780 58210
L150330 58210
L150210 58150
L150160 58040
L150160 57810
L150210 57700
L150330 57640
L150440 57640
L150550 58210
" />
<path d="M150160 57250
L150940 56970
L150160 56690
" />
<path d="M150940 56240
L150160 56240
" />
<path d="M149760 56240
L149820 56300
L149880 56240
L149820 56180
L149760 56240
L149880 56240
" />
<path d="M150890 55170
L150940 55290
L150940 55510
L150890 55620
L150830 55680
L150720 55740
L150380 55740
L150270 55680
L150210 55620
L150160 55510
L150160 55290
L150210 55170
" />
<path d="M150890 54220
L150940 54330
L150940 54560
L150890 54670
L150780 54730
L150330 54730
L150210 54670
L150160 54560
L150160 54330
L150210 54220
L150330 54160
L150440 54160
L150550 54730
" />
<path d="M15330 58540
L15390 58600
L15440 58770
L15440 58880
L15390 59050
L15280 59160
L15160 59220
L14940 59280
L14770 59280
L14540 59220
L14430 59160
L14320 59050
L14260 58880
L14260 58770
L14320 58600
L14380 58540
" />
<path d="M15440 57870
L15390 57980
L15330 58040
L15220 58100
L14880 58100
L14770 58040
L14710 57980
L14660 57870
L14660 57700
L14710 57590
L14770 57530
L14880 57480
L15220 57480
L15330 57530
L15390 57590
L15440 57700
L15440 57870
" />
<path d="M14660 56970
L15440 56970
" />
<path d="M14770 56970
L14710 56910
L14660 56800
L14660 56630
L14710 56520
L14830 56460
L15440 56460
" />
<path d="M14660 56070
L14660 55620
" />
<path d="M14260 55900
L15280 55900
L15390 55840
L15440 55730
L15440 55620
" />
<path d="M15440 55230
L14660 55230
" />
<path d="M14880 55230
L14770 55170
L14710 55120
L14660 55000
L14660 54890
" />
<path d="M15440 54330
L15390 54440
L15330 54500
L15220 54560
L14880 54560
L14770 54500
L14710 54440
L14660 54330
L14660 54160
L14710 54050
L14770 53990
L14880 53940
L15220 53940
L15330 53990
L15390 54050
L15440 54160
L15440 54330
" />
<path d="M15440 53260
L15390 53370
L15280 53430
L14260 53430
" />
<path d="M15440 52640
L15390 52750
L15280 52810
L14260 52810
" />
<path d="M15390 51740
L15440 51850
L15440 52080
L15390 52190
L15280 52250
L14830 52250
L14710 52190
L14660 52080
L14660 51850
L14710 51740
L14830 51680
L14940 51680
L15050 52250
" />
<path d="M15440 51180
L14660 51180
" />
<path d="M14880 51180
L14770 51120
L14710 51070
L14660 50950
L14660 50840
" />
</g>
<g style="fill:#0000C2; fill-opacity:0.0; 
stroke:#0000C2; stroke-width:0; stroke-opacity:1; 
stroke-linecap:round; stroke-linejoin:round;">
</g>
<g style="fill:#840000; fill-opacity:0.0; 
stroke:#840000; stroke-width:0; stroke-opacity:1; 
stroke-linecap:round; stroke-linejoin:round;">
</g>
<g style="fill:#840000; fill-opacity:0.0; 
stroke:#840000; stroke-width:100; stroke-opacity:1; 
stroke-linecap:round; stroke-linejoin:round;">
<polyline fill="none;"
points="29500,56000
29500,55000
" /> 
</g>
<g style="fill:#840000; fill-opacity:0.0; 
stroke:#840000; stroke-width:80; stroke-opacity:1; 
stroke-linecap:round; stroke-linejoin:round;">
<polyline fill="none;"
points="30000,54500
29500,55500
29000,54500
30000,54500
" /> 
<polyline fill="none;"
points="29000,55700
29000,55500
30000,55500
30000,55300
" /> 
<polyline fill="none;"
points="29000,56500
30000,56500
29500,55500
29000,56500
" /> 
</g>
<g style="fill:#840000; fill-opacity:0.0; 
stroke:#840000; stroke-width:100; stroke-opacity:1; 
stroke-linecap:round; stroke-linejoin:round;">
<path d="M29500 55000
L29500 54000
" />
<path d="M29500 56000
L29500 57000
" />
</g>
<g style="fill:#008484; fill-opacity:0.0; 
stroke:#008484; stroke-width:100; stroke-opacity:1; 
stroke-linecap:round; stroke-linejoin:round;">
</g>
<g style="fill:#008484; fill-opacity:0.0; 
stroke:#008484; stroke-width:80; stroke-opacity:1; 
stroke-linecap:round; stroke-linejoin:round;">
<path d="M28770 55840
L28270 55840
L28270 55720
L28290 55650
L28340 55600
L28390 55580
L28480 55560
L28550 55560
L28650 55580
L28690 55600
L28740 55650
L28770 55720
L28770 55840
" />
<path d="M28720 55270
L28740 55250
L28770 55270
L28740 55290
L28720 55270
L28770 55270
" />
<path d="M28290 55360
L28270 55320
L28270 55200
L28290 55150
L28340 55130
L28390 55130
L28430 55150
L28460 55170
L28480 55220
L28500 55250
L28550 55270
L28580 55270
" />
<path d="M30310 56090
L30290 56070
L30270 56020
L30270 55900
L30290 55860
L30310 55830
L30360 55810
L30410 55810
L30480 55830
L30770 56120
L30770 55810
" />
<path d="M30270 55500
L30270 55450
L30290 55400
L30310 55380
L30360 55350
L30460 55330
L30580 55330
L30670 55350
L30720 55380
L30740 55400
L30770 55450
L30770 55500
L30740 55540
L30720 55570
L30670 55590
L30580 55610
L30460 55610
L30360 55590
L30310 55570
L30290 55540
L30270 55500
" />
<path d="M30270 55180
L30770 55020
L30270 54850
" />
</g>
<g style="fill:#008484; fill-opacity:0.0; 
stroke:#008484; stroke-width:100; stroke-opacity:1; 
stroke-linecap:round; stroke-linejoin:round;">
</g>
<g style="fill:#008400; fill-opacity:0.0; 
stroke:#008400; stroke-width:100; stroke-opacity:1; 
stroke-linecap:round; stroke-linejoin:round;">
<path d="M29500 54000
L29500 53500
" />
</g>
<g style="fill:#008400; fill-opacity:0.0; 
stroke:#008400; stroke-width:0; stroke-opacity:1; 
stroke-linecap:round; stroke-linejoin:round;">
</g>
<g style="fill:#008400; fill-opacity:1.0; 
stroke:#008400; stroke-width:100; stroke-opacity:1; 
stroke-linecap:round; stroke-linejoin:round;">
<circle cx="29500" cy="53500" r="200" /> 
</g>
<g style="fill:#008400; fill-opacity:0.0; 
stroke:#008400; stroke-width:100; stroke-opacity:1; 
stroke-linecap:round; stroke-linejoin:round;">
<path d="M29500 57000
L29500 57500
" />
</g>
<g style="fill:#008400; fill-opacity:0.0; 
stroke:#008400; stroke-width:0; stroke-opacity:1; 
stroke-linecap:round; stroke-linejoin:round;">
</g>
<g style="fill:#008400; fill-opacity:1.0; 
stroke:#008400; stroke-width:100; stroke-opacity:1; 
stroke-linecap:round; stroke-linejoin:round;">
<circle cx="29500" cy="57500" r="200" /> 
</g>
<g style="fill:#0000C2; fill-opacity:1.0; 
stroke:#0000C2; stroke-width:100; stroke-opacity:1; 
stroke-linecap:round; stroke-linejoin:round;">
</g>
<g style="fill:#0000C2; fill-opacity:1.0; 
stroke:#0000C2; stroke-width:100; stroke-opacity:1; 
stroke-linecap:round; stroke-linejoin:round;stroke-dasharray:96.8504,198.425;">
</g>
<g style="fill:#0000C2; fill-opacity:0.0; 
stroke:#0000C2; stroke-width:100; stroke-opacity:1; 
stroke-linecap:round; stroke-linejoin:round;stroke-dasharray:96.8504,198.425;">
<path d="M96500 41000
L42000 41000
" />
</g>
<g style="fill:#0000C2; fill-opacity:0.0; 
stroke:#0000C2; stroke-width:100; stroke-opacity:1; 
stroke-linecap:round; stroke-linejoin:round;">
</g>
<g style="fill:#0000C2; fill-opacity:0.0; 
stroke:#0000C2; stroke-width:100; stroke-opacity:1; 
stroke-linecap:round; stroke-linejoin:round;stroke-dasharray:96.8504,198.425;">
<path d="M42000 69500
L96500 69500
" />
</g>
<g style="fill:#0000C2; fill-opacity:0.0; 
stroke:#0000C2; stroke-width:100; stroke-opacity:1; 
stroke-linecap:round; stroke-linejoin:round;">
</g> 
</svg>
