G04 #@! TF.FileFunction,Legend,Top*
%FSLAX46Y46*%
G04 Gerber Fmt 4.6, Leading zero omitted, Abs format (unit mm)*
G04 Created by KiCad (PCBNEW 4.0.6-e0-6349~53~ubuntu14.04.1) date Tue May 30 21:44:38 2017*
%MOMM*%
%LPD*%
G01*
G04 APERTURE LIST*
%ADD10C,0.100000*%
%ADD11C,0.120000*%
%ADD12C,0.150000*%
G04 APERTURE END LIST*
D10*
D11*
X144770000Y-110580000D02*
X144770000Y-116530000D01*
X144770000Y-116530000D02*
X152370000Y-116530000D01*
X152370000Y-116530000D02*
X152370000Y-110580000D01*
X152370000Y-110580000D02*
X144770000Y-110580000D01*
X148070000Y-110580000D02*
X148070000Y-111330000D01*
X148070000Y-111330000D02*
X149070000Y-111330000D01*
X149070000Y-111330000D02*
X149070000Y-110580000D01*
X149070000Y-110580000D02*
X148070000Y-110580000D01*
X144770000Y-110580000D02*
X144770000Y-111330000D01*
X144770000Y-111330000D02*
X146570000Y-111330000D01*
X146570000Y-111330000D02*
X146570000Y-110580000D01*
X146570000Y-110580000D02*
X144770000Y-110580000D01*
X150570000Y-110580000D02*
X150570000Y-111330000D01*
X150570000Y-111330000D02*
X152370000Y-111330000D01*
X152370000Y-111330000D02*
X152370000Y-110580000D01*
X152370000Y-110580000D02*
X150570000Y-110580000D01*
X144770000Y-112830000D02*
X145520000Y-112830000D01*
X145520000Y-112830000D02*
X145520000Y-115780000D01*
X145520000Y-115780000D02*
X148570000Y-115780000D01*
X152370000Y-112830000D02*
X151620000Y-112830000D01*
X151620000Y-112830000D02*
X151620000Y-115780000D01*
X151620000Y-115780000D02*
X148570000Y-115780000D01*
X146970000Y-110280000D02*
X144470000Y-110280000D01*
X144470000Y-110280000D02*
X144470000Y-112780000D01*
X145380000Y-103720000D02*
X144180000Y-103720000D01*
X144180000Y-102020000D02*
X145380000Y-102020000D01*
X151730000Y-103720000D02*
X150530000Y-103720000D01*
X150530000Y-102020000D02*
X151730000Y-102020000D01*
D12*
X147284286Y-108982381D02*
X147284286Y-109696667D01*
X147236666Y-109839524D01*
X147141428Y-109934762D01*
X146998571Y-109982381D01*
X146903333Y-109982381D01*
X148284286Y-109982381D02*
X147712857Y-109982381D01*
X147998571Y-109982381D02*
X147998571Y-108982381D01*
X147903333Y-109125238D01*
X147808095Y-109220476D01*
X147712857Y-109268095D01*
X148903333Y-108982381D02*
X148998572Y-108982381D01*
X149093810Y-109030000D01*
X149141429Y-109077619D01*
X149189048Y-109172857D01*
X149236667Y-109363333D01*
X149236667Y-109601429D01*
X149189048Y-109791905D01*
X149141429Y-109887143D01*
X149093810Y-109934762D01*
X148998572Y-109982381D01*
X148903333Y-109982381D01*
X148808095Y-109934762D01*
X148760476Y-109887143D01*
X148712857Y-109791905D01*
X148665238Y-109601429D01*
X148665238Y-109363333D01*
X148712857Y-109172857D01*
X148760476Y-109077619D01*
X148808095Y-109030000D01*
X148903333Y-108982381D01*
X150189048Y-109982381D02*
X149617619Y-109982381D01*
X149903333Y-109982381D02*
X149903333Y-108982381D01*
X149808095Y-109125238D01*
X149712857Y-109220476D01*
X149617619Y-109268095D01*
X143660953Y-101672381D02*
X143327619Y-101196190D01*
X143089524Y-101672381D02*
X143089524Y-100672381D01*
X143470477Y-100672381D01*
X143565715Y-100720000D01*
X143613334Y-100767619D01*
X143660953Y-100862857D01*
X143660953Y-101005714D01*
X143613334Y-101100952D01*
X143565715Y-101148571D01*
X143470477Y-101196190D01*
X143089524Y-101196190D01*
X144613334Y-101672381D02*
X144041905Y-101672381D01*
X144327619Y-101672381D02*
X144327619Y-100672381D01*
X144232381Y-100815238D01*
X144137143Y-100910476D01*
X144041905Y-100958095D01*
X145232381Y-100672381D02*
X145327620Y-100672381D01*
X145422858Y-100720000D01*
X145470477Y-100767619D01*
X145518096Y-100862857D01*
X145565715Y-101053333D01*
X145565715Y-101291429D01*
X145518096Y-101481905D01*
X145470477Y-101577143D01*
X145422858Y-101624762D01*
X145327620Y-101672381D01*
X145232381Y-101672381D01*
X145137143Y-101624762D01*
X145089524Y-101577143D01*
X145041905Y-101481905D01*
X144994286Y-101291429D01*
X144994286Y-101053333D01*
X145041905Y-100862857D01*
X145089524Y-100767619D01*
X145137143Y-100720000D01*
X145232381Y-100672381D01*
X146518096Y-101672381D02*
X145946667Y-101672381D01*
X146232381Y-101672381D02*
X146232381Y-100672381D01*
X146137143Y-100815238D01*
X146041905Y-100910476D01*
X145946667Y-100958095D01*
X150010953Y-101672381D02*
X149677619Y-101196190D01*
X149439524Y-101672381D02*
X149439524Y-100672381D01*
X149820477Y-100672381D01*
X149915715Y-100720000D01*
X149963334Y-100767619D01*
X150010953Y-100862857D01*
X150010953Y-101005714D01*
X149963334Y-101100952D01*
X149915715Y-101148571D01*
X149820477Y-101196190D01*
X149439524Y-101196190D01*
X150963334Y-101672381D02*
X150391905Y-101672381D01*
X150677619Y-101672381D02*
X150677619Y-100672381D01*
X150582381Y-100815238D01*
X150487143Y-100910476D01*
X150391905Y-100958095D01*
X151582381Y-100672381D02*
X151677620Y-100672381D01*
X151772858Y-100720000D01*
X151820477Y-100767619D01*
X151868096Y-100862857D01*
X151915715Y-101053333D01*
X151915715Y-101291429D01*
X151868096Y-101481905D01*
X151820477Y-101577143D01*
X151772858Y-101624762D01*
X151677620Y-101672381D01*
X151582381Y-101672381D01*
X151487143Y-101624762D01*
X151439524Y-101577143D01*
X151391905Y-101481905D01*
X151344286Y-101291429D01*
X151344286Y-101053333D01*
X151391905Y-100862857D01*
X151439524Y-100767619D01*
X151487143Y-100720000D01*
X151582381Y-100672381D01*
X152296667Y-100767619D02*
X152344286Y-100720000D01*
X152439524Y-100672381D01*
X152677620Y-100672381D01*
X152772858Y-100720000D01*
X152820477Y-100767619D01*
X152868096Y-100862857D01*
X152868096Y-100958095D01*
X152820477Y-101100952D01*
X152249048Y-101672381D01*
X152868096Y-101672381D01*
M02*
